<?xml version="1.0" standalone="no"?>
<!DOCTYPE svg PUBLIC "-//W3C//DTD SVG 1.1//EN" "http://www.w3.org/Graphics/SVG/1.1/DTD/svg11.dtd" >
<svg>
<metadata>
Created by FontForge 20120731 at Wed Mar  9 23:02:09 2016
 By ,,,
Copyright (c) Village Type &#38; Design LLC, 2004. All rights reserved.
</metadata>
<defs>
<font id="GalaxiePolaris-Light" horiz-adv-x="600" >
  <font-face 
    font-family="Galaxie Polaris Light"
    font-weight="400"
    font-stretch="normal"
    units-per-em="1000"
    panose-1="2 11 5 4 3 3 1 2 1 3"
    ascent="800"
    descent="-200"
    x-height="530"
    cap-height="780"
    bbox="-184 -256 1523 1134"
    underline-thickness="30"
    underline-position="-70"
    unicode-range="U+0020-FF3F"
  />
<missing-glyph horiz-adv-x="960" 
d="M90 0v780h780v-780h-780zM480 345l-279 -279h558zM201 714l279 -279l279 279h-558zM435 390l-275 275v-550zM525 390l275 -275v550z" />
    <glyph glyph-name="f_dotlessi" unicode="f&#x131;" horiz-adv-x="606" 
d="M309 774q-66 0 -97 -29.5t-31 -115.5v-99h153v-34h-153v-496h-38v496h-106v34h106v72q0 39 2 64.5t11.5 55.5t26.5 47t49 29t77 12q35 0 57 -9l-8 -36q-21 9 -49 9zM469 0v530h38v-530h-38z" />
    <glyph glyph-name="fi" unicode="fi" horiz-adv-x="606" 
d="M309 774q-66 0 -97 -29.5t-31 -115.5v-99h153v-34h-153v-496h-38v496h-106v34h106v72q0 39 2 64.5t11.5 55.5t26.5 47t49 29t77 12q35 0 57 -9l-8 -36q-21 9 -49 9zM469 0v530h38v-530h-38zM518 743v-60h-60v60h60z" />
    <glyph glyph-name="fl" unicode="fl" horiz-adv-x="612" 
d="M309 774q-66 0 -97 -29.5t-31 -115.5v-99h153v-34h-153v-496h-38v496h-106v34h106v72q0 39 2 64.5t11.5 55.5t26.5 47t49 29t77 12q35 0 57 -9l-8 -36q-21 9 -49 9zM472 0v800h38v-800h-38z" />
    <glyph glyph-name=".notdef" horiz-adv-x="960" 
d="M90 0v780h780v-780h-780zM480 345l-279 -279h558zM201 714l279 -279l279 279h-558zM435 390l-275 275v-550zM525 390l275 -275v550z" />
    <glyph glyph-name=".null" horiz-adv-x="0" 
 />
    <glyph glyph-name="nonmarkingreturn" horiz-adv-x="333" 
 />
    <glyph glyph-name="space" unicode=" " horiz-adv-x="240" 
 />
    <glyph glyph-name="exclam" unicode="!" horiz-adv-x="200" 
d="M70 780h60l-20 -590h-20zM126 52v-52h-52v52h52z" />
    <glyph glyph-name="quotedbl" unicode="&#x22;" horiz-adv-x="340" 
d="M72 780h56l-19 -250h-18zM212 780h56l-19 -250h-18z" />
    <glyph glyph-name="numbersign" unicode="#" horiz-adv-x="680" 
d="M107 0l54 216h-121v34h130l66 264h-126v34h135l54 216h37l-54 -216h200l54 216h37l-54 -216h121v-34h-130l-66 -264h126v-34h-135l-54 -216h-37l54 216h-200l-54 -216h-37zM273 514l-66 -264h200l66 264h-200z" />
    <glyph glyph-name="dollar" unicode="$" horiz-adv-x="534" 
d="M378 764l-28 -111q77 -11 150 -59l-10 -37q-76 51 -149 60l-52 -209q34 -4 57 -8t51.5 -14t46 -24.5t29.5 -38.5t12 -56q0 -82 -61.5 -121t-158.5 -39q-36 0 -52 2l-27 -109h-37l29 115q-60 13 -123 55l10 37q64 -43 122 -56l56 226q-38 4 -63.5 10t-53.5 19t-42.5 37.5
t-14.5 60.5q0 77 62.5 115t158.5 38q16 0 24 -1l27 108h37zM444 265q0 57 -40 78t-124 30l-58 -228q30 -2 48 -2q44 0 81 10t65 38.5t28 73.5zM109 505q0 -50 30 -66.5t113 -26.5l53 208q-7 1 -20 1q-43 0 -81 -10t-66.5 -37.5t-28.5 -68.5z" />
    <glyph glyph-name="percent" unicode="%" horiz-adv-x="1056" 
d="M249 393q66 0 107 41.5t41 131.5q0 91 -41 133t-107 42q-65 0 -106.5 -42t-41.5 -133q0 -90 41.5 -131.5t106.5 -41.5zM249 774q87 0 135.5 -52.5t48.5 -155.5q0 -102 -48.5 -154t-135.5 -52q-86 0 -135 52t-49 154q0 103 48.5 155.5t135.5 52.5zM802 764l-506 -764h-42
l506 764h42zM807 371q-66 0 -107 -41.5t-41 -131.5q0 -91 41 -133t107 -42q65 0 106.5 42t41.5 133q0 90 -41.5 131.5t-106.5 41.5zM807 -10q-87 0 -135.5 52.5t-48.5 155.5q0 102 48.5 154t135.5 52q86 0 135 -52t49 -154q0 -103 -48.5 -155.5t-135.5 -52.5z" />
    <glyph glyph-name="ampersand" unicode="&#x26;" horiz-adv-x="740" 
d="M642 389q0 -140 -61 -240l122 -109v-50l-143 129q-101 -129 -270 -129q-47 0 -88 11t-77 34.5t-57 66.5t-21 102q0 161 159 235q-50 46 -78 88t-28 95q0 79 50.5 123.5t141.5 44.5q97 0 141 -45.5t44 -115.5q0 -31 -12 -57t-27.5 -44t-47 -37.5t-54.5 -30.5t-66 -30
l282 -254q53 94 53 214q0 67 -21 139l37 5q21 -63 21 -145zM290 25q76 0 140 31.5t102 87.5l-298 270q-147 -68 -147 -210q0 -56 23 -95t59 -55.5t64.5 -22.5t56.5 -6zM139 623q0 -44 26.5 -82.5t77.5 -84.5q44 19 66.5 29t52 27t43 32t23.5 36.5t10 46.5q0 62 -39.5 95
t-106.5 33q-71 0 -112 -35t-41 -97z" />
    <glyph glyph-name="quotesingle" unicode="'" horiz-adv-x="200" 
d="M72 780h56l-19 -250h-18z" />
    <glyph glyph-name="parenleft" unicode="(" horiz-adv-x="240" 
d="M88 350q0 -142 25.5 -250.5t81.5 -229.5h-35q-48 82 -79 210.5t-31 269.5t31 269.5t79 210.5h35q-56 -121 -81.5 -229.5t-25.5 -250.5z" />
    <glyph glyph-name="parenright" unicode=")" horiz-adv-x="240" 
d="M152 350q0 142 -25.5 250.5t-81.5 229.5h35q48 -82 79 -210.5t31 -269.5t-31 -269.5t-79 -210.5h-35q56 121 81.5 229.5t25.5 250.5z" />
    <glyph glyph-name="asterisk" unicode="*" horiz-adv-x="300" 
d="M85 525l-29 21l79 94l-119 30l11 34l113 -46l-8 122h36l-8 -122l113 46l11 -34l-119 -30l79 -94l-29 -21l-65 103z" />
    <glyph glyph-name="plus" unicode="+" horiz-adv-x="490" 
d="M228 195v178h-178v34h178v178h34v-178h178v-34h-178v-178h-34z" />
    <glyph glyph-name="comma" unicode="," horiz-adv-x="200" 
d="M73 52h54l-60 -216h-26z" />
    <glyph glyph-name="hyphen" unicode="-" horiz-adv-x="360" 
d="M310 318h-260v34h260v-34z" />
    <glyph glyph-name="period" unicode="." horiz-adv-x="200" 
d="M130 60v-60h-60v60h60z" />
    <glyph glyph-name="slash" unicode="/" horiz-adv-x="300" 
d="M285 870l-230 -960h-40l230 960h40z" />
    <glyph glyph-name="zero" unicode="0" horiz-adv-x="700" 
d="M350 26q118 0 175 85.5t57 270.5t-57 270.5t-175 85.5t-175 -85.5t-57 -270.5t57 -270.5t175 -85.5zM350 774q143 0 207.5 -96.5t64.5 -295.5t-64 -295.5t-208 -96.5q-143 0 -207.5 96.5t-64.5 295.5t64 295.5t208 96.5z" />
    <glyph glyph-name="one" unicode="1" horiz-adv-x="700" 
d="M600 37v-37h-490v37h221v672q-74 -104 -236 -149v35q82 23 133.5 59.5t107.5 119.5h34v-737h230z" />
    <glyph glyph-name="two" unicode="2" horiz-adv-x="700" 
d="M628 0h-556q0 78 20.5 137t61 101t87 70t113.5 54q43 17 64.5 26t51 23.5t43 27t28.5 30.5t21 40t7 50q2 48 -14.5 83.5t-47 56t-68.5 30t-83 9.5q-109 0 -164.5 -37.5t-71.5 -112.5l-40 5q37 181 276 181q119 0 185.5 -55t66.5 -160q0 -30 -9 -56t-19 -44.5t-34 -37.5
t-37 -28.5t-47 -25t-45 -19.5t-47 -18q-124 -48 -188 -118t-66 -175l146 1h366v-38z" />
    <glyph glyph-name="three" unicode="3" horiz-adv-x="700" 
d="M622 202q0 -100 -71.5 -156t-215.5 -56q-128 0 -192 49t-73 133l39 6q9 -72 61 -111.5t165 -40.5q117 -2 182 41.5t65 134.5q0 172 -210 172h-134v36h134q32 0 57 3.5t51 13.5t43.5 27.5t28.5 47.5t11 71q0 85 -62 126t-161 39q-107 -1 -158 -37t-66 -114l-39 6
q16 87 77.5 134t185.5 47q112 0 186.5 -49.5t74.5 -151.5q0 -76 -41.5 -124.5t-98.5 -54.5v-1q65 -6 113 -52.5t48 -138.5z" />
    <glyph glyph-name="four" unicode="4" horiz-adv-x="700" 
d="M635 186h-148v-186h-36v186h-386v29l384 559h38v-553h148v-35zM451 221v334l1 168l-108 -161l-149 -216l-89 -126l127 1h218z" />
    <glyph glyph-name="five" unicode="5" horiz-adv-x="700" 
d="M165 384l-41 11l36 369h414v-36h-383l-29 -300q30 30 84.5 49t121.5 19q121 0 186.5 -66.5t65.5 -184.5q0 -123 -75 -189t-196 -66q-130 0 -192.5 48.5t-73.5 139.5l39 6q11 -80 60.5 -119.5t166.5 -38.5q109 2 170 56.5t61 162.5q0 212 -212 215q-70 1 -125 -20.5
t-78 -55.5z" />
    <glyph glyph-name="six" unicode="6" horiz-adv-x="700" 
d="M390 739q-123 2 -196.5 -87.5t-73.5 -269.5q0 -21 0.5 -40t1.5 -27v-8q18 63 63 103.5t93 54.5t102 14q111 0 175.5 -63t64.5 -181q0 -115 -72.5 -180t-187.5 -65q-145 0 -212.5 97t-67.5 295q0 190 81 291t230 101q194 0 226 -151l-39 -8q-16 64 -58.5 93.5t-129.5 30.5
zM380 442q-99 1 -170.5 -56.5t-71.5 -156.5q0 -22 1 -32q46 -175 221 -172q93 2 156 53.5t63 156.5q0 106 -54 156t-145 51z" />
    <glyph glyph-name="seven" unicode="7" horiz-adv-x="700" 
d="M253 0h-43l302 600l68 130l-163 -1h-337v35h542v-31z" />
    <glyph glyph-name="eight" unicode="8" horiz-adv-x="700" 
d="M350 26q107 0 170 39.5t63 126.5q0 182 -233 182t-233 -182q0 -87 63 -126.5t170 -39.5zM350 410q213 0 213 162q0 85 -57.5 125.5t-155.5 40.5t-155.5 -40.5t-57.5 -125.5q0 -162 213 -162zM350 -10q-131 0 -202 52.5t-71 147.5q0 168 160 202q-58 14 -98 57.5
t-40 119.5q0 105 67 155t184 50t184 -50t67 -155q0 -76 -40 -119.5t-98 -57.5q160 -34 160 -202q0 -95 -71 -147.5t-202 -52.5z" />
    <glyph glyph-name="nine" unicode="9" horiz-adv-x="700" 
d="M310 25q123 -2 196.5 87.5t73.5 269.5q0 21 -0.5 40t-1.5 27v8q-18 -63 -63 -103.5t-93 -54.5t-102 -14q-111 0 -175.5 63t-64.5 181q0 115 72.5 180t187.5 65q145 0 212.5 -97t67.5 -295q0 -190 -81 -291t-230 -101q-194 0 -226 151l39 8q16 -64 58.5 -93.5t129.5 -30.5
zM320 322q99 -1 170.5 56.5t71.5 156.5q0 22 -1 32q-46 175 -221 172q-93 -2 -156 -53.5t-63 -156.5q0 -106 54 -156t145 -51z" />
    <glyph glyph-name="colon" unicode=":" horiz-adv-x="200" 
d="M130 60v-60h-60v60h60zM130 440v-60h-60v60h60z" />
    <glyph glyph-name="semicolon" unicode=";" horiz-adv-x="200" 
d="M73 52h54l-60 -216h-26zM130 440v-60h-60v60h60z" />
    <glyph glyph-name="less" unicode="&#x3c;" horiz-adv-x="490" 
d="M249 474l-165 -84l165 -84l191 -100v-37l-390 205v32l390 205v-37z" />
    <glyph glyph-name="equal" unicode="=" horiz-adv-x="490" 
d="M440 293h-390v34h390v-34zM440 453h-390v34h390v-34z" />
    <glyph glyph-name="greater" unicode="&#x3e;" horiz-adv-x="490" 
d="M241 306l165 84l-165 84l-191 100v37l390 -205v-32l-390 -205v37z" />
    <glyph glyph-name="question" unicode="?" 
d="M278 190h-26q-18 48 -21 85t1 57.5t23 39t30 24.5t37 18q2 1 27 12.5t30.5 14t26.5 14.5t27.5 18.5t20.5 20t19 26t10 30t5 36.5q0 83 -54 126t-140 43q-191 0 -212 -165l-38 4q24 196 250 196q106 0 171 -53.5t65 -149.5q0 -27 -6 -50t-20 -41t-26 -31t-34.5 -26.5
t-33.5 -19.5t-35.5 -17t-29.5 -13q-36 -17 -50 -26.5t-26 -30.5t-8.5 -53.5t17.5 -88.5zM296 52v-52h-52v52h52z" />
    <glyph glyph-name="at" unicode="@" horiz-adv-x="1030" 
d="M708 174l3 -74h9q126 0 175 73t49 218q0 79 -24.5 145t-74.5 118.5t-133.5 82t-194.5 29.5q-205 0 -317 -128t-112 -343t115 -343t324 -128q144 0 233.5 43.5t109.5 99.5l39 -6q-22 -66 -121.5 -118.5t-260.5 -52.5q-220 0 -348 132.5t-128 372.5q0 239 126.5 372
t339.5 133q227 0 344.5 -111.5t117.5 -297.5q0 -164 -63 -244.5t-205 -80.5h-28l-12 93q-24 -43 -75.5 -73t-117.5 -30q-90 0 -152.5 64.5t-62.5 177.5t62.5 177.5t152.5 64.5q66 0 117.5 -30t75.5 -73l12 93h30l-5 -108v-248zM670 384q-65 121 -187 121q-79 0 -128.5 -56
t-49.5 -151t49.5 -151t128.5 -56q122 0 187 121v172z" />
    <glyph glyph-name="A" unicode="A" horiz-adv-x="720" 
d="M637 0l-99 265h-356l-99 -265h-44l300 790h42l300 -790h-44zM360 744l-85 -231l-80 -212h329l-79 212z" />
    <glyph glyph-name="B" unicode="B" horiz-adv-x="700" 
d="M413 0h-313v780h300q53 0 88.5 -7.5t65.5 -28.5t44.5 -62t14.5 -103q0 -74 -33.5 -119t-72.5 -56q55 -11 93.5 -59t38.5 -131q0 -66 -17 -110t-50 -66t-70 -30t-89 -8zM140 36h293q35 0 61.5 7t51.5 25.5t38 55t13 90.5q0 168 -164 168h-293v-346zM428 744h-288v-326h280
q70 0 110 39t40 122q0 93 -36.5 129t-105.5 36z" />
    <glyph glyph-name="C" unicode="C" horiz-adv-x="750" 
d="M70 390q0 190 81.5 295t248.5 105q252 0 292 -204l-42 -6q-32 177 -250 174q-288 -4 -288 -364t288 -364q218 -3 250 174l42 -6q-40 -204 -292 -204q-167 0 -248.5 105t-81.5 295z" />
    <glyph glyph-name="D" unicode="D" horiz-adv-x="780" 
d="M710 390q0 -112 -22.5 -188.5t-69.5 -120.5t-109.5 -62.5t-151.5 -18.5h-257v780h257q89 0 151.5 -18.5t109.5 -62.5t69.5 -120.5t22.5 -188.5zM140 36h228q162 0 231 78t69 276t-69 276t-231 78h-228v-708z" />
    <glyph glyph-name="E" unicode="E" horiz-adv-x="715" 
d="M100 780h520v-36h-480v-326h440v-36h-440v-346h500v-36h-540v780z" />
    <glyph glyph-name="F" unicode="F" horiz-adv-x="650" 
d="M140 382v-382h-40v780h500v-36h-460v-326h420v-36h-420z" />
    <glyph glyph-name="G" unicode="G" horiz-adv-x="789" 
d="M400 26q164 -3 254 70v258h-200v36h240v-312q-116 -90 -294 -88q-167 0 -248.5 105t-81.5 295t81.5 295t248.5 105q252 0 292 -204l-42 -6q-32 177 -250 174q-288 -4 -288 -364t288 -364z" />
    <glyph glyph-name="H" unicode="H" horiz-adv-x="750" 
d="M610 780h40v-780h-40v382h-470v-382h-40v780h40v-362h470v362z" />
    <glyph glyph-name="I" unicode="I" horiz-adv-x="280" 
d="M160 780v-780h-40v780h40z" />
    <glyph glyph-name="J" unicode="J" horiz-adv-x="572" 
d="M446 780h41v-580q0 -102 -60.5 -156t-176.5 -54q-115 0 -165.5 47t-56.5 118l40 6q11 -138 184 -135q194 3 194 173v581z" />
    <glyph glyph-name="K" unicode="K" horiz-adv-x="700" 
d="M140 780v-477l439 477h56l-328 -351l356 -429h-53l-329 401l-141 -151v-250h-40v780h40z" />
    <glyph glyph-name="L" unicode="L" horiz-adv-x="605" 
d="M140 780v-744h440v-36h-480v780h40z" />
    <glyph glyph-name="M" unicode="M" horiz-adv-x="902" 
d="M429 0l-224 543l-69 168l3 -251v-460h-39v780h48l230 -557l73 -181l73 181l230 557h48v-780h-39v460l3 251l-69 -168l-224 -543h-44z" />
    <glyph glyph-name="N" unicode="N" horiz-adv-x="761" 
d="M612 0l-356 544l-120 188l3 -272v-460h-39v780h49l356 -544l120 -188l-3 272v460h39v-780h-49z" />
    <glyph glyph-name="O" unicode="O" horiz-adv-x="800" 
d="M400 -10q-171 0 -250.5 107.5t-79.5 292.5t79.5 292.5t250.5 107.5t250.5 -107.5t79.5 -292.5t-79.5 -292.5t-250.5 -107.5zM400 754q-79 0 -136 -27.5t-89.5 -78.5t-47.5 -114.5t-15 -143.5t15 -143.5t47.5 -114.5t89.5 -78.5t136 -27.5t136 27.5t89.5 78.5t47.5 114.5
t15 143.5t-15 143.5t-47.5 114.5t-89.5 78.5t-136 27.5z" />
    <glyph glyph-name="P" unicode="P" horiz-adv-x="660" 
d="M140 372h272q165 0 165 186t-165 186h-272v-372zM140 336v-336h-40v780h296q102 0 161.5 -48.5t59.5 -173.5t-59.5 -173.5t-161.5 -48.5h-256z" />
    <glyph glyph-name="Q" unicode="Q" horiz-adv-x="800" 
d="M800 -210l-535 223q-195 81 -195 377q0 185 79.5 292.5t250.5 107.5t250.5 -107.5t79.5 -292.5t-79.5 -292t-249.5 -108v-1l124 -47l275 -108v-44zM400 754q-79 0 -136 -27.5t-89.5 -78.5t-47.5 -114.5t-15 -143.5t15 -143.5t47.5 -114.5t89.5 -78.5t136 -27.5t136 27.5
t89.5 78.5t47.5 114.5t15 143.5t-15 143.5t-47.5 114.5t-89.5 78.5t-136 27.5z" />
    <glyph glyph-name="R" unicode="R" horiz-adv-x="710" 
d="M614 0l-209 348h-265v-348h-40v780h321q43 0 76 -8t66 -29.5t50.5 -66.5t17.5 -112q0 -61 -14.5 -103.5t-41.5 -65.5t-56.5 -33.5t-67.5 -12.5l212 -349h-49zM140 744v-360h294q32 0 56.5 6.5t49 24t38 55.5t13.5 94t-13.5 94t-38 55.5t-49 24t-56.5 6.5h-294z" />
    <glyph glyph-name="S" unicode="S" horiz-adv-x="710" 
d="M353 -10q-145 0 -209.5 48.5t-76.5 138.5l41 6q11 -81 64.5 -119t180.5 -38q44 0 84.5 9t78 28.5t60 56.5t22.5 88q0 91 -47.5 130t-188.5 54q-56 6 -92.5 13t-73 20t-57 33t-33 51t-12.5 74q0 105 74.5 156t185.5 51q138 0 203 -46.5t76 -133.5l-41 -6q-11 76 -67 113
t-171 37q-34 0 -67 -6.5t-69.5 -23t-59 -53t-22.5 -88.5q0 -77 46.5 -108.5t182.5 -45.5q76 -8 124 -21t83.5 -37.5t51 -64t15.5 -98.5q0 -109 -82 -163.5t-204 -54.5z" />
    <glyph glyph-name="T" unicode="T" horiz-adv-x="640" 
d="M340 744v-744h-40v744h-265v36h570v-36h-265z" />
    <glyph glyph-name="U" unicode="U" horiz-adv-x="784" 
d="M392 -10q-165 0 -236 69t-71 200v521h41v-528q0 -109 60 -167t206 -58t206 58t60 167v528h41v-521q0 -131 -71 -200t-236 -69z" />
    <glyph glyph-name="V" unicode="V" horiz-adv-x="720" 
d="M275 267l85 -231l85 231l192 513h44l-300 -790h-42l-300 790h44z" />
    <glyph glyph-name="W" unicode="W" horiz-adv-x="950" 
d="M455 780h40l156 -508l60 -201l41 208l101 501h42l-163 -790h-35l-164 534l-58 195l-58 -195l-164 -534h-35l-163 790h42l101 -501l41 -208l60 201z" />
    <glyph glyph-name="X" unicode="X" horiz-adv-x="710" 
d="M259 303l72 105l-68 100l-184 272h49l164 -243l63 -93l63 93l164 243h49l-184 -272l-68 -100l72 -105l206 -303h-51l-179 268l-72 105l-72 -105l-179 -268h-51z" />
    <glyph glyph-name="Y" unicode="Y" horiz-adv-x="670" 
d="M20 780h49l164 -262l102 -164l102 164l164 262h49l-295 -463v-317h-40v317z" />
    <glyph glyph-name="Z" unicode="Z" horiz-adv-x="710" 
d="M658 754l-458 -599l-94 -121l199 1h345v-35h-595v26l458 599l94 121l-199 -1h-325v35h575v-26z" />
    <glyph glyph-name="bracketleft" unicode="[" horiz-adv-x="240" 
d="M140 794v-888h90v-36h-130v960h130v-36h-90z" />
    <glyph glyph-name="backslash" unicode="\" horiz-adv-x="300" 
d="M245 -90l-230 960h40l230 -960h-40z" />
    <glyph glyph-name="bracketright" unicode="]" horiz-adv-x="240" 
d="M100 -94v888h-90v36h130v-960h-130v36h90z" />
    <glyph glyph-name="asciicircum" unicode="^" horiz-adv-x="470" 
d="M235 756l-84 -165l-100 -191h-37l205 390h32l205 -390h-37l-100 191z" />
    <glyph glyph-name="underscore" unicode="_" horiz-adv-x="300" 
d="M280 -200h-260v34h260v-34z" />
    <glyph glyph-name="grave" unicode="`" 
d="M177 800h47l94 -208h-35z" />
    <glyph glyph-name="a" unicode="a" horiz-adv-x="561" 
d="M62 138q0 73 49 110t141 51l192 29v42q0 74 -40.5 104.5t-122.5 32.5q-131 3 -152 -101l-40 5q28 129 192 129q97 0 149 -43.5t52 -130.5v-258l5 -108h-30l-13 100q-30 -56 -88.5 -83t-122.5 -27q-83 0 -127 40.5t-44 107.5zM103 138q0 -55 33.5 -84t96.5 -29
q159 0 211 133v137l-197 -31q-70 -11 -107 -38t-37 -88z" />
    <glyph glyph-name="b" unicode="b" horiz-adv-x="590" 
d="M117 800v-370q27 51 81 80.5t111 29.5q103 0 162 -75t59 -200t-59 -200t-162 -75q-57 0 -111 29.5t-81 80.5l-13 -100h-30l5 108v692h38zM117 372v-214q20 -52 66 -92.5t124 -40.5q84 0 132.5 65t48.5 175t-48.5 175t-132.5 65q-78 0 -124 -40.5t-66 -92.5z" />
    <glyph glyph-name="c" unicode="c" horiz-adv-x="562" 
d="M60 265q0 124 65 199.5t171 75.5q90 0 143.5 -36.5t65.5 -100.5l-42 -6q-23 108 -167 108q-86 0 -140 -66t-54 -174t54 -174t140 -66q144 0 167 108l42 -6q-12 -64 -65.5 -100.5t-143.5 -36.5q-106 0 -171 75.5t-65 199.5z" />
    <glyph glyph-name="d" unicode="d" horiz-adv-x="590" 
d="M473 430v370h38v-692l5 -108h-30l-13 100q-27 -51 -81 -80.5t-111 -29.5q-103 0 -162 75t-59 200t59 200t162 75q57 0 111 -29.5t81 -80.5zM473 158v214q-20 52 -66 92.5t-124 40.5q-84 0 -132.5 -65t-48.5 -175t48.5 -175t132.5 -65q78 0 124 40.5t66 92.5z" />
    <glyph glyph-name="e" unicode="e" horiz-adv-x="579" 
d="M514 251h-413q4 -103 58 -164.5t137 -61.5q144 0 167 108l42 -6q-12 -64 -65.5 -100.5t-143.5 -36.5q-106 0 -171 75.5t-65 199.5t65 199.5t171 75.5q117 0 167.5 -71t50.5 -203v-15zM296 505q-81 0 -135 -60t-60 -160h370q-2 108 -42 164t-133 56z" />
    <glyph glyph-name="f" unicode="f" horiz-adv-x="370" 
d="M309 774q-66 0 -97 -29.5t-31 -115.5v-99h153v-34h-153v-496h-38v496h-106v34h106v72q0 39 2 64.5t11.5 55.5t26.5 47t49 29t77 12q35 0 57 -9l-8 -36q-21 9 -49 9z" />
    <glyph glyph-name="g" unicode="g" horiz-adv-x="590" 
d="M511 422v-452q0 -87 -61 -133.5t-169 -46.5q-100 0 -145.5 38t-59.5 101l40 5q24 -112 165 -112q86 0 139 35t53 108v150q-26 -50 -81 -77.5t-114 -27.5q-104 0 -162.5 70.5t-58.5 194.5t58.5 194.5t162.5 70.5q58 0 113 -29.5t82 -80.5l13 100h30zM473 173v199
q-19 52 -67 92.5t-126 40.5q-85 0 -133 -60.5t-48 -169.5t48 -169.5t133 -60.5q79 0 126.5 39t66.5 89z" />
    <glyph glyph-name="h" unicode="h" horiz-adv-x="566" 
d="M118 800v-370q25 48 78.5 79t116.5 31q79 0 130.5 -42t51.5 -114v-384h-38v369q0 65 -42 100.5t-112 35.5q-71 0 -118.5 -41t-66.5 -91v-373h-38v800h38z" />
    <glyph glyph-name="i" unicode="i" horiz-adv-x="236" 
d="M99 0v530h38v-530h-38zM148 743v-60h-60v60h60z" />
    <glyph glyph-name="j" unicode="j" horiz-adv-x="236" 
d="M-29 -174q66 0 97 29.5t31 115.5v559h38v-532q0 -39 -2 -64.5t-11.5 -55.5t-26.5 -47t-49 -29t-77 -12q-35 0 -57 9l8 36q21 -9 49 -9zM148 743v-60h-60v60h60z" />
    <glyph glyph-name="k" unicode="k" horiz-adv-x="531" 
d="M118 0h-38v800h38v-568l124 125l173 173h55l-229 -224l267 -306h-51l-242 282l-97 -96v-186z" />
    <glyph glyph-name="l" unicode="l" horiz-adv-x="242" 
d="M102 0v800h38v-800h-38z" />
    <glyph glyph-name="m" unicode="m" horiz-adv-x="874" 
d="M104 530l13 -100q25 48 75 79t106 31q62 0 103.5 -30.5t53.5 -84.5q31 56 81 85.5t105 29.5q71 0 116.5 -42t45.5 -114v-384h-38v369q0 65 -36 100.5t-98 35.5q-64 0 -108 -41t-63 -91v-373h-38v369q0 66 -34.5 101t-99.5 35q-64 0 -108 -41t-63 -91v-373h-38v422l-5 108
h30z" />
    <glyph glyph-name="n" unicode="n" horiz-adv-x="565" 
d="M104 530l13 -100q25 48 78.5 79t116.5 31q79 0 130.5 -42t51.5 -114v-384h-38v369q0 65 -42 100.5t-112 35.5q-71 0 -118.5 -41t-66.5 -91v-373h-38v422l-5 108h30z" />
    <glyph glyph-name="o" unicode="o" horiz-adv-x="592" 
d="M296 505q-93 0 -143.5 -63t-50.5 -177t50.5 -177t143.5 -63t143.5 63t50.5 177t-50.5 177t-143.5 63zM296 -10q-112 0 -174 72.5t-62 202.5t62 202.5t174 72.5t174 -72.5t62 -202.5t-62 -202.5t-174 -72.5z" />
    <glyph glyph-name="p" unicode="p" horiz-adv-x="590" 
d="M117 100v-300h-38v622l-5 108h30l13 -100q27 51 81 80.5t111 29.5q103 0 162 -75t59 -200t-59 -200t-162 -75q-57 0 -111 29.5t-81 80.5zM117 372v-214q20 -52 66 -92.5t124 -40.5q84 0 132.5 65t48.5 175t-48.5 175t-132.5 65q-78 0 -124 -40.5t-66 -92.5z" />
    <glyph glyph-name="q" unicode="q" horiz-adv-x="591" 
d="M473 -200v300q-27 -51 -81 -80.5t-111 -29.5q-103 0 -162 75t-59 200t59 200t162 75q57 0 111 -29.5t81 -80.5l13 100h30l-5 -108v-622h-38zM473 158v214q-20 52 -66 92.5t-124 40.5q-84 0 -132.5 -65t-48.5 -175t48.5 -175t132.5 -65q78 0 124 40.5t66 92.5z" />
    <glyph glyph-name="r" unicode="r" horiz-adv-x="375" 
d="M307 540q27 0 44 -4l-5 -40q-25 5 -39 5q-82 0 -135 -51.5t-55 -112.5v-337h-38v422l-5 108h30l14 -110q25 55 78.5 87.5t110.5 32.5z" />
    <glyph glyph-name="s" unicode="s" horiz-adv-x="534" 
d="M264 505q-60 0 -107.5 -28.5t-47.5 -88.5q0 -19 3.5 -32.5t14.5 -23t21 -15.5t34 -10.5t40.5 -7t53.5 -6.5q38 -4 60 -7.5t54.5 -13.5t50 -24t31 -39t13.5 -59q0 -81 -62 -120.5t-162 -39.5q-90 0 -143.5 36.5t-65.5 100.5l42 6q23 -108 166 -108q82 0 132.5 30t50.5 94
q0 22 -5.5 38.5t-20 27.5t-27.5 18.5t-39 12.5t-43.5 7t-51.5 6q-33 3 -53 6.5t-49 12t-45 21t-28 35t-12 53.5q0 76 56 114.5t140 38.5q90 0 143.5 -36.5t65.5 -100.5l-42 -6q-23 108 -168 108z" />
    <glyph glyph-name="t" unicode="t" horiz-adv-x="400" 
d="M304 26q28 0 49 9l8 -36q-22 -9 -57 -9q-45 0 -77 12t-49 29t-26.5 47t-11.5 55.5t-2 64.5v298h-106v34h106v140l38 13v-153h173v-34h-173v-325q0 -86 31 -115.5t97 -29.5z" />
    <glyph glyph-name="u" unicode="u" horiz-adv-x="565" 
d="M461 0l-13 100q-25 -48 -78.5 -79t-116.5 -31q-79 0 -130.5 42t-51.5 114v384h38v-369q0 -65 42 -100.5t112 -35.5q71 0 118.5 41t66.5 91v373h38v-422l5 -108h-30z" />
    <glyph glyph-name="v" unicode="v" horiz-adv-x="520" 
d="M488 530l-207 -540h-42l-207 540h45l113 -305l70 -193l70 193l114 305h44z" />
    <glyph glyph-name="w" unicode="w" horiz-adv-x="776" 
d="M249 199l116 331h46l116 -331l52 -156l33 159v-1l71 329h41l-121 -540h-43l-123 352l-49 148l-49 -148l-123 -352h-43l-121 540h41l71 -329v1l33 -159z" />
    <glyph glyph-name="x" unicode="x" horiz-adv-x="518" 
d="M338 137l-79 109l-79 -109l-98 -137h-49l155 212l47 63l-48 64l-141 191h48l85 -118l80 -113l80 113l85 118h48l-141 -191l-48 -64l47 -63l155 -212h-49z" />
    <glyph glyph-name="y" unicode="y" horiz-adv-x="512" 
d="M484 530l-197 -483l-99 -247h-43l91 220l-208 510h45l113 -284l70 -183l70 183l114 284h44z" />
    <glyph glyph-name="z" unicode="z" horiz-adv-x="532" 
d="M55 0v30l263 339l100 128l-165 -1h-179v34h391v-30l-263 -339l-100 -128l165 1h209v-34h-421z" />
    <glyph glyph-name="braceleft" unicode="{" horiz-adv-x="280" 
d="M90 350q51 -24 51 -117v-227q0 -57 24.5 -78.5t67.5 -21.5h37v-36h-27q-45 0 -75 11.5t-43.5 34t-18.5 44.5t-5 52v222q0 59 -17 78.5t-57 19.5h-19v36h19q40 0 57 19.5t17 78.5v222q0 30 5 52t18.5 44.5t43.5 34t75 11.5h27v-36h-37q-43 0 -67.5 -21.5t-24.5 -78.5v-227
q0 -93 -51 -117z" />
    <glyph glyph-name="bar" unicode="|" horiz-adv-x="250" 
d="M145 830v-960h-40v960h40z" />
    <glyph glyph-name="braceright" unicode="}" horiz-adv-x="280" 
d="M190 350q-51 24 -51 117v227q0 57 -24.5 78.5t-67.5 21.5h-37v36h27q45 0 75 -11.5t43.5 -34t18.5 -44.5t5 -52v-222q0 -59 17 -78.5t57 -19.5h19v-36h-19q-40 0 -57 -19.5t-17 -78.5v-222q0 -30 -5 -52t-18.5 -44.5t-43.5 -34t-75 -11.5h-27v36h37q43 0 67.5 21.5
t24.5 78.5v227q0 93 51 117z" />
    <glyph glyph-name="asciitilde" unicode="~" horiz-adv-x="470" 
d="M425 342l-21 -26q-27 34 -74 34q-36 0 -91 -33.5t-99 -33.5q-63 0 -95 45l21 26q27 -34 74 -34q36 0 91 33.5t99 33.5q63 0 95 -45z" />
    <glyph glyph-name="exclamdown" unicode="&#xa1;" horiz-adv-x="200" 
d="M128 -200h-56l18 540h20zM126 530v-52h-52v52h52z" />
    <glyph glyph-name="cent" unicode="&#xa2;" horiz-adv-x="550" 
d="M394 764l-29 -114q119 -25 140 -130l-42 -6q-17 82 -106 102l-117 -466q27 -8 56 -8q144 0 167 108l42 -6q-12 -64 -65.5 -100.5t-143.5 -36.5q-33 0 -65 8l-29 -115h-37l32 128q-64 30 -100.5 96.5t-36.5 157.5q0 124 65 199.5t171 75.5q13 0 33 -2l28 109h37zM102 382
q0 -76 28 -132.5t76 -84.5l115 456q-4 0 -12 0.5t-13 0.5q-86 0 -140 -66t-54 -174z" />
    <glyph glyph-name="sterling" unicode="&#xa3;" horiz-adv-x="680" 
d="M164 417v147q0 102 60.5 156t176.5 54q115 0 165.5 -47t56.5 -118l-39 -6q-11 139 -185 136q-196 -3 -196 -174v-148h256v-35h-256v-347h417v-35h-556v35h100v347h-100v35h100z" />
    <glyph glyph-name="currency" unicode="&#xa4;" horiz-adv-x="720" 
d="M360 126q115 0 186 68.5t71 187.5t-71 187.5t-186 68.5t-186 -68.5t-71 -187.5t71 -187.5t186 -68.5zM360 90q-120 0 -200 68l-96 -96l-24 24l96 96q-69 77 -69 200t69 200l-96 96l24 24l96 -97q80 69 200 69t200 -68l96 96l24 -24l-96 -96q69 -79 69 -200t-69 -200
l96 -96l-24 -24l-97 96q-79 -68 -199 -68z" />
    <glyph glyph-name="yen" unicode="&#xa5;" horiz-adv-x="680" 
d="M576 187h-216v-187h-40v187h-216v34h216v89h-216v34h198l-287 436h48l171 -262l106 -163l106 163l171 262h48l-287 -436h198v-34h-216v-89h216v-34z" />
    <glyph glyph-name="brokenbar" unicode="&#xa6;" horiz-adv-x="250" 
d="M145 330v-460h-40v460h40zM145 830v-460h-40v460h40z" />
    <glyph glyph-name="section" unicode="&#xa7;" horiz-adv-x="620" 
d="M99 279q0 -138 204 -138q90 0 154 39t64 121q0 138 -204 138q-90 0 -154 -39t-64 -121zM59 280q0 69 43 115.5t111 65.5v1q-65 15 -100 49t-35 99q0 92 66 136t165 44q222 0 247 -160l-42 -6q-11 65 -60 97.5t-146 32.5q-31 0 -60.5 -6t-60.5 -20.5t-49.5 -45
t-18.5 -72.5q0 -66 42 -92t159 -39q38 -4 59 -7t54 -10.5t52 -19.5t38.5 -30.5t28.5 -46.5t9 -65q0 -69 -43 -115.5t-111 -65.5v-1q65 -15 100 -49t35 -99q0 -92 -66 -136t-165 -44q-222 0 -247 160l42 6q11 -65 60 -97.5t146 -32.5q31 0 60.5 6t60.5 20.5t49.5 45
t18.5 72.5q0 66 -42 92t-159 39q-38 4 -59 7t-54 10.5t-52 19.5t-38.5 30.5t-28.5 46.5t-9 65z" />
    <glyph glyph-name="dieresis" unicode="&#xa8;" 
d="M235 743v-60h-60v60h60zM426 743v-60h-60v60h60z" />
    <glyph glyph-name="copyright" unicode="&#xa9;" horiz-adv-x="900" 
d="M50 390q0 166 117 283t283 117t283 -117t117 -283t-117 -283t-283 -117t-283 117t-117 283zM86 390q0 -150 107 -257t257 -107t257 107t107 257t-107 257t-257 107t-257 -107t-107 -257zM261 390q0 -100 49.5 -152t133.5 -54q73 -1 118 30.5t56 89.5l43 -5
q-15 -71 -68 -112.5t-144 -41.5q-105 0 -168 63.5t-63 181.5t63 181.5t168 63.5q91 0 144 -41t68 -113l-43 -5q-11 58 -56 89.5t-118 30.5q-84 -2 -133.5 -54t-49.5 -152z" />
    <glyph glyph-name="ordfeminine" unicode="&#xaa;" horiz-adv-x="460" 
d="M55 492q0 57 37 82t113 36l146 19v26q0 103 -120 103q-105 0 -121 -90l-38 7q22 115 157 115q160 0 160 -140v-136l6 -124h-31l-10 70q-19 -32 -67.5 -56t-95.5 -24q-67 0 -101.5 29t-34.5 83zM93 493q0 -81 98 -80q61 1 108.5 38t51.5 77v70l-148 -20q-52 -8 -81 -25
t-29 -60z" />
    <glyph glyph-name="guillemotleft" unicode="&#xab;" horiz-adv-x="508" 
d="M250 440v-43l-167 -132l167 -132v-43l-208 151v48zM458 440v-43l-167 -132l167 -132v-43l-208 151v48z" />
    <glyph glyph-name="logicalnot" unicode="&#xac;" horiz-adv-x="490" 
d="M406 250v246h-356v34h390v-280h-34z" />
    <glyph glyph-name="registered" unicode="&#xae;" horiz-adv-x="900" 
d="M50 390q0 166 117 283t283 117t283 -117t117 -283t-117 -283t-283 -117t-283 117t-117 283zM86 390q0 -150 107 -257t257 -107t257 107t107 257t-107 257t-257 107t-257 -107t-107 -257zM306 343v-188h-37v470h197q154 0 154 -141q0 -117 -106 -137l111 -192h-47
l-106 188h-166zM306 589v-210h175q100 0 100 105t-100 105h-175z" />
    <glyph glyph-name="macron" unicode="&#xaf;" 
d="M164 697v32h272v-32h-272z" />
    <glyph glyph-name="degree" unicode="&#xb0;" horiz-adv-x="490" 
d="M245 448q72 0 111.5 36.5t39.5 109.5t-39.5 109.5t-111.5 36.5t-111.5 -36.5t-39.5 -109.5t39.5 -109.5t111.5 -36.5zM245 414q-85 0 -137 46t-52 134t52 134t137 46t137 -46t52 -134t-52 -134t-137 -46z" />
    <glyph glyph-name="plusminus" unicode="&#xb1;" horiz-adv-x="490" 
d="M440 173h-390v34h390v-34zM228 275v178h-178v34h178v178h34v-178h178v-34h-178v-178h-34z" />
    <glyph glyph-name="uni00B2" unicode="&#xb2;" horiz-adv-x="424" 
d="M364 370h-303q0 43 9.5 74t33.5 52.5t44.5 33.5t61.5 30q8 3 26 11t23.5 10.5t18 9t15.5 10t10.5 10t9 13t3.5 15t2 19.5q0 32 -19.5 51.5t-40.5 25t-43 5.5q-53 0 -79.5 -17.5t-34.5 -55.5l-36 4q19 103 150 103q60 0 99 -30t39 -86q0 -17 -3 -30.5t-12 -25t-15.5 -18.5
t-22.5 -16t-23 -12.5t-28 -12.5t-27 -12q-65 -29 -93 -56t-30 -72l120 1h145v-34z" />
    <glyph glyph-name="uni00B3" unicode="&#xb3;" horiz-adv-x="421" 
d="M361 475q0 -51 -40.5 -83t-118.5 -32q-128 0 -147 104l37 3q6 -38 32 -56t78 -19q123 -2 123 83q0 27 -10 44.5t-29.5 25t-36.5 9.5t-42 2h-54v34h54q25 0 40.5 2t31.5 9.5t24 23.5t8 42q0 76 -106 74q-51 -1 -76 -18t-31 -56l-36 4q17 103 143 103q62 0 102 -26.5
t40 -80.5q0 -41 -21.5 -64.5t-52.5 -27.5q34 -4 61 -29t27 -71z" />
    <glyph glyph-name="acute" unicode="&#xb4;" 
d="M376 800h47l-106 -208h-35z" />
    <glyph glyph-name="mu" unicode="&#xb5;" horiz-adv-x="565" 
d="M71 -200v730h38v-369q0 -65 42 -100.5t112 -35.5q71 0 118.5 41t66.5 91v373h38v-422l5 -108h-30l-13 100q-25 -48 -78.5 -79t-116.5 -31q-47 0 -87 16t-60 45l3 -91v-160h-38z" />
    <glyph glyph-name="paragraph" unicode="&#xb6;" horiz-adv-x="665" 
d="M526 0v745h-102v-745h-39v336h-116q-102 0 -161.5 48.5t-59.5 173.5t59.5 173.5t161.5 48.5h296v-780h-39z" />
    <glyph glyph-name="periodcentered" unicode="&#xb7;" horiz-adv-x="200" 
d="M130 365v-60h-60v60h60z" />
    <glyph glyph-name="cedilla" unicode="&#xb8;" 
d="M281 12h25l-15 -54q108 -16 108 -86q0 -41 -30 -61.5t-79 -20.5t-79 17l10 29q27 -15 61 -16q82 -2 82 51q0 22 -17 35t-36 17.5t-46 7.5q-8 1 -11 1z" />
    <glyph glyph-name="uni00B9" unicode="&#xb9;" horiz-adv-x="280" 
d="M170 370h-36v348q-27 -31 -94 -55v37q34 13 55 28.5t44 45.5h31v-404z" />
    <glyph glyph-name="ordmasculine" unicode="&#xba;" horiz-adv-x="480" 
d="M240 380q-84 0 -131 52t-47 153t47 153t131 52t131 -52t47 -153t-47 -153t-131 -52zM240 756q-66 0 -103 -42t-37 -129t37 -129t103 -42q140 0 140 171t-140 171z" />
    <glyph glyph-name="guillemotright" unicode="&#xbb;" horiz-adv-x="508" 
d="M258 90v43l167 132l-167 132v43l208 -151v-48zM50 90v43l167 132l-167 132v43l208 -151v-48z" />
    <glyph glyph-name="uni00BC" unicode="&#xbc;" horiz-adv-x="802" 
d="M757 92h-78v-92h-35v92h-189v29l189 283h35v-278h78v-34zM654 764l-506 -764h-42l506 764h42zM170 370h-36v348q-27 -31 -94 -55v37q34 13 55 28.5t44 45.5h31v-404zM644 126v165l1 60l-36 -58l-77 -113l-37 -54h149z" />
    <glyph glyph-name="uni00BD" unicode="&#xbd;" horiz-adv-x="870" 
d="M170 370h-36v348q-27 -31 -94 -55v37q34 13 55 28.5t44 45.5h31v-404zM654 764l-506 -764h-42l506 764h42zM810 0h-303q0 43 9.5 74t33.5 52.5t44.5 33.5t61.5 30q8 3 26 11t23.5 10.5t18 9t15.5 10t10.5 10t9 13t3.5 15t2 19.5q0 32 -19.5 51.5t-40.5 25t-43 5.5
q-53 0 -79.5 -17.5t-34.5 -55.5l-36 4q19 103 150 103q60 0 99 -30t39 -86q0 -17 -3 -30.5t-12 -25t-15.5 -18.5t-22.5 -16t-23 -12.5t-28 -12.5t-27 -12q-65 -29 -93 -56t-30 -72l120 1h145v-34z" />
    <glyph glyph-name="uni00BE" unicode="&#xbe;" horiz-adv-x="932" 
d="M887 92h-78v-92h-35v92h-189v29l189 283h35v-278h78v-34zM361 475q0 -51 -40.5 -83t-118.5 -32q-128 0 -147 104l37 3q6 -38 32 -56t78 -19q123 -2 123 83q0 27 -10 44.5t-29.5 25t-36.5 9.5t-42 2h-54v34h54q25 0 40.5 2t31.5 9.5t24 23.5t8 42q0 76 -106 74
q-51 -1 -76 -18t-31 -56l-36 4q17 103 143 103q62 0 102 -26.5t40 -80.5q0 -41 -21.5 -64.5t-52.5 -27.5q34 -4 61 -29t27 -71zM784 764l-506 -764h-42l506 764h42zM774 126v165l1 60l-36 -58l-77 -113l-37 -54h149z" />
    <glyph glyph-name="questiondown" unicode="&#xbf;" horiz-adv-x="540" 
d="M286 340h26q14 -41 16.5 -73.5t-4 -53.5t-22.5 -38t-31.5 -26.5t-38.5 -18.5q-75 -30 -99 -51q-43 -37 -43 -107q0 -82 48.5 -114.5t137.5 -32.5q99 0 148 42t59 121l38 -4q-24 -194 -245 -194q-226 0 -226 181q0 19 3.5 35.5t7 29.5t13 26t15.5 21.5t19.5 18.5
t19.5 14.5t22.5 12.5t21 10t22 9.5t19.5 8.5q33 14 49 25t27 31t9.5 49.5t-12.5 77.5zM268 478v52h52v-52h-52z" />
    <glyph glyph-name="Agrave" unicode="&#xc0;" horiz-adv-x="740" 
d="M647 0l-99 265h-356l-99 -265h-44l300 790h42l300 -790h-44zM370 744l-85 -231l-80 -212h329l-79 212zM245 1030h47l94 -208h-35z" />
    <glyph glyph-name="Aacute" unicode="&#xc1;" horiz-adv-x="740" 
d="M647 0l-99 265h-356l-99 -265h-44l300 790h42l300 -790h-44zM370 744l-85 -231l-80 -212h329l-79 212zM448 1030h47l-106 -208h-35z" />
    <glyph glyph-name="Acircumflex" unicode="&#xc2;" horiz-adv-x="740" 
d="M647 0l-99 265h-356l-99 -265h-44l300 790h42l300 -790h-44zM370 744l-85 -231l-80 -212h329l-79 212zM545 822h-38l-137 175l-137 -175h-38l153 208h44z" />
    <glyph glyph-name="Atilde" unicode="&#xc3;" horiz-adv-x="740" 
d="M647 0l-99 265h-356l-99 -265h-44l300 790h42l300 -790h-44zM370 744l-85 -231l-80 -212h329l-79 212zM527 970l28 -5q-5 -41 -35.5 -66t-70.5 -23t-87 36t-76 36q-30 2 -51 -14t-26 -49l-28 5q5 41 35.5 66t70.5 23t87 -36t76 -36q30 -2 51 14t26 49z" />
    <glyph glyph-name="Adieresis" unicode="&#xc4;" horiz-adv-x="740" 
d="M647 0l-99 265h-356l-99 -265h-44l300 790h42l300 -790h-44zM370 744l-85 -231l-80 -212h329l-79 212zM305 973v-60h-60v60h60zM496 973v-60h-60v60h60z" />
    <glyph glyph-name="Aring" unicode="&#xc5;" horiz-adv-x="740" 
d="M647 0l-99 265h-356l-99 -265h-44l300 790h42l300 -790h-44zM370 744l-85 -231l-80 -212h329l-79 212zM256 926q0 51 30.5 82.5t83.5 31.5t83.5 -31.5t30.5 -82.5t-30.5 -82.5t-83.5 -31.5t-83.5 31.5t-30.5 82.5zM453 926q0 40 -21.5 63t-61.5 23t-61.5 -23t-21.5 -63
t21.5 -63t61.5 -23t61.5 23t21.5 63z" />
    <glyph glyph-name="AE" unicode="&#xc6;" horiz-adv-x="1075" 
d="M604 0l-74 382h-252l-201 -382h-45l415 780h533v-36h-480l63 -326h377v-36h-370l67 -346h363v-36h-396zM463 734l-166 -316h226l-30 155z" />
    <glyph glyph-name="Ccedilla" unicode="&#xc7;" horiz-adv-x="750" 
d="M70 390q0 190 81.5 295t248.5 105q252 0 292 -204l-42 -6q-32 177 -250 174q-288 -4 -288 -364t288 -364q218 -3 250 174l42 -6q-40 -204 -292 -204l-9 -32q108 -16 108 -86q0 -41 -30 -61.5t-79 -20.5t-79 17l10 29q27 -15 61 -16q82 -2 82 51q0 22 -17 35t-36 17.5
t-46 7.5q-8 1 -11 1l20 59q-155 8 -229.5 112t-74.5 287z" />
    <glyph glyph-name="Egrave" unicode="&#xc8;" horiz-adv-x="715" 
d="M100 780h520v-36h-480v-326h440v-36h-440v-346h500v-36h-540v780zM247 1030h47l94 -208h-35z" />
    <glyph glyph-name="Eacute" unicode="&#xc9;" horiz-adv-x="715" 
d="M100 780h520v-36h-480v-326h440v-36h-440v-346h500v-36h-540v780zM446 1030h47l-106 -208h-35z" />
    <glyph glyph-name="Ecircumflex" unicode="&#xca;" horiz-adv-x="715" 
d="M100 780h520v-36h-480v-326h440v-36h-440v-346h500v-36h-540v780zM545 822h-38l-137 175l-137 -175h-38l153 208h44z" />
    <glyph glyph-name="Edieresis" unicode="&#xcb;" horiz-adv-x="715" 
d="M100 780h520v-36h-480v-326h440v-36h-440v-346h500v-36h-540v780zM496 973v-60h-60v60h60zM305 973v-60h-60v60h60z" />
    <glyph glyph-name="Igrave" unicode="&#xcc;" horiz-adv-x="280" 
d="M160 780v-780h-40v780h40zM17 1030h47l94 -208h-35z" />
    <glyph glyph-name="Iacute" unicode="&#xcd;" horiz-adv-x="280" 
d="M160 780v-780h-40v780h40zM216 1030h47l-106 -208h-35z" />
    <glyph glyph-name="Icircumflex" unicode="&#xce;" horiz-adv-x="280" 
d="M160 780v-780h-40v780h40zM315 822h-38l-137 175l-137 -175h-38l153 208h44z" />
    <glyph glyph-name="Idieresis" unicode="&#xcf;" horiz-adv-x="280" 
d="M160 780v-780h-40v780h40zM266 973v-60h-60v60h60zM75 973v-60h-60v60h60z" />
    <glyph glyph-name="Eth" unicode="&#xd0;" horiz-adv-x="830" 
d="M25 383v34h120v363h257q89 0 151.5 -18.5t109.5 -62.5t69.5 -120.5t22.5 -188.5t-22.5 -188.5t-69.5 -120.5t-109.5 -62.5t-151.5 -18.5h-257v383h-120zM185 36h228q162 0 231 78t69 276t-69 276t-231 78h-228v-327h268v-34h-268v-347z" />
    <glyph glyph-name="Ntilde" unicode="&#xd1;" horiz-adv-x="761" 
d="M612 0l-356 544l-120 188l3 -272v-460h-39v780h49l356 -544l120 -188l-3 272v460h39v-780h-49zM537 970l28 -5q-5 -41 -35.5 -66t-70.5 -23t-87 36t-76 36q-30 2 -51 -14t-26 -49l-28 5q5 41 35.5 66t70.5 23t87 -36t76 -36q30 -2 51 14t26 49z" />
    <glyph glyph-name="Ograve" unicode="&#xd2;" horiz-adv-x="800" 
d="M400 -10q-171 0 -250.5 107.5t-79.5 292.5t79.5 292.5t250.5 107.5t250.5 -107.5t79.5 -292.5t-79.5 -292.5t-250.5 -107.5zM400 754q-79 0 -136 -27.5t-89.5 -78.5t-47.5 -114.5t-15 -143.5t15 -143.5t47.5 -114.5t89.5 -78.5t136 -27.5t136 27.5t89.5 78.5t47.5 114.5
t15 143.5t-15 143.5t-47.5 114.5t-89.5 78.5t-136 27.5zM277 1030h47l94 -208h-35z" />
    <glyph glyph-name="Oacute" unicode="&#xd3;" horiz-adv-x="800" 
d="M400 -10q-171 0 -250.5 107.5t-79.5 292.5t79.5 292.5t250.5 107.5t250.5 -107.5t79.5 -292.5t-79.5 -292.5t-250.5 -107.5zM400 754q-79 0 -136 -27.5t-89.5 -78.5t-47.5 -114.5t-15 -143.5t15 -143.5t47.5 -114.5t89.5 -78.5t136 -27.5t136 27.5t89.5 78.5t47.5 114.5
t15 143.5t-15 143.5t-47.5 114.5t-89.5 78.5t-136 27.5zM476 1030h47l-106 -208h-35z" />
    <glyph glyph-name="Ocircumflex" unicode="&#xd4;" horiz-adv-x="800" 
d="M400 -10q-171 0 -250.5 107.5t-79.5 292.5t79.5 292.5t250.5 107.5t250.5 -107.5t79.5 -292.5t-79.5 -292.5t-250.5 -107.5zM400 754q-79 0 -136 -27.5t-89.5 -78.5t-47.5 -114.5t-15 -143.5t15 -143.5t47.5 -114.5t89.5 -78.5t136 -27.5t136 27.5t89.5 78.5t47.5 114.5
t15 143.5t-15 143.5t-47.5 114.5t-89.5 78.5t-136 27.5zM575 822h-38l-137 175l-137 -175h-38l153 208h44z" />
    <glyph glyph-name="Otilde" unicode="&#xd5;" horiz-adv-x="800" 
d="M400 -10q-171 0 -250.5 107.5t-79.5 292.5t79.5 292.5t250.5 107.5t250.5 -107.5t79.5 -292.5t-79.5 -292.5t-250.5 -107.5zM400 754q-79 0 -136 -27.5t-89.5 -78.5t-47.5 -114.5t-15 -143.5t15 -143.5t47.5 -114.5t89.5 -78.5t136 -27.5t136 27.5t89.5 78.5t47.5 114.5
t15 143.5t-15 143.5t-47.5 114.5t-89.5 78.5t-136 27.5zM557 970l28 -5q-5 -41 -35.5 -66t-70.5 -23t-87 36t-76 36q-30 2 -51 -14t-26 -49l-28 5q5 41 35.5 66t70.5 23t87 -36t76 -36q30 -2 51 14t26 49z" />
    <glyph glyph-name="Odieresis" unicode="&#xd6;" horiz-adv-x="800" 
d="M400 -10q-171 0 -250.5 107.5t-79.5 292.5t79.5 292.5t250.5 107.5t250.5 -107.5t79.5 -292.5t-79.5 -292.5t-250.5 -107.5zM400 754q-79 0 -136 -27.5t-89.5 -78.5t-47.5 -114.5t-15 -143.5t15 -143.5t47.5 -114.5t89.5 -78.5t136 -27.5t136 27.5t89.5 78.5t47.5 114.5
t15 143.5t-15 143.5t-47.5 114.5t-89.5 78.5t-136 27.5zM335 973v-60h-60v60h60zM526 973v-60h-60v60h60z" />
    <glyph glyph-name="multiply" unicode="&#xd7;" horiz-adv-x="490" 
d="M81 250l140 140l-140 140l24 24l140 -140l140 140l24 -24l-140 -140l140 -140l-24 -24l-140 140l-140 -140z" />
    <glyph glyph-name="Oslash" unicode="&#xd8;" horiz-adv-x="800" 
d="M730 390q0 -185 -79.5 -292.5t-250.5 -107.5q-122 0 -200 59l-32 -49h-45l48 73q-101 102 -101 317q0 185 79.5 292.5t250.5 107.5q122 0 200 -59l32 49h45l-48 -73q101 -102 101 -317zM689 390q0 188 -83 282l-385 -591q68 -55 179 -55q79 0 136 27.5t90 78.5t48 114.5
t15 143.5zM111 390q0 -188 83 -282l385 591q-68 55 -179 55q-79 0 -136 -27.5t-90 -78.5t-48 -114.5t-15 -143.5z" />
    <glyph glyph-name="Ugrave" unicode="&#xd9;" horiz-adv-x="784" 
d="M269 1030h47l94 -208h-35zM392 -10q-165 0 -236 69t-71 200v521h41v-528q0 -109 60 -167t206 -58t206 58t60 167v528h41v-521q0 -131 -71 -200t-236 -69z" />
    <glyph glyph-name="Uacute" unicode="&#xda;" horiz-adv-x="784" 
d="M392 -10q-165 0 -236 69t-71 200v521h41v-528q0 -109 60 -167t206 -58t206 58t60 167v528h41v-521q0 -131 -71 -200t-236 -69zM468 1030h47l-106 -208h-35z" />
    <glyph glyph-name="Ucircumflex" unicode="&#xdb;" horiz-adv-x="784" 
d="M567 822h-38l-137 175l-137 -175h-38l153 208h44zM392 -10q-165 0 -236 69t-71 200v521h41v-528q0 -109 60 -167t206 -58t206 58t60 167v528h41v-521q0 -131 -71 -200t-236 -69z" />
    <glyph glyph-name="Udieresis" unicode="&#xdc;" horiz-adv-x="784" 
d="M518 973v-60h-60v60h60zM327 973v-60h-60v60h60zM392 -10q-165 0 -236 69t-71 200v521h41v-528q0 -109 60 -167t206 -58t206 58t60 167v528h41v-521q0 -131 -71 -200t-236 -69z" />
    <glyph glyph-name="Yacute" unicode="&#xdd;" horiz-adv-x="670" 
d="M20 780h49l164 -262l102 -164l102 164l164 262h49l-295 -463v-317h-40v317zM411 1030h47l-106 -208h-35z" />
    <glyph glyph-name="Thorn" unicode="&#xde;" horiz-adv-x="665" 
d="M140 780v-158h256q102 0 161.5 -48.5t59.5 -173.5t-59.5 -173.5t-161.5 -48.5h-256v-178h-40v780h40zM140 214h272q165 0 165 186t-165 186h-272v-372z" />
    <glyph glyph-name="germandbls" unicode="&#xdf;" horiz-adv-x="648" 
d="M337 810q94 0 152.5 -42t58.5 -124q0 -37 -11 -63.5t-35 -45t-39.5 -26.5t-46.5 -21q-65 -27 -84 -44q-27 -25 -27 -62q0 -25 8.5 -42t26 -27t38 -16.5t48.5 -13.5q7 -1 10 -2q83 -20 112 -38q53 -34 53 -100q0 -75 -50.5 -114t-129.5 -39q-163 0 -181 140l42 6
q9 -53 37 -82t101 -29q57 0 98 29t41 86q0 26 -10 44.5t-29.5 29t-40 17t-49.5 13.5q-9 2 -14 3q-1 0 -15.5 3.5t-19.5 5t-19 5.5t-20.5 7.5t-19 10t-19 12.5t-15 15.5t-13 19.5t-7.5 23.5t-3 28.5q0 21 4.5 38t14.5 30.5t18 22.5t25 18t24 13t25.5 11t21.5 8
q62 25 88.5 48.5t26.5 73.5q0 66 -50 99.5t-126 33.5q-110 0 -153.5 -54.5t-43.5 -147.5v-572h-38v562q0 125 55.5 186.5t179.5 61.5z" />
    <glyph glyph-name="agrave" unicode="&#xe0;" horiz-adv-x="561" 
d="M62 138q0 73 49 110t141 51l192 29v42q0 74 -40.5 104.5t-122.5 32.5q-131 3 -152 -101l-40 5q28 129 192 129q97 0 149 -43.5t52 -130.5v-258l5 -108h-30l-13 100q-30 -56 -88.5 -83t-122.5 -27q-83 0 -127 40.5t-44 107.5zM103 138q0 -55 33.5 -84t96.5 -29
q159 0 211 133v137l-197 -31q-70 -11 -107 -38t-37 -88zM158 800h47l94 -208h-35z" />
    <glyph glyph-name="aacute" unicode="&#xe1;" horiz-adv-x="561" 
d="M62 138q0 73 49 110t141 51l192 29v42q0 74 -40.5 104.5t-122.5 32.5q-131 3 -152 -101l-40 5q28 129 192 129q97 0 149 -43.5t52 -130.5v-258l5 -108h-30l-13 100q-30 -56 -88.5 -83t-122.5 -27q-83 0 -127 40.5t-44 107.5zM103 138q0 -55 33.5 -84t96.5 -29
q159 0 211 133v137l-197 -31q-70 -11 -107 -38t-37 -88zM357 800h47l-106 -208h-35z" />
    <glyph glyph-name="acircumflex" unicode="&#xe2;" horiz-adv-x="561" 
d="M62 138q0 73 49 110t141 51l192 29v42q0 74 -40.5 104.5t-122.5 32.5q-131 3 -152 -101l-40 5q28 129 192 129q97 0 149 -43.5t52 -130.5v-258l5 -108h-30l-13 100q-30 -56 -88.5 -83t-122.5 -27q-83 0 -127 40.5t-44 107.5zM103 138q0 -55 33.5 -84t96.5 -29
q159 0 211 133v137l-197 -31q-70 -11 -107 -38t-37 -88zM456 592h-38l-137 175l-137 -175h-38l153 208h44z" />
    <glyph glyph-name="atilde" unicode="&#xe3;" horiz-adv-x="561" 
d="M62 138q0 73 49 110t141 51l192 29v42q0 74 -40.5 104.5t-122.5 32.5q-131 3 -152 -101l-40 5q28 129 192 129q97 0 149 -43.5t52 -130.5v-258l5 -108h-30l-13 100q-30 -56 -88.5 -83t-122.5 -27q-83 0 -127 40.5t-44 107.5zM103 138q0 -55 33.5 -84t96.5 -29
q159 0 211 133v137l-197 -31q-70 -11 -107 -38t-37 -88zM438 740l28 -5q-5 -41 -35.5 -66t-70.5 -23t-87 36t-76 36q-30 2 -51 -14t-26 -49l-28 5q5 41 35.5 66t70.5 23t87 -36t76 -36q30 -2 51 14t26 49z" />
    <glyph glyph-name="adieresis" unicode="&#xe4;" horiz-adv-x="561" 
d="M62 138q0 73 49 110t141 51l192 29v42q0 74 -40.5 104.5t-122.5 32.5q-131 3 -152 -101l-40 5q28 129 192 129q97 0 149 -43.5t52 -130.5v-258l5 -108h-30l-13 100q-30 -56 -88.5 -83t-122.5 -27q-83 0 -127 40.5t-44 107.5zM103 138q0 -55 33.5 -84t96.5 -29
q159 0 211 133v137l-197 -31q-70 -11 -107 -38t-37 -88zM216 743v-60h-60v60h60zM407 743v-60h-60v60h60z" />
    <glyph glyph-name="aring" unicode="&#xe5;" horiz-adv-x="561" 
d="M62 138q0 73 49 110t141 51l192 29v42q0 74 -40.5 104.5t-122.5 32.5q-131 3 -152 -101l-40 5q28 129 192 129q97 0 149 -43.5t52 -130.5v-258l5 -108h-30l-13 100q-30 -56 -88.5 -83t-122.5 -27q-83 0 -127 40.5t-44 107.5zM103 138q0 -55 33.5 -84t96.5 -29
q159 0 211 133v137l-197 -31q-70 -11 -107 -38t-37 -88zM167 696q0 51 30.5 82.5t83.5 31.5t83.5 -31.5t30.5 -82.5t-30.5 -82.5t-83.5 -31.5t-83.5 31.5t-30.5 82.5zM364 696q0 40 -21.5 63t-61.5 23t-61.5 -23t-21.5 -63t21.5 -63t61.5 -23t61.5 23t21.5 63z" />
    <glyph glyph-name="ae" unicode="&#xe6;" horiz-adv-x="963" 
d="M898 251h-413q4 -103 58 -164.5t137 -61.5q144 0 167 108l42 -6q-12 -64 -65.5 -100.5t-143.5 -36.5q-73 0 -127 35.5t-82 100.5q-80 -136 -238 -136q-83 0 -127 40.5t-44 107.5q0 75 50 111t140 36h192v85q0 74 -40.5 104.5t-122.5 32.5q-131 3 -152 -101l-40 5
q28 129 192 129q166 0 195 -126q26 59 80 92.5t124 33.5q117 0 167.5 -71t50.5 -203v-15zM680 505q-83 0 -139 -61t-56 -159h370q-2 108 -42 164t-133 56zM103 138q0 -55 33.5 -84t96.5 -29q163 0 220 151q-7 30 -9 75h-197q-144 0 -144 -113z" />
    <glyph glyph-name="ccedilla" unicode="&#xe7;" horiz-adv-x="562" 
d="M60 265q0 124 65 199.5t171 75.5q90 0 143.5 -36.5t65.5 -100.5l-42 -6q-23 108 -167 108q-86 0 -140 -66t-54 -174t54 -174t140 -66q144 0 167 108l42 -6q-12 -64 -65.5 -100.5t-143.5 -36.5l-9 -32q108 -16 108 -86q0 -41 -30 -61.5t-79 -20.5t-79 17l10 29
q27 -15 61 -16q82 -2 82 51q0 22 -17 35t-36 17.5t-46 7.5q-8 1 -11 1l20 60q-96 9 -153 83t-57 190z" />
    <glyph glyph-name="egrave" unicode="&#xe8;" horiz-adv-x="579" 
d="M514 251h-413q4 -103 58 -164.5t137 -61.5q144 0 167 108l42 -6q-12 -64 -65.5 -100.5t-143.5 -36.5q-106 0 -171 75.5t-65 199.5t65 199.5t171 75.5q117 0 167.5 -71t50.5 -203v-15zM296 505q-81 0 -135 -60t-60 -160h370q-2 108 -42 164t-133 56zM173 800h47l94 -208
h-35z" />
    <glyph glyph-name="eacute" unicode="&#xe9;" horiz-adv-x="579" 
d="M514 251h-413q4 -103 58 -164.5t137 -61.5q144 0 167 108l42 -6q-12 -64 -65.5 -100.5t-143.5 -36.5q-106 0 -171 75.5t-65 199.5t65 199.5t171 75.5q117 0 167.5 -71t50.5 -203v-15zM296 505q-81 0 -135 -60t-60 -160h370q-2 108 -42 164t-133 56zM372 800h47l-106 -208
h-35z" />
    <glyph glyph-name="ecircumflex" unicode="&#xea;" horiz-adv-x="579" 
d="M514 251h-413q4 -103 58 -164.5t137 -61.5q144 0 167 108l42 -6q-12 -64 -65.5 -100.5t-143.5 -36.5q-106 0 -171 75.5t-65 199.5t65 199.5t171 75.5q117 0 167.5 -71t50.5 -203v-15zM296 505q-81 0 -135 -60t-60 -160h370q-2 108 -42 164t-133 56zM471 592h-38l-137 175
l-137 -175h-38l153 208h44z" />
    <glyph glyph-name="edieresis" unicode="&#xeb;" horiz-adv-x="579" 
d="M514 251h-413q4 -103 58 -164.5t137 -61.5q144 0 167 108l42 -6q-12 -64 -65.5 -100.5t-143.5 -36.5q-106 0 -171 75.5t-65 199.5t65 199.5t171 75.5q117 0 167.5 -71t50.5 -203v-15zM296 505q-81 0 -135 -60t-60 -160h370q-2 108 -42 164t-133 56zM231 743v-60h-60v60
h60zM422 743v-60h-60v60h60z" />
    <glyph glyph-name="igrave" unicode="&#xec;" horiz-adv-x="236" 
d="M99 0v530h38v-530h-38zM-5 800h47l94 -208h-35z" />
    <glyph glyph-name="iacute" unicode="&#xed;" horiz-adv-x="236" 
d="M99 0v530h38v-530h-38zM194 800h47l-106 -208h-35z" />
    <glyph glyph-name="icircumflex" unicode="&#xee;" horiz-adv-x="236" 
d="M99 0v530h38v-530h-38zM293 592h-38l-137 175l-137 -175h-38l153 208h44z" />
    <glyph glyph-name="idieresis" unicode="&#xef;" horiz-adv-x="236" 
d="M99 0v530h38v-530h-38zM244 743v-60h-60v60h60zM53 743v-60h-60v60h60z" />
    <glyph glyph-name="eth" unicode="&#xf0;" horiz-adv-x="598" 
d="M473 745l-97 -37q153 -150 156 -436v-7q0 -129 -63.5 -202t-175.5 -73t-172.5 72.5t-60.5 202.5t60.5 202.5t172.5 72.5q57 0 104.5 -24t74.5 -60q-34 148 -134 237l-165 -63v35l137 52q-54 41 -148 83h77q61 -28 110 -68l124 48v-35zM293 505q-93 0 -142 -62.5
t-49 -177.5t49 -177.5t142 -62.5q94 0 145.5 63t51.5 177t-51.5 177t-145.5 63z" />
    <glyph glyph-name="ntilde" unicode="&#xf1;" horiz-adv-x="565" 
d="M104 530l13 -100q25 48 78.5 79t116.5 31q79 0 130.5 -42t51.5 -114v-384h-38v369q0 65 -42 100.5t-112 35.5q-71 0 -118.5 -41t-66.5 -91v-373h-38v422l-5 108h30zM440 740l28 -5q-5 -41 -35.5 -66t-70.5 -23t-87 36t-76 36q-30 2 -51 -14t-26 -49l-28 5q5 41 35.5 66
t70.5 23t87 -36t76 -36q30 -2 51 14t26 49z" />
    <glyph glyph-name="ograve" unicode="&#xf2;" horiz-adv-x="592" 
d="M296 -10q-112 0 -174 72.5t-62 202.5t62 202.5t174 72.5t174 -72.5t62 -202.5t-62 -202.5t-174 -72.5zM296 505q-93 0 -143.5 -63t-50.5 -177t50.5 -177t143.5 -63t143.5 63t50.5 177t-50.5 177t-143.5 63zM173 800h47l94 -208h-35z" />
    <glyph glyph-name="oacute" unicode="&#xf3;" horiz-adv-x="592" 
d="M296 -10q-112 0 -174 72.5t-62 202.5t62 202.5t174 72.5t174 -72.5t62 -202.5t-62 -202.5t-174 -72.5zM296 505q-93 0 -143.5 -63t-50.5 -177t50.5 -177t143.5 -63t143.5 63t50.5 177t-50.5 177t-143.5 63zM372 800h47l-106 -208h-35z" />
    <glyph glyph-name="ocircumflex" unicode="&#xf4;" horiz-adv-x="592" 
d="M296 505q-93 0 -143.5 -63t-50.5 -177t50.5 -177t143.5 -63t143.5 63t50.5 177t-50.5 177t-143.5 63zM296 -10q-112 0 -174 72.5t-62 202.5t62 202.5t174 72.5t174 -72.5t62 -202.5t-62 -202.5t-174 -72.5zM471 592h-38l-137 175l-137 -175h-38l153 208h44z" />
    <glyph glyph-name="otilde" unicode="&#xf5;" horiz-adv-x="592" 
d="M296 505q-93 0 -143.5 -63t-50.5 -177t50.5 -177t143.5 -63t143.5 63t50.5 177t-50.5 177t-143.5 63zM296 -10q-112 0 -174 72.5t-62 202.5t62 202.5t174 72.5t174 -72.5t62 -202.5t-62 -202.5t-174 -72.5zM453 740l28 -5q-5 -41 -35.5 -66t-70.5 -23t-87 36t-76 36
q-30 2 -51 -14t-26 -49l-28 5q5 41 35.5 66t70.5 23t87 -36t76 -36q30 -2 51 14t26 49z" />
    <glyph glyph-name="odieresis" unicode="&#xf6;" horiz-adv-x="592" 
d="M296 -10q-112 0 -174 72.5t-62 202.5t62 202.5t174 72.5t174 -72.5t62 -202.5t-62 -202.5t-174 -72.5zM296 505q-93 0 -143.5 -63t-50.5 -177t50.5 -177t143.5 -63t143.5 63t50.5 177t-50.5 177t-143.5 63zM231 743v-60h-60v60h60zM422 743v-60h-60v60h60z" />
    <glyph glyph-name="divide" unicode="&#xf7;" horiz-adv-x="490" 
d="M440 373h-390v34h390v-34zM275 257v-60h-60v60h60zM275 583v-60h-60v60h60z" />
    <glyph glyph-name="oslash" unicode="&#xf8;" horiz-adv-x="592" 
d="M532 265q0 -130 -62 -202.5t-174 -72.5q-80 0 -135 38l-19 -28h-41l33 50q-74 72 -74 215q0 130 62 202.5t174 72.5q80 0 135 -38l19 28h41l-33 -50q74 -72 74 -215zM490 265q0 118 -54 181l-255 -387q46 -34 115 -34q93 0 143.5 63t50.5 177zM102 265q0 -118 54 -181
l255 387q-46 34 -115 34q-93 0 -143.5 -63t-50.5 -177z" />
    <glyph glyph-name="ugrave" unicode="&#xf9;" horiz-adv-x="565" 
d="M461 0l-13 100q-25 -48 -78.5 -79t-116.5 -31q-79 0 -130.5 42t-51.5 114v384h38v-369q0 -65 42 -100.5t112 -35.5q71 0 118.5 41t66.5 91v373h38v-422l5 -108h-30zM156 800h47l94 -208h-35z" />
    <glyph glyph-name="uacute" unicode="&#xfa;" horiz-adv-x="565" 
d="M461 0l-13 100q-25 -48 -78.5 -79t-116.5 -31q-79 0 -130.5 42t-51.5 114v384h38v-369q0 -65 42 -100.5t112 -35.5q71 0 118.5 41t66.5 91v373h38v-422l5 -108h-30zM355 800h47l-106 -208h-35z" />
    <glyph glyph-name="ucircumflex" unicode="&#xfb;" horiz-adv-x="565" 
d="M461 0l-13 100q-25 -48 -78.5 -79t-116.5 -31q-79 0 -130.5 42t-51.5 114v384h38v-369q0 -65 42 -100.5t112 -35.5q71 0 118.5 41t66.5 91v373h38v-422l5 -108h-30zM454 592h-38l-137 175l-137 -175h-38l153 208h44z" />
    <glyph glyph-name="udieresis" unicode="&#xfc;" horiz-adv-x="565" 
d="M461 0l-13 100q-25 -48 -78.5 -79t-116.5 -31q-79 0 -130.5 42t-51.5 114v384h38v-369q0 -65 42 -100.5t112 -35.5q71 0 118.5 41t66.5 91v373h38v-422l5 -108h-30zM405 743v-60h-60v60h60zM214 743v-60h-60v60h60z" />
    <glyph glyph-name="yacute" unicode="&#xfd;" horiz-adv-x="512" 
d="M484 530l-197 -483l-99 -247h-43l91 220l-208 510h45l113 -284l70 -183l70 183l114 284h44zM332 800h47l-106 -208h-35z" />
    <glyph glyph-name="thorn" unicode="&#xfe;" horiz-adv-x="590" 
d="M79 -200v1000h38v-370q27 51 81 80.5t111 29.5q103 0 162 -75t59 -200t-59 -200t-162 -75q-57 0 -111 29.5t-81 80.5v-300h-38zM117 372v-214q20 -52 66 -92.5t124 -40.5q84 0 132.5 65t48.5 175t-48.5 175t-132.5 65q-78 0 -124 -40.5t-66 -92.5z" />
    <glyph glyph-name="ydieresis" unicode="&#xff;" horiz-adv-x="512" 
d="M484 530l-197 -483l-99 -247h-43l91 220l-208 510h45l113 -284l70 -183l70 183l114 284h44zM382 743v-60h-60v60h60zM191 743v-60h-60v60h60z" />
    <glyph glyph-name="Amacron" unicode="&#x100;" horiz-adv-x="740" 
d="M647 0l-99 265h-356l-99 -265h-44l300 790h42l300 -790h-44zM370 744l-85 -231l-80 -212h329l-79 212zM234 927v32h272v-32h-272z" />
    <glyph glyph-name="amacron" unicode="&#x101;" horiz-adv-x="561" 
d="M62 138q0 73 49 110t141 51l192 29v42q0 74 -40.5 104.5t-122.5 32.5q-131 3 -152 -101l-40 5q28 129 192 129q97 0 149 -43.5t52 -130.5v-258l5 -108h-30l-13 100q-30 -56 -88.5 -83t-122.5 -27q-83 0 -127 40.5t-44 107.5zM103 138q0 -55 33.5 -84t96.5 -29
q159 0 211 133v137l-197 -31q-70 -11 -107 -38t-37 -88zM145 697v32h272v-32h-272z" />
    <glyph glyph-name="Abreve" unicode="&#x102;" horiz-adv-x="740" 
d="M647 0l-99 265h-356l-99 -265h-44l300 790h42l300 -790h-44zM370 744l-85 -231l-80 -212h329l-79 212zM518 1030h30q0 -99 -41 -148.5t-137 -49.5t-137 49.5t-41 148.5h30q0 -89 35 -128t113 -39t113 39t35 128z" />
    <glyph glyph-name="abreve" unicode="&#x103;" horiz-adv-x="561" 
d="M62 138q0 73 49 110t141 51l192 29v42q0 74 -40.5 104.5t-122.5 32.5q-131 3 -152 -101l-40 5q28 129 192 129q97 0 149 -43.5t52 -130.5v-258l5 -108h-30l-13 100q-30 -56 -88.5 -83t-122.5 -27q-83 0 -127 40.5t-44 107.5zM103 138q0 -55 33.5 -84t96.5 -29
q159 0 211 133v137l-197 -31q-70 -11 -107 -38t-37 -88zM429 800h30q0 -99 -41 -148.5t-137 -49.5t-137 49.5t-41 148.5h30q0 -89 35 -128t113 -39t113 39t35 128z" />
    <glyph glyph-name="Aogonek" unicode="&#x104;" horiz-adv-x="740" 
d="M391 790l300 -790q-56 -9 -105 -40.5t-49 -78.5q0 -34 19 -48t56 -13q20 0 40.5 6.5t31.5 12.5l10 6l10 -26q-43 -29 -102 -29q-43 0 -71.5 21.5t-28.5 65.5q0 47 38 82.5t101 54.5l-93 251h-356l-99 -265h-44l300 790h42zM370 744l-85 -231l-80 -212h329l-79 212z" />
    <glyph glyph-name="aogonek" unicode="&#x105;" horiz-adv-x="561" 
d="M482 108l5 -108q-56 -9 -105 -40.5t-49 -78.5q0 -34 19 -48t56 -13q20 0 40.5 6.5t31.5 12.5l10 6l10 -26q-43 -29 -102 -29q-43 0 -71.5 21.5t-28.5 65.5q0 51 43 88t113 54l-10 81q-30 -56 -88.5 -83t-122.5 -27q-83 0 -127 40.5t-44 107.5q0 73 49 110t141 51l192 29
v42q0 74 -40.5 104.5t-122.5 32.5q-131 3 -152 -101l-40 5q28 129 192 129q97 0 149 -43.5t52 -130.5v-258zM103 138q0 -55 33.5 -84t96.5 -29q159 0 211 133v137l-197 -31q-70 -11 -107 -38t-37 -88z" />
    <glyph glyph-name="Cacute" unicode="&#x106;" horiz-adv-x="750" 
d="M70 390q0 190 81.5 295t248.5 105q252 0 292 -204l-42 -6q-32 177 -250 174q-288 -4 -288 -364t288 -364q218 -3 250 174l42 -6q-40 -204 -292 -204q-167 0 -248.5 105t-81.5 295zM478 1030h47l-106 -208h-35z" />
    <glyph glyph-name="cacute" unicode="&#x107;" horiz-adv-x="562" 
d="M60 265q0 124 65 199.5t171 75.5q90 0 143.5 -36.5t65.5 -100.5l-42 -6q-23 108 -167 108q-86 0 -140 -66t-54 -174t54 -174t140 -66q144 0 167 108l42 -6q-12 -64 -65.5 -100.5t-143.5 -36.5q-106 0 -171 75.5t-65 199.5zM372 800h47l-106 -208h-35z" />
    <glyph glyph-name="Ccircumflex" unicode="&#x108;" horiz-adv-x="750" 
d="M70 390q0 190 81.5 295t248.5 105q252 0 292 -204l-42 -6q-32 177 -250 174q-288 -4 -288 -364t288 -364q218 -3 250 174l42 -6q-40 -204 -292 -204q-167 0 -248.5 105t-81.5 295zM575 822h-38l-137 175l-137 -175h-38l153 208h44z" />
    <glyph glyph-name="ccircumflex" unicode="&#x109;" horiz-adv-x="562" 
d="M60 265q0 124 65 199.5t171 75.5q90 0 143.5 -36.5t65.5 -100.5l-42 -6q-23 108 -167 108q-86 0 -140 -66t-54 -174t54 -174t140 -66q144 0 167 108l42 -6q-12 -64 -65.5 -100.5t-143.5 -36.5q-106 0 -171 75.5t-65 199.5zM471 592h-38l-137 175l-137 -175h-38l153 208
h44z" />
    <glyph glyph-name="Cdotaccent" unicode="&#x10a;" horiz-adv-x="750" 
d="M70 390q0 190 81.5 295t248.5 105q252 0 292 -204l-42 -6q-32 177 -250 174q-288 -4 -288 -364t288 -364q218 -3 250 174l42 -6q-40 -204 -292 -204q-167 0 -248.5 105t-81.5 295zM432 973v-60h-60v60h60z" />
    <glyph glyph-name="cdotaccent" unicode="&#x10b;" horiz-adv-x="562" 
d="M60 265q0 124 65 199.5t171 75.5q90 0 143.5 -36.5t65.5 -100.5l-42 -6q-23 108 -167 108q-86 0 -140 -66t-54 -174t54 -174t140 -66q144 0 167 108l42 -6q-12 -64 -65.5 -100.5t-143.5 -36.5q-106 0 -171 75.5t-65 199.5zM326 743v-60h-60v60h60z" />
    <glyph glyph-name="Ccaron" unicode="&#x10c;" horiz-adv-x="750" 
d="M70 390q0 190 81.5 295t248.5 105q252 0 292 -204l-42 -6q-32 177 -250 174q-288 -4 -288 -364t288 -364q218 -3 250 174l42 -6q-40 -204 -292 -204q-167 0 -248.5 105t-81.5 295zM220 1030h38l137 -175l137 175h38l-153 -208h-44z" />
    <glyph glyph-name="ccaron" unicode="&#x10d;" horiz-adv-x="562" 
d="M60 265q0 124 65 199.5t171 75.5q90 0 143.5 -36.5t65.5 -100.5l-42 -6q-23 108 -167 108q-86 0 -140 -66t-54 -174t54 -174t140 -66q144 0 167 108l42 -6q-12 -64 -65.5 -100.5t-143.5 -36.5q-106 0 -171 75.5t-65 199.5zM121 800h38l137 -175l137 175h38l-153 -208h-44
z" />
    <glyph glyph-name="Dcaron" unicode="&#x10e;" horiz-adv-x="780" 
d="M710 390q0 -112 -22.5 -188.5t-69.5 -120.5t-109.5 -62.5t-151.5 -18.5h-257v780h257q89 0 151.5 -18.5t109.5 -62.5t69.5 -120.5t22.5 -188.5zM140 36h228q162 0 231 78t69 276t-69 276t-231 78h-228v-708zM187 1030h38l137 -175l137 175h38l-153 -208h-44z" />
    <glyph glyph-name="dcaron" unicode="&#x10f;" horiz-adv-x="590" 
d="M473 430v370h38v-692l5 -108h-30l-13 100q-27 -51 -81 -80.5t-111 -29.5q-103 0 -162 75t-59 200t59 200t162 75q57 0 111 -29.5t81 -80.5zM473 158v214q-20 52 -66 92.5t-124 40.5q-84 0 -132.5 -65t-48.5 -175t48.5 -175t132.5 -65q78 0 124 40.5t66 92.5zM616 592h-27
l31 208h54z" />
    <glyph glyph-name="Dcroat" unicode="&#x110;" horiz-adv-x="825" 
d="M25 383v34h120v363h257q89 0 151.5 -18.5t109.5 -62.5t69.5 -120.5t22.5 -188.5t-22.5 -188.5t-69.5 -120.5t-109.5 -62.5t-151.5 -18.5h-257v383h-120zM185 36h228q162 0 231 78t69 276t-69 276t-231 78h-228v-327h268v-34h-268v-347z" />
    <glyph glyph-name="dcroat" unicode="&#x111;" horiz-adv-x="590" 
d="M511 641v-533l5 -108h-30l-13 100q-27 -51 -81 -80.5t-111 -29.5q-103 0 -162 75t-59 200t59 200t162 75q57 0 111 -29.5t81 -80.5v211h-153v34h153v125h38v-125h125v-34h-125zM473 158v214q-20 52 -66 92.5t-124 40.5q-84 0 -132.5 -65t-48.5 -175t48.5 -175t132.5 -65
q78 0 124 40.5t66 92.5z" />
    <glyph glyph-name="Emacron" unicode="&#x112;" horiz-adv-x="715" 
d="M100 780h520v-36h-480v-326h440v-36h-440v-346h500v-36h-540v780zM234 927v32h272v-32h-272z" />
    <glyph glyph-name="emacron" unicode="&#x113;" horiz-adv-x="579" 
d="M514 251h-413q4 -103 58 -164.5t137 -61.5q144 0 167 108l42 -6q-12 -64 -65.5 -100.5t-143.5 -36.5q-106 0 -171 75.5t-65 199.5t65 199.5t171 75.5q117 0 167.5 -71t50.5 -203v-15zM296 505q-81 0 -135 -60t-60 -160h370q-2 108 -42 164t-133 56zM160 697v32h272v-32
h-272z" />
    <glyph glyph-name="Ebreve" unicode="&#x114;" horiz-adv-x="715" 
d="M100 780h520v-36h-480v-326h440v-36h-440v-346h500v-36h-540v780zM518 1030h30q0 -99 -41 -148.5t-137 -49.5t-137 49.5t-41 148.5h30q0 -89 35 -128t113 -39t113 39t35 128z" />
    <glyph glyph-name="ebreve" unicode="&#x115;" horiz-adv-x="579" 
d="M514 251h-413q4 -103 58 -164.5t137 -61.5q144 0 167 108l42 -6q-12 -64 -65.5 -100.5t-143.5 -36.5q-106 0 -171 75.5t-65 199.5t65 199.5t171 75.5q117 0 167.5 -71t50.5 -203v-15zM296 505q-81 0 -135 -60t-60 -160h370q-2 108 -42 164t-133 56zM444 800h30
q0 -99 -41 -148.5t-137 -49.5t-137 49.5t-41 148.5h30q0 -89 35 -128t113 -39t113 39t35 128z" />
    <glyph glyph-name="Edotaccent" unicode="&#x116;" horiz-adv-x="715" 
d="M100 780h520v-36h-480v-326h440v-36h-440v-346h500v-36h-540v780zM400 973v-60h-60v60h60z" />
    <glyph glyph-name="edotaccent" unicode="&#x117;" horiz-adv-x="579" 
d="M514 251h-413q4 -103 58 -164.5t137 -61.5q144 0 167 108l42 -6q-12 -64 -65.5 -100.5t-143.5 -36.5q-106 0 -171 75.5t-65 199.5t65 199.5t171 75.5q117 0 167.5 -71t50.5 -203v-15zM296 505q-81 0 -135 -60t-60 -160h370q-2 108 -42 164t-133 56zM326 743v-60h-60v60
h60z" />
    <glyph glyph-name="Eogonek" unicode="&#x118;" horiz-adv-x="715" 
d="M100 780h520v-36h-480v-326h440v-36h-440v-346h500v-36q-56 -9 -105 -40.5t-49 -78.5q0 -34 19 -48t56 -13q20 0 40.5 6.5t30.5 12.5l11 6l10 -26q-43 -29 -102 -29q-43 0 -71.5 21.5t-28.5 65.5q0 39 28.5 71.5t74.5 51.5h-454v780z" />
    <glyph glyph-name="eogonek" unicode="&#x119;" horiz-adv-x="579" 
d="M505 127q-16 -82 -91 -115q-44 -19 -75 -53.5t-31 -77.5q0 -34 19 -48t56 -13q20 0 40.5 6.5t30.5 12.5l11 6l10 -26q-43 -29 -102 -29q-43 0 -71.5 21.5t-28.5 65.5q0 62 64 115q-26 -2 -41 -2q-106 0 -171 75.5t-65 199.5t65 199.5t171 75.5q117 0 167.5 -71t50.5 -203
v-15h-413q4 -103 58 -164.5t137 -61.5q144 0 167 108zM296 505q-81 0 -135 -60t-60 -160h370q-2 108 -42 164t-133 56z" />
    <glyph glyph-name="Ecaron" unicode="&#x11a;" horiz-adv-x="715" 
d="M100 780h520v-36h-480v-326h440v-36h-440v-346h500v-36h-540v780zM195 1030h38l137 -175l137 175h38l-153 -208h-44z" />
    <glyph glyph-name="ecaron" unicode="&#x11b;" horiz-adv-x="579" 
d="M514 251h-413q4 -103 58 -164.5t137 -61.5q144 0 167 108l42 -6q-12 -64 -65.5 -100.5t-143.5 -36.5q-106 0 -171 75.5t-65 199.5t65 199.5t171 75.5q117 0 167.5 -71t50.5 -203v-15zM296 505q-81 0 -135 -60t-60 -160h370q-2 108 -42 164t-133 56zM121 800h38l137 -175
l137 175h38l-153 -208h-44z" />
    <glyph glyph-name="Gcircumflex" unicode="&#x11c;" horiz-adv-x="789" 
d="M400 26q164 -3 254 70v258h-200v36h240v-312q-116 -90 -294 -88q-167 0 -248.5 105t-81.5 295t81.5 295t248.5 105q252 0 292 -204l-42 -6q-32 177 -250 174q-288 -4 -288 -364t288 -364zM575 822h-38l-137 175l-137 -175h-38l153 208h44z" />
    <glyph glyph-name="gcircumflex" unicode="&#x11d;" horiz-adv-x="590" 
d="M458 592h-38l-137 175l-137 -175h-38l153 208h44zM511 422v-452q0 -87 -61 -133.5t-169 -46.5q-100 0 -145.5 38t-59.5 101l40 5q24 -112 165 -112q86 0 139 35t53 108v150q-26 -50 -81 -77.5t-114 -27.5q-104 0 -162.5 70.5t-58.5 194.5t58.5 194.5t162.5 70.5
q58 0 113 -29.5t82 -80.5l13 100h30zM473 173v199q-19 52 -67 92.5t-126 40.5q-85 0 -133 -60.5t-48 -169.5t48 -169.5t133 -60.5q79 0 126.5 39t66.5 89z" />
    <glyph glyph-name="Gbreve" unicode="&#x11e;" horiz-adv-x="789" 
d="M400 26q164 -3 254 70v258h-200v36h240v-312q-116 -90 -294 -88q-167 0 -248.5 105t-81.5 295t81.5 295t248.5 105q252 0 292 -204l-42 -6q-32 177 -250 174q-288 -4 -288 -364t288 -364zM548 1030h30q0 -99 -41 -148.5t-137 -49.5t-137 49.5t-41 148.5h30q0 -89 35 -128
t113 -39t113 39t35 128z" />
    <glyph glyph-name="gbreve" unicode="&#x11f;" horiz-adv-x="590" 
d="M511 422v-452q0 -87 -61 -133.5t-169 -46.5q-100 0 -145.5 38t-59.5 101l40 5q24 -112 165 -112q86 0 139 35t53 108v150q-26 -50 -81 -77.5t-114 -27.5q-104 0 -162.5 70.5t-58.5 194.5t58.5 194.5t162.5 70.5q58 0 113 -29.5t82 -80.5l13 100h30zM473 173v199
q-19 52 -67 92.5t-126 40.5q-85 0 -133 -60.5t-48 -169.5t48 -169.5t133 -60.5q79 0 126.5 39t66.5 89zM431 800h30q0 -99 -41 -148.5t-137 -49.5t-137 49.5t-41 148.5h30q0 -89 35 -128t113 -39t113 39t35 128z" />
    <glyph glyph-name="Gdotaccent" unicode="&#x120;" horiz-adv-x="789" 
d="M400 26q164 -3 254 70v258h-200v36h240v-312q-116 -90 -294 -88q-167 0 -248.5 105t-81.5 295t81.5 295t248.5 105q252 0 292 -204l-42 -6q-32 177 -250 174q-288 -4 -288 -364t288 -364zM430 973v-60h-60v60h60z" />
    <glyph glyph-name="gdotaccent" unicode="&#x121;" horiz-adv-x="590" 
d="M511 422v-452q0 -87 -61 -133.5t-169 -46.5q-100 0 -145.5 38t-59.5 101l40 5q24 -112 165 -112q86 0 139 35t53 108v150q-26 -50 -81 -77.5t-114 -27.5q-104 0 -162.5 70.5t-58.5 194.5t58.5 194.5t162.5 70.5q58 0 113 -29.5t82 -80.5l13 100h30zM473 173v199
q-19 52 -67 92.5t-126 40.5q-85 0 -133 -60.5t-48 -169.5t48 -169.5t133 -60.5q79 0 126.5 39t66.5 89zM313 743v-60h-60v60h60z" />
    <glyph glyph-name="Gcommaaccent" unicode="&#x122;" horiz-adv-x="789" 
d="M400 26q164 -3 254 70v258h-200v36h240v-312q-116 -90 -294 -88q-167 0 -248.5 105t-81.5 295t81.5 295t248.5 105q252 0 292 -204l-42 -6q-32 177 -250 174q-288 -4 -288 -364t288 -364zM387 -200h-27l21 138h44z" />
    <glyph glyph-name="gcommaaccent" unicode="&#x123;" horiz-adv-x="590" 
d="M511 422v-452q0 -87 -61 -133.5t-169 -46.5q-100 0 -145.5 38t-59.5 101l40 5q24 -112 165 -112q86 0 139 35t53 108v150q-26 -50 -81 -77.5t-114 -27.5q-104 0 -162.5 70.5t-58.5 194.5t58.5 194.5t162.5 70.5q58 0 113 -29.5t82 -80.5l13 100h30zM473 173v199
q-19 52 -67 92.5t-126 40.5q-85 0 -133 -60.5t-48 -169.5t48 -169.5t133 -60.5q79 0 126.5 39t66.5 89zM311 800h27l-31 -208h-54z" />
    <glyph glyph-name="Hcircumflex" unicode="&#x124;" horiz-adv-x="750" 
d="M610 780h40v-780h-40v382h-470v-382h-40v780h40v-362h470v362zM550 822h-38l-137 175l-137 -175h-38l153 208h44z" />
    <glyph glyph-name="hcircumflex" unicode="&#x125;" horiz-adv-x="566" 
d="M118 800v-370q25 48 78.5 79t116.5 31q79 0 130.5 -42t51.5 -114v-384h-38v369q0 65 -42 100.5t-112 35.5q-71 0 -118.5 -41t-66.5 -91v-373h-38v800h38zM274 822h-38l-137 175l-137 -175h-38l153 208h44z" />
    <glyph glyph-name="Hbar" unicode="&#x126;" horiz-adv-x="750" 
d="M610 780h40v-780h-40v382h-470v-382h-40v780h40v-167h470v167zM140 418h470v159h-470v-159z" />
    <glyph glyph-name="hbar" unicode="&#x127;" horiz-adv-x="566" 
d="M80 675v125h38v-125h153v-34h-153v-211q25 48 78.5 79t116.5 31q79 0 130.5 -42t51.5 -114v-384h-38v369q0 65 -42 100.5t-112 35.5q-71 0 -118.5 -41t-66.5 -91v-373h-38v641h-125v34h125z" />
    <glyph glyph-name="Itilde" unicode="&#x128;" horiz-adv-x="280" 
d="M160 780v-780h-40v780h40zM297 970l28 -5q-5 -41 -35.5 -66t-70.5 -23t-87 36t-76 36q-30 2 -51 -14t-26 -49l-28 5q5 41 35.5 66t70.5 23t87 -36t76 -36q30 -2 51 14t26 49z" />
    <glyph glyph-name="itilde" unicode="&#x129;" horiz-adv-x="236" 
d="M99 0v530h38v-530h-38zM275 740l28 -5q-5 -41 -35.5 -66t-70.5 -23t-87 36t-76 36q-30 2 -51 -14t-26 -49l-28 5q5 41 35.5 66t70.5 23t87 -36t76 -36q30 -2 51 14t26 49z" />
    <glyph glyph-name="Imacron" unicode="&#x12a;" horiz-adv-x="280" 
d="M160 780v-780h-40v780h40zM4 927v32h272v-32h-272z" />
    <glyph glyph-name="imacron" unicode="&#x12b;" horiz-adv-x="236" 
d="M99 0v530h38v-530h-38zM-18 697v32h272v-32h-272z" />
    <glyph glyph-name="Ibreve" unicode="&#x12c;" horiz-adv-x="280" 
d="M160 780v-780h-40v780h40zM288 1030h30q0 -99 -41 -148.5t-137 -49.5t-137 49.5t-41 148.5h30q0 -89 35 -128t113 -39t113 39t35 128z" />
    <glyph glyph-name="ibreve" unicode="&#x12d;" horiz-adv-x="236" 
d="M99 0v530h38v-530h-38zM266 800h30q0 -99 -41 -148.5t-137 -49.5t-137 49.5t-41 148.5h30q0 -89 35 -128t113 -39t113 39t35 128z" />
    <glyph glyph-name="Iogonek" unicode="&#x12e;" horiz-adv-x="280" 
d="M160 780v-780q-93 -53 -93 -119q0 -34 19 -48t56 -13q20 0 40.5 6.5t31.5 12.5l10 6l10 -26q-43 -29 -102 -29q-43 0 -71.5 21.5t-28.5 65.5q0 71 88 130v773h40z" />
    <glyph glyph-name="iogonek" unicode="&#x12f;" horiz-adv-x="236" 
d="M137 530v-530q-93 -53 -93 -119q0 -34 19 -48t56 -13q20 0 40.5 6.5t30.5 12.5l11 6l10 -26q-43 -29 -102 -29q-43 0 -71.5 21.5t-28.5 65.5q0 72 90 131v522h38zM148 743v-60h-60v60h60z" />
    <glyph glyph-name="Idotaccent" unicode="&#x130;" horiz-adv-x="280" 
d="M160 780v-780h-40v780h40zM170 973v-60h-60v60h60z" />
    <glyph glyph-name="dotlessi" unicode="&#x131;" horiz-adv-x="236" 
d="M99 0v530h38v-530h-38z" />
    <glyph glyph-name="IJ" unicode="&#x132;" 
d="M160 780v-780h-40v780h40zM341 28q66 0 96 29.5t30 115.5v607h40v-582q0 -39 -2 -64.5t-11.5 -55.5t-26.5 -47t-49 -29t-77 -12q-33 0 -57 10l6 38q23 -10 51 -10z" />
    <glyph glyph-name="ij" unicode="&#x133;" horiz-adv-x="452" 
d="M99 0v530h38v-530h-38zM148 743v-60h-60v60h60zM187 -174q66 0 97 29.5t31 115.5v559h38v-532q0 -39 -2 -64.5t-11.5 -55.5t-26.5 -47t-49 -29t-77 -12q-35 0 -57 9l8 36q21 -9 49 -9zM364 743v-60h-60v60h60z" />
    <glyph glyph-name="Jcircumflex" unicode="&#x134;" horiz-adv-x="572" 
d="M446 780h41v-580q0 -102 -60.5 -156t-176.5 -54q-115 0 -165.5 47t-56.5 118l40 6q11 -138 184 -135q194 3 194 173v581zM641 822h-38l-137 175l-137 -175h-38l153 208h44z" />
    <glyph glyph-name="jcircumflex" unicode="&#x135;" horiz-adv-x="236" 
d="M-29 -174q66 0 97 29.5t31 115.5v559h38v-532q0 -39 -2 -64.5t-11.5 -55.5t-26.5 -47t-49 -29t-77 -12q-35 0 -57 9l8 36q21 -9 49 -9zM293 592h-38l-137 175l-137 -175h-38l153 208h44z" />
    <glyph glyph-name="Kcommaaccent" unicode="&#x136;" horiz-adv-x="715" 
d="M140 780v-477l439 477h56l-328 -351l356 -429h-53l-329 401l-141 -151v-250h-40v780h40zM338 -200h-27l21 138h44z" />
    <glyph glyph-name="kcommaaccent" unicode="&#x137;" horiz-adv-x="531" 
d="M118 0h-38v800h38v-568l124 125l173 173h55l-229 -224l267 -306h-51l-242 282l-97 -96v-186zM251 -200h-27l21 138h44z" />
    <glyph glyph-name="kgreenlandic" unicode="&#x138;" horiz-adv-x="531" 
d="M118 0h-38v530h38v-298l124 125l173 173h55l-229 -224l267 -306h-51l-242 282l-97 -96v-186z" />
    <glyph glyph-name="Lacute" unicode="&#x139;" horiz-adv-x="605" 
d="M140 780v-744h440v-36h-480v780h40zM196 1030h47l-106 -208h-35z" />
    <glyph glyph-name="lacute" unicode="&#x13a;" horiz-adv-x="242" 
d="M102 0v800h38v-800h-38zM197 1030h47l-106 -208h-35z" />
    <glyph glyph-name="Lcommaaccent" unicode="&#x13b;" horiz-adv-x="605" 
d="M140 780v-744h440v-36h-480v780h40zM330 -200h-27l21 138h44z" />
    <glyph glyph-name="lcommaaccent" unicode="&#x13c;" horiz-adv-x="242" 
d="M102 0v800h38v-800h-38zM105 -200h-27l21 138h44z" />
    <glyph glyph-name="Lcaron" unicode="&#x13d;" horiz-adv-x="605" 
d="M140 780v-744h440v-36h-480v780h40zM393 592h-27l31 208h54z" />
    <glyph glyph-name="lcaron" unicode="&#x13e;" horiz-adv-x="242" 
d="M102 0v800h38v-800h-38zM245 592h-27l31 208h54z" />
    <glyph glyph-name="Ldot" unicode="&#x13f;" horiz-adv-x="605" 
d="M140 780v-744h440v-36h-480v780h40zM497 430v-60h-60v60h60z" />
    <glyph glyph-name="ldot" unicode="&#x140;" horiz-adv-x="340" 
d="M102 0v800h38v-800h-38zM321 420v-60h-60v60h60z" />
    <glyph glyph-name="Lslash" unicode="&#x141;" horiz-adv-x="611" 
d="M10 291l96 48v441h40v-421l299 151v-36l-299 -151v-287h440v-36h-480v303l-96 -48v36z" />
    <glyph glyph-name="lslash" unicode="&#x142;" horiz-adv-x="300" 
d="M35 352l96 60v388h38v-364l116 74v-36l-116 -74v-400h-38v376l-96 -60v36z" />
    <glyph glyph-name="Nacute" unicode="&#x143;" horiz-adv-x="761" 
d="M612 0l-356 544l-120 188l3 -272v-460h-39v780h49l356 -544l120 -188l-3 272v460h39v-780h-49zM456 1030h47l-106 -208h-35z" />
    <glyph glyph-name="nacute" unicode="&#x144;" horiz-adv-x="565" 
d="M104 530l13 -100q25 48 78.5 79t116.5 31q79 0 130.5 -42t51.5 -114v-384h-38v369q0 65 -42 100.5t-112 35.5q-71 0 -118.5 -41t-66.5 -91v-373h-38v422l-5 108h30zM369 800h47l-106 -208h-35z" />
    <glyph glyph-name="Ncommaaccent" unicode="&#x145;" horiz-adv-x="761" 
d="M612 0l-356 544l-120 188l3 -272v-460h-39v780h49l356 -544l120 -188l-3 272v460h39v-780h-49zM359 -200h-27l21 138h44z" />
    <glyph glyph-name="ncommaaccent" unicode="&#x146;" horiz-adv-x="565" 
d="M104 530l13 -100q25 48 78.5 79t116.5 31q79 0 130.5 -42t51.5 -114v-384h-38v369q0 65 -42 100.5t-112 35.5q-71 0 -118.5 -41t-66.5 -91v-373h-38v422l-5 108h30zM273 -200h-27l21 138h44z" />
    <glyph glyph-name="Ncaron" unicode="&#x147;" horiz-adv-x="761" 
d="M612 0l-356 544l-120 188l3 -272v-460h-39v780h49l356 -544l120 -188l-3 272v460h39v-780h-49zM205 1030h38l137 -175l137 175h38l-153 -208h-44z" />
    <glyph glyph-name="ncaron" unicode="&#x148;" horiz-adv-x="565" 
d="M104 530l13 -100q25 48 78.5 79t116.5 31q79 0 130.5 -42t51.5 -114v-384h-38v369q0 65 -42 100.5t-112 35.5q-71 0 -118.5 -41t-66.5 -91v-373h-38v422l-5 108h30zM118 800h38l137 -175l137 175h38l-153 -208h-44z" />
    <glyph glyph-name="Eng" unicode="&#x14a;" horiz-adv-x="761" 
d="M494 -174q66 0 97 29.5t31 115.5v14l-366 559l-120 188l3 -272v-460h-39v780h49l356 -544l120 -188l-3 272v460h39v-782q0 -39 -2 -64.5t-11.5 -55.5t-26.5 -47t-49 -29t-77 -12q-36 0 -58 9l8 36q21 -9 49 -9z" />
    <glyph glyph-name="eng" unicode="&#x14b;" horiz-adv-x="565" 
d="M328 -174q66 0 97 29.5t31 115.5v398q0 65 -42 100.5t-112 35.5q-71 0 -118.5 -41t-66.5 -91v-373h-38v422l-5 108h30l13 -100q25 48 78.5 79t116.5 31q79 0 130.5 -42t51.5 -114v-386q0 -39 -2 -64.5t-11.5 -55.5t-26.5 -47t-49 -29t-77 -12q-35 0 -57 9l8 36
q21 -9 49 -9z" />
    <glyph glyph-name="Omacron" unicode="&#x14c;" horiz-adv-x="800" 
d="M400 -10q-171 0 -250.5 107.5t-79.5 292.5t79.5 292.5t250.5 107.5t250.5 -107.5t79.5 -292.5t-79.5 -292.5t-250.5 -107.5zM400 754q-79 0 -136 -27.5t-89.5 -78.5t-47.5 -114.5t-15 -143.5t15 -143.5t47.5 -114.5t89.5 -78.5t136 -27.5t136 27.5t89.5 78.5t47.5 114.5
t15 143.5t-15 143.5t-47.5 114.5t-89.5 78.5t-136 27.5zM264 927v32h272v-32h-272z" />
    <glyph glyph-name="omacron" unicode="&#x14d;" horiz-adv-x="592" 
d="M296 505q-93 0 -143.5 -63t-50.5 -177t50.5 -177t143.5 -63t143.5 63t50.5 177t-50.5 177t-143.5 63zM296 -10q-112 0 -174 72.5t-62 202.5t62 202.5t174 72.5t174 -72.5t62 -202.5t-62 -202.5t-174 -72.5zM160 697v32h272v-32h-272z" />
    <glyph glyph-name="Obreve" unicode="&#x14e;" horiz-adv-x="800" 
d="M400 -10q-171 0 -250.5 107.5t-79.5 292.5t79.5 292.5t250.5 107.5t250.5 -107.5t79.5 -292.5t-79.5 -292.5t-250.5 -107.5zM400 754q-79 0 -136 -27.5t-89.5 -78.5t-47.5 -114.5t-15 -143.5t15 -143.5t47.5 -114.5t89.5 -78.5t136 -27.5t136 27.5t89.5 78.5t47.5 114.5
t15 143.5t-15 143.5t-47.5 114.5t-89.5 78.5t-136 27.5zM548 1030h30q0 -99 -41 -148.5t-137 -49.5t-137 49.5t-41 148.5h30q0 -89 35 -128t113 -39t113 39t35 128z" />
    <glyph glyph-name="obreve" unicode="&#x14f;" horiz-adv-x="592" 
d="M296 505q-93 0 -143.5 -63t-50.5 -177t50.5 -177t143.5 -63t143.5 63t50.5 177t-50.5 177t-143.5 63zM296 -10q-112 0 -174 72.5t-62 202.5t62 202.5t174 72.5t174 -72.5t62 -202.5t-62 -202.5t-174 -72.5zM444 800h30q0 -99 -41 -148.5t-137 -49.5t-137 49.5t-41 148.5
h30q0 -89 35 -128t113 -39t113 39t35 128z" />
    <glyph glyph-name="Ohungarumlaut" unicode="&#x150;" horiz-adv-x="800" 
d="M400 -10q-171 0 -250.5 107.5t-79.5 292.5t79.5 292.5t250.5 107.5t250.5 -107.5t79.5 -292.5t-79.5 -292.5t-250.5 -107.5zM400 754q-79 0 -136 -27.5t-89.5 -78.5t-47.5 -114.5t-15 -143.5t15 -143.5t47.5 -114.5t89.5 -78.5t136 -27.5t136 27.5t89.5 78.5t47.5 114.5
t15 143.5t-15 143.5t-47.5 114.5t-89.5 78.5t-136 27.5zM399 1030h47l-106 -208h-35zM539 1030h47l-106 -208h-35z" />
    <glyph glyph-name="ohungarumlaut" unicode="&#x151;" horiz-adv-x="592" 
d="M296 -10q-112 0 -174 72.5t-62 202.5t62 202.5t174 72.5t174 -72.5t62 -202.5t-62 -202.5t-174 -72.5zM296 505q-93 0 -143.5 -63t-50.5 -177t50.5 -177t143.5 -63t143.5 63t50.5 177t-50.5 177t-143.5 63zM295 800h47l-106 -208h-35zM435 800h47l-106 -208h-35z" />
    <glyph glyph-name="OE" unicode="&#x152;" horiz-adv-x="1110" 
d="M70 390q0 112 22.5 188.5t69.5 120.5t109.5 62.5t151.5 18.5h587v-36h-420v-326h380v-36h-380v-346h440v-36h-607q-89 0 -151.5 18.5t-109.5 62.5t-69.5 120.5t-22.5 188.5zM550 744h-138q-162 0 -231 -78t-69 -276t69 -276t231 -78h138v708z" />
    <glyph glyph-name="oe" unicode="&#x153;" horiz-adv-x="1009" 
d="M296 505q-93 0 -143.5 -63t-50.5 -177t50.5 -177t143.5 -63t143.5 63t50.5 177t-50.5 177t-143.5 63zM726 505q-81 0 -134.5 -59.5t-59.5 -159.5h369q-2 107 -42 163t-133 56zM944 251h-412q4 -103 57.5 -164.5t136.5 -61.5q144 0 167 108l42 -6q-12 -64 -65.5 -100.5
t-143.5 -36.5q-75 0 -131 39t-83 109q-25 -72 -80 -110t-136 -38q-112 0 -174 72.5t-62 202.5t62 202.5t174 72.5q80 0 135.5 -38.5t80.5 -109.5q27 70 83 109t131 39q117 0 167.5 -71t50.5 -203v-15z" />
    <glyph glyph-name="Racute" unicode="&#x154;" horiz-adv-x="710" 
d="M614 0l-209 348h-265v-348h-40v780h321q43 0 76 -8t66 -29.5t50.5 -66.5t17.5 -112q0 -61 -14.5 -103.5t-41.5 -65.5t-56.5 -33.5t-67.5 -12.5l212 -349h-49zM140 744v-360h294q32 0 56.5 6.5t49 24t38 55.5t13.5 94t-13.5 94t-38 55.5t-49 24t-56.5 6.5h-294zM422 1030
h47l-106 -208h-35z" />
    <glyph glyph-name="racute" unicode="&#x155;" horiz-adv-x="375" 
d="M307 540q27 0 44 -4l-5 -40q-25 5 -39 5q-82 0 -135 -51.5t-55 -112.5v-337h-38v422l-5 108h30l14 -110q25 55 78.5 87.5t110.5 32.5zM286 800h47l-106 -208h-35z" />
    <glyph glyph-name="Rcommaaccent" unicode="&#x156;" horiz-adv-x="710" 
d="M614 0l-209 348h-265v-348h-40v780h321q43 0 76 -8t66 -29.5t50.5 -66.5t17.5 -112q0 -61 -14.5 -103.5t-41.5 -65.5t-56.5 -33.5t-67.5 -12.5l212 -349h-49zM140 744v-360h294q32 0 56.5 6.5t49 24t38 55.5t13.5 94t-13.5 94t-38 55.5t-49 24t-56.5 6.5h-294zM344 -200
h-27l21 138h44z" />
    <glyph glyph-name="rcommaaccent" unicode="&#x157;" horiz-adv-x="375" 
d="M307 540q27 0 44 -4l-5 -40q-25 5 -39 5q-82 0 -135 -51.5t-55 -112.5v-337h-38v422l-5 108h30l14 -110q25 55 78.5 87.5t110.5 32.5zM82 -200h-27l21 138h44z" />
    <glyph glyph-name="Rcaron" unicode="&#x158;" horiz-adv-x="710" 
d="M614 0l-209 348h-265v-348h-40v780h321q43 0 76 -8t66 -29.5t50.5 -66.5t17.5 -112q0 -61 -14.5 -103.5t-41.5 -65.5t-56.5 -33.5t-67.5 -12.5l212 -349h-49zM140 744v-360h294q32 0 56.5 6.5t49 24t38 55.5t13.5 94t-13.5 94t-38 55.5t-49 24t-56.5 6.5h-294zM171 1030
h38l137 -175l137 175h38l-153 -208h-44z" />
    <glyph glyph-name="rcaron" unicode="&#x159;" horiz-adv-x="375" 
d="M307 540q27 0 44 -4l-5 -40q-25 5 -39 5q-82 0 -135 -51.5t-55 -112.5v-337h-38v422l-5 108h30l14 -110q25 55 78.5 87.5t110.5 32.5zM35 800h38l137 -175l137 175h38l-153 -208h-44z" />
    <glyph glyph-name="Sacute" unicode="&#x15a;" horiz-adv-x="710" 
d="M353 -10q-145 0 -209.5 48.5t-76.5 138.5l41 6q11 -81 64.5 -119t180.5 -38q44 0 84.5 9t78 28.5t60 56.5t22.5 88q0 91 -47.5 130t-188.5 54q-56 6 -92.5 13t-73 20t-57 33t-33 51t-12.5 74q0 105 74.5 156t185.5 51q138 0 203 -46.5t76 -133.5l-41 -6q-11 76 -67 113
t-171 37q-34 0 -67 -6.5t-69.5 -23t-59 -53t-22.5 -88.5q0 -77 46.5 -108.5t182.5 -45.5q76 -8 124 -21t83.5 -37.5t51 -64t15.5 -98.5q0 -109 -82 -163.5t-204 -54.5zM439 1030h47l-106 -208h-35z" />
    <glyph glyph-name="sacute" unicode="&#x15b;" horiz-adv-x="534" 
d="M264 505q-60 0 -107.5 -28.5t-47.5 -88.5q0 -19 3.5 -32.5t14.5 -23t21 -15.5t34 -10.5t40.5 -7t53.5 -6.5q38 -4 60 -7.5t54.5 -13.5t50 -24t31 -39t13.5 -59q0 -81 -62 -120.5t-162 -39.5q-90 0 -143.5 36.5t-65.5 100.5l42 6q23 -108 166 -108q82 0 132.5 30t50.5 94
q0 22 -5.5 38.5t-20 27.5t-27.5 18.5t-39 12.5t-43.5 7t-51.5 6q-33 3 -53 6.5t-49 12t-45 21t-28 35t-12 53.5q0 76 56 114.5t140 38.5q90 0 143.5 -36.5t65.5 -100.5l-42 -6q-23 108 -168 108zM343 800h47l-106 -208h-35z" />
    <glyph glyph-name="Scircumflex" unicode="&#x15c;" horiz-adv-x="710" 
d="M353 -10q-145 0 -209.5 48.5t-76.5 138.5l41 6q11 -81 64.5 -119t180.5 -38q44 0 84.5 9t78 28.5t60 56.5t22.5 88q0 91 -47.5 130t-188.5 54q-56 6 -92.5 13t-73 20t-57 33t-33 51t-12.5 74q0 105 74.5 156t185.5 51q138 0 203 -46.5t76 -133.5l-41 -6q-11 76 -67 113
t-171 37q-34 0 -67 -6.5t-69.5 -23t-59 -53t-22.5 -88.5q0 -77 46.5 -108.5t182.5 -45.5q76 -8 124 -21t83.5 -37.5t51 -64t15.5 -98.5q0 -109 -82 -163.5t-204 -54.5zM538 822h-38l-137 175l-137 -175h-38l153 208h44z" />
    <glyph glyph-name="scircumflex" unicode="&#x15d;" horiz-adv-x="534" 
d="M264 505q-60 0 -107.5 -28.5t-47.5 -88.5q0 -19 3.5 -32.5t14.5 -23t21 -15.5t34 -10.5t40.5 -7t53.5 -6.5q38 -4 60 -7.5t54.5 -13.5t50 -24t31 -39t13.5 -59q0 -81 -62 -120.5t-162 -39.5q-90 0 -143.5 36.5t-65.5 100.5l42 6q23 -108 166 -108q82 0 132.5 30t50.5 94
q0 22 -5.5 38.5t-20 27.5t-27.5 18.5t-39 12.5t-43.5 7t-51.5 6q-33 3 -53 6.5t-49 12t-45 21t-28 35t-12 53.5q0 76 56 114.5t140 38.5q90 0 143.5 -36.5t65.5 -100.5l-42 -6q-23 108 -168 108zM442 592h-38l-137 175l-137 -175h-38l153 208h44z" />
    <glyph glyph-name="Scedilla" unicode="&#x15e;" horiz-adv-x="710" 
d="M639 208q0 -107 -78.5 -161.5t-197.5 -56.5l-9 -32q108 -16 108 -86q0 -41 -30 -61.5t-79 -20.5t-79 17l10 29q27 -15 61 -16q82 -2 82 51q0 22 -17 35t-36 17.5t-46 7.5q-8 1 -11 1l19 58q-136 3 -197 51t-72 136l41 6q11 -81 64.5 -119t180.5 -38q44 0 84.5 9t78 28.5
t60 56.5t22.5 88q0 91 -47.5 130t-188.5 54q-56 6 -92.5 13t-73 20t-57 33t-33 51t-12.5 74q0 105 74.5 156t185.5 51q138 0 203 -46.5t76 -133.5l-41 -6q-11 76 -67 113t-171 37q-34 0 -67 -6.5t-69.5 -23t-59 -53t-22.5 -88.5q0 -77 46.5 -108.5t182.5 -45.5
q76 -8 124 -21t83.5 -37.5t51 -64t15.5 -98.5z" />
    <glyph glyph-name="scedilla" unicode="&#x15f;" horiz-adv-x="534" 
d="M264 505q-60 0 -107.5 -28.5t-47.5 -88.5q0 -19 3.5 -32.5t14.5 -23t21 -15.5t34 -10.5t40.5 -7t53.5 -6.5q38 -4 60 -7.5t54.5 -13.5t50 -24t31 -39t13.5 -59q0 -78 -59 -118t-155 -42l-9 -32q108 -16 108 -86q0 -41 -30 -61.5t-79 -20.5t-79 17l10 29q27 -15 61 -16
q82 -2 82 51q0 22 -17 35t-36 17.5t-46 7.5q-8 1 -11 1l19 59q-83 4 -131.5 40t-60.5 96l42 6q23 -108 166 -108q82 0 132.5 30t50.5 94q0 22 -5.5 38.5t-20 27.5t-27.5 18.5t-39 12.5t-43.5 7t-51.5 6q-33 3 -53 6.5t-49 12t-45 21t-28 35t-12 53.5q0 76 56 114.5t140 38.5
q90 0 143.5 -36.5t65.5 -100.5l-42 -6q-23 108 -168 108z" />
    <glyph glyph-name="Scaron" unicode="&#x160;" horiz-adv-x="710" 
d="M353 -10q-145 0 -209.5 48.5t-76.5 138.5l41 6q11 -81 64.5 -119t180.5 -38q44 0 84.5 9t78 28.5t60 56.5t22.5 88q0 91 -47.5 130t-188.5 54q-56 6 -92.5 13t-73 20t-57 33t-33 51t-12.5 74q0 105 74.5 156t185.5 51q138 0 203 -46.5t76 -133.5l-41 -6q-11 76 -67 113
t-171 37q-34 0 -67 -6.5t-69.5 -23t-59 -53t-22.5 -88.5q0 -77 46.5 -108.5t182.5 -45.5q76 -8 124 -21t83.5 -37.5t51 -64t15.5 -98.5q0 -109 -82 -163.5t-204 -54.5zM188 1030h38l137 -175l137 175h38l-153 -208h-44z" />
    <glyph glyph-name="scaron" unicode="&#x161;" horiz-adv-x="534" 
d="M264 505q-60 0 -107.5 -28.5t-47.5 -88.5q0 -19 3.5 -32.5t14.5 -23t21 -15.5t34 -10.5t40.5 -7t53.5 -6.5q38 -4 60 -7.5t54.5 -13.5t50 -24t31 -39t13.5 -59q0 -81 -62 -120.5t-162 -39.5q-90 0 -143.5 36.5t-65.5 100.5l42 6q23 -108 166 -108q82 0 132.5 30t50.5 94
q0 22 -5.5 38.5t-20 27.5t-27.5 18.5t-39 12.5t-43.5 7t-51.5 6q-33 3 -53 6.5t-49 12t-45 21t-28 35t-12 53.5q0 76 56 114.5t140 38.5q90 0 143.5 -36.5t65.5 -100.5l-42 -6q-23 108 -168 108zM92 800h38l137 -175l137 175h38l-153 -208h-44z" />
    <glyph glyph-name="Tcedilla" unicode="&#x162;" horiz-adv-x="640" 
d="M340 744v-744h-40v744h-265v36h570v-36h-265zM282 -68l10 29q135 -10 135 -89q0 -41 -30 -61.5t-79 -20.5t-79 17l10 29q27 -15 61 -16q82 -2 82 51q0 22 -17 35t-36 17.5t-46 7.5q-8 1 -11 1z" />
    <glyph glyph-name="tcedilla" unicode="&#x163;" horiz-adv-x="400" 
d="M304 26q28 0 49 9l8 -36q-22 -9 -57 -9q-45 0 -77 12t-49 29t-26.5 47t-11.5 55.5t-2 64.5v298h-106v34h106v140l38 13v-153h173v-34h-173v-325q0 -86 31 -115.5t97 -29.5zM182 -68l10 29q135 -10 135 -89q0 -41 -30 -61.5t-79 -20.5t-79 17l10 29q27 -15 61 -16
q82 -2 82 51q0 22 -17 35t-36 17.5t-46 7.5q-8 1 -11 1z" />
    <glyph glyph-name="Tcaron" unicode="&#x164;" horiz-adv-x="640" 
d="M340 744v-744h-40v744h-265v36h570v-36h-265zM145 1030h38l137 -175l137 175h38l-153 -208h-44z" />
    <glyph glyph-name="tcaron" unicode="&#x165;" horiz-adv-x="400" 
d="M304 26q28 0 49 9l8 -36q-22 -9 -57 -9q-45 0 -77 12t-49 29t-26.5 47t-11.5 55.5t-2 64.5v298h-106v34h106v140l38 13v-153h173v-34h-173v-325q0 -86 31 -115.5t97 -29.5zM278 592h-27l31 208h54z" />
    <glyph glyph-name="Tbar" unicode="&#x166;" horiz-adv-x="640" 
d="M474 382h-134v-382h-40v382h-135v36h135v326h-265v36h570v-36h-265v-326h134v-36z" />
    <glyph glyph-name="tbar" unicode="&#x167;" horiz-adv-x="400" 
d="M304 26q28 0 49 9l8 -36q-22 -9 -57 -9q-45 0 -77 12t-49 29t-26.5 47t-11.5 55.5t-2 64.5v115h-106v34h106v149h-106v34h106v140l38 13v-153h173v-34h-173v-149h161v-34h-161v-142q0 -86 31 -115.5t97 -29.5z" />
    <glyph glyph-name="Utilde" unicode="&#x168;" horiz-adv-x="784" 
d="M392 -10q-165 0 -236 69t-71 200v521h41v-528q0 -109 60 -167t206 -58t206 58t60 167v528h41v-521q0 -131 -71 -200t-236 -69zM549 970l28 -5q-5 -41 -35.5 -66t-70.5 -23t-87 36t-76 36q-30 2 -51 -14t-26 -49l-28 5q5 41 35.5 66t70.5 23t87 -36t76 -36q30 -2 51 14
t26 49z" />
    <glyph glyph-name="utilde" unicode="&#x169;" horiz-adv-x="565" 
d="M461 0l-13 100q-25 -48 -78.5 -79t-116.5 -31q-79 0 -130.5 42t-51.5 114v384h38v-369q0 -65 42 -100.5t112 -35.5q71 0 118.5 41t66.5 91v373h38v-422l5 -108h-30zM434 740l28 -5q-5 -41 -35.5 -66t-70.5 -23t-87 36t-76 36q-30 2 -51 -14t-26 -49l-28 5q5 41 35.5 66
t70.5 23t87 -36t76 -36q30 -2 51 14t26 49z" />
    <glyph glyph-name="Umacron" unicode="&#x16a;" horiz-adv-x="784" 
d="M256 927v32h272v-32h-272zM392 -10q-165 0 -236 69t-71 200v521h41v-528q0 -109 60 -167t206 -58t206 58t60 167v528h41v-521q0 -131 -71 -200t-236 -69z" />
    <glyph glyph-name="umacron" unicode="&#x16b;" horiz-adv-x="565" 
d="M461 0l-13 100q-25 -48 -78.5 -79t-116.5 -31q-79 0 -130.5 42t-51.5 114v384h38v-369q0 -65 42 -100.5t112 -35.5q71 0 118.5 41t66.5 91v373h38v-422l5 -108h-30zM143 697v32h272v-32h-272z" />
    <glyph glyph-name="Ubreve" unicode="&#x16c;" horiz-adv-x="784" 
d="M540 1030h30q0 -99 -41 -148.5t-137 -49.5t-137 49.5t-41 148.5h30q0 -89 35 -128t113 -39t113 39t35 128zM392 -10q-165 0 -236 69t-71 200v521h41v-528q0 -109 60 -167t206 -58t206 58t60 167v528h41v-521q0 -131 -71 -200t-236 -69z" />
    <glyph glyph-name="ubreve" unicode="&#x16d;" horiz-adv-x="565" 
d="M461 0l-13 100q-25 -48 -78.5 -79t-116.5 -31q-79 0 -130.5 42t-51.5 114v384h38v-369q0 -65 42 -100.5t112 -35.5q71 0 118.5 41t66.5 91v373h38v-422l5 -108h-30zM427 800h30q0 -99 -41 -148.5t-137 -49.5t-137 49.5t-41 148.5h30q0 -89 35 -128t113 -39t113 39t35 128
z" />
    <glyph glyph-name="Uring" unicode="&#x16e;" horiz-adv-x="784" 
d="M278 926q0 51 30.5 82.5t83.5 31.5t83.5 -31.5t30.5 -82.5t-30.5 -82.5t-83.5 -31.5t-83.5 31.5t-30.5 82.5zM475 926q0 40 -21.5 63t-61.5 23t-61.5 -23t-21.5 -63t21.5 -63t61.5 -23t61.5 23t21.5 63zM392 -10q-165 0 -236 69t-71 200v521h41v-528q0 -109 60 -167
t206 -58t206 58t60 167v528h41v-521q0 -131 -71 -200t-236 -69z" />
    <glyph glyph-name="uring" unicode="&#x16f;" horiz-adv-x="565" 
d="M461 0l-13 100q-25 -48 -78.5 -79t-116.5 -31q-79 0 -130.5 42t-51.5 114v384h38v-369q0 -65 42 -100.5t112 -35.5q71 0 118.5 41t66.5 91v373h38v-422l5 -108h-30zM165 696q0 51 30.5 82.5t83.5 31.5t83.5 -31.5t30.5 -82.5t-30.5 -82.5t-83.5 -31.5t-83.5 31.5
t-30.5 82.5zM362 696q0 40 -21.5 63t-61.5 23t-61.5 -23t-21.5 -63t21.5 -63t61.5 -23t61.5 23t21.5 63z" />
    <glyph glyph-name="Uhungarumlaut" unicode="&#x170;" horiz-adv-x="784" 
d="M531 1030h47l-106 -208h-35zM391 1030h47l-106 -208h-35zM392 -10q-165 0 -236 69t-71 200v521h41v-528q0 -109 60 -167t206 -58t206 58t60 167v528h41v-521q0 -131 -71 -200t-236 -69z" />
    <glyph glyph-name="uhungarumlaut" unicode="&#x171;" horiz-adv-x="565" 
d="M461 0l-13 100q-25 -48 -78.5 -79t-116.5 -31q-79 0 -130.5 42t-51.5 114v384h38v-369q0 -65 42 -100.5t112 -35.5q71 0 118.5 41t66.5 91v373h38v-422l5 -108h-30zM418 800h47l-106 -208h-35zM278 800h47l-106 -208h-35z" />
    <glyph glyph-name="Uogonek" unicode="&#x172;" horiz-adv-x="784" 
d="M392 -10q-165 0 -236 69t-71 200v521h41v-528q0 -109 60 -167t206 -58t206 58t60 167v528h41v-521q0 -208 -179 -255q-56 -15 -100.5 -45.5t-44.5 -77.5q0 -34 19 -48t56 -13q20 0 40.5 6.5t31.5 12.5l10 6l10 -26q-43 -29 -102 -29q-43 0 -71.5 21.5t-28.5 65.5
q0 68 75 114q-7 -1 -23 -1z" />
    <glyph glyph-name="uogonek" unicode="&#x173;" horiz-adv-x="565" 
d="M486 108l5 -108q-56 -9 -105 -40.5t-49 -78.5q0 -34 19 -48t56 -13q20 0 40.5 6.5t31.5 12.5l10 6l10 -26q-43 -29 -102 -29q-43 0 -71.5 21.5t-28.5 65.5q0 51 43 88t113 54l-10 81q-25 -48 -78.5 -79t-116.5 -31q-79 0 -130.5 42t-51.5 114v384h38v-369
q0 -65 42 -100.5t112 -35.5q71 0 118.5 41t66.5 91v373h38v-422z" />
    <glyph glyph-name="Wcircumflex" unicode="&#x174;" horiz-adv-x="950" 
d="M455 780h40l156 -508l60 -201l41 208l101 501h42l-163 -790h-35l-164 534l-58 195l-58 -195l-164 -534h-35l-163 790h42l101 -501l41 -208l60 201zM650 822h-38l-137 175l-137 -175h-38l153 208h44z" />
    <glyph glyph-name="wcircumflex" unicode="&#x175;" horiz-adv-x="776" 
d="M249 199l116 331h46l116 -331l52 -156l33 159v-1l71 329h41l-121 -540h-43l-123 352l-49 148l-49 -148l-123 -352h-43l-121 540h41l71 -329v1l33 -159zM563 592h-38l-137 175l-137 -175h-38l153 208h44z" />
    <glyph glyph-name="Ycircumflex" unicode="&#x176;" horiz-adv-x="670" 
d="M20 780h49l164 -262l102 -164l102 164l164 262h49l-295 -463v-317h-40v317zM510 822h-38l-137 175l-137 -175h-38l153 208h44z" />
    <glyph glyph-name="ycircumflex" unicode="&#x177;" horiz-adv-x="512" 
d="M484 530l-197 -483l-99 -247h-43l91 220l-208 510h45l113 -284l70 -183l70 183l114 284h44zM431 592h-38l-137 175l-137 -175h-38l153 208h44z" />
    <glyph glyph-name="Ydieresis" unicode="&#x178;" horiz-adv-x="670" 
d="M20 780h49l164 -262l102 -164l102 164l164 262h49l-295 -463v-317h-40v317zM461 973v-60h-60v60h60zM270 973v-60h-60v60h60z" />
    <glyph glyph-name="Zacute" unicode="&#x179;" horiz-adv-x="710" 
d="M658 754l-458 -599l-94 -121l199 1h345v-35h-595v26l458 599l94 121l-199 -1h-325v35h575v-26zM436 1030h47l-106 -208h-35z" />
    <glyph glyph-name="zacute" unicode="&#x17a;" horiz-adv-x="532" 
d="M55 0v30l263 339l100 128l-165 -1h-179v34h391v-30l-263 -339l-100 -128l165 1h209v-34h-421zM332 800h47l-106 -208h-35z" />
    <glyph glyph-name="Zdotaccent" unicode="&#x17b;" horiz-adv-x="710" 
d="M658 754l-458 -599l-94 -121l199 1h345v-35h-595v26l458 599l94 121l-199 -1h-325v35h575v-26zM390 973v-60h-60v60h60z" />
    <glyph glyph-name="zdotaccent" unicode="&#x17c;" horiz-adv-x="532" 
d="M55 0v30l263 339l100 128l-165 -1h-179v34h391v-30l-263 -339l-100 -128l165 1h209v-34h-421zM296 743v-60h-60v60h60z" />
    <glyph glyph-name="Zcaron" unicode="&#x17d;" horiz-adv-x="710" 
d="M658 754l-458 -599l-94 -121l199 1h345v-35h-595v26l458 599l94 121l-199 -1h-325v35h575v-26zM185 1030h38l137 -175l137 175h38l-153 -208h-44z" />
    <glyph glyph-name="zcaron" unicode="&#x17e;" horiz-adv-x="532" 
d="M55 0v30l263 339l100 128l-165 -1h-179v34h391v-30l-263 -339l-100 -128l165 1h209v-34h-421zM91 800h38l137 -175l137 175h38l-153 -208h-44z" />
    <glyph glyph-name="florin" unicode="&#x192;" horiz-adv-x="400" 
d="M147 383h-124v34h124v149q0 39 2 64.5t11.5 55.5t26.5 47t49 29t77 12q35 0 57 -9l-8 -36q-21 9 -49 9q-66 0 -97 -29.5t-31 -115.5v-176h163v-34h-163v-385q0 -39 -2 -64.5t-11.5 -55.5t-26.5 -47t-49 -29t-77 -12q-35 0 -57 9l8 36q21 -9 49 -9q66 0 97 29.5t31 115.5
v412z" />
    <glyph glyph-name="Khook" unicode="&#x198;" horiz-adv-x="700" 
d="M140 0h-40v780h40v-446q52 21 95.5 51t70.5 55.5t54.5 65.5t39 61t32.5 62q17 34 27 52t28 42.5t35 36.5t42.5 21t56.5 9q28 0 42 -4l-5 -37q-18 5 -37 5q-30 0 -52 -9.5t-41.5 -34t-30.5 -42.5t-32 -59q-3 -6 -16.5 -32.5t-21 -40t-23 -37.5t-35 -46.5t-44.5 -45.5
l338 -407h-53l-313 381q-6 -4 -8 -6q-56 -46 -149 -83v-292z" />
    <glyph glyph-name="khook" unicode="&#x199;" horiz-adv-x="531" 
d="M80 0v602q0 39 2 64.5t11.5 55.5t26.5 47t49 29t77 12q35 0 57 -9l-8 -36q-21 9 -49 9q-66 0 -97 -29.5t-31 -115.5v-397l124 125l173 173h55l-229 -224l267 -306h-51l-242 282l-97 -96v-186h-38z" />
    <glyph glyph-name="Yogh" unicode="&#x1b7;" horiz-adv-x="710" 
d="M341 -174q131 2 206.5 67.5t75.5 194.5q0 140 -70 201t-210 61q-14 0 -29 -2.5t-23 -5.5l-8 -2l-17 21l200 251l108 134l-188 -1h-300v35h532v-33l-288 -363q71 3 129 -10.5t105.5 -46t74 -93.5t26.5 -146q0 -143 -90 -220.5t-234 -77.5q-135 0 -206.5 55t-85.5 149l42 6
q12 -84 74.5 -129.5t175.5 -44.5z" />
    <glyph glyph-name="doublebar" unicode="&#x1c1;" horiz-adv-x="330" 
d="M145 830v-960h-40v960h40zM225 830v-960h-40v960h40z" />
    <glyph glyph-name="Acaron" unicode="&#x1cd;" horiz-adv-x="740" 
d="M647 0l-99 265h-356l-99 -265h-44l300 790h42l300 -790h-44zM370 744l-85 -231l-80 -212h329l-79 212zM195 1030h38l137 -175l137 175h38l-153 -208h-44z" />
    <glyph glyph-name="acaron" unicode="&#x1ce;" horiz-adv-x="561" 
d="M62 138q0 73 49 110t141 51l192 29v42q0 74 -40.5 104.5t-122.5 32.5q-131 3 -152 -101l-40 5q28 129 192 129q97 0 149 -43.5t52 -130.5v-258l5 -108h-30l-13 100q-30 -56 -88.5 -83t-122.5 -27q-83 0 -127 40.5t-44 107.5zM103 138q0 -55 33.5 -84t96.5 -29
q159 0 211 133v137l-197 -31q-70 -11 -107 -38t-37 -88zM106 800h38l137 -175l137 175h38l-153 -208h-44z" />
    <glyph glyph-name="Icaron" unicode="&#x1cf;" horiz-adv-x="280" 
d="M160 780v-780h-40v780h40zM-35 1030h38l137 -175l137 175h38l-153 -208h-44z" />
    <glyph glyph-name="icaron" unicode="&#x1d0;" horiz-adv-x="236" 
d="M99 0v530h38v-530h-38zM-57 800h38l137 -175l137 175h38l-153 -208h-44z" />
    <glyph glyph-name="Ocaron" unicode="&#x1d1;" horiz-adv-x="800" 
d="M400 -10q-171 0 -250.5 107.5t-79.5 292.5t79.5 292.5t250.5 107.5t250.5 -107.5t79.5 -292.5t-79.5 -292.5t-250.5 -107.5zM400 754q-79 0 -136 -27.5t-89.5 -78.5t-47.5 -114.5t-15 -143.5t15 -143.5t47.5 -114.5t89.5 -78.5t136 -27.5t136 27.5t89.5 78.5t47.5 114.5
t15 143.5t-15 143.5t-47.5 114.5t-89.5 78.5t-136 27.5zM225 1030h38l137 -175l137 175h38l-153 -208h-44z" />
    <glyph glyph-name="ocaron" unicode="&#x1d2;" horiz-adv-x="592" 
d="M296 505q-93 0 -143.5 -63t-50.5 -177t50.5 -177t143.5 -63t143.5 63t50.5 177t-50.5 177t-143.5 63zM296 -10q-112 0 -174 72.5t-62 202.5t62 202.5t174 72.5t174 -72.5t62 -202.5t-62 -202.5t-174 -72.5zM121 800h38l137 -175l137 175h38l-153 -208h-44z" />
    <glyph glyph-name="Ucaron" unicode="&#x1d3;" horiz-adv-x="784" 
d="M217 1030h38l137 -175l137 175h38l-153 -208h-44zM392 -10q-165 0 -236 69t-71 200v521h41v-528q0 -109 60 -167t206 -58t206 58t60 167v528h41v-521q0 -131 -71 -200t-236 -69z" />
    <glyph glyph-name="ucaron" unicode="&#x1d4;" horiz-adv-x="565" 
d="M461 0l-13 100q-25 -48 -78.5 -79t-116.5 -31q-79 0 -130.5 42t-51.5 114v384h38v-369q0 -65 42 -100.5t112 -35.5q71 0 118.5 41t66.5 91v373h38v-422l5 -108h-30zM104 800h38l137 -175l137 175h38l-153 -208h-44z" />
    <glyph glyph-name="AEmacron" unicode="&#x1e2;" horiz-adv-x="1075" 
d="M371 927v32h272v-32h-272zM604 0l-74 382h-252l-201 -382h-45l415 780h533v-36h-480l63 -326h377v-36h-370l67 -346h363v-36h-396zM463 734l-166 -316h226l-30 155z" />
    <glyph glyph-name="aemacron" unicode="&#x1e3;" horiz-adv-x="963" 
d="M898 251h-413q4 -103 58 -164.5t137 -61.5q144 0 167 108l42 -6q-12 -64 -65.5 -100.5t-143.5 -36.5q-73 0 -127 35.5t-82 100.5q-80 -136 -238 -136q-83 0 -127 40.5t-44 107.5q0 75 50 111t140 36h192v85q0 74 -40.5 104.5t-122.5 32.5q-131 3 -152 -101l-40 5
q28 129 192 129q166 0 195 -126q26 59 80 92.5t124 33.5q117 0 167.5 -71t50.5 -203v-15zM680 505q-83 0 -139 -61t-56 -159h370q-2 108 -42 164t-133 56zM103 138q0 -55 33.5 -84t96.5 -29q163 0 220 151q-7 30 -9 75h-197q-144 0 -144 -113zM332 697v32h272v-32h-272z" />
    <glyph glyph-name="Gstroke" unicode="&#x1e4;" horiz-adv-x="805" 
d="M400 26q164 -3 254 70v102h-254v35h254v121h-200v36h240v-157h106v-35h-106v-120q-116 -90 -294 -88q-167 0 -248.5 105t-81.5 295t81.5 295t248.5 105q252 0 292 -204l-42 -6q-32 177 -250 174q-288 -4 -288 -364t288 -364z" />
    <glyph glyph-name="gstroke" unicode="&#x1e5;" horiz-adv-x="590" 
d="M580 -69h-73q-13 -68 -72 -104.5t-154 -36.5q-100 0 -145.5 38t-59.5 101l40 5q24 -112 165 -112q75 0 125.5 26.5t62.5 82.5h-189v34h193v150q-26 -50 -81 -77.5t-114 -27.5q-104 0 -162.5 70.5t-58.5 194.5t58.5 194.5t162.5 70.5q58 0 113 -29.5t82 -80.5l13 100h30
l-5 -108v-457h69v-34zM473 173v199q-19 52 -67 92.5t-126 40.5q-85 0 -133 -60.5t-48 -169.5t48 -169.5t133 -60.5q79 0 126.5 39t66.5 89z" />
    <glyph glyph-name="Gcaron" unicode="&#x1e6;" horiz-adv-x="789" 
d="M400 26q164 -3 254 70v258h-200v36h240v-312q-116 -90 -294 -88q-167 0 -248.5 105t-81.5 295t81.5 295t248.5 105q252 0 292 -204l-42 -6q-32 177 -250 174q-288 -4 -288 -364t288 -364zM225 1030h38l137 -175l137 175h38l-153 -208h-44z" />
    <glyph glyph-name="gcaron" unicode="&#x1e7;" horiz-adv-x="590" 
d="M108 800h38l137 -175l137 175h38l-153 -208h-44zM511 422v-452q0 -87 -61 -133.5t-169 -46.5q-100 0 -145.5 38t-59.5 101l40 5q24 -112 165 -112q86 0 139 35t53 108v150q-26 -50 -81 -77.5t-114 -27.5q-104 0 -162.5 70.5t-58.5 194.5t58.5 194.5t162.5 70.5
q58 0 113 -29.5t82 -80.5l13 100h30zM473 173v199q-19 52 -67 92.5t-126 40.5q-85 0 -133 -60.5t-48 -169.5t48 -169.5t133 -60.5q79 0 126.5 39t66.5 89z" />
    <glyph glyph-name="Kcaron" unicode="&#x1e8;" horiz-adv-x="715" 
d="M140 780v-477l439 477h56l-328 -351l356 -429h-53l-329 401l-141 -151v-250h-40v780h40zM165 1030h38l137 -175l137 175h38l-153 -208h-44z" />
    <glyph glyph-name="kcaron" unicode="&#x1e9;" horiz-adv-x="531" 
d="M118 0h-38v800h38v-568l124 125l173 173h55l-229 -224l267 -306h-51l-242 282l-97 -96v-186zM-76 1030h38l137 -175l137 175h38l-153 -208h-44z" />
    <glyph glyph-name="Oogonek" unicode="&#x1ea;" horiz-adv-x="800" 
d="M730 390q0 -162 -61 -265.5t-190 -127.5q-51 -9 -92.5 -41t-41.5 -75q0 -34 19 -48t56 -13q20 0 40.5 6.5t31.5 12.5l10 6l10 -26q-43 -29 -102 -29q-43 0 -71.5 21.5t-28.5 65.5q0 70 80 114q-166 3 -243 109.5t-77 289.5q0 185 79.5 292.5t250.5 107.5t250.5 -107.5
t79.5 -292.5zM400 754q-79 0 -136 -27.5t-89.5 -78.5t-47.5 -114.5t-15 -143.5t15 -143.5t47.5 -114.5t89.5 -78.5t136 -27.5t136 27.5t89.5 78.5t47.5 114.5t15 143.5t-15 143.5t-47.5 114.5t-89.5 78.5t-136 27.5z" />
    <glyph glyph-name="oogonek" unicode="&#x1eb;" horiz-adv-x="592" 
d="M532 265q0 -102 -39 -169.5t-111 -92.5q-53 -18 -92.5 -49.5t-39.5 -72.5q0 -34 19 -48t56 -13q20 0 40.5 6.5t30.5 12.5l11 6l10 -26q-43 -29 -102 -29q-43 0 -71.5 21.5t-28.5 65.5q0 66 72 113q-108 3 -167.5 75.5t-59.5 199.5q0 130 62 202.5t174 72.5t174 -72.5
t62 -202.5zM296 505q-93 0 -143.5 -63t-50.5 -177t50.5 -177t143.5 -63t143.5 63t50.5 177t-50.5 177t-143.5 63z" />
    <glyph glyph-name="Oogonekmacron" unicode="&#x1ec;" horiz-adv-x="800" 
d="M730 390q0 -162 -61 -265.5t-190 -127.5q-51 -9 -92.5 -41t-41.5 -75q0 -34 19 -48t56 -13q20 0 40.5 6.5t31.5 12.5l10 6l10 -26q-43 -29 -102 -29q-43 0 -71.5 21.5t-28.5 65.5q0 70 80 114q-166 3 -243 109.5t-77 289.5q0 185 79.5 292.5t250.5 107.5t250.5 -107.5
t79.5 -292.5zM400 754q-79 0 -136 -27.5t-89.5 -78.5t-47.5 -114.5t-15 -143.5t15 -143.5t47.5 -114.5t89.5 -78.5t136 -27.5t136 27.5t89.5 78.5t47.5 114.5t15 143.5t-15 143.5t-47.5 114.5t-89.5 78.5t-136 27.5zM264 927v32h272v-32h-272z" />
    <glyph glyph-name="oogonekmacron" unicode="&#x1ed;" horiz-adv-x="592" 
d="M160 697v32h272v-32h-272zM532 265q0 -102 -39 -169.5t-111 -92.5q-53 -18 -92.5 -49.5t-39.5 -72.5q0 -34 19 -48t56 -13q20 0 40.5 6.5t30.5 12.5l11 6l10 -26q-43 -29 -102 -29q-43 0 -71.5 21.5t-28.5 65.5q0 66 72 113q-108 3 -167.5 75.5t-59.5 199.5
q0 130 62 202.5t174 72.5t174 -72.5t62 -202.5zM296 505q-93 0 -143.5 -63t-50.5 -177t50.5 -177t143.5 -63t143.5 63t50.5 177t-50.5 177t-143.5 63z" />
    <glyph glyph-name="jcaron" unicode="&#x1f0;" horiz-adv-x="236" 
d="M-29 -174q66 0 97 29.5t31 115.5v559h38v-532q0 -39 -2 -64.5t-11.5 -55.5t-26.5 -47t-49 -29t-77 -12q-35 0 -57 9l8 36q21 -9 49 -9zM-57 800h38l137 -175l137 175h38l-153 -208h-44z" />
    <glyph glyph-name="Gacute" unicode="&#x1f4;" horiz-adv-x="789" 
d="M400 26q164 -3 254 70v258h-200v36h240v-312q-116 -90 -294 -88q-167 0 -248.5 105t-81.5 295t81.5 295t248.5 105q252 0 292 -204l-42 -6q-32 177 -250 174q-288 -4 -288 -364t288 -364zM476 1030h47l-106 -208h-35z" />
    <glyph glyph-name="gacute" unicode="&#x1f5;" horiz-adv-x="590" 
d="M511 422v-452q0 -87 -61 -133.5t-169 -46.5q-100 0 -145.5 38t-59.5 101l40 5q24 -112 165 -112q86 0 139 35t53 108v150q-26 -50 -81 -77.5t-114 -27.5q-104 0 -162.5 70.5t-58.5 194.5t58.5 194.5t162.5 70.5q58 0 113 -29.5t82 -80.5l13 100h30zM473 173v199
q-19 52 -67 92.5t-126 40.5q-85 0 -133 -60.5t-48 -169.5t48 -169.5t133 -60.5q79 0 126.5 39t66.5 89zM356 800h47l-106 -208h-35z" />
    <glyph glyph-name="Aringacute" unicode="&#x1fa;" horiz-adv-x="740" 
d="M647 0l-99 265h-356l-99 -265h-44l300 790h42l300 -790h-44zM370 744l-85 -231l-80 -212h329l-79 212zM272 990l81 144h42l-63 -99q18 5 38 5q53 0 83.5 -31.5t30.5 -82.5t-30.5 -82.5t-83.5 -31.5t-83.5 31.5t-30.5 82.5q0 35 16 64zM453 926q0 40 -21.5 63t-61.5 23
t-61.5 -23t-21.5 -63t21.5 -63t61.5 -23t61.5 23t21.5 63z" />
    <glyph glyph-name="aringacute" unicode="&#x1fb;" horiz-adv-x="561" 
d="M62 138q0 73 49 110t141 51l192 29v42q0 74 -40.5 104.5t-122.5 32.5q-131 3 -152 -101l-40 5q28 129 192 129q97 0 149 -43.5t52 -130.5v-258l5 -108h-30l-13 100q-30 -56 -88.5 -83t-122.5 -27q-83 0 -127 40.5t-44 107.5zM103 138q0 -55 33.5 -84t96.5 -29
q159 0 211 133v137l-197 -31q-70 -11 -107 -38t-37 -88zM183 760l81 144h42l-63 -99q18 5 38 5q53 0 83.5 -31.5t30.5 -82.5t-30.5 -82.5t-83.5 -31.5t-83.5 31.5t-30.5 82.5q0 35 16 64zM364 696q0 40 -21.5 63t-61.5 23t-61.5 -23t-21.5 -63t21.5 -63t61.5 -23t61.5 23
t21.5 63z" />
    <glyph glyph-name="AEacute" unicode="&#x1fc;" horiz-adv-x="1075" 
d="M583 1030h47l-106 -208h-35zM604 0l-74 382h-252l-201 -382h-45l415 780h533v-36h-480l63 -326h377v-36h-370l67 -346h363v-36h-396zM463 734l-166 -316h226l-30 155z" />
    <glyph glyph-name="aeacute" unicode="&#x1fd;" horiz-adv-x="963" 
d="M898 251h-413q4 -103 58 -164.5t137 -61.5q144 0 167 108l42 -6q-12 -64 -65.5 -100.5t-143.5 -36.5q-73 0 -127 35.5t-82 100.5q-80 -136 -238 -136q-83 0 -127 40.5t-44 107.5q0 75 50 111t140 36h192v85q0 74 -40.5 104.5t-122.5 32.5q-131 3 -152 -101l-40 5
q28 129 192 129q166 0 195 -126q26 59 80 92.5t124 33.5q117 0 167.5 -71t50.5 -203v-15zM680 505q-83 0 -139 -61t-56 -159h370q-2 108 -42 164t-133 56zM103 138q0 -55 33.5 -84t96.5 -29q163 0 220 151q-7 30 -9 75h-197q-144 0 -144 -113zM548 800h47l-106 -208h-35z
" />
    <glyph glyph-name="Oslashacute" unicode="&#x1fe;" horiz-adv-x="800" 
d="M476 1030h47l-106 -208h-35zM730 390q0 -185 -79.5 -292.5t-250.5 -107.5q-122 0 -200 59l-32 -49h-45l48 73q-101 102 -101 317q0 185 79.5 292.5t250.5 107.5q122 0 200 -59l32 49h45l-48 -73q101 -102 101 -317zM689 390q0 188 -83 282l-385 -591q68 -55 179 -55
q79 0 136 27.5t90 78.5t48 114.5t15 143.5zM111 390q0 -188 83 -282l385 591q-68 55 -179 55q-79 0 -136 -27.5t-90 -78.5t-48 -114.5t-15 -143.5z" />
    <glyph glyph-name="oslashacute" unicode="&#x1ff;" horiz-adv-x="592" 
d="M372 800h47l-106 -208h-35zM532 265q0 -130 -62 -202.5t-174 -72.5q-80 0 -135 38l-19 -28h-41l33 50q-74 72 -74 215q0 130 62 202.5t174 72.5q80 0 135 -38l19 28h41l-33 -50q74 -72 74 -215zM490 265q0 118 -54 181l-255 -387q46 -34 115 -34q93 0 143.5 63t50.5 177z
M102 265q0 -118 54 -181l255 387q-46 34 -115 34q-93 0 -143.5 -63t-50.5 -177z" />
    <glyph glyph-name="Ainvertedbreve" unicode="&#x202;" horiz-adv-x="740" 
d="M647 0l-99 265h-356l-99 -265h-44l300 790h42l300 -790h-44zM370 744l-85 -231l-80 -212h329l-79 212zM222 822h-30q0 99 41 148.5t137 49.5t137 -49.5t41 -148.5h-30q0 89 -35 128t-113 39t-113 -39t-35 -128z" />
    <glyph glyph-name="ainvertedbreve" unicode="&#x203;" horiz-adv-x="561" 
d="M62 138q0 73 49 110t141 51l192 29v42q0 74 -40.5 104.5t-122.5 32.5q-131 3 -152 -101l-40 5q28 129 192 129q97 0 149 -43.5t52 -130.5v-258l5 -108h-30l-13 100q-30 -56 -88.5 -83t-122.5 -27q-83 0 -127 40.5t-44 107.5zM103 138q0 -55 33.5 -84t96.5 -29
q159 0 211 133v137l-197 -31q-70 -11 -107 -38t-37 -88zM133 592h-30q0 99 41 148.5t137 49.5t137 -49.5t41 -148.5h-30q0 89 -35 128t-113 39t-113 -39t-35 -128z" />
    <glyph glyph-name="Einvertedbreve" unicode="&#x206;" horiz-adv-x="715" 
d="M100 780h520v-36h-480v-326h440v-36h-440v-346h500v-36h-540v780zM222 822h-30q0 99 41 148.5t137 49.5t137 -49.5t41 -148.5h-30q0 89 -35 128t-113 39t-113 -39t-35 -128z" />
    <glyph glyph-name="einvertedbreve" unicode="&#x207;" horiz-adv-x="579" 
d="M514 251h-413q4 -103 58 -164.5t137 -61.5q144 0 167 108l42 -6q-12 -64 -65.5 -100.5t-143.5 -36.5q-106 0 -171 75.5t-65 199.5t65 199.5t171 75.5q117 0 167.5 -71t50.5 -203v-15zM296 505q-81 0 -135 -60t-60 -160h370q-2 108 -42 164t-133 56zM148 592h-30
q0 99 41 148.5t137 49.5t137 -49.5t41 -148.5h-30q0 89 -35 128t-113 39t-113 -39t-35 -128z" />
    <glyph glyph-name="Iinvertedbreve" unicode="&#x20a;" horiz-adv-x="280" 
d="M160 780v-780h-40v780h40zM-8 822h-30q0 99 41 148.5t137 49.5t137 -49.5t41 -148.5h-30q0 89 -35 128t-113 39t-113 -39t-35 -128z" />
    <glyph glyph-name="iinvertedbreve" unicode="&#x20b;" horiz-adv-x="236" 
d="M99 0v530h38v-530h-38zM-30 592h-30q0 99 41 148.5t137 49.5t137 -49.5t41 -148.5h-30q0 89 -35 128t-113 39t-113 -39t-35 -128z" />
    <glyph glyph-name="Oinvertedbreve" unicode="&#x20e;" horiz-adv-x="800" 
d="M400 -10q-171 0 -250.5 107.5t-79.5 292.5t79.5 292.5t250.5 107.5t250.5 -107.5t79.5 -292.5t-79.5 -292.5t-250.5 -107.5zM400 754q-79 0 -136 -27.5t-89.5 -78.5t-47.5 -114.5t-15 -143.5t15 -143.5t47.5 -114.5t89.5 -78.5t136 -27.5t136 27.5t89.5 78.5t47.5 114.5
t15 143.5t-15 143.5t-47.5 114.5t-89.5 78.5t-136 27.5zM252 822h-30q0 99 41 148.5t137 49.5t137 -49.5t41 -148.5h-30q0 89 -35 128t-113 39t-113 -39t-35 -128z" />
    <glyph glyph-name="oinvertedbreve" unicode="&#x20f;" horiz-adv-x="592" 
d="M296 505q-93 0 -143.5 -63t-50.5 -177t50.5 -177t143.5 -63t143.5 63t50.5 177t-50.5 177t-143.5 63zM296 -10q-112 0 -174 72.5t-62 202.5t62 202.5t174 72.5t174 -72.5t62 -202.5t-62 -202.5t-174 -72.5zM148 592h-30q0 99 41 148.5t137 49.5t137 -49.5t41 -148.5h-30
q0 89 -35 128t-113 39t-113 -39t-35 -128z" />
    <glyph glyph-name="Rinvertedbreve" unicode="&#x212;" horiz-adv-x="710" 
d="M614 0l-209 348h-265v-348h-40v780h321q43 0 76 -8t66 -29.5t50.5 -66.5t17.5 -112q0 -61 -14.5 -103.5t-41.5 -65.5t-56.5 -33.5t-67.5 -12.5l212 -349h-49zM140 744v-360h294q32 0 56.5 6.5t49 24t38 55.5t13.5 94t-13.5 94t-38 55.5t-49 24t-56.5 6.5h-294zM198 822
h-30q0 99 41 148.5t137 49.5t137 -49.5t41 -148.5h-30q0 89 -35 128t-113 39t-113 -39t-35 -128z" />
    <glyph glyph-name="rinvertedbreve" unicode="&#x213;" horiz-adv-x="375" 
d="M307 540q27 0 44 -4l-5 -40q-25 5 -39 5q-82 0 -135 -51.5t-55 -112.5v-337h-38v422l-5 108h30l14 -110q25 55 78.5 87.5t110.5 32.5zM62 592h-30q0 99 41 148.5t137 49.5t137 -49.5t41 -148.5h-30q0 89 -35 128t-113 39t-113 -39t-35 -128z" />
    <glyph glyph-name="Uinvertedbreve" unicode="&#x216;" horiz-adv-x="784" 
d="M392 -10q-165 0 -236 69t-71 200v521h41v-528q0 -109 60 -167t206 -58t206 58t60 167v528h41v-521q0 -131 -71 -200t-236 -69zM244 822h-30q0 99 41 148.5t137 49.5t137 -49.5t41 -148.5h-30q0 89 -35 128t-113 39t-113 -39t-35 -128z" />
    <glyph glyph-name="uinvertedbreve" unicode="&#x217;" horiz-adv-x="565" 
d="M461 0l-13 100q-25 -48 -78.5 -79t-116.5 -31q-79 0 -130.5 42t-51.5 114v384h38v-369q0 -65 42 -100.5t112 -35.5q71 0 118.5 41t66.5 91v373h38v-422l5 -108h-30zM131 592h-30q0 99 41 148.5t137 49.5t137 -49.5t41 -148.5h-30q0 89 -35 128t-113 39t-113 -39t-35 -128
z" />
    <glyph glyph-name="Scommaaccent" unicode="&#x218;" horiz-adv-x="710" 
d="M353 -10q-145 0 -209.5 48.5t-76.5 138.5l41 6q11 -81 64.5 -119t180.5 -38q44 0 84.5 9t78 28.5t60 56.5t22.5 88q0 91 -47.5 130t-188.5 54q-56 6 -92.5 13t-73 20t-57 33t-33 51t-12.5 74q0 105 74.5 156t185.5 51q138 0 203 -46.5t76 -133.5l-41 -6q-11 76 -67 113
t-171 37q-34 0 -67 -6.5t-69.5 -23t-59 -53t-22.5 -88.5q0 -77 46.5 -108.5t182.5 -45.5q76 -8 124 -21t83.5 -37.5t51 -64t15.5 -98.5q0 -109 -82 -163.5t-204 -54.5zM343 -200h-27l21 138h44z" />
    <glyph glyph-name="scommaaccent" unicode="&#x219;" horiz-adv-x="534" 
d="M264 505q-60 0 -107.5 -28.5t-47.5 -88.5q0 -19 3.5 -32.5t14.5 -23t21 -15.5t34 -10.5t40.5 -7t53.5 -6.5q38 -4 60 -7.5t54.5 -13.5t50 -24t31 -39t13.5 -59q0 -81 -62 -120.5t-162 -39.5q-90 0 -143.5 36.5t-65.5 100.5l42 6q23 -108 166 -108q82 0 132.5 30t50.5 94
q0 22 -5.5 38.5t-20 27.5t-27.5 18.5t-39 12.5t-43.5 7t-51.5 6q-33 3 -53 6.5t-49 12t-45 21t-28 35t-12 53.5q0 76 56 114.5t140 38.5q90 0 143.5 -36.5t65.5 -100.5l-42 -6q-23 108 -168 108zM251 -200h-27l21 138h44z" />
    <glyph glyph-name="Tcommaaccent" unicode="&#x21a;" horiz-adv-x="640" 
d="M340 744v-744h-40v744h-265v36h570v-36h-265zM304 -200h-27l21 138h44z" />
    <glyph glyph-name="tcommaaccent" unicode="&#x21b;" horiz-adv-x="400" 
d="M304 26q28 0 49 9l8 -36q-22 -9 -57 -9q-45 0 -77 12t-49 29t-26.5 47t-11.5 55.5t-2 64.5v298h-106v34h106v140l38 13v-153h173v-34h-173v-325q0 -86 31 -115.5t97 -29.5zM222 -200h-27l21 138h44z" />
    <glyph glyph-name="yogh" unicode="&#x292;" horiz-adv-x="535" 
d="M258 -175q87 0 140 49.5t53 139.5t-50.5 139.5t-133.5 51.5q-75 2 -107 -21l-23 27l179 178l110 108l-182 -1h-166v34h391v-35l-261 -260q22 6 60 6q94 0 158.5 -60.5t64.5 -166.5q0 -111 -69 -167.5t-164 -56.5q-91 0 -146.5 37t-67.5 100l42 6q23 -108 172 -108z" />
    <glyph glyph-name="bullseye" unicode="&#x298;" horiz-adv-x="960" 
d="M80 390q0 166 117 283t283 117t283 -117t117 -283t-117 -283t-283 -117t-283 117t-117 283zM330 390q0 62 44 106t106 44t106 -44t44 -106t-44 -106t-106 -44t-106 44t-44 106zM157 339q0 -113 79.5 -192.5t192.5 -79.5t193 79.5t80 192.5t-80 193t-193 80t-192.5 -80
t-79.5 -193z" />
    <glyph glyph-name="circumflex" unicode="&#x2c6;" 
d="M475 592h-38l-137 175l-137 -175h-38l153 208h44z" />
    <glyph glyph-name="caron" unicode="&#x2c7;" 
d="M125 800h38l137 -175l137 175h38l-153 -208h-44z" />
    <glyph glyph-name="breve" unicode="&#x2d8;" 
d="M448 800h30q0 -99 -41 -148.5t-137 -49.5t-137 49.5t-41 148.5h30q0 -89 35 -128t113 -39t113 39t35 128z" />
    <glyph glyph-name="dotaccent" unicode="&#x2d9;" 
d="M330 743v-60h-60v60h60z" />
    <glyph glyph-name="ring" unicode="&#x2da;" 
d="M186 696q0 51 30.5 82.5t83.5 31.5t83.5 -31.5t30.5 -82.5t-30.5 -82.5t-83.5 -31.5t-83.5 31.5t-30.5 82.5zM383 696q0 40 -21.5 63t-61.5 23t-61.5 -23t-21.5 -63t21.5 -63t61.5 -23t61.5 23t21.5 63z" />
    <glyph glyph-name="ogonek" unicode="&#x2db;" 
d="M499 25l7 -25q-56 -9 -105 -40.5t-49 -78.5q0 -34 19 -48t56 -13q20 0 40.5 6.5t30.5 12.5l11 6l10 -26q-43 -29 -102 -29q-43 0 -71.5 21.5t-28.5 65.5q0 55 50.5 93.5t131.5 54.5z" />
    <glyph glyph-name="tilde" unicode="&#x2dc;" 
d="M457 740l28 -5q-5 -41 -35.5 -66t-70.5 -23t-87 36t-76 36q-30 2 -51 -14t-26 -49l-28 5q5 41 35.5 66t70.5 23t87 -36t76 -36q30 -2 51 14t26 49z" />
    <glyph glyph-name="hungarumlaut" unicode="&#x2dd;" 
d="M299 800h47l-106 -208h-35zM439 800h47l-106 -208h-35z" />
    <glyph glyph-name="invertedbreve" unicode="&#x306;" 
d="M152 592h-30q0 99 41 148.5t137 49.5t137 -49.5t41 -148.5h-30q0 89 -35 128t-113 39t-113 -39t-35 -128z" />
    <glyph glyph-name="doublegrave" unicode="&#x30f;" 
d="M254 800h47l94 -208h-35zM114 800h47l94 -208h-35z" />
    <glyph glyph-name="commaabovecmb" unicode="&#x313;" 
d="M328 800h27l-31 -208h-54z" />
    <glyph glyph-name="uni0323" unicode="&#x323;" 
d="M330 -140v-60h-60v60h60z" />
    <glyph glyph-name="uni0329" unicode="&#x329;" 
d="M317 -200h-34v160h34v-160z" />
    <glyph glyph-name="uni03A9" unicode="&#x3a9;" horiz-adv-x="700" 
d="M350 774q149 0 233.5 -86.5t84.5 -237.5q0 -116 -57 -227.5t-142 -189.5l112 1h98v-34h-262v27q84 68 148 183t64 240q0 136 -75.5 212t-203.5 76t-203.5 -76t-75.5 -212q0 -125 64 -240t148 -183v-27h-262v34h98l112 -1q-85 78 -142 189.5t-57 227.5q0 151 84.5 237.5
t233.5 86.5z" />
    <glyph glyph-name="pi" unicode="&#x3c0;" horiz-adv-x="725" 
d="M616 26q19 0 39 4l5 -36q-17 -4 -44 -4q-45 0 -77 12t-49 29t-26.5 47t-11.5 55.5t-2 64.5v298h-256v-403l-13 -93h-30l5 108v388h-130v34h612v-34h-150v-325q0 -86 31 -115.5t97 -29.5z" />
    <glyph glyph-name="Ddotbelow" unicode="&#x1e0c;" horiz-adv-x="780" 
d="M710 390q0 -112 -22.5 -188.5t-69.5 -120.5t-109.5 -62.5t-151.5 -18.5h-257v780h257q89 0 151.5 -18.5t109.5 -62.5t69.5 -120.5t22.5 -188.5zM140 36h228q162 0 231 78t69 276t-69 276t-231 78h-228v-708zM391 -140v-60h-60v60h60z" />
    <glyph glyph-name="ddotbelow" unicode="&#x1e0d;" horiz-adv-x="590" 
d="M473 430v370h38v-692l5 -108h-30l-13 100q-27 -51 -81 -80.5t-111 -29.5q-103 0 -162 75t-59 200t59 200t162 75q57 0 111 -29.5t81 -80.5zM473 158v214q-20 52 -66 92.5t-124 40.5q-84 0 -132.5 -65t-48.5 -175t48.5 -175t132.5 -65q78 0 124 40.5t66 92.5zM313 -140
v-60h-60v60h60z" />
    <glyph glyph-name="Hdotbelow" unicode="&#x1e24;" horiz-adv-x="750" 
d="M610 780h40v-780h-40v382h-470v-382h-40v780h40v-362h470v362zM406 -140v-60h-60v60h60z" />
    <glyph glyph-name="hdotbelow" unicode="&#x1e25;" horiz-adv-x="566" 
d="M118 800v-370q25 48 78.5 79t116.5 31q79 0 130.5 -42t51.5 -114v-384h-38v369q0 65 -42 100.5t-112 35.5q-71 0 -118.5 -41t-66.5 -91v-373h-38v800h38zM324 -140v-60h-60v60h60z" />
    <glyph glyph-name="Ldotbelow" unicode="&#x1e36;" horiz-adv-x="605" 
d="M140 780v-744h440v-36h-480v780h40zM361 -140v-60h-60v60h60z" />
    <glyph glyph-name="ldotbelow" unicode="&#x1e37;" horiz-adv-x="242" 
d="M102 0v800h38v-800h-38zM151 -140v-60h-60v60h60z" />
    <glyph glyph-name="Ldotbelowmacron" unicode="&#x1e38;" horiz-adv-x="605" 
d="M140 780v-744h440v-36h-480v780h40zM-16 927v32h272v-32h-272zM361 -140v-60h-60v60h60z" />
    <glyph glyph-name="ldotbelowmacron" unicode="&#x1e39;" horiz-adv-x="242" 
d="M102 0v800h38v-800h-38zM-15 927v32h272v-32h-272zM151 -140v-60h-60v60h60z" />
    <glyph glyph-name="Mdotbelow" unicode="&#x1e42;" horiz-adv-x="902" 
d="M429 0l-224 543l-69 168l3 -251v-460h-39v780h48l230 -557l73 -181l73 181l230 557h48v-780h-39v460l3 251l-69 -168l-224 -543h-44zM481 -140v-60h-60v60h60z" />
    <glyph glyph-name="mdotbelow" unicode="&#x1e43;" horiz-adv-x="874" 
d="M104 530l13 -100q25 48 75 79t106 31q62 0 103.5 -30.5t53.5 -84.5q31 56 81 85.5t105 29.5q71 0 116.5 -42t45.5 -114v-384h-38v369q0 65 -36 100.5t-98 35.5q-64 0 -108 -41t-63 -91v-373h-38v369q0 66 -34.5 101t-99.5 35q-64 0 -108 -41t-63 -91v-373h-38v422l-5 108
h30zM471 -140v-60h-60v60h60z" />
    <glyph glyph-name="Ndotaccent" unicode="&#x1e44;" horiz-adv-x="761" 
d="M612 0l-356 544l-120 188l3 -272v-460h-39v780h49l356 -544l120 -188l-3 272v460h39v-780h-49zM410 973v-60h-60v60h60z" />
    <glyph glyph-name="ndotaccent" unicode="&#x1e45;" horiz-adv-x="565" 
d="M104 530l13 -100q25 48 78.5 79t116.5 31q79 0 130.5 -42t51.5 -114v-384h-38v369q0 65 -42 100.5t-112 35.5q-71 0 -118.5 -41t-66.5 -91v-373h-38v422l-5 108h30zM323 743v-60h-60v60h60z" />
    <glyph glyph-name="Ndotbelow" unicode="&#x1e46;" horiz-adv-x="761" 
d="M612 0l-356 544l-120 188l3 -272v-460h-39v780h49l356 -544l120 -188l-3 272v460h39v-780h-49zM410 -140v-60h-60v60h60z" />
    <glyph glyph-name="ndotbelow" unicode="&#x1e47;" horiz-adv-x="565" 
d="M104 530l13 -100q25 48 78.5 79t116.5 31q79 0 130.5 -42t51.5 -114v-384h-38v369q0 65 -42 100.5t-112 35.5q-71 0 -118.5 -41t-66.5 -91v-373h-38v422l-5 108h30zM323 -140v-60h-60v60h60z" />
    <glyph glyph-name="Rdotbelow" unicode="&#x1e5a;" horiz-adv-x="710" 
d="M614 0l-209 348h-265v-348h-40v780h321q43 0 76 -8t66 -29.5t50.5 -66.5t17.5 -112q0 -61 -14.5 -103.5t-41.5 -65.5t-56.5 -33.5t-67.5 -12.5l212 -349h-49zM140 744v-360h294q32 0 56.5 6.5t49 24t38 55.5t13.5 94t-13.5 94t-38 55.5t-49 24t-56.5 6.5h-294zM376 -140
v-60h-60v60h60z" />
    <glyph glyph-name="rdotbelow" unicode="&#x1e5b;" horiz-adv-x="375" 
d="M307 540q27 0 44 -4l-5 -40q-25 5 -39 5q-82 0 -135 -51.5t-55 -112.5v-337h-38v422l-5 108h30l14 -110q25 55 78.5 87.5t110.5 32.5zM128 -140v-60h-60v60h60z" />
    <glyph glyph-name="Rdotbelowmacron" unicode="&#x1e5c;" horiz-adv-x="710" 
d="M614 0l-209 348h-265v-348h-40v780h321q43 0 76 -8t66 -29.5t50.5 -66.5t17.5 -112q0 -61 -14.5 -103.5t-41.5 -65.5t-56.5 -33.5t-67.5 -12.5l212 -349h-49zM140 744v-360h294q32 0 56.5 6.5t49 24t38 55.5t13.5 94t-13.5 94t-38 55.5t-49 24t-56.5 6.5h-294zM210 927
v32h272v-32h-272zM376 -140v-60h-60v60h60z" />
    <glyph glyph-name="rdotbelowmacron" unicode="&#x1e5d;" horiz-adv-x="375" 
d="M307 540q27 0 44 -4l-5 -40q-25 5 -39 5q-82 0 -135 -51.5t-55 -112.5v-337h-38v422l-5 108h30l14 -110q25 55 78.5 87.5t110.5 32.5zM74 697v32h272v-32h-272zM128 -140v-60h-60v60h60z" />
    <glyph glyph-name="Sdotbelow" unicode="&#x1e62;" horiz-adv-x="710" 
d="M353 -10q-145 0 -209.5 48.5t-76.5 138.5l41 6q11 -81 64.5 -119t180.5 -38q44 0 84.5 9t78 28.5t60 56.5t22.5 88q0 91 -47.5 130t-188.5 54q-56 6 -92.5 13t-73 20t-57 33t-33 51t-12.5 74q0 105 74.5 156t185.5 51q138 0 203 -46.5t76 -133.5l-41 -6q-11 76 -67 113
t-171 37q-34 0 -67 -6.5t-69.5 -23t-59 -53t-22.5 -88.5q0 -77 46.5 -108.5t182.5 -45.5q76 -8 124 -21t83.5 -37.5t51 -64t15.5 -98.5q0 -109 -82 -163.5t-204 -54.5zM383 -140v-60h-60v60h60z" />
    <glyph glyph-name="sdotbelow" unicode="&#x1e63;" horiz-adv-x="534" 
d="M264 505q-60 0 -107.5 -28.5t-47.5 -88.5q0 -19 3.5 -32.5t14.5 -23t21 -15.5t34 -10.5t40.5 -7t53.5 -6.5q38 -4 60 -7.5t54.5 -13.5t50 -24t31 -39t13.5 -59q0 -81 -62 -120.5t-162 -39.5q-90 0 -143.5 36.5t-65.5 100.5l42 6q23 -108 166 -108q82 0 132.5 30t50.5 94
q0 22 -5.5 38.5t-20 27.5t-27.5 18.5t-39 12.5t-43.5 7t-51.5 6q-33 3 -53 6.5t-49 12t-45 21t-28 35t-12 53.5q0 76 56 114.5t140 38.5q90 0 143.5 -36.5t65.5 -100.5l-42 -6q-23 108 -168 108zM297 -140v-60h-60v60h60z" />
    <glyph glyph-name="Tdotbelow" unicode="&#x1e6c;" horiz-adv-x="640" 
d="M340 744v-744h-40v744h-265v36h570v-36h-265zM350 -140v-60h-60v60h60z" />
    <glyph glyph-name="tdotbelow" unicode="&#x1e6d;" horiz-adv-x="400" 
d="M304 26q28 0 49 9l8 -36q-22 -9 -57 -9q-45 0 -77 12t-49 29t-26.5 47t-11.5 55.5t-2 64.5v298h-106v34h106v140l38 13v-153h173v-34h-173v-325q0 -86 31 -115.5t97 -29.5zM251 -140v-60h-60v60h60z" />
    <glyph glyph-name="Wgrave" unicode="&#x1e80;" horiz-adv-x="950" 
d="M455 780h40l156 -508l60 -201l41 208l101 501h42l-163 -790h-35l-164 534l-58 195l-58 -195l-164 -534h-35l-163 790h42l101 -501l41 -208l60 201zM352 1030h47l94 -208h-35z" />
    <glyph glyph-name="wgrave" unicode="&#x1e81;" horiz-adv-x="776" 
d="M249 199l116 331h46l116 -331l52 -156l33 159v-1l71 329h41l-121 -540h-43l-123 352l-49 148l-49 -148l-123 -352h-43l-121 540h41l71 -329v1l33 -159zM265 800h47l94 -208h-35z" />
    <glyph glyph-name="Wacute" unicode="&#x1e82;" horiz-adv-x="950" 
d="M455 780h40l156 -508l60 -201l41 208l101 501h42l-163 -790h-35l-164 534l-58 195l-58 -195l-164 -534h-35l-163 790h42l101 -501l41 -208l60 201zM551 1030h47l-106 -208h-35z" />
    <glyph glyph-name="wacute" unicode="&#x1e83;" horiz-adv-x="776" 
d="M249 199l116 331h46l116 -331l52 -156l33 159v-1l71 329h41l-121 -540h-43l-123 352l-49 148l-49 -148l-123 -352h-43l-121 540h41l71 -329v1l33 -159zM464 800h47l-106 -208h-35z" />
    <glyph glyph-name="Wdieresis" unicode="&#x1e84;" horiz-adv-x="950" 
d="M455 780h40l156 -508l60 -201l41 208l101 501h42l-163 -790h-35l-164 534l-58 195l-58 -195l-164 -534h-35l-163 790h42l101 -501l41 -208l60 201zM601 973v-60h-60v60h60zM410 973v-60h-60v60h60z" />
    <glyph glyph-name="wdieresis" unicode="&#x1e85;" horiz-adv-x="776" 
d="M249 199l116 331h46l116 -331l52 -156l33 159v-1l71 329h41l-121 -540h-43l-123 352l-49 148l-49 -148l-123 -352h-43l-121 540h41l71 -329v1l33 -159zM514 743v-60h-60v60h60zM323 743v-60h-60v60h60z" />
    <glyph glyph-name="Ygrave" unicode="&#x1ef2;" horiz-adv-x="670" 
d="M20 780h49l164 -262l102 -164l102 164l164 262h49l-295 -463v-317h-40v317zM212 1030h47l94 -208h-35z" />
    <glyph glyph-name="ygrave" unicode="&#x1ef3;" horiz-adv-x="512" 
d="M484 530l-197 -483l-99 -247h-43l91 220l-208 510h45l113 -284l70 -183l70 183l114 284h44zM133 800h47l94 -208h-35z" />
    <glyph glyph-name="enspace" unicode="&#x2002;" horiz-adv-x="500" 
 />
    <glyph glyph-name="emspace" unicode="&#x2003;" horiz-adv-x="1000" 
 />
    <glyph glyph-name="threeperemspace" unicode="&#x2004;" horiz-adv-x="333" 
 />
    <glyph glyph-name="fourperemspace" unicode="&#x2005;" horiz-adv-x="250" 
 />
    <glyph glyph-name="sixperemspace" unicode="&#x2006;" horiz-adv-x="167" 
 />
    <glyph glyph-name="figurespace" unicode="&#x2007;" horiz-adv-x="700" 
 />
    <glyph glyph-name="punctuationspace" unicode="&#x2008;" horiz-adv-x="280" 
 />
    <glyph glyph-name="thinspace" unicode="&#x2009;" horiz-adv-x="200" 
 />
    <glyph glyph-name="hairspace" unicode="&#x200a;" horiz-adv-x="100" 
 />
    <glyph glyph-name="zerowidthspace" unicode="&#x200b;" horiz-adv-x="0" 
 />
    <glyph glyph-name="figuredash" unicode="&#x2012;" horiz-adv-x="700" 
d="M650 318h-600v34h600v-34z" />
    <glyph glyph-name="endash" unicode="&#x2013;" horiz-adv-x="500" 
d="M450 318h-400v34h400v-34z" />
    <glyph glyph-name="emdash" unicode="&#x2014;" horiz-adv-x="1000" 
d="M950 352v-34h-900v34h900z" />
    <glyph glyph-name="quoteleft" unicode="&#x2018;" horiz-adv-x="125" 
d="M51 530h-54l70 250h21z" />
    <glyph glyph-name="quoteright" unicode="&#x2019;" horiz-adv-x="125" 
d="M74 780h54l-70 -250h-21z" />
    <glyph glyph-name="quotesinglbase" unicode="&#x201a;" horiz-adv-x="135" 
d="M54 86h54l-70 -250h-21z" />
    <glyph glyph-name="quotedblleft" unicode="&#x201c;" horiz-adv-x="265" 
d="M51 530h-54l70 250h21zM191 530h-54l70 250h21z" />
    <glyph glyph-name="quotedblright" unicode="&#x201d;" horiz-adv-x="265" 
d="M74 780h54l-70 -250h-21zM214 780h54l-70 -250h-21z" />
    <glyph glyph-name="quotedblbase" unicode="&#x201e;" horiz-adv-x="275" 
d="M54 86h54l-70 -250h-21zM194 86h54l-70 -250h-21z" />
    <glyph glyph-name="dagger" unicode="&#x2020;" horiz-adv-x="300" 
d="M298 650v-36l-141 10l18 -234h-50l17 234l-140 -10v36l140 -11l-10 141h36l-11 -141z" />
    <glyph glyph-name="daggerdbl" unicode="&#x2021;" horiz-adv-x="300" 
d="M298 489v-36l-141 10l18 -234h-50l17 234l-140 -10v36l140 -11l-5 73l5 73l-140 -10v36l140 -11l-10 141h36l-11 -141l141 11v-36l-141 10l6 -73l-6 -73z" />
    <glyph glyph-name="bullet" unicode="&#x2022;" horiz-adv-x="370" 
d="M314 464v-258h-258v258h258z" />
    <glyph glyph-name="ellipsis" unicode="&#x2026;" horiz-adv-x="1020" 
d="M210 60v-60h-60v60h60zM540 60v-60h-60v60h60zM870 60v-60h-60v60h60z" />
    <glyph glyph-name="perthousand" unicode="&#x2030;" horiz-adv-x="1508" 
d="M249 393q66 0 107 41.5t41 131.5q0 91 -41 133t-107 42q-65 0 -106.5 -42t-41.5 -133q0 -90 41.5 -131.5t106.5 -41.5zM249 774q87 0 135.5 -52.5t48.5 -155.5q0 -102 -48.5 -154t-135.5 -52q-86 0 -135 52t-49 154q0 103 48.5 155.5t135.5 52.5zM802 764l-506 -764h-42
l506 764h42zM807 371q-66 0 -107 -41.5t-41 -131.5q0 -91 41 -133t107 -42q65 0 106.5 42t41.5 133q0 90 -41.5 131.5t-106.5 41.5zM807 -10q-87 0 -135.5 52.5t-48.5 155.5q0 102 48.5 154t135.5 52q86 0 135 -52t49 -154q0 -103 -48.5 -155.5t-135.5 -52.5zM1259 371
q-66 0 -107 -41.5t-41 -131.5q0 -91 41 -133t107 -42q65 0 106.5 42t41.5 133q0 90 -41.5 131.5t-106.5 41.5zM1259 -10q-87 0 -135.5 52.5t-48.5 155.5q0 102 48.5 154t135.5 52q86 0 135 -52t49 -154q0 -103 -48.5 -155.5t-135.5 -52.5z" />
    <glyph glyph-name="guilsinglleft" unicode="&#x2039;" horiz-adv-x="300" 
d="M250 440v-43l-167 -132l167 -132v-43l-208 151v48z" />
    <glyph glyph-name="guilsinglright" unicode="&#x203a;" horiz-adv-x="300" 
d="M50 397v43l208 -151v-48l-208 -151v43l167 132z" />
    <glyph glyph-name="interrobang" unicode="&#x203d;" 
d="M345 389q-4 -2 -20.5 -10t-23.5 -13l-6 -176h-20l-19 563q-156 -15 -174 -163l-38 4q24 196 250 196q106 0 171 -53.5t65 -149.5q0 -27 -6 -50t-20 -41t-26 -31t-34.5 -26.5t-33.5 -19.5t-35.5 -17t-29.5 -13zM488 586q0 77 -48 119.5t-126 48.5l-12 -349q14 6 20 9
q2 1 27 12.5t30.5 14t26.5 14.5t27.5 18.5t20.5 20t19 26t10 30t5 36.5zM311 52v-52h-52v52h52z" />
    <glyph glyph-name="fraction" unicode="&#x2044;" horiz-adv-x="180" 
d="M364 764l-506 -764h-42l506 764h42z" />
    <glyph glyph-name="uni2070" unicode="&#x2070;" horiz-adv-x="498" 
d="M249 393q66 0 107 41.5t41 131.5q0 91 -41 133t-107 42q-65 0 -106.5 -42t-41.5 -133q0 -90 41.5 -131.5t106.5 -41.5zM249 774q87 0 135.5 -52.5t48.5 -155.5q0 -102 -48.5 -154t-135.5 -52q-86 0 -135 52t-49 154q0 103 48.5 155.5t135.5 52.5z" />
    <glyph glyph-name="uni2074" unicode="&#x2074;" horiz-adv-x="392" 
d="M347 462h-78v-92h-35v92h-189v29l189 283h35v-278h78v-34zM234 496v165l1 60l-36 -58l-77 -113l-37 -54h149z" />
    <glyph glyph-name="uni2075" unicode="&#x2075;" horiz-adv-x="411" 
d="M111 564l-31 9l21 191h227v-35h-198l-15 -124q37 29 98 29q66 0 102 -35.5t36 -101.5q0 -64 -41.5 -100.5t-105.5 -36.5q-70 0 -102.5 27t-41.5 78l36 3q8 -41 32.5 -59t75.5 -17q48 1 79.5 26t31.5 79q0 104 -102 104q-68 2 -102 -37z" />
    <glyph glyph-name="uni2076" unicode="&#x2076;" horiz-adv-x="407" 
d="M226 741q-64 2 -98.5 -38t-34.5 -132q0 -5 1 -11q15 34 48.5 52t74.5 18q62 0 98.5 -37t36.5 -100q0 -62 -38.5 -97.5t-101.5 -35.5q-79 0 -115.5 52t-36.5 159q0 203 166 203q55 0 86.5 -25.5t37.5 -61.5l-38 -4q-12 57 -86 58zM217 594q-54 2 -86.5 -29.5t-26.5 -89.5
q21 -84 108 -83q46 1 74.5 26t28.5 75q0 99 -98 101z" />
    <glyph glyph-name="uni2077" unicode="&#x2077;" horiz-adv-x="352" 
d="M144 370h-38l140 306l27 54l-105 -1h-128v35h272v-27z" />
    <glyph glyph-name="uni2078" unicode="&#x2078;" horiz-adv-x="407" 
d="M203 588q46 0 73.5 16t27.5 63q0 74 -101 74q-100 0 -100 -74q0 -47 27 -63t73 -16zM203 392q112 0 112 77q0 86 -112 86t-112 -86q0 -77 112 -77zM203 360q-73 0 -110.5 28.5t-37.5 79.5q0 48 24.5 73.5t59.5 30.5q-31 4 -52 29.5t-21 66.5q0 54 39 80t98 26t98 -26
t39 -80q0 -41 -21 -66.5t-53 -29.5q36 -5 61 -30.5t25 -73.5q0 -51 -37.5 -79.5t-111.5 -28.5z" />
    <glyph glyph-name="uni2079" unicode="&#x2079;" horiz-adv-x="407" 
d="M180 392q134 -2 134 170q0 4 -1 11q-15 -33 -49 -51t-75 -18q-61 0 -97.5 37t-36.5 100q0 61 38.5 97t100.5 36q80 0 116.5 -52t36.5 -160q0 -202 -167 -202q-55 0 -86 25t-37 61l38 5q12 -58 85 -59zM189 538q54 -2 87 30t27 91q-21 84 -109 83q-46 -1 -74 -26t-28 -75
q0 -100 97 -103z" />
    <glyph glyph-name="uni207A" unicode="&#x207a;" horiz-adv-x="380" 
d="M173 430v133h-133v34h133v133h34v-133h133v-34h-133v-133h-34z" />
    <glyph glyph-name="uni207B" unicode="&#x207b;" horiz-adv-x="380" 
d="M340 563h-300v34h300v-34z" />
    <glyph glyph-name="uni207C" unicode="&#x207c;" horiz-adv-x="380" 
d="M340 503h-300v34h300v-34zM340 623h-300v34h300v-34z" />
    <glyph glyph-name="uni207D" unicode="&#x207d;" horiz-adv-x="210" 
d="M106 567q0 -128 54 -253h-38q-57 120 -57 253t57 253h38q-54 -125 -54 -253z" />
    <glyph glyph-name="uni207E" unicode="&#x207e;" horiz-adv-x="210" 
d="M104 567q0 128 -54 253h38q57 -120 57 -253t-57 -253h-38q54 125 54 253z" />
    <glyph glyph-name="uni2080" unicode="&#x2080;" horiz-adv-x="498" 
d="M249 23q66 0 107 41.5t41 131.5q0 91 -41 133t-107 42q-65 0 -106.5 -42t-41.5 -133q0 -90 41.5 -131.5t106.5 -41.5zM249 404q87 0 135.5 -52.5t48.5 -155.5q0 -102 -48.5 -154t-135.5 -52q-86 0 -135 52t-49 154q0 103 48.5 155.5t135.5 52.5z" />
    <glyph glyph-name="uni2081" unicode="&#x2081;" horiz-adv-x="280" 
d="M170 0h-36v348q-27 -31 -94 -55v37q34 13 55 28.5t44 45.5h31v-404z" />
    <glyph glyph-name="uni2082" unicode="&#x2082;" horiz-adv-x="424" 
d="M364 0h-303q0 43 9.5 74t33.5 52.5t44.5 33.5t61.5 30q8 3 26 11t23.5 10.5t18 9t15.5 10t10.5 10t9 13t3.5 15t2 19.5q0 32 -19.5 51.5t-40.5 25t-43 5.5q-53 0 -79.5 -17.5t-34.5 -55.5l-36 4q19 103 150 103q60 0 99 -30t39 -86q0 -17 -3 -30.5t-12 -25t-15.5 -18.5
t-22.5 -16t-23 -12.5t-28 -12.5t-27 -12q-65 -29 -93 -56t-30 -72l120 1h145v-34z" />
    <glyph glyph-name="uni2083" unicode="&#x2083;" horiz-adv-x="421" 
d="M361 105q0 -51 -40.5 -83t-118.5 -32q-128 0 -147 104l37 3q6 -38 32 -56t78 -19q123 -2 123 83q0 27 -10 44.5t-29.5 25t-36.5 9.5t-42 2h-54v34h54q25 0 40.5 2t31.5 9.5t24 23.5t8 42q0 76 -106 74q-51 -1 -76 -18t-31 -56l-36 4q17 103 143 103q62 0 102 -26.5
t40 -80.5q0 -41 -21.5 -64.5t-52.5 -27.5q34 -4 61 -29t27 -71z" />
    <glyph glyph-name="uni2084" unicode="&#x2084;" horiz-adv-x="392" 
d="M347 92h-78v-92h-35v92h-189v29l189 283h35v-278h78v-34zM234 126v165l1 60l-36 -58l-77 -113l-37 -54h149z" />
    <glyph glyph-name="uni2085" unicode="&#x2085;" horiz-adv-x="411" 
d="M111 194l-31 9l21 191h227v-35h-198l-15 -124q37 29 98 29q66 0 102 -35.5t36 -101.5q0 -64 -41.5 -100.5t-105.5 -36.5q-70 0 -102.5 27t-41.5 78l36 3q8 -41 32.5 -59t75.5 -17q48 1 79.5 26t31.5 79q0 104 -102 104q-68 2 -102 -37z" />
    <glyph glyph-name="uni2086" unicode="&#x2086;" horiz-adv-x="407" 
d="M226 371q-64 2 -98.5 -38t-34.5 -132q0 -5 1 -11q15 34 48.5 52t74.5 18q62 0 98.5 -37t36.5 -100q0 -62 -38.5 -97.5t-101.5 -35.5q-79 0 -115.5 52t-36.5 159q0 203 166 203q55 0 86.5 -25.5t37.5 -61.5l-38 -4q-12 57 -86 58zM217 224q-54 2 -86.5 -29.5t-26.5 -89.5
q21 -84 108 -83q46 1 74.5 26t28.5 75q0 99 -98 101z" />
    <glyph glyph-name="uni2087" unicode="&#x2087;" horiz-adv-x="352" 
d="M144 0h-38l140 306l27 54l-105 -1h-128v35h272v-27z" />
    <glyph glyph-name="uni2088" unicode="&#x2088;" horiz-adv-x="407" 
d="M203 218q46 0 73.5 16t27.5 63q0 74 -101 74q-100 0 -100 -74q0 -47 27 -63t73 -16zM203 22q112 0 112 77q0 86 -112 86t-112 -86q0 -77 112 -77zM203 -10q-73 0 -110.5 28.5t-37.5 79.5q0 48 24.5 73.5t59.5 30.5q-31 4 -52 29.5t-21 66.5q0 54 39 80t98 26t98 -26
t39 -80q0 -41 -21 -66.5t-53 -29.5q36 -5 61 -30.5t25 -73.5q0 -51 -37.5 -79.5t-111.5 -28.5z" />
    <glyph glyph-name="uni2089" unicode="&#x2089;" horiz-adv-x="407" 
d="M180 22q134 -2 134 170q0 4 -1 11q-15 -33 -49 -51t-75 -18q-61 0 -97.5 37t-36.5 100q0 61 38.5 97t100.5 36q80 0 116.5 -52t36.5 -160q0 -202 -167 -202q-55 0 -86 25t-37 61l38 5q12 -58 85 -59zM189 168q54 -2 87 30t27 91q-21 84 -109 83q-46 -1 -74 -26t-28 -75
q0 -100 97 -103z" />
    <glyph glyph-name="uni208A" unicode="&#x208a;" horiz-adv-x="380" 
d="M173 60v133h-133v34h133v133h34v-133h133v-34h-133v-133h-34z" />
    <glyph glyph-name="uni208B" unicode="&#x208b;" horiz-adv-x="380" 
d="M340 193h-300v34h300v-34z" />
    <glyph glyph-name="uni208C" unicode="&#x208c;" horiz-adv-x="380" 
d="M340 133h-300v34h300v-34zM340 253h-300v34h300v-34z" />
    <glyph glyph-name="uni208D" unicode="&#x208d;" horiz-adv-x="210" 
d="M106 197q0 -128 54 -253h-38q-57 120 -57 253t57 253h38q-54 -125 -54 -253z" />
    <glyph glyph-name="uni208E" unicode="&#x208e;" horiz-adv-x="210" 
d="M104 197q0 128 -54 253h38q57 -120 57 -253t-57 -253h-38q54 125 54 253z" />
    <glyph glyph-name="uni20A1" unicode="&#x20a1;" horiz-adv-x="700" 
d="M251 12l-23 -58h-40l30 75q-22 14 -32 22l-38 -97h-40l50 127q-83 98 -83 301q0 194 76.5 293t223.5 99q21 0 55 -4l16 40h40l-18 -46q19 -5 35 -12l23 58h40l-30 -75q78 -48 101 -165l-42 -6q-17 92 -74 133l-256 -648q48 -21 110 -21q100 0 152 43.5t68 128.5l42 -6
q-19 -97 -79 -150.5t-183 -53.5q-67 0 -124 22zM375 736q-260 0 -260 -354q0 -169 60 -258l241 610q-26 2 -41 2zM453 727l-251 -636q20 -18 30 -25l257 650q-12 5 -36 11z" />
    <glyph glyph-name="uni20A2" unicode="&#x20a2;" horiz-adv-x="700" 
d="M574 470q27 0 44 -4l-5 -40q-25 5 -39 5q-82 0 -135 -51.5t-55 -112.5v-239q95 1 145 44.5t66 127.5l42 -6q-19 -97 -79 -150.5t-183 -53.5q-147 0 -223.5 99t-76.5 293t76.5 293t223.5 99q123 0 183 -53.5t79 -150.5l-42 -6q-16 85 -68 128.5t-152 43.5
q-260 0 -260 -354q0 -334 231 -353v323l-5 108h30l14 -110q25 55 78.5 87.5t110.5 32.5z" />
    <glyph glyph-name="uni20A3" unicode="&#x20a3;" horiz-adv-x="620" 
d="M154 466v298h426v-35h-387v-263h256v-35h-256v-86h256v-35h-256v-310h-39v310h-100v35h100v86h-100v35h100z" />
    <glyph glyph-name="uni20A4" unicode="&#x20a4;" horiz-adv-x="680" 
d="M164 442v122q0 102 60.5 156t176.5 54q115 0 165.5 -47t56.5 -118l-39 -6q-11 139 -185 136q-196 -3 -196 -174v-123h256v-35h-256v-86h256v-35h-256v-251h417v-35h-556v35h100v251h-100v35h100v86h-100v35h100z" />
    <glyph glyph-name="uni20A6" unicode="&#x20a6;" horiz-adv-x="730" 
d="M571 0l-181 304h-241v-304h-39v304h-74v35h74v86h-74v35h74v304h49l181 -304h241v304h39v-304h74v-35h-74v-86h74v-35h-74v-304h-49zM584 48l-3 256h-148l41 -68zM146 716l3 -256h147l-40 68zM149 425v-86h220l-52 86h-168zM361 425l51 -86h169v86h-220z" />
    <glyph glyph-name="uni20A7" unicode="&#x20a7;" horiz-adv-x="1422" 
d="M1152 505q-60 0 -107.5 -28.5t-47.5 -88.5q0 -19 3.5 -32.5t14.5 -23t21 -15.5t34 -10.5t40.5 -7t53.5 -6.5q38 -4 60 -7.5t54.5 -13.5t50 -24t31 -39t13.5 -59q0 -81 -62 -120.5t-162 -39.5q-95 0 -149 40q-56 -40 -149 -40q-45 0 -77 12t-49 29t-26.5 47t-11.5 55.5
t-2 64.5v298h-121q-11 -99 -68.5 -137.5t-149.5 -38.5h-206v-320h-40v764h246q102 0 161.5 -48.5t59.5 -173.5v-12h118v140l38 13v-153h173v-34h-173v-325q0 -86 31 -115.5t97 -29.5q77 0 120 32q-23 27 -31 69l42 6q23 -108 166 -108q82 0 132.5 30t50.5 94q0 22 -5.5 38.5
t-20 27.5t-27.5 18.5t-39 12.5t-43.5 7t-51.5 6q-33 3 -53 6.5t-49 12t-45 21t-28 35t-12 53.5q0 76 56 114.5t140 38.5q90 0 143.5 -36.5t65.5 -100.5l-42 -6q-23 108 -168 108zM140 356h222q165 0 165 186t-165 186h-222v-372z" />
    <glyph glyph-name="uni20A8" unicode="&#x20a8;" horiz-adv-x="1117" 
d="M847 505q-60 0 -107.5 -28.5t-47.5 -88.5q0 -19 3.5 -32.5t14.5 -23t21 -15.5t34 -10.5t40.5 -7t53.5 -6.5q38 -4 60 -7.5t54.5 -13.5t50 -24t31 -39t13.5 -59q0 -81 -62 -120.5t-162 -39.5q-49 0 -85 4t-91 23.5t-101 54t-102 101t-107 159.5h-218v-332h-40v764h271
q43 0 76 -8t66 -29.5t50.5 -66.5t17.5 -112q0 -60 -14.5 -103t-41 -66t-56 -33.5t-66.5 -12.5q55 -96 110.5 -159.5t112 -94.5t106 -42.5t111.5 -11.5q82 0 132.5 30t50.5 94q0 22 -5.5 38.5t-20 27.5t-27.5 18.5t-39 12.5t-43.5 7t-51.5 6q-33 3 -53 6.5t-49 12t-45 21
t-28 35t-12 53.5q0 76 56 114.5t140 38.5q90 0 143.5 -36.5t65.5 -100.5l-42 -6q-23 108 -168 108zM140 728v-360h244q32 0 56.5 6.5t49 24t38 55.5t13.5 94t-13.5 94t-38 55.5t-49 24t-56.5 6.5h-244z" />
    <glyph glyph-name="uni20A9" unicode="&#x20a9;" horiz-adv-x="846" 
d="M605 -10l-80 314h-204l-80 -314h-50l-62 314h-88v35h81l-17 86h-64v35h57l-60 304h41l59 -304h183l77 304h50l76 -304h184l59 304h41l-60 -304h57v-35h-64l-17 -86h81v-35h-88l-62 -314h-50zM423 714l-38 -161l-24 -93h124l-24 93zM629 39l35 194l14 71h-114l25 -100z
M217 39l40 165l25 100h-114l14 -71zM352 425l-22 -86h186l-22 86h-142zM533 425l22 -86h130l16 86h-168zM145 425l16 -86h130l21 86h-167z" />
    <glyph glyph-name="uni20AA" unicode="&#x20aa;" horiz-adv-x="665" 
d="M84 764h191q153 0 153 -144v-490h-38v485q0 62 -27 88.5t-88 26.5h-153v-730h-38v764zM428 0h-191v634h38v-600h153q61 0 88 26.5t27 88.5v615h38v-620q0 -144 -153 -144z" />
    <glyph glyph-name="Euro" unicode="&#x20ac;" horiz-adv-x="775" 
d="M40 286v36h112q-2 34 -2 60q0 24 2 60h-112v36h115q36 296 295 296q123 0 183 -53.5t79 -150.5l-42 -6q-16 85 -68 128.5t-152 43.5q-221 0 -253 -258h348l-11 -36h-341q-2 -34 -2 -60t2 -60h303l-11 -36h-288q32 -258 253 -258q100 0 152 43.5t68 128.5l42 -6
q-19 -97 -79 -150.5t-183 -53.5q-259 0 -295 296h-115z" />
    <glyph glyph-name="uni20AE" unicode="&#x20ae;" horiz-adv-x="520" 
d="M406 353l-126 -64v-289h-40v269l-115 -57v42l115 57v80l-115 -57v42l115 57v295h-205v36h450v-36h-205v-275l126 64v-42l-126 -64v-80l126 64v-42z" />
    <glyph glyph-name="uni20B1" unicode="&#x20b1;" horiz-adv-x="660" 
d="M140 320v-320h-40v464h-70v35h70v86h-70v35h70v144h246q180 0 213 -144h65v-35h-59q2 -28 2 -43q0 -17 -2 -43h59v-35h-65q-18 -80 -73.5 -112t-139.5 -32h-206zM140 356h222q125 0 155 108h-377v-108zM140 728v-108h377q-30 108 -155 108h-222zM527 542q0 24 -3 43h-384
v-86h384q3 19 3 43z" />
    <glyph glyph-name="litre" unicode="&#x2113;" horiz-adv-x="350" 
d="M87 283v285q0 206 114 206q45 0 71.5 -34t26.5 -98q0 -103 -54.5 -209.5t-121.5 -167.5v-147q0 -52 17.5 -72t65.5 -20q29 0 53 8l7 -35q-27 -9 -60 -9q-119 0 -119 112v139q-25 -19 -57 -42v43q41 28 57 41zM123 563v-252q59 63 99.5 155.5t40.5 179.5q0 43 -15.5 68.5
t-46.5 25.5q-78 0 -78 -177z" />
    <glyph glyph-name="numero" unicode="&#x2116;" horiz-adv-x="1320" 
d="M1024 224q-112 0 -174 72.5t-62 202.5t62 202.5t174 72.5t174 -72.5t62 -202.5t-62 -202.5t-174 -72.5zM1024 739q-93 0 -143.5 -63t-50.5 -177t50.5 -177t143.5 -63t143.5 63t50.5 177t-50.5 177t-143.5 63zM602 0l-346 528l-120 188l3 -272v-444h-39v764h49l346 -528
l120 -188l-3 272v444h39v-764h-49zM1054 60v-60h-60v60h60z" />
    <glyph glyph-name="servicemark" unicode="&#x2120;" horiz-adv-x="550" 
d="M396 510h-26l-68 156l-17 43l1 -51v-148h-29v270h26l75 -175l25 -61l25 61l75 175h26v-270h-29v148l1 51l-17 -43zM108 506q-90 0 -103 75l30 4q5 -27 21 -39.5t52 -12.5q32 0 52.5 14t20.5 40q0 25 -17 36t-57 15q-28 3 -45.5 8t-32 20.5t-14.5 40.5q0 38 26.5 57.5
t65.5 19.5q89 0 101 -74l-29 -3q-5 26 -20 38.5t-52 12.5q-26 0 -44.5 -12t-18.5 -38q0 -21 14.5 -30t50.5 -13q54 -7 76.5 -21.5t22.5 -56.5q0 -40 -29 -60.5t-71 -20.5z" />
    <glyph glyph-name="trademark" unicode="&#x2122;" horiz-adv-x="540" 
d="M386 510h-26l-68 156l-17 43l1 -51v-148h-29v270h26l75 -175l25 -61l25 61l75 175h26v-270h-29v148l1 51l-17 -43zM116 751v-241h-31v241h-85v29h201v-29h-85z" />
    <glyph glyph-name="ohm" unicode="&#x2126;" horiz-adv-x="700" 
d="M350 774q149 0 233.5 -86.5t84.5 -237.5q0 -116 -57 -227.5t-142 -189.5l112 1h98v-34h-262v27q84 68 148 183t64 240q0 136 -75.5 212t-203.5 76t-203.5 -76t-75.5 -212q0 -125 64 -240t148 -183v-27h-262v34h98l112 -1q-85 78 -142 189.5t-57 227.5q0 151 84.5 237.5
t233.5 86.5z" />
    <glyph glyph-name="estimated" unicode="&#x212e;" horiz-adv-x="810" 
d="M795 373h-676q2 -68 19.5 -128t51 -110t89.5 -79.5t129 -30.5q142 -2 229.5 61t96.5 179h46q-20 -139 -118 -207t-257 -68q-174 0 -282 109t-108 291t108 291t282 109t282 -109t108 -291v-17zM405 756q-58 0 -106 -19.5t-80 -53t-54.5 -78.5t-33 -94.5t-12.5 -103.5h572
q-2 68 -19.5 128.5t-50.5 111t-88.5 80t-127.5 29.5z" />
    <glyph glyph-name="arrowleft" unicode="&#x2190;" horiz-adv-x="860" 
d="M30 382v16l400 268v-44l-195 -127l-139 -89l144 1h580v-34h-580l-144 1l139 -89l195 -127v-44z" />
    <glyph glyph-name="arrowup" unicode="&#x2191;" horiz-adv-x="860" 
d="M422 790h16l268 -400h-44l-127 195l-89 139l1 -144v-580h-34v580l1 144l-89 -139l-127 -195h-44z" />
    <glyph glyph-name="arrowright" unicode="&#x2192;" horiz-adv-x="860" 
d="M830 398v-16l-400 -268v44l195 127l139 89l-144 -1h-580v34h580l144 -1l-139 89l-195 127v44z" />
    <glyph glyph-name="arrowdown" unicode="&#x2193;" horiz-adv-x="860" 
d="M438 -10h-16l-268 400h44l127 -195l89 -139l-1 144v580h34v-580l-1 -144l89 139l127 195h44z" />
    <glyph glyph-name="uni2196" unicode="&#x2196;" horiz-adv-x="860" 
d="M25 779l11 11l473 -93l-31 -31l-228 48l-161 35l102 -101l410 -410l-24 -24l-410 410l-101 102l35 -161l48 -228l-31 -31z" />
    <glyph glyph-name="uni2197" unicode="&#x2197;" horiz-adv-x="860" 
d="M824 790l11 -11l-93 -473l-31 31l48 228l35 161l-101 -102l-410 -410l-24 24l410 410l102 101l-161 -35l-228 -48l-31 31z" />
    <glyph glyph-name="uni2198" unicode="&#x2198;" horiz-adv-x="860" 
d="M36 -10l-11 11l93 473l31 -31l-48 -228l-35 -161l101 102l410 410l24 -24l-410 -410l-102 -101l161 35l228 48l31 -31z" />
    <glyph glyph-name="uni2199" unicode="&#x2199;" horiz-adv-x="860" 
d="M835 1l-11 -11l-473 93l31 31l228 -48l161 -35l-102 101l-410 410l24 24l410 -410l101 -102l-35 161l-48 228l31 31z" />
    <glyph glyph-name="partialdiff" unicode="&#x2202;" horiz-adv-x="690" 
d="M110 692l-16 30q95 52 205 52q149 0 230 -101t81 -291q0 -198 -67.5 -295t-212.5 -97q-116 0 -190.5 65.5t-74.5 179.5q0 118 66.5 181t178.5 63q53 0 101.5 -14t93.5 -52.5t63 -98.5q0 2 0.5 11.5t1 24.5t0.5 32q0 180 -73 269t-197 89q-97 0 -190 -48zM310 442
q-92 -1 -148.5 -51.5t-56.5 -155.5t65.5 -156.5t159.5 -53.5q175 -3 221 172q1 10 1 32q0 99 -71.5 156.5t-170.5 56.5z" />
    <glyph glyph-name="increment" unicode="&#x2206;" horiz-adv-x="860" 
d="M56 0v26l358 748h32l358 -748v-26h-748zM628 34l134 -1l-272 569l-60 132l-60 -132l-272 -570l134 2h396z" />
    <glyph glyph-name="product" unicode="&#x220f;" horiz-adv-x="750" 
d="M589 730v-730h-38v730h-352v-730h-38v730h-136v34h700v-34h-136z" />
    <glyph glyph-name="summation" unicode="&#x2211;" horiz-adv-x="690" 
d="M118 764h486v-34h-258l-190 1l349 -328v-21l-376 -349l191 1h310v-34h-544v39l385 353l-353 332v40z" />
    <glyph glyph-name="minus" unicode="&#x2212;" horiz-adv-x="490" 
d="M440 373h-390v34h390v-34z" />
    <glyph glyph-name="radical" unicode="&#x221a;" horiz-adv-x="750" 
d="M40 478v33l124 29l80 -335l38 -170l85 151l332 578h42l-446 -774h-35l-120 511z" />
    <glyph glyph-name="infinity" unicode="&#x221e;" horiz-adv-x="800" 
d="M737 390q0 -67 -41.5 -102.5t-110.5 -35.5q-98 0 -185 109q-89 -109 -185 -109q-69 0 -110.5 35.5t-41.5 102.5t41.5 102.5t110.5 35.5q94 0 185 -109q89 109 185 109q69 0 110.5 -35.5t41.5 -102.5zM216 494q-51 2 -84.5 -22.5t-33.5 -81.5t33.5 -81.5t84.5 -22.5
q94 4 162 104q-68 100 -162 104zM702 390q0 57 -33.5 81.5t-83.5 22.5q-95 -4 -163 -104q68 -100 163 -104q50 -2 83.5 22.5t33.5 81.5z" />
    <glyph glyph-name="integral" unicode="&#x222b;" horiz-adv-x="236" 
d="M265 738q-66 0 -97 -29.5t-31 -115.5v-595q0 -39 -2 -64.5t-11.5 -55.5t-26.5 -47t-49 -29t-77 -12q-35 0 -57 9l8 36q21 -9 49 -9q66 0 97 29.5t31 115.5v595q0 39 2 64.5t11.5 55.5t26.5 47t49 29t77 12q35 0 57 -9l-8 -36q-21 9 -49 9z" />
    <glyph glyph-name="approxequal" unicode="&#x2248;" horiz-adv-x="490" 
d="M435 318l-21 -26q-27 34 -74 34q-36 0 -91 -33.5t-99 -33.5q-63 0 -95 45l21 26q27 -34 74 -34q36 0 91 33.5t99 33.5q63 0 95 -45zM435 476l-21 -26q-27 34 -74 34q-36 0 -91 -33.5t-99 -33.5q-63 0 -95 45l21 26q27 -34 74 -34q36 0 91 33.5t99 33.5q63 0 95 -45z" />
    <glyph glyph-name="notequal" unicode="&#x2260;" horiz-adv-x="490" 
d="M440 453h-132l-84 -126h216v-34h-239l-73 -110h-42l73 110h-109v34h132l84 126h-216v34h238l74 110h42l-74 -110h110v-34z" />
    <glyph glyph-name="lessequal" unicode="&#x2264;" horiz-adv-x="490" 
d="M80 459l169 -70l191 -81v-39l-390 171v38l390 171v-39l-191 -81zM440 131l-390 171v35l390 -171v-35z" />
    <glyph glyph-name="greaterequal" unicode="&#x2265;" horiz-adv-x="490" 
d="M241 389l169 70l-169 70l-191 81v39l390 -171v-38l-390 -171v39zM440 302l-390 -171v35l390 171v-35z" />
    <glyph glyph-name="filledbox" unicode="&#x25a0;" horiz-adv-x="980" 
d="M519 390l261 -261l-29 -29l-261 261l-261 -261l-29 29l261 261l-261 261l29 29l261 -261l261 261l29 -29zM100 0v780h780v-780h-780zM840 744h-700v-708h700v708z" />
    <glyph glyph-name="whitesquare" unicode="&#x25a1;" horiz-adv-x="980" 
d="M100 0v780h780v-780h-780zM840 744h-700v-708h700v708z" />
    <glyph glyph-name="blacksmallsquare" unicode="&#x25aa;" horiz-adv-x="730" 
d="M630 530v-530h-530v530h530z" />
    <glyph glyph-name="whitesmallsquare" unicode="&#x25ab;" horiz-adv-x="730" 
d="M100 0v530h530v-530h-530zM590 494h-450v-458h450v458z" />
    <glyph glyph-name="uni25B2" unicode="&#x25b2;" horiz-adv-x="800" 
d="M790 0h-780l390 676z" />
    <glyph glyph-name="uni25B6" unicode="&#x25b6;" horiz-adv-x="800" 
d="M34 0v780l676 -390z" />
    <glyph glyph-name="uni25BC" unicode="&#x25bc;" horiz-adv-x="800" 
d="M10 780h780l-390 -676z" />
    <glyph glyph-name="uni25C0" unicode="&#x25c0;" horiz-adv-x="800" 
d="M710 780v-780l-676 390z" />
    <glyph glyph-name="lozenge" unicode="&#x25ca;" horiz-adv-x="900" 
d="M450 42l318 348l-318 348l-318 -348zM450 -10l-368 400l368 400l368 -400z" />
    <glyph glyph-name="circle" unicode="&#x25cb;" horiz-adv-x="730" 
d="M90 265q0 114 80.5 194.5t194.5 80.5t194.5 -80.5t80.5 -194.5t-80.5 -194.5t-194.5 -80.5t-194.5 80.5t-80.5 194.5z" />
    <glyph glyph-name="blackcircle" unicode="&#x25cf;" horiz-adv-x="980" 
d="M90 390q0 166 117 283t283 117t283 -117t117 -283t-117 -283t-283 -117t-283 117t-117 283z" />
    <glyph glyph-name="uni25E2" unicode="&#x25e2;" horiz-adv-x="800" 
d="M26 202l552 552l202 -754z" />
    <glyph glyph-name="uni25E3" unicode="&#x25e3;" horiz-adv-x="800" 
d="M222 754l552 -552l-754 -202z" />
    <glyph glyph-name="uni25E4" unicode="&#x25e4;" horiz-adv-x="800" 
d="M774 578l-552 -552l-202 754z" />
    <glyph glyph-name="uni25E5" unicode="&#x25e5;" horiz-adv-x="800" 
d="M578 26l-552 552l754 202z" />
    <glyph glyph-name="whitecircle" unicode="&#x25ef;" horiz-adv-x="980" 
d="M90 390q0 166 117 283t283 117t283 -117t117 -283t-117 -283t-283 -117t-283 117t-117 283zM846 390q0 150 -103.5 256t-252.5 106t-252.5 -106t-103.5 -256t103.5 -256t252.5 -106t252.5 106t103.5 256z" />
    <glyph glyph-name="blacksquare" unicode="&#x25fc;" horiz-adv-x="980" 
d="M880 780v-780h-780v780h780z" />
    <glyph glyph-name="uni2600" unicode="&#x2600;" horiz-adv-x="985" 
d="M493 565q112 0 191 -79t79 -191t-79 -190.5t-191 -78.5t-190.5 78.5t-78.5 190.5t78.5 191t190.5 79zM493 89q86 0 146.5 60.5t60.5 145.5t-61 146t-146 61t-145.5 -60.5t-60.5 -146.5q0 -85 60.5 -145.5t145.5 -60.5zM27 345l11 63l160 -29l-11 -62zM960 345l-160 -28
l-11 62l160 29zM883 33l-141 82l32 54l141 -81zM104 33l-32 55l141 81l32 -54zM915 502l-141 -81l-32 54l141 82zM72 502l32 55l141 -82l-32 -54zM217 -84l-49 40l105 125l48 -41zM819 634l-105 -125l-48 41l104 124zM770 -84l-104 124l48 41l105 -125zM168 634l49 40
l104 -124l-48 -41zM462 -174v163h63v-163h-63zM525 764v-163h-63v163h63zM38 183l-11 62l160 28l11 -62zM949 183l-160 28l11 62l160 -28zM624 -156l-56 153l59 21l56 -153zM363 -156l-59 21l56 153l59 -21zM304 725l59 21l56 -152l-59 -22zM683 725l-56 -153l-59 22l56 152
z" />
    <glyph glyph-name="uni2601" unicode="&#x2601;" horiz-adv-x="1350" 
d="M257 637q54 90 146.5 143.5t200.5 53.5q133 0 238.5 -77.5t145.5 -200.5q1 1 3 1q34 8 65 8q112 0 190.5 -79t78.5 -191t-78.5 -190.5t-190.5 -78.5h-721q-129 0 -219.5 91t-90.5 219q0 107 65.5 190.5t166.5 110.5zM917 295q28 65 28 136q0 141 -100 240.5t-241 99.5
q-78 0 -147 -33.5t-116 -91.5q127 -2 215.5 -92.5t88.5 -217.5q0 -15 -2 -41h-64q3 20 3 41q0 103 -72.5 175t-174.5 72q-103 0 -175 -72t-72 -175t72 -175t175 -72h721q86 0 146 60.5t60 145.5q0 86 -60 146.5t-146 60.5q-26 0 -50 -6h-1q-1 -1 -2 -1q5 -35 5 -64
q0 -70 -23 -136h-68z" />
    <glyph glyph-name="uni2602" unicode="&#x2602;" horiz-adv-x="1350" 
d="M257 637q54 90 146.5 143.5t200.5 53.5q133 0 238.5 -77.5t145.5 -200.5q1 1 3 1q34 8 65 8q112 0 190.5 -79t78.5 -191t-78.5 -190.5t-190.5 -78.5h-721q-129 0 -219.5 91t-90.5 219q0 107 65.5 190.5t166.5 110.5zM985 295h-68q28 65 28 136q0 141 -100 240.5
t-241 99.5q-78 0 -147 -33.5t-116 -91.5q127 -2 215.5 -92.5t88.5 -217.5q0 -15 -2 -41h-64q3 20 3 41q0 103 -72.5 175t-174.5 72q-103 0 -175 -72t-72 -175t72 -175t175 -72h721q86 0 146 60.5t60 145.5q0 86 -60 146.5t-146 60.5q-26 0 -50 -6h-1q-1 -1 -2 -1
q5 -35 5 -64q0 -70 -23 -136zM583 -10l-59 -163h-67l59 163h67zM1019 -10l-59 -163h-67l59 163h67zM801 -10l-59 -163h-67l59 163h67zM365 -10l-59 -163h-67l59 163h67z" />
    <glyph glyph-name="uni2603" unicode="&#x2603;" horiz-adv-x="894" 
d="M681 196l138 80l31 -54l-106 -62l125 -72l-32 -54l-122 70v-117h-63v153l-174 101v-198l138 -79l-31 -55l-107 62v-145h-63v142l-101 -59l-31 55l132 76v201l-170 -99v-160h-63v124l-125 -72l-32 54l122 71l-101 58l32 55l132 -77l174 100l-171 99l-138 -80l-32 55
l107 61l-125 72l32 55l122 -71v117h63v-153l173 -100v197l-138 79l32 55l106 -61v144h63v-141l101 58l32 -54l-133 -77v-200l171 98v160h63v-123l125 72l32 -55l-123 -70l101 -59l-31 -54l-133 76l-173 -100z" />
    <glyph glyph-name="uni2605" unicode="&#x2605;" horiz-adv-x="880" 
d="M440 180l-260 -190l99 307l-260 189h322l99 306l99 -306h322l-260 -189l99 -307z" />
    <glyph glyph-name="uni2607" unicode="&#x2607;" horiz-adv-x="1351" 
d="M917 296q28 64 28 135q0 141 -99.5 240.5t-240.5 99.5q-78 0 -147 -33t-117 -91q127 -3 216 -93.5t89 -217.5q0 -22 -3 -40h-63q3 18 3 40q0 103 -72.5 175.5t-175.5 72.5q-102 0 -174.5 -72.5t-72.5 -175.5q0 -102 72.5 -174.5t174.5 -72.5l72 -63h-72q-128 0 -219 91
t-91 219q0 108 65.5 191t167.5 110q53 90 145.5 143.5t201.5 53.5q133 0 238.5 -77.5t144.5 -199.5h4q27 8 64 8q112 0 191 -78.5t79 -190.5t-79 -191t-191 -79l-69 63h69q86 0 146.5 60.5t60.5 146.5q0 85 -60.5 145.5t-146.5 60.5q-25 0 -49 -6h-4q5 -35 5 -65
q0 -71 -23 -135h-68zM670 262h177l-113 -168l75 -68l-225 -225h-6l96 207l-91 81zM870 262h177l-113 -168l75 -68l-225 -225h-6l96 207l-91 81zM647 262l-113 -168l75 -68l-225 -225h-6l96 207l-91 81l87 173h177z" />
    <glyph glyph-name="filledsmallbox" unicode="&#x2612;" horiz-adv-x="730" 
d="M394 265l136 -136l-29 -29l-136 136l-136 -136l-29 29l136 136l-136 136l29 29l136 -136l136 136l29 -29zM100 0v530h530v-530h-530zM590 494h-450v-458h450v458z" />
    <glyph glyph-name="uni2614" unicode="&#x2614;" horiz-adv-x="1350" 
d="M917 295q28 65 28 136q0 140 -100 240t-241 100q-78 0 -147 -33.5t-116 -91.5q127 -2 215.5 -92.5t88.5 -217.5q0 -15 -2 -41h-64q3 20 3 41q0 102 -72.5 174.5t-174.5 72.5q-103 0 -175 -72.5t-72 -174.5q0 -92 59 -161.5t148 -83.5l-22 -60q-107 22 -177.5 107.5
t-70.5 197.5q0 107 65.5 190.5t166.5 109.5q54 91 146 144.5t201 53.5q133 0 238.5 -77.5t145.5 -200.5h1q1 1 2 1q34 8 65 8q112 0 190.5 -79t78.5 -191q0 -106 -72.5 -183.5t-177.5 -85.5l25 67q70 15 116 71.5t46 130.5q0 86 -60.5 146.5t-145.5 60.5q-26 0 -50 -6
q-1 -1 -3 -1q5 -35 5 -64q0 -70 -23 -136h-68zM1056 89l-96 -263h-67l96 263h67zM947 89l-96 -263h-67l96 263h67zM838 89l-96 -263h-67l96 263h67zM729 89l-96 -263h-67l96 263h67zM511 89l-96 -263h-67l96 263h67zM620 89l-96 -263h-67l96 263h67zM402 89l-96 -263h-67
l96 263h67z" />
    <glyph glyph-name="uni263C" unicode="&#x263c;" horiz-adv-x="960" 
d="M880 390l-169 -30l155 -73l-171 15l132 -112l-162 59l98 -141l-141 98l58 -162l-111 130l15 -170l-74 155l-30 -169l-30 169l-74 -155l15 170l-111 -130l58 162l-141 -98l98 141l-162 -59l132 112l-171 -15l155 73l-169 30l169 30l-155 73l171 -15l-132 112l162 -59
l-98 141l141 -98l-58 162l111 -130l-15 170l74 -155l30 169l30 -169l74 155l-15 -170l111 130l-58 -162l141 98l-98 -141l162 59l-132 -112l171 15l-155 -73z" />
    <glyph glyph-name="uni263E" unicode="&#x263e;" horiz-adv-x="960" 
d="M624 728q-134 0 -229 -99t-95 -239t95 -239t229 -99q50 0 96 15q-107 -77 -240 -77q-166 0 -283 117t-117 283t117 283t283 117q131 0 240 -77q-52 15 -96 15z" />
    <glyph glyph-name="uni2660" unicode="&#x2660;" horiz-adv-x="900" 
d="M451 790q32 -48 97 -116t136 -114q78 -51 121 -103t43 -123q0 -73 -51 -123.5t-125 -50.5q-69 0 -120.5 46t-79.5 115l-3 -1q8 -102 26.5 -174t55.5 -146h-202q37 74 55.5 146t26.5 174l-3 1q-28 -69 -79.5 -115t-120.5 -46q-74 0 -125 50.5t-51 123.5q0 71 43 123
t121 103q71 46 136 114t97 116h2z" />
    <glyph glyph-name="uni2663" unicode="&#x2663;" horiz-adv-x="900" 
d="M349 0q37 74 55.5 146t26.5 174l-3 1q-28 -69 -79.5 -115t-120.5 -46q-74 0 -125 50.5t-51 123.5q0 79 48.5 129.5t125.5 50.5q40 0 84 -23l2 2q-38 57 -38 117q0 75 50.5 127.5t125.5 52.5t125.5 -52.5t50.5 -127.5q0 -60 -38 -117l2 -2q44 23 84 23q77 0 125.5 -50.5
t48.5 -129.5q0 -73 -51 -123.5t-125 -50.5q-69 0 -120.5 46t-79.5 115l-3 -1q8 -102 26.5 -174t55.5 -146h-202z" />
    <glyph glyph-name="uni2665" unicode="&#x2665;" horiz-adv-x="900" 
d="M451 -10h-2q-28 43 -94 126.5t-139 166.5q-164 185 -164 301q0 90 52 148t139 58q85 0 132.5 -42.5t72.5 -114.5h4q25 72 72.5 114.5t132.5 42.5q87 0 139 -58t52 -148q0 -116 -164 -301q-73 -83 -139 -166.5t-94 -126.5z" />
    <glyph glyph-name="uni2666" unicode="&#x2666;" horiz-adv-x="900" 
d="M817 390q-106 -83 -202.5 -188.5t-163.5 -211.5h-2q-67 106 -163.5 211.5t-202.5 188.5q106 83 202.5 188.5t163.5 211.5h2q67 -106 163.5 -211.5t202.5 -188.5z" />
    <glyph glyph-name="musicflatsign" unicode="&#x266d;" horiz-adv-x="475" 
d="M73 -33v853h38v-381q20 43 67 73.5t94 30.5q81 0 123 -46.5t42 -132.5q0 -74 -30.5 -141t-82 -116.5t-116 -85.5t-135.5 -54zM111 346v-328q34 12 68.5 28.5t74 46t69.5 64.5t50 86t20 109q0 148 -126 148q-62 0 -108 -50t-48 -104z" />
    <glyph glyph-name="musicnaturalsign" unicode="&#x266e;" horiz-adv-x="378" 
d="M305 657v-707h-36v330l-196 -157v707h36v-330zM109 441v-230l160 128v230z" />
    <glyph glyph-name="musicsharpsign" unicode="&#x266f;" horiz-adv-x="466" 
d="M313 0v280l-160 -128v-252h-36v223l-97 -78v59l97 78v230l-97 -78v59l97 78v309h36v-280l160 128v252h36v-223l97 78v-59l-97 -78v-230l97 78v-59l-97 -78v-309h-36zM153 441v-230l160 128v230z" />
    <glyph glyph-name="uni267B" unicode="&#x267b;" horiz-adv-x="960" 
d="M863 266l1 -2l-96 -167q-15 -22 -21.5 -30t-24 -17t-42.5 -9h-57v-49l-113 136l113 135v-49h145q26 0 50 13t34 26zM186 122h-2l-96 168q-11 21 -15 32t-3 30.5t14 40.5l28 49l-42 24l174 31l59 -166l-41 24q-70 -120 -72 -125q-13 -23 -14 -50t4 -42zM404 779v1h193
q24 -1 36 -2.5t28 -12.5t28 -32l28 -49l43 24l-61 -166l-173 31l41 24l-72 125q-13 23 -36 37.5t-39 16.5zM200 598l67 119q10 17 34 31q46 24 97 10t68 -45l-116 -201zM446 41h-135q-22 0 -44 13q-43 25 -57.5 79.5t4.5 80.5h232v-173zM806 527l69 -117q10 -18 10 -44
q1 -48 -38 -87t-74 -39l-116 201z" />
    <glyph glyph-name="uni267C" unicode="&#x267c;" horiz-adv-x="960" 
d="M880 389q0 -166 -116.5 -282.5t-282.5 -116.5q-167 0 -284 116.5t-117 282.5q0 167 117 284t284 117q166 0 282.5 -117t116.5 -284zM313 645l-52 -92l116 -67l90 156q-13 24 -52.5 34.5t-75.5 -7.5q-18 -11 -26 -24zM415 694v-1q48 -5 71 -44l56 -97l-32 -19l134 -24
l47 129l-33 -19l-22 38q-14 24 -29.5 30.5t-41.5 6.5h-150zM343 121h105v134h-180q-15 -20 -3.5 -62.5t44.5 -61.5q17 -10 34 -10zM249 184h1q-20 44 3 84l56 97l32 -19l-46 129l-135 -24l33 -19l-22 -38q-10 -16 -11 -31.5t2 -23.5t12 -25zM784 407l-53 91l-116 -67
l90 -156q27 0 57.5 30t29.5 68q0 20 -8 34zM776 294l-1 1q-3 -4 -9 -11t-25.5 -18t-39.5 -11h-112v38l-88 -105l88 -105v38h44q28 0 41.5 10.5t26.5 32.5z" />
    <glyph glyph-name="uni267D" unicode="&#x267d;" horiz-adv-x="960" 
d="M880 389q0 -166 -116.5 -282.5t-282.5 -116.5q-167 0 -284 116.5t-117 282.5q0 167 117 284t284 117q166 0 282.5 -117t116.5 -284zM860 389q0 158 -111 269.5t-268 111.5q-158 0 -269.5 -111.5t-111.5 -269.5q0 -157 111.5 -268t269.5 -111q157 0 268 111t111 268z
M261 553l52 92q8 13 26 24q36 18 75.5 7.5t52.5 -34.5l-90 -156zM415 693v1h150q26 0 41.5 -6.5t29.5 -30.5l22 -38l33 19l-47 -129l-134 24l32 19l-56 97q-10 17 -28 28t-30 13zM448 121h-105q-17 0 -34 10q-33 19 -44.5 61.5t3.5 62.5h180v-134zM250 184h-1l-75 130
q-9 17 -12 25t-2 23.5t11 31.5l22 38l-33 19l135 24l46 -129l-32 19l-56 -97q-10 -18 -11 -39t4 -33zM731 498l53 -91q8 -14 8 -34q1 -38 -29.5 -68t-57.5 -30l-90 156zM775 295l1 -1l-75 -130q-9 -15 -15 -22.5t-20 -14t-33 -6.5h-44v-38l-88 105l88 105v-38h112
q20 0 38.5 10t26.5 20z" />
    <glyph glyph-name="anglebracketleft" unicode="&#x3008;" horiz-adv-x="240" 
d="M195 830l-117 -480l117 -480h-35l-120 480l120 480h35z" />
    <glyph glyph-name="anglebracketright" unicode="&#x3009;" horiz-adv-x="240" 
d="M162 350l-117 480h35l120 -480l-120 -480h-35z" />
    <glyph glyph-name="Adoublegrave" unicode="&#xf000;" horiz-adv-x="740" 
d="M647 0l-99 265h-356l-99 -265h-44l300 790h42l300 -790h-44zM370 744l-85 -231l-80 -212h329l-79 212zM325 1030h47l94 -208h-35zM185 1030h47l94 -208h-35z" />
    <glyph glyph-name="Anocross" unicode="&#xf001;" horiz-adv-x="740" 
d="M285 513l-192 -513h-44l300 790h42l300 -790h-44l-192 513l-85 231z" />
    <glyph glyph-name="Edoublegrave" unicode="&#xf002;" horiz-adv-x="715" 
d="M100 780h520v-36h-480v-326h440v-36h-440v-346h500v-36h-540v780zM324 1030h47l94 -208h-35zM184 1030h47l94 -208h-35z" />
    <glyph glyph-name="Gtilde" unicode="&#xf003;" horiz-adv-x="789" 
d="M400 26q164 -3 254 70v258h-200v36h240v-312q-116 -90 -294 -88q-167 0 -248.5 105t-81.5 295t81.5 295t248.5 105q252 0 292 -204l-42 -6q-32 177 -250 174q-288 -4 -288 -364t288 -364zM557 970l28 -5q-5 -41 -35.5 -66t-70.5 -23t-87 36t-76 36q-30 2 -51 -14t-26 -49
l-28 5q5 41 35.5 66t70.5 23t87 -36t76 -36q30 -2 51 14t26 49z" />
    <glyph glyph-name="Hcaron" unicode="&#xf004;" horiz-adv-x="750" 
d="M610 780h40v-780h-40v382h-470v-382h-40v780h40v-362h470v362zM200 1030h38l137 -175l137 175h38l-153 -208h-44z" />
    <glyph glyph-name="Idoublegrave" unicode="&#xf005;" horiz-adv-x="280" 
d="M160 780v-780h-40v780h40zM94 1030h47l94 -208h-35zM-46 1030h47l94 -208h-35z" />
    <glyph glyph-name="Kcedilla" unicode="&#xf006;" horiz-adv-x="715" 
d="M140 780v-477l439 477h56l-328 -351l356 -429h-53l-329 401l-141 -151v-250h-40v780h40zM300 -68l10 29q135 -10 135 -89q0 -41 -30 -61.5t-79 -20.5t-79 17l10 29q27 -15 61 -16q82 -2 82 51q0 22 -17 35t-36 17.5t-46 7.5q-8 1 -11 1z" />
    <glyph glyph-name="Lcedilla" unicode="&#xf007;" horiz-adv-x="605" 
d="M140 780v-744h440v-36h-480v780h40zM304 -68l10 29q135 -10 135 -89q0 -41 -30 -61.5t-79 -20.5t-79 17l10 29q27 -15 61 -16q82 -2 82 51q0 22 -17 35t-36 17.5t-46 7.5q-8 1 -11 1z" />
    <glyph glyph-name="Ngrave" unicode="&#xf008;" horiz-adv-x="761" 
d="M612 0l-356 544l-120 188l3 -272v-460h-39v780h49l356 -544l120 -188l-3 272v460h39v-780h-49zM257 1030h47l94 -208h-35z" />
    <glyph glyph-name="Ncedilla" unicode="&#xf009;" horiz-adv-x="761" 
d="M612 0l-356 544l-120 188l3 -272v-460h-39v780h49l356 -544l120 -188l-3 272v460h39v-780h-49zM334 -68l10 29q135 -10 135 -89q0 -41 -30 -61.5t-79 -20.5t-79 17l10 29q27 -15 61 -16q82 -2 82 51q0 22 -17 35t-36 17.5t-46 7.5q-8 1 -11 1z" />
    <glyph glyph-name="Odoublegrave" unicode="&#xf010;" horiz-adv-x="800" 
d="M400 -10q-171 0 -250.5 107.5t-79.5 292.5t79.5 292.5t250.5 107.5t250.5 -107.5t79.5 -292.5t-79.5 -292.5t-250.5 -107.5zM400 754q-79 0 -136 -27.5t-89.5 -78.5t-47.5 -114.5t-15 -143.5t15 -143.5t47.5 -114.5t89.5 -78.5t136 -27.5t136 27.5t89.5 78.5t47.5 114.5
t15 143.5t-15 143.5t-47.5 114.5t-89.5 78.5t-136 27.5zM354 1030h47l94 -208h-35zM214 1030h47l94 -208h-35z" />
    <glyph glyph-name="Ounderlineaccent" unicode="&#xf011;" horiz-adv-x="800" 
d="M400 -10q-171 0 -250.5 107.5t-79.5 292.5t79.5 292.5t250.5 107.5t250.5 -107.5t79.5 -292.5t-79.5 -292.5t-250.5 -107.5zM400 754q-79 0 -136 -27.5t-89.5 -78.5t-47.5 -114.5t-15 -143.5t15 -143.5t47.5 -114.5t89.5 -78.5t136 -27.5t136 27.5t89.5 78.5t47.5 114.5
t15 143.5t-15 143.5t-47.5 114.5t-89.5 78.5t-136 27.5zM417 -200h-34v160h34v-160z" />
    <glyph glyph-name="Rdoublegrave" unicode="&#xf012;" horiz-adv-x="710" 
d="M614 0l-209 348h-265v-348h-40v780h321q43 0 76 -8t66 -29.5t50.5 -66.5t17.5 -112q0 -61 -14.5 -103.5t-41.5 -65.5t-56.5 -33.5t-67.5 -12.5l212 -349h-49zM140 744v-360h294q32 0 56.5 6.5t49 24t38 55.5t13.5 94t-13.5 94t-38 55.5t-49 24t-56.5 6.5h-294zM310 1030
h47l94 -208h-35zM170 1030h47l94 -208h-35z" />
    <glyph glyph-name="Rcedilla" unicode="&#xf013;" horiz-adv-x="710" 
d="M614 0l-209 348h-265v-348h-40v780h321q43 0 76 -8t66 -29.5t50.5 -66.5t17.5 -112q0 -61 -14.5 -103.5t-41.5 -65.5t-56.5 -33.5t-67.5 -12.5l212 -349h-49zM140 744v-360h294q32 0 56.5 6.5t49 24t38 55.5t13.5 94t-13.5 94t-38 55.5t-49 24t-56.5 6.5h-294zM300 -68
l10 29q135 -10 135 -89q0 -41 -30 -61.5t-79 -20.5t-79 17l10 29q27 -15 61 -16q82 -2 82 51q0 22 -17 35t-36 17.5t-46 7.5q-8 1 -11 1z" />
    <glyph glyph-name="Udoublegrave" unicode="&#xf014;" horiz-adv-x="784" 
d="M392 -10q-165 0 -236 69t-71 200v521h41v-528q0 -109 60 -167t206 -58t206 58t60 167v528h41v-521q0 -131 -71 -200t-236 -69zM206 1030h47l94 -208h-35zM346 1030h47l94 -208h-35z" />
    <glyph glyph-name="UE" unicode="&#xf015;" horiz-adv-x="1233" 
d="M618 780h520v-36h-480v-326h440v-36h-440v-346h500v-36h-766q-165 0 -236 69t-71 200v511h41v-518q0 -109 60 -167.5t206 -58.5h226v744z" />
    <glyph glyph-name="Ymacron" unicode="&#xf016;" horiz-adv-x="670" 
d="M20 780h49l164 -262l102 -164l102 164l164 262h49l-295 -463v-317h-40v317zM199 927v32h272v-32h-272z" />
    <glyph glyph-name="Yoghcaron" unicode="&#xf017;" horiz-adv-x="710" 
d="M341 -174q131 2 206.5 67.5t75.5 194.5q0 140 -70 201t-210 61q-14 0 -29 -2.5t-23 -5.5l-8 -2l-17 21l200 251l108 134l-188 -1h-300v35h532v-33l-288 -363q71 3 129 -10.5t105.5 -46t74 -93.5t26.5 -146q0 -143 -90 -220.5t-234 -77.5q-135 0 -206.5 55t-85.5 149l42 6
q12 -84 74.5 -129.5t175.5 -44.5zM167 1030h38l137 -175l137 175h38l-153 -208h-44z" />
    <glyph glyph-name="adoublegrave" unicode="&#xf018;" horiz-adv-x="561" 
d="M62 138q0 73 49 110t141 51l192 29v42q0 74 -40.5 104.5t-122.5 32.5q-131 3 -152 -101l-40 5q28 129 192 129q97 0 149 -43.5t52 -130.5v-258l5 -108h-30l-13 100q-30 -56 -88.5 -83t-122.5 -27q-83 0 -127 40.5t-44 107.5zM103 138q0 -55 33.5 -84t96.5 -29
q159 0 211 133v137l-197 -31q-70 -11 -107 -38t-37 -88zM235 800h47l94 -208h-35zM95 800h47l94 -208h-35z" />
    <glyph glyph-name="a.hist" unicode="&#xf019;" horiz-adv-x="595" 
d="M511 108l5 -108h-30l-13 100q-27 -51 -81 -80.5t-111 -29.5q-103 0 -162 75t-59 200t59 200t162 75q57 0 111 -29.5t81 -80.5l13 100h30l-5 -108v-314zM102 265q0 -110 48.5 -175t132.5 -65q78 0 124 40.5t66 92.5v214q-20 52 -66 92.5t-124 40.5q-84 0 -132.5 -65
t-48.5 -175z" />
    <glyph glyph-name="aacute.hist" unicode="&#xf020;" horiz-adv-x="595" 
d="M511 108l5 -108h-30l-13 100q-27 -51 -81 -80.5t-111 -29.5q-103 0 -162 75t-59 200t59 200t162 75q57 0 111 -29.5t81 -80.5l13 100h30l-5 -108v-314zM102 265q0 -110 48.5 -175t132.5 -65q78 0 124 40.5t66 92.5v214q-20 52 -66 92.5t-124 40.5q-84 0 -132.5 -65
t-48.5 -175zM359 800h47l-106 -208h-35z" />
    <glyph glyph-name="agrave.hist" unicode="&#xf021;" horiz-adv-x="595" 
d="M511 108l5 -108h-30l-13 100q-27 -51 -81 -80.5t-111 -29.5q-103 0 -162 75t-59 200t59 200t162 75q57 0 111 -29.5t81 -80.5l13 100h30l-5 -108v-314zM102 265q0 -110 48.5 -175t132.5 -65q78 0 124 40.5t66 92.5v214q-20 52 -66 92.5t-124 40.5q-84 0 -132.5 -65
t-48.5 -175zM160 800h47l94 -208h-35z" />
    <glyph glyph-name="acircumflex.hist" unicode="&#xf022;" horiz-adv-x="595" 
d="M511 108l5 -108h-30l-13 100q-27 -51 -81 -80.5t-111 -29.5q-103 0 -162 75t-59 200t59 200t162 75q57 0 111 -29.5t81 -80.5l13 100h30l-5 -108v-314zM102 265q0 -110 48.5 -175t132.5 -65q78 0 124 40.5t66 92.5v214q-20 52 -66 92.5t-124 40.5q-84 0 -132.5 -65
t-48.5 -175zM458 592h-38l-137 175l-137 -175h-38l153 208h44z" />
    <glyph glyph-name="adieresis.hist" unicode="&#xf023;" horiz-adv-x="595" 
d="M511 108l5 -108h-30l-13 100q-27 -51 -81 -80.5t-111 -29.5q-103 0 -162 75t-59 200t59 200t162 75q57 0 111 -29.5t81 -80.5l13 100h30l-5 -108v-314zM102 265q0 -110 48.5 -175t132.5 -65q78 0 124 40.5t66 92.5v214q-20 52 -66 92.5t-124 40.5q-84 0 -132.5 -65
t-48.5 -175zM218 743v-60h-60v60h60zM409 743v-60h-60v60h60z" />
    <glyph glyph-name="atilde.hist" unicode="&#xf024;" horiz-adv-x="595" 
d="M511 108l5 -108h-30l-13 100q-27 -51 -81 -80.5t-111 -29.5q-103 0 -162 75t-59 200t59 200t162 75q57 0 111 -29.5t81 -80.5l13 100h30l-5 -108v-314zM102 265q0 -110 48.5 -175t132.5 -65q78 0 124 40.5t66 92.5v214q-20 52 -66 92.5t-124 40.5q-84 0 -132.5 -65
t-48.5 -175zM450 740l28 -5q-5 -41 -35.5 -66t-70.5 -23t-87 36t-76 36q-30 2 -51 -14t-26 -49l-28 5q5 41 35.5 66t70.5 23t87 -36t76 -36q30 -2 51 14t26 49z" />
    <glyph glyph-name="aring.hist" unicode="&#xf025;" horiz-adv-x="595" 
d="M511 108l5 -108h-30l-13 100q-27 -51 -81 -80.5t-111 -29.5q-103 0 -162 75t-59 200t59 200t162 75q57 0 111 -29.5t81 -80.5l13 100h30l-5 -108v-314zM102 265q0 -110 48.5 -175t132.5 -65q78 0 124 40.5t66 92.5v214q-20 52 -66 92.5t-124 40.5q-84 0 -132.5 -65
t-48.5 -175zM169 696q0 51 30.5 82.5t83.5 31.5t83.5 -31.5t30.5 -82.5t-30.5 -82.5t-83.5 -31.5t-83.5 31.5t-30.5 82.5zM366 696q0 40 -21.5 63t-61.5 23t-61.5 -23t-21.5 -63t21.5 -63t61.5 -23t61.5 23t21.5 63z" />
    <glyph glyph-name="acaron.hist" unicode="&#xf026;" horiz-adv-x="595" 
d="M511 108l5 -108h-30l-13 100q-27 -51 -81 -80.5t-111 -29.5q-103 0 -162 75t-59 200t59 200t162 75q57 0 111 -29.5t81 -80.5l13 100h30l-5 -108v-314zM102 265q0 -110 48.5 -175t132.5 -65q78 0 124 40.5t66 92.5v214q-20 52 -66 92.5t-124 40.5q-84 0 -132.5 -65
t-48.5 -175zM108 800h38l137 -175l137 175h38l-153 -208h-44z" />
    <glyph glyph-name="amacron.hist" unicode="&#xf027;" horiz-adv-x="595" 
d="M511 108l5 -108h-30l-13 100q-27 -51 -81 -80.5t-111 -29.5q-103 0 -162 75t-59 200t59 200t162 75q57 0 111 -29.5t81 -80.5l13 100h30l-5 -108v-314zM102 265q0 -110 48.5 -175t132.5 -65q78 0 124 40.5t66 92.5v214q-20 52 -66 92.5t-124 40.5q-84 0 -132.5 -65
t-48.5 -175zM147 697v32h272v-32h-272z" />
    <glyph glyph-name="abreve.hist" unicode="&#xf028;" horiz-adv-x="595" 
d="M511 108l5 -108h-30l-13 100q-27 -51 -81 -80.5t-111 -29.5q-103 0 -162 75t-59 200t59 200t162 75q57 0 111 -29.5t81 -80.5l13 100h30l-5 -108v-314zM102 265q0 -110 48.5 -175t132.5 -65q78 0 124 40.5t66 92.5v214q-20 52 -66 92.5t-124 40.5q-84 0 -132.5 -65
t-48.5 -175zM431 800h30q0 -99 -41 -148.5t-137 -49.5t-137 49.5t-41 148.5h30q0 -89 35 -128t113 -39t113 39t35 128z" />
    <glyph glyph-name="ainvertedbreve.hist" unicode="&#xf029;" horiz-adv-x="595" 
d="M511 108l5 -108h-30l-13 100q-27 -51 -81 -80.5t-111 -29.5q-103 0 -162 75t-59 200t59 200t162 75q57 0 111 -29.5t81 -80.5l13 100h30l-5 -108v-314zM102 265q0 -110 48.5 -175t132.5 -65q78 0 124 40.5t66 92.5v214q-20 52 -66 92.5t-124 40.5q-84 0 -132.5 -65
t-48.5 -175zM135 592h-30q0 99 41 148.5t137 49.5t137 -49.5t41 -148.5h-30q0 89 -35 128t-113 39t-113 -39t-35 -128z" />
    <glyph glyph-name="adoublegrave.hist" unicode="&#xf030;" horiz-adv-x="595" 
d="M511 108l5 -108h-30l-13 100q-27 -51 -81 -80.5t-111 -29.5q-103 0 -162 75t-59 200t59 200t162 75q57 0 111 -29.5t81 -80.5l13 100h30l-5 -108v-314zM102 265q0 -110 48.5 -175t132.5 -65q78 0 124 40.5t66 92.5v214q-20 52 -66 92.5t-124 40.5q-84 0 -132.5 -65
t-48.5 -175zM237 800h47l94 -208h-35zM97 800h47l94 -208h-35z" />
    <glyph glyph-name="aringacute.hist" unicode="&#xf031;" horiz-adv-x="595" 
d="M511 108l5 -108h-30l-13 100q-27 -51 -81 -80.5t-111 -29.5q-103 0 -162 75t-59 200t59 200t162 75q57 0 111 -29.5t81 -80.5l13 100h30l-5 -108v-314zM102 265q0 -110 48.5 -175t132.5 -65q78 0 124 40.5t66 92.5v214q-20 52 -66 92.5t-124 40.5q-84 0 -132.5 -65
t-48.5 -175zM185 760l81 144h42l-63 -99q18 5 38 5q53 0 83.5 -31.5t30.5 -82.5t-30.5 -82.5t-83.5 -31.5t-83.5 31.5t-30.5 82.5q0 35 16 64zM366 696q0 40 -21.5 63t-61.5 23t-61.5 -23t-21.5 -63t21.5 -63t61.5 -23t61.5 23t21.5 63z" />
    <glyph glyph-name="aogonek.hist" unicode="&#xf032;" horiz-adv-x="595" 
d="M511 108l5 -108q-56 -9 -105 -40.5t-49 -78.5q0 -34 19 -48t56 -13q20 0 40.5 6.5t30.5 12.5l11 6l10 -26q-43 -29 -102 -29q-43 0 -71.5 21.5t-28.5 65.5q0 51 43 88t113 54l-10 81q-27 -51 -81 -80.5t-111 -29.5q-103 0 -162 75t-59 200t59 200t162 75q57 0 111 -29.5
t81 -80.5l13 100h30l-5 -108v-314zM102 265q0 -110 48.5 -175t132.5 -65q78 0 124 40.5t66 92.5v214q-20 52 -66 92.5t-124 40.5q-84 0 -132.5 -65t-48.5 -175z" />
    <glyph glyph-name="edoublegrave" unicode="&#xf033;" horiz-adv-x="579" 
d="M514 251h-413q4 -103 58 -164.5t137 -61.5q144 0 167 108l42 -6q-12 -64 -65.5 -100.5t-143.5 -36.5q-106 0 -171 75.5t-65 199.5t65 199.5t171 75.5q117 0 167.5 -71t50.5 -203v-15zM296 505q-81 0 -135 -60t-60 -160h370q-2 108 -42 164t-133 56zM250 800h47l94 -208
h-35zM110 800h47l94 -208h-35z" />
    <glyph glyph-name="gtilde" unicode="&#xf034;" horiz-adv-x="590" 
d="M511 422v-452q0 -87 -61 -133.5t-169 -46.5q-100 0 -145.5 38t-59.5 101l40 5q24 -112 165 -112q86 0 139 35t53 108v150q-26 -50 -81 -77.5t-114 -27.5q-104 0 -162.5 70.5t-58.5 194.5t58.5 194.5t162.5 70.5q58 0 113 -29.5t82 -80.5l13 100h30zM473 173v199
q-19 52 -67 92.5t-126 40.5q-85 0 -133 -60.5t-48 -169.5t48 -169.5t133 -60.5q79 0 126.5 39t66.5 89zM447 740l28 -5q-5 -41 -35.5 -66t-70.5 -23t-87 36t-76 36q-30 2 -51 -14t-26 -49l-28 5q5 41 35.5 66t70.5 23t87 -36t76 -36q30 -2 51 14t26 49z" />
    <glyph glyph-name="hcaron" unicode="&#xf035;" horiz-adv-x="566" 
d="M118 800v-370q25 48 78.5 79t116.5 31q79 0 130.5 -42t51.5 -114v-384h-38v369q0 65 -42 100.5t-112 35.5q-71 0 -118.5 -41t-66.5 -91v-373h-38v800h38zM-76 1030h38l137 -175l137 175h38l-153 -208h-44z" />
    <glyph glyph-name="idoublegrave" unicode="&#xf036;" horiz-adv-x="236" 
d="M99 0v530h38v-530h-38zM72 800h47l94 -208h-35zM-68 800h47l94 -208h-35z" />
    <glyph glyph-name="idotaccent" unicode="&#xf037;" horiz-adv-x="236" 
d="M99 0v530h38v-530h-38zM148 743v-60h-60v60h60z" />
    <glyph glyph-name="kcedilla" unicode="&#xf038;" horiz-adv-x="531" 
d="M118 0h-38v800h38v-568l124 125l173 173h55l-229 -224l267 -306h-51l-242 282l-97 -96v-186zM222 -68l10 29q135 -10 135 -89q0 -41 -30 -61.5t-79 -20.5t-79 17l10 29q27 -15 61 -16q82 -2 82 51q0 22 -17 35t-36 17.5t-46 7.5q-8 1 -11 1z" />
    <glyph glyph-name="lcedilla" unicode="&#xf039;" horiz-adv-x="242" 
d="M102 0v800h38v-800h-38zM80 -68l10 29q135 -10 135 -89q0 -41 -30 -61.5t-79 -20.5t-79 17l10 29q27 -15 61 -16q82 -2 82 51q0 22 -17 35t-36 17.5t-46 7.5q-8 1 -11 1z" />
    <glyph glyph-name="ngrave" unicode="&#xf040;" horiz-adv-x="565" 
d="M104 530l13 -100q25 48 78.5 79t116.5 31q79 0 130.5 -42t51.5 -114v-384h-38v369q0 65 -42 100.5t-112 35.5q-71 0 -118.5 -41t-66.5 -91v-373h-38v422l-5 108h30zM170 800h47l94 -208h-35z" />
    <glyph glyph-name="ncedilla" unicode="&#xf041;" horiz-adv-x="565" 
d="M104 530l13 -100q25 48 78.5 79t116.5 31q79 0 130.5 -42t51.5 -114v-384h-38v369q0 65 -42 100.5t-112 35.5q-71 0 -118.5 -41t-66.5 -91v-373h-38v422l-5 108h30zM247 -68l10 29q135 -10 135 -89q0 -41 -30 -61.5t-79 -20.5t-79 17l10 29q27 -15 61 -16q82 -2 82 51
q0 22 -17 35t-36 17.5t-46 7.5q-8 1 -11 1z" />
    <glyph glyph-name="odoublegrave" unicode="&#xf042;" horiz-adv-x="592" 
d="M296 505q-93 0 -143.5 -63t-50.5 -177t50.5 -177t143.5 -63t143.5 63t50.5 177t-50.5 177t-143.5 63zM296 -10q-112 0 -174 72.5t-62 202.5t62 202.5t174 72.5t174 -72.5t62 -202.5t-62 -202.5t-174 -72.5zM250 800h47l94 -208h-35zM110 800h47l94 -208h-35z" />
    <glyph glyph-name="ounderlineaccent" unicode="&#xf043;" horiz-adv-x="592" 
d="M296 -10q-112 0 -174 72.5t-62 202.5t62 202.5t174 72.5t174 -72.5t62 -202.5t-62 -202.5t-174 -72.5zM296 505q-93 0 -143.5 -63t-50.5 -177t50.5 -177t143.5 -63t143.5 63t50.5 177t-50.5 177t-143.5 63zM313 -200h-34v160h34v-160z" />
    <glyph glyph-name="rdoublegrave" unicode="&#xf044;" horiz-adv-x="375" 
d="M307 540q27 0 44 -4l-5 -40q-25 5 -39 5q-82 0 -135 -51.5t-55 -112.5v-337h-38v422l-5 108h30l14 -110q25 55 78.5 87.5t110.5 32.5zM164 800h47l94 -208h-35zM24 800h47l94 -208h-35z" />
    <glyph glyph-name="rcedilla" unicode="&#xf045;" horiz-adv-x="375" 
d="M307 540q27 0 44 -4l-5 -40q-25 5 -39 5q-82 0 -135 -51.5t-55 -112.5v-337h-38v422l-5 108h30l14 -110q25 55 78.5 87.5t110.5 32.5zM57 -68l10 29q135 -10 135 -89q0 -41 -30 -61.5t-79 -20.5t-79 17l10 29q27 -15 61 -16q82 -2 82 51q0 22 -17 35t-36 17.5t-46 7.5
q-8 1 -11 1z" />
    <glyph glyph-name="udoublegrave" unicode="&#xf046;" horiz-adv-x="565" 
d="M461 0l-13 100q-25 -48 -78.5 -79t-116.5 -31q-79 0 -130.5 42t-51.5 114v384h38v-369q0 -65 42 -100.5t112 -35.5q71 0 118.5 41t66.5 91v373h38v-422l5 -108h-30zM233 800h47l94 -208h-35zM93 800h47l94 -208h-35z" />
    <glyph glyph-name="ue" unicode="&#xf047;" horiz-adv-x="963" 
d="M898 251h-413q4 -103 58 -164.5t137 -61.5q144 0 167 108l42 -6q-12 -64 -65.5 -100.5t-143.5 -36.5q-72 0 -126 36t-83 100q-35 -70 -95 -103t-127 -33q-79 0 -130.5 42t-51.5 114v384h38v-369q0 -65 42 -100.5t112 -35.5q72 0 123 43t72 107q-10 39 -10 90
q0 124 65 199.5t171 75.5q117 0 167.5 -71t50.5 -203v-15zM680 505q-81 0 -135 -60t-60 -160h370q-2 108 -42 164t-133 56z" />
    <glyph glyph-name="ymacron" unicode="&#xf048;" horiz-adv-x="512" 
d="M484 530l-197 -483l-99 -247h-43l91 220l-208 510h45l113 -284l70 -183l70 183l114 284h44zM120 697v32h272v-32h-272z" />
    <glyph glyph-name="yoghcaron" unicode="&#xf049;" horiz-adv-x="535" 
d="M258 -175q87 0 140 49.5t53 139.5t-50.5 139.5t-133.5 51.5q-75 2 -107 -21l-23 27l179 178l110 108l-182 -1h-166v34h391v-35l-261 -260q22 6 60 6q94 0 158.5 -60.5t64.5 -166.5q0 -111 -69 -167.5t-164 -56.5q-91 0 -146.5 37t-67.5 100l42 6q23 -108 172 -108z
M89 800h38l137 -175l137 175h38l-153 -208h-44z" />
    <glyph glyph-name="cordinal" unicode="&#xf050;" horiz-adv-x="460" 
d="M100 585q0 -80 36.5 -125t101.5 -46q103 -1 123 92l39 -8q-24 -118 -161 -118q-83 0 -130 54t-47 151t47 151t130 54q137 0 161 -118l-39 -8q-20 93 -123 92q-65 -1 -101.5 -46t-36.5 -125z" />
    <glyph glyph-name="a.superior" unicode="&#xf051;" horiz-adv-x="414" 
d="M62 476q0 47 31.5 70t92.5 33l118 17v21q0 44 -25.5 62.5t-74.5 19.5q-78 1 -92 -64l-35 4q19 90 127 90q63 0 97.5 -29t34.5 -85v-154l4 -73h-29l-7 60q-17 -32 -53.5 -49t-76.5 -17q-55 0 -83.5 25t-28.5 69zM97 476q0 -64 77 -64q52 0 87 27t43 63v65l-120 -19
q-42 -6 -64.5 -21.5t-22.5 -50.5z" />
    <glyph glyph-name="b.superior" unicode="&#xf052;" horiz-adv-x="431" 
d="M110 893v-231q17 31 49 49t68 18q67 0 105.5 -46.5t38.5 -127.5q0 -80 -38.5 -126.5t-105.5 -46.5q-36 0 -68 18t-49 48l-8 -60h-28l3 73v432h33zM335 555q0 67 -29 105t-80 38q-49 0 -79.5 -28t-36.5 -62v-106q6 -34 36.5 -61.5t79.5 -27.5q51 0 80 37.5t29 104.5z" />
    <glyph glyph-name="c.superior" unicode="&#xf053;" horiz-adv-x="400" 
d="M95 555q0 -66 31 -104t83 -39q83 -1 98 66l36 -4q-18 -92 -134 -92q-69 0 -109 46.5t-40 126.5t40 127t109 47q116 0 134 -92l-36 -5q-14 67 -98 66q-52 0 -83 -38.5t-31 -104.5z" />
    <glyph glyph-name="d.superior" unicode="&#xf054;" horiz-adv-x="431" 
d="M320 662v231h33v-432l4 -73h-29l-8 60q-16 -30 -48 -48t-68 -18q-68 0 -106 46t-38 127t38 127.5t106 46.5q36 0 68 -18t48 -49zM95 555q0 -67 29.5 -104.5t80.5 -37.5q49 0 79 27.5t36 61.5v106q-6 34 -36 62t-79 28q-51 0 -80.5 -38t-29.5 -105z" />
    <glyph glyph-name="e.superior" unicode="&#xf055;" horiz-adv-x="415" 
d="M210 729q140 0 140 -173v-13h-255q2 -63 33.5 -97t82.5 -34q84 -1 99 66l36 -4q-8 -42 -42 -67t-94 -25q-69 0 -109.5 45.5t-40.5 127.5t40.5 128t109.5 46zM210 698q-49 0 -80.5 -32.5t-34.5 -93.5h218q-1 62 -25.5 94.5t-77.5 31.5z" />
    <glyph glyph-name="f.superior" unicode="&#xf056;" horiz-adv-x="260" 
d="M37 692v30h67v46q0 63 21.5 97t88.5 34q23 0 36 -5l-5 -32q-15 6 -31 6q-41 0 -59 -18.5t-18 -73.5v-54h97v-30h-97v-304h-33v304h-67z" />
    <glyph glyph-name="g.superior" unicode="&#xf057;" horiz-adv-x="430" 
d="M203 284q116 2 116 86v89q-16 -30 -48.5 -47.5t-68.5 -17.5q-69 0 -107 43.5t-38 124.5q0 80 38 123.5t107 43.5q36 0 68.5 -18.5t48.5 -48.5l8 60h29l-4 -73v-276q0 -56 -39.5 -87t-109.5 -31q-119 0 -136 93l35 5q14 -70 101 -69zM93 562q0 -66 29 -101.5t81 -35.5
q49 0 79.5 28t36.5 61v94q-6 34 -36.5 62t-79.5 28q-52 0 -81 -35t-29 -101z" />
    <glyph glyph-name="h.superior" unicode="&#xf058;" horiz-adv-x="422" 
d="M80 388v505h33v-231q17 30 48.5 48.5t70.5 18.5q52 0 85.5 -27.5t33.5 -75.5v-238h-33v228q0 39 -25.5 60.5t-67.5 21.5q-44 0 -74.5 -28.5t-37.5 -61.5v-220h-33z" />
    <glyph glyph-name="i.superior" unicode="&#xf059;" horiz-adv-x="222" 
d="M134 856v-46h-46v46h46zM94 388v334h33v-334h-33z" />
    <glyph glyph-name="j.superior" unicode="&#xf060;" horiz-adv-x="222" 
d="M18 287q41 0 58.5 18.5t17.5 73.5v343h33v-335q0 -64 -21 -98t-88 -34q-24 0 -36 6l5 32q15 -6 31 -6zM134 856v-46h-46v46h46z" />
    <glyph glyph-name="k.superior" unicode="&#xf061;" horiz-adv-x="384" 
d="M113 388h-33v505h33v-349l71 72l106 106h48l-145 -142l168 -192h-45l-146 171l-57 -56v-115z" />
    <glyph glyph-name="l.superior" unicode="&#xf062;" horiz-adv-x="222" 
d="M95 388v505h33v-505h-33z" />
    <glyph glyph-name="m.superior" unicode="&#xf063;" horiz-adv-x="607" 
d="M102 722l8 -59q36 66 107 66q39 0 66 -18.5t36 -52.5q38 71 111 71q48 0 77 -27t29 -76v-238h-33v228q0 82 -79 82q-39 0 -67 -28.5t-34 -61.5v-220h-33v228q0 82 -80 82q-39 0 -66.5 -28.5t-33.5 -61.5v-220h-33v261l-3 73h28z" />
    <glyph glyph-name="n.superior" unicode="&#xf064;" horiz-adv-x="419" 
d="M102 722l8 -60q17 30 48.5 48.5t70.5 18.5q52 0 85.5 -27.5t33.5 -75.5v-238h-33v228q0 39 -25.5 60.5t-67.5 21.5q-44 0 -75 -28.5t-37 -61.5v-220h-33v261l-3 73h28z" />
    <glyph glyph-name="o.superior" unicode="&#xf065;" horiz-adv-x="419" 
d="M209 382q-70 0 -109.5 45t-39.5 128q0 84 39.5 129t109.5 45q71 0 110.5 -45t39.5 -129q0 -83 -39.5 -128t-110.5 -45zM209 698q-55 0 -84.5 -36.5t-29.5 -106.5t29.5 -106t84.5 -36t85 36t30 106t-30 106.5t-85 36.5z" />
    <glyph glyph-name="p.superior" unicode="&#xf066;" horiz-adv-x="432" 
d="M111 448v-186h-33v387l-3 73h28l8 -60q17 31 49 49t68 18q67 0 105.5 -46.5t38.5 -127.5q0 -80 -38.5 -126.5t-105.5 -46.5q-36 0 -68 18t-49 48zM336 555q0 67 -29 105t-80 38q-49 0 -79.5 -28t-36.5 -62v-106q6 -34 36.5 -61.5t79.5 -27.5q51 0 80 37.5t29 104.5z" />
    <glyph glyph-name="q.superior" unicode="&#xf067;" horiz-adv-x="432" 
d="M320 262v186q-16 -30 -48 -48t-68 -18q-68 0 -106 46t-38 127t38 127.5t106 46.5q36 0 68 -18t48 -49l8 60h29l-4 -73v-387h-33zM95 555q0 -67 29.5 -104.5t80.5 -37.5q49 0 79 27.5t36 61.5v106q-6 34 -36 62t-79 28q-51 0 -80.5 -38t-29.5 -105z" />
    <glyph glyph-name="r.superior" unicode="&#xf068;" horiz-adv-x="282" 
d="M226 729q16 0 32 -4l-4 -34q-24 4 -28 4q-50 0 -82 -31t-34 -68v-208h-33v261l-3 73h28l8 -64q16 32 48 51.5t68 19.5z" />
    <glyph glyph-name="s.superior" unicode="&#xf069;" horiz-adv-x="380" 
d="M187 412q107 2 107 71q0 15 -5.5 25.5t-12 16.5t-22.5 10.5t-26.5 6t-34.5 4.5q-5 1 -8 1q-23 3 -33 4.5t-31 7t-31 13.5t-19 23t-9 35q0 50 36.5 74.5t88.5 24.5q115 0 135 -92l-36 -5q-14 67 -99 66q-36 0 -63 -15.5t-27 -50.5q0 -33 34 -44q13 -4 64 -11
q76 -10 100 -25q35 -22 35 -67q0 -53 -41 -78t-102 -25q-117 0 -135 92l36 4q13 -67 99 -66z" />
    <glyph glyph-name="t.superior" unicode="&#xf070;" horiz-adv-x="281" 
d="M32 692v30h64v87l33 11v-98h106v-30h-106v-187q0 -55 18 -73.5t59 -18.5q16 0 31 6l5 -32q-13 -5 -36 -5q-67 0 -88.5 34t-21.5 97v179h-64z" />
    <glyph glyph-name="u.superior" unicode="&#xf071;" horiz-adv-x="419" 
d="M316 388l-7 60q-17 -30 -49 -48t-70 -18q-52 0 -85.5 27.5t-33.5 75.5v237h32v-228q0 -38 25.5 -59.5t67.5 -21.5q45 0 76 28t37 61v220h32v-261l4 -73h-29z" />
    <glyph glyph-name="v.superior" unicode="&#xf072;" horiz-adv-x="364" 
d="M332 722l-130 -340h-39l-131 340h38l72 -196l40 -113l41 113l73 196h36z" />
    <glyph glyph-name="w.superior" unicode="&#xf073;" horiz-adv-x="545" 
d="M182 519l71 203h38l71 -203l32 -97l19 98l44 202h36l-79 -340h-37l-75 214l-30 91l-30 -91l-75 -214h-38l-77 340h35l44 -201l18 -99z" />
    <glyph glyph-name="x.superior" unicode="&#xf074;" horiz-adv-x="361" 
d="M180 536l-46 -65l-60 -83h-41l99 136l28 38l-28 37l-91 123h41l52 -72l46 -66l47 66l52 72h40l-90 -123l-28 -37l28 -38l99 -136h-41l-60 83z" />
    <glyph glyph-name="y.superior" unicode="&#xf075;" horiz-adv-x="358" 
d="M330 722l-128 -308l-61 -152h-38l58 139l-133 321h39l72 -181l40 -106l41 106l73 181h37z" />
    <glyph glyph-name="z.superior" unicode="&#xf076;" horiz-adv-x="385" 
d="M55 388v27l169 209l58 69l-98 -1h-117v30h255v-26l-170 -210l-57 -68h234v-30h-274z" />
    <glyph glyph-name="caronSlovak" unicode="&#xf078;" 
d="M312 592h-27l31 208h54z" />
    <glyph glyph-name="altcedilla" unicode="&#xf079;" 
d="M254 -68l10 29q135 -10 135 -89q0 -41 -30 -61.5t-79 -20.5t-79 17l10 29q27 -15 61 -16q82 -2 82 51q0 22 -17 35t-36 17.5t-46 7.5q-8 1 -11 1z" />
    <glyph glyph-name="acute.cap" unicode="&#xf080;" 
d="M376 1030h47l-106 -208h-35z" />
    <glyph glyph-name="grave.cap" unicode="&#xf081;" 
d="M177 1030h47l94 -208h-35z" />
    <glyph glyph-name="circumflex.cap" unicode="&#xf082;" 
d="M475 822h-38l-137 175l-137 -175h-38l153 208h44z" />
    <glyph glyph-name="dieresis.cap" unicode="&#xf083;" 
d="M235 973v-60h-60v60h60zM426 973v-60h-60v60h60z" />
    <glyph glyph-name="tilde.cap" unicode="&#xf084;" 
d="M457 970l28 -5q-5 -41 -35.5 -66t-70.5 -23t-87 36t-76 36q-30 2 -51 -14t-26 -49l-28 5q5 41 35.5 66t70.5 23t87 -36t76 -36q30 -2 51 14t26 49z" />
    <glyph glyph-name="ring.cap" unicode="&#xf085;" 
d="M186 926q0 51 30.5 82.5t83.5 31.5t83.5 -31.5t30.5 -82.5t-30.5 -82.5t-83.5 -31.5t-83.5 31.5t-30.5 82.5zM383 926q0 40 -21.5 63t-61.5 23t-61.5 -23t-21.5 -63t21.5 -63t61.5 -23t61.5 23t21.5 63z" />
    <glyph glyph-name="caron.cap" unicode="&#xf086;" 
d="M125 1030h38l137 -175l137 175h38l-153 -208h-44z" />
    <glyph glyph-name="macron.cap" unicode="&#xf087;" 
d="M164 927v32h272v-32h-272z" />
    <glyph glyph-name="breve.cap" unicode="&#xf088;" 
d="M448 1030h30q0 -99 -41 -148.5t-137 -49.5t-137 49.5t-41 148.5h30q0 -89 35 -128t113 -39t113 39t35 128z" />
    <glyph glyph-name="invertedbreve.cap" unicode="&#xf089;" 
d="M152 822h-30q0 99 41 148.5t137 49.5t137 -49.5t41 -148.5h-30q0 89 -35 128t-113 39t-113 -39t-35 -128z" />
    <glyph glyph-name="hungarumlaut.cap" unicode="&#xf090;" 
d="M299 1030h47l-106 -208h-35zM439 1030h47l-106 -208h-35z" />
    <glyph glyph-name="doublegrave.cap" unicode="&#xf091;" 
d="M254 1030h47l94 -208h-35zM114 1030h47l94 -208h-35z" />
    <glyph glyph-name="dotaccent.cap" unicode="&#xf092;" 
d="M330 973v-60h-60v60h60z" />
    <glyph glyph-name="exclamdown.cap" unicode="&#xf093;" horiz-adv-x="200" 
d="M130 0h-60l20 590h20zM126 780v-52h-52v52h52z" />
    <glyph glyph-name="questiondown.cap" unicode="&#xf094;" 
d="M322 590h26q18 -48 21 -85t-1 -57.5t-23 -39t-30 -24.5t-37 -18q-2 -1 -27 -12.5t-30.5 -14t-26.5 -14.5t-27.5 -18.5t-20.5 -20t-19 -26t-10 -30t-5 -36.5q0 -83 54 -126t140 -43q191 0 212 165l38 -4q-24 -196 -250 -196q-106 0 -171 53.5t-65 149.5q0 27 6 50t20 41
t26 31t34.5 26.5t33.5 19.5t35.5 17t29.5 13q36 17 50 26.5t26 30.5t8.5 53.5t-17.5 88.5zM304 728v52h52v-52h-52z" />
    <glyph glyph-name="interrobangdown" unicode="&#xf095;" horiz-adv-x="540" 
d="M213 157q49 20 66 39l5 144h20l17 -512q142 16 162 160l38 -4q-24 -194 -245 -194q-226 0 -226 181q0 19 3.5 35.5t7 29.5t13 26t15.5 21.5t19.5 18.5t19.5 14.5t22.5 12.5t21 10t22 9.5t19.5 8.5zM90 -28q0 -79 46 -112t131 -35l11 328q-15 -10 -46 -23q-75 -30 -99 -51
q-43 -37 -43 -107zM320 530v-52h-52v52h52z" />
    <glyph glyph-name="interrobangdown.cap" unicode="&#xf096;" 
d="M255 391q4 2 20.5 10t23.5 13l6 176h20l19 -563q156 15 174 163l38 -4q-24 -196 -250 -196q-106 0 -171 53.5t-65 149.5q0 27 6 50t20 41t26 31t34.5 26.5t33.5 19.5t35.5 17t29.5 13zM112 194q0 -77 48 -119.5t126 -48.5l12 349q-14 -6 -20 -9q-2 -1 -27 -12.5
t-30.5 -14t-26.5 -14.5t-27.5 -18.5t-20.5 -20t-19 -26t-10 -30t-5 -36.5zM289 728v52h52v-52h-52z" />
    <glyph glyph-name="reversequoteleft" unicode="&#xf097;" horiz-adv-x="125" 
d="M-3 780h54l37 -250h-21z" />
    <glyph glyph-name="reversequotedblleft" unicode="&#xf098;" horiz-adv-x="265" 
d="M137 780h54l37 -250h-21zM-3 780h54l37 -250h-21z" />
    <glyph glyph-name="guilsinglleft.cap" unicode="&#xf099;" horiz-adv-x="300" 
d="M250 565v-43l-167 -132l167 -132v-43l-208 151v48z" />
    <glyph glyph-name="guilsinglright.cap" unicode="&#xf100;" horiz-adv-x="300" 
d="M50 522v43l208 -151v-48l-208 -151v43l167 132z" />
    <glyph glyph-name="guillemotleft.cap" unicode="&#xf101;" horiz-adv-x="508" 
d="M250 565v-43l-167 -132l167 -132v-43l-208 151v48zM458 565v-43l-167 -132l167 -132v-43l-208 151v48z" />
    <glyph glyph-name="guillemotright.cap" unicode="&#xf102;" horiz-adv-x="508" 
d="M258 215v43l167 132l-167 132v43l208 -151v-48zM50 215v43l167 132l-167 132v43l208 -151v-48z" />
    <glyph glyph-name="onethirdemdash" unicode="&#xf104;" horiz-adv-x="333" 
d="M283 318h-233v34h233v-34z" />
    <glyph glyph-name="threequarteremdash" unicode="&#xf105;" horiz-adv-x="750" 
d="M700 318h-650v34h650v-34z" />
    <glyph glyph-name="periodcentered.cap" unicode="&#xf106;" horiz-adv-x="200" 
d="M130 420v-60h-60v60h60z" />
    <glyph glyph-name="hyphen.cap" unicode="&#xf107;" horiz-adv-x="360" 
d="M310 373h-260v34h260v-34z" />
    <glyph glyph-name="onethirdemdash.cap" unicode="&#xf108;" horiz-adv-x="333" 
d="M283 373h-233v34h233v-34z" />
    <glyph glyph-name="endash.cap" unicode="&#xf109;" horiz-adv-x="500" 
d="M450 373h-400v34h400v-34z" />
    <glyph glyph-name="threequarteremdash.cap" unicode="&#xf110;" horiz-adv-x="750" 
d="M700 373h-650v34h650v-34z" />
    <glyph glyph-name="emdash.cap" unicode="&#xf111;" horiz-adv-x="1000" 
d="M950 407v-34h-900v34h900z" />
    <glyph glyph-name="figuredash.cap" unicode="&#xf112;" horiz-adv-x="700" 
d="M650 373h-600v34h600v-34z" />
    <glyph glyph-name="parenleft.cap" unicode="&#xf113;" horiz-adv-x="240" 
d="M88 390q0 -142 25.5 -250.5t81.5 -229.5h-35q-48 82 -79 210.5t-31 269.5t31 269.5t79 210.5h35q-56 -121 -81.5 -229.5t-25.5 -250.5z" />
    <glyph glyph-name="parenright.cap" unicode="&#xf114;" horiz-adv-x="240" 
d="M152 390q0 142 -25.5 250.5t-81.5 229.5h35q48 -82 79 -210.5t31 -269.5t-31 -269.5t-79 -210.5h-35q56 121 81.5 229.5t25.5 250.5z" />
    <glyph glyph-name="bracketleft.cap" unicode="&#xf115;" horiz-adv-x="240" 
d="M140 834v-888h90v-36h-130v960h130v-36h-90z" />
    <glyph glyph-name="bracketright.cap" unicode="&#xf116;" horiz-adv-x="240" 
d="M100 -54v888h-90v36h130v-960h-130v36h90z" />
    <glyph glyph-name="braceleft.cap" unicode="&#xf117;" horiz-adv-x="280" 
d="M90 390q51 -24 51 -117v-227q0 -57 24.5 -78.5t67.5 -21.5h37v-36h-27q-45 0 -75 11.5t-43.5 34t-18.5 44.5t-5 52v222q0 59 -17 78.5t-57 19.5h-19v36h19q40 0 57 19.5t17 78.5v222q0 30 5 52t18.5 44.5t43.5 34t75 11.5h27v-36h-37q-43 0 -67.5 -21.5t-24.5 -78.5v-227
q0 -93 -51 -117z" />
    <glyph glyph-name="braceright.cap" unicode="&#xf118;" horiz-adv-x="280" 
d="M190 390q-51 24 -51 117v227q0 57 -24.5 78.5t-67.5 21.5h-37v36h27q45 0 75 -11.5t43.5 -34t18.5 -44.5t5 -52v-222q0 -59 17 -78.5t57 -19.5h19v-36h-19q-40 0 -57 -19.5t-17 -78.5v-222q0 -30 -5 -52t-18.5 -44.5t-43.5 -34t-75 -11.5h-27v36h37q43 0 67.5 21.5
t24.5 78.5v227q0 93 51 117z" />
    <glyph glyph-name="anglebracketleft.cap" unicode="&#xf119;" horiz-adv-x="240" 
d="M195 870l-117 -480l117 -480h-35l-120 480l120 480h35z" />
    <glyph glyph-name="anglebracketright.cap" unicode="&#xf120;" horiz-adv-x="240" 
d="M162 390l-117 480h35l120 -480l-120 -480h-35z" />
    <glyph glyph-name="lowline" unicode="&#xf121;" horiz-adv-x="300" 
d="M280 0h-260v34h260v-34z" />
    <glyph glyph-name="tripleprime" unicode="&#xf122;" horiz-adv-x="480" 
d="M72 780h56l-19 -250h-18zM212 780h56l-19 -250h-18zM352 780h56l-19 -250h-18z" />
    <glyph glyph-name="at.cap" unicode="&#xf123;" horiz-adv-x="1030" 
d="M708 266l3 -74h9q126 0 175 73t49 218q0 79 -24.5 145t-74.5 118.5t-133.5 82t-194.5 29.5q-205 0 -317 -128t-112 -343t115 -343t324 -128q144 0 233.5 43.5t109.5 99.5l39 -6q-22 -66 -121.5 -118.5t-260.5 -52.5q-220 0 -348 132.5t-128 372.5q0 239 126.5 372
t339.5 133q227 0 344.5 -111.5t117.5 -297.5q0 -164 -63 -244.5t-205 -80.5h-28l-12 93q-24 -43 -75.5 -73t-117.5 -30q-90 0 -152.5 64.5t-62.5 177.5t62.5 177.5t152.5 64.5q66 0 117.5 -30t75.5 -73l12 93h30l-5 -108v-248zM670 476q-65 121 -187 121q-79 0 -128.5 -56
t-49.5 -151t49.5 -151t128.5 -56q122 0 187 121v172z" />
    <glyph glyph-name="registered.superior" unicode="&#xf124;" horiz-adv-x="330" 
d="M15 640q0 62 44 106t106 44t106 -44t44 -106t-44 -106t-106 -44q-61 0 -105.5 44t-44.5 106zM35 640q0 -54 38 -92t92 -38q55 0 93 38t38 92q0 55 -38 93t-93 38q-54 0 -92 -38t-38 -93zM123 622v-70h-22v177h72q59 0 59 -54q0 -42 -39 -51l44 -72h-28l-40 70h-46z
M123 643h54q32 0 32 32t-32 32h-54v-64z" />
    <glyph glyph-name="published" unicode="&#xf125;" horiz-adv-x="880" 
d="M50 390q0 166 117 283t283 117t283 -117t117 -283t-117 -283t-283 -117t-283 117t-117 283zM86 390q0 -150 107 -257t257 -107t257 107t107 257t-107 257t-257 107t-257 -107t-107 -257zM486 335h-150v-180h-37v470h187q154 0 154 -145t-154 -145zM336 589v-218h165
q38 0 69 23.5t31 85.5t-31 85.5t-69 23.5h-165z" />
    <glyph glyph-name="zero.slash" unicode="&#xf126;" horiz-adv-x="700" 
d="M350 774q143 0 207.5 -96.5t64.5 -295.5t-64 -295.5t-208 -96.5q-143 0 -207.5 96.5t-64.5 295.5t64 295.5t208 96.5zM118 382q0 -188 61 -276l315 582q-53 50 -144 50q-118 0 -175 -85.5t-57 -270.5zM582 382q0 188 -61 276l-315 -582q53 -50 144 -50q118 0 175 85.5
t57 270.5z" />
    <glyph glyph-name="zero.LP" unicode="&#xf127;" horiz-adv-x="700" 
d="M350 26q118 0 175 85.5t57 270.5t-57 270.5t-175 85.5t-175 -85.5t-57 -270.5t57 -270.5t175 -85.5zM350 774q143 0 207.5 -96.5t64.5 -295.5t-64 -295.5t-208 -96.5q-143 0 -207.5 96.5t-64.5 295.5t64 295.5t208 96.5z" />
    <glyph glyph-name="one.LP" unicode="&#xf128;" horiz-adv-x="410" 
d="M250 0h-39v712q-66 -73 -175 -112v36q61 25 99 54.5t81 83.5h34v-774z" />
    <glyph glyph-name="two.LP" unicode="&#xf129;" horiz-adv-x="696" 
d="M626 0h-556q0 78 20.5 137t61 101t87 70t113.5 54q43 17 64.5 26t51 23.5t43 27t28.5 30.5t21 40t7 50q2 48 -14.5 83.5t-47 56t-68.5 30t-83 9.5q-109 0 -164.5 -37.5t-71.5 -112.5l-40 5q37 181 276 181q119 0 185.5 -55t66.5 -160q0 -30 -9 -56t-19 -44.5t-34 -37.5
t-37 -28.5t-47 -25t-45 -19.5t-47 -18q-124 -48 -188 -118t-66 -175l146 1h366v-38z" />
    <glyph glyph-name="three.LP" unicode="&#xf130;" horiz-adv-x="677" 
d="M612 202q0 -100 -71.5 -156t-215.5 -56q-128 0 -192 49t-73 133l39 6q9 -72 61 -111.5t165 -40.5q117 -2 182 41.5t65 134.5q0 172 -210 172h-134v36h134q32 0 57 3.5t51 13.5t43.5 27.5t28.5 47.5t11 71q0 85 -62 126t-161 39q-107 -1 -158 -37t-66 -114l-39 6
q16 87 77.5 134t185.5 47q112 0 186.5 -49.5t74.5 -151.5q0 -76 -41.5 -124.5t-98.5 -54.5v-1q65 -6 113 -52.5t48 -138.5z" />
    <glyph glyph-name="four.LP" unicode="&#xf131;" horiz-adv-x="665" 
d="M610 186h-148v-186h-36v186h-371v29l369 559h38v-553h148v-35zM426 221v334l1 156l-99 -149l-142 -215l-85 -127l122 1h203z" />
    <glyph glyph-name="five.LP" unicode="&#xf132;" horiz-adv-x="677" 
d="M152 384l-41 11l36 369h414v-36h-383l-29 -300q30 30 84.5 49t121.5 19q121 0 186.5 -66.5t65.5 -184.5q0 -123 -75 -189t-196 -66q-130 0 -192.5 48.5t-73.5 139.5l39 6q11 -80 60.5 -119.5t166.5 -38.5q109 2 170 56.5t61 162.5q0 212 -212 215q-70 1 -125 -20.5
t-78 -55.5z" />
    <glyph glyph-name="six.LP" unicode="&#xf133;" horiz-adv-x="690" 
d="M390 739q-123 2 -196.5 -87.5t-73.5 -269.5q0 -21 0.5 -40t1.5 -27v-8q18 63 63 103.5t93 54.5t102 14q111 0 175.5 -63t64.5 -181q0 -115 -72.5 -180t-187.5 -65q-145 0 -212.5 97t-67.5 295q0 190 81 291t230 101q194 0 226 -151l-39 -8q-16 64 -58.5 93.5t-129.5 30.5
zM380 442q-99 1 -170.5 -56.5t-71.5 -156.5q0 -22 1 -32q46 -175 221 -172q93 2 156 53.5t63 156.5q0 106 -54 156t-145 51z" />
    <glyph glyph-name="seven.LP" unicode="&#xf134;" horiz-adv-x="617" 
d="M208 0h-43l286 601l63 129l-162 -1h-292v35h497v-31z" />
    <glyph glyph-name="eight.LP" unicode="&#xf135;" horiz-adv-x="686" 
d="M343 26q107 0 170 39.5t63 126.5q0 182 -233 182t-233 -182q0 -87 63 -126.5t170 -39.5zM343 410q213 0 213 162q0 85 -57.5 125.5t-155.5 40.5t-155.5 -40.5t-57.5 -125.5q0 -162 213 -162zM343 -10q-131 0 -202 52.5t-71 147.5q0 168 160 202q-58 14 -98 57.5
t-40 119.5q0 105 67 155t184 50t184 -50t67 -155q0 -76 -40 -119.5t-98 -57.5q160 -34 160 -202q0 -95 -71 -147.5t-202 -52.5z" />
    <glyph glyph-name="nine.LP" unicode="&#xf136;" horiz-adv-x="690" 
d="M300 25q123 -2 196.5 87.5t73.5 269.5q0 21 -0.5 40t-1.5 27v8q-18 -63 -63 -103.5t-93 -54.5t-102 -14q-111 0 -175.5 63t-64.5 181q0 115 72.5 180t187.5 65q145 0 212.5 -97t67.5 -295q0 -190 -81 -291t-230 -101q-194 0 -226 151l39 8q16 -64 58.5 -93.5t129.5 -30.5
zM310 322q99 -1 170.5 56.5t71.5 156.5q0 22 -1 32q-46 175 -221 172q-93 -2 -156 -53.5t-63 -156.5q0 -106 54 -156t145 -51z" />
    <glyph glyph-name="Eurooldstyle" unicode="&#xf137;" horiz-adv-x="613" 
d="M30 184v36h82q-2 28 -2 45q0 15 2 45h-82v36h88q20 90 80.5 142t147.5 52q90 0 143.5 -36.5t65.5 -100.5l-42 -6q-23 108 -167 108q-68 0 -117 -42.5t-68 -116.5h292l-11 -36h-287q-3 -22 -3 -45q0 -24 3 -45h260l-11 -36h-243q19 -74 68 -116.5t117 -42.5q144 0 167 108
l42 -6q-12 -64 -65.5 -100.5t-143.5 -36.5q-87 0 -147.5 52t-80.5 142h-88z" />
    <glyph glyph-name="sterlingoldstyle" unicode="&#xf138;" horiz-adv-x="631" 
d="M203 370v-87h206v-35h-206v-213h363v-35h-502v35h100v213h-100v35h100l1 83q0 87 52 130.5t149 43.5q164 0 192 -129l-40 -5q-21 104 -152 101q-82 -2 -122.5 -32.5t-40.5 -104.5z" />
    <glyph glyph-name="florinoldstyle" unicode="&#xf139;" horiz-adv-x="395" 
d="M147 248h-124v34h124v50q0 39 2 64.5t11.5 55.5t26.5 47t49 29t77 12q35 0 57 -9l-8 -36q-21 9 -49 9q-66 0 -97 -29.5t-31 -115.5v-77h163v-34h-163v-250q0 -39 -2 -64.5t-11.5 -55.5t-26.5 -47t-49 -29t-77 -12q-35 0 -57 9l8 36q21 -9 49 -9q66 0 97 29.5t31 115.5
v277z" />
    <glyph glyph-name="yenoldstyle" unicode="&#xf140;" horiz-adv-x="520" 
d="M446 102h-166v-102h-40v102h-166v34h166v59h-166v34h148l-198 301h47l83 -127l106 -163l106 163l83 127h47l-198 -301h148v-34h-166v-59h166v-34z" />
    <glyph glyph-name="uni20A1oldstyle" unicode="&#xf141;" horiz-adv-x="562" 
d="M486 607l-42 -107q48 -35 61 -97l-42 -6q-9 40 -34 65l-171 -433q16 -4 38 -4q144 0 167 108l42 -6q-12 -64 -65.5 -100.5t-143.5 -36.5q-24 0 -52 5l-28 -72h-40l32 83q-17 6 -33 17l-39 -100h-40l48 123q-84 76 -84 219q0 124 65 199.5t171 75.5q22 0 43 -3l27 70h40
l-30 -77q24 -6 35 -11l35 88h40zM102 265q0 -111 58 -179l165 418q-9 1 -29 1q-86 0 -140 -66t-54 -174zM189 59q14 -11 33 -19l176 444q-16 9 -35 13z" />
    <glyph glyph-name="uni20A2oldstyle" unicode="&#xf142;" horiz-adv-x="562" 
d="M476 315q27 0 44 -4l-5 -40q-25 5 -39 5q-82 0 -135 -51.5t-55 -112.5v-87h10q144 0 167 108l42 -6q-12 -64 -65.5 -100.5t-143.5 -36.5q-106 0 -171 75.5t-65 199.5t65 199.5t171 75.5q90 0 143.5 -36.5t65.5 -100.5l-42 -6q-23 108 -167 108q-86 0 -140 -66t-54 -174
q0 -92 40 -154t106 -80v166l-5 108h30l14 -110q25 55 78.5 87.5t110.5 32.5z" />
    <glyph glyph-name="uni20A3oldstyle" unicode="&#xf143;" horiz-adv-x="560" 
d="M193 0h-39v188h-100v35h100v73h-100v35h100v199h366v-35h-327v-164h256v-35h-256v-73h256v-35h-256v-188z" />
    <glyph glyph-name="uni20A4oldstyle" unicode="&#xf144;" horiz-adv-x="631" 
d="M203 370v-51h206v-35h-206v-73h206v-35h-206v-141h363v-35h-502v35h100v141h-100v35h100v73h-100v35h100l1 47q0 87 52 130.5t149 43.5q164 0 192 -129l-40 -5q-21 104 -152 101q-82 -2 -122.5 -32.5t-40.5 -104.5z" />
    <glyph glyph-name="uni20A6oldstyle" unicode="&#xf145;" horiz-adv-x="648" 
d="M480 0l-127 187h-196v-187h-39v187h-70v35h70v86h-70v35h70v187h50l127 -187h196v187h39v-187h70v-35h-70v-86h70v-35h-70v-187h-50zM157 308v-86h172l-58 86h-114zM318 308l59 -86h114v86h-173zM493 48l-2 139h-91zM155 482l2 -139h90z" />
    <glyph glyph-name="uni20A7oldstyle" unicode="&#xf146;" horiz-adv-x="1433" 
d="M1163 505q-60 0 -107.5 -28.5t-47.5 -88.5q0 -19 3.5 -32.5t14.5 -23t21 -15.5t34 -10.5t40.5 -7t53.5 -6.5q38 -4 60 -7.5t54.5 -13.5t50 -24t31 -39t13.5 -59q0 -81 -62 -120.5t-162 -39.5q-95 0 -149 40q-56 -40 -149 -40q-88 0 -128 43q-56 -43 -152 -43t-134 51
q-56 -51 -139 -51q-57 0 -111 29.5t-81 80.5v-300h-38v622l-5 108h30l13 -100q27 51 81 80.5t111 29.5q103 0 162 -75t59 -200q0 -121 -56 -196q27 -43 108 -43q87 0 131 41q-17 42 -17 131v298h-126v34h126v140l38 13v-153h173v-34h-173v-325q0 -86 31 -115.5t97 -29.5
q77 0 120 32q-23 27 -31 69l42 6q23 -108 166 -108q82 0 132.5 30t50.5 94q0 22 -5.5 38.5t-20 27.5t-27.5 18.5t-39 12.5t-43.5 7t-51.5 6q-33 3 -53 6.5t-49 12t-45 21t-28 35t-12 53.5q0 76 56 114.5t140 38.5q90 0 143.5 -36.5t65.5 -100.5l-42 -6q-23 108 -168 108z
M117 372v-214q20 -52 66 -92.5t124 -40.5q84 0 132.5 65t48.5 175t-48.5 175t-132.5 65q-78 0 -124 -40.5t-66 -92.5z" />
    <glyph glyph-name="uni20A8oldstyle" unicode="&#xf147;" horiz-adv-x="1019" 
d="M746 -10q-53 0 -94 6.5t-97.5 27.5t-113.5 71t-112 127h-189v-222h-40v530h230q34 0 59.5 -5.5t51 -20.5t39.5 -47t14 -80q0 -136 -119 -153q87 -118 174.5 -158.5t195.5 -40.5q82 0 132.5 30t50.5 94q0 22 -5.5 38.5t-20 27.5t-27.5 18.5t-39 12.5t-43.5 7t-51.5 6
q-33 3 -53 6.5t-49 12t-45 21t-28 35t-12 53.5q0 76 56 114.5t140 38.5q90 0 143.5 -36.5t65.5 -100.5l-42 -6q-23 108 -168 108q-60 0 -107.5 -28.5t-47.5 -88.5q0 -19 3.5 -32.5t14.5 -23t21 -15.5t34 -10.5t40.5 -7t53.5 -6.5q38 -4 60 -7.5t54.5 -13.5t50 -24t31 -39
t13.5 -59q0 -81 -62 -120.5t-162 -39.5zM140 494v-236h199q24 0 42 4.5t36 16t28 36t10 61.5t-10 61.5t-28 36t-36 16t-42 4.5h-199z" />
    <glyph glyph-name="uni20A9oldstyle" unicode="&#xf148;" horiz-adv-x="734" 
d="M342 530h50l47 -187h131l37 187h40l-37 -187h80v-35h-87l-17 -86h104v-35h-111l-39 -197h-50l-51 197h-144l-51 -197h-50l-39 197h-111v35h104l-17 86h-87v35h80l-37 187h40l36 -187h132zM326 308l-22 -86h126l-22 86h-82zM469 222h78l2 11l14 75h-115zM170 308l15 -75
l2 -11h77l22 86h-116zM193 187l27 -148l36 148h-63zM478 187l36 -148l26 148h-62zM367 480l-33 -137h65z" />
    <glyph glyph-name="uni20AAoldstyle" unicode="&#xf149;" horiz-adv-x="665" 
d="M84 530h191q153 0 153 -144v-256h-38v251q0 62 -27 88.5t-88 26.5h-153v-496h-38v530zM428 0h-191v400h38v-366h153q61 0 88 26.5t27 88.5v381h38v-386q0 -144 -153 -144z" />
    <glyph glyph-name="uni20AEoldstyle" unicode="&#xf150;" horiz-adv-x="480" 
d="M386 236l-126 -64v-172h-40v152l-115 -57v42l115 57v80l-115 -57v42l115 57v178h-185v36h410v-36h-185v-158l126 64v-42l-126 -64v-80l126 64v-42z" />
    <glyph glyph-name="uni20B1oldstyle" unicode="&#xf151;" horiz-adv-x="609" 
d="M342 192h-187v-192h-40v293h-70v35h70v66h-70v35h70v101h227q133 0 161 -101h66v-35h-60q2 -22 2 -33q0 -13 -2 -33h60v-35h-66q-28 -101 -161 -101zM472 361q0 13 -2 33h-315v-66h315q2 20 2 33zM353 494h-198v-65h306q-25 65 -108 65zM155 228h198q83 0 108 65h-306
v-65z" />
    <glyph glyph-name="numbersignoldstyle" unicode="&#xf152;" horiz-adv-x="680" 
d="M154 -77h-37l44 176h-121v34h130l66 264h-126v34h135l44 176h37l-44 -176h200l44 176h37l-44 -176h121v-34h-130l-66 -264h126v-34h-135l-44 -176h-37l44 176h-200zM273 397l-66 -264h200l66 264h-200z" />
    <glyph glyph-name="zero.OT" unicode="&#xf200;" horiz-adv-x="700" 
d="M350 26q48 0 89 13t76 41.5t55 80t20 121.5t-20 121.5t-55 80t-76 41.5t-89 13t-89 -13t-76 -41.5t-55 -80t-20 -121.5t20 -121.5t55 -80t76 -41.5t89 -13zM350 574q123 0 202 -72t79 -220q0 -76 -22 -133.5t-61.5 -91.5t-89 -50.5t-108.5 -16.5q-123 0 -202 72t-79 220
q0 76 22 133.5t61.5 91.5t89 50.5t108.5 16.5z" />
    <glyph glyph-name="one.OT" unicode="&#xf201;" horiz-adv-x="700" 
d="M615 37v-37h-490v37h221v472q-74 -104 -236 -149v35q82 23 133.5 59.5t107.5 119.5h34v-537h230z" />
    <glyph glyph-name="two.OT" unicode="&#xf202;" horiz-adv-x="700" 
d="M597 396q0 -32 -12 -57t-27 -39t-44 -26t-47 -16t-54.5 -10.5t-47.5 -9.5q-87 -19 -135.5 -46.5t-67.5 -63t-23 -91.5l143 1h321v-38h-506q1 122 59 182t198 88q16 3 46.5 8.5t44.5 8.5t36 9t32.5 13.5t22.5 19t17 27.5t6 38q0 80 -50 113t-161 31q-108 -1 -156 -40
t-57 -112l-39 6q9 84 70.5 133t181.5 49q134 0 191.5 -45t57.5 -133z" />
    <glyph glyph-name="three.OT" unicode="&#xf203;" horiz-adv-x="700" 
d="M622 2q0 -100 -71.5 -156t-215.5 -56q-128 0 -192 49t-73 133l39 6q9 -72 61 -111.5t165 -40.5q117 -2 182 41.5t65 134.5q0 172 -210 172h-134v36h134q32 0 57 3.5t51 13.5t43.5 27.5t28.5 47.5t11 71q0 85 -62 126t-161 39q-107 -1 -158 -37t-66 -114l-39 6
q16 87 77.5 134t185.5 47q112 0 186.5 -49.5t74.5 -151.5q0 -76 -41.5 -124.5t-98.5 -54.5v-1q65 -6 113 -52.5t48 -138.5z" />
    <glyph glyph-name="four.OT" unicode="&#xf204;" horiz-adv-x="700" 
d="M635 0h-148v-200h-36v200h-386v29l384 545h38v-539h148v-35zM451 35v320l1 167l-109 -160l-152 -216l-83 -112l125 1h218z" />
    <glyph glyph-name="five.OT" unicode="&#xf205;" horiz-adv-x="700" 
d="M165 184l-41 11l36 369h414v-36h-383l-29 -300q30 30 84.5 49t121.5 19q121 0 186.5 -66.5t65.5 -184.5q0 -123 -75 -189t-196 -66q-130 0 -192.5 48.5t-73.5 139.5l39 6q11 -80 60.5 -119.5t166.5 -38.5q109 2 170 56.5t61 162.5q0 212 -212 215q-70 1 -125 -20.5
t-78 -55.5z" />
    <glyph glyph-name="six.OT" unicode="&#xf206;" horiz-adv-x="700" 
d="M390 739q-123 2 -196.5 -87.5t-73.5 -269.5q0 -21 0.5 -40t1.5 -27v-8q18 63 63 103.5t93 54.5t102 14q111 0 175.5 -63t64.5 -181q0 -115 -72.5 -180t-187.5 -65q-145 0 -212.5 97t-67.5 295q0 190 81 291t230 101q194 0 226 -151l-39 -8q-16 64 -58.5 93.5t-129.5 30.5
zM380 442q-99 1 -170.5 -56.5t-71.5 -156.5q0 -22 1 -32q46 -175 221 -172q93 2 156 53.5t63 156.5q0 106 -54 156t-145 51z" />
    <glyph glyph-name="seven.OT" unicode="&#xf207;" horiz-adv-x="700" 
d="M253 -200h-43l302 600l68 130l-163 -1h-337v35h542v-31z" />
    <glyph glyph-name="eight.OT" unicode="&#xf208;" horiz-adv-x="700" 
d="M350 26q107 0 170 39.5t63 126.5q0 182 -233 182t-233 -182q0 -87 63 -126.5t170 -39.5zM350 410q213 0 213 162q0 85 -57.5 125.5t-155.5 40.5t-155.5 -40.5t-57.5 -125.5q0 -162 213 -162zM350 -10q-131 0 -202 52.5t-71 147.5q0 168 160 202q-58 14 -98 57.5
t-40 119.5q0 105 67 155t184 50t184 -50t67 -155q0 -76 -40 -119.5t-98 -57.5q160 -34 160 -202q0 -95 -71 -147.5t-202 -52.5z" />
    <glyph glyph-name="nine.OT" unicode="&#xf209;" horiz-adv-x="700" 
d="M310 -175q123 -2 196.5 87.5t73.5 269.5q0 21 -0.5 40t-1.5 27v8q-18 -63 -63 -103.5t-93 -54.5t-102 -14q-111 0 -175.5 63t-64.5 181q0 115 72.5 180t187.5 65q145 0 212.5 -97t67.5 -295q0 -190 -81 -291t-230 -101q-194 0 -226 151l39 8q16 -64 58.5 -93.5
t129.5 -30.5zM320 122q99 -1 170.5 56.5t71.5 156.5q0 22 -1 32q-46 175 -221 172q-93 -2 -156 -53.5t-63 -156.5q0 -106 54 -156t145 -51z" />
    <glyph glyph-name="zero.inf" unicode="&#xf210;" horiz-adv-x="498" 
d="M249 -177q66 0 107 41.5t41 131.5q0 91 -41 133t-107 42q-65 0 -106.5 -42t-41.5 -133q0 -90 41.5 -131.5t106.5 -41.5zM249 204q87 0 135.5 -52.5t48.5 -155.5q0 -102 -48.5 -154t-135.5 -52q-86 0 -135 52t-49 154q0 103 48.5 155.5t135.5 52.5z" />
    <glyph glyph-name="one.inf" unicode="&#xf211;" horiz-adv-x="280" 
d="M170 -200h-36v348q-27 -31 -94 -55v37q34 13 55 28.5t44 45.5h31v-404z" />
    <glyph glyph-name="two.inf" unicode="&#xf212;" horiz-adv-x="424" 
d="M364 -200h-303q0 43 9.5 74t33.5 52.5t44.5 33.5t61.5 30q8 3 26 11t23.5 10.5t18 9t15.5 10t10.5 10t9 13t3.5 15t2 19.5q0 32 -19.5 51.5t-40.5 25t-43 5.5q-53 0 -79.5 -17.5t-34.5 -55.5l-36 4q19 103 150 103q60 0 99 -30t39 -86q0 -17 -3 -30.5t-12 -25
t-15.5 -18.5t-22.5 -16t-23 -12.5t-28 -12.5t-27 -12q-65 -29 -93 -56t-30 -72l120 1h145v-34z" />
    <glyph glyph-name="three.inf" unicode="&#xf213;" horiz-adv-x="421" 
d="M361 -95q0 -51 -40.5 -83t-118.5 -32q-128 0 -147 104l37 3q6 -38 32 -56t78 -19q123 -2 123 83q0 27 -10 44.5t-29.5 25t-36.5 9.5t-42 2h-54v34h54q25 0 40.5 2t31.5 9.5t24 23.5t8 42q0 76 -106 74q-51 -1 -76 -18t-31 -56l-36 4q17 103 143 103q62 0 102 -26.5
t40 -80.5q0 -41 -21.5 -64.5t-52.5 -27.5q34 -4 61 -29t27 -71z" />
    <glyph glyph-name="four.inf" unicode="&#xf214;" horiz-adv-x="392" 
d="M347 -108h-78v-92h-35v92h-189v29l189 283h35v-278h78v-34zM234 -74v165l1 60l-36 -58l-77 -113l-37 -54h149z" />
    <glyph glyph-name="five.inf" unicode="&#xf215;" horiz-adv-x="411" 
d="M111 -6l-31 9l21 191h227v-35h-198l-15 -124q37 29 98 29q66 0 102 -35.5t36 -101.5q0 -64 -41.5 -100.5t-105.5 -36.5q-70 0 -102.5 27t-41.5 78l36 3q8 -41 32.5 -59t75.5 -17q48 1 79.5 26t31.5 79q0 104 -102 104q-68 2 -102 -37z" />
    <glyph glyph-name="six.inf" unicode="&#xf216;" horiz-adv-x="407" 
d="M226 171q-64 2 -98.5 -38t-34.5 -132q0 -5 1 -11q15 34 48.5 52t74.5 18q62 0 98.5 -37t36.5 -100q0 -62 -38.5 -97.5t-101.5 -35.5q-79 0 -115.5 52t-36.5 159q0 203 166 203q55 0 86.5 -25.5t37.5 -61.5l-38 -4q-12 57 -86 58zM217 24q-54 2 -86.5 -29.5t-26.5 -89.5
q21 -84 108 -83q46 1 74.5 26t28.5 75q0 99 -98 101z" />
    <glyph glyph-name="seven.inf" unicode="&#xf217;" horiz-adv-x="352" 
d="M144 -200h-38l140 306l27 54l-105 -1h-128v35h272v-27z" />
    <glyph glyph-name="eight.inf" unicode="&#xf218;" horiz-adv-x="407" 
d="M203 18q46 0 73.5 16t27.5 63q0 74 -101 74q-100 0 -100 -74q0 -47 27 -63t73 -16zM203 -178q112 0 112 77q0 86 -112 86t-112 -86q0 -77 112 -77zM203 -210q-73 0 -110.5 28.5t-37.5 79.5q0 48 24.5 73.5t59.5 30.5q-31 4 -52 29.5t-21 66.5q0 54 39 80t98 26t98 -26
t39 -80q0 -41 -21 -66.5t-53 -29.5q36 -5 61 -30.5t25 -73.5q0 -51 -37.5 -79.5t-111.5 -28.5z" />
    <glyph glyph-name="nine.inf" unicode="&#xf219;" horiz-adv-x="407" 
d="M180 -178q134 -2 134 170q0 4 -1 11q-15 -33 -49 -51t-75 -18q-61 0 -97.5 37t-36.5 100q0 61 38.5 97t100.5 36q80 0 116.5 -52t36.5 -160q0 -202 -167 -202q-55 0 -86 25t-37 61l38 5q12 -58 85 -59zM189 -32q54 -2 87 30t27 91q-21 84 -109 83q-46 -1 -74 -26t-28 -75
q0 -100 97 -103z" />
    <glyph glyph-name="plus.inf" unicode="&#xf220;" horiz-adv-x="380" 
d="M173 -140v133h-133v34h133v133h34v-133h133v-34h-133v-133h-34z" />
    <glyph glyph-name="minus.inf" unicode="&#xf221;" horiz-adv-x="380" 
d="M340 -7h-300v34h300v-34z" />
    <glyph glyph-name="equal.inf" unicode="&#xf222;" horiz-adv-x="380" 
d="M340 -67h-300v34h300v-34zM340 53h-300v34h300v-34z" />
    <glyph glyph-name="parenleft.inf" unicode="&#xf223;" horiz-adv-x="210" 
d="M106 -3q0 -128 54 -253h-38q-57 120 -57 253t57 253h38q-54 -125 -54 -253z" />
    <glyph glyph-name="parenright.inf" unicode="&#xf224;" horiz-adv-x="210" 
d="M104 -3q0 128 -54 253h38q57 -120 57 -253t-57 -253h-38q54 125 54 253z" />
    <glyph glyph-name="percentoldstyle" unicode="&#xf225;" horiz-adv-x="890" 
d="M211 505q-127 0 -127 -120t127 -120t127 120t-127 120zM211 230q-73 0 -118 39.5t-45 115.5t45 115.5t118 39.5t118 -39.5t45 -115.5t-45 -115.5t-118 -39.5zM599 530h42l-350 -530h-42zM679 25q127 0 127 120t-127 120t-127 -120t127 -120zM679 300q73 0 118 -39.5
t45 -115.5t-45 -115.5t-118 -39.5t-118 39.5t-45 115.5t45 115.5t118 39.5z" />
    <glyph glyph-name="perthousandoldstyle" unicode="&#xf226;" horiz-adv-x="1270" 
d="M211 505q-127 0 -127 -120t127 -120t127 120t-127 120zM211 230q-73 0 -118 39.5t-45 115.5t45 115.5t118 39.5t118 -39.5t45 -115.5t-45 -115.5t-118 -39.5zM599 530h42l-350 -530h-42zM679 25q127 0 127 120t-127 120t-127 -120t127 -120zM679 300q73 0 118 -39.5
t45 -115.5t-45 -115.5t-118 -39.5t-118 39.5t-45 115.5t45 115.5t118 39.5zM1059 25q127 0 127 120t-127 120t-127 -120t127 -120zM1059 300q73 0 118 -39.5t45 -115.5t-45 -115.5t-118 -39.5t-118 39.5t-45 115.5t45 115.5t118 39.5z" />
    <glyph glyph-name="partcloud" unicode="&#xf227;" horiz-adv-x="1548" 
d="M1025 764h63v-163h-63v163zM1187 746l59 -21l-56 -153l-59 22zM1333 674l49 -40l-105 -125l-48 41zM1446 557l32 -55l-141 -81l-32 54zM1512 408l11 -63l-160 -28l-11 62zM1523 245l-11 -62l-160 28l11 62zM1478 88l-32 -55l-141 82l32 54zM1382 -44l-49 -40l-104 124
l48 41zM1246 -135l-59 -21l-56 153l59 21zM1088 -174h-63v163h63v-163zM257 637q54 90 146.5 143.5t200.5 53.5q133 0 238.5 -77.5t145.5 -200.5q1 1 3 1q34 8 65 8q112 0 190.5 -79t78.5 -191t-78.5 -190.5t-190.5 -78.5h-721q-129 0 -219.5 91t-90.5 219q0 107 65.5 190.5
t166.5 110.5zM985 295h-68q28 65 28 136q0 141 -100 240.5t-241 99.5q-78 0 -147 -33.5t-116 -91.5q127 -2 215.5 -92.5t88.5 -217.5q0 -15 -2 -41h-64q3 20 3 41q0 103 -72.5 175t-174.5 72q-103 0 -175 -72t-72 -175t72 -175t175 -72h721q86 0 146 60.5t60 145.5
q0 86 -60 146.5t-146 60.5q-26 0 -50 -6h-1q-1 -1 -2 -1q5 -35 5 -64q0 -70 -23 -136z" />
    <glyph glyph-name="plus.cap" unicode="&#xf231;" horiz-adv-x="860" 
d="M413 0v373h-373v34h373v373h34v-373h373v-34h-373v-373h-34z" />
    <glyph glyph-name="minus.cap" unicode="&#xf232;" horiz-adv-x="860" 
d="M40 373v34h780v-34h-780z" />
    <glyph glyph-name="multiply.cap" unicode="&#xf233;" horiz-adv-x="860" 
d="M30 14l376 376l-376 376l24 24l376 -376l376 376l24 -24l-376 -376l376 -376l-24 -24l-376 376l-376 -376z" />
    <glyph glyph-name="divide.cap" unicode="&#xf234;" horiz-adv-x="860" 
d="M460 60v-60h-60v60h60zM460 780v-60h-60v60h60zM40 373v34h780v-34h-780z" />
    <glyph glyph-name="equal.cap" unicode="&#xf235;" horiz-adv-x="860" 
d="M40 229v34h780v-34h-780zM40 517v34h780v-34h-780z" />
    <glyph glyph-name="less.cap" unicode="&#xf236;" horiz-adv-x="860" 
d="M239 467l-162 -77l162 -77l581 -284v-39l-780 384v32l780 384v-39z" />
    </font>
</defs>
</svg>
