<?xml version="1.0" standalone="no"?>
<!DOCTYPE svg PUBLIC "-//W3C//DTD SVG 1.1//EN" "http://www.w3.org/Graphics/SVG/1.1/DTD/svg11.dtd" >
<svg>
<metadata>
Created by FontForge 20120731 at Wed Mar  9 23:02:03 2016
 By ,,,
Copyright (c) Village Type &#38; Design LLC, 2004. All rights reserved.
</metadata>
<defs>
<font id="GalaxiePolaris-BookItalic" horiz-adv-x="600" >
  <font-face 
    font-family="Galaxie Polaris Book Italic"
    font-weight="475"
    font-style="italic"
    font-stretch="normal"
    units-per-em="1000"
    panose-1="2 11 5 4 3 3 1 2 1 3"
    ascent="800"
    descent="-200"
    x-height="530"
    cap-height="780"
    bbox="-241 -256 1523 1134"
    underline-thickness="30"
    underline-position="-70"
    unicode-range="U+0020-FF3F"
  />
<missing-glyph horiz-adv-x="960" 
d="M90 0v780h780v-780h-780zM480 345l-279 -279h558zM201 714l279 -279l279 279h-558zM435 390l-275 275v-550zM525 390l275 -275v550z" />
    <glyph glyph-name="f_dotlessi" unicode="f&#x131;" horiz-adv-x="635" 
d="M54 468l8 62h106l8 72q6 46 16.5 79.5t32.5 64.5t62 47.5t96 16.5q35 0 56 -8l-16 -64q-24 9 -48 9q-63 0 -92.5 -29t-40.5 -116l-8 -72h153l-8 -62h-153l-82 -668h-66l82 668h-106zM437 0l65 530h66l-65 -530h-66z" />
    <glyph glyph-name="fi" unicode="fi" horiz-adv-x="635" 
d="M54 468l8 62h106l8 72q6 46 16.5 79.5t32.5 64.5t62 47.5t96 16.5q35 0 56 -8l-16 -64q-24 9 -48 9q-63 0 -92.5 -29t-40.5 -116l-8 -72h153l-8 -62h-153l-82 -668h-66l82 668h-106zM603 739l-10 -86h-86l10 86h86zM437 0l65 530h66l-65 -530h-66z" />
    <glyph glyph-name="fl" unicode="fl" horiz-adv-x="635" 
d="M54 468l8 62h106l8 72q6 46 16.5 79.5t32.5 64.5t62 47.5t96 16.5q35 0 56 -8l-16 -64q-24 9 -48 9q-63 0 -92.5 -29t-40.5 -116l-8 -72h153l-8 -62h-153l-82 -668h-66l82 668h-106zM437 0l98 800h66l-98 -800h-66z" />
    <glyph glyph-name=".notdef" horiz-adv-x="960" 
d="M90 0v780h780v-780h-780zM480 345l-279 -279h558zM201 714l279 -279l279 279h-558zM435 390l-275 275v-550zM525 390l275 -275v550z" />
    <glyph glyph-name=".null" horiz-adv-x="0" 
 />
    <glyph glyph-name="nonmarkingreturn" horiz-adv-x="333" 
 />
    <glyph glyph-name="space" unicode=" " horiz-adv-x="240" 
 />
    <glyph glyph-name="exclam" unicode="!" horiz-adv-x="260" 
d="M137 780h96l-102 -590h-36zM143 86l-10 -86h-86l10 86h86z" />
    <glyph glyph-name="quotedbl" unicode="&#x22;" horiz-adv-x="330" 
d="M102 780h86l-53 -250h-33v250zM252 780h86l-53 -250h-33v250z" />
    <glyph glyph-name="numbersign" unicode="#" horiz-adv-x="680" 
d="M660 494h-125l-83 -224h111l-8 -64h-127l-77 -206h-65l77 206h-164l-77 -206h-65l77 206h-109l8 64h125l83 224h-111l8 64h127l77 206h65l-77 -206h164l77 206h65l-77 -206h109zM306 494l-83 -224h164l83 224h-164z" />
    <glyph glyph-name="dollar" unicode="$" horiz-adv-x="530" 
d="M433 764l-43 -113q79 -13 131 -54l-22 -57q-56 42 -131 52l-64 -173q30 -5 49 -8.5t45 -13t40.5 -21.5t25.5 -33t11 -49q0 -92 -75.5 -140.5t-177.5 -48.5q-24 0 -34 1l-40 -106h-65l43 116q-65 15 -104 49l22 57q43 -34 104 -47l72 192q-30 4 -52 10.5t-45.5 19
t-36.5 34t-13 51.5q0 60 39 101.5t93 57.5t117 16h6l40 107h65zM281 358l-71 -192h20q174 0 174 116q0 21 -7.5 34t-26.5 21.5t-36.5 12t-52.5 8.5zM305 596q-163 0 -163 -103q0 -32 23.5 -44.5t76.5 -20.5z" />
    <glyph glyph-name="percent" unicode="%" horiz-adv-x="1055" 
d="M260 419q65 0 105 48t40 133q0 115 -109 115q-66 0 -106 -48t-40 -133q0 -115 110 -115zM304 774q75 0 120 -43t45 -125q0 -111 -61.5 -178.5t-154.5 -67.5q-76 0 -121 43t-45 125q0 111 61 178.5t156 67.5zM870 764l-599 -764h-72l599 764h72zM772 49q65 0 105 48
t40 133q0 115 -109 115q-66 0 -106 -48t-40 -133q0 -115 110 -115zM816 404q75 0 120 -43t45 -125q0 -111 -61.5 -178.5t-154.5 -67.5q-76 0 -121 43t-45 125q0 111 61 178.5t156 67.5z" />
    <glyph glyph-name="ampersand" unicode="&#x26;" horiz-adv-x="731" 
d="M483 164q-97 86 -243 231q-75 -40 -111.5 -88.5t-36.5 -122.5q0 -35 13 -61t31 -39.5t43.5 -21.5t42.5 -9.5t36 -1.5q75 0 127.5 28t97.5 85zM269 468q124 -127 253 -244q70 139 50 309l74 -26q5 -82 -16 -171.5t-62 -155.5l107 -104l-11 -86l-134 128
q-104 -128 -280 -128q-43 0 -82 10t-72.5 31t-53 58.5t-19.5 87.5q0 90 51 159t127 101q-24 24 -37 39.5t-27 48t-14 68.5q0 94 57 145.5t160 51.5q173 0 195 -139l-70 -24q-5 51 -35.5 76.5t-92.5 25.5q-145 0 -145 -124q0 -12 2 -23.5t4.5 -20t9 -19.5t9.5 -16t12.5 -16
t12.5 -14t14 -14.5t13 -13.5z" />
    <glyph glyph-name="quotesingle" unicode="'" horiz-adv-x="180" 
d="M102 780h86l-53 -250h-33v250z" />
    <glyph glyph-name="parenleft" unicode="(" horiz-adv-x="240" 
d="M286 830q-172 -290 -172 -629q0 -170 55 -331h-65q-61 130 -61 337q0 163 53.5 346.5t124.5 276.5h65z" />
    <glyph glyph-name="parenright" unicode=")" horiz-adv-x="240" 
d="M-41 -130q172 290 172 629q0 170 -55 331h65q61 -130 61 -337q0 -163 -53.5 -346.5t-124.5 -276.5h-65z" />
    <glyph glyph-name="asterisk" unicode="*" horiz-adv-x="300" 
d="M169 780h73l-22 -99l95 40l15 -69l-100 -21l56 -74l-64 -43l-39 84l-60 -83l-54 43l74 73l-93 21l31 70l88 -40v98z" />
    <glyph glyph-name="plus" unicode="+" horiz-adv-x="470" 
d="M186 195l20 163h-163l8 64h163l20 163h64l-20 -163h163l-8 -64h-163l-20 -163h-64z" />
    <glyph glyph-name="comma" unicode="," horiz-adv-x="220" 
d="M37 86h88l-121 -250h-33z" />
    <glyph glyph-name="hyphen" unicode="-" horiz-adv-x="360" 
d="M307 303h-260l8 64h260z" />
    <glyph glyph-name="period" unicode="." horiz-adv-x="220" 
d="M123 86l-10 -86h-86l10 86h86z" />
    <glyph glyph-name="slash" unicode="/" horiz-adv-x="320" 
d="M377 870l-348 -960h-71l347 960h72z" />
    <glyph glyph-name="zero" unicode="0" horiz-adv-x="700" 
d="M316 53q67 0 117.5 35t80.5 97t44.5 140.5t14.5 171.5q0 112 -42 163t-134 51q-88 0 -147.5 -61.5t-85 -158t-25.5 -222.5q0 -113 42.5 -164.5t134.5 -51.5zM405 774q125 0 182 -66.5t57 -205.5q0 -110 -19 -200.5t-58 -161.5t-105 -110.5t-154 -39.5q-125 0 -182.5 67
t-57.5 207q0 110 19.5 200t58.5 161t105.5 110t153.5 39z" />
    <glyph glyph-name="one" unicode="1" horiz-adv-x="700" 
d="M570 0h-510l7 64h216l74 601q-81 -81 -246 -125l8 69q84 21 143 60t118 105h59l-88 -710h226z" />
    <glyph glyph-name="two" unicode="2" horiz-adv-x="700" 
d="M172 572l-64 22q67 180 305 180q103 0 169 -49t66 -140q0 -25 -4.5 -47.5t-10.5 -40t-19.5 -35t-22.5 -29t-30 -25.5t-31.5 -21.5t-37 -20t-37.5 -17.5t-41.5 -18t-40.5 -17q-131 -56 -192.5 -110t-76.5 -140l229 1h272l-7 -65h-572q7 66 28.5 118.5t47.5 87.5t71.5 67
t83.5 51t100 45q124 53 150 68q59 36 70 96q4 19 4 43q0 39 -18 67.5t-47.5 42t-56.5 19t-54 5.5q-101 0 -155.5 -32.5t-77.5 -105.5z" />
    <glyph glyph-name="three" unicode="3" horiz-adv-x="700" 
d="M167 572l-64 22q63 180 292 180q109 0 177 -43.5t68 -131.5q0 -83 -50 -140t-113 -60q57 -7 101 -47.5t44 -113.5q0 -109 -86 -178.5t-243 -69.5q-232 0 -254 179l69 24q2 -74 50.5 -108t151.5 -34q117 0 180 46.5t63 139.5q0 34 -13 58t-31 37t-48.5 20t-54 8.5
t-58.5 1.5h-103l8 65h103q37 0 65 3t57.5 13.5t48.5 28t31.5 48.5t12.5 74q0 117 -175 117q-102 0 -155 -32.5t-74 -106.5z" />
    <glyph glyph-name="four" unicode="4" horiz-adv-x="700" 
d="M618 185h-145l-22 -185h-66l22 185h-360l6 51l430 538h63l-65 -525h145zM415 249l38 310l16 115l-83 -110l-171 -213l-84 -102h284z" />
    <glyph glyph-name="five" unicode="5" horiz-adv-x="700" 
d="M129 196q5 -75 44 -110t131 -35q107 0 177 61t70 182q0 154 -174 154q-127 0 -197 -70l-56 19l82 367h428l-8 -65h-374l-55 -243q78 53 192 53q112 0 171.5 -54t59.5 -156q0 -143 -90 -226t-222 -83q-126 0 -182 47t-66 135z" />
    <glyph glyph-name="six" unicode="6" horiz-adv-x="700" 
d="M582 601q-5 56 -41 83.5t-114 27.5q-121 0 -197 -83t-90 -259q37 63 104.5 96.5t146.5 33.5q105 0 165.5 -57t60.5 -157q0 -132 -84.5 -214t-214.5 -82q-126 0 -186 70t-60 213q0 148 37 257.5t122 176.5t212 67q97 0 150 -43t60 -106zM546 282q0 153 -172 153
q-99 0 -164.5 -59.5t-68.5 -167.5q10 -82 53.5 -119.5t124.5 -37.5q100 0 163.5 60t63.5 171z" />
    <glyph glyph-name="seven" unicode="7" horiz-adv-x="700" 
d="M245 0h-76l365 597l62 102h-478l8 65h558l-6 -51z" />
    <glyph glyph-name="eight" unicode="8" horiz-adv-x="700" 
d="M361 423q210 0 210 170q0 118 -174 118q-209 0 -209 -168q0 -70 47 -95t126 -25zM316 51q232 0 232 174q0 136 -194 136q-43 0 -80.5 -8.5t-74 -28t-57.5 -57.5t-21 -91q0 -125 195 -125zM308 -10q-127 0 -192 46t-65 130q0 96 57.5 159t128.5 67q-52 8 -85 48t-33 103
q0 78 42 131.5t104.5 76.5t139.5 23q103 0 169.5 -42t66.5 -130q0 -81 -48.5 -142.5t-113.5 -67.5q58 -9 98 -48.5t40 -113.5q0 -113 -79.5 -176.5t-229.5 -63.5z" />
    <glyph glyph-name="nine" unicode="9" horiz-adv-x="700" 
d="M131 163q5 -56 41 -83.5t114 -27.5q121 0 197 83t90 259q-37 -63 -104.5 -96.5t-146.5 -33.5q-105 0 -165.5 57t-60.5 157q0 132 84.5 214t214.5 82q126 0 186 -70t60 -213q0 -148 -37 -257.5t-122 -176.5t-212 -67q-97 0 -150 43t-60 106zM167 482q0 -153 172 -153
q99 0 164.5 59.5t68.5 167.5q-10 82 -53.5 119.5t-124.5 37.5q-100 0 -163.5 -60t-63.5 -171z" />
    <glyph glyph-name="colon" unicode=":" horiz-adv-x="220" 
d="M123 86l-10 -86h-86l10 86h86zM168 453l-10 -86h-86l10 86h86z" />
    <glyph glyph-name="semicolon" unicode=";" horiz-adv-x="220" 
d="M168 453l-10 -86h-86l10 86h86zM37 86h88l-121 -250h-33z" />
    <glyph glyph-name="less" unicode="&#x3c;" horiz-adv-x="470" 
d="M112 390l127 -62l180 -90l-9 -69l-367 185l9 72l413 185l-9 -69l-202 -90z" />
    <glyph glyph-name="equal" unicode="=" horiz-adv-x="470" 
d="M424 278h-390l7 64h390zM443 438h-390l8 64h390z" />
    <glyph glyph-name="greater" unicode="&#x3e;" horiz-adv-x="470" 
d="M231 328l141 62l-126 62l-180 90l9 69l367 -185l-9 -72l-413 -185l9 69z" />
    <glyph glyph-name="question" unicode="?" horiz-adv-x="570" 
d="M247 190h-46q-5 29 -5 63q0 42 10.5 73.5t32.5 52t36.5 29.5t42.5 22q82 38 109 62q54 46 54 119q0 116 -148 116q-157 0 -200 -139l-63 21q66 181 270 181q96 0 154 -46.5t58 -129.5q0 -23 -4.5 -44t-11 -37.5t-18 -32.5t-21.5 -27.5t-26 -24t-26.5 -19.5t-28.5 -16.5
t-26 -13t-25 -11.5t-20 -9q-4 -2 -11 -5q-25 -11 -36.5 -18t-26 -22t-20.5 -39t-6 -59q0 -12 2 -46zM270 86l-10 -86h-86l10 86h86z" />
    <glyph glyph-name="at" unicode="@" horiz-adv-x="1010" 
d="M564 800q202 0 304.5 -93.5t102.5 -252.5q0 -184 -75.5 -289t-232.5 -105h-35l-2 86q-27 -44 -76.5 -70t-102.5 -26q-86 0 -141 49t-55 149q0 136 74.5 214t181.5 78q53 0 96.5 -26t59.5 -70l23 86h60l-22 -124l-27 -222l-6 -64q59 -3 103 23.5t68 73.5t35.5 102.5
t11.5 120.5q0 129 -86.5 214t-266.5 85q-106 0 -192.5 -42t-142.5 -114.5t-86 -167.5t-30 -203q0 -166 89 -263.5t263 -97.5q136 0 218.5 38t106.5 89l63 -22q-37 -68 -135.5 -117t-259.5 -49q-194 0 -302 109t-108 304q0 171 65 306.5t185 213t274 77.5zM641 264l8 62
q0 60 -36.5 105.5t-111.5 45.5q-83 0 -133.5 -58t-50.5 -167q0 -139 139 -139q73 0 124.5 47t60.5 104z" />
    <glyph glyph-name="A" unicode="A" horiz-adv-x="720" 
d="M-19 0l397 790h76l205 -790h-77l-62 247h-340l-122 -247h-77zM407 712l-95 -198l-100 -201h291l-49 201z" />
    <glyph glyph-name="B" unicode="B" horiz-adv-x="695" 
d="M365 0h-315l95 780h309q34 0 64.5 -7.5t59.5 -25t46 -51.5t17 -82q0 -92 -40 -144t-87 -65q47 -10 78 -49t31 -106q0 -250 -258 -250zM128 66h236q26 0 45.5 2t48 12t46 28.5t31 54t13.5 85.5q0 38 -12 63.5t-34.5 36.5t-44 15t-51.5 4h-241zM435 714h-228l-34 -281h228
q78 0 121 38.5t43 139.5q0 59 -32 81t-98 22z" />
    <glyph glyph-name="C" unicode="C" horiz-adv-x="750" 
d="M646 580q-6 76 -53.5 110.5t-148.5 34.5q-67 0 -120 -23.5t-87 -63.5t-56 -95t-31.5 -114.5t-9.5 -126.5q0 -247 221 -247q101 0 157.5 35t80.5 110l65 -23q-69 -187 -311 -187q-145 0 -216 80.5t-71 227.5q0 227 100 359.5t285 132.5q241 0 265 -186z" />
    <glyph glyph-name="D" unicode="D" horiz-adv-x="765" 
d="M308 0h-258l95 780h258q310 0 310 -300q0 -242 -107 -361t-298 -119zM128 66h188q162 0 242 107t80 296q0 245 -243 245h-188z" />
    <glyph glyph-name="E" unicode="E" horiz-adv-x="695" 
d="M145 780h520l-8 -66h-450l-34 -281h410l-8 -66h-410l-37 -301h470l-8 -66h-540z" />
    <glyph glyph-name="F" unicode="F" horiz-adv-x="630" 
d="M165 367l-45 -367h-70l95 780h500l-8 -66h-430l-34 -281h390l-8 -66h-390z" />
    <glyph glyph-name="G" unicode="G" horiz-adv-x="774" 
d="M361 55q140 0 231 59l28 223h-170l8 66h240l-41 -333q-78 -46 -146.5 -63t-157.5 -17q-145 0 -216 80.5t-71 227.5q0 227 100 359.5t285 132.5q241 0 265 -186l-70 -24q-6 76 -53.5 110.5t-148.5 34.5q-67 0 -120 -23.5t-87 -63.5t-56 -95t-31.5 -114.5t-9.5 -126.5
q0 -247 221 -247z" />
    <glyph glyph-name="H" unicode="H" horiz-adv-x="750" 
d="M645 780h70l-95 -780h-70l45 367h-430l-45 -367h-70l95 780h70l-42 -347h430z" />
    <glyph glyph-name="I" unicode="I" horiz-adv-x="290" 
d="M235 780l-95 -780h-70l95 780h70z" />
    <glyph glyph-name="J" unicode="J" horiz-adv-x="560" 
d="M69 164q0 -109 131 -109q172 0 190 144l71 581h71l-70 -570q-12 -99 -82 -159.5t-182 -60.5q-195 0 -201 149z" />
    <glyph glyph-name="K" unicode="K" horiz-adv-x="695" 
d="M215 780l-51 -419l96 94l341 325h102l-371 -350l301 -430h-90l-265 379l-126 -119l-32 -260h-70l95 780h70z" />
    <glyph glyph-name="L" unicode="L" horiz-adv-x="585" 
d="M215 780l-87 -714h410l-8 -66h-480l95 780h70z" />
    <glyph glyph-name="M" unicode="M" horiz-adv-x="912" 
d="M383 0l-153 483l-40 141l-37 -334l-35 -290h-68l95 780h61l167 -515l52 -189l98 189l293 515h61l-95 -780h-68l35 290l46 340l-75 -147l-271 -483h-66z" />
    <glyph glyph-name="N" unicode="N" horiz-adv-x="750" 
d="M557 0l-285 515l-75 142l-29 -267l-47 -390h-71l95 780h63l285 -515l75 -142l28 267l48 390h71l-95 -780h-63z" />
    <glyph glyph-name="O" unicode="O" horiz-adv-x="790" 
d="M353 -10q-145 0 -216 80.5t-71 227.5q0 103 23.5 191t70 156t121 106.5t170.5 38.5q146 0 216.5 -80t70.5 -228q0 -103 -23.5 -191t-70 -156t-121 -106.5t-170.5 -38.5zM444 725q-68 0 -121.5 -25t-87 -65.5t-55.5 -96.5t-31 -114t-9 -122q0 -247 221 -247q84 0 145.5 37
t94.5 100t48 134t15 153q0 246 -220 246z" />
    <glyph glyph-name="P" unicode="P" horiz-adv-x="650" 
d="M169 402h217q33 0 62.5 8.5t57.5 28t44.5 58.5t16.5 94q0 39 -13 65t-36 38t-44.5 16t-49.5 4h-217zM161 336l-41 -336h-70l95 780h276q45 0 82 -8.5t70 -28t51.5 -56.5t18.5 -89q0 -70 -24 -122.5t-64.5 -82t-87.5 -43.5t-100 -14h-206z" />
    <glyph glyph-name="Q" unicode="Q" horiz-adv-x="790" 
d="M738 -131l-9 -79l-514 225q-149 66 -149 284q0 103 24 191t70 155.5t120.5 106t170.5 38.5q146 0 216.5 -80t70.5 -228q0 -125 -33.5 -226.5t-106 -172.5t-176.5 -88l-1 -4l102 -41zM444 725q-68 0 -121.5 -25t-87 -65.5t-55.5 -96.5t-31 -114t-9 -122q0 -247 221 -247
q84 0 145.5 37t94.5 100t48 134t15 153q0 246 -220 246z" />
    <glyph glyph-name="R" unicode="R" horiz-adv-x="695" 
d="M162 347l-42 -347h-70l95 780h300q219 0 219 -176q0 -112 -59.5 -178.5t-152.5 -75.5l171 -350h-88l-161 347h-212zM170 413h239q37 0 66 7.5t56 26.5t42 57t15 93q0 32 -9.5 54.5t-22.5 34.5t-34 18.5t-37 8t-39 1.5h-239z" />
    <glyph glyph-name="S" unicode="S" horiz-adv-x="710" 
d="M602 588q-6 73 -51.5 105t-145.5 32q-32 0 -64.5 -8t-67 -25.5t-56 -53t-21.5 -84.5q0 -48 38 -73.5t139 -37.5q67 -8 109 -18t79 -30t53.5 -52.5t16.5 -81.5q0 -130 -92.5 -200.5t-225.5 -70.5q-240 0 -264 183l71 25q6 -75 53 -109t148 -34q61 0 113.5 18.5t89.5 64
t37 111.5q0 59 -44 88t-154 42q-41 5 -72 11t-64 18.5t-54.5 30t-35 45.5t-13.5 64q0 116 83.5 179t204.5 63q236 0 260 -178z" />
    <glyph glyph-name="T" unicode="T" horiz-adv-x="620" 
d="M392 714l-87 -714h-70l87 714h-250l8 66h570l-8 -66h-250z" />
    <glyph glyph-name="U" unicode="U" horiz-adv-x="774" 
d="M345 -10q-306 0 -271 290l61 500h72l-61 -502q-14 -105 30 -164t177 -59q69 0 119 16.5t79 48.5t44 69.5t21 88.5l61 502h72l-61 -500q-35 -290 -343 -290z" />
    <glyph glyph-name="V" unicode="V" horiz-adv-x="720" 
d="M753 780l-397 -790h-76l-203 790h76l128 -514l47 -198l95 198l254 514h76z" />
    <glyph glyph-name="W" unicode="W" horiz-adv-x="960" 
d="M443 495l-220 -505h-61l-65 790h73l41 -500l3 -180l67 180l220 500h68l98 -500l26 -180l51 180l156 500h73l-259 -790h-61l-96 505l-33 195z" />
    <glyph glyph-name="X" unicode="X" horiz-adv-x="700" 
d="M352 345l-109 -141l-160 -204h-85l273 342l50 61l-34 58l-176 319h82l98 -180l75 -140l109 140l142 180h84l-254 -319l-48 -58l223 -403h-85l-110 204z" />
    <glyph glyph-name="Y" unicode="Y" horiz-adv-x="710" 
d="M75 780h81l132 -244l75 -141l109 141l192 244h81l-354 -445l-41 -335h-70l41 335z" />
    <glyph glyph-name="Z" unicode="Z" horiz-adv-x="690" 
d="M13 0l7 58l483 552l96 104h-479l8 66h567l-7 -58l-484 -552l-96 -104h500l-8 -66h-587z" />
    <glyph glyph-name="bracketleft" unicode="[" horiz-adv-x="240" 
d="M223 764l-101 -828h60l-8 -66h-130l117 960h130l-8 -66h-60z" />
    <glyph glyph-name="backslash" unicode="\" horiz-adv-x="320" 
d="M188 -90l-112 960h70l112 -960h-70z" />
    <glyph glyph-name="bracketright" unicode="]" horiz-adv-x="240" 
d="M22 -64l101 828h-60l8 66h130l-117 -960h-129l7 66h60z" />
    <glyph glyph-name="asciicircum" unicode="^" horiz-adv-x="470" 
d="M284 725l-79 -134l-113 -191h-69l232 390h72l138 -390h-69l-67 191z" />
    <glyph glyph-name="underscore" unicode="_" horiz-adv-x="300" 
d="M215 -200h-259l7 64h260z" />
    <glyph glyph-name="grave" unicode="`" 
d="M222 800h82l68 -208h-65z" />
    <glyph glyph-name="a" unicode="a" horiz-adv-x="604" 
d="M560 530l-22 -124l-34 -282l-9 -124h-60l-2 86q-32 -45 -82 -70.5t-108 -25.5q-98 0 -151 57t-53 162q0 146 73.5 238.5t198.5 92.5q58 0 101.5 -25.5t64.5 -70.5l23 86h60zM448 204l15 122q0 59 -40.5 105t-117.5 46q-89 0 -142.5 -73t-53.5 -186q0 -80 37.5 -122.5
t106.5 -42.5q76 0 130.5 47.5t64.5 103.5z" />
    <glyph glyph-name="b" unicode="b" horiz-adv-x="599" 
d="M194 800l-44 -355q32 44 82 69.5t108 25.5q99 0 152 -57t53 -162q0 -146 -74.5 -238.5t-198.5 -92.5q-58 0 -101.5 25.5t-64.5 70.5l-22 -86h-60l21 124l83 676h66zM278 53q89 0 142.5 73t53.5 186q0 79 -37.5 122t-106.5 43q-76 0 -130.5 -47.5t-63.5 -103.5l-15 -122
q0 -60 40 -105.5t117 -45.5z" />
    <glyph glyph-name="c" unicode="c" horiz-adv-x="550" 
d="M438 377q-11 102 -127 102q-93 0 -148 -72.5t-55 -188.5q0 -82 39 -124.5t112 -42.5q116 0 151 102l65 -23q-54 -140 -230 -140q-99 0 -152.5 57.5t-53.5 162.5q0 146 74.5 238t199.5 92q173 0 195 -139z" />
    <glyph glyph-name="d" unicode="d" horiz-adv-x="599" 
d="M477 445l44 355h66l-83 -676l-9 -124h-60l-2 86q-32 -45 -82 -70.5t-108 -25.5q-98 0 -151 57t-53 162q0 146 73.5 238.5t198.5 92.5q58 0 101.5 -25.5t64.5 -69.5zM305 477q-88 0 -142 -73.5t-54 -185.5q0 -80 37.5 -122.5t106.5 -42.5q76 0 130.5 47.5t64.5 103.5
l15 122q0 59 -40.5 105t-117.5 46z" />
    <glyph glyph-name="e" unicode="e" horiz-adv-x="570" 
d="M419 153l65 -23q-24 -62 -82.5 -101t-152.5 -39q-100 0 -155.5 55t-55.5 162q0 151 76.5 242t202.5 91q195 0 195 -207q0 -39 -8 -94h-395q-10 -90 31 -139t118 -49q130 0 161 102zM314 480q-166 0 -198 -182h323q10 81 -20 131.5t-105 50.5z" />
    <glyph glyph-name="f" unicode="f" horiz-adv-x="385" 
d="M54 468l8 62h106l8 72q6 46 16.5 79.5t32.5 64.5t62 47.5t96 16.5q35 0 56 -8l-16 -64q-24 9 -48 9q-63 0 -92.5 -29t-40.5 -116l-8 -72h153l-8 -62h-153l-82 -668h-66l82 668h-106z" />
    <glyph glyph-name="g" unicode="g" horiz-adv-x="599" 
d="M85 -47q5 -104 134 -104q82 0 137.5 31t63.5 97l15 128q-32 -44 -81.5 -69.5t-107.5 -25.5q-100 0 -153 53.5t-53 157.5q0 144 73.5 231.5t197.5 87.5q58 0 101.5 -25.5t64.5 -70.5l23 86h60l-22 -124l-51 -422q-11 -93 -82 -143.5t-186 -50.5q-189 0 -205 139zM305 477
q-89 0 -142 -67t-53 -179q0 -78 37.5 -118t107.5 -40q76 0 131 47.5t64 103.5l13 102q0 59 -40.5 105t-117.5 46z" />
    <glyph glyph-name="h" unicode="h" horiz-adv-x="574" 
d="M30 0l98 800h66l-44 -355q32 44 83 69.5t110 25.5q86 0 135.5 -46t39.5 -124l-45 -370h-66l43 355q7 57 -27 89.5t-98 32.5q-70 0 -125 -48t-64 -103l-40 -326h-66z" />
    <glyph glyph-name="i" unicode="i" horiz-adv-x="250" 
d="M218 739l-10 -86h-86l10 86h86zM52 0l65 530h66l-65 -530h-66z" />
    <glyph glyph-name="j" unicode="j" horiz-adv-x="250" 
d="M-80 -147q63 0 91.5 28.5t39.5 116.5l66 532h66l-66 -532q-6 -47 -16.5 -80t-32 -64.5t-60.5 -47.5t-95 -16q-35 0 -56 8l16 64q18 -9 47 -9zM218 739l-10 -86h-86l10 86h86z" />
    <glyph glyph-name="k" unicode="k" horiz-adv-x="535" 
d="M96 0h-66l98 800h66l-65 -532l109 97l187 165h95l-259 -225l231 -305h-91l-193 259l-90 -79z" />
    <glyph glyph-name="l" unicode="l" horiz-adv-x="250" 
d="M52 0l98 800h66l-98 -800h-66z" />
    <glyph glyph-name="m" unicode="m" horiz-adv-x="863" 
d="M149 530l1 -85q66 95 170 95q133 0 153 -110q35 55 82.5 82.5t97.5 27.5q84 0 124 -45.5t30 -124.5l-45 -370h-66l43 355q15 122 -104 122q-60 0 -108 -48t-58 -103l-40 -326h-66l43 355q7 60 -17 91t-87 31q-61 0 -109 -48t-57 -103l-40 -326h-66l49 407l10 123h60z" />
    <glyph glyph-name="n" unicode="n" horiz-adv-x="574" 
d="M149 530l1 -85q32 44 83 69.5t110 25.5q86 0 135.5 -46t39.5 -124l-45 -370h-66l43 355q7 57 -27 89.5t-98 32.5q-70 0 -125 -48t-64 -103l-40 -326h-66l49 407l10 123h60z" />
    <glyph glyph-name="o" unicode="o" horiz-adv-x="578" 
d="M247 -10q-99 0 -154 55t-55 161q0 152 75.5 243t201.5 91q100 0 154.5 -55t54.5 -161q0 -152 -75.5 -243t-201.5 -91zM307 478q-92 0 -145.5 -71.5t-53.5 -192.5q0 -162 147 -162q92 0 145.5 71.5t53.5 192.5q0 162 -147 162z" />
    <glyph glyph-name="p" unicode="p" horiz-adv-x="599" 
d="M106 85l-35 -285h-66l74 606l10 124h60l1 -86q32 45 82 70.5t108 25.5q99 0 152 -57t53 -162q0 -146 -74.5 -238.5t-198.5 -92.5q-58 0 -101.5 25.5t-64.5 69.5zM278 53q88 0 142 73.5t54 185.5q0 80 -37.5 122.5t-106.5 42.5q-76 0 -130.5 -47.5t-63.5 -103.5l-15 -122
q0 -60 40 -105.5t117 -45.5z" />
    <glyph glyph-name="q" unicode="q" horiz-adv-x="599" 
d="M398 -200l35 285q-32 -44 -82 -69.5t-108 -25.5q-98 0 -151 57t-53 162q0 146 73.5 238.5t198.5 92.5q58 0 101.5 -25.5t64.5 -70.5l23 86h60l-22 -124l-74 -606h-66zM305 477q-89 0 -142.5 -73t-53.5 -186q0 -79 37.5 -122t106.5 -43q76 0 130.5 47.5t64.5 103.5l15 122
q0 59 -40.5 105t-117.5 46z" />
    <glyph glyph-name="r" unicode="r" horiz-adv-x="395" 
d="M338 540q37 0 58 -8l-16 -68q-21 9 -50 9q-76 0 -131 -47.5t-64 -103.5l-39 -322h-66l49 407l10 123h60l1 -89q29 44 80 71.5t108 27.5z" />
    <glyph glyph-name="s" unicode="s" horiz-adv-x="530" 
d="M91 153q13 -102 131 -102q33 0 62 5.5t56 17.5t42.5 36t15.5 58q0 10 -1.5 18.5t-7 15t-9.5 11t-14 8.5t-16.5 6.5t-21 5t-22.5 4t-27 4.5t-28 4q-3 0 -23.5 3.5t-27.5 5t-26.5 5.5t-28.5 8t-24.5 10.5t-23 14.5t-16.5 18.5t-12.5 24.5t-3.5 30q0 60 36.5 101t84.5 57.5
t100 16.5q173 0 195 -139l-70 -24q-11 102 -127 102q-27 0 -50 -4t-47 -14.5t-38 -32.5t-14 -53q0 -23 18 -37t35.5 -18t62.5 -11l18 -3t29 -4t31.5 -5t29 -6t30 -8t25.5 -11t24 -15.5t17 -20t12.5 -26.5t3.5 -33q0 -63 -39 -107t-93.5 -62t-117.5 -18q-93 0 -142 38
t-59 100z" />
    <glyph glyph-name="t" unicode="t" horiz-adv-x="395" 
d="M44 468l8 62h96l16 135l69 22l-19 -157h163l-8 -62h-163l-33 -270q-11 -87 11.5 -116t85.5 -29q26 0 50 9v-64q-22 -8 -58 -8q-56 0 -92 17t-49.5 46t-17.5 66.5t4 78.5l33 270h-96z" />
    <glyph glyph-name="u" unicode="u" horiz-adv-x="574" 
d="M410 0l-2 85q-32 -44 -83 -69.5t-110 -25.5q-86 0 -135.5 46.5t-39.5 123.5l46 370h66l-44 -355q-7 -57 27.5 -89.5t97.5 -32.5q70 0 125 48t65 103l40 326h66l-50 -407l-9 -123h-60z" />
    <glyph glyph-name="v" unicode="v" horiz-adv-x="540" 
d="M543 530l-274 -540h-81l-141 540h72l77 -317l38 -165l78 165l156 317h75z" />
    <glyph glyph-name="w" unicode="w" horiz-adv-x="810" 
d="M421 459l-64 -143l-154 -326h-77l-59 540h71l26 -312l11 -153l68 153l148 312h76l70 -312l31 -153l46 153l106 312h73l-193 -540h-77l-74 326z" />
    <glyph glyph-name="x" unicode="x" horiz-adv-x="530" 
d="M252 222l-81 -97l-107 -125h-81l235 276l-35 55l-122 199h81l122 -208l80 97l93 111h80l-170 -199l-48 -55l35 -56l133 -220h-81l-76 125z" />
    <glyph glyph-name="y" unicode="y" horiz-adv-x="540" 
d="M547 530l-270 -494l-125 -236h-76l119 220l-152 510h77l79 -291l41 -152l77 152l152 291h78z" />
    <glyph glyph-name="z" unicode="z" horiz-adv-x="540" 
d="M5 0l6 54l315 324l94 90h-339l8 62h419l-7 -54l-315 -324l-94 -90h369l-7 -62h-449z" />
    <glyph glyph-name="braceleft" unicode="{" horiz-adv-x="280" 
d="M14 381h19q40 0 59.5 19.5t26.5 78.5l25 198q17 153 168 153h19l-8 -66h-19q-42 0 -65.5 -20.5t-30.5 -77.5l-24 -194q-10 -84 -61 -122q43 -39 31 -122l-23 -194q-7 -57 11.5 -77.5t60.5 -20.5h19l-8 -66h-19q-149 0 -132 153l25 198q7 59 -7.5 78.5t-54.5 19.5h-19z
" />
    <glyph glyph-name="bar" unicode="|" horiz-adv-x="270" 
d="M231 830l-117 -960h-70l117 960h70z" />
    <glyph glyph-name="braceright" unicode="}" horiz-adv-x="280" 
d="M271 319h-19q-40 0 -59.5 -19.5t-26.5 -78.5l-25 -198q-17 -153 -168 -153h-18l7 66h19q42 0 65.5 20.5t30.5 77.5l23 194q12 85 61 122q-41 38 -31 122l24 194q7 57 -11.5 77.5t-60.5 20.5h-19l8 66h19q149 0 132 -153l-25 -198q-7 -59 7.5 -78.5t54.5 -19.5h19z" />
    <glyph glyph-name="asciitilde" unicode="~" horiz-adv-x="470" 
d="M55 291l-24 50q5 7 14 17t42 27t72 17q37 0 64 -18t51 -36t54 -17q26 1 48 13t31 24l9 11l24 -50q-5 -7 -14 -17t-42 -27t-72 -17q-37 0 -64 18t-51 36t-54 17q-26 -1 -48 -13t-31 -24z" />
    <glyph glyph-name="exclamdown" unicode="&#xa1;" horiz-adv-x="260" 
d="M111 -200h-92l94 540h36zM198 530l-11 -86h-86l11 86h86z" />
    <glyph glyph-name="cent" unicode="&#xa2;" horiz-adv-x="550" 
d="M101 0l49 131q-97 52 -97 195q0 146 74.5 238.5t199.5 92.5q13 0 19 -1l40 108h65l-44 -116q96 -26 114 -122l-69 -32q-8 73 -67 94l-155 -416q16 -4 43 -4q117 0 152 102l62 -30q-57 -133 -227 -133q-32 0 -53 4l-41 -111h-65zM319 596q-89 -1 -143 -74t-54 -186
q0 -95 52 -138l149 398h-4z" />
    <glyph glyph-name="sterling" unicode="&#xa3;" horiz-adv-x="680" 
d="M581 602q0 109 -130 109q-174 0 -192 -144l-17 -136h229l-7 -62h-229l-38 -307h390l-7 -62h-566l7 62h110l38 307h-110l7 62h110l16 125q13 100 80.5 159t179.5 59q191 0 199 -148z" />
    <glyph glyph-name="currency" unicode="&#xa4;" horiz-adv-x="720" 
d="M338 153q104 0 174 70.5t70 206.5q0 96 -52 138.5t-135 42.5q-103 0 -174 -70.5t-71 -204.5q0 -97 52.5 -140t135.5 -43zM-10 88l121 107q-31 54 -31 135q0 67 21 133.5t56 104.5l-94 108l51 46l93 -107q79 59 195 59q115 0 181 -59l119 107l41 -46l-122 -108
q32 -52 32 -130q0 -68 -21 -136.5t-57 -106.5l95 -107l-51 -46l-93 106q-81 -58 -195 -58t-181 58l-119 -106z" />
    <glyph glyph-name="yen" unicode="&#xa5;" horiz-adv-x="680" 
d="M70 780h79l127 -244l72 -142l106 142l187 244h79l-312 -400h174l-7 -62h-203l-8 -61h203l-8 -62h-203l-23 -195h-66l23 195h-203l8 62h203l8 61h-203l7 62h173z" />
    <glyph glyph-name="brokenbar" unicode="&#xa6;" horiz-adv-x="270" 
d="M168 315l-54 -445h-70l54 445h70zM231 830l-54 -445h-70l54 445h70z" />
    <glyph glyph-name="section" unicode="&#xa7;" horiz-adv-x="620" 
d="M345 478q54 -4 90 -11.5t71 -23.5t52.5 -46.5t17.5 -74.5q0 -68 -36.5 -119t-96.5 -74q35 -17 53 -41.5t18 -68.5q0 -75 -40.5 -128.5t-102 -77t-135.5 -23.5q-209 0 -232 161l71 25q5 -62 43.5 -92.5t120.5 -30.5q85 0 144.5 37t59.5 117q0 50 -39.5 68.5t-138.5 26.5
q-42 3 -72 8t-62 16t-52 27t-32.5 42.5t-12.5 62.5q0 68 36 118.5t97 73.5q-35 17 -53 42t-18 71q0 75 41.5 128t102.5 76t134 23q210 0 233 -161l-71 -25q-5 62 -44 92.5t-121 30.5q-83 0 -143.5 -36.5t-60.5 -115.5q0 -50 40 -69.5t138 -27.5zM305 418q-81 0 -140 -38.5
t-59 -115.5q0 -51 38.5 -71.5t133.5 -29.5q9 -1 26 -1q51 0 94.5 14.5t75 50.5t31.5 88q0 51 -38.5 72t-133.5 30q-9 1 -28 1z" />
    <glyph glyph-name="dieresis" unicode="&#xa8;" 
d="M300 739l-10 -86h-86l10 86h86zM486 739l-10 -86h-86l10 86h86z" />
    <glyph glyph-name="copyright" unicode="&#xa9;" horiz-adv-x="880" 
d="M602 472q-10 102 -126 102q-92 0 -145.5 -59t-53.5 -161q0 -73 40 -110.5t114 -37.5q116 0 151 102l65 -23q-55 -140 -230 -140q-100 0 -155 53t-55 148q0 129 73.5 209t196.5 80q176 0 196 -139zM44 341q0 118 63 222t167.5 165.5t221.5 61.5q152 0 253 -100.5
t101 -248.5q0 -89 -37 -172.5t-99 -144t-145 -97.5t-171 -37q-152 0 -253 101t-101 250zM489 725q-150 0 -264.5 -112.5t-114.5 -262.5q0 -125 84.5 -210t211.5 -85q151 0 265 113t114 264q0 124 -84.5 208.5t-211.5 84.5z" />
    <glyph glyph-name="ordfeminine" unicode="&#xaa;" horiz-adv-x="483" 
d="M279 731q-61 0 -98 -49t-37 -131q0 -112 99 -112q57 0 94.5 31.5t45.5 97.5l7 60q0 52 -30 77.5t-81 25.5zM238 380q-75 0 -117 42.5t-42 122.5q0 111 58 178t151 67q74 0 117 -54l12 44h57l-16 -95l-25 -200l-7 -95h-57l-1 40q-53 -50 -130 -50z" />
    <glyph glyph-name="guillemotleft" unicode="&#xab;" horiz-adv-x="520" 
d="M227 143l-7 -58l-191 140l10 80l225 140l-7 -60l-161 -124zM447 143l-7 -58l-191 140l10 80l225 140l-7 -60l-161 -124z" />
    <glyph glyph-name="logicalnot" unicode="&#xac;" horiz-adv-x="500" 
d="M369 250l27 216h-329l8 64h395l-35 -280h-66z" />
    <glyph glyph-name="registered" unicode="&#xae;" horiz-adv-x="880" 
d="M44 341q0 118 63 222t167.5 165.5t221.5 61.5q152 0 253 -100.5t101 -248.5q0 -89 -37 -172.5t-99 -144t-145 -97.5t-171 -37q-152 0 -253 101t-101 250zM489 725q-150 0 -264.5 -112.5t-114.5 -262.5q0 -125 84.5 -210t211.5 -85q151 0 265 113t114 264
q0 124 -84.5 208.5t-211.5 84.5zM333 342l-22 -187h-63l57 470h192q142 0 142 -114q0 -68 -35.5 -113.5t-87.5 -50.5l94 -192h-79l-84 187h-114zM341 402h135q96 0 96 99q0 21 -6.5 34.5t-19.5 19.5t-24 7.5t-26 1.5h-135z" />
    <glyph glyph-name="macron" unicode="&#xaf;" 
d="M205 664l8 64h272l-8 -64h-272z" />
    <glyph glyph-name="degree" unicode="&#xb0;" horiz-adv-x="480" 
d="M258 473q65 0 103.5 38t38.5 107q0 48 -30 72.5t-83 24.5q-65 0 -103.5 -37.5t-38.5 -105.5q0 -99 113 -99zM250 414q-77 0 -123 38.5t-46 111.5q0 98 60.5 154t153.5 56q77 0 122.5 -38t45.5 -111q0 -98 -60.5 -154.5t-152.5 -56.5z" />
    <glyph glyph-name="plusminus" unicode="&#xb1;" horiz-adv-x="470" 
d="M196 275l20 163h-163l8 64h163l20 163h64l-20 -163h163l-8 -64h-163l-20 -163h-64zM409 158h-390l8 64h390z" />
    <glyph glyph-name="uni00B2" unicode="&#xb2;" horiz-adv-x="406" 
d="M261 774q56 0 91.5 -26.5t35.5 -76.5q0 -31 -10.5 -55t-32.5 -41.5t-42.5 -28t-51.5 -22.5q-54 -21 -84.5 -43.5t-38.5 -53.5l104 2h136l-7 -59h-306q11 90 50 129.5t121 74.5q43 18 59 26t29 23.5t13 38.5q0 28 -22.5 40t-51.5 12q-44 0 -67.5 -15t-33.5 -50l-58 20
q34 105 167 105z" />
    <glyph glyph-name="uni00B3" unicode="&#xb3;" horiz-adv-x="412" 
d="M382 495q0 -60 -47.5 -97.5t-130.5 -37.5q-131 0 -141 103l63 22q0 -37 22 -51.5t68 -14.5q104 0 104 74q0 32 -22 41t-62 9h-56l7 59h56q39 0 61.5 12.5t22.5 51.5q0 49 -72 49q-44 0 -68 -15t-33 -51l-57 19q32 106 162 106q58 0 94 -24.5t36 -74.5q0 -74 -63 -100
q23 -7 39.5 -27.5t16.5 -52.5z" />
    <glyph glyph-name="acute" unicode="&#xb4;" 
d="M422 800h82l-137 -208h-65z" />
    <glyph glyph-name="mu" unicode="&#xb5;" horiz-adv-x="574" 
d="M62 -200h-66l90 730h66l-44 -355q-7 -57 27.5 -89.5t97.5 -32.5q70 0 125 48t65 103l40 326h66l-50 -407l-9 -123h-60l-2 85q-32 -44 -83 -69.5t-110 -25.5q-81 0 -127 39l-9 -89z" />
    <glyph glyph-name="paragraph" unicode="&#xb6;" horiz-adv-x="650" 
d="M467 714l-87 -714h-70l41 336h-66q-44 0 -81 8.5t-70 28t-51.5 56.5t-18.5 89q0 70 23.5 122.5t64 82t87.5 43.5t100 14h276l-95 -780h-70l87 714h-70z" />
    <glyph glyph-name="periodcentered" unicode="&#xb7;" horiz-adv-x="220" 
d="M159 378l-11 -86h-86l11 86h86z" />
    <glyph glyph-name="cedilla" unicode="&#xb8;" 
d="M242 12h44l-19 -46q77 -18 77 -80q0 -48 -33.5 -72t-86.5 -24q-49 0 -77 17l20 44q29 -13 59 -13q59 0 59 39t-84 48z" />
    <glyph glyph-name="uni00B9" unicode="&#xb9;" horiz-adv-x="287" 
d="M182 370h-61l38 312q-34 -28 -91 -44l8 63q61 22 106 73h50z" />
    <glyph glyph-name="ordmasculine" unicode="&#xba;" horiz-adv-x="460" 
d="M236 380q-75 0 -116 42t-41 122q0 111 56.5 178.5t150.5 67.5q75 0 116.5 -41.5t41.5 -120.5q0 -112 -56.5 -180t-151.5 -68zM279 731q-61 0 -98 -49t-37 -131q0 -112 99 -112q63 0 99.5 50t36.5 133q0 109 -100 109z" />
    <glyph glyph-name="guillemotright" unicode="&#xbb;" horiz-adv-x="520" 
d="M277 387l7 58l191 -140l-10 -80l-225 -140l7 60l161 124zM57 387l7 58l191 -140l-10 -80l-225 -140l7 60l161 124z" />
    <glyph glyph-name="uni00BC" unicode="&#xbc;" horiz-adv-x="827" 
d="M739 764l-599 -764h-76l599 764h76zM182 370h-61l38 312q-34 -28 -91 -44l8 63q61 22 106 73h50zM763 87h-70l-11 -87h-61l11 87h-175l5 43l217 274h53l-32 -258h70zM639 146l13 103l8 47l-120 -150h99z" />
    <glyph glyph-name="uni00BD" unicode="&#xbd;" horiz-adv-x="889" 
d="M739 764l-599 -764h-76l599 764h76zM182 370h-61l38 312q-34 -28 -91 -44l8 63q61 22 106 73h50zM698 404q56 0 91.5 -26.5t35.5 -76.5q0 -31 -10.5 -55t-32.5 -41.5t-42.5 -28t-51.5 -22.5q-54 -21 -84.5 -43.5t-38.5 -53.5l104 2h136l-7 -59h-306q11 90 50 129.5
t121 74.5q43 18 59 26t29 23.5t13 38.5q0 28 -22.5 40t-51.5 12q-44 0 -67.5 -15t-33.5 -50l-58 20q34 105 167 105z" />
    <glyph glyph-name="uni00BE" unicode="&#xbe;" horiz-adv-x="952" 
d="M864 764l-599 -764h-76l599 764h76zM887 87h-70l-11 -87h-61l11 87h-175l5 43l217 274h53l-32 -258h70zM763 146l13 103l8 47l-120 -150h99zM382 495q0 -60 -47.5 -97.5t-130.5 -37.5q-131 0 -141 103l63 22q0 -37 22 -51.5t68 -14.5q104 0 104 74q0 32 -22 41t-62 9h-56
l7 59h56q39 0 61.5 12.5t22.5 51.5q0 49 -72 49q-44 0 -68 -15t-33 -51l-57 19q32 106 162 106q58 0 94 -24.5t36 -74.5q0 -74 -63 -100q23 -7 39.5 -27.5t16.5 -52.5z" />
    <glyph glyph-name="questiondown" unicode="&#xbf;" horiz-adv-x="535" 
d="M289 340h46q5 -26 5 -57q0 -48 -18 -82.5t-38 -49t-53 -30.5q-8 -4 -35 -15.5t-37 -17t-30 -19.5t-28.5 -27t-16 -35t-7.5 -48q0 -106 150 -106q78 0 125 33.5t70 105.5l63 -21q-66 -181 -265 -181q-96 0 -154.5 44t-58.5 121q0 37 11.5 68t25 50t39.5 37.5t40.5 26
t43.5 20t33 14.5q30 14 39.5 19.5t25.5 20t21 34.5t5 52q0 27 -2 43zM266 444l10 86h86l-10 -86h-86z" />
    <glyph glyph-name="Agrave" unicode="&#xc0;" horiz-adv-x="720" 
d="M-19 0l397 790h76l205 -790h-77l-62 247h-340l-122 -247h-77zM407 712l-95 -198l-100 -201h291l-49 201zM300 1030h82l68 -208h-65z" />
    <glyph glyph-name="Aacute" unicode="&#xc1;" horiz-adv-x="720" 
d="M-19 0l397 790h76l205 -790h-77l-62 247h-340l-122 -247h-77zM407 712l-95 -198l-100 -201h291l-49 201zM510 1030h82l-137 -208h-65z" />
    <glyph glyph-name="Acircumflex" unicode="&#xc2;" horiz-adv-x="720" 
d="M-19 0l397 790h76l205 -790h-77l-62 247h-340l-122 -247h-77zM407 712l-95 -198l-100 -201h291l-49 201zM602 822h-65l-98 150l-136 -150h-69l176 208h68z" />
    <glyph glyph-name="Atilde" unicode="&#xc3;" horiz-adv-x="720" 
d="M-19 0l397 790h76l205 -790h-77l-62 247h-340l-122 -247h-77zM407 712l-95 -198l-100 -201h291l-49 201zM505 860q-29 0 -51.5 11.5t-34.5 26t-29.5 26t-36.5 11.5q-24 0 -41 -13t-22 -26l-5 -13l-54 8q34 103 130 103q29 0 51.5 -11.5t34.5 -26t29.5 -26t36.5 -11.5
q24 0 41 13t22 26l5 13l55 -8q-36 -103 -131 -103z" />
    <glyph glyph-name="Adieresis" unicode="&#xc4;" horiz-adv-x="720" 
d="M-19 0l397 790h76l205 -790h-77l-62 247h-340l-122 -247h-77zM407 712l-95 -198l-100 -201h291l-49 201zM388 969l-10 -86h-86l10 86h86zM574 969l-10 -86h-86l10 86h86z" />
    <glyph glyph-name="Aring" unicode="&#xc5;" horiz-adv-x="720" 
d="M-19 0l397 790h76l205 -790h-77l-62 247h-340l-122 -247h-77zM407 712l-95 -198l-100 -201h291l-49 201zM318 908q0 56 35.5 94t93.5 38q48 0 74.5 -26t26.5 -70q0 -57 -35.5 -94.5t-93.5 -37.5q-48 0 -74.5 26.5t-26.5 69.5zM440 984q-29 0 -46 -19t-17 -48
q0 -22 13 -35.5t36 -13.5q28 0 46 19t18 48q0 22 -13 35.5t-37 13.5z" />
    <glyph glyph-name="AE" unicode="&#xc6;" horiz-adv-x="1060" 
d="M537 0l-25 367h-219l-238 -367h-82l513 780h544l-8 -66h-467l20 -281h373l-8 -66h-360l21 -301h362l-8 -66h-418zM491 674l-156 -241h172l-6 97z" />
    <glyph glyph-name="Ccedilla" unicode="&#xc7;" horiz-adv-x="751" 
d="M646 580q-6 76 -53.5 110.5t-148.5 34.5q-67 0 -120 -23.5t-87 -63.5t-56 -95t-31.5 -114.5t-9.5 -126.5q0 -247 221 -247q101 0 157.5 35t80.5 110l65 -23q-66 -178 -288 -186l-10 -25q77 -18 77 -80q0 -48 -33.5 -72t-86.5 -24q-49 0 -77 17l20 44q29 -13 59 -13
q59 0 59 39t-84 48l31 66q-134 6 -199.5 86t-65.5 221q0 227 100 359.5t285 132.5q241 0 265 -186z" />
    <glyph glyph-name="Egrave" unicode="&#xc8;" horiz-adv-x="695" 
d="M145 780h520l-8 -66h-450l-34 -281h410l-8 -66h-410l-37 -301h470l-8 -66h-540zM295 1030h82l68 -208h-65z" />
    <glyph glyph-name="Eacute" unicode="&#xc9;" horiz-adv-x="695" 
d="M145 780h520l-8 -66h-450l-34 -281h410l-8 -66h-410l-37 -301h470l-8 -66h-540zM495 1030h82l-137 -208h-65z" />
    <glyph glyph-name="Ecircumflex" unicode="&#xca;" horiz-adv-x="695" 
d="M145 780h520l-8 -66h-450l-34 -281h410l-8 -66h-410l-37 -301h470l-8 -66h-540zM592 822h-65l-98 150l-136 -150h-69l176 208h68z" />
    <glyph glyph-name="Edieresis" unicode="&#xcb;" horiz-adv-x="695" 
d="M145 780h520l-8 -66h-450l-34 -281h410l-8 -66h-410l-37 -301h470l-8 -66h-540zM378 969l-10 -86h-86l10 86h86zM564 969l-10 -86h-86l10 86h86z" />
    <glyph glyph-name="Igrave" unicode="&#xcc;" horiz-adv-x="290" 
d="M235 780l-95 -780h-70l95 780h70zM86 1030h82l68 -208h-65z" />
    <glyph glyph-name="Iacute" unicode="&#xcd;" horiz-adv-x="290" 
d="M235 780l-95 -780h-70l95 780h70zM294 1030h82l-137 -208h-65z" />
    <glyph glyph-name="Icircumflex" unicode="&#xce;" horiz-adv-x="290" 
d="M235 780l-95 -780h-70l95 780h70zM387 822h-65l-98 150l-136 -150h-69l176 208h68z" />
    <glyph glyph-name="Idieresis" unicode="&#xcf;" horiz-adv-x="290" 
d="M235 780l-95 -780h-70l95 780h70zM173 969l-10 -86h-86l10 86h86zM359 969l-10 -86h-86l10 86h86z" />
    <glyph glyph-name="Eth" unicode="&#xd0;" horiz-adv-x="820" 
d="M363 0h-258l45 367h-120l8 66h120l42 347h258q310 0 310 -300q0 -226 -105 -353t-300 -127zM183 66h188q84 0 147.5 31.5t101 87.5t55.5 127t18 157q0 245 -243 245h-188l-34 -281h238l-8 -66h-238z" />
    <glyph glyph-name="Ntilde" unicode="&#xd1;" horiz-adv-x="750" 
d="M557 0l-285 515l-75 142l-29 -267l-47 -390h-71l95 780h63l285 -515l75 -142l28 267l48 390h71l-95 -780h-63zM520 860q-29 0 -51.5 11.5t-34.5 26t-29.5 26t-36.5 11.5q-24 0 -41 -13t-22 -26l-5 -13l-54 8q34 103 130 103q29 0 51.5 -11.5t34.5 -26t29.5 -26
t36.5 -11.5q24 0 41 13t22 26l5 13l55 -8q-36 -103 -131 -103z" />
    <glyph glyph-name="Ograve" unicode="&#xd2;" horiz-adv-x="790" 
d="M345 1030h82l68 -208h-65zM353 -10q-145 0 -216 80.5t-71 227.5q0 103 23.5 191t70 156t121 106.5t170.5 38.5q146 0 216.5 -80t70.5 -228q0 -103 -23.5 -191t-70 -156t-121 -106.5t-170.5 -38.5zM444 725q-68 0 -121.5 -25t-87 -65.5t-55.5 -96.5t-31 -114t-9 -122
q0 -247 221 -247q84 0 145.5 37t94.5 100t48 134t15 153q0 246 -220 246z" />
    <glyph glyph-name="Oacute" unicode="&#xd3;" horiz-adv-x="790" 
d="M545 1030h82l-137 -208h-65zM353 -10q-145 0 -216 80.5t-71 227.5q0 103 23.5 191t70 156t121 106.5t170.5 38.5q146 0 216.5 -80t70.5 -228q0 -103 -23.5 -191t-70 -156t-121 -106.5t-170.5 -38.5zM444 725q-68 0 -121.5 -25t-87 -65.5t-55.5 -96.5t-31 -114t-9 -122
q0 -247 221 -247q84 0 145.5 37t94.5 100t48 134t15 153q0 246 -220 246z" />
    <glyph glyph-name="Ocircumflex" unicode="&#xd4;" horiz-adv-x="790" 
d="M353 -10q-145 0 -216 80.5t-71 227.5q0 103 23.5 191t70 156t121 106.5t170.5 38.5q146 0 216.5 -80t70.5 -228q0 -103 -23.5 -191t-70 -156t-121 -106.5t-170.5 -38.5zM444 725q-68 0 -121.5 -25t-87 -65.5t-55.5 -96.5t-31 -114t-9 -122q0 -247 221 -247q84 0 145.5 37
t94.5 100t48 134t15 153q0 246 -220 246zM637 822h-65l-98 150l-136 -150h-69l176 208h68z" />
    <glyph glyph-name="Otilde" unicode="&#xd5;" horiz-adv-x="790" 
d="M353 -10q-145 0 -216 80.5t-71 227.5q0 103 23.5 191t70 156t121 106.5t170.5 38.5q146 0 216.5 -80t70.5 -228q0 -103 -23.5 -191t-70 -156t-121 -106.5t-170.5 -38.5zM444 725q-68 0 -121.5 -25t-87 -65.5t-55.5 -96.5t-31 -114t-9 -122q0 -247 221 -247q84 0 145.5 37
t94.5 100t48 134t15 153q0 246 -220 246zM540 860q-29 0 -51.5 11.5t-34.5 26t-29.5 26t-36.5 11.5q-24 0 -41 -13t-22 -26l-5 -13l-54 8q34 103 130 103q29 0 51.5 -11.5t34.5 -26t29.5 -26t36.5 -11.5q24 0 41 13t22 26l5 13l55 -8q-36 -103 -131 -103z" />
    <glyph glyph-name="Odieresis" unicode="&#xd6;" horiz-adv-x="790" 
d="M423 969l-10 -86h-86l10 86h86zM609 969l-10 -86h-86l10 86h86zM353 -10q-145 0 -216 80.5t-71 227.5q0 103 23.5 191t70 156t121 106.5t170.5 38.5q146 0 216.5 -80t70.5 -228q0 -103 -23.5 -191t-70 -156t-121 -106.5t-170.5 -38.5zM444 725q-68 0 -121.5 -25
t-87 -65.5t-55.5 -96.5t-31 -114t-9 -122q0 -247 221 -247q84 0 145.5 37t94.5 100t48 134t15 153q0 246 -220 246z" />
    <glyph glyph-name="multiply" unicode="&#xd7;" horiz-adv-x="470" 
d="M52 261l145 129l-114 129l52 46l113 -130l145 130l40 -46l-146 -129l115 -129l-52 -46l-113 130l-145 -130z" />
    <glyph glyph-name="Oslash" unicode="&#xd8;" horiz-adv-x="790" 
d="M444 725q-68 0 -121.5 -25t-87 -65.5t-55.5 -96t-31 -113.5t-9 -122q0 -99 36 -161l417 537q-56 46 -149 46zM67 0l61 80q-62 77 -62 218q0 103 23.5 191t70 156t121 106.5t170.5 38.5q115 0 187 -53l33 43h68l-61 -80q62 -77 62 -218q0 -103 -23.5 -191t-70 -156
t-121 -106.5t-170.5 -38.5q-115 0 -187 53l-33 -43h-68zM362 55q68 0 121.5 25t87 65.5t55.5 96t31 113.5t9 122q0 99 -36 161l-417 -537q56 -46 149 -46z" />
    <glyph glyph-name="Ugrave" unicode="&#xd9;" horiz-adv-x="774" 
d="M338 1030h82l68 -208h-65zM345 -10q-306 0 -271 290l61 500h72l-61 -502q-14 -105 30 -164t177 -59q69 0 119 16.5t79 48.5t44 69.5t21 88.5l61 502h72l-61 -500q-35 -290 -343 -290z" />
    <glyph glyph-name="Uacute" unicode="&#xda;" horiz-adv-x="774" 
d="M537 1030h82l-137 -208h-65zM345 -10q-306 0 -271 290l61 500h72l-61 -502q-14 -105 30 -164t177 -59q69 0 119 16.5t79 48.5t44 69.5t21 88.5l61 502h72l-61 -500q-35 -290 -343 -290z" />
    <glyph glyph-name="Ucircumflex" unicode="&#xdb;" horiz-adv-x="774" 
d="M345 -10q-306 0 -271 290l61 500h72l-61 -502q-14 -105 30 -164t177 -59q69 0 119 16.5t79 48.5t44 69.5t21 88.5l61 502h72l-61 -500q-35 -290 -343 -290zM629 822h-65l-98 150l-136 -150h-69l176 208h68z" />
    <glyph glyph-name="Udieresis" unicode="&#xdc;" horiz-adv-x="774" 
d="M415 969l-10 -86h-86l10 86h86zM601 969l-10 -86h-86l10 86h86zM345 -10q-306 0 -271 290l61 500h72l-61 -502q-14 -105 30 -164t177 -59q69 0 119 16.5t79 48.5t44 69.5t21 88.5l61 502h72l-61 -500q-35 -290 -343 -290z" />
    <glyph glyph-name="Yacute" unicode="&#xdd;" horiz-adv-x="710" 
d="M75 780h81l132 -244l75 -141l109 141l192 244h81l-354 -445l-41 -335h-70l41 335zM505 1030h82l-137 -208h-65z" />
    <glyph glyph-name="Thorn" unicode="&#xde;" horiz-adv-x="650" 
d="M215 780l-19 -158h206q45 0 82 -8.5t70 -28t51.5 -57t18.5 -89.5q0 -70 -24 -122.5t-65 -81.5t-88 -43t-100 -14h-206l-21 -178h-70l95 780h70zM149 244h217q33 0 62.5 8.5t57.5 28t45 59t17 93.5q0 39 -13 65t-36 38t-44.5 16t-49.5 4h-217z" />
    <glyph glyph-name="germandbls" unicode="&#xdf;" horiz-adv-x="628" 
d="M27 -200l90 732q18 146 78.5 212t191.5 66q87 0 139.5 -36t52.5 -106q0 -44 -14.5 -78t-41.5 -56t-48.5 -33.5t-52.5 -23.5q-47 -18 -68 -39t-21 -63q0 -15 6 -26t20.5 -19t25 -12.5t32.5 -11.5l9 -3q33 -11 48 -17t42 -22t39 -39.5t12 -55.5q0 -83 -57.5 -131
t-140.5 -48q-85 0 -119.5 37t-38.5 101l68 24q1 -48 21 -74.5t74 -26.5q56 0 88.5 27t32.5 81q0 19 -7 33t-24 24t-30.5 15t-41.5 13l-28.5 9t-32 13.5t-34.5 22.5t-23 32t-11 44q0 120 145 170q54 19 78 46t24 78q0 90 -131 90q-57 0 -95 -16t-58 -50t-28.5 -68t-15.5 -89
l-89 -726h-66z" />
    <glyph glyph-name="agrave" unicode="&#xe0;" horiz-adv-x="604" 
d="M207 800h82l68 -208h-65zM560 530l-22 -124l-34 -282l-9 -124h-60l-2 86q-32 -45 -82 -70.5t-108 -25.5q-98 0 -151 57t-53 162q0 146 73.5 238.5t198.5 92.5q58 0 101.5 -25.5t64.5 -70.5l23 86h60zM448 204l15 122q0 59 -40.5 105t-117.5 46q-89 0 -142.5 -73
t-53.5 -186q0 -80 37.5 -122.5t106.5 -42.5q76 0 130.5 47.5t64.5 103.5z" />
    <glyph glyph-name="aacute" unicode="&#xe1;" horiz-adv-x="604" 
d="M407 800h82l-137 -208h-65zM560 530l-22 -124l-34 -282l-9 -124h-60l-2 86q-32 -45 -82 -70.5t-108 -25.5q-98 0 -151 57t-53 162q0 146 73.5 238.5t198.5 92.5q58 0 101.5 -25.5t64.5 -70.5l23 86h60zM448 204l15 122q0 59 -40.5 105t-117.5 46q-89 0 -142.5 -73
t-53.5 -186q0 -80 37.5 -122.5t106.5 -42.5q76 0 130.5 47.5t64.5 103.5z" />
    <glyph glyph-name="acircumflex" unicode="&#xe2;" horiz-adv-x="604" 
d="M560 530l-22 -124l-34 -282l-9 -124h-60l-2 86q-32 -45 -82 -70.5t-108 -25.5q-98 0 -151 57t-53 162q0 146 73.5 238.5t198.5 92.5q58 0 101.5 -25.5t64.5 -70.5l23 86h60zM448 204l15 122q0 59 -40.5 105t-117.5 46q-89 0 -142.5 -73t-53.5 -186q0 -80 37.5 -122.5
t106.5 -42.5q76 0 130.5 47.5t64.5 103.5zM501 592h-65l-98 150l-136 -150h-69l176 208h68z" />
    <glyph glyph-name="atilde" unicode="&#xe3;" horiz-adv-x="604" 
d="M560 530l-22 -124l-34 -282l-9 -124h-60l-2 86q-32 -45 -82 -70.5t-108 -25.5q-98 0 -151 57t-53 162q0 146 73.5 238.5t198.5 92.5q58 0 101.5 -25.5t64.5 -70.5l23 86h60zM448 204l15 122q0 59 -40.5 105t-117.5 46q-89 0 -142.5 -73t-53.5 -186q0 -80 37.5 -122.5
t106.5 -42.5q76 0 130.5 47.5t64.5 103.5zM402 630q-29 0 -51.5 11.5t-34.5 26t-29.5 26t-36.5 11.5q-24 0 -41 -13t-22 -26l-5 -13l-54 8q34 103 130 103q29 0 51.5 -11.5t34.5 -26t29.5 -26t36.5 -11.5q24 0 41 13t22 26l5 13l55 -8q-36 -103 -131 -103z" />
    <glyph glyph-name="adieresis" unicode="&#xe4;" horiz-adv-x="604" 
d="M285 739l-10 -86h-86l10 86h86zM471 739l-10 -86h-86l10 86h86zM560 530l-22 -124l-34 -282l-9 -124h-60l-2 86q-32 -45 -82 -70.5t-108 -25.5q-98 0 -151 57t-53 162q0 146 73.5 238.5t198.5 92.5q58 0 101.5 -25.5t64.5 -70.5l23 86h60zM448 204l15 122q0 59 -40.5 105
t-117.5 46q-89 0 -142.5 -73t-53.5 -186q0 -80 37.5 -122.5t106.5 -42.5q76 0 130.5 47.5t64.5 103.5z" />
    <glyph glyph-name="aring" unicode="&#xe5;" horiz-adv-x="604" 
d="M560 530l-22 -124l-34 -282l-9 -124h-60l-2 86q-32 -45 -82 -70.5t-108 -25.5q-98 0 -151 57t-53 162q0 146 73.5 238.5t198.5 92.5q58 0 101.5 -25.5t64.5 -70.5l23 86h60zM448 204l15 122q0 59 -40.5 105t-117.5 46q-89 0 -142.5 -73t-53.5 -186q0 -80 37.5 -122.5
t106.5 -42.5q76 0 130.5 47.5t64.5 103.5zM215 678q0 56 35.5 94t93.5 38q48 0 74.5 -26t26.5 -70q0 -57 -35.5 -94.5t-93.5 -37.5q-48 0 -74.5 26.5t-26.5 69.5zM337 754q-29 0 -46 -19t-17 -48q0 -22 13 -35.5t36 -13.5q28 0 46 19t18 48q0 22 -13 35.5t-37 13.5z" />
    <glyph glyph-name="ae" unicode="&#xe6;" horiz-adv-x="954" 
d="M309 540q148 0 184 -94q75 94 208 94q195 0 195 -207q0 -46 -8 -94h-395q-10 -90 31 -139t118 -49q130 0 161 102l65 -23q-24 -62 -82.5 -101t-152.5 -39q-155 0 -197 123q-83 -123 -241 -123q-83 0 -125.5 33t-42.5 94q0 89 64.5 135t168.5 46h170l7 58q8 66 -28 94.5
t-115 28.5q-119 0 -155 -102l-65 23q24 62 82.5 101t152.5 39zM693 480q-160 0 -193 -182h323q11 83 -21 132.5t-109 49.5zM252 240q-67 1 -110.5 -27t-43.5 -87q0 -74 105 -74q80 0 143 48.5t73 103.5l4 35z" />
    <glyph glyph-name="ccedilla" unicode="&#xe7;" horiz-adv-x="550" 
d="M438 377q-11 102 -127 102q-93 0 -148 -72.5t-55 -188.5q0 -82 39 -124.5t112 -42.5q116 0 151 102l65 -23q-50 -131 -208 -139l-10 -25q77 -18 77 -80q0 -48 -33.5 -72t-86.5 -24q-49 0 -77 17l20 44q29 -13 59 -13q59 0 59 39t-84 48l31 66q-88 7 -135.5 63.5
t-47.5 155.5q0 146 74.5 238t199.5 92q173 0 195 -139z" />
    <glyph glyph-name="egrave" unicode="&#xe8;" horiz-adv-x="570" 
d="M213 800h82l68 -208h-65zM419 153l65 -23q-24 -62 -82.5 -101t-152.5 -39q-100 0 -155.5 55t-55.5 162q0 151 76.5 242t202.5 91q195 0 195 -207q0 -39 -8 -94h-395q-10 -90 31 -139t118 -49q130 0 161 102zM314 480q-166 0 -198 -182h323q10 81 -20 131.5t-105 50.5z
" />
    <glyph glyph-name="eacute" unicode="&#xe9;" horiz-adv-x="570" 
d="M413 800h82l-137 -208h-65zM419 153l65 -23q-24 -62 -82.5 -101t-152.5 -39q-100 0 -155.5 55t-55.5 162q0 151 76.5 242t202.5 91q195 0 195 -207q0 -39 -8 -94h-395q-10 -90 31 -139t118 -49q130 0 161 102zM314 480q-166 0 -198 -182h323q10 81 -20 131.5t-105 50.5z
" />
    <glyph glyph-name="ecircumflex" unicode="&#xea;" horiz-adv-x="570" 
d="M419 153l65 -23q-24 -62 -82.5 -101t-152.5 -39q-100 0 -155.5 55t-55.5 162q0 151 76.5 242t202.5 91q195 0 195 -207q0 -39 -8 -94h-395q-10 -90 31 -139t118 -49q130 0 161 102zM314 480q-166 0 -198 -182h323q10 81 -20 131.5t-105 50.5zM507 592h-65l-98 150
l-136 -150h-69l176 208h68z" />
    <glyph glyph-name="edieresis" unicode="&#xeb;" horiz-adv-x="570" 
d="M291 739l-10 -86h-86l10 86h86zM477 739l-10 -86h-86l10 86h86zM419 153l65 -23q-24 -62 -82.5 -101t-152.5 -39q-100 0 -155.5 55t-55.5 162q0 151 76.5 242t202.5 91q195 0 195 -207q0 -39 -8 -94h-395q-10 -90 31 -139t118 -49q130 0 161 102zM314 480
q-166 0 -198 -182h323q10 81 -20 131.5t-105 50.5z" />
    <glyph glyph-name="igrave" unicode="&#xec;" horiz-adv-x="250" 
d="M52 0l65 530h66l-65 -530h-66zM39 800h82l68 -208h-65z" />
    <glyph glyph-name="iacute" unicode="&#xed;" horiz-adv-x="250" 
d="M52 0l65 530h66l-65 -530h-66zM245 800h82l-137 -208h-65z" />
    <glyph glyph-name="icircumflex" unicode="&#xee;" horiz-adv-x="250" 
d="M52 0l65 530h66l-65 -530h-66zM341 592h-65l-98 150l-136 -150h-69l176 208h68z" />
    <glyph glyph-name="idieresis" unicode="&#xef;" horiz-adv-x="250" 
d="M52 0l65 530h66l-65 -530h-66zM125 739l-10 -86h-86l10 86h86zM311 739l-10 -86h-86l10 86h86z" />
    <glyph glyph-name="eth" unicode="&#xf0;" horiz-adv-x="578" 
d="M518 726l-87 -32q96 -118 96 -311q0 -393 -280 -393q-99 0 -154 55t-55 161q0 152 75.5 243t201.5 91q85 0 137 -49q-18 102 -85 180l-163 -60l6 54l117 43q-59 49 -160 92h126q57 -27 101 -68l130 48zM307 478q-92 0 -145.5 -71.5t-53.5 -192.5q0 -162 147 -162
q94 0 146.5 70.5t52.5 193.5q0 162 -147 162z" />
    <glyph glyph-name="ntilde" unicode="&#xf1;" horiz-adv-x="574" 
d="M149 530l1 -85q32 44 83 69.5t110 25.5q86 0 135.5 -46t39.5 -124l-45 -370h-66l43 355q7 57 -27 89.5t-98 32.5q-70 0 -125 -48t-64 -103l-40 -326h-66l49 407l10 123h60zM419 630q-29 0 -51.5 11.5t-34.5 26t-29.5 26t-36.5 11.5q-24 0 -41 -13t-22 -26l-5 -13l-54 8
q34 103 130 103q29 0 51.5 -11.5t34.5 -26t29.5 -26t36.5 -11.5q24 0 41 13t22 26l5 13l55 -8q-36 -103 -131 -103z" />
    <glyph glyph-name="ograve" unicode="&#xf2;" horiz-adv-x="578" 
d="M212 800h82l68 -208h-65zM247 -10q-99 0 -154 55t-55 161q0 152 75.5 243t201.5 91q100 0 154.5 -55t54.5 -161q0 -152 -75.5 -243t-201.5 -91zM307 478q-92 0 -145.5 -71.5t-53.5 -192.5q0 -162 147 -162q92 0 145.5 71.5t53.5 192.5q0 162 -147 162z" />
    <glyph glyph-name="oacute" unicode="&#xf3;" horiz-adv-x="578" 
d="M411 800h82l-137 -208h-65zM247 -10q-99 0 -154 55t-55 161q0 152 75.5 243t201.5 91q100 0 154.5 -55t54.5 -161q0 -152 -75.5 -243t-201.5 -91zM307 478q-92 0 -145.5 -71.5t-53.5 -192.5q0 -162 147 -162q92 0 145.5 71.5t53.5 192.5q0 162 -147 162z" />
    <glyph glyph-name="ocircumflex" unicode="&#xf4;" horiz-adv-x="578" 
d="M247 -10q-99 0 -154 55t-55 161q0 152 75.5 243t201.5 91q100 0 154.5 -55t54.5 -161q0 -152 -75.5 -243t-201.5 -91zM307 478q-92 0 -145.5 -71.5t-53.5 -192.5q0 -162 147 -162q92 0 145.5 71.5t53.5 192.5q0 162 -147 162zM505 592h-65l-98 150l-136 -150h-69l176 208
h68z" />
    <glyph glyph-name="otilde" unicode="&#xf5;" horiz-adv-x="578" 
d="M247 -10q-99 0 -154 55t-55 161q0 152 75.5 243t201.5 91q100 0 154.5 -55t54.5 -161q0 -152 -75.5 -243t-201.5 -91zM307 478q-92 0 -145.5 -71.5t-53.5 -192.5q0 -162 147 -162q92 0 145.5 71.5t53.5 192.5q0 162 -147 162zM406 630q-29 0 -51.5 11.5t-34.5 26
t-29.5 26t-36.5 11.5q-24 0 -41 -13t-22 -26l-5 -13l-54 8q34 103 130 103q29 0 51.5 -11.5t34.5 -26t29.5 -26t36.5 -11.5q24 0 41 13t22 26l5 13l55 -8q-36 -103 -131 -103z" />
    <glyph glyph-name="odieresis" unicode="&#xf6;" horiz-adv-x="578" 
d="M289 739l-10 -86h-86l10 86h86zM475 739l-10 -86h-86l10 86h86zM247 -10q-99 0 -154 55t-55 161q0 152 75.5 243t201.5 91q100 0 154.5 -55t54.5 -161q0 -152 -75.5 -243t-201.5 -91zM307 478q-92 0 -145.5 -71.5t-53.5 -192.5q0 -162 147 -162q92 0 145.5 71.5
t53.5 192.5q0 162 -147 162z" />
    <glyph glyph-name="divide" unicode="&#xf7;" horiz-adv-x="470" 
d="M433 358h-390l8 64h390zM271 270l-11 -86h-86l11 86h86zM311 596l-11 -86h-86l11 86h86z" />
    <glyph glyph-name="oslash" unicode="&#xf8;" horiz-adv-x="578" 
d="M247 -10q-72 0 -123 30l-15 -20h-68l42 55q-45 56 -45 151q0 152 75.5 243t201.5 91q76 0 123 -31l17 21h68l-44 -56q45 -56 45 -150q0 -152 -75.5 -243t-201.5 -91zM307 478q-92 0 -145.5 -71.5t-53.5 -192.5q0 -62 21 -100l267 341q-34 23 -89 23zM255 52
q92 0 145.5 71t53.5 192q0 63 -22 100l-265 -341q34 -22 88 -22z" />
    <glyph glyph-name="ugrave" unicode="&#xf9;" horiz-adv-x="574" 
d="M204 800h82l68 -208h-65zM410 0l-2 85q-32 -44 -83 -69.5t-110 -25.5q-86 0 -135.5 46.5t-39.5 123.5l46 370h66l-44 -355q-7 -57 27.5 -89.5t97.5 -32.5q70 0 125 48t65 103l40 326h66l-50 -407l-9 -123h-60z" />
    <glyph glyph-name="uacute" unicode="&#xfa;" horiz-adv-x="574" 
d="M404 800h82l-137 -208h-65zM410 0l-2 85q-32 -44 -83 -69.5t-110 -25.5q-86 0 -135.5 46.5t-39.5 123.5l46 370h66l-44 -355q-7 -57 27.5 -89.5t97.5 -32.5q70 0 125 48t65 103l40 326h66l-50 -407l-9 -123h-60z" />
    <glyph glyph-name="ucircumflex" unicode="&#xfb;" horiz-adv-x="574" 
d="M410 0l-2 85q-32 -44 -83 -69.5t-110 -25.5q-86 0 -135.5 46.5t-39.5 123.5l46 370h66l-44 -355q-7 -57 27.5 -89.5t97.5 -32.5q70 0 125 48t65 103l40 326h66l-50 -407l-9 -123h-60zM498 592h-65l-98 150l-136 -150h-69l176 208h68z" />
    <glyph glyph-name="udieresis" unicode="&#xfc;" horiz-adv-x="574" 
d="M282 739l-10 -86h-86l10 86h86zM468 739l-10 -86h-86l10 86h86zM410 0l-2 85q-32 -44 -83 -69.5t-110 -25.5q-86 0 -135.5 46.5t-39.5 123.5l46 370h66l-44 -355q-7 -57 27.5 -89.5t97.5 -32.5q70 0 125 48t65 103l40 326h66l-50 -407l-9 -123h-60z" />
    <glyph glyph-name="yacute" unicode="&#xfd;" horiz-adv-x="540" 
d="M392 800h82l-137 -208h-60zM547 530l-270 -494l-125 -236h-76l119 220l-152 510h77l79 -291l41 -152l77 152l152 291h78z" />
    <glyph glyph-name="thorn" unicode="&#xfe;" horiz-adv-x="599" 
d="M136 326l-15 -122q0 -60 40 -105.5t117 -45.5q88 0 142 73.5t54 185.5q0 79 -37.5 122t-106.5 43q-76 0 -130.5 -47.5t-63.5 -103.5zM5 -200l123 1000h66l-44 -355q32 44 82 69.5t108 25.5q99 0 152 -57t53 -162q0 -146 -74.5 -238.5t-198.5 -92.5q-58 0 -101.5 25.5
t-64.5 69.5l-35 -285h-66z" />
    <glyph glyph-name="ydieresis" unicode="&#xff;" horiz-adv-x="540" 
d="M270 739l-10 -86h-86l10 86h86zM456 739l-10 -86h-86l10 86h86zM547 530l-270 -494l-125 -236h-76l119 220l-152 510h77l79 -291l41 -152l77 152l152 291h78z" />
    <glyph glyph-name="Amacron" unicode="&#x100;" horiz-adv-x="720" 
d="M-19 0l397 790h76l205 -790h-77l-62 247h-340l-122 -247h-77zM407 712l-95 -198l-100 -201h291l-49 201zM293 894l8 64h272l-8 -64h-272z" />
    <glyph glyph-name="amacron" unicode="&#x101;" horiz-adv-x="604" 
d="M190 664l8 64h272l-8 -64h-272zM560 530l-22 -124l-34 -282l-9 -124h-60l-2 86q-32 -45 -82 -70.5t-108 -25.5q-98 0 -151 57t-53 162q0 146 73.5 238.5t198.5 92.5q58 0 101.5 -25.5t64.5 -70.5l23 86h60zM448 204l15 122q0 59 -40.5 105t-117.5 46q-89 0 -142.5 -73
t-53.5 -186q0 -80 37.5 -122.5t106.5 -42.5q76 0 130.5 47.5t64.5 103.5z" />
    <glyph glyph-name="Abreve" unicode="&#x102;" horiz-adv-x="720" 
d="M-19 0l397 790h76l205 -790h-77l-62 247h-340l-122 -247h-77zM407 712l-95 -198l-100 -201h291l-49 201zM567 1030h58q-13 -100 -59 -149t-144 -49t-132 49t-21 149h54q-10 -78 14.5 -110t89.5 -32t97.5 32t42.5 110z" />
    <glyph glyph-name="abreve" unicode="&#x103;" horiz-adv-x="604" 
d="M560 530l-22 -124l-34 -282l-9 -124h-60l-2 86q-32 -45 -82 -70.5t-108 -25.5q-98 0 -151 57t-53 162q0 146 73.5 238.5t198.5 92.5q58 0 101.5 -25.5t64.5 -70.5l23 86h60zM448 204l15 122q0 59 -40.5 105t-117.5 46q-89 0 -142.5 -73t-53.5 -186q0 -80 37.5 -122.5
t106.5 -42.5q76 0 130.5 47.5t64.5 103.5zM463 800h58q-13 -100 -59 -149t-144 -49t-132 49t-21 149h54q-10 -78 14.5 -110t89.5 -32t97.5 32t42.5 110z" />
    <glyph glyph-name="Aogonek" unicode="&#x104;" horiz-adv-x="720" 
d="M-19 0l397 790h76l205 -790q-58 -9 -103 -42t-45 -75q0 -38 50 -38q16 0 34.5 5.5t29.5 10.5l11 5l11 -51q-44 -25 -103 -25q-41 0 -70.5 20t-29.5 60q0 42 35.5 82t96.5 68l-56 227h-340l-122 -247h-77zM407 712l-95 -198l-100 -201h291l-49 201z" />
    <glyph glyph-name="aogonek" unicode="&#x105;" horiz-adv-x="604" 
d="M560 530l-22 -124l-34 -282l-9 -124q-58 -9 -103 -42t-45 -75q0 -38 50 -38q16 0 34.5 5.5t29.5 10.5l11 5l11 -51q-44 -25 -103 -25q-41 0 -70.5 20t-29.5 60q0 49 41.5 90t112.5 69l-1 57q-32 -45 -82 -70.5t-108 -25.5q-98 0 -151 57t-53 162q0 146 73.5 238.5
t198.5 92.5q58 0 101.5 -25.5t64.5 -70.5l23 86h60zM448 204l15 122q0 59 -40.5 105t-117.5 46q-89 0 -142.5 -73t-53.5 -186q0 -80 37.5 -122.5t106.5 -42.5q76 0 130.5 47.5t64.5 103.5z" />
    <glyph glyph-name="Cacute" unicode="&#x106;" horiz-adv-x="750" 
d="M535 1030h82l-137 -208h-65zM646 580q-6 76 -53.5 110.5t-148.5 34.5q-67 0 -120 -23.5t-87 -63.5t-56 -95t-31.5 -114.5t-9.5 -126.5q0 -247 221 -247q101 0 157.5 35t80.5 110l65 -23q-69 -187 -311 -187q-145 0 -216 80.5t-71 227.5q0 227 100 359.5t285 132.5
q241 0 265 -186z" />
    <glyph glyph-name="cacute" unicode="&#x107;" horiz-adv-x="550" 
d="M409 800h82l-137 -208h-65zM438 377q-11 102 -127 102q-93 0 -148 -72.5t-55 -188.5q0 -82 39 -124.5t112 -42.5q116 0 151 102l65 -23q-54 -140 -230 -140q-99 0 -152.5 57.5t-53.5 162.5q0 146 74.5 238t199.5 92q173 0 195 -139z" />
    <glyph glyph-name="Ccircumflex" unicode="&#x108;" horiz-adv-x="750" 
d="M646 580q-6 76 -53.5 110.5t-148.5 34.5q-67 0 -120 -23.5t-87 -63.5t-56 -95t-31.5 -114.5t-9.5 -126.5q0 -247 221 -247q101 0 157.5 35t80.5 110l65 -23q-69 -187 -311 -187q-145 0 -216 80.5t-71 227.5q0 227 100 359.5t285 132.5q241 0 265 -186zM627 822h-65
l-98 150l-136 -150h-69l176 208h68z" />
    <glyph glyph-name="ccircumflex" unicode="&#x109;" horiz-adv-x="550" 
d="M438 377q-11 102 -127 102q-93 0 -148 -72.5t-55 -188.5q0 -82 39 -124.5t112 -42.5q116 0 151 102l65 -23q-54 -140 -230 -140q-99 0 -152.5 57.5t-53.5 162.5q0 146 74.5 238t199.5 92q173 0 195 -139zM503 592h-65l-98 150l-136 -150h-69l176 208h68z" />
    <glyph glyph-name="Cdotaccent" unicode="&#x10a;" horiz-adv-x="750" 
d="M506 969l-10 -86h-86l10 86h86zM646 580q-6 76 -53.5 110.5t-148.5 34.5q-67 0 -120 -23.5t-87 -63.5t-56 -95t-31.5 -114.5t-9.5 -126.5q0 -247 221 -247q101 0 157.5 35t80.5 110l65 -23q-69 -187 -311 -187q-145 0 -216 80.5t-71 227.5q0 227 100 359.5t285 132.5
q241 0 265 -186z" />
    <glyph glyph-name="cdotaccent" unicode="&#x10b;" horiz-adv-x="550" 
d="M380 739l-10 -86h-86l10 86h86zM438 377q-11 102 -127 102q-93 0 -148 -72.5t-55 -188.5q0 -82 39 -124.5t112 -42.5q116 0 151 102l65 -23q-54 -140 -230 -140q-99 0 -152.5 57.5t-53.5 162.5q0 146 74.5 238t199.5 92q173 0 195 -139z" />
    <glyph glyph-name="Ccaron" unicode="&#x10c;" horiz-adv-x="750" 
d="M646 580q-6 76 -53.5 110.5t-148.5 34.5q-67 0 -120 -23.5t-87 -63.5t-56 -95t-31.5 -114.5t-9.5 -126.5q0 -247 221 -247q101 0 157.5 35t80.5 110l65 -23q-69 -187 -311 -187q-145 0 -216 80.5t-71 227.5q0 227 100 359.5t285 132.5q241 0 265 -186zM289 1030h65
l98 -150l136 150h69l-176 -208h-68z" />
    <glyph glyph-name="ccaron" unicode="&#x10d;" horiz-adv-x="550" 
d="M438 377q-11 102 -127 102q-93 0 -148 -72.5t-55 -188.5q0 -82 39 -124.5t112 -42.5q116 0 151 102l65 -23q-54 -140 -230 -140q-99 0 -152.5 57.5t-53.5 162.5q0 146 74.5 238t199.5 92q173 0 195 -139zM160 800h65l98 -150l136 150h69l-176 -208h-68z" />
    <glyph glyph-name="Dcaron" unicode="&#x10e;" horiz-adv-x="765" 
d="M308 0h-258l95 780h258q310 0 310 -300q0 -242 -107 -361t-298 -119zM128 66h188q162 0 242 107t80 296q0 245 -243 245h-188zM243 1030h65l98 -150l136 150h69l-176 -208h-68z" />
    <glyph glyph-name="dcaron" unicode="&#x10f;" horiz-adv-x="599" 
d="M691 800h79l-101 -208h-61zM477 445l44 355h66l-83 -676l-9 -124h-60l-2 86q-32 -45 -82 -70.5t-108 -25.5q-98 0 -151 57t-53 162q0 146 73.5 238.5t198.5 92.5q58 0 101.5 -25.5t64.5 -69.5zM305 477q-88 0 -142 -73.5t-54 -185.5q0 -80 37.5 -122.5t106.5 -42.5
q76 0 130.5 47.5t64.5 103.5l15 122q0 59 -40.5 105t-117.5 46z" />
    <glyph glyph-name="Dcroat" unicode="&#x110;" horiz-adv-x="820" 
d="M363 0h-258l45 367h-120l8 66h120l42 347h258q310 0 310 -300q0 -226 -105 -353t-300 -127zM183 66h188q84 0 147.5 31.5t101 87.5t55.5 127t18 157q0 245 -243 245h-188l-34 -281h238l-8 -66h-238z" />
    <glyph glyph-name="dcroat" unicode="&#x111;" horiz-adv-x="599" 
d="M477 445l22 182h-141l8 62h141l14 111h66l-14 -111h111l-8 -62h-110l-62 -503l-9 -124h-60l-2 86q-32 -45 -82 -70.5t-108 -25.5q-98 0 -151 57t-53 162q0 146 73.5 238.5t198.5 92.5q58 0 101.5 -25.5t64.5 -69.5zM305 477q-88 0 -142 -73.5t-54 -185.5
q0 -80 37.5 -122.5t106.5 -42.5q76 0 130.5 47.5t64.5 103.5l15 122q0 59 -40.5 105t-117.5 46z" />
    <glyph glyph-name="Emacron" unicode="&#x112;" horiz-adv-x="695" 
d="M145 780h520l-8 -66h-450l-34 -281h410l-8 -66h-410l-37 -301h470l-8 -66h-540zM283 894l8 64h272l-8 -64h-272z" />
    <glyph glyph-name="emacron" unicode="&#x113;" horiz-adv-x="570" 
d="M196 664l8 64h272l-8 -64h-272zM419 153l65 -23q-24 -62 -82.5 -101t-152.5 -39q-100 0 -155.5 55t-55.5 162q0 151 76.5 242t202.5 91q195 0 195 -207q0 -39 -8 -94h-395q-10 -90 31 -139t118 -49q130 0 161 102zM314 480q-166 0 -198 -182h323q10 81 -20 131.5
t-105 50.5z" />
    <glyph glyph-name="Ebreve" unicode="&#x114;" horiz-adv-x="695" 
d="M145 780h520l-8 -66h-450l-34 -281h410l-8 -66h-410l-37 -301h470l-8 -66h-540zM557 1030h58q-13 -100 -59 -149t-144 -49t-132 49t-21 149h54q-10 -78 14.5 -110t89.5 -32t97.5 32t42.5 110z" />
    <glyph glyph-name="ebreve" unicode="&#x115;" horiz-adv-x="570" 
d="M419 153l65 -23q-24 -62 -82.5 -101t-152.5 -39q-100 0 -155.5 55t-55.5 162q0 151 76.5 242t202.5 91q195 0 195 -207q0 -39 -8 -94h-395q-10 -90 31 -139t118 -49q130 0 161 102zM314 480q-166 0 -198 -182h323q10 81 -20 131.5t-105 50.5zM469 800h58
q-13 -100 -59 -149t-144 -49t-132 49t-21 149h54q-10 -78 14.5 -110t89.5 -32t97.5 32t42.5 110z" />
    <glyph glyph-name="Edotaccent" unicode="&#x116;" horiz-adv-x="695" 
d="M145 780h520l-8 -66h-450l-34 -281h410l-8 -66h-410l-37 -301h470l-8 -66h-540zM471 969l-10 -86h-86l10 86h86z" />
    <glyph glyph-name="edotaccent" unicode="&#x117;" horiz-adv-x="570" 
d="M384 739l-10 -86h-86l10 86h86zM419 153l65 -23q-24 -62 -82.5 -101t-152.5 -39q-100 0 -155.5 55t-55.5 162q0 151 76.5 242t202.5 91q195 0 195 -207q0 -39 -8 -94h-395q-10 -90 31 -139t118 -49q130 0 161 102zM314 480q-166 0 -198 -182h323q10 81 -20 131.5
t-105 50.5z" />
    <glyph glyph-name="Eogonek" unicode="&#x118;" horiz-adv-x="695" 
d="M145 780h520l-8 -66h-450l-34 -281h410l-8 -66h-410l-37 -301h470l-8 -66q-58 -9 -103 -42t-45 -75q0 -38 50 -38q16 0 34.5 5.5t29.5 10.5l11 5l11 -51q-44 -25 -103 -25q-41 0 -70.5 20t-29.5 60q0 73 94 130h-419z" />
    <glyph glyph-name="eogonek" unicode="&#x119;" horiz-adv-x="570" 
d="M419 153l65 -23q-18 -50 -63 -87q-16 -14 -48.5 -37.5t-50.5 -38t-33.5 -37.5t-15.5 -47q0 -38 50 -38q16 0 34.5 5.5t29.5 10.5l11 5l11 -51q-44 -25 -103 -25q-41 0 -70.5 20t-29.5 60q0 66 82 122q-26 -2 -39 -2q-100 0 -155.5 55t-55.5 162q0 151 76.5 242t202.5 91
q195 0 195 -207q0 -39 -8 -94h-395q-10 -90 31 -139t118 -49q130 0 161 102zM314 480q-166 0 -198 -182h323q10 81 -20 131.5t-105 50.5z" />
    <glyph glyph-name="Ecaron" unicode="&#x11a;" horiz-adv-x="695" 
d="M145 780h520l-8 -66h-450l-34 -281h410l-8 -66h-410l-37 -301h470l-8 -66h-540zM255 1030h65l98 -150l136 150h69l-176 -208h-68z" />
    <glyph glyph-name="ecaron" unicode="&#x11b;" horiz-adv-x="570" 
d="M419 153l65 -23q-24 -62 -82.5 -101t-152.5 -39q-100 0 -155.5 55t-55.5 162q0 151 76.5 242t202.5 91q195 0 195 -207q0 -39 -8 -94h-395q-10 -90 31 -139t118 -49q130 0 161 102zM314 480q-166 0 -198 -182h323q10 81 -20 131.5t-105 50.5zM165 800h65l98 -150l136 150
h69l-176 -208h-68z" />
    <glyph glyph-name="Gcircumflex" unicode="&#x11c;" horiz-adv-x="774" 
d="M361 55q140 0 231 59l28 223h-170l8 66h240l-41 -333q-78 -46 -146.5 -63t-157.5 -17q-145 0 -216 80.5t-71 227.5q0 227 100 359.5t285 132.5q241 0 265 -186l-70 -24q-6 76 -53.5 110.5t-148.5 34.5q-67 0 -120 -23.5t-87 -63.5t-56 -95t-31.5 -114.5t-9.5 -126.5
q0 -247 221 -247zM627 822h-65l-98 150l-136 -150h-69l176 208h68z" />
    <glyph glyph-name="gcircumflex" unicode="&#x11d;" horiz-adv-x="599" 
d="M85 -47q5 -104 134 -104q82 0 137.5 31t63.5 97l15 128q-32 -44 -81.5 -69.5t-107.5 -25.5q-100 0 -153 53.5t-53 157.5q0 144 73.5 231.5t197.5 87.5q58 0 101.5 -25.5t64.5 -70.5l23 86h60l-22 -124l-51 -422q-11 -93 -82 -143.5t-186 -50.5q-189 0 -205 139zM305 477
q-89 0 -142 -67t-53 -179q0 -78 37.5 -118t107.5 -40q76 0 131 47.5t64 103.5l13 102q0 59 -40.5 105t-117.5 46zM501 592h-65l-98 150l-136 -150h-69l176 208h68z" />
    <glyph glyph-name="Gbreve" unicode="&#x11e;" horiz-adv-x="774" 
d="M361 55q140 0 231 59l28 223h-170l8 66h240l-41 -333q-78 -46 -146.5 -63t-157.5 -17q-145 0 -216 80.5t-71 227.5q0 227 100 359.5t285 132.5q241 0 265 -186l-70 -24q-6 76 -53.5 110.5t-148.5 34.5q-67 0 -120 -23.5t-87 -63.5t-56 -95t-31.5 -114.5t-9.5 -126.5
q0 -247 221 -247zM592 1030h58q-13 -100 -59 -149t-144 -49t-132 49t-21 149h54q-10 -78 14.5 -110t89.5 -32t97.5 32t42.5 110z" />
    <glyph glyph-name="gbreve" unicode="&#x11f;" horiz-adv-x="599" 
d="M85 -47q5 -104 134 -104q82 0 137.5 31t63.5 97l15 128q-32 -44 -81.5 -69.5t-107.5 -25.5q-100 0 -153 53.5t-53 157.5q0 144 73.5 231.5t197.5 87.5q58 0 101.5 -25.5t64.5 -70.5l23 86h60l-22 -124l-51 -422q-11 -93 -82 -143.5t-186 -50.5q-189 0 -205 139zM305 477
q-89 0 -142 -67t-53 -179q0 -78 37.5 -118t107.5 -40q76 0 131 47.5t64 103.5l13 102q0 59 -40.5 105t-117.5 46zM463 800h58q-13 -100 -59 -149t-144 -49t-132 49t-21 149h54q-10 -78 14.5 -110t89.5 -32t97.5 32t42.5 110z" />
    <glyph glyph-name="Gdotaccent" unicode="&#x120;" horiz-adv-x="774" 
d="M506 969l-10 -86h-86l10 86h86zM361 55q140 0 231 59l28 223h-170l8 66h240l-41 -333q-78 -46 -146.5 -63t-157.5 -17q-145 0 -216 80.5t-71 227.5q0 227 100 359.5t285 132.5q241 0 265 -186l-70 -24q-6 76 -53.5 110.5t-148.5 34.5q-67 0 -120 -23.5t-87 -63.5t-56 -95
t-31.5 -114.5t-9.5 -126.5q0 -247 221 -247z" />
    <glyph glyph-name="gdotaccent" unicode="&#x121;" horiz-adv-x="599" 
d="M378 739l-10 -86h-86l10 86h86zM85 -47q5 -104 134 -104q82 0 137.5 31t63.5 97l15 128q-32 -44 -81.5 -69.5t-107.5 -25.5q-100 0 -153 53.5t-53 157.5q0 144 73.5 231.5t197.5 87.5q58 0 101.5 -25.5t64.5 -70.5l23 86h60l-22 -124l-51 -422q-11 -93 -82 -143.5
t-186 -50.5q-189 0 -205 139zM305 477q-89 0 -142 -67t-53 -179q0 -78 37.5 -118t107.5 -40q76 0 131 47.5t64 103.5l13 102q0 59 -40.5 105t-117.5 46z" />
    <glyph glyph-name="Gcommaaccent" unicode="&#x122;" horiz-adv-x="774" 
d="M307 -62h79l-67 -138h-67zM361 55q140 0 231 59l28 223h-170l8 66h240l-41 -333q-78 -46 -146.5 -63t-157.5 -17q-145 0 -216 80.5t-71 227.5q0 227 100 359.5t285 132.5q241 0 265 -186l-70 -24q-6 76 -53.5 110.5t-148.5 34.5q-67 0 -120 -23.5t-87 -63.5t-56 -95
t-31.5 -114.5t-9.5 -126.5q0 -247 221 -247z" />
    <glyph glyph-name="gcommaaccent" unicode="&#x123;" horiz-adv-x="599" 
d="M348 592h-79l101 208h61zM85 -47q5 -104 134 -104q82 0 137.5 31t63.5 97l15 128q-32 -44 -81.5 -69.5t-107.5 -25.5q-100 0 -153 53.5t-53 157.5q0 144 73.5 231.5t197.5 87.5q58 0 101.5 -25.5t64.5 -70.5l23 86h60l-22 -124l-51 -422q-11 -93 -82 -143.5t-186 -50.5
q-189 0 -205 139zM305 477q-89 0 -142 -67t-53 -179q0 -78 37.5 -118t107.5 -40q76 0 131 47.5t64 103.5l13 102q0 59 -40.5 105t-117.5 46z" />
    <glyph glyph-name="Hcircumflex" unicode="&#x124;" horiz-adv-x="750" 
d="M645 780h70l-95 -780h-70l45 367h-430l-45 -367h-70l95 780h70l-42 -347h430zM617 822h-65l-98 150l-136 -150h-69l176 208h68z" />
    <glyph glyph-name="hcircumflex" unicode="&#x125;" horiz-adv-x="574" 
d="M30 0l98 800h66l-44 -355q32 44 83 69.5t110 25.5q86 0 135.5 -46t39.5 -124l-45 -370h-66l43 355q7 57 -27 89.5t-98 32.5q-70 0 -125 -48t-64 -103l-40 -326h-66zM349 822h-65l-98 150l-136 -150h-69l176 208h68z" />
    <glyph glyph-name="Hbar" unicode="&#x126;" horiz-adv-x="750" 
d="M645 780h70l-95 -780h-70l45 367h-430l-45 -367h-70l95 780h70l-19 -153h430zM173 433h430l16 130h-430z" />
    <glyph glyph-name="hbar" unicode="&#x127;" horiz-adv-x="574" 
d="M30 0l77 627h-112l8 62h111l14 111h66l-14 -111h141l-8 -62h-141l-22 -182q32 44 83 69.5t110 25.5q86 0 135.5 -46t39.5 -124l-45 -370h-66l43 355q7 57 -27 89.5t-98 32.5q-70 0 -125 -48t-64 -103l-40 -326h-66z" />
    <glyph glyph-name="Itilde" unicode="&#x128;" horiz-adv-x="290" 
d="M235 780l-95 -780h-70l95 780h70zM288 860q-29 0 -51.5 11.5t-34.5 26t-29.5 26t-36.5 11.5q-24 0 -41 -13t-22 -26l-5 -13l-54 8q34 103 130 103q29 0 51.5 -11.5t34.5 -26t29.5 -26t36.5 -11.5q24 0 41 13t22 26l5 13l55 -8q-36 -103 -131 -103z" />
    <glyph glyph-name="itilde" unicode="&#x129;" horiz-adv-x="250" 
d="M52 0l65 530h66l-65 -530h-66zM243 630q-29 0 -51.5 11.5t-34.5 26t-29.5 26t-36.5 11.5q-24 0 -41 -13t-22 -26l-5 -13l-54 8q34 103 130 103q29 0 51.5 -11.5t34.5 -26t29.5 -26t36.5 -11.5q24 0 41 13t22 26l5 13l55 -8q-36 -103 -131 -103z" />
    <glyph glyph-name="Imacron" unicode="&#x12a;" horiz-adv-x="290" 
d="M235 780l-95 -780h-70l95 780h70zM78 894l8 64h272l-8 -64h-272z" />
    <glyph glyph-name="imacron" unicode="&#x12b;" horiz-adv-x="250" 
d="M52 0l65 530h66l-65 -530h-66zM30 664l8 64h272l-8 -64h-272z" />
    <glyph glyph-name="Ibreve" unicode="&#x12c;" horiz-adv-x="290" 
d="M235 780l-95 -780h-70l95 780h70zM352 1030h58q-13 -100 -59 -149t-144 -49t-132 49t-21 149h54q-10 -78 14.5 -110t89.5 -32t97.5 32t42.5 110z" />
    <glyph glyph-name="ibreve" unicode="&#x12d;" horiz-adv-x="250" 
d="M52 0l65 530h66l-65 -530h-66zM303 800h58q-13 -100 -59 -149t-144 -49t-132 49t-21 149h54q-10 -78 14.5 -110t89.5 -32t97.5 32t42.5 110z" />
    <glyph glyph-name="Iogonek" unicode="&#x12e;" horiz-adv-x="290" 
d="M235 780l-95 -780q-31 -21 -48.5 -35t-33 -36.5t-15.5 -45.5q0 -38 50 -38q16 0 34.5 5.5t29.5 10.5l11 5l11 -51q-44 -25 -103 -25q-41 0 -70.5 20t-29.5 60q0 41 24 70t70 60l95 780h70z" />
    <glyph glyph-name="iogonek" unicode="&#x12f;" horiz-adv-x="250" 
d="M118 0q-31 -21 -48.5 -35t-33 -36.5t-15.5 -45.5q0 -38 50 -38q16 0 34.5 5.5t29.5 10.5l11 5l11 -51q-44 -25 -103 -25q-41 0 -70 20t-29 60q0 42 23.5 70.5t73.5 62.5l65 527h66zM218 739l-10 -86h-86l10 86h86z" />
    <glyph glyph-name="Idotaccent" unicode="&#x130;" horiz-adv-x="290" 
d="M235 780l-95 -780h-70l95 780h70zM266 969l-10 -86h-86l10 86h86z" />
    <glyph glyph-name="dotlessi" unicode="&#x131;" horiz-adv-x="250" 
d="M52 0l65 530h66l-65 -530h-66z" />
    <glyph glyph-name="IJ" unicode="&#x132;" horiz-adv-x="627" 
d="M235 780l-95 -780h-70l95 780h70zM315 56q62 0 97.5 30.5t45.5 111.5l71 582h70l-71 -582q-25 -208 -221 -208q-34 0 -56 8l17 67q21 -9 47 -9z" />
    <glyph glyph-name="ij" unicode="&#x133;" horiz-adv-x="480" 
d="M218 739l-10 -86h-86l10 86h86zM52 0l65 530h66l-65 -530h-66zM149 -147q63 0 92 28.5t40 116.5l66 532h66l-66 -532q-6 -47 -16.5 -80t-32 -64.5t-60.5 -47.5t-96 -16q-35 0 -56 8l16 64q18 -9 47 -9zM448 739l-10 -86h-86l10 86h86z" />
    <glyph glyph-name="Jcircumflex" unicode="&#x134;" horiz-adv-x="560" 
d="M69 164q0 -109 131 -109q172 0 190 144l71 581h71l-70 -570q-12 -99 -82 -159.5t-182 -60.5q-195 0 -201 149zM682 822h-65l-98 150l-136 -150h-69l176 208h68z" />
    <glyph glyph-name="jcircumflex" unicode="&#x135;" horiz-adv-x="250" 
d="M-80 -147q63 0 91.5 28.5t39.5 116.5l66 532h66l-66 -532q-6 -47 -16.5 -80t-32 -64.5t-60.5 -47.5t-95 -16q-35 0 -56 8l16 64q18 -9 47 -9zM341 592h-65l-98 150l-136 -150h-69l176 208h68z" />
    <glyph glyph-name="Kcommaaccent" unicode="&#x136;" horiz-adv-x="695" 
d="M282 -62h79l-67 -138h-67zM215 780l-51 -419l96 94l341 325h102l-371 -350l301 -430h-90l-265 379l-126 -119l-32 -260h-70l95 780h70z" />
    <glyph glyph-name="kcommaaccent" unicode="&#x137;" horiz-adv-x="535" 
d="M196 -62h79l-67 -138h-67zM96 0h-66l98 800h66l-65 -532l109 97l187 165h95l-259 -225l231 -305h-91l-193 259l-90 -79z" />
    <glyph glyph-name="kgreenlandic" unicode="&#x138;" horiz-adv-x="535" 
d="M96 0h-66l65 530h66l-32 -262l109 97l187 165h95l-259 -225l231 -305h-91l-193 259l-90 -79z" />
    <glyph glyph-name="Lacute" unicode="&#x139;" horiz-adv-x="585" 
d="M215 780l-87 -714h410l-8 -66h-480l95 780h70zM275 1030h82l-137 -208h-65z" />
    <glyph glyph-name="lacute" unicode="&#x13a;" horiz-adv-x="250" 
d="M52 0l98 800h66l-98 -800h-66zM273 1030h82l-137 -208h-65z" />
    <glyph glyph-name="Lcommaaccent" unicode="&#x13b;" horiz-adv-x="585" 
d="M215 780l-87 -714h410l-8 -66h-480l95 780h70zM249 -62h79l-67 -138h-67z" />
    <glyph glyph-name="lcommaaccent" unicode="&#x13c;" horiz-adv-x="250" 
d="M52 0l98 800h66l-98 -800h-66zM36 -62h79l-67 -138h-67z" />
    <glyph glyph-name="Lcaron" unicode="&#x13d;" horiz-adv-x="585" 
d="M215 780l-87 -714h410l-8 -66h-480l95 780h70zM451 800h79l-101 -208h-61z" />
    <glyph glyph-name="lcaron" unicode="&#x13e;" horiz-adv-x="250" 
d="M52 0l98 800h66l-98 -800h-66zM320 800h79l-101 -208h-61z" />
    <glyph glyph-name="Ldot" unicode="&#x13f;" horiz-adv-x="585" 
d="M215 780l-87 -714h410l-8 -66h-480l95 780h70zM514 443l-11 -86h-86l11 86h86z" />
    <glyph glyph-name="ldot" unicode="&#x140;" horiz-adv-x="349" 
d="M52 0l98 800h66l-98 -800h-66zM351 433l-11 -86h-86l11 86h86z" />
    <glyph glyph-name="Lslash" unicode="&#x141;" horiz-adv-x="585" 
d="M460 455l-302 -144l-30 -245h410l-8 -66h-480l33 276l-85 -40l8 65l85 40l54 439h70l-49 -403l302 143z" />
    <glyph glyph-name="lslash" unicode="&#x142;" horiz-adv-x="300" 
d="M300 452l-110 -65l-47 -387h-66l42 346l-88 -52l8 68l88 52l48 386h66l-43 -345l110 65z" />
    <glyph glyph-name="Nacute" unicode="&#x143;" horiz-adv-x="750" 
d="M557 0l-285 515l-75 142l-29 -267l-47 -390h-71l95 780h63l285 -515l75 -142l28 267l48 390h71l-95 -780h-63zM525 1030h82l-137 -208h-65z" />
    <glyph glyph-name="nacute" unicode="&#x144;" horiz-adv-x="574" 
d="M419 800h82l-137 -208h-65zM149 530l1 -85q32 44 83 69.5t110 25.5q86 0 135.5 -46t39.5 -124l-45 -370h-66l43 355q7 57 -27 89.5t-98 32.5q-70 0 -125 -48t-64 -103l-40 -326h-66l49 407l10 123h60z" />
    <glyph glyph-name="Ncommaaccent" unicode="&#x145;" horiz-adv-x="750" 
d="M557 0l-285 515l-75 142l-29 -267l-47 -390h-71l95 780h63l285 -515l75 -142l28 267l48 390h71l-95 -780h-63zM297 -62h79l-67 -138h-67z" />
    <glyph glyph-name="ncommaaccent" unicode="&#x146;" horiz-adv-x="574" 
d="M214 -62h79l-67 -138h-67zM149 530l1 -85q32 44 83 69.5t110 25.5q86 0 135.5 -46t39.5 -124l-45 -370h-66l43 355q7 57 -27 89.5t-98 32.5q-70 0 -125 -48t-64 -103l-40 -326h-66l49 407l10 123h60z" />
    <glyph glyph-name="Ncaron" unicode="&#x147;" horiz-adv-x="750" 
d="M557 0l-285 515l-75 142l-29 -267l-47 -390h-71l95 780h63l285 -515l75 -142l28 267l48 390h71l-95 -780h-63zM280 1030h65l98 -150l136 150h69l-176 -208h-68z" />
    <glyph glyph-name="ncaron" unicode="&#x148;" horiz-adv-x="574" 
d="M149 530l1 -85q32 44 83 69.5t110 25.5q86 0 135.5 -46t39.5 -124l-45 -370h-66l43 355q7 57 -27 89.5t-98 32.5q-70 0 -125 -48t-64 -103l-40 -326h-66l49 407l10 123h60zM166 800h65l98 -150l136 150h69l-176 -208h-68z" />
    <glyph glyph-name="Eng" unicode="&#x14a;" horiz-adv-x="750" 
d="M421 -147q63 0 92 28.5t40 116.5l1 6l-282 511l-75 142l-29 -267l-47 -390h-71l95 780h63l285 -515l75 -142l28 267l48 390h71l-96 -782q-5 -46 -15.5 -79.5t-32.5 -65t-61 -47.5t-96 -16q-35 0 -56 8l16 64q18 -9 47 -9z" />
    <glyph glyph-name="eng" unicode="&#x14b;" horiz-adv-x="574" 
d="M274 -147q63 0 92 28.5t40 116.5l44 357q7 57 -27 89.5t-98 32.5q-70 0 -125 -48t-64 -103l-40 -326h-66l49 407l10 123h60l1 -85q32 44 83 69.5t110 25.5q86 0 135.5 -46t39.5 -124l-46 -372q-6 -47 -16.5 -80t-32 -64.5t-60.5 -47.5t-96 -16q-35 0 -56 8l16 64
q18 -9 47 -9z" />
    <glyph glyph-name="Omacron" unicode="&#x14c;" horiz-adv-x="790" 
d="M328 894l8 64h272l-8 -64h-272zM353 -10q-145 0 -216 80.5t-71 227.5q0 103 23.5 191t70 156t121 106.5t170.5 38.5q146 0 216.5 -80t70.5 -228q0 -103 -23.5 -191t-70 -156t-121 -106.5t-170.5 -38.5zM444 725q-68 0 -121.5 -25t-87 -65.5t-55.5 -96.5t-31 -114t-9 -122
q0 -247 221 -247q84 0 145.5 37t94.5 100t48 134t15 153q0 246 -220 246z" />
    <glyph glyph-name="omacron" unicode="&#x14d;" horiz-adv-x="578" 
d="M194 664l8 64h272l-8 -64h-272zM247 -10q-99 0 -154 55t-55 161q0 152 75.5 243t201.5 91q100 0 154.5 -55t54.5 -161q0 -152 -75.5 -243t-201.5 -91zM307 478q-92 0 -145.5 -71.5t-53.5 -192.5q0 -162 147 -162q92 0 145.5 71.5t53.5 192.5q0 162 -147 162z" />
    <glyph glyph-name="Obreve" unicode="&#x14e;" horiz-adv-x="790" 
d="M353 -10q-145 0 -216 80.5t-71 227.5q0 103 23.5 191t70 156t121 106.5t170.5 38.5q146 0 216.5 -80t70.5 -228q0 -103 -23.5 -191t-70 -156t-121 -106.5t-170.5 -38.5zM444 725q-68 0 -121.5 -25t-87 -65.5t-55.5 -96.5t-31 -114t-9 -122q0 -247 221 -247q84 0 145.5 37
t94.5 100t48 134t15 153q0 246 -220 246zM602 1030h58q-13 -100 -59 -149t-144 -49t-132 49t-21 149h54q-10 -78 14.5 -110t89.5 -32t97.5 32t42.5 110z" />
    <glyph glyph-name="obreve" unicode="&#x14f;" horiz-adv-x="578" 
d="M247 -10q-99 0 -154 55t-55 161q0 152 75.5 243t201.5 91q100 0 154.5 -55t54.5 -161q0 -152 -75.5 -243t-201.5 -91zM307 478q-92 0 -145.5 -71.5t-53.5 -192.5q0 -162 147 -162q92 0 145.5 71.5t53.5 192.5q0 162 -147 162zM467 800h58q-13 -100 -59 -149t-144 -49
t-132 49t-21 149h54q-10 -78 14.5 -110t89.5 -32t97.5 32t42.5 110z" />
    <glyph glyph-name="Ohungarumlaut" unicode="&#x150;" horiz-adv-x="790" 
d="M465 1030h82l-137 -208h-65zM605 1030h82l-137 -208h-65zM353 -10q-145 0 -216 80.5t-71 227.5q0 103 23.5 191t70 156t121 106.5t170.5 38.5q146 0 216.5 -80t70.5 -228q0 -103 -23.5 -191t-70 -156t-121 -106.5t-170.5 -38.5zM444 725q-68 0 -121.5 -25t-87 -65.5
t-55.5 -96.5t-31 -114t-9 -122q0 -247 221 -247q84 0 145.5 37t94.5 100t48 134t15 153q0 246 -220 246z" />
    <glyph glyph-name="ohungarumlaut" unicode="&#x151;" horiz-adv-x="578" 
d="M336 800h82l-137 -208h-65zM476 800h82l-137 -208h-65zM247 -10q-99 0 -154 55t-55 161q0 152 75.5 243t201.5 91q100 0 154.5 -55t54.5 -161q0 -152 -75.5 -243t-201.5 -91zM307 478q-92 0 -145.5 -71.5t-53.5 -192.5q0 -162 147 -162q92 0 145.5 71.5t53.5 192.5
q0 162 -147 162z" />
    <glyph glyph-name="OE" unicode="&#x152;" horiz-adv-x="1070" 
d="M562 714h-98q-84 0 -147 -31t-101 -86.5t-56.5 -126.5t-18.5 -157q0 -247 244 -247h98zM472 780h568l-8 -66h-400l-34 -281h360l-8 -66h-360l-37 -301h420l-8 -66h-588q-311 0 -311 301q0 226 105.5 352.5t300.5 126.5z" />
    <glyph glyph-name="oe" unicode="&#x153;" horiz-adv-x="979" 
d="M307 478q-92 0 -145.5 -71.5t-53.5 -192.5q0 -162 147 -162q92 0 145.5 71.5t53.5 192.5q0 162 -147 162zM723 480q-166 0 -198 -182h323q10 81 -20 131.5t-105 50.5zM828 153l65 -23q-24 -62 -82.5 -101t-152.5 -39q-148 0 -193 113q-77 -113 -218 -113q-99 0 -154 55
t-55 161q0 152 75.5 243t201.5 91q147 0 192 -113q78 113 219 113q195 0 195 -207q0 -39 -8 -94h-395q-10 -90 31 -139t118 -49q130 0 161 102z" />
    <glyph glyph-name="Racute" unicode="&#x154;" horiz-adv-x="695" 
d="M478 1030h82l-137 -208h-65zM162 347l-42 -347h-70l95 780h300q219 0 219 -176q0 -112 -59.5 -178.5t-152.5 -75.5l171 -350h-88l-161 347h-212zM170 413h239q37 0 66 7.5t56 26.5t42 57t15 93q0 32 -9.5 54.5t-22.5 34.5t-34 18.5t-37 8t-39 1.5h-239z" />
    <glyph glyph-name="racute" unicode="&#x155;" horiz-adv-x="395" 
d="M338 540q37 0 58 -8l-16 -68q-21 9 -50 9q-76 0 -131 -47.5t-64 -103.5l-39 -322h-66l49 407l10 123h60l1 -89q29 44 80 71.5t108 27.5zM322 800h82l-137 -208h-65z" />
    <glyph glyph-name="Rcommaaccent" unicode="&#x156;" horiz-adv-x="695" 
d="M262 -62h79l-67 -138h-67zM162 347l-42 -347h-70l95 780h300q219 0 219 -176q0 -112 -59.5 -178.5t-152.5 -75.5l171 -350h-88l-161 347h-212zM170 413h239q37 0 66 7.5t56 26.5t42 57t15 93q0 32 -9.5 54.5t-22.5 34.5t-34 18.5t-37 8t-39 1.5h-239z" />
    <glyph glyph-name="rcommaaccent" unicode="&#x157;" horiz-adv-x="395" 
d="M338 540q37 0 58 -8l-16 -68q-21 9 -50 9q-76 0 -131 -47.5t-64 -103.5l-39 -322h-66l49 407l10 123h60l1 -89q29 44 80 71.5t108 27.5zM17 -62h79l-67 -138h-67z" />
    <glyph glyph-name="Rcaron" unicode="&#x158;" horiz-adv-x="695" 
d="M162 347l-42 -347h-70l95 780h300q219 0 219 -176q0 -112 -59.5 -178.5t-152.5 -75.5l171 -350h-88l-161 347h-212zM170 413h239q37 0 66 7.5t56 26.5t42 57t15 93q0 32 -9.5 54.5t-22.5 34.5t-34 18.5t-37 8t-39 1.5h-239zM235 1030h65l98 -150l136 150h69l-176 -208
h-68z" />
    <glyph glyph-name="rcaron" unicode="&#x159;" horiz-adv-x="395" 
d="M338 540q37 0 58 -8l-16 -68q-21 9 -50 9q-76 0 -131 -47.5t-64 -103.5l-39 -322h-66l49 407l10 123h60l1 -89q29 44 80 71.5t108 27.5zM74 800h65l98 -150l136 150h69l-176 -208h-68z" />
    <glyph glyph-name="Sacute" unicode="&#x15a;" horiz-adv-x="710" 
d="M506 1030h82l-137 -208h-65zM602 588q-6 73 -51.5 105t-145.5 32q-32 0 -64.5 -8t-67 -25.5t-56 -53t-21.5 -84.5q0 -48 38 -73.5t139 -37.5q67 -8 109 -18t79 -30t53.5 -52.5t16.5 -81.5q0 -130 -92.5 -200.5t-225.5 -70.5q-240 0 -264 183l71 25q6 -75 53 -109t148 -34
q61 0 113.5 18.5t89.5 64t37 111.5q0 59 -44 88t-154 42q-41 5 -72 11t-64 18.5t-54.5 30t-35 45.5t-13.5 64q0 116 83.5 179t204.5 63q236 0 260 -178z" />
    <glyph glyph-name="sacute" unicode="&#x15b;" horiz-adv-x="530" 
d="M382 800h82l-137 -208h-65zM91 153q13 -102 131 -102q33 0 62 5.5t56 17.5t42.5 36t15.5 58q0 10 -1.5 18.5t-7 15t-9.5 11t-14 8.5t-16.5 6.5t-21 5t-22.5 4t-27 4.5t-28 4q-3 0 -23.5 3.5t-27.5 5t-26.5 5.5t-28.5 8t-24.5 10.5t-23 14.5t-16.5 18.5t-12.5 24.5
t-3.5 30q0 60 36.5 101t84.5 57.5t100 16.5q173 0 195 -139l-70 -24q-11 102 -127 102q-27 0 -50 -4t-47 -14.5t-38 -32.5t-14 -53q0 -23 18 -37t35.5 -18t62.5 -11l18 -3t29 -4t31.5 -5t29 -6t30 -8t25.5 -11t24 -15.5t17 -20t12.5 -26.5t3.5 -33q0 -63 -39 -107t-93.5 -62
t-117.5 -18q-93 0 -142 38t-59 100z" />
    <glyph glyph-name="Scircumflex" unicode="&#x15c;" horiz-adv-x="710" 
d="M602 588q-6 73 -51.5 105t-145.5 32q-32 0 -64.5 -8t-67 -25.5t-56 -53t-21.5 -84.5q0 -48 38 -73.5t139 -37.5q67 -8 109 -18t79 -30t53.5 -52.5t16.5 -81.5q0 -130 -92.5 -200.5t-225.5 -70.5q-240 0 -264 183l71 25q6 -75 53 -109t148 -34q61 0 113.5 18.5t89.5 64
t37 111.5q0 59 -44 88t-154 42q-41 5 -72 11t-64 18.5t-54.5 30t-35 45.5t-13.5 64q0 116 83.5 179t204.5 63q236 0 260 -178zM598 822h-65l-98 150l-136 -150h-69l176 208h68z" />
    <glyph glyph-name="scircumflex" unicode="&#x15d;" horiz-adv-x="530" 
d="M91 153q13 -102 131 -102q33 0 62 5.5t56 17.5t42.5 36t15.5 58q0 10 -1.5 18.5t-7 15t-9.5 11t-14 8.5t-16.5 6.5t-21 5t-22.5 4t-27 4.5t-28 4q-3 0 -23.5 3.5t-27.5 5t-26.5 5.5t-28.5 8t-24.5 10.5t-23 14.5t-16.5 18.5t-12.5 24.5t-3.5 30q0 60 36.5 101t84.5 57.5
t100 16.5q173 0 195 -139l-70 -24q-11 102 -127 102q-27 0 -50 -4t-47 -14.5t-38 -32.5t-14 -53q0 -23 18 -37t35.5 -18t62.5 -11l18 -3t29 -4t31.5 -5t29 -6t30 -8t25.5 -11t24 -15.5t17 -20t12.5 -26.5t3.5 -33q0 -63 -39 -107t-93.5 -62t-117.5 -18q-93 0 -142 38
t-59 100zM476 592h-65l-98 150l-136 -150h-69l176 208h68z" />
    <glyph glyph-name="Scedilla" unicode="&#x15e;" horiz-adv-x="710" 
d="M602 588q-6 73 -51.5 105t-145.5 32q-32 0 -64.5 -8t-67 -25.5t-56 -53t-21.5 -84.5q0 -48 38 -73.5t139 -37.5q67 -8 109 -18t79 -30t53.5 -52.5t16.5 -81.5q0 -124 -85 -194t-211 -76l-10 -25q77 -18 77 -80q0 -48 -33.5 -72t-86.5 -24q-49 0 -77 17l20 44
q29 -13 59 -13q59 0 59 39t-84 48l31 66q-219 8 -241 182l71 25q6 -75 53 -109t148 -34q61 0 113.5 18.5t89.5 64t37 111.5q0 59 -44 88t-154 42q-41 5 -72 11t-64 18.5t-54.5 30t-35 45.5t-13.5 64q0 116 83.5 179t204.5 63q236 0 260 -178z" />
    <glyph glyph-name="scedilla" unicode="&#x15f;" horiz-adv-x="530" 
d="M91 153q13 -102 131 -102q33 0 62 5.5t56 17.5t42.5 36t15.5 58q0 10 -1.5 18.5t-7 15t-9.5 11t-14 8.5t-16.5 6.5t-21 5t-22.5 4t-27 4.5t-28 4q-3 0 -23.5 3.5t-27.5 5t-26.5 5.5t-28.5 8t-24.5 10.5t-23 14.5t-16.5 18.5t-12.5 24.5t-3.5 30q0 60 36.5 101t84.5 57.5
t100 16.5q173 0 195 -139l-70 -24q-11 102 -127 102q-27 0 -50 -4t-47 -14.5t-38 -32.5t-14 -53q0 -23 18 -37t35.5 -18t62.5 -11l18 -3t29 -4t31.5 -5t29 -6t30 -8t25.5 -11t24 -15.5t17 -20t12.5 -26.5t3.5 -33q0 -60 -35 -102.5t-84.5 -61.5t-108.5 -22l-10 -25
q77 -18 77 -80q0 -48 -33.5 -72t-86.5 -24q-49 0 -77 17l20 44q29 -13 59 -13q59 0 59 39t-84 48l31 66q-158 10 -178 137z" />
    <glyph glyph-name="Scaron" unicode="&#x160;" horiz-adv-x="710" 
d="M602 588q-6 73 -51.5 105t-145.5 32q-32 0 -64.5 -8t-67 -25.5t-56 -53t-21.5 -84.5q0 -48 38 -73.5t139 -37.5q67 -8 109 -18t79 -30t53.5 -52.5t16.5 -81.5q0 -130 -92.5 -200.5t-225.5 -70.5q-240 0 -264 183l71 25q6 -75 53 -109t148 -34q61 0 113.5 18.5t89.5 64
t37 111.5q0 59 -44 88t-154 42q-41 5 -72 11t-64 18.5t-54.5 30t-35 45.5t-13.5 64q0 116 83.5 179t204.5 63q236 0 260 -178zM261 1030h65l98 -150l136 150h69l-176 -208h-68z" />
    <glyph glyph-name="scaron" unicode="&#x161;" horiz-adv-x="530" 
d="M91 153q13 -102 131 -102q33 0 62 5.5t56 17.5t42.5 36t15.5 58q0 10 -1.5 18.5t-7 15t-9.5 11t-14 8.5t-16.5 6.5t-21 5t-22.5 4t-27 4.5t-28 4q-3 0 -23.5 3.5t-27.5 5t-26.5 5.5t-28.5 8t-24.5 10.5t-23 14.5t-16.5 18.5t-12.5 24.5t-3.5 30q0 60 36.5 101t84.5 57.5
t100 16.5q173 0 195 -139l-70 -24q-11 102 -127 102q-27 0 -50 -4t-47 -14.5t-38 -32.5t-14 -53q0 -23 18 -37t35.5 -18t62.5 -11l18 -3t29 -4t31.5 -5t29 -6t30 -8t25.5 -11t24 -15.5t17 -20t12.5 -26.5t3.5 -33q0 -63 -39 -107t-93.5 -62t-117.5 -18q-93 0 -142 38
t-59 100zM134 800h65l98 -150l136 150h69l-176 -208h-68z" />
    <glyph glyph-name="Tcedilla" unicode="&#x162;" horiz-adv-x="620" 
d="M223 -75l23 49q120 -14 120 -88q0 -48 -33.5 -72t-86.5 -24q-49 0 -77 17l20 44q29 -13 59 -13q59 0 59 39t-84 48zM392 714l-87 -714h-70l87 714h-250l8 66h570l-8 -66h-250z" />
    <glyph glyph-name="tcedilla" unicode="&#x163;" horiz-adv-x="395" 
d="M137 -75l23 49q120 -14 120 -88q0 -48 -33.5 -72t-86.5 -24q-49 0 -77 17l20 44q29 -13 59 -13q59 0 59 39t-84 48zM44 468l8 62h96l16 135l69 22l-19 -157h163l-8 -62h-163l-33 -270q-11 -87 11.5 -116t85.5 -29q26 0 50 9v-64q-22 -8 -58 -8q-56 0 -92 17t-49.5 46
t-17.5 66.5t4 78.5l33 270h-96z" />
    <glyph glyph-name="Tcaron" unicode="&#x164;" horiz-adv-x="620" 
d="M392 714l-87 -714h-70l87 714h-250l8 66h570l-8 -66h-250zM215 1030h65l98 -150l136 150h69l-176 -208h-68z" />
    <glyph glyph-name="tcaron" unicode="&#x165;" horiz-adv-x="395" 
d="M364 800h79l-101 -208h-61zM44 468l8 62h96l16 135l69 22l-19 -157h163l-8 -62h-163l-33 -270q-11 -87 11.5 -116t85.5 -29q26 0 50 9v-64q-22 -8 -58 -8q-56 0 -92 17t-49.5 46t-17.5 66.5t4 78.5l33 270h-96z" />
    <glyph glyph-name="Tbar" unicode="&#x166;" horiz-adv-x="620" 
d="M470 367h-120l-45 -367h-70l45 367h-120l8 66h120l34 281h-250l8 66h570l-8 -66h-250l-34 -281h120z" />
    <glyph glyph-name="tbar" unicode="&#x167;" horiz-adv-x="395" 
d="M44 468l8 62h96l16 135l69 22l-19 -157h163l-8 -62h-163l-13 -107h156l-8 -62h-156l-12 -101q-11 -87 11.5 -116t85.5 -29q26 0 50 9v-64q-22 -8 -58 -8q-56 0 -92 17t-49.5 46t-17.5 66.5t4 78.5l12 101h-96l8 62h96l13 107h-96z" />
    <glyph glyph-name="Utilde" unicode="&#x168;" horiz-adv-x="774" 
d="M345 -10q-306 0 -271 290l61 500h72l-61 -502q-14 -105 30 -164t177 -59q69 0 119 16.5t79 48.5t44 69.5t21 88.5l61 502h72l-61 -500q-35 -290 -343 -290zM532 860q-29 0 -51.5 11.5t-34.5 26t-29.5 26t-36.5 11.5q-24 0 -41 -13t-22 -26l-5 -13l-54 8q34 103 130 103
q29 0 51.5 -11.5t34.5 -26t29.5 -26t36.5 -11.5q24 0 41 13t22 26l5 13l55 -8q-36 -103 -131 -103z" />
    <glyph glyph-name="utilde" unicode="&#x169;" horiz-adv-x="574" 
d="M410 0l-2 85q-32 -44 -83 -69.5t-110 -25.5q-86 0 -135.5 46.5t-39.5 123.5l46 370h66l-44 -355q-7 -57 27.5 -89.5t97.5 -32.5q70 0 125 48t65 103l40 326h66l-50 -407l-9 -123h-60zM400 630q-29 0 -51.5 11.5t-34.5 26t-29.5 26t-36.5 11.5q-24 0 -41 -13t-22 -26
l-5 -13l-54 8q34 103 130 103q29 0 51.5 -11.5t34.5 -26t29.5 -26t36.5 -11.5q24 0 41 13t22 26l5 13l55 -8q-36 -103 -131 -103z" />
    <glyph glyph-name="Umacron" unicode="&#x16a;" horiz-adv-x="774" 
d="M320 894l8 64h272l-8 -64h-272zM345 -10q-306 0 -271 290l61 500h72l-61 -502q-14 -105 30 -164t177 -59q69 0 119 16.5t79 48.5t44 69.5t21 88.5l61 502h72l-61 -500q-35 -290 -343 -290z" />
    <glyph glyph-name="umacron" unicode="&#x16b;" horiz-adv-x="574" 
d="M187 664l8 64h272l-8 -64h-272zM410 0l-2 85q-32 -44 -83 -69.5t-110 -25.5q-86 0 -135.5 46.5t-39.5 123.5l46 370h66l-44 -355q-7 -57 27.5 -89.5t97.5 -32.5q70 0 125 48t65 103l40 326h66l-50 -407l-9 -123h-60z" />
    <glyph glyph-name="Ubreve" unicode="&#x16c;" horiz-adv-x="774" 
d="M345 -10q-306 0 -271 290l61 500h72l-61 -502q-14 -105 30 -164t177 -59q69 0 119 16.5t79 48.5t44 69.5t21 88.5l61 502h72l-61 -500q-35 -290 -343 -290zM594 1030h58q-13 -100 -59 -149t-144 -49t-132 49t-21 149h54q-10 -78 14.5 -110t89.5 -32t97.5 32t42.5 110z
" />
    <glyph glyph-name="ubreve" unicode="&#x16d;" horiz-adv-x="574" 
d="M410 0l-2 85q-32 -44 -83 -69.5t-110 -25.5q-86 0 -135.5 46.5t-39.5 123.5l46 370h66l-44 -355q-7 -57 27.5 -89.5t97.5 -32.5q70 0 125 48t65 103l40 326h66l-50 -407l-9 -123h-60zM460 800h58q-13 -100 -59 -149t-144 -49t-132 49t-21 149h54q-10 -78 14.5 -110
t89.5 -32t97.5 32t42.5 110z" />
    <glyph glyph-name="Uring" unicode="&#x16e;" horiz-adv-x="774" 
d="M345 -10q-306 0 -271 290l61 500h72l-61 -502q-14 -105 30 -164t177 -59q69 0 119 16.5t79 48.5t44 69.5t21 88.5l61 502h72l-61 -500q-35 -290 -343 -290zM345 908q0 56 35.5 94t93.5 38q48 0 74.5 -26t26.5 -70q0 -57 -35.5 -94.5t-93.5 -37.5q-48 0 -74.5 26.5
t-26.5 69.5zM467 984q-29 0 -46 -19t-17 -48q0 -22 13 -35.5t36 -13.5q28 0 46 19t18 48q0 22 -13 35.5t-37 13.5z" />
    <glyph glyph-name="uring" unicode="&#x16f;" horiz-adv-x="574" 
d="M410 0l-2 85q-32 -44 -83 -69.5t-110 -25.5q-86 0 -135.5 46.5t-39.5 123.5l46 370h66l-44 -355q-7 -57 27.5 -89.5t97.5 -32.5q70 0 125 48t65 103l40 326h66l-50 -407l-9 -123h-60zM212 678q0 56 35.5 94t93.5 38q48 0 74.5 -26t26.5 -70q0 -57 -35.5 -94.5
t-93.5 -37.5q-48 0 -74.5 26.5t-26.5 69.5zM334 754q-29 0 -46 -19t-17 -48q0 -22 13 -35.5t36 -13.5q28 0 46 19t18 48q0 22 -13 35.5t-37 13.5z" />
    <glyph glyph-name="Uhungarumlaut" unicode="&#x170;" horiz-adv-x="774" 
d="M597 1030h82l-137 -208h-65zM457 1030h82l-137 -208h-65zM345 -10q-306 0 -271 290l61 500h72l-61 -502q-14 -105 30 -164t177 -59q69 0 119 16.5t79 48.5t44 69.5t21 88.5l61 502h72l-61 -500q-35 -290 -343 -290z" />
    <glyph glyph-name="uhungarumlaut" unicode="&#x171;" horiz-adv-x="574" 
d="M469 800h82l-137 -208h-65zM329 800h82l-137 -208h-65zM410 0l-2 85q-32 -44 -83 -69.5t-110 -25.5q-86 0 -135.5 46.5t-39.5 123.5l46 370h66l-44 -355q-7 -57 27.5 -89.5t97.5 -32.5q70 0 125 48t65 103l40 326h66l-50 -407l-9 -123h-60z" />
    <glyph glyph-name="Uogonek" unicode="&#x172;" horiz-adv-x="774" 
d="M345 -10q-85 0 -143 22t-87.5 62.5t-39 91t-1.5 114.5l61 500h72l-61 -502q-13 -106 30.5 -164.5t176.5 -58.5t191.5 59t71.5 164l61 502h72l-61 -500q-27 -227 -225 -277q-54 -14 -92 -49.5t-38 -70.5q0 -38 50 -38q16 0 34.5 5.5t29.5 10.5l11 5l11 -51
q-44 -25 -103 -25q-41 0 -70.5 20t-29.5 60q0 65 79 120z" />
    <glyph glyph-name="uogonek" unicode="&#x173;" horiz-adv-x="574" 
d="M479 123l-9 -123q-58 -9 -103 -42t-45 -75q0 -38 50 -38q16 0 34.5 5.5t29.5 10.5l11 5l11 -51q-44 -25 -103 -25q-41 0 -70.5 20t-29.5 60q0 49 41.5 90t112.5 69l-1 56q-32 -44 -83 -69.5t-110 -25.5q-86 0 -135.5 46.5t-39.5 123.5l46 370h66l-44 -355
q-7 -57 27.5 -89.5t97.5 -32.5q70 0 125 48t65 103l40 326h66z" />
    <glyph glyph-name="Wcircumflex" unicode="&#x174;" horiz-adv-x="960" 
d="M443 495l-220 -505h-61l-65 790h73l41 -500v-180l70 180l220 500h68l98 -500l26 -180l51 180l156 500h73l-259 -790h-61l-96 505l-33 195zM722 822h-65l-98 150l-136 -150h-69l176 208h68z" />
    <glyph glyph-name="wcircumflex" unicode="&#x175;" horiz-adv-x="810" 
d="M421 459l-64 -143l-154 -326h-77l-59 540h71l26 -312l11 -153l68 153l148 312h76l70 -312l31 -153l46 153l106 312h73l-193 -540h-77l-74 326zM621 592h-65l-98 150l-136 -150h-69l176 208h68z" />
    <glyph glyph-name="Ycircumflex" unicode="&#x176;" horiz-adv-x="710" 
d="M75 780h81l132 -244l75 -141l109 141l192 244h81l-354 -445l-41 -335h-70l41 335zM597 822h-65l-98 150l-136 -150h-69l176 208h68z" />
    <glyph glyph-name="ycircumflex" unicode="&#x177;" horiz-adv-x="540" 
d="M486 592h-65l-98 150l-136 -150h-69l176 208h68zM547 530l-270 -494l-125 -236h-76l119 220l-152 510h77l79 -291l41 -152l77 152l152 291h78z" />
    <glyph glyph-name="Ydieresis" unicode="&#x178;" horiz-adv-x="710" 
d="M75 780h81l132 -244l75 -141l109 141l192 244h81l-354 -445l-41 -335h-70l41 335zM383 969l-10 -86h-86l10 86h86zM569 969l-10 -86h-86l10 86h86z" />
    <glyph glyph-name="Zacute" unicode="&#x179;" horiz-adv-x="690" 
d="M13 0l7 58l483 552l96 104h-479l8 66h567l-7 -58l-484 -552l-96 -104h500l-8 -66h-587zM490 1030h82l-137 -208h-65z" />
    <glyph glyph-name="zacute" unicode="&#x17a;" horiz-adv-x="540" 
d="M5 0l6 54l315 324l94 90h-339l8 62h419l-7 -54l-315 -324l-94 -90h369l-7 -62h-449zM379 800h82l-137 -208h-65z" />
    <glyph glyph-name="Zdotaccent" unicode="&#x17b;" horiz-adv-x="690" 
d="M13 0l7 58l483 552l96 104h-479l8 66h567l-7 -58l-484 -552l-96 -104h500l-8 -66h-587zM461 969l-10 -86h-86l10 86h86z" />
    <glyph glyph-name="zdotaccent" unicode="&#x17c;" horiz-adv-x="540" 
d="M5 0l6 54l315 324l94 90h-339l8 62h419l-7 -54l-315 -324l-94 -90h369l-7 -62h-449zM350 739l-10 -86h-86l10 86h86z" />
    <glyph glyph-name="Zcaron" unicode="&#x17d;" horiz-adv-x="690" 
d="M13 0l7 58l483 552l96 104h-479l8 66h567l-7 -58l-484 -552l-96 -104h500l-8 -66h-587zM245 1030h65l98 -150l136 150h69l-176 -208h-68z" />
    <glyph glyph-name="zcaron" unicode="&#x17e;" horiz-adv-x="540" 
d="M5 0l6 54l315 324l94 90h-339l8 62h419l-7 -54l-315 -324l-94 -90h369l-7 -62h-449zM131 800h65l98 -150l136 150h69l-176 -208h-68z" />
    <glyph glyph-name="florin" unicode="&#x192;" horiz-adv-x="395" 
d="M138 369h-110l7 62h110l17 135q6 46 16.5 79.5t32.5 64.5t62 47.5t96 16.5q34 0 56 -8l-16 -64q-24 9 -48 9q-63 0 -92.5 -29t-40.5 -116l-17 -135h149l-7 -62h-149l-46 -371q-6 -46 -16 -79.5t-32 -64.5t-61.5 -47.5t-95.5 -16.5q-35 0 -56 8l16 64q21 -9 47 -9
q63 0 92 29t40 116z" />
    <glyph glyph-name="Khook" unicode="&#x198;" horiz-adv-x="695" 
d="M658 723q-42 0 -76.5 -31t-58.5 -73.5t-70.5 -106.5t-100.5 -111l281 -401h-90l-249 356q-69 -46 -140 -74l-34 -282h-70l95 780h70l-52 -422q87 37 151.5 96.5t99.5 115.5t68 107t77 82t107 31q35 0 57 -8l-17 -68q-18 9 -48 9z" />
    <glyph glyph-name="khook" unicode="&#x199;" horiz-adv-x="535" 
d="M170 602l-41 -334l109 97l187 165h95l-259 -225l231 -305h-91l-193 259l-90 -79l-22 -180h-66l74 602q6 47 16.5 80t32 64.5t60.5 47.5t95 16q35 0 56 -8l-16 -64q-18 9 -47 9q-63 0 -91.5 -28.5t-39.5 -116.5z" />
    <glyph glyph-name="Yogh" unicode="&#x1b7;" horiz-adv-x="700" 
d="M50 -1q12 -144 223 -144q130 0 209.5 75t79.5 207q0 91 -60.5 143.5t-182.5 52.5l-18 -1l-43 51l210 227l96 104h-449l8 66h547l-7 -58l-304 -327q275 -21 275 -245q0 -166 -104 -263t-265 -97q-130 0 -201 50t-84 136z" />
    <glyph glyph-name="doublebar" unicode="&#x1c1;" horiz-adv-x="410" 
d="M231 830l-117 -960h-70l117 960h70zM371 830l-117 -960h-70l117 960h70z" />
    <glyph glyph-name="Acaron" unicode="&#x1cd;" horiz-adv-x="720" 
d="M-19 0l397 790h76l205 -790h-77l-62 247h-340l-122 -247h-77zM407 712l-95 -198l-100 -201h291l-49 201zM265 1030h65l98 -150l136 150h69l-176 -208h-68z" />
    <glyph glyph-name="acaron" unicode="&#x1ce;" horiz-adv-x="604" 
d="M560 530l-22 -124l-34 -282l-9 -124h-60l-2 86q-32 -45 -82 -70.5t-108 -25.5q-98 0 -151 57t-53 162q0 146 73.5 238.5t198.5 92.5q58 0 101.5 -25.5t64.5 -70.5l23 86h60zM448 204l15 122q0 59 -40.5 105t-117.5 46q-89 0 -142.5 -73t-53.5 -186q0 -80 37.5 -122.5
t106.5 -42.5q76 0 130.5 47.5t64.5 103.5zM159 800h65l98 -150l136 150h69l-176 -208h-68z" />
    <glyph glyph-name="Icaron" unicode="&#x1cf;" horiz-adv-x="290" 
d="M235 780l-95 -780h-70l95 780h70zM50 1030h65l98 -150l136 150h69l-176 -208h-68z" />
    <glyph glyph-name="icaron" unicode="&#x1d0;" horiz-adv-x="250" 
d="M52 0l65 530h66l-65 -530h-66zM-1 800h65l98 -150l136 150h69l-176 -208h-68z" />
    <glyph glyph-name="Ocaron" unicode="&#x1d1;" horiz-adv-x="790" 
d="M353 -10q-145 0 -216 80.5t-71 227.5q0 103 23.5 191t70 156t121 106.5t170.5 38.5q146 0 216.5 -80t70.5 -228q0 -103 -23.5 -191t-70 -156t-121 -106.5t-170.5 -38.5zM444 725q-68 0 -121.5 -25t-87 -65.5t-55.5 -96.5t-31 -114t-9 -122q0 -247 221 -247q84 0 145.5 37
t94.5 100t48 134t15 153q0 246 -220 246zM300 1030h65l98 -150l136 150h69l-176 -208h-68z" />
    <glyph glyph-name="ocaron" unicode="&#x1d2;" horiz-adv-x="578" 
d="M247 -10q-99 0 -154 55t-55 161q0 152 75.5 243t201.5 91q100 0 154.5 -55t54.5 -161q0 -152 -75.5 -243t-201.5 -91zM307 478q-92 0 -145.5 -71.5t-53.5 -192.5q0 -162 147 -162q92 0 145.5 71.5t53.5 192.5q0 162 -147 162zM163 800h65l98 -150l136 150h69l-176 -208
h-68z" />
    <glyph glyph-name="Ucaron" unicode="&#x1d3;" horiz-adv-x="774" 
d="M345 -10q-306 0 -271 290l61 500h72l-61 -502q-14 -105 30 -164t177 -59q69 0 119 16.5t79 48.5t44 69.5t21 88.5l61 502h72l-61 -500q-35 -290 -343 -290zM292 1030h65l98 -150l136 150h69l-176 -208h-68z" />
    <glyph glyph-name="ucaron" unicode="&#x1d4;" horiz-adv-x="574" 
d="M410 0l-2 85q-32 -44 -83 -69.5t-110 -25.5q-86 0 -135.5 46.5t-39.5 123.5l46 370h66l-44 -355q-7 -57 27.5 -89.5t97.5 -32.5q70 0 125 48t65 103l40 326h66l-50 -407l-9 -123h-60zM156 800h65l98 -150l136 150h69l-176 -208h-68z" />
    <glyph glyph-name="AEmacron" unicode="&#x1e2;" horiz-adv-x="1060" 
d="M433 894l8 64h272l-8 -64h-272zM537 0l-25 367h-219l-238 -367h-82l513 780h544l-8 -66h-467l20 -281h373l-8 -66h-360l21 -301h362l-8 -66h-418zM491 674l-156 -241h172l-6 97z" />
    <glyph glyph-name="aemacron" unicode="&#x1e3;" horiz-adv-x="954" 
d="M381 664l8 64h272l-8 -64h-272zM309 540q148 0 184 -94q75 94 208 94q195 0 195 -207q0 -46 -8 -94h-395q-10 -90 31 -139t118 -49q130 0 161 102l65 -23q-24 -62 -82.5 -101t-152.5 -39q-155 0 -197 123q-83 -123 -241 -123q-83 0 -125.5 33t-42.5 94q0 89 64.5 135
t168.5 46h170l7 58q8 66 -28 94.5t-115 28.5q-119 0 -155 -102l-65 23q24 62 82.5 101t152.5 39zM693 480q-160 0 -193 -182h323q11 83 -21 132.5t-109 49.5zM252 240q-67 1 -110.5 -27t-43.5 -87q0 -74 105 -74q80 0 143 48.5t73 103.5l4 35z" />
    <glyph glyph-name="Gstroke" unicode="&#x1e4;" horiz-adv-x="814" 
d="M361 55q140 0 231 59l8 68h-223l8 66h224l11 89h-170l8 66h240l-19 -155h120l-8 -66h-120l-14 -112q-78 -46 -146.5 -63t-157.5 -17q-145 0 -216 80.5t-71 227.5q0 227 100 359.5t285 132.5q241 0 265 -186l-70 -24q-6 76 -53.5 110.5t-148.5 34.5q-67 0 -120 -23.5
t-87 -63.5t-56 -95t-31.5 -114.5t-9.5 -126.5q0 -247 221 -247z" />
    <glyph glyph-name="gstroke" unicode="&#x1e5;" horiz-adv-x="599" 
d="M85 -47q5 -104 134 -104q126 0 177 66h-181l8 62h197l15 128q-32 -44 -81.5 -69.5t-107.5 -25.5q-100 0 -153 53.5t-53 157.5q0 144 73.5 231.5t197.5 87.5q58 0 101.5 -25.5t64.5 -70.5l23 86h60l-22 -124l-52 -429h55l-8 -62h-66q-29 -61 -93.5 -93t-154.5 -32
q-189 0 -205 139zM305 477q-89 0 -142 -67t-53 -179q0 -78 37.5 -118t107.5 -40q76 0 131 47.5t64 103.5l13 102q0 59 -40.5 105t-117.5 46z" />
    <glyph glyph-name="Gcaron" unicode="&#x1e6;" horiz-adv-x="774" 
d="M361 55q140 0 231 59l28 223h-170l8 66h240l-41 -333q-78 -46 -146.5 -63t-157.5 -17q-145 0 -216 80.5t-71 227.5q0 227 100 359.5t285 132.5q241 0 265 -186l-70 -24q-6 76 -53.5 110.5t-148.5 34.5q-67 0 -120 -23.5t-87 -63.5t-56 -95t-31.5 -114.5t-9.5 -126.5
q0 -247 221 -247zM290 1030h65l98 -150l136 150h69l-176 -208h-68z" />
    <glyph glyph-name="gcaron" unicode="&#x1e7;" horiz-adv-x="599" 
d="M85 -47q5 -104 134 -104q82 0 137.5 31t63.5 97l15 128q-32 -44 -81.5 -69.5t-107.5 -25.5q-100 0 -153 53.5t-53 157.5q0 144 73.5 231.5t197.5 87.5q58 0 101.5 -25.5t64.5 -70.5l23 86h60l-22 -124l-51 -422q-11 -93 -82 -143.5t-186 -50.5q-189 0 -205 139zM305 477
q-89 0 -142 -67t-53 -179q0 -78 37.5 -118t107.5 -40q76 0 131 47.5t64 103.5l13 102q0 59 -40.5 105t-117.5 46zM159 800h65l98 -150l136 150h69l-176 -208h-68z" />
    <glyph glyph-name="Kcaron" unicode="&#x1e8;" horiz-adv-x="695" 
d="M250 1030h65l98 -150l136 150h69l-176 -208h-68zM215 780l-51 -419l96 94l341 325h102l-371 -350l301 -430h-90l-265 379l-126 -119l-32 -260h-70l95 780h70z" />
    <glyph glyph-name="kcaron" unicode="&#x1e9;" horiz-adv-x="535" 
d="M7 1030h65l98 -150l136 150h69l-176 -208h-68zM96 0h-66l98 800h66l-65 -532l109 97l187 165h95l-259 -225l231 -305h-91l-193 259l-90 -79z" />
    <glyph glyph-name="Oogonek" unicode="&#x1ea;" horiz-adv-x="790" 
d="M738 482q0 -119 -31.5 -218.5t-99.5 -171.5t-164 -93q-51 -12 -90.5 -46t-39.5 -70q0 -38 50 -38q16 0 34.5 5.5t29.5 10.5l11 5l11 -51q-44 -25 -103 -25q-41 0 -70.5 20t-29.5 60q0 65 79 121q-132 7 -195.5 87.5t-63.5 221.5q0 139 40.5 247.5t129.5 175.5t215 67
q146 0 216.5 -80t70.5 -228zM444 725q-68 0 -121.5 -25t-87 -65.5t-55.5 -96.5t-31 -114t-9 -122q0 -247 221 -247q84 0 145.5 37t94.5 100t48 134t15 153q0 246 -220 246z" />
    <glyph glyph-name="oogonek" unicode="&#x1eb;" horiz-adv-x="578" 
d="M307 478q-92 0 -145.5 -71.5t-53.5 -192.5q0 -162 147 -162q92 0 145.5 71.5t53.5 192.5q0 162 -147 162zM38 206q0 152 75.5 243t201.5 91q100 0 154.5 -55t54.5 -161q0 -121 -52.5 -209t-141.5 -113q-52 -15 -87.5 -50t-35.5 -69q0 -38 50 -38q16 0 34.5 5.5t29.5 10.5
l11 5l11 -51q-44 -25 -103 -25q-41 0 -70.5 20t-29.5 60q0 65 80 121q-87 8 -134.5 62t-47.5 153z" />
    <glyph glyph-name="Oogonekmacron" unicode="&#x1ec;" horiz-adv-x="790" 
d="M328 894l8 64h272l-8 -64h-272zM738 482q0 -119 -31.5 -218.5t-99.5 -171.5t-164 -93q-51 -12 -90.5 -46t-39.5 -70q0 -38 50 -38q16 0 34.5 5.5t29.5 10.5l11 5l11 -51q-44 -25 -103 -25q-41 0 -70.5 20t-29.5 60q0 65 79 121q-132 7 -195.5 87.5t-63.5 221.5
q0 139 40.5 247.5t129.5 175.5t215 67q146 0 216.5 -80t70.5 -228zM444 725q-68 0 -121.5 -25t-87 -65.5t-55.5 -96.5t-31 -114t-9 -122q0 -247 221 -247q84 0 145.5 37t94.5 100t48 134t15 153q0 246 -220 246z" />
    <glyph glyph-name="oogonekmacron" unicode="&#x1ed;" horiz-adv-x="578" 
d="M194 664l8 64h272l-8 -64h-272zM307 478q-92 0 -145.5 -71.5t-53.5 -192.5q0 -162 147 -162q92 0 145.5 71.5t53.5 192.5q0 162 -147 162zM38 206q0 152 75.5 243t201.5 91q100 0 154.5 -55t54.5 -161q0 -121 -52.5 -209t-141.5 -113q-52 -15 -87.5 -50t-35.5 -69
q0 -38 50 -38q16 0 34.5 5.5t29.5 10.5l11 5l11 -51q-44 -25 -103 -25q-41 0 -70.5 20t-29.5 60q0 65 80 121q-87 8 -134.5 62t-47.5 153z" />
    <glyph glyph-name="jcaron" unicode="&#x1f0;" horiz-adv-x="250" 
d="M-80 -147q63 0 91.5 28.5t39.5 116.5l66 532h66l-66 -532q-6 -47 -16.5 -80t-32 -64.5t-60.5 -47.5t-95 -16q-35 0 -56 8l16 64q18 -9 47 -9zM-1 800h65l98 -150l136 150h69l-176 -208h-68z" />
    <glyph glyph-name="Gacute" unicode="&#x1f4;" horiz-adv-x="774" 
d="M535 1030h82l-137 -208h-65zM361 55q140 0 231 59l28 223h-170l8 66h240l-41 -333q-78 -46 -146.5 -63t-157.5 -17q-145 0 -216 80.5t-71 227.5q0 227 100 359.5t285 132.5q241 0 265 -186l-70 -24q-6 76 -53.5 110.5t-148.5 34.5q-67 0 -120 -23.5t-87 -63.5t-56 -95
t-31.5 -114.5t-9.5 -126.5q0 -247 221 -247z" />
    <glyph glyph-name="gacute" unicode="&#x1f5;" horiz-adv-x="599" 
d="M407 800h82l-137 -208h-65zM85 -47q5 -104 134 -104q82 0 137.5 31t63.5 97l15 128q-32 -44 -81.5 -69.5t-107.5 -25.5q-100 0 -153 53.5t-53 157.5q0 144 73.5 231.5t197.5 87.5q58 0 101.5 -25.5t64.5 -70.5l23 86h60l-22 -124l-51 -422q-11 -93 -82 -143.5t-186 -50.5
q-189 0 -205 139zM305 477q-89 0 -142 -67t-53 -179q0 -78 37.5 -118t107.5 -40q76 0 131 47.5t64 103.5l13 102q0 59 -40.5 105t-117.5 46z" />
    <glyph glyph-name="Aringacute" unicode="&#x1fa;" horiz-adv-x="720" 
d="M-19 0l397 790h76l205 -790h-77l-62 247h-340l-122 -247h-77zM407 712l-95 -198l-100 -201h291l-49 201zM442 1134h77l-72 -94q48 0 74.5 -26t26.5 -70q0 -57 -35.5 -94.5t-93.5 -37.5q-48 0 -74.5 26.5t-26.5 69.5q0 49 27 84zM440 984q-29 0 -46 -19t-17 -48
q0 -22 13 -35.5t36 -13.5q28 0 46 19t18 48q0 22 -13 35.5t-37 13.5z" />
    <glyph glyph-name="aringacute" unicode="&#x1fb;" horiz-adv-x="604" 
d="M338 904h77l-71 -94q48 0 74.5 -26t26.5 -70q0 -57 -35.5 -94.5t-93.5 -37.5q-48 0 -74.5 26.5t-26.5 69.5q0 49 27 84zM337 754q-29 0 -46 -19t-17 -48q0 -22 13 -35.5t36 -13.5q28 0 46 19t18 48q0 22 -13 35.5t-37 13.5zM560 530l-22 -124l-34 -282l-9 -124h-60l-2 86
q-32 -45 -82 -70.5t-108 -25.5q-98 0 -151 57t-53 162q0 146 73.5 238.5t198.5 92.5q58 0 101.5 -25.5t64.5 -70.5l23 86h60zM448 204l15 122q0 59 -40.5 105t-117.5 46q-89 0 -142.5 -73t-53.5 -186q0 -80 37.5 -122.5t106.5 -42.5q76 0 130.5 47.5t64.5 103.5z" />
    <glyph glyph-name="AEacute" unicode="&#x1fc;" horiz-adv-x="1060" 
d="M650 1030h82l-137 -208h-65zM537 0l-25 367h-219l-238 -367h-82l513 780h544l-8 -66h-467l20 -281h373l-8 -66h-360l21 -301h362l-8 -66h-418zM491 674l-156 -241h172l-6 97z" />
    <glyph glyph-name="aeacute" unicode="&#x1fd;" horiz-adv-x="954" 
d="M598 800h82l-137 -208h-65zM309 540q148 0 184 -94q75 94 208 94q195 0 195 -207q0 -46 -8 -94h-395q-10 -90 31 -139t118 -49q130 0 161 102l65 -23q-24 -62 -82.5 -101t-152.5 -39q-155 0 -197 123q-83 -123 -241 -123q-83 0 -125.5 33t-42.5 94q0 89 64.5 135
t168.5 46h170l7 58q8 66 -28 94.5t-115 28.5q-119 0 -155 -102l-65 23q24 62 82.5 101t152.5 39zM693 480q-160 0 -193 -182h323q11 83 -21 132.5t-109 49.5zM252 240q-67 1 -110.5 -27t-43.5 -87q0 -74 105 -74q80 0 143 48.5t73 103.5l4 35z" />
    <glyph glyph-name="Oslashacute" unicode="&#x1fe;" horiz-adv-x="790" 
d="M545 1030h82l-137 -208h-65zM444 725q-68 0 -121.5 -25t-87 -65.5t-55.5 -96t-31 -113.5t-9 -122q0 -99 36 -161l417 537q-56 46 -149 46zM67 0l61 80q-62 77 -62 218q0 103 23.5 191t70 156t121 106.5t170.5 38.5q115 0 187 -53l33 43h68l-61 -80q62 -77 62 -218
q0 -103 -23.5 -191t-70 -156t-121 -106.5t-170.5 -38.5q-115 0 -187 53l-33 -43h-68zM362 55q68 0 121.5 25t87 65.5t55.5 96t31 113.5t9 122q0 99 -36 161l-417 -537q56 -46 149 -46z" />
    <glyph glyph-name="oslashacute" unicode="&#x1ff;" horiz-adv-x="578" 
d="M411 800h82l-137 -208h-65zM247 -10q-72 0 -123 30l-15 -20h-68l42 55q-45 56 -45 151q0 152 75.5 243t201.5 91q76 0 123 -31l17 21h68l-44 -56q45 -56 45 -150q0 -152 -75.5 -243t-201.5 -91zM307 478q-92 0 -145.5 -71.5t-53.5 -192.5q0 -62 21 -100l267 341
q-34 23 -89 23zM255 52q92 0 145.5 71t53.5 192q0 63 -22 100l-265 -341q34 -22 88 -22z" />
    <glyph glyph-name="Ainvertedbreve" unicode="&#x202;" horiz-adv-x="720" 
d="M-19 0l397 790h76l205 -790h-77l-62 247h-340l-122 -247h-77zM407 712l-95 -198l-100 -201h291l-49 201zM300 822h-58q13 100 59 149t144 49t132 -49t21 -149h-54q10 78 -14.5 110t-89.5 32t-97.5 -32t-42.5 -110z" />
    <glyph glyph-name="ainvertedbreve" unicode="&#x203;" horiz-adv-x="604" 
d="M560 530l-22 -124l-34 -282l-9 -124h-60l-2 86q-32 -45 -82 -70.5t-108 -25.5q-98 0 -151 57t-53 162q0 146 73.5 238.5t198.5 92.5q58 0 101.5 -25.5t64.5 -70.5l23 86h60zM448 204l15 122q0 59 -40.5 105t-117.5 46q-89 0 -142.5 -73t-53.5 -186q0 -80 37.5 -122.5
t106.5 -42.5q76 0 130.5 47.5t64.5 103.5zM197 592h-58q13 100 59 149t144 49t132 -49t21 -149h-54q10 78 -14.5 110t-89.5 32t-97.5 -32t-42.5 -110z" />
    <glyph glyph-name="Einvertedbreve" unicode="&#x206;" horiz-adv-x="695" 
d="M145 780h520l-8 -66h-450l-34 -281h410l-8 -66h-410l-37 -301h470l-8 -66h-540zM290 822h-58q13 100 59 149t144 49t132 -49t21 -149h-54q10 78 -14.5 110t-89.5 32t-97.5 -32t-42.5 -110z" />
    <glyph glyph-name="einvertedbreve" unicode="&#x207;" horiz-adv-x="570" 
d="M419 153l65 -23q-24 -62 -82.5 -101t-152.5 -39q-100 0 -155.5 55t-55.5 162q0 151 76.5 242t202.5 91q195 0 195 -207q0 -39 -8 -94h-395q-10 -90 31 -139t118 -49q130 0 161 102zM314 480q-166 0 -198 -182h323q10 81 -20 131.5t-105 50.5zM203 592h-58q13 100 59 149
t144 49t132 -49t21 -149h-54q10 78 -14.5 110t-89.5 32t-97.5 -32t-42.5 -110z" />
    <glyph glyph-name="Iinvertedbreve" unicode="&#x20a;" horiz-adv-x="290" 
d="M235 780l-95 -780h-70l95 780h70zM85 822h-58q13 100 59 149t144 49t132 -49t21 -149h-54q10 78 -14.5 110t-89.5 32t-97.5 -32t-42.5 -110z" />
    <glyph glyph-name="iinvertedbreve" unicode="&#x20b;" horiz-adv-x="250" 
d="M52 0l65 530h66l-65 -530h-66zM37 592h-58q13 100 59 149t144 49t132 -49t21 -149h-54q10 78 -14.5 110t-89.5 32t-97.5 -32t-42.5 -110z" />
    <glyph glyph-name="Oinvertedbreve" unicode="&#x20e;" horiz-adv-x="790" 
d="M353 -10q-145 0 -216 80.5t-71 227.5q0 103 23.5 191t70 156t121 106.5t170.5 38.5q146 0 216.5 -80t70.5 -228q0 -103 -23.5 -191t-70 -156t-121 -106.5t-170.5 -38.5zM444 725q-68 0 -121.5 -25t-87 -65.5t-55.5 -96.5t-31 -114t-9 -122q0 -247 221 -247q84 0 145.5 37
t94.5 100t48 134t15 153q0 246 -220 246zM335 822h-58q13 100 59 149t144 49t132 -49t21 -149h-54q10 78 -14.5 110t-89.5 32t-97.5 -32t-42.5 -110z" />
    <glyph glyph-name="oinvertedbreve" unicode="&#x20f;" horiz-adv-x="578" 
d="M247 -10q-99 0 -154 55t-55 161q0 152 75.5 243t201.5 91q100 0 154.5 -55t54.5 -161q0 -152 -75.5 -243t-201.5 -91zM307 478q-92 0 -145.5 -71.5t-53.5 -192.5q0 -162 147 -162q92 0 145.5 71.5t53.5 192.5q0 162 -147 162zM201 592h-58q13 100 59 149t144 49t132 -49
t21 -149h-54q10 78 -14.5 110t-89.5 32t-97.5 -32t-42.5 -110z" />
    <glyph glyph-name="Rinvertedbreve" unicode="&#x212;" horiz-adv-x="695" 
d="M162 347l-42 -347h-70l95 780h300q219 0 219 -176q0 -112 -59.5 -178.5t-152.5 -75.5l171 -350h-88l-161 347h-212zM170 413h239q37 0 66 7.5t56 26.5t42 57t15 93q0 32 -9.5 54.5t-22.5 34.5t-34 18.5t-37 8t-39 1.5h-239zM280 822h-58q13 100 59 149t144 49t132 -49
t21 -149h-54q10 78 -14.5 110t-89.5 32t-97.5 -32t-42.5 -110z" />
    <glyph glyph-name="rinvertedbreve" unicode="&#x213;" horiz-adv-x="395" 
d="M338 540q37 0 58 -8l-16 -68q-21 9 -50 9q-76 0 -131 -47.5t-64 -103.5l-39 -322h-66l49 407l10 123h60v-94q30 45 81.5 74.5t107.5 29.5zM122 592h-58q13 100 59 149t144 49t132 -49t21 -149h-54q10 78 -14.5 110t-89.5 32t-97.5 -32t-42.5 -110z" />
    <glyph glyph-name="Uinvertedbreve" unicode="&#x216;" horiz-adv-x="774" 
d="M345 -10q-306 0 -271 290l61 500h72l-61 -502q-14 -105 30 -164t177 -59q69 0 119 16.5t79 48.5t44 69.5t21 88.5l61 502h72l-61 -500q-35 -290 -343 -290zM327 822h-58q13 100 59 149t144 49t132 -49t21 -149h-54q10 78 -14.5 110t-89.5 32t-97.5 -32t-42.5 -110z" />
    <glyph glyph-name="uinvertedbreve" unicode="&#x217;" horiz-adv-x="574" 
d="M410 0l-2 85q-32 -44 -83 -69.5t-110 -25.5q-86 0 -135.5 46.5t-39.5 123.5l46 370h66l-44 -355q-7 -57 27.5 -89.5t97.5 -32.5q70 0 125 48t65 103l40 326h66l-50 -407l-9 -123h-60zM194 592h-58q13 100 59 149t144 49t132 -49t21 -149h-54q10 78 -14.5 110t-89.5 32
t-97.5 -32t-42.5 -110z" />
    <glyph glyph-name="Scommaaccent" unicode="&#x218;" horiz-adv-x="710" 
d="M274 -62h79l-67 -138h-67zM602 588q-6 73 -51.5 105t-145.5 32q-32 0 -64.5 -8t-67 -25.5t-56 -53t-21.5 -84.5q0 -48 38 -73.5t139 -37.5q67 -8 109 -18t79 -30t53.5 -52.5t16.5 -81.5q0 -130 -92.5 -200.5t-225.5 -70.5q-240 0 -264 183l71 25q6 -75 53 -109t148 -34
q61 0 113.5 18.5t89.5 64t37 111.5q0 59 -44 88t-154 42q-41 5 -72 11t-64 18.5t-54.5 30t-35 45.5t-13.5 64q0 116 83.5 179t204.5 63q236 0 260 -178z" />
    <glyph glyph-name="scommaaccent" unicode="&#x219;" horiz-adv-x="530" 
d="M182 -62h79l-67 -138h-67zM91 153q13 -102 131 -102q33 0 62 5.5t56 17.5t42.5 36t15.5 58q0 10 -1.5 18.5t-7 15t-9.5 11t-14 8.5t-16.5 6.5t-21 5t-22.5 4t-27 4.5t-28 4q-3 0 -23.5 3.5t-27.5 5t-26.5 5.5t-28.5 8t-24.5 10.5t-23 14.5t-16.5 18.5t-12.5 24.5t-3.5 30
q0 60 36.5 101t84.5 57.5t100 16.5q173 0 195 -139l-70 -24q-11 102 -127 102q-27 0 -50 -4t-47 -14.5t-38 -32.5t-14 -53q0 -23 18 -37t35.5 -18t62.5 -11l18 -3t29 -4t31.5 -5t29 -6t30 -8t25.5 -11t24 -15.5t17 -20t12.5 -26.5t3.5 -33q0 -63 -39 -107t-93.5 -62
t-117.5 -18q-93 0 -142 38t-59 100z" />
    <glyph glyph-name="Tcommaaccent" unicode="&#x21a;" horiz-adv-x="620" 
d="M392 714l-87 -714h-70l87 714h-250l8 66h570l-8 -66h-250zM222 -62h79l-67 -138h-67z" />
    <glyph glyph-name="tcommaaccent" unicode="&#x21b;" horiz-adv-x="395" 
d="M44 468l8 62h96l16 135l69 22l-19 -157h163l-8 -62h-163l-33 -270q-11 -87 11.5 -116t85.5 -29q26 0 50 9v-64q-22 -8 -58 -8q-56 0 -92 17t-49.5 46t-17.5 66.5t4 78.5l33 270h-96zM137 -62h79l-67 -138h-67z" />
    <glyph glyph-name="yogh" unicode="&#x292;" horiz-adv-x="535" 
d="M54 -46q5 -107 141 -107q86 0 139.5 55.5t53.5 146.5q0 68 -39.5 104t-107.5 36q-62 0 -103 -27l-34 43l211 188l87 75h-331l8 62h419l-7 -54l-254 -226h18q88 0 144.5 -50.5t56.5 -143.5q0 -118 -80 -192t-182 -74q-192 0 -207 142z" />
    <glyph glyph-name="bullseye" unicode="&#x298;" horiz-adv-x="960" 
d="M80 390q0 166 117 283t283 117t283 -117t117 -283t-117 -283t-283 -117t-283 117t-117 283zM330 390q0 62 44 106t106 44t106 -44t44 -106t-44 -106t-106 -44t-106 44t-44 106zM157 339q0 -113 79.5 -192.5t192.5 -79.5t193 79.5t80 192.5t-80 193t-193 80t-192.5 -80
t-79.5 -193z" />
    <glyph glyph-name="circumflex" unicode="&#x2c6;" 
d="M514 592h-65l-98 150l-136 -150h-69l176 208h68z" />
    <glyph glyph-name="caron" unicode="&#x2c7;" 
d="M176 800h65l98 -150l136 150h69l-176 -208h-68z" />
    <glyph glyph-name="breve" unicode="&#x2d8;" 
d="M478 800h58q-13 -100 -59 -149t-144 -49t-132 49t-21 149h54q-10 -78 14.5 -110t89.5 -32t97.5 32t42.5 110z" />
    <glyph glyph-name="dotaccent" unicode="&#x2d9;" 
d="M393 739l-10 -86h-86l10 86h86z" />
    <glyph glyph-name="ring" unicode="&#x2da;" 
d="M230 678q0 56 35.5 94t93.5 38q48 0 74.5 -26t26.5 -70q0 -57 -35.5 -94.5t-93.5 -37.5q-48 0 -74.5 26.5t-26.5 69.5zM352 754q-29 0 -46 -19t-17 -48q0 -22 13 -35.5t36 -13.5q28 0 46 19t18 48q0 22 -13 35.5t-37 13.5z" />
    <glyph glyph-name="ogonek" unicode="&#x2db;" 
d="M457 46l9 -46q-58 -9 -103 -42t-45 -75q0 -38 50 -38q16 0 34.5 5.5t29.5 10.5l11 5l11 -51q-44 -25 -103 -25q-41 0 -70.5 20t-29.5 60q0 57 56.5 104t149.5 72z" />
    <glyph glyph-name="tilde" unicode="&#x2dc;" 
d="M417 630q-29 0 -51.5 11.5t-34.5 26t-29.5 26t-36.5 11.5q-24 0 -41 -13t-22 -26l-5 -13l-54 8q34 103 130 103q29 0 51.5 -11.5t34.5 -26t29.5 -26t36.5 -11.5q24 0 41 13t22 26l5 13l55 -8q-36 -103 -131 -103z" />
    <glyph glyph-name="hungarumlaut" unicode="&#x2dd;" 
d="M347 800h82l-137 -208h-65zM487 800h82l-137 -208h-65z" />
    <glyph glyph-name="invertedbreve" unicode="&#x306;" 
d="M212 592h-58q13 100 59 149t144 49t132 -49t21 -149h-54q10 78 -14.5 110t-89.5 32t-97.5 -32t-42.5 -110z" />
    <glyph glyph-name="doublegrave" unicode="&#x30f;" 
d="M287 800h82l68 -208h-65zM147 800h82l68 -208h-65z" />
    <glyph glyph-name="commaabovecmb" unicode="&#x313;" 
d="M368 592h-79l101 208h61z" />
    <glyph glyph-name="uni0323" unicode="&#x323;" 
d="M294 -67l-10 -86h-86l10 86h86z" />
    <glyph glyph-name="uni0329" unicode="&#x329;" 
d="M265 -200h-60l20 160h60z" />
    <glyph glyph-name="uni03A9" unicode="&#x3a9;" horiz-adv-x="700" 
d="M397 711q-125 0 -204.5 -84.5t-79.5 -218.5q0 -102 47 -210.5t104 -158.5l-4 -39h-282l7 64h93l88 -2q-52 58 -88 154t-36 189q0 163 100.5 266t262.5 103q136 0 210 -71t74 -196q0 -113 -66.5 -240.5t-154.5 -204.5l88 2h93l-7 -64h-282l4 39q89 64 171 202.5t82 255.5
q0 101 -58.5 157.5t-161.5 56.5z" />
    <glyph glyph-name="pi" unicode="&#x3c0;" horiz-adv-x="680" 
d="M46 468l8 62h599l-8 -62h-143l-39 -320q-6 -47 7.5 -71t65.5 -24q26 0 50 9v-64q-22 -8 -58 -8q-81 0 -110 45.5t-22 107.5l40 325h-194l-47 -383l-22 -85h-60l21 123l42 345h-130z" />
    <glyph glyph-name="Ddotbelow" unicode="&#x1e0c;" horiz-adv-x="765" 
d="M342 -67l-10 -86h-86l10 86h86zM308 0h-258l95 780h258q310 0 310 -300q0 -242 -107 -361t-298 -119zM128 66h188q162 0 242 107t80 296q0 245 -243 245h-188z" />
    <glyph glyph-name="ddotbelow" unicode="&#x1e0d;" horiz-adv-x="599" 
d="M289 -67l-10 -86h-86l10 86h86zM477 445l44 355h66l-83 -676l-9 -124h-60l-2 86q-32 -45 -82 -70.5t-108 -25.5q-98 0 -151 57t-53 162q0 146 73.5 238.5t198.5 92.5q58 0 101.5 -25.5t64.5 -69.5zM305 477q-88 0 -142 -73.5t-54 -185.5q0 -80 37.5 -122.5t106.5 -42.5
q76 0 130.5 47.5t64.5 103.5l15 122q0 59 -40.5 105t-117.5 46z" />
    <glyph glyph-name="Hdotbelow" unicode="&#x1e24;" horiz-adv-x="750" 
d="M645 780h70l-95 -780h-70l45 367h-430l-45 -367h-70l95 780h70l-42 -347h430zM369 -67l-10 -86h-86l10 86h86z" />
    <glyph glyph-name="hdotbelow" unicode="&#x1e25;" horiz-adv-x="574" 
d="M289 -67l-10 -86h-86l10 86h86zM30 0l98 800h66l-44 -355q32 44 83 69.5t110 25.5q86 0 135.5 -46t39.5 -124l-45 -370h-66l43 355q7 57 -27 89.5t-98 32.5q-70 0 -125 -48t-64 -103l-40 -326h-66z" />
    <glyph glyph-name="Ldotbelow" unicode="&#x1e36;" horiz-adv-x="585" 
d="M215 780l-87 -714h410l-8 -66h-480l95 780h70zM327 -67l-10 -86h-86l10 86h86z" />
    <glyph glyph-name="ldotbelow" unicode="&#x1e37;" horiz-adv-x="250" 
d="M52 0l98 800h66l-98 -800h-66zM119 -67l-10 -86h-86l10 86h86z" />
    <glyph glyph-name="Ldotbelowmacron" unicode="&#x1e38;" horiz-adv-x="585" 
d="M215 780l-87 -714h410l-8 -66h-480l95 780h70zM327 -67l-10 -86h-86l10 86h86zM58 894l8 64h272l-8 -64h-272z" />
    <glyph glyph-name="ldotbelowmacron" unicode="&#x1e39;" horiz-adv-x="250" 
d="M52 0l98 800h66l-98 -800h-66zM119 -67l-10 -86h-86l10 86h86zM58 894l8 64h272l-8 -64h-272z" />
    <glyph glyph-name="Mdotbelow" unicode="&#x1e42;" horiz-adv-x="912" 
d="M383 0l-153 483l-40 141l-37 -334l-35 -290h-68l95 780h61l167 -515l52 -189l98 189l293 515h61l-95 -780h-68l35 290l46 340l-75 -147l-271 -483h-66zM450 -67l-10 -86h-86l10 86h86z" />
    <glyph glyph-name="mdotbelow" unicode="&#x1e43;" horiz-adv-x="863" 
d="M430 -67l-10 -86h-86l10 86h86zM149 530l1 -85q66 95 170 95q133 0 153 -110q35 55 82.5 82.5t97.5 27.5q84 0 124 -45.5t30 -124.5l-45 -370h-66l43 355q15 122 -104 122q-60 0 -108 -48t-58 -103l-40 -326h-66l43 355q7 60 -17 91t-87 31q-61 0 -109 -48t-57 -103
l-40 -326h-66l49 407l10 123h60z" />
    <glyph glyph-name="Ndotaccent" unicode="&#x1e44;" horiz-adv-x="750" 
d="M557 0l-285 515l-75 142l-29 -267l-47 -390h-71l95 780h63l285 -515l75 -142l28 267l48 390h71l-95 -780h-63zM496 969l-10 -86h-86l10 86h86z" />
    <glyph glyph-name="ndotaccent" unicode="&#x1e45;" horiz-adv-x="574" 
d="M385 739l-10 -86h-86l10 86h86zM149 530l1 -85q32 44 83 69.5t110 25.5q86 0 135.5 -46t39.5 -124l-45 -370h-66l43 355q7 57 -27 89.5t-98 32.5q-70 0 -125 -48t-64 -103l-40 -326h-66l49 407l10 123h60z" />
    <glyph glyph-name="Ndotbelow" unicode="&#x1e46;" horiz-adv-x="750" 
d="M557 0l-285 515l-75 142l-29 -267l-47 -390h-71l95 780h63l285 -515l75 -142l28 267l48 390h71l-95 -780h-63zM369 -67l-10 -86h-86l10 86h86z" />
    <glyph glyph-name="ndotbelow" unicode="&#x1e47;" horiz-adv-x="574" 
d="M289 -67l-10 -86h-86l10 86h86zM149 530l1 -85q32 44 83 69.5t110 25.5q86 0 135.5 -46t39.5 -124l-45 -370h-66l43 355q7 57 -27 89.5t-98 32.5q-70 0 -125 -48t-64 -103l-40 -326h-66l49 407l10 123h60z" />
    <glyph glyph-name="Rdotbelow" unicode="&#x1e5a;" horiz-adv-x="695" 
d="M337 -67l-10 -86h-86l10 86h86zM162 347l-42 -347h-70l95 780h300q219 0 219 -176q0 -112 -59.5 -178.5t-152.5 -75.5l171 -350h-88l-161 347h-212zM170 413h239q37 0 66 7.5t56 26.5t42 57t15 93q0 32 -9.5 54.5t-22.5 34.5t-34 18.5t-37 8t-39 1.5h-239z" />
    <glyph glyph-name="rdotbelow" unicode="&#x1e5b;" horiz-adv-x="395" 
d="M97 -67l-10 -86h-86l10 86h86zM338 540q37 0 58 -8l-16 -68q-21 9 -50 9q-76 0 -131 -47.5t-64 -103.5l-39 -322h-66l49 407l10 123h60v-94q30 45 81.5 74.5t107.5 29.5z" />
    <glyph glyph-name="Rdotbelowmacron" unicode="&#x1e5c;" horiz-adv-x="695" 
d="M337 -67l-10 -86h-86l10 86h86zM258 894l8 64h272l-8 -64h-272zM162 347l-42 -347h-70l95 780h300q219 0 219 -176q0 -112 -59.5 -178.5t-152.5 -75.5l171 -350h-88l-161 347h-212zM170 413h239q37 0 66 7.5t56 26.5t42 57t15 93q0 32 -9.5 54.5t-22.5 34.5t-34 18.5
t-37 8t-39 1.5h-239z" />
    <glyph glyph-name="rdotbelowmacron" unicode="&#x1e5d;" horiz-adv-x="395" 
d="M97 -67l-10 -86h-86l10 86h86zM115 664l8 64h272l-8 -64h-272zM338 540q37 0 58 -8l-16 -68q-21 9 -50 9q-76 0 -131 -47.5t-64 -103.5l-39 -322h-66l49 407l10 123h60v-94q30 45 81.5 74.5t107.5 29.5z" />
    <glyph glyph-name="Sdotbelow" unicode="&#x1e62;" horiz-adv-x="710" 
d="M344 -67l-10 -86h-86l10 86h86zM602 588q-6 73 -51.5 105t-145.5 32q-32 0 -64.5 -8t-67 -25.5t-56 -53t-21.5 -84.5q0 -48 38 -73.5t139 -37.5q67 -8 109 -18t79 -30t53.5 -52.5t16.5 -81.5q0 -130 -92.5 -200.5t-225.5 -70.5q-240 0 -264 183l71 25q6 -75 53 -109
t148 -34q61 0 113.5 18.5t89.5 64t37 111.5q0 59 -44 88t-154 42q-41 5 -72 11t-64 18.5t-54.5 30t-35 45.5t-13.5 64q0 116 83.5 179t204.5 63q236 0 260 -178z" />
    <glyph glyph-name="sdotbelow" unicode="&#x1e63;" horiz-adv-x="530" 
d="M252 -67l-10 -86h-86l10 86h86zM91 153q13 -102 131 -102q33 0 62 5.5t56 17.5t42.5 36t15.5 58q0 10 -1.5 18.5t-7 15t-9.5 11t-14 8.5t-16.5 6.5t-21 5t-22.5 4t-27 4.5t-28 4q-3 0 -23.5 3.5t-27.5 5t-26.5 5.5t-28.5 8t-24.5 10.5t-23 14.5t-16.5 18.5t-12.5 24.5
t-3.5 30q0 60 36.5 101t84.5 57.5t100 16.5q173 0 195 -139l-70 -24q-11 102 -127 102q-27 0 -50 -4t-47 -14.5t-38 -32.5t-14 -53q0 -23 18 -37t35.5 -18t62.5 -11l18 -3t29 -4t31.5 -5t29 -6t30 -8t25.5 -11t24 -15.5t17 -20t12.5 -26.5t3.5 -33q0 -63 -39 -107t-93.5 -62
t-117.5 -18q-93 0 -142 38t-59 100z" />
    <glyph glyph-name="Tdotbelow" unicode="&#x1e6c;" horiz-adv-x="620" 
d="M392 714l-87 -714h-70l87 714h-250l8 66h570l-8 -66h-250zM304 -67l-10 -86h-86l10 86h86z" />
    <glyph glyph-name="tdotbelow" unicode="&#x1e6d;" horiz-adv-x="395" 
d="M216 -67l-10 -86h-86l10 86h86zM44 468l8 62h96l16 135l69 22l-19 -157h163l-8 -62h-163l-33 -270q-11 -87 11.5 -116t85.5 -29q26 0 50 9v-64q-22 -8 -58 -8q-56 0 -92 17t-49.5 46t-17.5 66.5t4 78.5l33 270h-96z" />
    <glyph glyph-name="Wgrave" unicode="&#x1e80;" horiz-adv-x="960" 
d="M443 495l-220 -505h-61l-65 790h73l41 -500v-180l70 180l220 500h68l98 -500l26 -180l51 180l156 500h73l-259 -790h-61l-96 505l-33 195zM420 1030h82l68 -208h-65z" />
    <glyph glyph-name="wgrave" unicode="&#x1e81;" horiz-adv-x="810" 
d="M319 800h82l68 -208h-65zM421 459l-64 -143l-154 -326h-77l-59 540h71l26 -312l11 -153l68 153l148 312h76l70 -312l31 -153l46 153l106 312h73l-193 -540h-77l-74 326z" />
    <glyph glyph-name="Wacute" unicode="&#x1e82;" horiz-adv-x="960" 
d="M443 495l-220 -505h-61l-65 790h73l41 -500v-180l70 180l220 500h68l98 -500l26 -180l51 180l156 500h73l-259 -790h-61l-96 505l-33 195zM630 1030h82l-137 -208h-65z" />
    <glyph glyph-name="wacute" unicode="&#x1e83;" horiz-adv-x="810" 
d="M525 800h82l-137 -208h-65zM421 459l-64 -143l-154 -326h-77l-59 540h71l26 -312l11 -153l68 153l148 312h76l70 -312l31 -153l46 153l106 312h73l-193 -540h-77l-74 326z" />
    <glyph glyph-name="Wdieresis" unicode="&#x1e84;" horiz-adv-x="960" 
d="M443 495l-220 -505h-61l-65 790h73l41 -500v-180l70 180l220 500h68l98 -500l26 -180l51 180l156 500h73l-259 -790h-61l-96 505l-33 195zM508 969l-10 -86h-86l10 86h86zM694 969l-10 -86h-86l10 86h86z" />
    <glyph glyph-name="wdieresis" unicode="&#x1e85;" horiz-adv-x="810" 
d="M405 739l-10 -86h-86l10 86h86zM591 739l-10 -86h-86l10 86h86zM421 459l-64 -143l-154 -326h-77l-59 540h71l26 -312l11 -153l68 153l148 312h76l70 -312l31 -153l46 153l106 312h73l-193 -540h-77l-74 326z" />
    <glyph glyph-name="Ygrave" unicode="&#x1ef2;" horiz-adv-x="710" 
d="M75 780h81l132 -244l75 -141l109 141l192 244h81l-354 -445l-41 -335h-70l41 335zM305 1030h82l68 -208h-65z" />
    <glyph glyph-name="ygrave" unicode="&#x1ef3;" horiz-adv-x="540" 
d="M192 800h82l68 -208h-65zM547 530l-270 -494l-125 -236h-76l119 220l-152 510h77l79 -291l41 -152l77 152l152 291h78z" />
    <glyph glyph-name="enspace" unicode="&#x2002;" horiz-adv-x="500" 
 />
    <glyph glyph-name="emspace" unicode="&#x2003;" horiz-adv-x="1000" 
 />
    <glyph glyph-name="threeperemspace" unicode="&#x2004;" horiz-adv-x="333" 
 />
    <glyph glyph-name="fourperemspace" unicode="&#x2005;" horiz-adv-x="250" 
 />
    <glyph glyph-name="sixperemspace" unicode="&#x2006;" horiz-adv-x="167" 
 />
    <glyph glyph-name="figurespace" unicode="&#x2007;" horiz-adv-x="700" 
 />
    <glyph glyph-name="punctuationspace" unicode="&#x2008;" horiz-adv-x="280" 
 />
    <glyph glyph-name="thinspace" unicode="&#x2009;" horiz-adv-x="200" 
 />
    <glyph glyph-name="hairspace" unicode="&#x200a;" horiz-adv-x="100" 
 />
    <glyph glyph-name="zerowidthspace" unicode="&#x200b;" horiz-adv-x="0" 
 />
    <glyph glyph-name="figuredash" unicode="&#x2012;" horiz-adv-x="700" 
d="M655 367l-8 -64h-600l8 64h600z" />
    <glyph glyph-name="endash" unicode="&#x2013;" horiz-adv-x="500" 
d="M447 303h-400l8 64h400z" />
    <glyph glyph-name="emdash" unicode="&#x2014;" horiz-adv-x="1000" 
d="M955 367l-8 -64h-900l8 64h900z" />
    <glyph glyph-name="quoteleft" unicode="&#x2018;" horiz-adv-x="155" 
d="M102 530h-88l120 250h33z" />
    <glyph glyph-name="quoteright" unicode="&#x2019;" horiz-adv-x="155" 
d="M133 780h88l-120 -250h-33z" />
    <glyph glyph-name="quotesinglbase" unicode="&#x201a;" horiz-adv-x="155" 
d="M18 86h88l-121 -250h-32z" />
    <glyph glyph-name="quotedblleft" unicode="&#x201c;" horiz-adv-x="310" 
d="M257 530h-88l120 250h33zM102 530h-88l120 250h35z" />
    <glyph glyph-name="quotedblright" unicode="&#x201d;" horiz-adv-x="310" 
d="M133 780h88l-120 -250h-33zM288 780h88l-120 -250h-35z" />
    <glyph glyph-name="quotedblbase" unicode="&#x201e;" horiz-adv-x="310" 
d="M18 86h88l-121 -250h-32zM173 86h88l-121 -250h-34z" />
    <glyph glyph-name="dagger" unicode="&#x2020;" horiz-adv-x="300" 
d="M208 608l-16 -218h-70l38 218l-125 -13l9 73l124 -12v124h74l-28 -124l126 12l-9 -73z" />
    <glyph glyph-name="daggerdbl" unicode="&#x2021;" horiz-adv-x="300" 
d="M320 507l-9 -73l-123 13l-15 -218h-70l37 218l-125 -13l9 73l123 -12v56l13 57l-125 -13l9 73l124 -12v124h74l-28 -124l126 12l-9 -73l-124 13v-57l-13 -56z" />
    <glyph glyph-name="bullet" unicode="&#x2022;" horiz-adv-x="370" 
d="M330 464l-31 -258h-258l31 258h258z" />
    <glyph glyph-name="ellipsis" unicode="&#x2026;" horiz-adv-x="1020" 
d="M193 86l-10 -86h-86l10 86h86zM523 86l-10 -86h-86l10 86h86zM853 86l-10 -86h-86l10 86h86z" />
    <glyph glyph-name="perthousand" unicode="&#x2030;" horiz-adv-x="1507" 
d="M260 419q65 0 105 48t40 133q0 115 -109 115q-66 0 -106 -48t-40 -133q0 -115 110 -115zM304 774q75 0 120 -43t45 -125q0 -111 -61.5 -178.5t-154.5 -67.5q-76 0 -121 43t-45 125q0 111 61 178.5t156 67.5zM870 764l-599 -764h-72l599 764h72zM772 49q65 0 105 48
t40 133q0 115 -109 115q-66 0 -106 -48t-40 -133q0 -115 110 -115zM816 404q75 0 120 -43t45 -125q0 -111 -61.5 -178.5t-154.5 -67.5q-76 0 -121 43t-45 125q0 111 61 178.5t156 67.5zM1225 49q65 0 105 48t40 133q0 115 -109 115q-66 0 -106 -48t-40 -133q0 -115 110 -115
zM1269 404q75 0 120 -43t45 -125q0 -111 -61.5 -178.5t-154.5 -67.5q-76 0 -121 43t-45 125q0 111 61 178.5t156 67.5z" />
    <glyph glyph-name="guilsinglleft" unicode="&#x2039;" horiz-adv-x="300" 
d="M227 143l-7 -58l-191 140l10 80l225 140l-7 -60l-161 -124z" />
    <glyph glyph-name="guilsinglright" unicode="&#x203a;" horiz-adv-x="300" 
d="M57 387l7 58l191 -140l-10 -80l-225 -140l7 60l161 124z" />
    <glyph glyph-name="interrobang" unicode="&#x203d;" horiz-adv-x="570" 
d="M240 190l38 532q-110 -20 -145 -134l-63 21q67 181 270 181q96 0 154 -46.5t58 -129.5q0 -23 -4.5 -44t-11 -37.5t-18 -32.5t-21.5 -27.5t-26 -24t-26.5 -19.5t-28.5 -16.5t-26 -13t-25 -11.5t-20 -9q-35 -17 -40 -19l-29 -170h-36zM318 430q34 13 58.5 26t50.5 34.5
t40 51.5t14 68q0 101 -112 115l-52 -295h1zM288 86l-10 -86h-86l10 86h86z" />
    <glyph glyph-name="fraction" unicode="&#x2044;" horiz-adv-x="180" 
d="M434 764l-599 -764h-76l599 764h76z" />
    <glyph glyph-name="uni2070" unicode="&#x2070;" horiz-adv-x="497" 
d="M260 419q65 0 105 48t40 133q0 115 -109 115q-66 0 -106 -48t-40 -133q0 -115 110 -115zM304 774q75 0 120 -43t45 -125q0 -111 -61.5 -178.5t-154.5 -67.5q-76 0 -121 43t-45 125q0 111 61 178.5t156 67.5z" />
    <glyph glyph-name="uni2074" unicode="&#x2074;" horiz-adv-x="376" 
d="M357 457h-70l-11 -87h-61l11 87h-175l5 43l217 274h53l-32 -258h70zM233 516l13 103l8 47l-120 -150h99z" />
    <glyph glyph-name="uni2075" unicode="&#x2075;" horiz-adv-x="397" 
d="M146 547l-50 17l44 200h237l-7 -60h-183l-20 -83q31 19 78 19q125 0 125 -113q0 -77 -47.5 -122t-120.5 -45q-66 0 -97 26.5t-35 78.5l62 21q1 -38 19 -52.5t59 -14.5t69.5 24.5t28.5 75.5q0 64 -71 64q-61 0 -91 -36z" />
    <glyph glyph-name="uni2076" unicode="&#x2076;" horiz-adv-x="408" 
d="M335 665q-5 51 -63 51q-103 0 -118 -122q41 43 106 43q58 0 89.5 -29.5t31.5 -84.5q0 -74 -45.5 -118.5t-116.5 -44.5q-134 0 -134 152q0 120 50 191t148 71q52 0 80.5 -24.5t33.5 -63.5zM249 577q-40 0 -67.5 -21.5t-32.5 -63.5q0 -74 75 -74q41 0 67 24.5t26 70.5
q0 64 -68 64z" />
    <glyph glyph-name="uni2077" unicode="&#x2077;" horiz-adv-x="358" 
d="M165 370h-70l193 334h-202l7 60h278l-5 -41z" />
    <glyph glyph-name="uni2078" unicode="&#x2078;" horiz-adv-x="402" 
d="M234 600q87 0 87 68q0 47 -73 47q-87 0 -87 -66q0 -49 73 -49zM212 419q97 0 97 71q0 54 -82 54q-97 0 -97 -73q0 -52 82 -52zM205 360q-138 0 -138 97q0 44 22 76t53 41q-42 21 -42 73q0 64 45 95.5t111 31.5q57 0 92.5 -22.5t35.5 -71.5q0 -39 -18.5 -67t-45.5 -39
q51 -21 51 -81q0 -63 -42.5 -98t-123.5 -35z" />
    <glyph glyph-name="uni2079" unicode="&#x2079;" horiz-adv-x="408" 
d="M132 469q4 -51 63 -51q103 0 118 122q-41 -43 -106 -43q-58 0 -89.5 29.5t-31.5 84.5q0 74 45.5 118.5t116.5 44.5q134 0 134 -152q0 -120 -50 -191t-148 -71q-52 0 -80.5 24.5t-33.5 63.5zM218 557q40 0 67.5 21.5t32.5 63.5q0 74 -75 74q-41 0 -67 -24.5t-26 -70.5
q0 -64 68 -64z" />
    <glyph glyph-name="uni207A" unicode="&#x207a;" horiz-adv-x="380" 
d="M170 430l15 118h-118l8 64h118l14 118h64l-14 -118h118l-8 -64h-118l-15 -118h-64z" />
    <glyph glyph-name="uni207B" unicode="&#x207b;" horiz-adv-x="380" 
d="M367 548h-300l8 64h300z" />
    <glyph glyph-name="uni207C" unicode="&#x207c;" horiz-adv-x="380" 
d="M359 488h-300l8 64h300zM374 608h-300l8 64h300z" />
    <glyph glyph-name="uni207D" unicode="&#x207d;" horiz-adv-x="210" 
d="M150 567q-5 -43 -5 -81q0 -95 23 -172h-63q-31 89 -31 179q0 173 93 327h63q-62 -113 -80 -253z" />
    <glyph glyph-name="uni207E" unicode="&#x207e;" horiz-adv-x="210" 
d="M118 567q5 45 5 82q0 99 -23 171h63q31 -89 31 -179q0 -171 -93 -327h-63q62 113 80 253z" />
    <glyph glyph-name="uni2080" unicode="&#x2080;" horiz-adv-x="497" 
d="M214 49q65 0 105 48t40 133q0 115 -109 115q-66 0 -106 -48t-40 -133q0 -115 110 -115zM258 404q75 0 120 -43t45 -125q0 -111 -61.5 -178.5t-154.5 -67.5q-76 0 -121 43t-45 125q0 111 61 178.5t156 67.5z" />
    <glyph glyph-name="uni2081" unicode="&#x2081;" horiz-adv-x="287" 
d="M136 0h-61l38 312q-34 -28 -91 -44l8 63q61 22 106 73h50z" />
    <glyph glyph-name="uni2082" unicode="&#x2082;" horiz-adv-x="406" 
d="M215 404q56 0 91.5 -26.5t35.5 -76.5q0 -31 -10.5 -55t-32.5 -41.5t-42.5 -28t-51.5 -22.5q-54 -21 -84.5 -43.5t-38.5 -53.5l104 2h136l-7 -59h-306q11 90 50 129.5t121 74.5q43 18 59 26t29 23.5t13 38.5q0 28 -22.5 40t-51.5 12q-44 0 -67.5 -15t-33.5 -50l-58 20
q34 105 167 105z" />
    <glyph glyph-name="uni2083" unicode="&#x2083;" horiz-adv-x="412" 
d="M336 125q0 -60 -47.5 -97.5t-130.5 -37.5q-131 0 -141 103l63 22q0 -37 22 -51.5t68 -14.5q104 0 104 74q0 32 -22 41t-62 9h-56l7 59h56q39 0 61.5 12.5t22.5 51.5q0 49 -72 49q-44 0 -68 -15t-33 -51l-57 19q32 106 162 106q58 0 94 -24.5t36 -74.5q0 -74 -63 -100
q23 -7 39.5 -27.5t16.5 -52.5z" />
    <glyph glyph-name="uni2084" unicode="&#x2084;" horiz-adv-x="376" 
d="M311 87h-70l-11 -87h-61l11 87h-175l5 43l217 274h53l-32 -258h70zM187 146l13 103l8 47l-120 -150h99z" />
    <glyph glyph-name="uni2085" unicode="&#x2085;" horiz-adv-x="397" 
d="M100 177l-50 17l44 200h237l-7 -60h-183l-20 -83q31 19 78 19q125 0 125 -113q0 -77 -47.5 -122t-120.5 -45q-66 0 -97 26.5t-35 78.5l62 21q1 -38 19 -52.5t59 -14.5t69.5 24.5t28.5 75.5q0 64 -71 64q-61 0 -91 -36z" />
    <glyph glyph-name="uni2086" unicode="&#x2086;" horiz-adv-x="408" 
d="M289 295q-5 51 -63 51q-103 0 -118 -122q41 43 106 43q58 0 89.5 -29.5t31.5 -84.5q0 -74 -45.5 -118.5t-116.5 -44.5q-134 0 -134 152q0 120 50 191t148 71q52 0 80.5 -24.5t33.5 -63.5zM203 207q-40 0 -67.5 -21.5t-32.5 -63.5q0 -74 75 -74q41 0 67 24.5t26 70.5
q0 64 -68 64z" />
    <glyph glyph-name="uni2087" unicode="&#x2087;" horiz-adv-x="358" 
d="M119 0h-70l193 334h-202l7 60h278l-5 -41z" />
    <glyph glyph-name="uni2088" unicode="&#x2088;" horiz-adv-x="402" 
d="M188 230q87 0 87 68q0 47 -73 47q-87 0 -87 -66q0 -49 73 -49zM166 49q97 0 97 71q0 54 -82 54q-97 0 -97 -73q0 -52 82 -52zM159 -10q-138 0 -138 97q0 44 22 76t53 41q-42 21 -42 73q0 64 45 95.5t111 31.5q57 0 92.5 -22.5t35.5 -71.5q0 -39 -18.5 -67t-45.5 -39
q51 -21 51 -81q0 -63 -42.5 -98t-123.5 -35z" />
    <glyph glyph-name="uni2089" unicode="&#x2089;" horiz-adv-x="408" 
d="M86 99q4 -51 63 -51q103 0 118 122q-41 -43 -106 -43q-58 0 -89.5 29.5t-31.5 84.5q0 74 45.5 118.5t116.5 44.5q134 0 134 -152q0 -120 -50 -191t-148 -71q-52 0 -80.5 24.5t-33.5 63.5zM172 187q40 0 67.5 21.5t32.5 63.5q0 74 -75 74q-41 0 -67 -24.5t-26 -70.5
q0 -64 68 -64z" />
    <glyph glyph-name="uni208A" unicode="&#x208a;" horiz-adv-x="380" 
d="M125 60l15 118h-118l8 64h118l14 118h64l-14 -118h118l-8 -64h-118l-15 -118h-64z" />
    <glyph glyph-name="uni208B" unicode="&#x208b;" horiz-adv-x="380" 
d="M322 178h-300l8 64h300z" />
    <glyph glyph-name="uni208C" unicode="&#x208c;" horiz-adv-x="380" 
d="M314 118h-300l8 64h300zM329 238h-300l8 64h300z" />
    <glyph glyph-name="uni208D" unicode="&#x208d;" horiz-adv-x="210" 
d="M105 197q-5 -45 -5 -82q0 -94 23 -171h-63q-31 89 -31 179q0 173 93 327h63q-62 -113 -80 -253z" />
    <glyph glyph-name="uni208E" unicode="&#x208e;" horiz-adv-x="210" 
d="M73 197q5 45 5 82q0 99 -23 171h63q31 -89 31 -179q0 -173 -93 -327h-63q62 113 80 253z" />
    <glyph glyph-name="uni20A1" unicode="&#x20a1;" horiz-adv-x="685" 
d="M20 -46l77 150q-36 69 -36 179q0 104 22.5 192.5t65.5 155.5t111 105t155 38q5 0 14.5 -0.5t13.5 -0.5l20 37h68l-25 -47q17 -5 29 -10l30 57h68l-46 -88q52 -47 62 -134l-70 -24q-6 58 -27 90l-306 -589q31 -12 80 -12q87 0 135 35t73 112l65 -23q-69 -187 -281 -187
q-57 0 -102 15l-26 -51h-68l39 77q-12 9 -23 20l-50 -97h-68zM407 711q-87 0 -150.5 -56.5t-94 -151t-30.5 -214.5q0 -52 11 -98l269 520h-5zM505 694q-12 5 -29 10l-302 -584q9 -14 21 -24z" />
    <glyph glyph-name="uni20A2" unicode="&#x20a2;" horiz-adv-x="685" 
d="M571 470q39 0 58 -8l-15 -68q-24 9 -51 9q-76 0 -130.5 -47.5t-64.5 -103.5l-24 -199q78 4 122 39t68 108l65 -23q-69 -187 -281 -187q-257 0 -257 294q0 140 38.5 249t120 175t195.5 66q213 0 234 -186l-70 -24q-6 77 -45.5 112t-126.5 35t-150.5 -56.5t-94 -150.5
t-30.5 -214q0 -206 146 -233l35 280l9 123h60l1 -89q29 44 80 71.5t108 27.5z" />
    <glyph glyph-name="uni20A3" unicode="&#x20a3;" horiz-adv-x="630" 
d="M456 307h-225l-37 -307h-70l37 307h-110l8 62h110l7 61h-110l8 62h110l33 272h426l-8 -66h-356l-25 -206h225l-8 -62h-225l-7 -61h225z" />
    <glyph glyph-name="uni20A4" unicode="&#x20a4;" horiz-adv-x="680" 
d="M452 272h-229l-26 -210h390l-7 -62h-566l7 62h110l26 210h-110l8 62h110l7 61h-110l8 62h110l12 99q12 99 80 158.5t180 59.5q191 0 199 -148l-70 -24q0 109 -130 109q-175 0 -192 -144l-13 -110h229l-8 -62h-229l-7 -61h229z" />
    <glyph glyph-name="uni20A6" unicode="&#x20a6;" horiz-adv-x="718" 
d="M683 289h-70l-35 -289h-63l-144 289h-205l-35 -289h-71l35 289h-70l8 62h70l7 62h-70l8 62h70l35 289h63l144 -289h205l35 289h71l-35 -289h70l-8 -62h-70l-7 -62h70zM176 374l-2 -23h167l-32 62h-129zM391 413l31 -62h128l7 62h-166zM269 494l-66 132l-16 -151h92z
M528 139l15 150h-90z" />
    <glyph glyph-name="uni20A7" unicode="&#x20a7;" horiz-adv-x="1420" 
d="M177 386h167q33 0 62.5 8.5t57.5 28t44.5 58.5t16.5 94q0 39 -13 65t-36 38t-44.5 16t-49.5 4h-167zM816 53q65 0 109 28q-10 20 -15 48l71 24q13 -102 131 -102q33 0 62 5.5t56 17.5t42.5 36t15.5 58q0 10 -1.5 18.5t-7 15t-9.5 11t-14 8.5t-16.5 6.5t-21 5t-22.5 4
t-27 4.5t-28 4q-3 0 -23.5 3.5t-27.5 5t-26.5 5.5t-28.5 8t-24.5 10.5t-23 14.5t-16.5 18.5t-12.5 24.5t-3.5 30q0 60 36.5 101t84.5 57.5t100 16.5q175 0 195 -139l-70 -24q-11 102 -127 102q-26 0 -49.5 -4t-47.5 -14.5t-38 -32.5t-14 -53q0 -23 18 -37t35.5 -18t62.5 -11
l18 -3t29 -4t31.5 -5t29 -6t30 -8t25.5 -11t24 -15.5t17 -20t12.5 -26.5t3.5 -33q0 -63 -39 -107t-93.5 -62t-117.5 -18q-96 0 -146 41q-64 -41 -157 -41q-56 0 -92 17t-49.5 46t-17.5 66.5t4 78.5l33 270h-106q-57 -148 -255 -148h-156l-39 -320h-70l93 764h226
q45 0 82 -8.5t70 -28t51.5 -56.5t18.5 -89q0 -17 -4 -52h97l16 135l69 22l-19 -157h163l-8 -62h-163l-33 -270q-11 -87 11.5 -116t85.5 -29z" />
    <glyph glyph-name="uni20A8" unicode="&#x20a8;" horiz-adv-x="1108" 
d="M776 51q98 0 149 26t51 91q0 10 -1.5 18.5t-7 15t-9.5 11t-14 8.5t-16.5 6.5t-21 5t-22.5 4t-27 4.5t-28 4q-3 0 -23.5 3.5t-27.5 5t-26.5 5.5t-28.5 8t-24.5 10.5t-23 14.5t-16.5 18.5t-12.5 24.5t-3.5 30q0 60 36.5 101t84.5 57.5t100 16.5q175 0 195 -139l-70 -24
q-11 102 -127 102q-26 0 -49.5 -4t-47.5 -14.5t-38 -32.5t-14 -53q0 -23 18 -37t35.5 -18t62.5 -11l18 -3t29 -4t31.5 -5t29 -6t30 -8t25.5 -11t24 -15.5t17 -20t12.5 -26.5t3.5 -33q0 -97 -76.5 -142t-205.5 -45q-42 0 -78.5 5.5t-86.5 26.5t-93 56t-90.5 100t-86.5 153
h-172l-40 -331h-70l93 764h260q219 0 219 -175q0 -111 -62 -181.5t-149 -73.5q25 -57 54.5 -102.5t56.5 -74.5t59.5 -50t56.5 -31.5t54 -16.5t46.5 -7t37.5 -1zM168 397h199q26 0 49 4t48 16.5t42 32t28.5 53.5t11.5 78q0 32 -9.5 54.5t-22.5 34.5t-34 18.5t-37 8t-39 1.5
h-199z" />
    <glyph glyph-name="uni20A9" unicode="&#x20a9;" horiz-adv-x="830" 
d="M792 289h-88l-92 -299h-71l-36 299h-191l-109 -299h-71l-18 299h-88l8 62h76l-4 62h-65l8 62h53l-18 289h73l15 -289h143l105 289h92l35 -289h142l86 289h73l-89 -289h54l-8 -62h-65l-19 -62h77zM476 538l-17 154l-53 -154l-24 -63h101zM359 413l-22 -62h161l-8 62h-131z
M177 413l4 -62h91l22 62h-117zM556 413l8 -62h90l18 62h-116zM184 289l5 -168l60 168h-65zM571 289l18 -168l47 168h-65z" />
    <glyph glyph-name="uni20AA" unicode="&#x20aa;" horiz-adv-x="664" 
d="M123 764h195q85 0 124.5 -45.5t30.5 -124.5l-54 -444h-66l53 429q15 122 -105 122h-120l-86 -701h-65zM378 0h-195l75 614h65l-68 -551h120q120 0 135 122l71 579h66l-73 -594q-10 -81 -61.5 -125.5t-134.5 -44.5z" />
    <glyph glyph-name="Euro" unicode="&#x20ac;" horiz-adv-x="755" 
d="M215 430q-6 -39 -12 -96h288l-28 -64h-261q9 -217 194 -217q87 0 135 35t73 112l65 -23q-67 -187 -281 -187q-252 0 -258 280h-107l8 64h101q2 37 12 96h-102l8 64h108q74 280 327 280q212 0 234 -186l-70 -24q-6 77 -45.5 112t-126.5 35q-186 0 -247 -217h330l-28 -64
h-317z" />
    <glyph glyph-name="uni20AE" unicode="&#x20ae;" horiz-adv-x="520" 
d="M406 330l-118 -56l-33 -274h-70l29 239l-106 -50l9 75l106 50l7 60l-106 -50l9 75l107 50l30 249h-200l8 66h470l-8 -66h-200l-26 -214l118 56l-9 -75l-118 -56l-8 -60l118 56z" />
    <glyph glyph-name="uni20B1" unicode="&#x20b1;" horiz-adv-x="650" 
d="M641 447h-71q-63 -127 -245 -127h-156l-39 -320h-70l54 447h-70l8 64h70l8 62h-70l8 64h70l15 127h226q183 0 215 -127h71l-8 -64h-57q0 -32 -8 -62h57zM517 511q8 29 8 62h-325l-8 -62h325zM177 386h167q103 0 145 61h-305zM215 698l-7 -61h305q-29 61 -131 61h-167z
" />
    <glyph glyph-name="litre" unicode="&#x2113;" horiz-adv-x="330" 
d="M20 180v79q16 9 42 31v258q0 125 34 175.5t95 50.5q51 0 79 -38t28 -102q0 -105 -52 -206.5t-118 -165.5v-134q0 -43 14.5 -60t53.5 -17q32 0 54 9l12 -59q-26 -11 -66 -11q-66 0 -100 30t-34 97v93q-29 -24 -42 -30zM128 543v-193q44 51 74.5 127.5t30.5 160.5
q0 77 -42 77q-63 0 -63 -172z" />
    <glyph glyph-name="numero" unicode="&#x2116;" horiz-adv-x="1276" 
d="M974 224q-99 0 -154 55t-55 161q0 152 75.5 243t201.5 91q100 0 154.5 -55t54.5 -163q0 -151 -76 -241.5t-201 -90.5zM1034 712q-92 0 -145.5 -71.5t-53.5 -193.5q0 -161 147 -161q91 0 145 71.5t54 192.5q0 162 -147 162zM1000 86l-10 -86h-86l10 86h86zM206 764
l246 -494l65 -132l20 182l53 444h71l-93 -764h-63l-312 626l-19 -182l-53 -444h-71l93 764h63z" />
    <glyph glyph-name="servicemark" unicode="&#x2120;" horiz-adv-x="550" 
d="M418 510h-28l-56 193l-5 -50l-18 -143h-33l33 270h34l51 -168l14 -54l28 54l91 168h34l-33 -270h-33l18 143l7 50l-22 -42zM220 707q-2 24 -16 34.5t-45 10.5q-23 0 -42.5 -12.5t-19.5 -39.5q0 -14 11.5 -21t42.5 -11q47 -6 68.5 -19t21.5 -46q0 -47 -32.5 -72t-78.5 -25
q-86 0 -94 67l35 12q3 -46 63 -46q28 0 50.5 14t22.5 42q0 19 -13.5 27.5t-49.5 12.5q-83 8 -83 63q0 41 30 63.5t72 22.5q83 0 91 -66z" />
    <glyph glyph-name="trademark" unicode="&#x2122;" horiz-adv-x="540" 
d="M409 510h-28l-56 193l-5 -50l-18 -143h-33l33 270h34l51 -168l14 -54l28 54l91 168h34l-33 -270h-33l18 143l7 50l-22 -42zM169 747l-29 -237h-35l29 237h-83l4 33h201l-4 -33h-83z" />
    <glyph glyph-name="ohm" unicode="&#x2126;" horiz-adv-x="700" 
d="M397 711q-125 0 -204.5 -84.5t-79.5 -218.5q0 -102 47 -210.5t104 -158.5l-4 -39h-282l7 64h93l88 -2q-52 58 -88 154t-36 189q0 163 100.5 266t262.5 103q136 0 210 -71t74 -196q0 -113 -66.5 -240.5t-154.5 -204.5l88 2h93l-7 -64h-282l4 39q89 64 171 202.5t82 255.5
q0 101 -58.5 157.5t-161.5 56.5z" />
    <glyph glyph-name="estimated" unicode="&#x212e;" horiz-adv-x="790" 
d="M694 265h76q-20 -139 -118 -207t-257 -68q-174 0 -282 109t-108 291t108 291t282 109t282 -109t108 -291v-32h-646q13 -303 256 -303q264 0 299 210zM395 725q-243 0 -256 -303h511q-11 303 -255 303z" />
    <glyph glyph-name="arrowleft" unicode="&#x2190;" horiz-adv-x="860" 
d="M30 361v58l400 247v-75l-192 -115l-101 -54h683v-63h-683l101 -55l192 -115v-75z" />
    <glyph glyph-name="arrowup" unicode="&#x2191;" horiz-adv-x="860" 
d="M401 790h58l247 -400h-75l-115 192l-54 101v-683h-63v683l-55 -101l-115 -192h-75z" />
    <glyph glyph-name="arrowright" unicode="&#x2192;" horiz-adv-x="860" 
d="M830 419v-58l-400 -247v75l192 115l101 54h-683v63h683l-101 55l-192 115v75z" />
    <glyph glyph-name="arrowdown" unicode="&#x2193;" horiz-adv-x="860" 
d="M459 -10h-58l-247 400h75l115 -192l54 -101v683h63v-683l55 101l115 192h75z" />
    <glyph glyph-name="uni2196" unicode="&#x2196;" horiz-adv-x="860" 
d="M25 749l41 41l458 -108l-53 -53l-217 54l-111 33l74 -73l410 -410l-45 -45l-410 410l-73 74l33 -111l54 -217l-53 -53z" />
    <glyph glyph-name="uni2197" unicode="&#x2197;" horiz-adv-x="860" 
d="M784 790l41 -41l-108 -458l-53 53l54 217l33 111l-73 -74l-410 -410l-45 45l410 410l74 73l-111 -33l-217 -54l-53 53z" />
    <glyph glyph-name="uni2198" unicode="&#x2198;" horiz-adv-x="860" 
d="M825 31l-41 -41l-458 108l53 53l217 -54l111 -33l-74 73l-410 410l45 45l410 -410l73 -74l-33 111l-54 217l53 53z" />
    <glyph glyph-name="uni2199" unicode="&#x2199;" horiz-adv-x="860" 
d="M66 -10l-41 41l108 458l53 -53l-54 -217l-33 -111l73 74l410 410l45 -45l-410 -410l-74 -73l111 33l217 54l53 -53z" />
    <glyph glyph-name="partialdiff" unicode="&#x2202;" horiz-adv-x="665" 
d="M157 684l-18 47q76 43 172 43q143 0 224.5 -78.5t81.5 -235.5q0 -223 -87 -346.5t-257 -123.5q-108 0 -172 56t-64 157q0 133 80.5 213t207.5 80q77 0 136.5 -34.5t81.5 -93.5q6 72 6 95q0 135 -63 195t-181 60q-82 0 -148 -34zM321 435q-93 0 -153 -58.5t-60 -166.5
q0 -81 49 -120t131 -39t134 39.5t83 127.5q7 31 7 60q0 78 -52.5 117.5t-138.5 39.5z" />
    <glyph glyph-name="increment" unicode="&#x2206;" horiz-adv-x="860" 
d="M10 0l5 43l434 731h72l254 -731l-5 -43h-760zM567 59h134l-181 518l-43 132l-77 -132l-307 -516h134z" />
    <glyph glyph-name="product" unicode="&#x220f;" horiz-adv-x="750" 
d="M650 698l-85 -698h-70l85 698h-320l-85 -698h-70l85 698h-120l8 66h700l-8 -66h-120z" />
    <glyph glyph-name="summation" unicode="&#x2211;" horiz-adv-x="695" 
d="M168 764h500l-8 -64h-410l271 -284l-6 -48l-368 -302h461l-8 -66h-555l7 63l393 329l-284 309z" />
    <glyph glyph-name="minus" unicode="&#x2212;" horiz-adv-x="470" 
d="M433 358h-390l8 64h390z" />
    <glyph glyph-name="radical" unicode="&#x221a;" horiz-adv-x="810" 
d="M39 445l8 60l156 35l29 -322l11 -153l91 139l382 560h78l-542 -774h-58l-55 476z" />
    <glyph glyph-name="infinity" unicode="&#x221e;" horiz-adv-x="800" 
d="M749 390q0 -73 -46.5 -111.5t-122.5 -38.5q-96 0 -180 100q-84 -100 -180 -100q-76 0 -122.5 38.5t-46.5 111.5t46.5 111.5t122.5 38.5q95 0 180 -101q85 101 180 101q76 0 122.5 -38.5t46.5 -111.5zM686 390q0 51 -30 72.5t-76 19.5q-82 -4 -143 -92q61 -88 143 -92
q46 -2 76 19.5t30 72.5zM220 298q82 4 143 92q-61 88 -143 92q-46 2 -76 -19.5t-30 -72.5t30 -72.5t76 -19.5z" />
    <glyph glyph-name="integral" unicode="&#x222b;" horiz-adv-x="250" 
d="M319 711q-63 0 -92 -28.5t-40 -116.5l-70 -568q-4 -37 -11 -64.5t-21.5 -56t-36 -46.5t-56 -29.5t-79.5 -11.5q-35 0 -56 8l16 64q18 -9 47 -9q63 0 91.5 28.5t39.5 116.5l70 568q6 46 16.5 79.5t32.5 65t61.5 47.5t95.5 16q34 0 56 -8l-16 -64q-21 9 -48 9z" />
    <glyph glyph-name="approxequal" unicode="&#x2248;" horiz-adv-x="470" 
d="M67 266l-24 50q5 7 14 17t42 27t72 17q37 0 64 -18t51 -36t54 -17q26 1 48 13t31 23l9 12l24 -50q-5 -7 -14 -17t-42 -27t-72 -17q-37 0 -64 18t-51 36t-54 17q-26 -1 -48 -13t-31 -23zM87 426l-24 50q4 7 13.5 17t42 27t71.5 17q29 0 53 -11.5t37.5 -25t34.5 -24.5
t45 -10q26 1 48 13t31 23l9 12l23 -50q-4 -7 -13.5 -17t-42 -27t-71.5 -17q-37 0 -64 18t-51 36t-54 17q-27 -1 -49 -13t-30 -23z" />
    <glyph glyph-name="notequal" unicode="&#x2260;" horiz-adv-x="470" 
d="M443 438h-126l-76 -96h190l-7 -64h-233l-75 -95h-74l75 95h-83l7 64h126l76 96h-190l8 64h232l76 95h74l-76 -95h84z" />
    <glyph glyph-name="lessequal" unicode="&#x2264;" horiz-adv-x="470" 
d="M116 459l133 -51l182 -71l-8 -68l-372 148l10 84l408 148l-8 -68l-200 -71zM406 131l-372 148l8 69l372 -148z" />
    <glyph glyph-name="greaterequal" unicode="&#x2265;" horiz-adv-x="470" 
d="M241 408l145 51l-133 51l-182 71l8 68l372 -148l-10 -84l-408 -148l8 68zM424 279l-408 -148l8 69l408 148z" />
    <glyph glyph-name="filledbox" unicode="&#x25a0;" horiz-adv-x="960" 
d="M90 0v780h780v-780h-780zM800 714h-640v-648h640v648zM182 137l253 253l-253 253l45 45l253 -253l253 253l45 -45l-253 -253l253 -253l-45 -45l-253 253l-253 -253z" />
    <glyph glyph-name="whitesquare" unicode="&#x25a1;" horiz-adv-x="960" 
d="M90 0v780h780v-780h-780zM800 714h-640v-648h640v648z" />
    <glyph glyph-name="blacksmallsquare" unicode="&#x25aa;" horiz-adv-x="710" 
d="M620 530v-530h-530v530h530z" />
    <glyph glyph-name="whitesmallsquare" unicode="&#x25ab;" horiz-adv-x="710" 
d="M90 0v530h530v-530h-530zM550 464h-390v-398h390v398z" />
    <glyph glyph-name="uni25B2" unicode="&#x25b2;" horiz-adv-x="850" 
d="M815 0h-780l390 790z" />
    <glyph glyph-name="uni25B6" unicode="&#x25b6;" horiz-adv-x="850" 
d="M40 0v780l790 -390z" />
    <glyph glyph-name="uni25BC" unicode="&#x25bc;" horiz-adv-x="850" 
d="M35 780h780l-390 -790z" />
    <glyph glyph-name="uni25C0" unicode="&#x25c0;" horiz-adv-x="850" 
d="M810 780v-780l-790 390z" />
    <glyph glyph-name="lozenge" unicode="&#x25ca;" horiz-adv-x="900" 
d="M419 77l321 313l-244 313l-322 -313zM408 -10l-319 400l417 400l319 -400z" />
    <glyph glyph-name="circle" unicode="&#x25cb;" horiz-adv-x="710" 
d="M80 265q0 114 80.5 194.5t194.5 80.5t194.5 -80.5t80.5 -194.5t-80.5 -194.5t-194.5 -80.5t-194.5 80.5t-80.5 194.5z" />
    <glyph glyph-name="blackcircle" unicode="&#x25cf;" horiz-adv-x="960" 
d="M80 390q0 166 117 283t283 117t283 -117t117 -283t-117 -283t-283 -117t-283 117t-117 283z" />
    <glyph glyph-name="uni25E2" unicode="&#x25e2;" horiz-adv-x="850" 
d="M30 239l551 551l249 -800z" />
    <glyph glyph-name="uni25E3" unicode="&#x25e3;" horiz-adv-x="850" 
d="M269 790l551 -551l-800 -249z" />
    <glyph glyph-name="uni25E4" unicode="&#x25e4;" horiz-adv-x="850" 
d="M820 541l-551 -551l-249 800z" />
    <glyph glyph-name="uni25E5" unicode="&#x25e5;" horiz-adv-x="850" 
d="M581 -10l-551 551l800 249z" />
    <glyph glyph-name="whitecircle" unicode="&#x25ef;" horiz-adv-x="960" 
d="M80 390q0 166 117 283t283 117t283 -117t117 -283t-117 -283t-283 -117t-283 117t-117 283zM811 390q0 137 -97 235t-234 98t-234 -98t-97 -235t97 -235t234 -98t234 98t97 235z" />
    <glyph glyph-name="blacksquare" unicode="&#x25fc;" horiz-adv-x="960" 
d="M870 780v-780h-780v780h780z" />
    <glyph glyph-name="uni2600" unicode="&#x2600;" horiz-adv-x="985" 
d="M493 565q112 0 191 -79t79 -191t-79 -190.5t-191 -78.5t-190.5 78.5t-78.5 190.5t78.5 191t190.5 79zM493 89q86 0 146.5 60.5t60.5 145.5t-61 146t-146 61t-145.5 -60.5t-60.5 -146.5q0 -85 60.5 -145.5t145.5 -60.5zM27 345l11 63l160 -29l-11 -62zM960 345l-160 -28
l-11 62l160 29zM883 33l-141 82l32 54l141 -81zM104 33l-32 55l141 81l32 -54zM915 502l-141 -81l-32 54l141 82zM72 502l32 55l141 -82l-32 -54zM217 -84l-49 40l105 125l48 -41zM819 634l-105 -125l-48 41l104 124zM770 -84l-104 124l48 41l105 -125zM168 634l49 40
l104 -124l-48 -41zM462 -174v163h63v-163h-63zM525 764v-163h-63v163h63zM38 183l-11 62l160 28l11 -62zM949 183l-160 28l11 62l160 -28zM624 -156l-56 153l59 21l56 -153zM363 -156l-59 21l56 153l59 -21zM304 725l59 21l56 -152l-59 -22zM683 725l-56 -153l-59 22l56 152
z" />
    <glyph glyph-name="uni2601" unicode="&#x2601;" horiz-adv-x="1350" 
d="M257 637q54 90 146.5 143.5t200.5 53.5q133 0 238.5 -77.5t145.5 -200.5q1 1 3 1q34 8 65 8q112 0 190.5 -79t78.5 -191t-78.5 -190.5t-190.5 -78.5h-721q-129 0 -219.5 91t-90.5 219q0 107 65.5 190.5t166.5 110.5zM917 295q28 65 28 136q0 141 -100 240.5t-241 99.5
q-78 0 -147 -33.5t-116 -91.5q127 -2 215.5 -92.5t88.5 -217.5q0 -15 -2 -41h-64q3 20 3 41q0 103 -72.5 175t-174.5 72q-103 0 -175 -72t-72 -175t72 -175t175 -72h721q86 0 146 60.5t60 145.5q0 86 -60 146.5t-146 60.5q-26 0 -50 -6h-1q-1 -1 -2 -1q5 -35 5 -64
q0 -70 -23 -136h-68z" />
    <glyph glyph-name="uni2602" unicode="&#x2602;" horiz-adv-x="1350" 
d="M257 637q54 90 146.5 143.5t200.5 53.5q133 0 238.5 -77.5t145.5 -200.5q1 1 3 1q34 8 65 8q112 0 190.5 -79t78.5 -191t-78.5 -190.5t-190.5 -78.5h-721q-129 0 -219.5 91t-90.5 219q0 107 65.5 190.5t166.5 110.5zM985 295h-68q28 65 28 136q0 141 -100 240.5
t-241 99.5q-78 0 -147 -33.5t-116 -91.5q127 -2 215.5 -92.5t88.5 -217.5q0 -15 -2 -41h-64q3 20 3 41q0 103 -72.5 175t-174.5 72q-103 0 -175 -72t-72 -175t72 -175t175 -72h721q86 0 146 60.5t60 145.5q0 86 -60 146.5t-146 60.5q-26 0 -50 -6h-1q-1 -1 -2 -1
q5 -35 5 -64q0 -70 -23 -136zM583 -10l-59 -163h-67l59 163h67zM1019 -10l-59 -163h-67l59 163h67zM801 -10l-59 -163h-67l59 163h67zM365 -10l-59 -163h-67l59 163h67z" />
    <glyph glyph-name="uni2603" unicode="&#x2603;" horiz-adv-x="894" 
d="M681 196l138 80l31 -54l-106 -62l125 -72l-32 -54l-122 70v-117h-63v153l-174 101v-198l138 -79l-31 -55l-107 62v-145h-63v142l-101 -59l-31 55l132 76v201l-170 -99v-160h-63v124l-125 -72l-32 54l122 71l-101 58l32 55l132 -77l174 100l-171 99l-138 -80l-32 55
l107 61l-125 72l32 55l122 -71v117h63v-153l173 -100v197l-138 79l32 55l106 -61v144h63v-141l101 58l32 -54l-133 -77v-200l171 98v160h63v-123l125 72l32 -55l-123 -70l101 -59l-31 -54l-133 76l-173 -100z" />
    <glyph glyph-name="uni2605" unicode="&#x2605;" horiz-adv-x="880" 
d="M440 180l-260 -190l99 307l-260 189h322l99 306l99 -306h322l-260 -189l99 -307z" />
    <glyph glyph-name="uni2607" unicode="&#x2607;" horiz-adv-x="1351" 
d="M917 296q28 64 28 135q0 141 -99.5 240.5t-240.5 99.5q-78 0 -147 -33t-117 -91q127 -3 216 -93.5t89 -217.5q0 -22 -3 -40h-63q3 18 3 40q0 103 -72.5 175.5t-175.5 72.5q-102 0 -174.5 -72.5t-72.5 -175.5q0 -102 72.5 -174.5t174.5 -72.5l72 -63h-72q-128 0 -219 91
t-91 219q0 108 65.5 191t167.5 110q53 90 145.5 143.5t201.5 53.5q133 0 238.5 -77.5t144.5 -199.5h4q27 8 64 8q112 0 191 -78.5t79 -190.5t-79 -191t-191 -79l-69 63h69q86 0 146.5 60.5t60.5 146.5q0 85 -60.5 145.5t-146.5 60.5q-25 0 -49 -6h-4q5 -35 5 -65
q0 -71 -23 -135h-68zM670 262h177l-113 -168l75 -68l-225 -225h-6l96 207l-91 81zM870 262h177l-113 -168l75 -68l-225 -225h-6l96 207l-91 81zM647 262l-113 -168l75 -68l-225 -225h-6l96 207l-91 81l87 173h177z" />
    <glyph glyph-name="filledsmallbox" unicode="&#x2612;" horiz-adv-x="710" 
d="M90 0v530h530v-530h-530zM550 464h-390v-398h390v398zM180 136l130 129l-130 129l46 46l129 -130l129 130l46 -46l-130 -129l130 -129l-46 -46l-129 130l-129 -130z" />
    <glyph glyph-name="uni2614" unicode="&#x2614;" horiz-adv-x="1350" 
d="M917 295q28 65 28 136q0 140 -100 240t-241 100q-78 0 -147 -33.5t-116 -91.5q127 -2 215.5 -92.5t88.5 -217.5q0 -15 -2 -41h-64q3 20 3 41q0 102 -72.5 174.5t-174.5 72.5q-103 0 -175 -72.5t-72 -174.5q0 -92 59 -161.5t148 -83.5l-22 -60q-107 22 -177.5 107.5
t-70.5 197.5q0 107 65.5 190.5t166.5 109.5q54 91 146 144.5t201 53.5q133 0 238.5 -77.5t145.5 -200.5h1q1 1 2 1q34 8 65 8q112 0 190.5 -79t78.5 -191q0 -106 -72.5 -183.5t-177.5 -85.5l25 67q70 15 116 71.5t46 130.5q0 86 -60.5 146.5t-145.5 60.5q-26 0 -50 -6
q-1 -1 -3 -1q5 -35 5 -64q0 -70 -23 -136h-68zM1056 89l-96 -263h-67l96 263h67zM947 89l-96 -263h-67l96 263h67zM838 89l-96 -263h-67l96 263h67zM729 89l-96 -263h-67l96 263h67zM511 89l-96 -263h-67l96 263h67zM620 89l-96 -263h-67l96 263h67zM402 89l-96 -263h-67
l96 263h67z" />
    <glyph glyph-name="uni263C" unicode="&#x263c;" horiz-adv-x="960" 
d="M880 390l-169 -30l155 -73l-171 15l132 -112l-162 59l98 -141l-141 98l58 -162l-111 130l15 -170l-74 155l-30 -169l-30 169l-74 -155l15 170l-111 -130l58 162l-141 -98l98 141l-162 -59l132 112l-171 -15l155 73l-169 30l169 30l-155 73l171 -15l-132 112l162 -59
l-98 141l141 -98l-58 162l111 -130l-15 170l74 -155l30 169l30 -169l74 155l-15 -170l111 130l-58 -162l141 98l-98 -141l162 59l-132 -112l171 15l-155 -73z" />
    <glyph glyph-name="uni263E" unicode="&#x263e;" horiz-adv-x="960" 
d="M624 728q-139 0 -231.5 -95.5t-92.5 -242.5t92.5 -242.5t231.5 -95.5q50 0 96 15q-107 -77 -240 -77q-166 0 -283 117t-117 283t117 283t283 117q131 0 240 -77q-52 15 -96 15z" />
    <glyph glyph-name="uni2660" unicode="&#x2660;" horiz-adv-x="900" 
d="M451 790q32 -48 97 -116t136 -114q78 -51 121 -103t43 -123q0 -73 -51 -123.5t-125 -50.5q-69 0 -120.5 46t-79.5 115l-3 -1q8 -102 26.5 -174t55.5 -146h-202q37 74 55.5 146t26.5 174l-3 1q-28 -69 -79.5 -115t-120.5 -46q-74 0 -125 50.5t-51 123.5q0 71 43 123
t121 103q71 46 136 114t97 116h2z" />
    <glyph glyph-name="uni2663" unicode="&#x2663;" horiz-adv-x="900" 
d="M349 0q37 74 55.5 146t26.5 174l-3 1q-28 -69 -79.5 -115t-120.5 -46q-74 0 -125 50.5t-51 123.5q0 79 48.5 129.5t125.5 50.5q40 0 84 -23l2 2q-38 57 -38 117q0 75 50.5 127.5t125.5 52.5t125.5 -52.5t50.5 -127.5q0 -60 -38 -117l2 -2q44 23 84 23q77 0 125.5 -50.5
t48.5 -129.5q0 -73 -51 -123.5t-125 -50.5q-69 0 -120.5 46t-79.5 115l-3 -1q8 -102 26.5 -174t55.5 -146h-202z" />
    <glyph glyph-name="uni2665" unicode="&#x2665;" horiz-adv-x="900" 
d="M451 -10h-2q-28 43 -94 126.5t-139 166.5q-164 185 -164 301q0 90 52 148t139 58q85 0 132.5 -42.5t72.5 -114.5h4q25 72 72.5 114.5t132.5 42.5q87 0 139 -58t52 -148q0 -116 -164 -301q-73 -83 -139 -166.5t-94 -126.5z" />
    <glyph glyph-name="uni2666" unicode="&#x2666;" horiz-adv-x="900" 
d="M817 390q-106 -83 -202.5 -188.5t-163.5 -211.5h-2q-67 106 -163.5 211.5t-202.5 188.5q106 83 202.5 188.5t163.5 211.5h2q67 -106 163.5 -211.5t202.5 -188.5z" />
    <glyph glyph-name="musicflatsign" unicode="&#x266d;" horiz-adv-x="455" 
d="M50 -33v853h51v-375q23 43 68.5 70.5t89.5 27.5q168 0 168 -179q0 -70 -32.5 -136.5t-86.5 -117t-120.5 -88t-137.5 -55.5zM101 336v-292q41 15 81 39t83.5 61.5t70.5 91.5t27 116q0 55 -25.5 91.5t-80.5 36.5q-63 0 -108.5 -45.5t-47.5 -98.5z" />
    <glyph glyph-name="musicnaturalsign" unicode="&#x266e;" horiz-adv-x="332" 
d="M101 532l181 145v-727h-51v298l-181 -145v727h51v-298zM101 433v-190l130 104v190z" />
    <glyph glyph-name="musicsharpsign" unicode="&#x266f;" horiz-adv-x="446" 
d="M339 880v-203l97 78v-99l-97 -78v-190l97 78v-99l-97 -78v-289h-51v248l-130 -104v-244h-51v203l-97 -78v99l97 78v190l-97 -78v99l97 78v289h51v-248l130 104v244h51zM158 433v-190l130 104v190z" />
    <glyph glyph-name="uni267B" unicode="&#x267b;" horiz-adv-x="960" 
d="M863 266l1 -2l-96 -167q-15 -22 -21.5 -30t-24 -17t-42.5 -9h-57v-49l-113 136l113 135v-49h145q26 0 50 13t34 26zM186 122h-2l-96 168q-19 36 -19 56q0 22 15 47l28 49l-42 24l174 31l59 -166l-41 24q-70 -120 -72 -125q-14 -24 -14 -55q0 -13 2.5 -26.5t5.5 -20.5z
M404 779v1h193q24 -1 36 -2.5t28 -12.5t28 -32l28 -49l43 24l-61 -166l-173 31l41 24l-72 125q-13 23 -36 37.5t-39 16.5zM200 598l67 119q10 17 34 31q25 15 58 15q35 0 65 -14.5t42 -35.5l-116 -201zM446 41h-135q-22 0 -44 13q-30 18 -46.5 51t-16.5 66q0 25 10 43h232
v-173zM806 527l69 -117q10 -18 10 -44q0 -49 -38.5 -87.5t-73.5 -38.5l-116 201z" />
    <glyph glyph-name="uni267C" unicode="&#x267c;" horiz-adv-x="960" 
d="M880 389q0 -166 -116.5 -282.5t-282.5 -116.5q-167 0 -284 116.5t-117 282.5q0 167 117 284t284 117q166 0 282.5 -117t116.5 -284zM313 645l-52 -92l116 -67l90 156q-9 15 -33 27t-50 12q-24 0 -45 -12q-18 -11 -26 -24zM415 694v-1q48 -5 71 -44l56 -97l-32 -19
l134 -24l47 129l-33 -19l-22 38q-14 24 -29.5 30.5t-41.5 6.5h-150zM343 121h105v134h-180q-7 -11 -7 -33q0 -26 12.5 -52t35.5 -39q17 -10 34 -10zM249 184h1q-8 18 -8 41q0 24 11 43l56 97l32 -19l-46 129l-135 -24l33 -19l-22 -38q-12 -21 -12 -36q1 -18 15 -44zM784 407
l-53 91l-116 -67l90 -156q27 0 57 29.5t30 67.5q0 21 -8 35zM776 294l-1 1q-3 -4 -9 -11t-25.5 -18t-39.5 -11h-112v38l-88 -105l88 -105v38h44q28 0 41.5 10.5t26.5 32.5z" />
    <glyph glyph-name="uni267D" unicode="&#x267d;" horiz-adv-x="960" 
d="M880 389q0 -166 -116.5 -282.5t-282.5 -116.5q-167 0 -284 116.5t-117 282.5q0 167 117 284t284 117q166 0 282.5 -117t116.5 -284zM860 389q0 158 -111 269.5t-268 111.5q-158 0 -269.5 -111.5t-111.5 -269.5q0 -157 111.5 -268t269.5 -111q157 0 268 111t111 268z
M261 553l52 92q8 13 26 24q21 12 45 12q26 0 50 -12t33 -27l-90 -156zM415 693v1h150q26 0 41.5 -6.5t29.5 -30.5l22 -38l33 19l-47 -129l-134 24l32 19l-56 97q-10 17 -28 28t-30 13zM448 121h-105q-17 0 -34 10q-23 13 -35.5 39t-12.5 52q0 22 7 33h180v-134zM250 184h-1
l-75 130q-14 26 -15 44q0 15 12 36l22 38l-33 19l135 24l46 -129l-32 19l-56 -97q-11 -19 -11 -43q0 -10 2 -20.5t4 -15.5zM731 498l53 -91q8 -14 8 -35q0 -38 -30 -67.5t-57 -29.5l-90 156zM775 295l1 -1l-75 -130q-9 -15 -15 -22.5t-20 -14t-33 -6.5h-44v-38l-88 105
l88 105v-38h112q20 0 38.5 10t26.5 20z" />
    <glyph glyph-name="anglebracketleft" unicode="&#x3008;" horiz-adv-x="240" 
d="M113 350l61 -480h-68l-64 480l181 480h68z" />
    <glyph glyph-name="anglebracketright" unicode="&#x3009;" horiz-adv-x="240" 
d="M131 350l-61 480h68l64 -480l-181 -480h-68z" />
    <glyph glyph-name="Adoublegrave" unicode="&#xf000;" horiz-adv-x="720" 
d="M-19 0l397 790h76l205 -790h-77l-62 247h-340l-122 -247h-77zM407 712l-95 -198l-100 -201h291l-49 201zM375 1030h82l68 -208h-65zM235 1030h82l68 -208h-65z" />
    <glyph glyph-name="Anocross" unicode="&#xf001;" horiz-adv-x="720" 
d="M-18 0l396 790h76l204 -790h-76l-128 514l-47 198l-95 -198l-254 -514h-76z" />
    <glyph glyph-name="Edoublegrave" unicode="&#xf002;" horiz-adv-x="695" 
d="M145 780h520l-8 -66h-450l-34 -281h410l-8 -66h-410l-37 -301h470l-8 -66h-540zM365 1030h82l68 -208h-65zM225 1030h82l68 -208h-65z" />
    <glyph glyph-name="Gtilde" unicode="&#xf003;" horiz-adv-x="774" 
d="M361 55q140 0 231 59l28 223h-170l8 66h240l-41 -333q-78 -46 -146.5 -63t-157.5 -17q-145 0 -216 80.5t-71 227.5q0 227 100 359.5t285 132.5q241 0 265 -186l-70 -24q-6 76 -53.5 110.5t-148.5 34.5q-67 0 -120 -23.5t-87 -63.5t-56 -95t-31.5 -114.5t-9.5 -126.5
q0 -247 221 -247zM530 860q-29 0 -51.5 11.5t-34.5 26t-29.5 26t-36.5 11.5q-24 0 -41 -13t-22 -26l-5 -13l-54 8q34 103 130 103q29 0 51.5 -11.5t34.5 -26t29.5 -26t36.5 -11.5q24 0 41 13t22 26l5 13l55 -8q-36 -103 -131 -103z" />
    <glyph glyph-name="Hcaron" unicode="&#xf004;" horiz-adv-x="750" 
d="M645 780h70l-95 -780h-70l45 367h-430l-45 -367h-70l95 780h70l-42 -347h430zM280 1030h65l98 -150l136 150h69l-176 -208h-68z" />
    <glyph glyph-name="Idoublegrave" unicode="&#xf005;" horiz-adv-x="290" 
d="M235 780l-95 -780h-70l95 780h70zM160 1030h82l68 -208h-65zM20 1030h82l68 -208h-65z" />
    <glyph glyph-name="Kcedilla" unicode="&#xf006;" horiz-adv-x="695" 
d="M273 -75l23 49q120 -14 120 -88q0 -48 -33.5 -72t-86.5 -24q-49 0 -77 17l20 44q29 -13 59 -13q59 0 59 39t-84 48zM215 780l-51 -419l96 94l341 325h102l-371 -350l301 -430h-90l-265 379l-126 -119l-32 -260h-70l95 780h70z" />
    <glyph glyph-name="Lcedilla" unicode="&#xf007;" horiz-adv-x="585" 
d="M251 -75l23 49q120 -14 120 -88q0 -48 -33.5 -72t-86.5 -24q-49 0 -77 17l20 44q29 -13 59 -13q59 0 59 39t-84 48zM215 780l-87 -714h410l-8 -66h-480l95 780h70z" />
    <glyph glyph-name="Ngrave" unicode="&#xf008;" horiz-adv-x="750" 
d="M557 0l-285 515l-75 142l-29 -267l-47 -390h-71l95 780h63l285 -515l75 -142l28 267l48 390h71l-95 -780h-63zM315 1030h82l68 -208h-65z" />
    <glyph glyph-name="Ncedilla" unicode="&#xf009;" horiz-adv-x="750" 
d="M291 -75l23 49q120 -14 120 -88q0 -48 -33.5 -72t-86.5 -24q-49 0 -77 17l20 44q29 -13 59 -13q59 0 59 39t-84 48zM557 0l-285 515l-75 142l-29 -267l-47 -390h-71l95 780h63l285 -515l75 -142l28 267l48 390h71l-95 -780h-63z" />
    <glyph glyph-name="Odoublegrave" unicode="&#xf010;" horiz-adv-x="790" 
d="M415 1030h82l68 -208h-65zM275 1030h82l68 -208h-65zM353 -10q-145 0 -216 80.5t-71 227.5q0 103 23.5 191t70 156t121 106.5t170.5 38.5q146 0 216.5 -80t70.5 -228q0 -103 -23.5 -191t-70 -156t-121 -106.5t-170.5 -38.5zM444 725q-68 0 -121.5 -25t-87 -65.5
t-55.5 -96.5t-31 -114t-9 -122q0 -247 221 -247q84 0 145.5 37t94.5 100t48 134t15 153q0 246 -220 246z" />
    <glyph glyph-name="Ounderlineaccent" unicode="&#xf011;" horiz-adv-x="790" 
d="M360 -200h-60l20 160h60zM353 -10q-145 0 -216 80.5t-71 227.5q0 103 23.5 191t70 156t121 106.5t170.5 38.5q146 0 216.5 -80t70.5 -228q0 -103 -23.5 -191t-70 -156t-121 -106.5t-170.5 -38.5zM444 725q-68 0 -121.5 -25t-87 -65.5t-55.5 -96.5t-31 -114t-9 -122
q0 -247 221 -247q84 0 145.5 37t94.5 100t48 134t15 153q0 246 -220 246z" />
    <glyph glyph-name="Rdoublegrave" unicode="&#xf012;" horiz-adv-x="695" 
d="M345 1030h82l68 -208h-65zM205 1030h82l68 -208h-65zM162 347l-42 -347h-70l95 780h300q219 0 219 -176q0 -112 -59.5 -178.5t-152.5 -75.5l171 -350h-88l-161 347h-212zM170 413h239q37 0 66 7.5t56 26.5t42 57t15 93q0 32 -9.5 54.5t-22.5 34.5t-34 18.5t-37 8t-39 1.5
h-239z" />
    <glyph glyph-name="Rcedilla" unicode="&#xf013;" horiz-adv-x="695" 
d="M263 -75l23 49q120 -14 120 -88q0 -48 -33.5 -72t-86.5 -24q-49 0 -77 17l20 44q29 -13 59 -13q59 0 59 39t-84 48zM162 347l-42 -347h-70l95 780h300q219 0 219 -176q0 -112 -59.5 -178.5t-152.5 -75.5l171 -350h-88l-161 347h-212zM170 413h239q37 0 66 7.5t56 26.5
t42 57t15 93q0 32 -9.5 54.5t-22.5 34.5t-34 18.5t-37 8t-39 1.5h-239z" />
    <glyph glyph-name="Udoublegrave" unicode="&#xf014;" horiz-adv-x="774" 
d="M267 1030h82l68 -208h-65zM407 1030h82l68 -208h-65zM345 -10q-306 0 -271 290l61 500h72l-61 -502q-14 -105 30 -164t177 -59q69 0 119 16.5t79 48.5t44 69.5t21 88.5l61 502h72l-61 -500q-35 -290 -343 -290z" />
    <glyph glyph-name="UE" unicode="&#xf015;" horiz-adv-x="1107" 
d="M1002 0h-655q-307 0 -272 290l60 490h72l-60 -492q-13 -105 31 -163.5t177 -58.5h165l87 714h470l-8 -66h-400l-34 -281h360l-8 -66h-360l-37 -301h420z" />
    <glyph glyph-name="Ymacron" unicode="&#xf016;" horiz-adv-x="710" 
d="M75 780h81l132 -244l75 -141l109 141l192 244h81l-354 -445l-41 -335h-70l41 335zM288 894l8 64h272l-8 -64h-272z" />
    <glyph glyph-name="Yoghcaron" unicode="&#xf017;" horiz-adv-x="700" 
d="M50 -1q12 -144 223 -144q130 0 209.5 75t79.5 207q0 91 -60.5 143.5t-182.5 52.5l-18 -1l-43 51l210 227l96 104h-449l8 66h547l-7 -58l-304 -327q275 -21 275 -245q0 -166 -104 -263t-265 -97q-130 0 -201 50t-84 136zM235 1030h65l98 -150l136 150h69l-176 -208h-68z
" />
    <glyph glyph-name="adoublegrave" unicode="&#xf018;" horiz-adv-x="604" 
d="M272 800h82l68 -208h-65zM132 800h82l68 -208h-65zM560 530l-22 -124l-34 -282l-9 -124h-60l-2 86q-32 -45 -82 -70.5t-108 -25.5q-98 0 -151 57t-53 162q0 146 73.5 238.5t198.5 92.5q58 0 101.5 -25.5t64.5 -70.5l23 86h60zM448 204l15 122q0 59 -40.5 105t-117.5 46
q-89 0 -142.5 -73t-53.5 -186q0 -80 37.5 -122.5t106.5 -42.5q76 0 130.5 47.5t64.5 103.5z" />
    <glyph glyph-name="a.hist" unicode="&#xf019;" horiz-adv-x="604" 
d="M560 530l-22 -124l-34 -282l-9 -124h-60l-2 86q-32 -45 -82 -70.5t-108 -25.5q-98 0 -151 57t-53 162q0 146 73.5 238.5t198.5 92.5q58 0 101.5 -25.5t64.5 -70.5l23 86h60zM448 204l15 122q0 59 -40.5 105t-117.5 46q-89 0 -142.5 -73t-53.5 -186q0 -80 37.5 -122.5
t106.5 -42.5q76 0 130.5 47.5t64.5 103.5z" />
    <glyph glyph-name="aacute.hist" unicode="&#xf020;" horiz-adv-x="604" 
d="M407 800h82l-137 -208h-65zM560 530l-22 -124l-34 -282l-9 -124h-60l-2 86q-32 -45 -82 -70.5t-108 -25.5q-98 0 -151 57t-53 162q0 146 73.5 238.5t198.5 92.5q58 0 101.5 -25.5t64.5 -70.5l23 86h60zM448 204l15 122q0 59 -40.5 105t-117.5 46q-89 0 -142.5 -73
t-53.5 -186q0 -80 37.5 -122.5t106.5 -42.5q76 0 130.5 47.5t64.5 103.5z" />
    <glyph glyph-name="agrave.hist" unicode="&#xf021;" horiz-adv-x="604" 
d="M207 800h82l68 -208h-65zM560 530l-22 -124l-34 -282l-9 -124h-60l-2 86q-32 -45 -82 -70.5t-108 -25.5q-98 0 -151 57t-53 162q0 146 73.5 238.5t198.5 92.5q58 0 101.5 -25.5t64.5 -70.5l23 86h60zM448 204l15 122q0 59 -40.5 105t-117.5 46q-89 0 -142.5 -73
t-53.5 -186q0 -80 37.5 -122.5t106.5 -42.5q76 0 130.5 47.5t64.5 103.5z" />
    <glyph glyph-name="acircumflex.hist" unicode="&#xf022;" horiz-adv-x="604" 
d="M560 530l-22 -124l-34 -282l-9 -124h-60l-2 86q-32 -45 -82 -70.5t-108 -25.5q-98 0 -151 57t-53 162q0 146 73.5 238.5t198.5 92.5q58 0 101.5 -25.5t64.5 -70.5l23 86h60zM448 204l15 122q0 59 -40.5 105t-117.5 46q-89 0 -142.5 -73t-53.5 -186q0 -80 37.5 -122.5
t106.5 -42.5q76 0 130.5 47.5t64.5 103.5zM501 592h-65l-98 150l-136 -150h-69l176 208h68z" />
    <glyph glyph-name="adieresis.hist" unicode="&#xf023;" horiz-adv-x="604" 
d="M285 739l-10 -86h-86l10 86h86zM471 739l-10 -86h-86l10 86h86zM560 530l-22 -124l-34 -282l-9 -124h-60l-2 86q-32 -45 -82 -70.5t-108 -25.5q-98 0 -151 57t-53 162q0 146 73.5 238.5t198.5 92.5q58 0 101.5 -25.5t64.5 -70.5l23 86h60zM448 204l15 122q0 59 -40.5 105
t-117.5 46q-89 0 -142.5 -73t-53.5 -186q0 -80 37.5 -122.5t106.5 -42.5q76 0 130.5 47.5t64.5 103.5z" />
    <glyph glyph-name="atilde.hist" unicode="&#xf024;" horiz-adv-x="604" 
d="M560 530l-22 -124l-34 -282l-9 -124h-60l-2 86q-32 -45 -82 -70.5t-108 -25.5q-98 0 -151 57t-53 162q0 146 73.5 238.5t198.5 92.5q58 0 101.5 -25.5t64.5 -70.5l23 86h60zM448 204l15 122q0 59 -40.5 105t-117.5 46q-89 0 -142.5 -73t-53.5 -186q0 -80 37.5 -122.5
t106.5 -42.5q76 0 130.5 47.5t64.5 103.5zM402 630q-29 0 -51.5 11.5t-34.5 26t-29.5 26t-36.5 11.5q-24 0 -41 -13t-22 -26l-5 -13l-54 8q34 103 130 103q29 0 51.5 -11.5t34.5 -26t29.5 -26t36.5 -11.5q24 0 41 13t22 26l5 13l55 -8q-36 -103 -131 -103z" />
    <glyph glyph-name="aring.hist" unicode="&#xf025;" horiz-adv-x="604" 
d="M560 530l-22 -124l-34 -282l-9 -124h-60l-2 86q-32 -45 -82 -70.5t-108 -25.5q-98 0 -151 57t-53 162q0 146 73.5 238.5t198.5 92.5q58 0 101.5 -25.5t64.5 -70.5l23 86h60zM448 204l15 122q0 59 -40.5 105t-117.5 46q-89 0 -142.5 -73t-53.5 -186q0 -80 37.5 -122.5
t106.5 -42.5q76 0 130.5 47.5t64.5 103.5zM215 678q0 56 35.5 94t93.5 38q48 0 74.5 -26t26.5 -70q0 -57 -35.5 -94.5t-93.5 -37.5q-48 0 -74.5 26.5t-26.5 69.5zM337 754q-29 0 -46 -19t-17 -48q0 -22 13 -35.5t36 -13.5q28 0 46 19t18 48q0 22 -13 35.5t-37 13.5z" />
    <glyph glyph-name="acaron.hist" unicode="&#xf026;" horiz-adv-x="604" 
d="M560 530l-22 -124l-34 -282l-9 -124h-60l-2 86q-32 -45 -82 -70.5t-108 -25.5q-98 0 -151 57t-53 162q0 146 73.5 238.5t198.5 92.5q58 0 101.5 -25.5t64.5 -70.5l23 86h60zM448 204l15 122q0 59 -40.5 105t-117.5 46q-89 0 -142.5 -73t-53.5 -186q0 -80 37.5 -122.5
t106.5 -42.5q76 0 130.5 47.5t64.5 103.5zM159 800h65l98 -150l136 150h69l-176 -208h-68z" />
    <glyph glyph-name="amacron.hist" unicode="&#xf027;" horiz-adv-x="604" 
d="M190 664l8 64h272l-8 -64h-272zM560 530l-22 -124l-34 -282l-9 -124h-60l-2 86q-32 -45 -82 -70.5t-108 -25.5q-98 0 -151 57t-53 162q0 146 73.5 238.5t198.5 92.5q58 0 101.5 -25.5t64.5 -70.5l23 86h60zM448 204l15 122q0 59 -40.5 105t-117.5 46q-89 0 -142.5 -73
t-53.5 -186q0 -80 37.5 -122.5t106.5 -42.5q76 0 130.5 47.5t64.5 103.5z" />
    <glyph glyph-name="abreve.hist" unicode="&#xf028;" horiz-adv-x="604" 
d="M560 530l-22 -124l-34 -282l-9 -124h-60l-2 86q-32 -45 -82 -70.5t-108 -25.5q-98 0 -151 57t-53 162q0 146 73.5 238.5t198.5 92.5q58 0 101.5 -25.5t64.5 -70.5l23 86h60zM448 204l15 122q0 59 -40.5 105t-117.5 46q-89 0 -142.5 -73t-53.5 -186q0 -80 37.5 -122.5
t106.5 -42.5q76 0 130.5 47.5t64.5 103.5zM463 800h58q-13 -100 -59 -149t-144 -49t-132 49t-21 149h54q-10 -78 14.5 -110t89.5 -32t97.5 32t42.5 110z" />
    <glyph glyph-name="ainvertedbreve.hist" unicode="&#xf029;" horiz-adv-x="604" 
d="M560 530l-22 -124l-34 -282l-9 -124h-60l-2 86q-32 -45 -82 -70.5t-108 -25.5q-98 0 -151 57t-53 162q0 146 73.5 238.5t198.5 92.5q58 0 101.5 -25.5t64.5 -70.5l23 86h60zM448 204l15 122q0 59 -40.5 105t-117.5 46q-89 0 -142.5 -73t-53.5 -186q0 -80 37.5 -122.5
t106.5 -42.5q76 0 130.5 47.5t64.5 103.5zM197 592h-58q13 100 59 149t144 49t132 -49t21 -149h-54q10 78 -14.5 110t-89.5 32t-97.5 -32t-42.5 -110z" />
    <glyph glyph-name="adoublegrave.hist" unicode="&#xf030;" horiz-adv-x="604" 
d="M272 800h82l68 -208h-65zM132 800h82l68 -208h-65zM560 530l-22 -124l-34 -282l-9 -124h-60l-2 86q-32 -45 -82 -70.5t-108 -25.5q-98 0 -151 57t-53 162q0 146 73.5 238.5t198.5 92.5q58 0 101.5 -25.5t64.5 -70.5l23 86h60zM448 204l15 122q0 59 -40.5 105t-117.5 46
q-89 0 -142.5 -73t-53.5 -186q0 -80 37.5 -122.5t106.5 -42.5q76 0 130.5 47.5t64.5 103.5z" />
    <glyph glyph-name="aringacute.hist" unicode="&#xf031;" horiz-adv-x="604" 
d="M338 904h77l-71 -94q48 0 74.5 -26t26.5 -70q0 -57 -35.5 -94.5t-93.5 -37.5q-48 0 -74.5 26.5t-26.5 69.5q0 49 27 84zM337 754q-29 0 -46 -19t-17 -48q0 -22 13 -35.5t36 -13.5q28 0 46 19t18 48q0 22 -13 35.5t-37 13.5zM560 530l-22 -124l-34 -282l-9 -124h-60l-2 86
q-32 -45 -82 -70.5t-108 -25.5q-98 0 -151 57t-53 162q0 146 73.5 238.5t198.5 92.5q58 0 101.5 -25.5t64.5 -70.5l23 86h60zM448 204l15 122q0 59 -40.5 105t-117.5 46q-89 0 -142.5 -73t-53.5 -186q0 -80 37.5 -122.5t106.5 -42.5q76 0 130.5 47.5t64.5 103.5z" />
    <glyph glyph-name="aogonek.hist" unicode="&#xf032;" horiz-adv-x="604" 
d="M560 530l-22 -124l-34 -282l-9 -124q-58 -9 -103 -42t-45 -75q0 -38 50 -38q16 0 34.5 5.5t29.5 10.5l11 5l11 -51q-44 -25 -103 -25q-41 0 -70.5 20t-29.5 60q0 49 41.5 90t112.5 69l-1 57q-32 -45 -82 -70.5t-108 -25.5q-98 0 -151 57t-53 162q0 146 73.5 238.5
t198.5 92.5q58 0 101.5 -25.5t64.5 -70.5l23 86h60zM448 204l15 122q0 59 -40.5 105t-117.5 46q-89 0 -142.5 -73t-53.5 -186q0 -80 37.5 -122.5t106.5 -42.5q76 0 130.5 47.5t64.5 103.5z" />
    <glyph glyph-name="edoublegrave" unicode="&#xf033;" horiz-adv-x="570" 
d="M278 800h82l68 -208h-65zM138 800h82l68 -208h-65zM419 153l65 -23q-24 -62 -82.5 -101t-152.5 -39q-100 0 -155.5 55t-55.5 162q0 151 76.5 242t202.5 91q195 0 195 -207q0 -39 -8 -94h-395q-10 -90 31 -139t118 -49q130 0 161 102zM314 480q-166 0 -198 -182h323
q10 81 -20 131.5t-105 50.5z" />
    <glyph glyph-name="gtilde" unicode="&#xf034;" horiz-adv-x="599" 
d="M85 -47q5 -104 134 -104q82 0 137.5 31t63.5 97l15 128q-32 -44 -81.5 -69.5t-107.5 -25.5q-100 0 -153 53.5t-53 157.5q0 144 73.5 231.5t197.5 87.5q58 0 101.5 -25.5t64.5 -70.5l23 86h60l-22 -124l-51 -422q-11 -93 -82 -143.5t-186 -50.5q-189 0 -205 139zM305 477
q-89 0 -142 -67t-53 -179q0 -78 37.5 -118t107.5 -40q76 0 131 47.5t64 103.5l13 102q0 59 -40.5 105t-117.5 46zM407 630q-29 0 -51.5 11.5t-34.5 26t-29.5 26t-36.5 11.5q-24 0 -41 -13t-22 -26l-5 -13l-54 8q34 103 130 103q29 0 51.5 -11.5t34.5 -26t29.5 -26
t36.5 -11.5q24 0 41 13t22 26l5 13l55 -8q-36 -103 -131 -103z" />
    <glyph glyph-name="hcaron" unicode="&#xf035;" horiz-adv-x="574" 
d="M30 0l98 800h66l-44 -355q32 44 83 69.5t110 25.5q86 0 135.5 -46t39.5 -124l-45 -370h-66l43 355q7 57 -27 89.5t-98 32.5q-70 0 -125 -48t-64 -103l-40 -326h-66zM7 1030h65l98 -150l136 150h69l-176 -208h-68z" />
    <glyph glyph-name="idoublegrave" unicode="&#xf036;" horiz-adv-x="250" 
d="M52 0l65 530h66l-65 -530h-66zM112 800h82l68 -208h-65zM-28 800h82l68 -208h-65z" />
    <glyph glyph-name="idotaccent" unicode="&#xf037;" horiz-adv-x="250" 
d="M218 739l-10 -86h-86l10 86h86zM52 0l65 530h66l-65 -530h-66z" />
    <glyph glyph-name="kcedilla" unicode="&#xf038;" horiz-adv-x="535" 
d="M181 -75l23 49q120 -14 120 -88q0 -48 -33.5 -72t-86.5 -24q-49 0 -77 17l20 44q29 -13 59 -13q59 0 59 39t-84 48zM96 0h-66l98 800h66l-65 -532l109 97l187 165h95l-259 -225l231 -305h-91l-193 259l-90 -79z" />
    <glyph glyph-name="lcedilla" unicode="&#xf039;" horiz-adv-x="250" 
d="M52 0l98 800h66l-98 -800h-66zM38 -75l23 49q120 -14 120 -88q0 -48 -33.5 -72t-86.5 -24q-49 0 -77 17l20 44q29 -13 59 -13q59 0 59 39t-84 48z" />
    <glyph glyph-name="ngrave" unicode="&#xf040;" horiz-adv-x="574" 
d="M219 800h82l68 -208h-65zM149 530l1 -85q32 44 83 69.5t110 25.5q86 0 135.5 -46t39.5 -124l-45 -370h-66l43 355q7 57 -27 89.5t-98 32.5q-70 0 -125 -48t-64 -103l-40 -326h-66l49 407l10 123h60z" />
    <glyph glyph-name="ncedilla" unicode="&#xf041;" horiz-adv-x="574" 
d="M203 -75l23 49q120 -14 120 -88q0 -48 -33.5 -72t-86.5 -24q-49 0 -77 17l20 44q29 -13 59 -13q59 0 59 39t-84 48zM149 530l1 -85q32 44 83 69.5t110 25.5q86 0 135.5 -46t39.5 -124l-45 -370h-66l43 355q7 57 -27 89.5t-98 32.5q-70 0 -125 -48t-64 -103l-40 -326h-66
l49 407l10 123h60z" />
    <glyph glyph-name="odoublegrave" unicode="&#xf042;" horiz-adv-x="578" 
d="M276 800h82l68 -208h-65zM136 800h82l68 -208h-65zM247 -10q-99 0 -154 55t-55 161q0 152 75.5 243t201.5 91q100 0 154.5 -55t54.5 -161q0 -152 -75.5 -243t-201.5 -91zM307 478q-92 0 -145.5 -71.5t-53.5 -192.5q0 -162 147 -162q92 0 145.5 71.5t53.5 192.5
q0 162 -147 162z" />
    <glyph glyph-name="ounderlineaccent" unicode="&#xf043;" horiz-adv-x="578" 
d="M254 -200h-60l20 160h60zM247 -10q-99 0 -154 55t-55 161q0 152 75.5 243t201.5 91q100 0 154.5 -55t54.5 -161q0 -152 -75.5 -243t-201.5 -91zM307 478q-92 0 -145.5 -71.5t-53.5 -192.5q0 -162 147 -162q92 0 145.5 71.5t53.5 192.5q0 162 -147 162z" />
    <glyph glyph-name="rdoublegrave" unicode="&#xf044;" horiz-adv-x="395" 
d="M207 800h82l68 -208h-65zM67 800h82l68 -208h-65zM338 540q37 0 58 -8l-16 -68q-21 9 -50 9q-76 0 -131 -47.5t-64 -103.5l-39 -322h-66l49 407l10 123h60v-94q30 45 81.5 74.5t107.5 29.5z" />
    <glyph glyph-name="rcedilla" unicode="&#xf045;" horiz-adv-x="395" 
d="M16 -75l23 49q120 -14 120 -88q0 -48 -33.5 -72t-86.5 -24q-49 0 -77 17l20 44q29 -13 59 -13q59 0 59 39t-84 48zM338 540q37 0 58 -8l-16 -68q-21 9 -50 9q-76 0 -131 -47.5t-64 -103.5l-39 -322h-66l49 407l10 123h60l1 -89q29 44 80 71.5t108 27.5z" />
    <glyph glyph-name="udoublegrave" unicode="&#xf046;" horiz-adv-x="574" 
d="M130 800h82l68 -208h-65zM270 800h82l68 -208h-65zM410 0l-2 85q-32 -44 -83 -69.5t-110 -25.5q-86 0 -135.5 46.5t-39.5 123.5l46 370h66l-44 -355q-7 -57 27.5 -89.5t97.5 -32.5q70 0 125 48t65 103l40 326h66l-50 -407l-9 -123h-60z" />
    <glyph glyph-name="ue" unicode="&#xf047;" horiz-adv-x="958" 
d="M646 51q130 0 161 102l65 -23q-24 -62 -82.5 -101t-152.5 -39q-156 0 -198 124q-91 -124 -224 -124q-85 0 -134.5 45.5t-40.5 124.5l46 370h66l-44 -355q-7 -58 27 -90t98 -32q70 0 125 48t65 103l6 58q14 132 89.5 205t186.5 73q195 0 195 -207q0 -39 -8 -94h-395
q-10 -90 31 -139t118 -49zM702 480q-165 0 -198 -182h323q10 83 -20.5 132.5t-104.5 49.5z" />
    <glyph glyph-name="ymacron" unicode="&#xf048;" horiz-adv-x="540" 
d="M175 664l8 64h272l-8 -64h-272zM547 530l-270 -494l-125 -236h-76l119 220l-152 510h77l79 -291l41 -152l77 152l152 291h78z" />
    <glyph glyph-name="yoghcaron" unicode="&#xf049;" horiz-adv-x="535" 
d="M54 -46q5 -107 141 -107q86 0 139.5 55.5t53.5 146.5q0 68 -39.5 104t-107.5 36q-62 0 -103 -27l-34 43l211 188l87 75h-331l8 62h419l-7 -54l-254 -226h18q88 0 144.5 -50.5t56.5 -143.5q0 -118 -80 -192t-182 -74q-192 0 -207 142zM427 800h67l-176 -208h-68l-124 208
h67l98 -150z" />
    <glyph glyph-name="cordinal" unicode="&#xf050;" horiz-adv-x="440" 
d="M79 544q0 109 56 177.5t150 68.5q132 0 148 -107l-64 -22q-5 35 -25 53t-63 18q-61 0 -99 -50t-38 -128q0 -56 26 -86t74 -30q79 0 106 71l60 -21q-43 -108 -175 -108q-75 0 -115.5 43t-40.5 121z" />
    <glyph glyph-name="a.superior" unicode="&#xf051;" horiz-adv-x="432" 
d="M328 516l10 80q-2 30 -26.5 54t-65.5 24q-48 0 -78.5 -40.5t-30.5 -103.5q0 -44 21.5 -68t58.5 -24q41 0 71.5 24t39.5 54zM402 640l-20 -167l-7 -83h-54l-2 48q-40 -56 -114 -56q-63 0 -96 35t-33 101q-2 93 45 152t127 59q35 0 62 -14.5t38 -39.5l14 47h54z" />
    <glyph glyph-name="b.superior" unicode="&#xf052;" horiz-adv-x="432" 
d="M282 729q63 0 96.5 -35.5t33.5 -101.5q0 -93 -46.5 -151.5t-126.5 -58.5q-73 0 -101 56l-14 -48h-53l14 83l51 418h60l-26 -213q43 51 112 51zM160 596l-10 -80q0 -30 24.5 -54t64.5 -24q49 0 79.5 40.5t30.5 103.5q0 45 -21 68.5t-60 23.5q-40 0 -70.5 -24t-37.5 -54z
" />
    <glyph glyph-name="c.superior" unicode="&#xf053;" horiz-adv-x="395" 
d="M251 676q-53 0 -85 -40.5t-32 -105.5q0 -45 23.5 -69.5t63.5 -24.5q68 0 86 56l56 -20q-31 -90 -153 -90q-64 0 -99 36t-35 103q0 92 48 150t129 58q123 0 130 -89l-60 -21q-5 57 -72 57z" />
    <glyph glyph-name="d.superior" unicode="&#xf054;" horiz-adv-x="432" 
d="M248 729q70 0 100 -51l26 213h59l-51 -418l-7 -83h-54l-2 48q-40 -56 -114 -56q-63 0 -96 35t-33 101q-2 93 45 152t127 59zM328 516l10 80q-2 30 -26.5 54t-65.5 24q-48 0 -78.5 -40.5t-30.5 -103.5q0 -44 21.5 -68t58.5 -24q41 0 71.5 24t39.5 54z" />
    <glyph glyph-name="e.superior" unicode="&#xf055;" horiz-adv-x="412" 
d="M382 531h-245q-3 -48 19.5 -72t65.5 -24q71 0 88 53l58 -21q-33 -85 -153 -85q-67 0 -103 35.5t-36 103.5q0 95 49 151.5t131 56.5q131 0 131 -135q0 -33 -5 -63zM251 678q-89 0 -108 -96h180q5 44 -12.5 70t-59.5 26z" />
    <glyph glyph-name="f.superior" unicode="&#xf056;" horiz-adv-x="283" 
d="M79 671l6 51h67l6 48q7 59 37 94t100 35q25 0 43 -8l-12 -55q-24 8 -37 8q-34 0 -50 -16.5t-21 -60.5l-6 -45h94l-6 -51h-94l-51 -406h-60l51 406h-67z" />
    <glyph glyph-name="g.superior" unicode="&#xf057;" horiz-adv-x="432" 
d="M402 640l-32 -258q-7 -60 -54.5 -92.5t-119.5 -32.5q-131 0 -139 87l64 22q3 -56 74 -56q106 0 116 70l9 69q-43 -51 -113 -51q-62 0 -96 34t-34 98q0 91 46.5 145t124.5 54q74 0 100 -54l14 47h54zM330 531l8 65q-3 31 -26.5 54.5t-64.5 23.5q-50 0 -79 -36.5t-29 -99.5
q0 -84 81 -84q41 0 70.5 23.5t39.5 53.5z" />
    <glyph glyph-name="h.superior" unicode="&#xf058;" horiz-adv-x="424" 
d="M199 891l-26 -214q42 52 111 52q56 0 88.5 -30.5t25.5 -81.5l-28 -227h-60l27 217q4 31 -15.5 49t-52.5 18q-39 0 -69 -25t-37 -53l-26 -206h-60l62 501h60z" />
    <glyph glyph-name="i.superior" unicode="&#xf059;" horiz-adv-x="244" 
d="M99 390l41 332h60l-41 -332h-60zM222 860l-9 -70h-70l9 70h70z" />
    <glyph glyph-name="j.superior" unicode="&#xf060;" horiz-adv-x="244" 
d="M222 860l-9 -70h-70l9 70h70zM99 389l41 333h60l-41 -336q-7 -58 -37.5 -93.5t-99.5 -35.5q-24 0 -44 8l13 55q20 -8 34 -8q35 0 51.5 16t22.5 61z" />
    <glyph glyph-name="k.superior" unicode="&#xf061;" horiz-adv-x="384" 
d="M137 390h-60l62 501h60l-40 -321l168 152h81l-161 -143l141 -189h-78l-110 150l-49 -43z" />
    <glyph glyph-name="l.superior" unicode="&#xf062;" horiz-adv-x="244" 
d="M99 390l62 501h60l-62 -501h-60z" />
    <glyph glyph-name="m.superior" unicode="&#xf063;" horiz-adv-x="603" 
d="M489 390l27 218q8 66 -57 66q-32 0 -57.5 -24t-33.5 -54l-26 -206h-60l27 218q8 66 -58 66q-31 0 -57 -24t-34 -54l-26 -206h-60l31 250l7 82h53l2 -47q41 54 103 54q79 0 95 -61q43 61 111 61q54 0 80.5 -30.5t20.5 -81.5l-28 -227h-60z" />
    <glyph glyph-name="n.superior" unicode="&#xf064;" horiz-adv-x="422" 
d="M165 722l2 -47q43 54 115 54q56 0 88.5 -30t25.5 -82l-28 -227h-60l27 217q4 31 -14 49t-56 18t-67.5 -25t-37.5 -53l-26 -206h-60l31 250l7 82h53z" />
    <glyph glyph-name="o.superior" unicode="&#xf065;" horiz-adv-x="413" 
d="M219 437q50 0 82 39.5t32 106.5q0 92 -85 92q-51 0 -81.5 -40t-30.5 -108q0 -90 83 -90zM212 382q-65 0 -100.5 35t-35.5 104q0 96 48.5 152t130.5 56q66 0 102 -34.5t36 -103.5q0 -96 -49 -152.5t-132 -56.5z" />
    <glyph glyph-name="p.superior" unicode="&#xf066;" horiz-adv-x="432" 
d="M239 382q-69 0 -99 53l-21 -170h-60l46 375l7 82h53l2 -47q41 54 115 54q63 0 96.5 -35.5t33.5 -101.5q0 -93 -46.5 -151.5t-126.5 -58.5zM160 596l-10 -80q0 -30 24.5 -54t64.5 -24q49 0 79.5 41t30.5 103q0 45 -21 68.5t-60 23.5q-40 0 -70.5 -24t-37.5 -54z" />
    <glyph glyph-name="q.superior" unicode="&#xf067;" horiz-adv-x="432" 
d="M205 382q-63 0 -96 35t-33 101q-2 93 45 152t127 59q35 0 62 -14.5t38 -39.5l14 47h54l-14 -82l-46 -375h-59l21 170q-43 -53 -113 -53zM328 516l10 80q-2 31 -26.5 54.5t-65.5 23.5q-48 0 -78.5 -40.5t-30.5 -103.5q0 -44 21.5 -68t58.5 -24q41 0 71.5 24t39.5 54z" />
    <glyph glyph-name="r.superior" unicode="&#xf068;" horiz-adv-x="298" 
d="M273 672q-40 0 -72.5 -24t-41.5 -54l-25 -204h-60l31 250l7 82h53l3 -51q18 26 47.5 42t62.5 16q29 0 44 -6l-12 -59q-19 8 -37 8z" />
    <glyph glyph-name="s.superior" unicode="&#xf069;" horiz-adv-x="376" 
d="M198 435q96 4 96 61q0 11 -4 18t-17.5 11t-21 5.5t-33.5 3.5q-6 1 -9 1q-21 2 -33 3.5t-32 7t-30.5 13t-19 21t-8.5 32.5q0 57 46.5 87t101.5 30q119 0 129 -85l-63 -21q-3 54 -68 54q-82 0 -82 -53q0 -20 18 -27.5t58 -10.5q27 -2 38 -3.5t33 -6.5t32 -12.5t19 -22.5
t9 -35q0 -61 -49.5 -92.5t-115.5 -31.5q-121 0 -131 86l64 22q2 -55 73 -55z" />
    <glyph glyph-name="t.superior" unicode="&#xf070;" horiz-adv-x="288" 
d="M69 671l6 51h60l11 88l60 11l-12 -99h102l-6 -51h-102l-19 -157q-6 -44 7 -60t46 -16q19 0 40 8l-1 -56q-29 -8 -46 -8q-70 0 -91.5 35t-14.5 94l20 160h-60z" />
    <glyph glyph-name="u.superior" unicode="&#xf071;" horiz-adv-x="422" 
d="M310 390l-1 48q-43 -56 -114 -56q-57 0 -89 30.5t-25 82.5l28 227h60l-26 -216q-8 -68 68 -68q38 0 68.5 25t37.5 53l25 206h59l-31 -250l-5 -82h-55z" />
    <glyph glyph-name="v.superior" unicode="&#xf072;" horiz-adv-x="377" 
d="M166 382l-96 340h64l47 -184l22 -90l41 90l91 184h68l-179 -340h-58z" />
    <glyph glyph-name="w.superior" unicode="&#xf073;" horiz-adv-x="550" 
d="M332 573l-18 76l-36 -76l-89 -191h-60l-39 340h59l17 -176l6 -81l120 257h62l40 -176l17 -81l26 81l60 176h59l-123 -340h-59z" />
    <glyph glyph-name="x.superior" unicode="&#xf074;" horiz-adv-x="379" 
d="M243 465l-31 51l-41 -51l-66 -75h-75l152 173l-21 31l-80 128h72l37 -63l33 -55l99 118h73l-139 -159l107 -173h-74z" />
    <glyph glyph-name="y.superior" unicode="&#xf075;" horiz-adv-x="372" 
d="M402 722l-172 -309l-79 -148h-68l81 141l-98 316h66l47 -172l23 -83l132 255h68z" />
    <glyph glyph-name="z.superior" unicode="&#xf076;" horiz-adv-x="382" 
d="M245 620l52 48h-198l6 54h278l-5 -44l-188 -186l-52 -48h217l-7 -54h-296l6 45z" />
    <glyph glyph-name="caronSlovak" unicode="&#xf078;" 
d="M385 800h79l-101 -208h-61z" />
    <glyph glyph-name="altcedilla" unicode="&#xf079;" 
d="M201 -75l23 49q120 -14 120 -88q0 -48 -33.5 -72t-86.5 -24q-49 0 -77 17l20 44q29 -13 59 -13q59 0 59 39t-84 48z" />
    <glyph glyph-name="acute.cap" unicode="&#xf080;" 
d="M450 1030h82l-137 -208h-65z" />
    <glyph glyph-name="grave.cap" unicode="&#xf081;" 
d="M250 1030h82l68 -208h-65z" />
    <glyph glyph-name="circumflex.cap" unicode="&#xf082;" 
d="M542 822h-65l-98 150l-136 -150h-69l176 208h68z" />
    <glyph glyph-name="dieresis.cap" unicode="&#xf083;" 
d="M328 969l-10 -86h-86l10 86h86zM514 969l-10 -86h-86l10 86h86z" />
    <glyph glyph-name="tilde.cap" unicode="&#xf084;" 
d="M445 860q-29 0 -51.5 11.5t-34.5 26t-29.5 26t-36.5 11.5q-24 0 -41 -13t-22 -26l-5 -13l-54 8q34 103 130 103q29 0 51.5 -11.5t34.5 -26t29.5 -26t36.5 -11.5q24 0 41 13t22 26l5 13l55 -8q-36 -103 -131 -103z" />
    <glyph glyph-name="ring.cap" unicode="&#xf085;" 
d="M258 908q0 56 35.5 94t93.5 38q48 0 74.5 -26t26.5 -70q0 -57 -35.5 -94.5t-93.5 -37.5q-48 0 -74.5 26.5t-26.5 69.5zM380 984q-29 0 -46 -19t-17 -48q0 -22 13 -35.5t36 -13.5q28 0 46 19t18 48q0 22 -13 35.5t-37 13.5z" />
    <glyph glyph-name="caron.cap" unicode="&#xf086;" 
d="M204 1030h65l98 -150l136 150h69l-176 -208h-68z" />
    <glyph glyph-name="macron.cap" unicode="&#xf087;" 
d="M233 894l8 64h272l-8 -64h-272z" />
    <glyph glyph-name="breve.cap" unicode="&#xf088;" 
d="M506 1030h58q-13 -100 -59 -149t-144 -49t-132 49t-21 149h54q-10 -78 14.5 -110t89.5 -32t97.5 32t42.5 110z" />
    <glyph glyph-name="invertedbreve.cap" unicode="&#xf089;" 
d="M240 822h-58q13 100 59 149t144 49t132 -49t21 -149h-54q10 78 -14.5 110t-89.5 32t-97.5 -32t-42.5 -110z" />
    <glyph glyph-name="hungarumlaut.cap" unicode="&#xf090;" 
d="M375 1030h82l-137 -208h-65zM515 1030h82l-137 -208h-65z" />
    <glyph glyph-name="doublegrave.cap" unicode="&#xf091;" 
d="M315 1030h82l68 -208h-65zM175 1030h82l68 -208h-65z" />
    <glyph glyph-name="dotaccent.cap" unicode="&#xf092;" 
d="M421 969l-10 -86h-86l10 86h86z" />
    <glyph glyph-name="exclamdown.cap" unicode="&#xf093;" horiz-adv-x="260" 
d="M138 0h-96l102 590h36zM228 780l-10 -86h-86l10 86h86z" />
    <glyph glyph-name="questiondown.cap" unicode="&#xf094;" horiz-adv-x="570" 
d="M338 590h46q5 -29 5 -63q0 -42 -10.5 -73.5t-32.5 -52t-36.5 -29.5t-42.5 -22q-82 -38 -109 -62q-54 -46 -54 -119q0 -116 148 -116q157 0 200 139l63 -21q-66 -181 -270 -181q-96 0 -154 46.5t-58 129.5q0 23 4.5 44t11 37.5t18 32.5t21.5 27.5t26 24t26.5 19.5
t28.5 16.5t26 13t25 11.5t20 9q4 2 11 5q25 11 36.5 18t26 22t20.5 39t6 59q0 12 -2 46zM315 694l10 86h86l-10 -86h-86z" />
    <glyph glyph-name="interrobangdown" unicode="&#xf095;" horiz-adv-x="535" 
d="M200 171q44 20 54 28l24 141h36l-34 -483q103 18 142 135l63 -21q-67 -181 -265 -181q-104 0 -163.5 51t-48.5 139q4 34 17 61.5t28.5 45t38.5 33t39 22.5t39 16.5t30 12.5zM78 -20q-14 -113 116 -125l47 270q-1 -1 -4.5 -2.5t-5.5 -1.5q-9 -4 -37.5 -16t-41.5 -19.5
t-32 -22.5t-29 -35.5t-13 -47.5zM363 530l-11 -86h-86l11 86h86z" />
    <glyph glyph-name="interrobangdown.cap" unicode="&#xf096;" horiz-adv-x="570" 
d="M345 590l-38 -532q110 20 145 134l63 -21q-67 -181 -270 -181q-96 0 -154 46.5t-58 129.5q0 23 4.5 44t11 37.5t18 32.5t21.5 27.5t26 24t26.5 19.5t28.5 16.5t26 13t25 11.5t20 9q35 17 40 19l29 170h36zM267 350q-34 -13 -58.5 -26t-50.5 -34.5t-40 -51.5t-14 -68
q0 -101 112 -115l52 295h-1zM297 694l10 86h86l-10 -86h-86z" />
    <glyph glyph-name="reversequoteleft" unicode="&#xf097;" horiz-adv-x="155" 
d="M44 780h93v-250h-33z" />
    <glyph glyph-name="reversequotedblleft" unicode="&#xf098;" horiz-adv-x="310" 
d="M199 780h93v-250h-33zM44 780h93v-250h-33z" />
    <glyph glyph-name="guilsinglleft.cap" unicode="&#xf099;" horiz-adv-x="300" 
d="M242 268l-7 -58l-191 140l10 80l225 140l-7 -60l-161 -124z" />
    <glyph glyph-name="guilsinglright.cap" unicode="&#xf100;" horiz-adv-x="300" 
d="M72 512l7 58l191 -140l-10 -80l-225 -140l7 60l161 124z" />
    <glyph glyph-name="guillemotleft.cap" unicode="&#xf101;" horiz-adv-x="520" 
d="M242 268l-7 -58l-191 140l10 80l225 140l-7 -60l-161 -124zM462 268l-7 -58l-191 140l10 80l225 140l-7 -60l-161 -124z" />
    <glyph glyph-name="guillemotright.cap" unicode="&#xf102;" horiz-adv-x="520" 
d="M292 512l7 58l191 -140l-10 -80l-225 -140l7 60l161 124zM72 512l7 58l191 -140l-10 -80l-225 -140l7 60l161 124z" />
    <glyph glyph-name="onethirdemdash" unicode="&#xf104;" horiz-adv-x="333" 
d="M288 367l-8 -64h-233l8 64h233z" />
    <glyph glyph-name="threequarteremdash" unicode="&#xf105;" horiz-adv-x="750" 
d="M705 367l-8 -64h-650l8 64h650z" />
    <glyph glyph-name="parenleft.cap" unicode="&#xf113;" horiz-adv-x="240" 
d="M291 870q-172 -290 -172 -629q0 -170 55 -331h-65q-61 130 -61 337q0 163 53.5 346.5t124.5 276.5h65z" />
    <glyph glyph-name="parenright.cap" unicode="&#xf114;" horiz-adv-x="240" 
d="M-36 -90q172 290 172 629q0 170 -55 331h65q61 -130 61 -337q0 -163 -53.5 -346.5t-124.5 -276.5h-65z" />
    <glyph glyph-name="bracketleft.cap" unicode="&#xf115;" horiz-adv-x="240" 
d="M228 804l-101 -828h60l-9 -66h-130l118 960h130l-8 -66h-60z" />
    <glyph glyph-name="bracketright.cap" unicode="&#xf116;" horiz-adv-x="240" 
d="M27 -24l101 828h-60l8 66h130l-118 -960h-129l8 66h60z" />
    <glyph glyph-name="braceleft.cap" unicode="&#xf117;" horiz-adv-x="280" 
d="M19 421h19q40 0 59.5 19.5t26.5 78.5l25 198q17 153 168 153h19l-8 -66h-19q-42 0 -65.5 -20.5t-30.5 -77.5l-24 -194q-10 -84 -61 -122q43 -39 31 -122l-23 -194q-7 -57 11.5 -77.5t60.5 -20.5h19l-8 -66h-19q-149 0 -132 153l25 198q7 59 -7.5 78.5t-54.5 19.5h-19z
" />
    <glyph glyph-name="braceright.cap" unicode="&#xf118;" horiz-adv-x="280" 
d="M276 359h-19q-40 0 -59.5 -19.5t-26.5 -78.5l-25 -198q-17 -153 -168 -153h-19l8 66h19q42 0 65.5 20.5t30.5 77.5l24 194q10 84 61 122q-43 39 -31 122l23 194q7 57 -11.5 77.5t-60.5 20.5h-19l8 66h19q149 0 132 -153l-25 -198q-7 -59 7.5 -78.5t54.5 -19.5h19z" />
    <glyph glyph-name="anglebracketleft.cap" unicode="&#xf119;" horiz-adv-x="240" 
d="M118 390l61 -480h-68l-64 480l181 480h68z" />
    <glyph glyph-name="anglebracketright.cap" unicode="&#xf120;" horiz-adv-x="240" 
d="M136 390l-61 480h68l64 -480l-181 -480h-68z" />
    <glyph glyph-name="lowline" unicode="&#xf121;" horiz-adv-x="300" 
d="M240 0h-260l7 64h260z" />
    <glyph glyph-name="tripleprime" unicode="&#xf122;" horiz-adv-x="480" 
d="M102 780h86l-53 -250h-33v250zM252 780h86l-53 -250h-33v250zM402 780h86l-53 -250h-33v250z" />
    <glyph glyph-name="at.cap" unicode="&#xf123;" horiz-adv-x="1010" 
d="M575 895q202 0 304.5 -93.5t102.5 -252.5q0 -184 -75.5 -289t-232.5 -105h-35l-2 86q-27 -44 -76.5 -70t-102.5 -26q-86 0 -141 49t-55 149q0 136 74.5 214t181.5 78q53 0 96.5 -26t59.5 -70l23 86h60l-22 -124l-27 -222l-6 -64q59 -3 103 23.5t68 73.5t35.5 102.5
t11.5 120.5q0 129 -86.5 214t-266.5 85q-106 0 -192.5 -42t-142.5 -114.5t-86 -167.5t-30 -203q0 -166 89 -263.5t263 -97.5q136 0 218.5 38t106.5 89l63 -22q-37 -68 -135.5 -117t-259.5 -49q-194 0 -302 109t-108 304q0 171 65 306.5t185 213t274 77.5zM652 359l8 62
q0 60 -36.5 105.5t-111.5 45.5q-83 0 -133.5 -58t-50.5 -167q0 -139 139 -139q73 0 124.5 47t60.5 104z" />
    <glyph glyph-name="registered.superior" unicode="&#xf124;" horiz-adv-x="330" 
d="M52 622q0 67 51.5 117.5t117.5 50.5q57 0 95 -38t38 -94q0 -67 -51 -117.5t-118 -50.5q-57 0 -95 38.5t-38 93.5zM219 766q-55 0 -98.5 -42.5t-43.5 -98.5q0 -47 31.5 -78.5t79.5 -31.5q57 0 99.5 42t42.5 100q0 47 -31.5 78t-79.5 31zM161 622l-9 -70h-24l22 177h72
q53 0 53 -43q0 -25 -13 -42.5t-33 -19.5l35 -72h-30l-31 70h-42zM164 645h51q35 0 35 38q0 22 -28 22h-51z" />
    <glyph glyph-name="published" unicode="&#xf125;" horiz-adv-x="880" 
d="M368 396h120q41 0 71 23t30 79q0 66 -80 66h-120zM361 335l-22 -180h-63l57 470h178q144 0 144 -118q0 -88 -53 -130t-126 -42h-115zM44 341q0 118 63 222t167.5 165.5t221.5 61.5q152 0 253 -100.5t101 -248.5q0 -89 -37 -172.5t-99 -144t-145 -97.5t-171 -37
q-152 0 -253 101t-101 250zM489 725q-150 0 -264.5 -112.5t-114.5 -262.5q0 -125 84.5 -210t211.5 -85q151 0 265 113t114 264q0 124 -84.5 208.5t-211.5 84.5z" />
    <glyph glyph-name="zero.slash" unicode="&#xf126;" horiz-adv-x="700" 
d="M405 774q125 0 182 -66.5t57 -205.5q0 -110 -19 -200.5t-58 -161.5t-105 -110.5t-154 -39.5q-125 0 -182.5 67t-57.5 207q0 110 19.5 200t58.5 161t105.5 110t153.5 39zM316 53q88 0 147.5 61.5t84.5 158t25 222.5q0 79 -19 126l-355 -535q42 -33 117 -33zM397 711
q-88 0 -147.5 -61.5t-85 -158t-25.5 -222.5q0 -77 20 -126l354 534q-43 34 -116 34z" />
    <glyph glyph-name="zero.LP" unicode="&#xf127;" horiz-adv-x="700" 
d="M316 53q67 0 117.5 35t80.5 97t44.5 140.5t14.5 171.5q0 112 -42 163t-134 51q-88 0 -147.5 -61.5t-85 -158t-25.5 -222.5q0 -113 42.5 -164.5t134.5 -51.5zM405 774q125 0 182 -66.5t57 -205.5q0 -110 -19 -200.5t-58 -161.5t-105 -110.5t-154 -39.5q-125 0 -182.5 67
t-57.5 207q0 110 19.5 200t58.5 161t105.5 110t153.5 39z" />
    <glyph glyph-name="one.LP" unicode="&#xf128;" horiz-adv-x="406" 
d="M246 0h-68l82 668q-63 -61 -191 -104l8 69q69 26 111 55.5t94 85.5h59z" />
    <glyph glyph-name="two.LP" unicode="&#xf129;" horiz-adv-x="693" 
d="M167 572l-64 22q67 180 305 180q103 0 169 -49t66 -140q0 -25 -4.5 -47.5t-10.5 -40t-19.5 -35t-22.5 -29t-30 -25.5t-31.5 -21.5t-37 -20t-37.5 -17.5t-41.5 -18t-40.5 -17q-131 -56 -192.5 -110t-76.5 -140l229 1h272l-7 -65h-572q7 66 28.5 118.5t47.5 87.5t71.5 67
t83.5 51t100 45q124 53 150 68q59 36 70 96q4 19 4 43q0 39 -18 67.5t-47.5 42t-56.5 19t-54 5.5q-100 0 -155 -32.5t-78 -105.5z" />
    <glyph glyph-name="three.LP" unicode="&#xf130;" horiz-adv-x="682" 
d="M159 572l-64 22q63 180 292 180q109 0 177 -43.5t68 -131.5q0 -83 -50 -140t-113 -60q57 -7 101 -47.5t44 -113.5q0 -109 -86 -178.5t-243 -69.5q-232 0 -254 179l69 24q2 -74 50.5 -108t151.5 -34q117 0 180 46.5t63 139.5q0 34 -13 58t-31 37t-48.5 20t-54 8.5
t-58.5 1.5h-103l8 65h103q37 0 65 3t57.5 13.5t48.5 28t31.5 48.5t12.5 74q0 117 -175 117q-102 0 -155 -32.5t-74 -106.5z" />
    <glyph glyph-name="four.LP" unicode="&#xf131;" horiz-adv-x="661" 
d="M598 185h-145l-22 -185h-66l22 185h-360l6 51l430 538h63l-65 -525h145zM395 249l38 310l16 115l-83 -110l-171 -213l-84 -102h284z" />
    <glyph glyph-name="five.LP" unicode="&#xf132;" horiz-adv-x="671" 
d="M113 196q5 -75 44 -110t131 -35q107 0 177 61t70 182q0 154 -174 154q-127 0 -197 -70l-56 19l82 367h428l-8 -65h-374l-55 -243q78 53 192 53q112 0 171.5 -54t59.5 -156q0 -143 -90 -226t-222 -83q-126 0 -182 47t-66 135z" />
    <glyph glyph-name="six.LP" unicode="&#xf133;" horiz-adv-x="683" 
d="M580 601q-5 56 -41 83.5t-114 27.5q-121 0 -197 -83t-90 -259q37 63 104.5 96.5t146.5 33.5q105 0 165.5 -57t60.5 -157q0 -132 -84.5 -214t-214.5 -82q-126 0 -186 70t-60 213q0 148 37 257.5t122 176.5t212 67q97 0 150 -43t60 -106zM544 282q0 153 -172 153
q-99 0 -164.5 -59.5t-68.5 -167.5q10 -82 53.5 -119.5t124.5 -37.5q100 0 163.5 60t63.5 171z" />
    <glyph glyph-name="seven.LP" unicode="&#xf134;" horiz-adv-x="613" 
d="M197 0h-72l349 597l62 102h-441l8 65h513l-6 -51z" />
    <glyph glyph-name="eight.LP" unicode="&#xf135;" horiz-adv-x="682" 
d="M352 423q210 0 210 170q0 118 -174 118q-209 0 -209 -168q0 -70 47 -95t126 -25zM307 51q232 0 232 174q0 136 -194 136q-43 0 -80.5 -8.5t-74 -28t-57.5 -57.5t-21 -91q0 -125 195 -125zM299 -10q-127 0 -192 46t-65 130q0 96 57.5 159t128.5 67q-52 8 -85 48t-33 103
q0 78 42 131.5t104.5 76.5t139.5 23q103 0 169.5 -42t66.5 -130q0 -81 -48.5 -142.5t-113.5 -67.5q58 -9 98 -48.5t40 -113.5q0 -113 -79.5 -176.5t-229.5 -63.5z" />
    <glyph glyph-name="nine.LP" unicode="&#xf136;" horiz-adv-x="683" 
d="M116 163q5 -56 41 -83.5t114 -27.5q121 0 197 83t90 259q-37 -63 -104.5 -96.5t-146.5 -33.5q-105 0 -165.5 57t-60.5 157q0 132 84.5 214t214.5 82q126 0 186 -70t60 -213q0 -148 -37 -257.5t-122 -176.5t-212 -67q-97 0 -150 43t-60 106zM152 482q0 -153 172 -153
q99 0 164.5 59.5t68.5 167.5q-10 82 -53.5 119.5t-124.5 37.5q-100 0 -163.5 -60t-63.5 -171z" />
    <glyph glyph-name="Eurooldstyle" unicode="&#xf137;" horiz-adv-x="593" 
d="M478 377q-11 102 -127 102q-127 0 -178 -122h277l-28 -64h-267q-4 -26 -6 -56h250l-28 -64h-220q20 -120 141 -122q125 0 158 102l65 -23q-55 -140 -230 -140q-90 0 -143 47.5t-62 135.5h-79l8 64h70l6 56h-70l8 64h79q32 88 96.5 135.5t154.5 47.5q175 0 195 -140z" />
    <glyph glyph-name="sterlingoldstyle" unicode="&#xf138;" 
d="M489 383q-2 94 -118 94q-153 0 -168 -124l-7 -57h199l-8 -62h-199l-21 -172h355l-7 -62h-511l7 62h90l21 172h-90l8 62h90l6 48q11 91 75 143.5t162 52.5q91 0 136 -39t49 -95z" />
    <glyph glyph-name="florinoldstyle" unicode="&#xf139;" horiz-adv-x="395" 
d="M121 234h-110l8 62h110l4 36q6 46 16.5 79.5t32.5 64.5t62 47.5t96 16.5q34 0 56 -8l-16 -64q-24 9 -48 9q-63 0 -92.5 -29t-40.5 -116l-4 -36h149l-8 -62h-149l-29 -236q-5 -46 -16 -79.5t-32.5 -64.5t-61 -47.5t-95.5 -16.5q-35 0 -56 8l16 64q21 -9 47 -9q63 0 92 29
t40 116z" />
    <glyph glyph-name="yenoldstyle" unicode="&#xf140;" horiz-adv-x="520" 
d="M49 530h77l66 -128l62 -122l92 122l98 128h77l-207 -264h124l-7 -62h-153l-7 -56h153l-8 -62h-153l-10 -86h-66l10 86h-153l8 62h153l7 56h-153l7 62h123z" />
    <glyph glyph-name="uni20A1oldstyle" unicode="&#xf141;" horiz-adv-x="550" 
d="M20 -46l57 111q-38 55 -38 145q0 146 74.5 238t199.5 92h9l18 36h68l-22 -44q15 -3 29 -9l27 53h68l-44 -85q32 -34 42 -90l-70 -24q-3 24 -10 40l-188 -366h12q125 0 158 102l65 -23q-55 -140 -230 -140q-15 0 -35 2l-20 -38h-68l27 53q-17 8 -27 15l-34 -68h-68z
M289 478q-82 -1 -131.5 -79t-49.5 -183q0 -42 10 -71zM385 465q-13 6 -29 9l-201 -389q15 -13 25 -18z" />
    <glyph glyph-name="uni20A2oldstyle" unicode="&#xf142;" horiz-adv-x="550" 
d="M507 313l-15 -67q-10 2 -22 2q-76 0 -130.5 -47.5t-64.5 -103.5l-5 -46q107 4 140 102l65 -23q-55 -140 -230 -140q-99 0 -152.5 57.5t-53.5 162.5q0 146 74.5 238t199.5 92q175 0 195 -139l-70 -24q-11 102 -127 102q-92 0 -147.5 -73t-55.5 -189q0 -131 97 -159l15 124
l9 123h60l1 -89q29 44 80 71.5t108 27.5q17 0 29 -2z" />
    <glyph glyph-name="uni20A3oldstyle" unicode="&#xf143;" horiz-adv-x="560" 
d="M430 173h-239l-21 -173h-66l21 173h-100l7 62h100l8 61h-100l7 62h100l22 172h376l-8 -63h-310l-14 -109h239l-7 -62h-239l-8 -61h239z" />
    <glyph glyph-name="uni20A4oldstyle" unicode="&#xf144;" 
d="M377 151h-199l-11 -89h355l-7 -62h-511l7 62h90l11 89h-90l8 62h90l7 61h-90l8 62h90l1 8q11 91 75 143.5t162 52.5q91 0 136 -38.5t49 -94.5l-69 -24q-2 94 -118 94q-153 0 -168 -124l-2 -17h199l-8 -62h-199l-7 -61h199z" />
    <glyph glyph-name="uni20A6oldstyle" unicode="&#xf145;" horiz-adv-x="671" 
d="M531 0h-64l-120 172h-195l-21 -172h-71l21 172h-70l7 62h70l8 62h-70l7 62h70l22 172h64l118 -172h196l22 172h71l-22 -172h70l-7 -62h-70l-8 -62h70l-7 -62h-70zM160 240l-1 -6h145l-43 62h-95zM351 296l42 -62h96l6 56l1 6h-145zM179 419l-7 -61h47zM476 111l7 61h-47z
" />
    <glyph glyph-name="uni20A7oldstyle" unicode="&#xf146;" horiz-adv-x="1420" 
d="M107 90l-36 -290h-66l74 606l10 124h60v-91q33 46 83.5 73.5t107.5 27.5q99 0 152 -57t53 -162q0 -59 -16.5 -121.5t-45.5 -101.5q6 -27 21.5 -36t53.5 -9q74 2 118 34q-9 39 -1 111l33 270h-106l8 62h106l16 135l69 22l-19 -157h163l-8 -62h-163l-33 -270
q-10 -78 9 -111.5t88 -33.5q65 0 109 28q-10 20 -15 48l71 24q13 -102 131 -102q33 0 62 5.5t56 17.5t42.5 36t15.5 58q0 10 -1.5 18.5t-7 15t-9.5 11t-14 8.5t-16.5 6.5t-21 5t-22.5 4t-27 4.5t-28 4q-3 0 -23.5 3.5t-27.5 5t-26.5 5.5t-28.5 8t-24.5 10.5t-23 14.5
t-16.5 18.5t-12.5 24.5t-3.5 30q0 60 36.5 101t84.5 57.5t100 16.5q175 0 195 -139l-70 -24q-11 102 -127 102q-26 0 -49.5 -4t-47.5 -14.5t-38 -32.5t-14 -53q0 -23 18 -37t35.5 -18t62.5 -11l18 -3t29 -4t31.5 -5t29 -6t30 -8t25.5 -11t24 -15.5t17 -20t12.5 -26.5
t3.5 -33q0 -63 -39 -107t-93.5 -62t-117.5 -18q-96 0 -146 41q-64 -41 -157 -41q-87 0 -125 40q-61 -40 -155 -40q-51 0 -76.5 13t-40.5 40q-67 -53 -161 -53q-57 0 -100.5 27.5t-64.5 72.5zM278 53q88 0 142 73.5t54 185.5q0 80 -37.5 122.5t-106.5 42.5
q-76 0 -130.5 -47.5t-63.5 -103.5l-15 -122q0 -60 40 -105.5t117 -45.5z" />
    <glyph glyph-name="uni20A8oldstyle" unicode="&#xf147;" horiz-adv-x="991" 
d="M144 222l-27 -222h-67l65 530h212q156 0 156 -125q0 -74 -39 -123t-96 -54q21 -37 45 -66t44.5 -47.5t49 -31.5t46.5 -19t48.5 -9t44 -3.5t43.5 -0.5q91 0 140.5 26.5t49.5 90.5q0 10 -1.5 18.5t-7 15t-9.5 11t-14 8.5t-16.5 6.5t-21 5t-22.5 4t-27 4.5t-28 4
q-3 0 -23.5 3.5t-27.5 5t-26.5 5.5t-28.5 8t-24.5 10.5t-23 14.5t-16.5 18.5t-12.5 24.5t-3.5 30q0 60 36.5 101t84.5 57.5t100 16.5q175 0 195 -139l-70 -24q-11 102 -127 102q-27 0 -50 -4t-47 -14.5t-38 -32.5t-14 -53q0 -23 18 -37t35.5 -18t62.5 -11l18 -3t29 -4
t31.5 -5t29 -6t30 -8t25.5 -11t24 -15.5t17 -20t12.5 -26.5t3.5 -33q0 -96 -75.5 -141.5t-196.5 -45.5q-29 0 -48.5 1t-53.5 5.5t-59.5 13t-59 26t-60.5 41.5t-55.5 61t-51.5 84h-128zM151 285h153q109 0 109 111q0 24 -7.5 39t-22 21.5t-26.5 8.5t-30 2h-153z" />
    <glyph glyph-name="uni20A9oldstyle" unicode="&#xf148;" horiz-adv-x="718" 
d="M666 172h-109l-57 -182h-71l-22 182h-135l-67 -182h-72l-12 182h-107l7 62h95l-3 62h-84l7 62h73l-10 172h69l10 -172h94l65 172h94l20 -172h94l52 172h72l-55 -172h74l-7 -62h-86l-19 -62h97zM318 296l-23 -62h104l-7 62h-74zM228 234l22 62h-68l3 -62h43zM509 234
l18 62h-68l7 -62h43zM375 458l-36 -100h45zM190 172l3 -51l14 51h-17zM473 172l5 -51l15 51h-20z" />
    <glyph glyph-name="uni20AAoldstyle" unicode="&#xf149;" horiz-adv-x="665" 
d="M95 530h196q77 0 120.5 -38t36.5 -103l-28 -239h-66l26 221q5 47 -23 71.5t-84 24.5h-120l-57 -467h-66zM379 0h-196l46 380h66l-39 -317h120q120 0 135 122l43 345h66l-45 -360q-10 -81 -61.5 -125.5t-134.5 -44.5z" />
    <glyph glyph-name="uni20AEoldstyle" unicode="&#xf150;" horiz-adv-x="480" 
d="M372 213l-118 -56l-19 -157h-70l14 122l-106 -50l10 75l106 50l7 60l-106 -50l9 75l106 50l16 132h-180l9 66h430l-9 -66h-180l-11 -97l117 56l-9 -75l-118 -56l-7 -60l118 56z" />
    <glyph glyph-name="uni20B1oldstyle" unicode="&#xf151;" horiz-adv-x="578" 
d="M78 234h-57l8 62h57l7 62h-57l8 62h57l14 110h218q140 0 164 -110h69l-8 -62h-56q0 -15 -7 -62h56l-8 -62h-69q-50 -110 -191 -110h-151l-15 -124h-67zM425 296q8 37 7 62h-272l-7 -62h272zM341 467h-167l-6 -47h256q-21 47 -83 47zM145 234l-6 -47h167q63 0 95 47h-256z
" />
    <glyph glyph-name="numbersignoldstyle" unicode="&#xf152;" horiz-adv-x="680" 
d="M18 153h125l84 224h-111l8 64h127l62 166h65l-62 -166h164l62 166h65l-62 -166h109l-8 -64h-125l-84 -224h111l-8 -64h-127l-62 -166h-65l62 166h-164l-62 -166h-65l62 166h-109zM372 153l84 224h-164l-84 -224h164z" />
    <glyph glyph-name="zero.OT" unicode="&#xf200;" horiz-adv-x="700" 
d="M380 574q111 0 181 -58.5t70 -179.5q0 -165 -93.5 -255.5t-229.5 -90.5q-111 0 -180.5 58.5t-69.5 179.5q0 165 92.5 255.5t229.5 90.5zM316 53q104 0 174 70.5t70 206.5q0 96 -52.5 138.5t-135.5 42.5q-103 0 -173.5 -70.5t-70.5 -204.5q0 -97 52.5 -140t135.5 -43z" />
    <glyph glyph-name="one.OT" unicode="&#xf201;" horiz-adv-x="700" 
d="M590 0h-510l7 64h216l50 401q-83 -81 -247 -125l9 69q84 21 142.5 60t117.5 105h59l-63 -510h226z" />
    <glyph glyph-name="two.OT" unicode="&#xf202;" horiz-adv-x="700" 
d="M374 510q-91 0 -138 -28.5t-67 -93.5l-63 21q27 82 91 123.5t185 41.5q107 0 165 -39.5t58 -118.5q0 -39 -14.5 -68.5t-31 -47t-58 -33.5t-66 -22.5t-82.5 -20.5q-14 -3 -21 -5q-113 -26 -155.5 -64t-52.5 -91l165 1h293l-7 -65h-529q13 124 77 186t202 91q134 28 173 50
t39 80q0 59 -43.5 81t-119.5 22z" />
    <glyph glyph-name="three.OT" unicode="&#xf203;" horiz-adv-x="700" 
d="M142 372l-64 22q63 180 292 180q109 0 177 -43.5t68 -131.5q0 -83 -50 -140t-113 -60q57 -7 101 -47.5t44 -113.5q0 -109 -86 -178.5t-243 -69.5q-232 0 -254 179l69 24q2 -74 50.5 -108t151.5 -34q117 0 180 46.5t63 139.5q0 34 -13 58t-31 37t-48.5 20t-54 8.5
t-58.5 1.5h-103l8 65h103q37 0 65 3t57.5 13.5t48.5 28t31.5 48.5t12.5 74q0 117 -175 117q-102 0 -155 -32.5t-74 -106.5z" />
    <glyph glyph-name="four.OT" unicode="&#xf204;" horiz-adv-x="700" 
d="M601 0h-145l-25 -200h-66l25 200h-360l6 51l426 523h63l-62 -510h145zM397 64l36 295l16 112l-83 -107l-161 -198l-87 -102h279z" />
    <glyph glyph-name="five.OT" unicode="&#xf205;" horiz-adv-x="700" 
d="M105 -4q5 -75 44 -110t131 -35q107 0 177 61t70 182q0 154 -174 154q-127 0 -197 -70l-56 19l82 367h428l-8 -65h-374l-55 -243q78 53 192 53q112 0 171.5 -54t59.5 -156q0 -143 -90 -226t-222 -83q-126 0 -182 47t-66 135z" />
    <glyph glyph-name="six.OT" unicode="&#xf206;" horiz-adv-x="700" 
d="M582 601q-5 56 -41 83.5t-114 27.5q-121 0 -197 -83t-90 -259q37 63 104.5 96.5t146.5 33.5q105 0 165.5 -57t60.5 -157q0 -132 -84.5 -214t-214.5 -82q-126 0 -186 70t-60 213q0 148 37 257.5t122 176.5t212 67q97 0 150 -43t60 -106zM546 282q0 153 -172 153
q-99 0 -164.5 -59.5t-68.5 -167.5q10 -82 53.5 -119.5t124.5 -37.5q100 0 163.5 60t63.5 171z" />
    <glyph glyph-name="seven.OT" unicode="&#xf207;" horiz-adv-x="700" 
d="M216 -200h-76l365 597l62 102h-478l8 65h558l-6 -51z" />
    <glyph glyph-name="eight.OT" unicode="&#xf208;" horiz-adv-x="700" 
d="M361 423q210 0 210 170q0 118 -174 118q-209 0 -209 -168q0 -70 47 -95t126 -25zM316 51q232 0 232 174q0 136 -194 136q-43 0 -80.5 -8.5t-74 -28t-57.5 -57.5t-21 -91q0 -125 195 -125zM308 -10q-127 0 -192 46t-65 130q0 96 57.5 159t128.5 67q-52 8 -85 48t-33 103
q0 78 42 131.5t104.5 76.5t139.5 23q103 0 169.5 -42t66.5 -130q0 -81 -48.5 -142.5t-113.5 -67.5q58 -9 98 -48.5t40 -113.5q0 -113 -79.5 -176.5t-229.5 -63.5z" />
    <glyph glyph-name="nine.OT" unicode="&#xf209;" horiz-adv-x="700" 
d="M107 -37q5 -56 41 -83.5t114 -27.5q121 0 197 83t90 259q-37 -63 -104.5 -96.5t-146.5 -33.5q-105 0 -165.5 57t-60.5 157q0 132 84.5 214t214.5 82q126 0 186 -70t60 -213q0 -148 -37 -257.5t-122 -176.5t-212 -67q-97 0 -150 43t-60 106zM143 282q0 -153 172 -153
q99 0 164.5 59.5t68.5 167.5q-10 82 -53.5 119.5t-124.5 37.5q-100 0 -163.5 -60t-63.5 -171z" />
    <glyph glyph-name="zero.inf" unicode="&#xf210;" horiz-adv-x="497" 
d="M190 -151q65 0 105 48t40 133q0 115 -109 115q-66 0 -106 -48t-40 -133q0 -115 110 -115zM234 204q75 0 120 -43t45 -125q0 -111 -61.5 -178.5t-154.5 -67.5q-76 0 -121 43t-45 125q0 111 61 178.5t156 67.5z" />
    <glyph glyph-name="one.inf" unicode="&#xf211;" horiz-adv-x="287" 
d="M112 -200h-61l38 312q-34 -28 -91 -44l8 63q61 22 106 73h50z" />
    <glyph glyph-name="two.inf" unicode="&#xf212;" horiz-adv-x="406" 
d="M191 204q56 0 91.5 -26.5t35.5 -76.5q0 -31 -10.5 -55t-32.5 -41.5t-42.5 -28t-51.5 -22.5q-54 -21 -84.5 -43.5t-38.5 -53.5l104 2h136l-7 -59h-306q11 90 50 129.5t121 74.5q43 18 59 26t29 23.5t13 38.5q0 28 -22.5 40t-51.5 12q-44 0 -67.5 -15t-33.5 -50l-58 20
q34 105 167 105z" />
    <glyph glyph-name="three.inf" unicode="&#xf213;" horiz-adv-x="412" 
d="M312 -75q0 -60 -47.5 -97.5t-130.5 -37.5q-131 0 -141 103l63 22q0 -37 22 -51.5t68 -14.5q104 0 104 74q0 32 -22 41t-62 9h-56l7 59h56q39 0 61.5 12.5t22.5 51.5q0 49 -72 49q-44 0 -68 -15t-33 -51l-57 19q32 106 162 106q58 0 94 -24.5t36 -74.5q0 -74 -63 -100
q23 -7 39.5 -27.5t16.5 -52.5z" />
    <glyph glyph-name="four.inf" unicode="&#xf214;" horiz-adv-x="376" 
d="M287 -113h-70l-11 -87h-61l11 87h-175l5 43l217 274h53l-32 -258h70zM163 -54l13 103l8 47l-120 -150h99z" />
    <glyph glyph-name="five.inf" unicode="&#xf215;" horiz-adv-x="397" 
d="M76 -23l-50 17l44 200h237l-7 -60h-183l-20 -83q31 19 78 19q125 0 125 -113q0 -77 -47.5 -122t-120.5 -45q-66 0 -97 26.5t-35 78.5l62 21q1 -38 19 -52.5t59 -14.5t69.5 24.5t28.5 75.5q0 64 -71 64q-61 0 -91 -36z" />
    <glyph glyph-name="six.inf" unicode="&#xf216;" horiz-adv-x="408" 
d="M265 95q-5 51 -63 51q-103 0 -118 -122q41 43 106 43q58 0 89.5 -29.5t31.5 -84.5q0 -74 -45.5 -118.5t-116.5 -44.5q-134 0 -134 152q0 120 50 191t148 71q52 0 80.5 -24.5t33.5 -63.5zM179 7q-40 0 -67.5 -21.5t-32.5 -63.5q0 -74 75 -74q41 0 67 24.5t26 70.5
q0 64 -68 64z" />
    <glyph glyph-name="seven.inf" unicode="&#xf217;" horiz-adv-x="358" 
d="M95 -200h-70l193 334h-202l7 60h278l-5 -41z" />
    <glyph glyph-name="eight.inf" unicode="&#xf218;" horiz-adv-x="402" 
d="M164 30q87 0 87 68q0 47 -73 47q-87 0 -87 -66q0 -49 73 -49zM142 -151q97 0 97 71q0 54 -82 54q-97 0 -97 -73q0 -52 82 -52zM135 -210q-138 0 -138 97q0 44 22 76t53 41q-42 21 -42 73q0 64 45 95.5t111 31.5q57 0 92.5 -22.5t35.5 -71.5q0 -39 -18.5 -67t-45.5 -39
q51 -21 51 -81q0 -63 -42.5 -98t-123.5 -35z" />
    </font>
</defs>
</svg>
