<?xml version="1.0" standalone="no"?>
<!DOCTYPE svg PUBLIC "-//W3C//DTD SVG 1.1//EN" "http://www.w3.org/Graphics/SVG/1.1/DTD/svg11.dtd" >
<svg>
<metadata>
Created by FontForge 20120731 at Wed Mar  9 23:02:04 2016
 By ,,,
Copyright (c) Village Type &#38; Design LLC, 2004. All rights reserved.
</metadata>
<defs>
<font id="GalaxiePolaris-LightItalic" horiz-adv-x="600" >
  <font-face 
    font-family="Galaxie Polaris Light Italic"
    font-weight="425"
    font-style="italic"
    font-stretch="normal"
    units-per-em="1000"
    panose-1="2 11 5 4 3 3 1 2 1 3"
    ascent="800"
    descent="-200"
    x-height="530"
    cap-height="780"
    bbox="-224 -256 1523 1134"
    underline-thickness="30"
    underline-position="-70"
    unicode-range="U+0020-FF3F"
  />
<missing-glyph horiz-adv-x="960" 
d="M90 0v780h780v-780h-780zM480 345l-279 -279h558zM201 714l279 -279l279 279h-558zM435 390l-275 275v-550zM525 390l275 -275v550z" />
    <glyph glyph-name="f_dotlessi" unicode="f&#x131;" horiz-adv-x="606" 
d="M364 774q-66 0 -100.5 -29.5t-45.5 -115.5l-12 -99h153l-5 -34h-153l-85 -696h-38l85 696h-106l5 34h106l8 72q5 39 10.5 64.5t18.5 55.5t32 47t52.5 29t78.5 12q34 0 56 -9l-13 -36q-18 9 -47 9zM429 0l65 530h38l-65 -530h-38z" />
    <glyph glyph-name="fi" unicode="fi" horiz-adv-x="606" 
d="M364 774q-66 0 -100.5 -29.5t-45.5 -115.5l-12 -99h153l-5 -34h-153l-85 -696h-38l85 696h-106l5 34h106l8 72q5 39 10.5 64.5t18.5 55.5t32 47t52.5 29t78.5 12q34 0 56 -9l-13 -36q-18 9 -47 9zM429 0l65 530h38l-65 -530h-38zM569 743l-8 -60h-60l8 60h60z" />
    <glyph glyph-name="fl" unicode="fl" horiz-adv-x="612" 
d="M364 774q-66 0 -100.5 -29.5t-45.5 -115.5l-12 -99h153l-5 -34h-153l-85 -696h-38l85 696h-106l5 34h106l8 72q5 39 10.5 64.5t18.5 55.5t32 47t52.5 29t78.5 12q34 0 56 -9l-13 -36q-18 9 -47 9zM432 0l98 800h38l-98 -800h-38z" />
    <glyph glyph-name=".notdef" horiz-adv-x="960" 
d="M90 0v780h780v-780h-780zM480 345l-279 -279h558zM201 714l279 -279l279 279h-558zM435 390l-275 275v-550zM525 390l275 -275v550z" />
    <glyph glyph-name=".null" horiz-adv-x="0" 
 />
    <glyph glyph-name="nonmarkingreturn" horiz-adv-x="333" 
 />
    <glyph glyph-name="space" unicode=" " horiz-adv-x="240" 
 />
    <glyph glyph-name="exclam" unicode="!" horiz-adv-x="200" 
d="M125 780h60l-92 -590h-20zM92 52l-6 -52h-52l6 52h52z" />
    <glyph glyph-name="quotedbl" unicode="&#x22;" horiz-adv-x="340" 
d="M127 780h56l-49 -250h-18zM267 780h56l-49 -250h-18z" />
    <glyph glyph-name="numbersign" unicode="#" horiz-adv-x="680" 
d="M67 0l80 216h-121l4 34h130l99 264h-126l4 34h135l80 216h37l-80 -216h200l80 216h37l-80 -216h121l-4 -34h-130l-99 -264h126l-4 -34h-135l-80 -216h-37l80 216h-200l-80 -216h-37zM296 514l-99 -264h200l99 264h-200z" />
    <glyph glyph-name="dollar" unicode="$" horiz-adv-x="534" 
d="M431 764l-41 -111q75 -11 142 -59l-14 -37q-69 51 -142 60l-77 -209q40 -5 65 -10t55 -17.5t44.5 -35.5t14.5 -56q0 -92 -69 -137t-171 -45q-36 0 -52 2l-40 -109h-37l43 115q-58 13 -117 55l15 37q57 -43 115 -56l84 226q-37 4 -59 9t-48.5 16t-39.5 31.5t-13 50.5
q0 85 70.5 129t170.5 44q16 0 24 -1l40 108h37zM247 143q47 0 87.5 12t71.5 44.5t31 81.5q0 47 -37.5 65.5t-114.5 26.5l-86 -228q30 -2 48 -2zM321 621q-76 0 -133.5 -33t-57.5 -100q0 -39 28.5 -53t103.5 -23l79 208q-7 1 -20 1z" />
    <glyph glyph-name="percent" unicode="%" horiz-adv-x="1056" 
d="M257 393q72 0 122 51t50 160q0 71 -35.5 104t-94.5 33q-70 0 -120.5 -51.5t-50.5 -160.5q0 -71 35.5 -103.5t93.5 -32.5zM304 774q77 0 119 -41.5t42 -122.5q0 -122 -58.5 -186t-153.5 -64q-77 0 -119.5 41.5t-42.5 122.5q0 121 59.5 185.5t153.5 64.5zM855 764
l-599 -764h-42l599 764h42zM769 23q72 0 122 51t50 160q0 71 -35.5 104t-94.5 33q-70 0 -120.5 -51.5t-50.5 -160.5q0 -71 35.5 -103.5t93.5 -32.5zM816 404q77 0 119 -41.5t42 -122.5q0 -122 -58.5 -186t-153.5 -64q-77 0 -119.5 41.5t-42.5 122.5q0 121 59.5 185.5
t153.5 64.5z" />
    <glyph glyph-name="ampersand" unicode="&#x26;" horiz-adv-x="740" 
d="M344 755q-75 0 -122.5 -40t-47.5 -108q0 -65 84 -151l275 -280q64 93 79 214q8 75 -4 139l42 -20q7 -48 -1 -120q-15 -138 -90 -240l108 -109l-6 -50l-127 129q-117 -129 -286 -129q-43 0 -80.5 9t-69 29t-50 55.5t-18.5 84.5q0 96 50.5 164t138.5 107q-40 42 -62 79
t-22 83q0 88 58.5 138.5t154.5 50.5q86 0 134.5 -33t56.5 -91l-41 -19q-10 108 -154 108zM253 25q76 0 143.5 31.5t112.5 87.5l-265 270q-174 -77 -174 -239q0 -47 20.5 -79.5t53 -46.5t58.5 -19t51 -5z" />
    <glyph glyph-name="quotesingle" unicode="'" horiz-adv-x="200" 
d="M127 780h56l-49 -250h-18z" />
    <glyph glyph-name="parenleft" unicode="(" horiz-adv-x="240" 
d="M256 830q-84 -134 -130 -297t-46 -335q0 -153 59 -328h-35q-61 130 -61 337q-4 154 51 341.5t127 281.5h35z" />
    <glyph glyph-name="parenright" unicode=")" horiz-adv-x="240" 
d="M-11 -130q84 134 130 297t46 335q0 153 -59 328h35q61 -130 61 -337q4 -154 -51 -341.5t-127 -281.5h-35z" />
    <glyph glyph-name="asterisk" unicode="*" horiz-adv-x="300" 
d="M109 525l-26 21l90 94l-115 30l15 34l107 -46l7 122h36l-23 -122l119 46l7 -34l-123 -30l68 -94l-32 -21l-52 103z" />
    <glyph glyph-name="plus" unicode="+" horiz-adv-x="490" 
d="M211 195l22 178h-178l4 34h178l22 178h34l-22 -178h178l-4 -34h-178l-22 -178h-34z" />
    <glyph glyph-name="comma" unicode="," horiz-adv-x="200" 
d="M39 52h54l-87 -216h-26z" />
    <glyph glyph-name="hyphen" unicode="-" horiz-adv-x="360" 
d="M309 318h-260l4 34h260z" />
    <glyph glyph-name="period" unicode="." horiz-adv-x="200" 
d="M97 60l-7 -60h-60l7 60h60z" />
    <glyph glyph-name="slash" unicode="/" horiz-adv-x="300" 
d="M351 870l-348 -960h-40l348 960h40z" />
    <glyph glyph-name="zero" unicode="0" horiz-adv-x="700" 
d="M400 738q-92 0 -157.5 -64t-95.5 -167.5t-30 -236.5q0 -125 48.5 -184.5t147.5 -59.5q92 0 157.5 64t95.5 167.5t30 236.5q0 125 -48.5 184.5t-147.5 59.5zM308 -10q-120 0 -175.5 67.5t-55.5 204.5q0 107 18.5 197t56.5 162t102.5 112.5t150.5 40.5q120 0 175.5 -67.5
t55.5 -204.5q0 -107 -18.5 -197t-56.5 -162t-102.5 -112.5t-150.5 -40.5z" />
    <glyph glyph-name="one" unicode="1" horiz-adv-x="700" 
d="M564 37l-4 -37h-490l4 37h221l83 672q-87 -103 -255 -149l5 35q85 23 140.5 59.5t122.5 119.5h34l-91 -737h230z" />
    <glyph glyph-name="two" unicode="2" horiz-adv-x="700" 
d="M588 0h-556q10 78 37.5 137t73 101t95.5 70t120 54q57 21 85.5 33t64.5 32.5t52.5 41t28 52.5t11.5 73q0 74 -54 109t-140 35q-108 0 -168 -37.5t-86 -112.5l-36 17q63 169 295 169q108 0 167.5 -45.5t59.5 -133.5q0 -48 -16.5 -87.5t-39.5 -64.5t-61.5 -47.5t-68 -34.5
t-73.5 -28l-9 -3q-129 -48 -202 -118t-88 -175l512 1z" />
    <glyph glyph-name="three" unicode="3" horiz-adv-x="700" 
d="M608 236q0 -115 -80 -180.5t-235 -65.5q-123 0 -181.5 45.5t-60.5 123.5l39 19q0 -152 208 -152q127 0 198.5 50t71.5 156q0 142 -191 142h-134l5 36h134q41 0 76 8t67.5 27.5t51 58t18.5 93.5q0 71 -54.5 106t-142.5 35q-111 0 -168 -35.5t-82 -115.5l-36 17
q59 170 283 170q104 0 171 -42t67 -130t-48 -146t-111 -65v-1q57 -5 95.5 -41.5t38.5 -112.5z" />
    <glyph glyph-name="four" unicode="4" horiz-adv-x="700" 
d="M617 186h-148l-22 -186h-36l22 186h-386l4 29l453 559h38l-68 -553h148zM438 221l41 334l21 168l-127 -161l-176 -216l-104 -126l127 1h218z" />
    <glyph glyph-name="five" unicode="5" horiz-adv-x="700" 
d="M172 384l-39 18l80 362h414l-4 -36h-383l-66 -300q34 30 90.5 49t123.5 19q109 0 167 -54.5t58 -152.5q0 -143 -87 -221t-219 -78q-125 0 -182 45t-61 130l40 19q1 -78 44.5 -118t155.5 -40q123 0 196 65.5t73 195.5q0 83 -47.5 128t-141.5 45q-71 0 -128 -20.5
t-84 -55.5z" />
    <glyph glyph-name="six" unicode="6" horiz-adv-x="700" 
d="M440 739q-124 0 -207.5 -88t-106.5 -269q-5 -41 -7 -74q38 91 115.5 131t163.5 40q100 0 156.5 -51t56.5 -148q0 -135 -83 -212.5t-210 -77.5q-123 0 -181 69.5t-58 210.5q0 240 99 372t268 132q186 0 206 -141l-39 -18q-8 64 -47 93.5t-126 30.5zM394 442
q-107 0 -189 -66t-82 -179q25 -172 194 -172q48 0 91.5 14t80.5 42.5t59 79t22 116.5q0 84 -47.5 124t-128.5 41z" />
    <glyph glyph-name="seven" unicode="7" horiz-adv-x="700" 
d="M213 0h-43l375 600l84 130l-163 -1h-337l4 35h542l-3 -31z" />
    <glyph glyph-name="eight" unicode="8" horiz-adv-x="700" 
d="M313 26q117 0 186 47t69 151q0 150 -213 150q-36 0 -68 -4.5t-67.5 -18t-61 -35.5t-42.5 -60t-17 -88q0 -142 214 -142zM360 410q34 0 64 4t62.5 16.5t55.5 32.5t38 54.5t15 79.5q0 72 -52.5 106.5t-142.5 34.5q-105 0 -170 -47.5t-65 -144.5q0 -136 195 -136zM308 -10
q-121 0 -185.5 45t-64.5 127q0 102 59 163t128 67q-51 13 -85 49.5t-34 100.5q0 117 78 174.5t201 57.5q227 0 227 -171q0 -91 -47 -143t-114 -68q138 -28 138 -163q0 -113 -78 -176t-223 -63z" />
    <glyph glyph-name="nine" unicode="9" horiz-adv-x="700" 
d="M273 25q123 0 207 88t107 269q5 41 7 74q-38 -91 -115.5 -131t-163.5 -40q-100 0 -156.5 51t-56.5 148q0 135 83 212.5t210 77.5q123 0 181 -69.5t58 -210.5q0 -240 -99 -372t-268 -132q-186 0 -206 141l39 18q8 -64 47 -93.5t126 -30.5zM319 322q107 0 189 66t82 179
q-25 172 -194 172q-48 0 -91.5 -14t-80.5 -42.5t-59 -79t-22 -116.5q0 -84 47.5 -124t128.5 -41z" />
    <glyph glyph-name="colon" unicode=":" horiz-adv-x="200" 
d="M97 60l-7 -60h-60l7 60h60zM144 440l-8 -60h-60l8 60h60z" />
    <glyph glyph-name="semicolon" unicode=";" horiz-adv-x="200" 
d="M39 52h54l-87 -216h-26zM144 440l-8 -60h-60l8 60h60z" />
    <glyph glyph-name="less" unicode="&#x3c;" horiz-adv-x="490" 
d="M267 472l-176 -84l155 -84l179 -100l-5 -35l-365 205l4 32l416 205l-5 -39z" />
    <glyph glyph-name="equal" unicode="=" horiz-adv-x="490" 
d="M435 293h-390l5 34h390zM455 453h-390l4 34h390z" />
    <glyph glyph-name="greater" unicode="&#x3e;" horiz-adv-x="490" 
d="M238 308l176 84l-155 84l-179 100l5 35l365 -205l-4 -32l-416 -205l5 39z" />
    <glyph glyph-name="question" unicode="?" 
d="M261 190h-26q-12 50 -12 84q0 27 7.5 49t16 34.5t26.5 25t27.5 17t31.5 14.5q4 2 25.5 11t27.5 12t25 12t25.5 14t22 16t22 19.5t16.5 22t14 26.5t7.5 30t3.5 36q0 70 -48.5 106t-126.5 36q-191 0 -232 -165l-35 16q52 184 271 184q98 0 156 -45.5t58 -128.5
q0 -28 -6.5 -52.5t-15.5 -42.5t-26 -35t-30 -27.5t-35.5 -23t-34 -18t-35 -15.5t-29.5 -13q-30 -13 -43.5 -20.5t-28.5 -21.5t-20 -33.5t-5 -48.5q0 -30 6 -75zM262 52l-6 -52h-52l6 52h52z" />
    <glyph glyph-name="at" unicode="@" horiz-adv-x="1030" 
d="M689 174l-6 -74h9q136 0 200 96t64 253q0 142 -94.5 229.5t-290.5 87.5q-224 0 -358 -155t-134 -402q0 -178 99.5 -281.5t286.5 -103.5q144 0 238.5 43.5t121.5 99.5l34 -16q-36 -63 -140 -112t-258 -49q-197 0 -308.5 107.5t-111.5 304.5q0 266 149 432t385 166
q207 0 311.5 -93t104.5 -252q0 -180 -79 -284.5t-233 -104.5h-28l-1 93q-29 -42 -84.5 -72.5t-121.5 -30.5q-81 0 -134 53t-53 148q0 131 74.5 207t172.5 76q66 0 114 -30.5t66 -72.5l24 93h30l-19 -108zM677 384q-50 121 -172 121q-86 0 -146 -67t-60 -178q0 -79 42 -124
t113 -45q121 0 202 121z" />
    <glyph glyph-name="A" unicode="A" horiz-adv-x="720" 
d="M598 0l-67 265h-356l-131 -265h-45l396 790h42l204 -790h-43zM412 744l-114 -231l-106 -212h329l-53 212z" />
    <glyph glyph-name="B" unicode="B" horiz-adv-x="700" 
d="M373 0h-313l95 780h300q96 0 144 -31t48 -120q0 -98 -41 -155t-90 -70q48 -10 79.5 -49t31.5 -106q0 -249 -254 -249zM104 36h293q80 0 134 50.5t54 161.5q0 134 -146 134h-293zM479 744h-288l-40 -326h280q78 0 125.5 49.5t47.5 154.5q0 68 -32.5 95t-92.5 27z" />
    <glyph glyph-name="C" unicode="C" horiz-adv-x="750" 
d="M71 298q0 140 40.5 248.5t129 176t215.5 67.5q244 0 266 -191l-41 -19q-11 174 -222 174q-88 0 -155 -34.5t-108.5 -97t-62 -143.5t-20.5 -179q0 -270 250 -274q219 0 271 174l37 -18q-67 -192 -313 -192q-145 0 -216 80t-71 228z" />
    <glyph glyph-name="D" unicode="D" horiz-adv-x="780" 
d="M724 495q0 -495 -407 -495h-257l95 780h257q158 0 235 -64t77 -221zM104 36h228q176 0 263.5 118t87.5 344q0 135 -62.5 190.5t-201.5 55.5h-228z" />
    <glyph glyph-name="E" unicode="E" horiz-adv-x="715" 
d="M155 780h520l-4 -36h-480l-40 -326h440l-5 -36h-440l-42 -346h500l-4 -36h-540z" />
    <glyph glyph-name="F" unicode="F" horiz-adv-x="650" 
d="M146 382l-46 -382h-40l95 780h500l-4 -36h-460l-40 -326h420l-5 -36h-420z" />
    <glyph glyph-name="G" unicode="G" horiz-adv-x="789" 
d="M363 26q169 0 262 70l32 258h-200l4 36h240l-38 -312q-126 -88 -298 -88q-294 0 -294 308q0 140 40.5 248.5t129 176t215.5 67.5q244 0 266 -191l-41 -19q-11 174 -222 174q-88 0 -155 -34.5t-108.5 -97t-62 -143.5t-20.5 -179q0 -270 250 -274z" />
    <glyph glyph-name="H" unicode="H" horiz-adv-x="750" 
d="M665 780h40l-95 -780h-40l46 382h-470l-46 -382h-40l95 780h40l-44 -362h470z" />
    <glyph glyph-name="I" unicode="I" horiz-adv-x="280" 
d="M215 780l-95 -780h-40l95 780h40z" />
    <glyph glyph-name="J" unicode="J" horiz-adv-x="572" 
d="M501 780h41l-71 -580q-13 -102 -80 -156t-183 -54q-199 0 -201 152l40 19q-3 -63 35 -99.5t133 -35.5q194 3 215 173z" />
    <glyph glyph-name="K" unicode="K" horiz-adv-x="700" 
d="M195 780l-58 -477l500 477h53l-371 -351l304 -429h-50l-283 401l-160 -151l-30 -250h-40l95 780h40z" />
    <glyph glyph-name="L" unicode="L" horiz-adv-x="605" 
d="M195 780l-91 -744h440l-4 -36h-480l95 780h40z" />
    <glyph glyph-name="M" unicode="M" horiz-adv-x="902" 
d="M389 0l-158 543l-48 168l-28 -251l-56 -460h-39l95 780h47l162 -557l51 -181l95 181l298 557h49l-95 -780h-39l56 460l34 251l-90 -168l-290 -543h-44z" />
    <glyph glyph-name="N" unicode="N" horiz-adv-x="761" 
d="M573 0l-290 544l-98 188l-30 -272l-56 -460h-39l95 780h48l289 -544l98 -188l31 272l56 460h39l-95 -780h-48z" />
    <glyph glyph-name="O" unicode="O" horiz-adv-x="800" 
d="M358 -10q-148 0 -217.5 82t-69.5 227q0 100 22.5 186.5t67.5 155.5t121 109t174 40q148 0 217.5 -81t69.5 -226q0 -143 -40 -251.5t-128.5 -175t-216.5 -66.5zM452 754q-89 0 -156.5 -38t-106 -103t-57.5 -143t-19 -167q0 -277 250 -277q87 0 154 36t106 99.5t58.5 143
t19.5 173.5q0 276 -249 276z" />
    <glyph glyph-name="P" unicode="P" horiz-adv-x="660" 
d="M145 372h269q37 0 69 10.5t61.5 35t46.5 71t17 111.5q0 144 -145 144h-272zM141 336l-41 -336h-40l95 780h296q43 0 76.5 -8t62 -26.5t43.5 -53.5t15 -85q0 -141 -67 -206t-179 -65h-261z" />
    <glyph glyph-name="Q" unicode="Q" horiz-adv-x="800" 
d="M734 -210l-508 223q-155 69 -155 289q0 79 14 150t44.5 133t74.5 107.5t108.5 71.5t143.5 26q148 0 217.5 -81t69.5 -226q0 -220 -97.5 -356t-286.5 -137v-1l118 -47l262 -108zM452 754q-89 0 -156.5 -38t-106 -103t-57.5 -143t-19 -167q0 -277 250 -277q87 0 154 36
t106 99.5t58.5 143t19.5 173.5q0 276 -249 276z" />
    <glyph glyph-name="R" unicode="R" horiz-adv-x="710" 
d="M577 0l-167 348h-268l-42 -348h-40l95 780h321q39 0 69 -6.5t58.5 -23t44 -51.5t15.5 -86q0 -122 -60.5 -193t-149.5 -71l170 -349h-46zM191 744l-44 -360h297q75 0 127 53.5t52 169.5q0 34 -8.5 59.5t-21 40t-31.5 23t-37 11.5t-40 3h-294z" />
    <glyph glyph-name="S" unicode="S" horiz-adv-x="710" 
d="M311 -10q-95 0 -154 23t-82 59.5t-27 90.5l42 20q2 -81 50.5 -119t175.5 -38q39 0 75.5 6t72.5 22t62.5 40.5t43 64t16.5 90.5q0 67 -46.5 98.5t-169.5 44.5q-51 6 -84.5 12t-67 17.5t-52.5 27.5t-31 41.5t-12 60.5q0 63 24.5 110.5t66.5 74.5t91.5 40.5t104.5 13.5
q248 0 256 -167l-40 -19q-2 76 -53.5 113t-166.5 37q-28 0 -56 -4t-62.5 -16.5t-60.5 -33.5t-44 -58.5t-18 -87.5q0 -59 45.5 -85.5t166.5 -39.5q134 -14 192 -51t58 -125q0 -90 -45.5 -151t-114.5 -86.5t-156 -25.5z" />
    <glyph glyph-name="T" unicode="T" horiz-adv-x="640" 
d="M391 744l-91 -744h-40l91 744h-265l4 36h570l-4 -36h-265z" />
    <glyph glyph-name="U" unicode="U" horiz-adv-x="784" 
d="M350 -10q-165 0 -227.5 69t-46.5 200l64 521h41l-65 -528q-13 -109 40 -167t199 -58t213 58t80 167l65 528h41l-64 -521q-16 -131 -95.5 -200t-244.5 -69z" />
    <glyph glyph-name="V" unicode="V" horiz-adv-x="720" 
d="M266 267l57 -231l113 231l255 513h45l-397 -790h-42l-203 790h43z" />
    <glyph glyph-name="W" unicode="W" horiz-adv-x="950" 
d="M508 780h42l94 -508l35 -201l67 208l162 501h42l-260 -790h-35l-98 534l-34 195l-82 -195l-230 -534h-35l-66 790h41l40 -501l15 -208l84 201z" />
    <glyph glyph-name="X" unicode="X" horiz-adv-x="710" 
d="M256 303l85 105l-56 100l-151 272h48l134 -243l52 -93l74 93l194 243h50l-217 -272l-80 -100l59 -105l169 -303h-50l-147 268l-59 105l-85 -105l-211 -268h-52z" />
    <glyph glyph-name="Y" unicode="Y" horiz-adv-x="670" 
d="M75 780h47l132 -262l82 -164l122 164l196 262h51l-352 -463l-38 -317h-40l38 317z" />
    <glyph glyph-name="Z" unicode="Z" horiz-adv-x="710" 
d="M710 752l-531 -597l-109 -121l199 1h345l-4 -35h-595l3 28l531 597l109 121l-199 -1h-325l4 35h575z" />
    <glyph glyph-name="bracketleft" unicode="[" horiz-adv-x="240" 
d="M197 794l-109 -888h90l-4 -36h-130l117 960h130l-4 -36h-90z" />
    <glyph glyph-name="backslash" unicode="\" horiz-adv-x="300" 
d="M193 -90l-112 960h40l112 -960h-40z" />
    <glyph glyph-name="bracketright" unicode="]" horiz-adv-x="240" 
d="M48 -94l109 888h-90l4 36h130l-117 -960h-129l4 36h89z" />
    <glyph glyph-name="asciicircum" unicode="^" horiz-adv-x="470" 
d="M288 756l-104 -165l-123 -191h-38l252 390h32l158 -390h-36l-77 191z" />
    <glyph glyph-name="underscore" unicode="_" horiz-adv-x="300" 
d="M215 -200h-259l4 34h259z" />
    <glyph glyph-name="grave" unicode="`" 
d="M235 800h47l68 -208h-35z" />
    <glyph glyph-name="a" unicode="a" horiz-adv-x="590" 
d="M522 422l-38 -314l-8 -108h-30l-1 100q-33 -51 -91 -80.5t-115 -29.5q-91 0 -140.5 59t-49.5 162q0 145 72.5 237t185.5 92q57 0 107.5 -29.5t70.5 -80.5l26 100h30zM452 158l26 214q-13 52 -54 92.5t-119 40.5q-93 0 -153.5 -80.5t-60.5 -210.5q0 -88 40.5 -138.5
t114.5 -50.5q78 0 128.5 40t77.5 93z" />
    <glyph glyph-name="b" unicode="b" horiz-adv-x="590" 
d="M175 800l-46 -370q33 51 91 80.5t115 29.5q91 0 141 -59t50 -161q0 -146 -72.5 -238t-186.5 -92q-57 0 -107.5 29.5t-70.5 80.5l-25 -100h-30l18 108l85 692h38zM122 372l-26 -214q13 -52 54.5 -92.5t119.5 -40.5q93 0 153 81t60 211q0 88 -40 138t-114 50
q-78 0 -129 -40.5t-78 -92.5z" />
    <glyph glyph-name="c" unicode="c" horiz-adv-x="562" 
d="M49 217q0 139 77.5 231t195.5 92q85 0 133 -33t57 -91l-41 -19q-10 108 -153 108q-94 0 -160.5 -79.5t-66.5 -204.5q0 -90 46 -143t122 -53q145 0 180 108l37 -18q-23 -58 -79.5 -91.5t-142.5 -33.5q-95 0 -150 61.5t-55 165.5z" />
    <glyph glyph-name="d" unicode="d" horiz-adv-x="590" 
d="M485 430l46 370h38l-93 -800h-30l-1 100q-33 -51 -91 -80.5t-115 -29.5q-91 0 -140.5 59t-49.5 162q0 145 72.5 237t185.5 92q57 0 107.5 -29.5t70.5 -80.5zM452 158l26 214q-13 52 -54 92.5t-119 40.5q-93 0 -153.5 -80.5t-60.5 -210.5q0 -88 40.5 -138.5t114.5 -50.5
q78 0 128.5 40t77.5 93z" />
    <glyph glyph-name="e" unicode="e" horiz-adv-x="579" 
d="M504 251h-413q-1 -10 -1 -30q0 -90 46 -143t123 -53q145 0 180 108l37 -18q-23 -58 -79.5 -91.5t-142.5 -33.5q-95 0 -150 61.5t-55 165.5q0 141 78.5 232t194.5 91q189 0 189 -203q0 -30 -7 -86zM318 505q-82 0 -143 -60t-80 -160h370q4 40 4 57q0 79 -35.5 121
t-115.5 42z" />
    <glyph glyph-name="f" unicode="f" horiz-adv-x="370" 
d="M364 774q-66 0 -100.5 -29.5t-45.5 -115.5l-12 -99h153l-5 -34h-153l-85 -696h-38l85 696h-106l5 34h106l8 72q5 48 14 80t28.5 64t57 48t92.5 16q34 0 56 -9l-13 -36q-18 9 -47 9z" />
    <glyph glyph-name="g" unicode="g" horiz-adv-x="590" 
d="M522 422l-55 -452q-11 -87 -77.5 -133.5t-174.5 -46.5q-168 0 -187 126l39 18q10 -112 152 -112q86 0 143 35t66 108l19 150q-33 -51 -91 -78t-117 -27q-92 0 -142 56t-50 156q0 145 72 231.5t185 86.5q58 0 109.5 -29.5t71.5 -80.5l26 100h30zM454 173l24 199
q-13 51 -55.5 92t-120.5 41q-94 0 -153.5 -75t-59.5 -205q0 -86 41 -133t115 -47q79 0 131 38.5t78 89.5z" />
    <glyph glyph-name="h" unicode="h" horiz-adv-x="566" 
d="M176 800l-46 -370q31 48 88.5 79t120.5 31q79 0 125.5 -42t37.5 -114l-47 -384h-38l45 369q8 65 -29.5 100.5t-107.5 35.5q-71 0 -123.5 -41t-78.5 -91l-45 -373h-38l98 800h38z" />
    <glyph glyph-name="i" unicode="i" horiz-adv-x="236" 
d="M59 0l65 530h38l-65 -530h-38zM199 743l-8 -60h-60l8 60h60z" />
    <glyph glyph-name="j" unicode="j" horiz-adv-x="236" 
d="M-90 -174q65 0 99.5 29.5t45.5 115.5l69 559h38l-66 -532q-5 -39 -10 -64.5t-18 -55.5t-32 -47t-52 -29t-78 -12q-36 0 -56 9l12 36q21 -9 48 -9zM199 743l-8 -60h-60l8 60h60z" />
    <glyph glyph-name="k" unicode="k" horiz-adv-x="531" 
d="M78 0h-38l98 800h38l-70 -566l139 125l195 171h55l-257 -224l230 -306h-51l-208 282l-109 -96z" />
    <glyph glyph-name="l" unicode="l" horiz-adv-x="242" 
d="M62 0l98 800h38l-98 -800h-38z" />
    <glyph glyph-name="m" unicode="m" horiz-adv-x="874" 
d="M129 530v-100q31 48 85 79t110 31q62 0 100 -30.5t43 -84.5q38 56 91.5 85.5t108.5 29.5q71 0 111.5 -42t31.5 -114l-47 -384h-38l45 369q8 65 -23.5 100.5t-93.5 35.5q-64 0 -113 -41t-75 -91l-45 -373h-38l45 369q8 66 -22 101t-95 35q-64 0 -113 -41t-75 -91l-45 -373
h-38l51 422l9 108h30z" />
    <glyph glyph-name="n" unicode="n" horiz-adv-x="565" 
d="M129 530v-100q31 48 88.5 79t120.5 31q79 0 125.5 -42t37.5 -114l-47 -384h-38l45 369q8 65 -29.5 100.5t-107.5 35.5q-71 0 -123.5 -41t-78.5 -91l-45 -373h-38l51 422l9 108h30z" />
    <glyph glyph-name="o" unicode="o" horiz-adv-x="592" 
d="M318 505q-105 0 -166 -82.5t-61 -210.5q0 -90 43 -138.5t125 -48.5q105 0 166 83t61 211q0 90 -43 138t-125 48zM254 -10q-99 0 -152 57.5t-53 162.5q0 145 74 237.5t199 92.5q99 0 152.5 -57.5t53.5 -161.5q0 -145 -74.5 -238t-199.5 -93z" />
    <glyph glyph-name="p" unicode="p" horiz-adv-x="590" 
d="M89 100l-37 -300h-38l76 622l9 108h30v-100q33 51 91 80.5t115 29.5q91 0 141 -59t50 -161q0 -139 -71.5 -234.5t-187.5 -95.5q-57 0 -107.5 29.5t-70.5 80.5zM122 372l-26 -214q13 -52 54.5 -92.5t119.5 -40.5q95 0 154 85t59 207q0 88 -40 138t-114 50
q-78 0 -129 -40.5t-78 -92.5z" />
    <glyph glyph-name="q" unicode="q" horiz-adv-x="591" 
d="M239 -10q-91 0 -140.5 59t-49.5 162q0 145 72.5 237t185.5 92q57 0 107.5 -29.5t70.5 -80.5l26 100h30l-19 -108l-76 -622h-38l37 300q-33 -51 -91 -80.5t-115 -29.5zM305 505q-93 0 -153.5 -80.5t-60.5 -210.5q0 -88 40.5 -138.5t114.5 -50.5q78 0 128.5 40t77.5 93
l26 214q-13 52 -54 92.5t-119 40.5z" />
    <glyph glyph-name="r" unicode="r" horiz-adv-x="375" 
d="M333 540q27 0 43 -4l-10 -40q-23 5 -38 5q-82 0 -141 -51.5t-69 -112.5l-41 -337h-38l51 422l9 108h30v-110q31 55 89 87.5t115 32.5z" />
    <glyph glyph-name="s" unicode="s" horiz-adv-x="534" 
d="M286 505q-65 0 -118 -33.5t-53 -99.5q0 -42 32.5 -55.5t123.5 -23.5q35 -4 56 -7t50.5 -12t46 -21t28.5 -33t12 -50q0 -89 -69.5 -134.5t-175.5 -45.5q-85 0 -133.5 33t-57.5 90l42 20q10 -108 153 -108q87 0 143 34t56 106q0 22 -9.5 37.5t-22.5 25t-39 16t-46.5 9
t-57.5 6.5q-30 3 -49.5 6t-45 10.5t-40.5 18.5t-26 30t-11 45q0 83 63.5 127t152.5 44q85 0 133 -33t57 -91l-41 -19q-10 108 -154 108z" />
    <glyph glyph-name="t" unicode="t" horiz-adv-x="400" 
d="M267 26q26 0 50 9l3 -36q-22 -9 -58 -9q-56 0 -89.5 17t-44 45.5t-12.5 66.5t6 79l36 298h-106l5 34h106l17 140l39 13l-18 -153h173l-5 -34h-173l-40 -325q-10 -86 17.5 -115.5t93.5 -29.5z" />
    <glyph glyph-name="u" unicode="u" horiz-adv-x="565" 
d="M421 0l-1 100q-31 -48 -88.5 -79t-120.5 -31q-79 0 -125.5 42t-37.5 114l48 384h38l-46 -369q-8 -65 30 -100.5t108 -35.5q71 0 123 41t78 91l46 373h38l-52 -422l-8 -108h-30z" />
    <glyph glyph-name="v" unicode="v" horiz-adv-x="520" 
d="M513 530l-274 -540h-42l-140 540h44l75 -305l46 -193l94 193l152 305h45z" />
    <glyph glyph-name="w" unicode="w" horiz-adv-x="776" 
d="M230 199l157 331h47l75 -331l34 -155l53 158l112 328h41l-189 -540h-43l-80 352l-31 145l-66 -145l-165 -352h-43l-55 540h40l30 -329v1l15 -157z" />
    <glyph glyph-name="x" unicode="x" horiz-adv-x="518" 
d="M315 137l-65 109l-93 -109l-114 -137h-50l235 275l-40 64l-117 191h47l70 -118l66 -113l94 113l100 118h49l-165 -191l-56 -64l40 -63l129 -212h-48z" />
    <glyph glyph-name="y" unicode="y" horiz-adv-x="512" 
d="M509 530l-257 -483l-129 -247h-43l117 221l-144 509h43l78 -284l48 -183l93 183l149 284h45z" />
    <glyph glyph-name="z" unicode="z" horiz-adv-x="532" 
d="M15 0l3 33l422 463h-346l5 34h391l-3 -33l-422 -463h375l-4 -34h-421z" />
    <glyph glyph-name="braceleft" unicode="{" horiz-adv-x="280" 
d="M92 350q26 -12 34 -45.5t3 -71.5l-28 -227q-7 -57 15 -78.5t65 -21.5h37l-4 -36h-27q-45 0 -74 12.5t-39 32.5t-14 45.5t2 51.5l27 222q7 59 -7.5 78.5t-54.5 19.5h-19l5 36h19q40 0 59.5 19.5t26.5 78.5l27 222q8 65 41 103.5t118 38.5h27l-4 -36h-37q-92 0 -104 -100
l-28 -227q-13 -94 -66 -117z" />
    <glyph glyph-name="bar" unicode="|" horiz-adv-x="250" 
d="M206 830l-117 -960h-40l117 960h40z" />
    <glyph glyph-name="braceright" unicode="}" horiz-adv-x="280" 
d="M192 350q-25 12 -33 45.5t-3 71.5l28 227q7 57 -15 78.5t-65 21.5h-37l4 36h27q45 0 74 -12.5t39 -32.5t14 -45.5t-2 -51.5l-27 -222q-7 -59 7.5 -78.5t54.5 -19.5h19l-5 -36h-19q-40 0 -59.5 -19.5t-26.5 -78.5l-27 -222q-8 -65 -41 -103.5t-118 -38.5h-26l4 36h36
q92 0 104 100l28 227q13 94 65 117z" />
    <glyph glyph-name="asciitilde" unicode="~" horiz-adv-x="470" 
d="M426 342l-24 -26q-23 34 -70 34q-36 0 -95 -33.5t-103 -33.5q-63 0 -89 45l24 26q23 -34 70 -34q36 0 95 33.5t103 33.5q63 0 89 -45z" />
    <glyph glyph-name="exclamdown" unicode="&#xa1;" horiz-adv-x="200" 
d="M63 -200h-56l84 540h20zM151 530l-7 -52h-52l7 52h52z" />
    <glyph glyph-name="cent" unicode="&#xa2;" horiz-adv-x="550" 
d="M447 764l-43 -114q108 -24 122 -117l-40 -19q-8 82 -94 102l-174 -466q26 -8 55 -8q145 0 180 108l37 -18q-23 -58 -79 -91.5t-142 -33.5q-34 0 -64 8l-43 -115h-37l47 128q-52 26 -80.5 79t-28.5 126q0 142 78.5 233t194.5 91q13 0 33 -2l41 109h37zM332 622
q-96 0 -161 -82t-65 -201q0 -124 80 -174l171 456q-4 0 -12 0.5t-13 0.5z" />
    <glyph glyph-name="sterling" unicode="&#xa3;" horiz-adv-x="680" 
d="M175 417l18 147q13 102 80 156t183 54q199 0 201 -153l-39 -18q2 63 -35 99.5t-128 36.5q-202 0 -223 -174l-18 -148h256l-5 -35h-256l-42 -347h417l-4 -35h-556l4 35h100l42 347h-100l5 35h100z" />
    <glyph glyph-name="currency" unicode="&#xa4;" horiz-adv-x="720" 
d="M335 126q125 0 208 80.5t83 217.5q0 101 -61.5 157.5t-166.5 56.5q-124 0 -207.5 -80.5t-83.5 -215.5q0 -102 61.5 -159t166.5 -57zM331 90q-121 0 -192 68l-108 -96l-21 24l108 96q-48 62 -48 154q0 152 97 246l-84 96l27 24l84 -97q87 69 208 69q119 0 192 -68l108 96
l21 -24l-108 -96q47 -61 47 -153q0 -151 -96 -247l84 -96l-27 -24l-85 96q-88 -68 -207 -68z" />
    <glyph glyph-name="yen" unicode="&#xa5;" horiz-adv-x="680" 
d="M558 187h-216l-22 -187h-40l22 187h-216l5 34h216l11 89h-216l4 34h198l-234 436h48l139 -262l86 -163l126 163l203 262h48l-340 -436h198l-4 -34h-216l-11 -89h216z" />
    <glyph glyph-name="brokenbar" unicode="&#xa6;" horiz-adv-x="250" 
d="M145 330l-56 -460h-40l56 460h40zM206 830l-56 -460h-40l56 460h40z" />
    <glyph glyph-name="section" unicode="&#xa7;" horiz-adv-x="620" 
d="M559 330q0 -78 -50 -135t-128 -76v-1q57 -14 87.5 -42.5t30.5 -81.5q0 -54 -22 -94.5t-59 -63.5t-80.5 -34.5t-92.5 -11.5q-212 0 -227 146l42 20q3 -65 48 -97.5t142 -32.5q25 0 50.5 3.5t55 15t51.5 29t36.5 48.5t14.5 71q0 52 -40.5 74t-145.5 34q-34 4 -54.5 7
t-50 10t-47 17t-35 25t-26 38t-8.5 52q0 78 50 135t128 76v1q-57 14 -87.5 42.5t-30.5 81.5q0 54 22 94.5t59 63.5t80.5 34.5t92.5 11.5q212 0 227 -146l-42 -20q-3 65 -48 97.5t-142 32.5q-25 0 -50.5 -3.5t-55 -15t-51.5 -29t-36.5 -48.5t-14.5 -71q0 -52 40.5 -74
t145.5 -34q34 -4 54.5 -7t50 -10t47 -17t35 -25t26 -38t8.5 -52zM91 258q0 -36 14.5 -60t42.5 -36t59 -16.5t73 -4.5q60 0 112 17t89.5 59.5t37.5 104.5q0 36 -14.5 60t-42.5 36t-59 16.5t-73 4.5q-60 0 -112 -17t-89.5 -59.5t-37.5 -104.5z" />
    <glyph glyph-name="dieresis" unicode="&#xa8;" 
d="M286 743l-8 -60h-60l8 60h60zM477 743l-8 -60h-60l8 60h60z" />
    <glyph glyph-name="copyright" unicode="&#xa9;" horiz-adv-x="900" 
d="M54 341q0 118 63 222t167.5 165.5t221.5 61.5q152 0 253 -100.5t101 -248.5q0 -119 -63 -223.5t-167.5 -166t-221.5 -61.5q-152 0 -253 101t-101 250zM502 754q-79 0 -154.5 -33t-131.5 -88t-90.5 -130.5t-34.5 -155.5q0 -136 92 -228.5t230 -92.5q106 0 201 56
t152.5 150.5t57.5 202.5q0 135 -92 227t-230 92zM483 596q-96 0 -156.5 -66t-60.5 -179q0 -80 43 -123.5t117 -43.5q150 0 189 120l37 -18q-25 -66 -82 -103.5t-144 -37.5q-94 0 -149 52t-55 150q0 136 75.5 212t188.5 76q86 0 134 -37t58 -102l-42 -20q-5 57 -44 88.5
t-109 31.5z" />
    <glyph glyph-name="ordfeminine" unicode="&#xaa;" horiz-adv-x="475" 
d="M465 780l-21 -124l-17 -142l-10 -124h-31v69q-22 -34 -62 -56.5t-82 -22.5q-73 0 -112.5 42.5t-39.5 120.5q0 115 56 181t146 66q42 0 76.5 -22.5t48.5 -56.5l17 69h31zM395 534l13 102q0 46 -31 83.5t-88 37.5q-78 0 -119.5 -58t-41.5 -153q0 -133 119 -133
q56 0 98.5 39t49.5 82z" />
    <glyph glyph-name="guillemotleft" unicode="&#xab;" horiz-adv-x="508" 
d="M264 440l-6 -46l-183 -132l151 -132l-5 -40l-190 151l6 48zM472 440l-6 -46l-183 -132l151 -132l-5 -40l-190 151l6 48z" />
    <glyph glyph-name="logicalnot" unicode="&#xac;" horiz-adv-x="490" 
d="M396 250l30 246h-356l5 34h390l-35 -280h-34z" />
    <glyph glyph-name="registered" unicode="&#xae;" horiz-adv-x="900" 
d="M54 341q0 118 63 222t167.5 165.5t221.5 61.5q152 0 253 -100.5t101 -248.5q0 -119 -63 -223.5t-167.5 -166t-221.5 -61.5q-152 0 -253 101t-101 250zM502 754q-79 0 -154.5 -33t-131.5 -88t-90.5 -130.5t-34.5 -155.5q0 -136 92 -228.5t230 -92.5q106 0 201 56
t152.5 150.5t57.5 202.5q0 135 -92 227t-230 92zM308 343l-23 -188h-37l57 470h197q139 0 139 -114q0 -76 -35 -115t-90 -49l88 -192h-47l-83 188h-166zM338 589l-26 -210h175q17 0 33.5 4t36.5 16t32 39t12 67q0 84 -88 84h-175z" />
    <glyph glyph-name="macron" unicode="&#xaf;" 
d="M209 697l4 32h272l-4 -32h-272z" />
    <glyph glyph-name="degree" unicode="&#xb0;" horiz-adv-x="490" 
d="M260 448q78 0 124 44t46 131q0 117 -135 117q-77 0 -124 -43.5t-47 -129.5q0 -59 35.5 -89t100.5 -30zM255 414q-77 0 -123 38.5t-46 111.5q0 101 61.5 155.5t152.5 54.5q77 0 122.5 -38t45.5 -111q0 -102 -61 -156.5t-152 -54.5z" />
    <glyph glyph-name="plusminus" unicode="&#xb1;" horiz-adv-x="490" 
d="M421 173h-390l4 34h390zM221 275l22 178h-178l4 34h178l22 178h34l-22 -178h178l-4 -34h-178l-22 -178h-34z" />
    <glyph glyph-name="uni00B2" unicode="&#xb2;" horiz-adv-x="424" 
d="M369 370h-303q5 43 18.5 74t39.5 52.5t48.5 33.5t65.5 30q8 4 25.5 11t23.5 9.5t19 8.5t17 9.5t12.5 9.5t11 11.5t6.5 13.5t5 17t1 20q0 39 -29.5 54.5t-64.5 15.5q-53 0 -81.5 -17t-41.5 -56l-32 15q35 92 160 92q55 0 89.5 -25.5t34.5 -73.5q0 -20 -3.5 -36t-14 -29
t-17 -21t-26 -18.5t-25.5 -13.5t-31.5 -13.5t-29.5 -12.5q-69 -29 -100 -56t-39 -72l265 1z" />
    <glyph glyph-name="uni00B3" unicode="&#xb3;" horiz-adv-x="421" 
d="M380 490q0 -58 -45.5 -94t-128.5 -36q-119 0 -134 90l37 17q3 -75 101 -75q134 0 134 97q0 23 -9 37.5t-27 20.5t-33.5 7.5t-39.5 1.5h-54l4 34h54q25 0 42 2.5t35 11t27.5 27.5t9.5 48q0 62 -93 62q-54 0 -82 -17.5t-39 -56.5l-32 15q33 92 153 92q58 0 93.5 -22.5
t35.5 -68.5q0 -49 -25 -76.5t-59 -31.5q30 -3 52.5 -24.5t22.5 -60.5z" />
    <glyph glyph-name="acute" unicode="&#xb4;" 
d="M434 800h47l-132 -208h-35z" />
    <glyph glyph-name="mu" unicode="&#xb5;" horiz-adv-x="565" 
d="M6 -200l90 730h38l-46 -369q-8 -65 30 -100.5t108 -35.5q71 0 123 41t78 91l46 373h38l-52 -422l-8 -108h-30l-1 100q-31 -48 -88.5 -79t-120.5 -31q-47 0 -85 16t-54 45l-8 -91l-20 -160h-38z" />
    <glyph glyph-name="paragraph" unicode="&#xb6;" horiz-adv-x="665" 
d="M486 0l91 745h-102l-91 -745h-39l41 336h-116q-92 0 -144.5 38.5t-52.5 135.5q0 140 69.5 205t181.5 65h296l-95 -780h-39z" />
    <glyph glyph-name="periodcentered" unicode="&#xb7;" horiz-adv-x="200" 
d="M134 365l-7 -60h-60l7 60h60z" />
    <glyph glyph-name="cedilla" unicode="&#xb8;" 
d="M242 12h25l-22 -54q99 -14 99 -76q0 -46 -34.5 -69t-85.5 -23q-49 0 -77 17l13 29q1 -1 9 -5t24 -7.5t32 -3.5q84 0 84 57q0 7 -2 13.5t-6.5 11l-8.5 8.5t-12.5 7t-13.5 4.5t-15.5 3.5t-15 3t-16 2.5t-14.5 1.5z" />
    <glyph glyph-name="uni00B9" unicode="&#xb9;" horiz-adv-x="280" 
d="M175 370h-36l43 348q-31 -30 -101 -55l4 37q36 13 59 28.5t50 45.5h31z" />
    <glyph glyph-name="ordmasculine" unicode="&#xba;" horiz-adv-x="480" 
d="M250 414q72 0 117.5 52.5t45.5 156.5q0 133 -121 133q-72 0 -117.5 -52.5t-45.5 -156.5q0 -133 121 -133zM246 380q-74 0 -114.5 41.5t-40.5 121.5q0 119 57 183t148 64q74 0 114.5 -41.5t40.5 -121.5q0 -119 -57 -183t-148 -64z" />
    <glyph glyph-name="guillemotright" unicode="&#xbb;" horiz-adv-x="508" 
d="M229 90l6 46l183 132l-151 132l5 40l190 -151l-6 -48zM21 90l6 46l183 132l-151 132l5 40l190 -151l-6 -48z" />
    <glyph glyph-name="uni00BC" unicode="&#xbc;" horiz-adv-x="802" 
d="M728 92h-78l-11 -92h-35l11 92h-189l3 29l224 283h35l-34 -278h78zM707 764l-599 -764h-42l599 764h42zM175 370h-36l43 348q-31 -30 -101 -55l4 37q36 13 59 28.5t50 45.5h31zM619 126l20 165l9 60l-44 -58l-90 -113l-44 -54h149z" />
    <glyph glyph-name="uni00BD" unicode="&#xbd;" horiz-adv-x="870" 
d="M175 370h-36l43 348q-31 -30 -101 -55l4 37q36 13 59 28.5t50 45.5h31zM707 764l-599 -764h-42l599 764h42zM770 0h-303q5 43 18.5 74t39.5 52.5t48.5 33.5t65.5 30q8 4 25.5 11t23.5 9.5t19 8.5t17 9.5t12.5 9.5t11 11.5t6.5 13.5t5 17t1 20q0 39 -29.5 54.5t-64.5 15.5
q-53 0 -81.5 -17t-41.5 -56l-32 15q35 92 160 92q55 0 89.5 -25.5t34.5 -73.5q0 -20 -3.5 -36t-14 -29t-17 -21t-26 -18.5t-25.5 -13.5t-31.5 -13.5t-29.5 -12.5q-69 -29 -100 -56t-39 -72l265 1z" />
    <glyph glyph-name="uni00BE" unicode="&#xbe;" horiz-adv-x="932" 
d="M858 92h-78l-11 -92h-35l11 92h-189l3 29l224 283h35l-34 -278h78zM837 764l-599 -764h-42l599 764h42zM749 126l20 165l9 60l-44 -58l-90 -113l-44 -54h149zM380 490q0 -58 -45.5 -94t-128.5 -36q-119 0 -134 90l37 17q3 -75 101 -75q134 0 134 97q0 23 -9 37.5
t-27 20.5t-33.5 7.5t-39.5 1.5h-54l4 34h54q25 0 42 2.5t35 11t27.5 27.5t9.5 48q0 62 -93 62q-54 0 -82 -17.5t-39 -56.5l-32 15q33 92 153 92q58 0 93.5 -22.5t35.5 -68.5q0 -49 -25 -76.5t-59 -31.5q30 -3 52.5 -24.5t22.5 -60.5z" />
    <glyph glyph-name="questiondown" unicode="&#xbf;" horiz-adv-x="540" 
d="M287 340h26q9 -45 9 -66q0 -61 -31 -92t-84 -52q-81 -31 -108 -54q-55 -44 -55 -131q0 -66 44.5 -93t125.5 -27q186 0 227 163l35 -16q-53 -182 -266 -182q-206 0 -206 150q0 41 12.5 75t28 54t43 38t45 26t46.5 19q9 3 13 5q57 23 78 47.5t21 80.5q0 13 -4 55zM286 478
l7 52h52l-7 -52h-52z" />
    <glyph glyph-name="Agrave" unicode="&#xc0;" horiz-adv-x="720" 
d="M321 1030h47l68 -208h-35zM598 0l-67 265h-356l-131 -265h-45l396 790h42l204 -790h-43zM412 744l-114 -231l-106 -212h329l-53 212z" />
    <glyph glyph-name="Aacute" unicode="&#xc1;" horiz-adv-x="720" 
d="M524 1030h47l-132 -208h-35zM598 0l-67 265h-356l-131 -265h-45l396 790h42l204 -790h-43zM412 744l-114 -231l-106 -212h329l-53 212z" />
    <glyph glyph-name="Acircumflex" unicode="&#xc2;" horiz-adv-x="720" 
d="M598 0l-67 265h-356l-131 -265h-45l396 790h42l204 -790h-43zM412 744l-114 -231l-106 -212h329l-53 212zM595 822h-36l-115 175l-159 -175h-40l179 208h44z" />
    <glyph glyph-name="Atilde" unicode="&#xc3;" horiz-adv-x="720" 
d="M598 0l-67 265h-356l-131 -265h-45l396 790h42l204 -790h-43zM412 744l-114 -231l-106 -212h329l-53 212zM593 970l28 -5q-10 -40 -41.5 -64.5t-71.5 -24.5q-34 0 -61 18t-51 36t-51 18q-62 0 -80 -63l-27 5q10 40 41.5 64.5t70.5 24.5q42 0 87 -36t77 -36q28 0 49.5 16
t29.5 47z" />
    <glyph glyph-name="Adieresis" unicode="&#xc4;" horiz-adv-x="720" 
d="M374 973l-7 -60h-60l7 60h60zM565 973l-7 -60h-60l7 60h60zM598 0l-67 265h-356l-131 -265h-45l396 790h42l204 -790h-43zM412 744l-114 -231l-106 -212h329l-53 212z" />
    <glyph glyph-name="Aring" unicode="&#xc5;" horiz-adv-x="720" 
d="M598 0l-67 265h-356l-131 -265h-45l396 790h42l204 -790h-43zM412 744l-114 -231l-106 -212h329l-53 212zM419 812q-48 0 -74.5 26t-26.5 70q0 57 35.5 94.5t93.5 37.5q48 0 74.5 -26t26.5 -70q0 -57 -35.5 -94.5t-93.5 -37.5zM444 1012q-44 0 -69.5 -28t-25.5 -73
q0 -71 73 -71q44 0 69.5 28t25.5 73q0 71 -73 71z" />
    <glyph glyph-name="AE" unicode="&#xc6;" horiz-adv-x="1075" 
d="M566 0l-28 382h-252l-247 -382h-47l510 780h533l-4 -36h-480l23 -326h377l-5 -36h-370l25 -346h363l-4 -36h-394zM514 734l-204 -316h226l-11 155z" />
    <glyph glyph-name="Ccedilla" unicode="&#xc7;" horiz-adv-x="750" 
d="M71 298q0 140 40.5 248.5t129 176t215.5 67.5q244 0 266 -191l-41 -19q-11 174 -222 174q-88 0 -155 -34.5t-108.5 -97t-62 -143.5t-20.5 -179q0 -270 250 -274q219 0 271 174l37 -18q-66 -191 -312 -192l-13 -32q99 -14 99 -76q0 -46 -34.5 -69t-85.5 -23q-49 0 -77 17
l13 29q1 -1 9 -5t24 -7.5t32 -3.5q84 0 84 57q0 7 -2 13.5t-6.5 11l-8.5 8.5t-12.5 7t-13.5 4.5t-15.5 3.5t-15 3t-16 2.5t-14.5 1.5l27 59q-133 7 -197.5 86.5t-64.5 220.5z" />
    <glyph glyph-name="Egrave" unicode="&#xc8;" horiz-adv-x="715" 
d="M155 780h520l-4 -36h-480l-40 -326h440l-5 -36h-440l-42 -346h500l-4 -36h-540zM333 1030h47l68 -208h-35z" />
    <glyph glyph-name="Eacute" unicode="&#xc9;" horiz-adv-x="715" 
d="M155 780h520l-4 -36h-480l-40 -326h440l-5 -36h-440l-42 -346h500l-4 -36h-540zM532 1030h47l-132 -208h-35z" />
    <glyph glyph-name="Ecircumflex" unicode="&#xca;" horiz-adv-x="715" 
d="M155 780h520l-4 -36h-480l-40 -326h440l-5 -36h-440l-42 -346h500l-4 -36h-540zM605 822h-36l-115 175l-159 -175h-40l179 208h44z" />
    <glyph glyph-name="Edieresis" unicode="&#xcb;" horiz-adv-x="715" 
d="M155 780h520l-4 -36h-480l-40 -326h440l-5 -36h-440l-42 -346h500l-4 -36h-540zM575 973l-7 -60h-60l7 60h60zM384 973l-7 -60h-60l7 60h60z" />
    <glyph glyph-name="Igrave" unicode="&#xcc;" horiz-adv-x="280" 
d="M215 780l-95 -780h-40l95 780h40zM103 1030h47l68 -208h-35z" />
    <glyph glyph-name="Iacute" unicode="&#xcd;" horiz-adv-x="280" 
d="M215 780l-95 -780h-40l95 780h40zM302 1030h47l-132 -208h-35z" />
    <glyph glyph-name="Icircumflex" unicode="&#xce;" horiz-adv-x="280" 
d="M215 780l-95 -780h-40l95 780h40zM375 822h-36l-115 175l-159 -175h-40l179 208h44z" />
    <glyph glyph-name="Idieresis" unicode="&#xcf;" horiz-adv-x="280" 
d="M215 780l-95 -780h-40l95 780h40zM345 973l-7 -60h-60l7 60h60zM154 973l-7 -60h-60l7 60h60z" />
    <glyph glyph-name="Eth" unicode="&#xd0;" horiz-adv-x="830" 
d="M769 495q0 -495 -407 -495h-257l46 383h-119l4 34h119l45 363h257q158 0 235 -64t77 -221zM149 36h228q176 0 263.5 118t87.5 344q0 135 -62.5 190.5t-201.5 55.5h-228l-41 -327h269l-4 -34h-269z" />
    <glyph glyph-name="Ntilde" unicode="&#xd1;" horiz-adv-x="761" 
d="M613 970l28 -5q-10 -40 -41.5 -64.5t-71.5 -24.5q-34 0 -61 18t-51 36t-51 18q-62 0 -80 -63l-27 5q10 40 41.5 64.5t70.5 24.5q42 0 87 -36t77 -36q28 0 49.5 16t29.5 47zM573 0l-290 544l-98 188l-30 -272l-56 -460h-39l95 780h48l289 -544l98 -188l31 272l56 460h39
l-95 -780h-48z" />
    <glyph glyph-name="Ograve" unicode="&#xd2;" horiz-adv-x="800" 
d="M363 1030h47l68 -208h-35zM358 -10q-148 0 -217.5 82t-69.5 227q0 100 22.5 186.5t67.5 155.5t121 109t174 40q148 0 217.5 -81t69.5 -226q0 -143 -40 -251.5t-128.5 -175t-216.5 -66.5zM452 754q-89 0 -156.5 -38t-106 -103t-57.5 -143t-19 -167q0 -277 250 -277
q87 0 154 36t106 99.5t58.5 143t19.5 173.5q0 276 -249 276z" />
    <glyph glyph-name="Oacute" unicode="&#xd3;" horiz-adv-x="800" 
d="M562 1030h47l-132 -208h-35zM358 -10q-148 0 -217.5 82t-69.5 227q0 100 22.5 186.5t67.5 155.5t121 109t174 40q148 0 217.5 -81t69.5 -226q0 -143 -40 -251.5t-128.5 -175t-216.5 -66.5zM452 754q-89 0 -156.5 -38t-106 -103t-57.5 -143t-19 -167q0 -277 250 -277
q87 0 154 36t106 99.5t58.5 143t19.5 173.5q0 276 -249 276z" />
    <glyph glyph-name="Ocircumflex" unicode="&#xd4;" horiz-adv-x="800" 
d="M358 -10q-148 0 -217.5 82t-69.5 227q0 100 22.5 186.5t67.5 155.5t121 109t174 40q148 0 217.5 -81t69.5 -226q0 -143 -40 -251.5t-128.5 -175t-216.5 -66.5zM452 754q-89 0 -156.5 -38t-106 -103t-57.5 -143t-19 -167q0 -277 250 -277q87 0 154 36t106 99.5t58.5 143
t19.5 173.5q0 276 -249 276zM635 822h-36l-115 175l-159 -175h-40l179 208h44z" />
    <glyph glyph-name="Otilde" unicode="&#xd5;" horiz-adv-x="800" 
d="M358 -10q-148 0 -217.5 82t-69.5 227q0 100 22.5 186.5t67.5 155.5t121 109t174 40q148 0 217.5 -81t69.5 -226q0 -143 -40 -251.5t-128.5 -175t-216.5 -66.5zM452 754q-89 0 -156.5 -38t-106 -103t-57.5 -143t-19 -167q0 -277 250 -277q87 0 154 36t106 99.5t58.5 143
t19.5 173.5q0 276 -249 276zM633 970l28 -5q-10 -40 -41.5 -64.5t-71.5 -24.5q-34 0 -61 18t-51 36t-51 18q-62 0 -80 -63l-27 5q10 40 41.5 64.5t70.5 24.5q42 0 87 -36t77 -36q28 0 49.5 16t29.5 47z" />
    <glyph glyph-name="Odieresis" unicode="&#xd6;" horiz-adv-x="800" 
d="M414 973l-7 -60h-60l7 60h60zM605 973l-7 -60h-60l7 60h60zM358 -10q-148 0 -217.5 82t-69.5 227q0 100 22.5 186.5t67.5 155.5t121 109t174 40q148 0 217.5 -81t69.5 -226q0 -143 -40 -251.5t-128.5 -175t-216.5 -66.5zM452 754q-89 0 -156.5 -38t-106 -103t-57.5 -143
t-19 -167q0 -277 250 -277q87 0 154 36t106 99.5t58.5 143t19.5 173.5q0 276 -249 276z" />
    <glyph glyph-name="multiply" unicode="&#xd7;" horiz-adv-x="490" 
d="M71 250l157 140l-122 140l27 24l122 -140l158 140l21 -24l-158 -140l123 -140l-27 -24l-123 140l-157 -140z" />
    <glyph glyph-name="Oslash" unicode="&#xd8;" horiz-adv-x="800" 
d="M743 482q0 -100 -22.5 -186.5t-67 -156t-120.5 -109.5t-175 -40q-122 0 -192 59l-38 -49h-45l56 73q-68 80 -68 226q0 100 22.5 186.5t67.5 155.5t121 109t174 40q123 0 193 -59l38 49h45l-57 -73q68 -80 68 -225zM363 26q89 0 156.5 38t106 103t57.5 143t19 167
q0 125 -54 195l-458 -591q61 -55 173 -55zM452 754q-72 0 -129.5 -25t-96 -67t-64.5 -100t-37.5 -122t-11.5 -134q0 -127 54 -198l457 591q-60 55 -172 55z" />
    <glyph glyph-name="Ugrave" unicode="&#xd9;" horiz-adv-x="784" 
d="M355 1030h47l68 -208h-35zM350 -10q-165 0 -227.5 69t-46.5 200l64 521h41l-65 -528q-13 -109 40 -167t199 -58t213 58t80 167l65 528h41l-64 -521q-16 -131 -95.5 -200t-244.5 -69z" />
    <glyph glyph-name="Uacute" unicode="&#xda;" horiz-adv-x="784" 
d="M350 -10q-165 0 -227.5 69t-46.5 200l64 521h41l-65 -528q-13 -109 40 -167t199 -58t213 58t80 167l65 528h41l-64 -521q-16 -131 -95.5 -200t-244.5 -69zM554 1030h47l-132 -208h-35z" />
    <glyph glyph-name="Ucircumflex" unicode="&#xdb;" horiz-adv-x="784" 
d="M350 -10q-165 0 -227.5 69t-46.5 200l64 521h41l-65 -528q-13 -109 40 -167t199 -58t213 58t80 167l65 528h41l-64 -521q-16 -131 -95.5 -200t-244.5 -69zM627 822h-36l-115 175l-159 -175h-40l179 208h44z" />
    <glyph glyph-name="Udieresis" unicode="&#xdc;" horiz-adv-x="784" 
d="M597 973l-7 -60h-60l7 60h60zM406 973l-7 -60h-60l7 60h60zM350 -10q-165 0 -227.5 69t-46.5 200l64 521h41l-65 -528q-13 -109 40 -167t199 -58t213 58t80 167l65 528h41l-64 -521q-16 -131 -95.5 -200t-244.5 -69z" />
    <glyph glyph-name="Yacute" unicode="&#xdd;" horiz-adv-x="670" 
d="M495 1030h47l-132 -208h-35zM75 780h47l132 -262l82 -164l122 164l196 262h51l-352 -463l-38 -317h-40l38 317z" />
    <glyph glyph-name="Thorn" unicode="&#xde;" horiz-adv-x="665" 
d="M195 780l-19 -158h256q43 0 76.5 -8t62 -26.5t43.5 -53.5t15 -85q0 -271 -252 -271h-256l-21 -178h-40l95 780h40zM126 214h272q37 0 68.5 10.5t60.5 35t45.5 71t16.5 111.5q0 144 -146 144h-272z" />
    <glyph glyph-name="germandbls" unicode="&#xdf;" horiz-adv-x="648" 
d="M396 810q87 0 140 -36t53 -106q0 -40 -13.5 -71.5t-39.5 -52t-47 -32t-54 -24.5q-70 -27 -92 -47q-33 -28 -33 -74q0 -27 16 -43.5t36 -23.5t59 -17q6 -1 9 -2q80 -20 106 -38q43 -28 43 -81q0 -82 -58 -127t-142 -45q-87 0 -123.5 34.5t-40.5 91.5l43 20q3 -53 27.5 -82
t97.5 -29q60 0 107 34t47 95q0 29 -18.5 47.5t-39.5 25.5t-60 17q-9 2 -13 3q-1 0 -14.5 3.5t-17 4.5t-17 5t-19 6.5t-17 8.5t-17 11t-13.5 13t-11.5 17t-6.5 20t-3 24q0 16 3 30.5t7 26t12.5 22.5t15 18t18.5 15.5t18.5 13t21 11t19.5 8.5t19.5 7.5t16.5 6.5
q70 27 100.5 55t30.5 86q0 56 -45 85t-115 29q-110 0 -160 -54.5t-62 -147.5l-95 -772h-38l94 762q15 125 77.5 186.5t187.5 61.5z" />
    <glyph glyph-name="agrave" unicode="&#xe0;" horiz-adv-x="590" 
d="M216 800h47l68 -208h-35zM522 422l-38 -314l-8 -108h-30l-1 100q-33 -51 -91 -80.5t-115 -29.5q-91 0 -140.5 59t-49.5 162q0 145 72.5 237t185.5 92q57 0 107.5 -29.5t70.5 -80.5l26 100h30zM452 158l26 214q-13 52 -54 92.5t-119 40.5q-93 0 -153.5 -80.5t-60.5 -210.5
q0 -88 40.5 -138.5t114.5 -50.5q78 0 128.5 40t77.5 93z" />
    <glyph glyph-name="aacute" unicode="&#xe1;" horiz-adv-x="590" 
d="M415 800h47l-132 -208h-35zM522 422l-38 -314l-8 -108h-30l-1 100q-33 -51 -91 -80.5t-115 -29.5q-91 0 -140.5 59t-49.5 162q0 145 72.5 237t185.5 92q57 0 107.5 -29.5t70.5 -80.5l26 100h30zM452 158l26 214q-13 52 -54 92.5t-119 40.5q-93 0 -153.5 -80.5
t-60.5 -210.5q0 -88 40.5 -138.5t114.5 -50.5q78 0 128.5 40t77.5 93z" />
    <glyph glyph-name="acircumflex" unicode="&#xe2;" horiz-adv-x="590" 
d="M522 422l-38 -314l-8 -108h-30l-1 100q-33 -51 -91 -80.5t-115 -29.5q-91 0 -140.5 59t-49.5 162q0 145 72.5 237t185.5 92q57 0 107.5 -29.5t70.5 -80.5l26 100h30zM452 158l26 214q-13 52 -54 92.5t-119 40.5q-93 0 -153.5 -80.5t-60.5 -210.5q0 -88 40.5 -138.5
t114.5 -50.5q78 0 128.5 40t77.5 93zM488 592h-36l-115 175l-159 -175h-40l179 208h44z" />
    <glyph glyph-name="atilde" unicode="&#xe3;" horiz-adv-x="590" 
d="M522 422l-38 -314l-8 -108h-30l-1 100q-33 -51 -91 -80.5t-115 -29.5q-91 0 -140.5 59t-49.5 162q0 145 72.5 237t185.5 92q57 0 107.5 -29.5t70.5 -80.5l26 100h30zM452 158l26 214q-13 52 -54 92.5t-119 40.5q-93 0 -153.5 -80.5t-60.5 -210.5q0 -88 40.5 -138.5
t114.5 -50.5q78 0 128.5 40t77.5 93zM497 740l28 -5q-10 -40 -41.5 -64.5t-71.5 -24.5q-34 0 -61 18t-51 36t-51 18q-62 0 -80 -63l-27 5q10 40 41.5 64.5t70.5 24.5q42 0 87 -36t77 -36q28 0 49.5 16t29.5 47z" />
    <glyph glyph-name="adieresis" unicode="&#xe4;" horiz-adv-x="590" 
d="M267 743l-8 -60h-60l8 60h60zM458 743l-8 -60h-60l8 60h60zM522 422l-38 -314l-8 -108h-30l-1 100q-33 -51 -91 -80.5t-115 -29.5q-91 0 -140.5 59t-49.5 162q0 145 72.5 237t185.5 92q57 0 107.5 -29.5t70.5 -80.5l26 100h30zM452 158l26 214q-13 52 -54 92.5t-119 40.5
q-93 0 -153.5 -80.5t-60.5 -210.5q0 -88 40.5 -138.5t114.5 -50.5q78 0 128.5 40t77.5 93z" />
    <glyph glyph-name="aring" unicode="&#xe5;" horiz-adv-x="590" 
d="M312 582q-48 0 -74.5 26t-26.5 70q0 57 35.5 94.5t93.5 37.5q48 0 74.5 -26t26.5 -70q0 -57 -35.5 -94.5t-93.5 -37.5zM337 782q-44 0 -69.5 -28t-25.5 -73q0 -71 73 -71q44 0 69.5 28t25.5 73q0 71 -73 71zM522 422l-38 -314l-8 -108h-30l-1 100q-33 -51 -91 -80.5
t-115 -29.5q-91 0 -140.5 59t-49.5 162q0 145 72.5 237t185.5 92q57 0 107.5 -29.5t70.5 -80.5l26 100h30zM452 158l26 214q-13 52 -54 92.5t-119 40.5q-93 0 -153.5 -80.5t-60.5 -210.5q0 -88 40.5 -138.5t114.5 -50.5q78 0 128.5 40t77.5 93z" />
    <glyph glyph-name="ae" unicode="&#xe6;" horiz-adv-x="963" 
d="M888 251h-413q-10 -97 37 -161.5t131 -64.5q145 0 180 108l37 -18q-23 -58 -79.5 -91.5t-142.5 -33.5q-73 0 -122.5 35.5t-69.5 100.5q-97 -136 -255 -136q-76 0 -115 34.5t-39 92.5q0 83 56.5 125.5t152.5 42.5h192l11 85q7 73 -29.5 105t-123.5 32q-124 0 -158 -101
l-35 16q47 118 204 118q166 0 179 -126q34 59 92 92.5t128 33.5q189 0 189 -203q0 -30 -7 -86zM702 505q-83 0 -147 -61t-76 -159h370q4 40 4 57q0 79 -35.5 121t-115.5 42zM237 251q-159 0 -159 -132q0 -46 30.5 -70t87.5 -24q162 0 238 151q-3 29 0 75h-197z" />
    <glyph glyph-name="ccedilla" unicode="&#xe7;" horiz-adv-x="562" 
d="M91 221q0 -90 46 -143t122 -53q145 0 180 108l37 -18q-23 -58 -79.5 -91.5t-142.5 -33.5l-13 -32q99 -14 99 -76q0 -45 -34 -68.5t-86 -23.5q-49 0 -77 17l13 29q1 -1 9 -5t24 -7.5t32 -3.5q84 0 84 57q0 7 -2 13.5t-6.5 11l-8.5 8.5t-12.5 7t-13.5 4.5t-15.5 3.5t-15 3
t-16 2.5t-14.5 1.5l27 60q-83 8 -131 68.5t-48 156.5q0 139 77.5 231t195.5 92q85 0 133 -33t57 -91l-41 -19q-10 108 -153 108q-94 0 -160.5 -79.5t-66.5 -204.5z" />
    <glyph glyph-name="egrave" unicode="&#xe8;" horiz-adv-x="579" 
d="M231 800h47l68 -208h-35zM504 251h-413q-1 -10 -1 -30q0 -90 46 -143t123 -53q145 0 180 108l37 -18q-23 -58 -79.5 -91.5t-142.5 -33.5q-95 0 -150 61.5t-55 165.5q0 141 78.5 232t194.5 91q189 0 189 -203q0 -30 -7 -86zM318 505q-82 0 -143 -60t-80 -160h370
q4 40 4 57q0 79 -35.5 121t-115.5 42z" />
    <glyph glyph-name="eacute" unicode="&#xe9;" horiz-adv-x="579" 
d="M430 800h47l-132 -208h-35zM504 251h-413q-1 -10 -1 -30q0 -90 46 -143t123 -53q145 0 180 108l37 -18q-23 -58 -79.5 -91.5t-142.5 -33.5q-95 0 -150 61.5t-55 165.5q0 141 78.5 232t194.5 91q189 0 189 -203q0 -30 -7 -86zM318 505q-82 0 -143 -60t-80 -160h370
q4 40 4 57q0 79 -35.5 121t-115.5 42z" />
    <glyph glyph-name="ecircumflex" unicode="&#xea;" horiz-adv-x="579" 
d="M503 592h-36l-115 175l-159 -175h-40l179 208h44zM504 251h-413q-1 -10 -1 -30q0 -90 46 -143t123 -53q145 0 180 108l37 -18q-23 -58 -79.5 -91.5t-142.5 -33.5q-95 0 -150 61.5t-55 165.5q0 141 78.5 232t194.5 91q189 0 189 -203q0 -30 -7 -86zM318 505
q-82 0 -143 -60t-80 -160h370q4 40 4 57q0 79 -35.5 121t-115.5 42z" />
    <glyph glyph-name="edieresis" unicode="&#xeb;" horiz-adv-x="579" 
d="M282 743l-8 -60h-60l8 60h60zM473 743l-8 -60h-60l8 60h60zM504 251h-413q-1 -10 -1 -30q0 -90 46 -143t123 -53q145 0 180 108l37 -18q-23 -58 -79.5 -91.5t-142.5 -33.5q-95 0 -150 61.5t-55 165.5q0 141 78.5 232t194.5 91q189 0 189 -203q0 -30 -7 -86zM318 505
q-82 0 -143 -60t-80 -160h370q4 40 4 57q0 79 -35.5 121t-115.5 42z" />
    <glyph glyph-name="igrave" unicode="&#xec;" horiz-adv-x="236" 
d="M59 0l65 530h38l-65 -530h-38zM53 800h47l68 -208h-35z" />
    <glyph glyph-name="iacute" unicode="&#xed;" horiz-adv-x="236" 
d="M59 0l65 530h38l-65 -530h-38zM252 800h47l-132 -208h-35z" />
    <glyph glyph-name="icircumflex" unicode="&#xee;" horiz-adv-x="236" 
d="M59 0l65 530h38l-65 -530h-38zM325 592h-36l-115 175l-159 -175h-40l179 208h44z" />
    <glyph glyph-name="idieresis" unicode="&#xef;" horiz-adv-x="236" 
d="M59 0l65 530h38l-65 -530h-38zM295 743l-8 -60h-60l8 60h60zM104 743l-8 -60h-60l8 60h60z" />
    <glyph glyph-name="eth" unicode="&#xf0;" horiz-adv-x="598" 
d="M524 745l-102 -37q110 -121 110 -330q0 -40 -7 -106q-16 -134 -88.5 -208t-185.5 -74q-98 0 -150.5 57t-52.5 161q0 145 73 238.5t198 93.5q57 0 101 -24t67 -60q-16 147 -104 237l-173 -63l4 35l144 52q-49 41 -138 83h77q57 -27 101 -68l130 48zM315 505
q-105 0 -164.5 -83t-59.5 -212q0 -89 42 -137t123 -48q105 0 167.5 82.5t62.5 209.5q0 90 -44.5 139t-126.5 49z" />
    <glyph glyph-name="ntilde" unicode="&#xf1;" horiz-adv-x="565" 
d="M129 530v-100q31 48 88.5 79t120.5 31q79 0 125.5 -42t37.5 -114l-47 -384h-38l45 369q8 65 -29.5 100.5t-107.5 35.5q-71 0 -123.5 -41t-78.5 -91l-45 -373h-38l51 422l9 108h30zM490 740l28 -5q-10 -40 -41.5 -64.5t-71.5 -24.5q-34 0 -61 18t-51 36t-51 18
q-62 0 -80 -63l-27 5q10 40 41.5 64.5t70.5 24.5q42 0 87 -36t77 -36q28 0 49.5 16t29.5 47z" />
    <glyph glyph-name="ograve" unicode="&#xf2;" horiz-adv-x="592" 
d="M231 800h47l68 -208h-35zM318 505q-105 0 -166 -82.5t-61 -210.5q0 -90 43 -138.5t125 -48.5q105 0 166 83t61 211q0 90 -43 138t-125 48zM254 -10q-99 0 -152 57.5t-53 162.5q0 145 74 237.5t199 92.5q99 0 152.5 -57.5t53.5 -161.5q0 -145 -74.5 -238t-199.5 -93z" />
    <glyph glyph-name="oacute" unicode="&#xf3;" horiz-adv-x="592" 
d="M430 800h47l-132 -208h-35zM318 505q-105 0 -166 -82.5t-61 -210.5q0 -90 43 -138.5t125 -48.5q105 0 166 83t61 211q0 90 -43 138t-125 48zM254 -10q-99 0 -152 57.5t-53 162.5q0 145 74 237.5t199 92.5q99 0 152.5 -57.5t53.5 -161.5q0 -145 -74.5 -238t-199.5 -93z
" />
    <glyph glyph-name="ocircumflex" unicode="&#xf4;" horiz-adv-x="592" 
d="M503 592h-36l-115 175l-159 -175h-40l179 208h44zM318 505q-105 0 -166 -82.5t-61 -210.5q0 -90 43 -138.5t125 -48.5q105 0 166 83t61 211q0 90 -43 138t-125 48zM254 -10q-99 0 -152 57.5t-53 162.5q0 145 74 237.5t199 92.5q99 0 152.5 -57.5t53.5 -161.5
q0 -145 -74.5 -238t-199.5 -93z" />
    <glyph glyph-name="otilde" unicode="&#xf5;" horiz-adv-x="592" 
d="M318 505q-105 0 -166 -82.5t-61 -210.5q0 -90 43 -138.5t125 -48.5q105 0 166 83t61 211q0 90 -43 138t-125 48zM254 -10q-99 0 -152 57.5t-53 162.5q0 145 74 237.5t199 92.5q99 0 152.5 -57.5t53.5 -161.5q0 -145 -74.5 -238t-199.5 -93zM503 740l28 -5
q-10 -40 -41.5 -64.5t-71.5 -24.5q-34 0 -61 18t-51 36t-51 18q-62 0 -80 -63l-27 5q10 40 41.5 64.5t70.5 24.5q42 0 87 -36t77 -36q28 0 49.5 16t29.5 47z" />
    <glyph glyph-name="odieresis" unicode="&#xf6;" horiz-adv-x="592" 
d="M282 743l-8 -60h-60l8 60h60zM473 743l-8 -60h-60l8 60h60zM318 505q-105 0 -166 -82.5t-61 -210.5q0 -90 43 -138.5t125 -48.5q105 0 166 83t61 211q0 90 -43 138t-125 48zM254 -10q-99 0 -152 57.5t-53 162.5q0 145 74 237.5t199 92.5q99 0 152.5 -57.5t53.5 -161.5
q0 -145 -74.5 -238t-199.5 -93z" />
    <glyph glyph-name="divide" unicode="&#xf7;" horiz-adv-x="490" 
d="M445 373h-390l4 34h390zM266 257l-7 -60h-60l7 60h60zM306 583l-7 -60h-60l7 60h60z" />
    <glyph glyph-name="oslash" unicode="&#xf8;" horiz-adv-x="592" 
d="M528 321q0 -145 -74.5 -238t-199.5 -93q-80 0 -130 38l-22 -28h-41l39 50q-51 56 -51 159q0 145 74 238t199 93q80 0 130 -38l23 28h41l-40 -50q52 -57 52 -159zM259 25q104 0 165.5 82t61.5 210q0 80 -36 129l-302 -387q42 -34 111 -34zM318 505q-105 0 -166 -82
t-61 -210q0 -80 35 -129l302 387q-42 34 -110 34z" />
    <glyph glyph-name="ugrave" unicode="&#xf9;" horiz-adv-x="565" 
d="M214 800h47l68 -208h-35zM421 0l-1 100q-31 -48 -88.5 -79t-120.5 -31q-79 0 -125.5 42t-37.5 114l48 384h38l-46 -369q-8 -65 30 -100.5t108 -35.5q71 0 123 41t78 91l46 373h38l-52 -422l-8 -108h-30z" />
    <glyph glyph-name="uacute" unicode="&#xfa;" horiz-adv-x="565" 
d="M413 800h47l-132 -208h-35zM421 0l-1 100q-31 -48 -88.5 -79t-120.5 -31q-79 0 -125.5 42t-37.5 114l48 384h38l-46 -369q-8 -65 30 -100.5t108 -35.5q71 0 123 41t78 91l46 373h38l-52 -422l-8 -108h-30z" />
    <glyph glyph-name="ucircumflex" unicode="&#xfb;" horiz-adv-x="565" 
d="M421 0l-1 100q-31 -48 -88.5 -79t-120.5 -31q-79 0 -125.5 42t-37.5 114l48 384h38l-46 -369q-8 -65 30 -100.5t108 -35.5q71 0 123 41t78 91l46 373h38l-52 -422l-8 -108h-30zM486 592h-36l-115 175l-159 -175h-40l179 208h44z" />
    <glyph glyph-name="udieresis" unicode="&#xfc;" horiz-adv-x="565" 
d="M456 743l-8 -60h-60l8 60h60zM265 743l-8 -60h-60l8 60h60zM421 0l-1 100q-31 -48 -88.5 -79t-120.5 -31q-79 0 -125.5 42t-37.5 114l48 384h38l-46 -369q-8 -65 30 -100.5t108 -35.5q71 0 123 41t78 91l46 373h38l-52 -422l-8 -108h-30z" />
    <glyph glyph-name="yacute" unicode="&#xfd;" horiz-adv-x="512" 
d="M390 800h47l-132 -208h-35zM509 530l-257 -483l-129 -247h-43l117 221l-144 509h43l78 -284l48 -183l93 183l149 284h45z" />
    <glyph glyph-name="thorn" unicode="&#xfe;" horiz-adv-x="590" 
d="M14 -200l123 1000h38l-46 -370q33 51 91 80.5t115 29.5q91 0 141 -59t50 -161q0 -139 -71.5 -234.5t-187.5 -95.5q-57 0 -107.5 29.5t-70.5 80.5l-37 -300h-38zM122 372l-26 -214q13 -52 54.5 -92.5t119.5 -40.5q95 0 154 85t59 207q0 88 -40 138t-114 50
q-78 0 -129 -40.5t-78 -92.5z" />
    <glyph glyph-name="ydieresis" unicode="&#xff;" horiz-adv-x="512" 
d="M433 743l-8 -60h-60l8 60h60zM242 743l-8 -60h-60l8 60h60zM509 530l-257 -483l-129 -247h-43l117 221l-144 509h43l78 -284l48 -183l93 183l149 284h45z" />
    <glyph glyph-name="Amacron" unicode="&#x100;" horiz-adv-x="720" 
d="M297 927l4 32h272l-4 -32h-272zM598 0l-67 265h-356l-131 -265h-45l396 790h42l204 -790h-43zM412 744l-114 -231l-106 -212h329l-53 212z" />
    <glyph glyph-name="amacron" unicode="&#x101;" horiz-adv-x="590" 
d="M190 697l4 32h272l-4 -32h-272zM522 422l-38 -314l-8 -108h-30l-1 100q-33 -51 -91 -80.5t-115 -29.5q-91 0 -140.5 59t-49.5 162q0 145 72.5 237t185.5 92q57 0 107.5 -29.5t70.5 -80.5l26 100h30zM452 158l26 214q-13 52 -54 92.5t-119 40.5q-93 0 -153.5 -80.5
t-60.5 -210.5q0 -88 40.5 -138.5t114.5 -50.5q78 0 128.5 40t77.5 93z" />
    <glyph glyph-name="Abreve" unicode="&#x102;" horiz-adv-x="720" 
d="M598 0l-67 265h-356l-131 -265h-45l396 790h42l204 -790h-43zM412 744l-114 -231l-106 -212h329l-53 212zM593 1030h31q-13 -99 -60 -148.5t-143 -49.5t-131 49.5t-22 148.5h29q-11 -89 19 -128t108 -39t118 39t51 128z" />
    <glyph glyph-name="abreve" unicode="&#x103;" horiz-adv-x="590" 
d="M522 422l-38 -314l-8 -108h-30l-1 100q-33 -51 -91 -80.5t-115 -29.5q-91 0 -140.5 59t-49.5 162q0 145 72.5 237t185.5 92q57 0 107.5 -29.5t70.5 -80.5l26 100h30zM452 158l26 214q-13 52 -54 92.5t-119 40.5q-93 0 -153.5 -80.5t-60.5 -210.5q0 -88 40.5 -138.5
t114.5 -50.5q78 0 128.5 40t77.5 93zM486 800h31q-13 -99 -60 -148.5t-143 -49.5t-131 49.5t-22 148.5h29q-11 -89 19 -128t108 -39t118 39t51 128z" />
    <glyph glyph-name="Aogonek" unicode="&#x104;" horiz-adv-x="720" 
d="M437 790l204 -790q-63 -10 -116.5 -45t-53.5 -87q0 -48 64 -48q22 0 44 6t33.5 12t11.5 7l7 -26q-46 -29 -105 -29q-39 0 -65 18.5t-26 55.5q0 52 44 91t115 60l-63 250h-356l-131 -265h-45l396 790h42zM412 744l-114 -231l-106 -212h329l-53 212z" />
    <glyph glyph-name="aogonek" unicode="&#x105;" horiz-adv-x="590" 
d="M522 422l-38 -314l-8 -108q-63 -10 -116.5 -45t-53.5 -87q0 -48 64 -48q22 0 44 6t33.5 12t11.5 7l7 -26q-46 -29 -105 -29q-39 0 -65 18.5t-26 55.5q0 55 49 95.5t127 59.5l-1 81q-33 -51 -91 -80.5t-115 -29.5q-91 0 -140.5 59t-49.5 162q0 145 72.5 237t185.5 92
q57 0 107.5 -29.5t70.5 -80.5l26 100h30zM452 158l26 214q-13 52 -54 92.5t-119 40.5q-93 0 -153.5 -80.5t-60.5 -210.5q0 -88 40.5 -138.5t114.5 -50.5q78 0 128.5 40t77.5 93z" />
    <glyph glyph-name="Cacute" unicode="&#x106;" horiz-adv-x="750" 
d="M564 1030h47l-132 -208h-35zM71 298q0 140 40.5 248.5t129 176t215.5 67.5q244 0 266 -191l-41 -19q-11 174 -222 174q-88 0 -155 -34.5t-108.5 -97t-62 -143.5t-20.5 -179q0 -270 250 -274q219 0 271 174l37 -18q-67 -192 -313 -192q-145 0 -216 80t-71 228z" />
    <glyph glyph-name="cacute" unicode="&#x107;" horiz-adv-x="562" 
d="M430 800h47l-132 -208h-35zM49 217q0 139 77.5 231t195.5 92q85 0 133 -33t57 -91l-41 -19q-10 108 -153 108q-94 0 -160.5 -79.5t-66.5 -204.5q0 -90 46 -143t122 -53q145 0 180 108l37 -18q-23 -58 -79.5 -91.5t-142.5 -33.5q-95 0 -150 61.5t-55 165.5z" />
    <glyph glyph-name="Ccircumflex" unicode="&#x108;" horiz-adv-x="750" 
d="M71 298q0 140 40.5 248.5t129 176t215.5 67.5q244 0 266 -191l-41 -19q-11 174 -222 174q-88 0 -155 -34.5t-108.5 -97t-62 -143.5t-20.5 -179q0 -270 250 -274q219 0 271 174l37 -18q-67 -192 -313 -192q-145 0 -216 80t-71 228zM635 822h-36l-115 175l-159 -175h-40
l179 208h44z" />
    <glyph glyph-name="ccircumflex" unicode="&#x109;" horiz-adv-x="562" 
d="M49 217q0 139 77.5 231t195.5 92q85 0 133 -33t57 -91l-41 -19q-10 108 -153 108q-94 0 -160.5 -79.5t-66.5 -204.5q0 -90 46 -143t122 -53q145 0 180 108l37 -18q-23 -58 -79.5 -91.5t-142.5 -33.5q-95 0 -150 61.5t-55 165.5zM503 592h-36l-115 175l-159 -175h-40
l179 208h44z" />
    <glyph glyph-name="Cdotaccent" unicode="&#x10a;" horiz-adv-x="750" 
d="M511 973l-7 -60h-60l7 60h60zM71 298q0 140 40.5 248.5t129 176t215.5 67.5q244 0 266 -191l-41 -19q-11 174 -222 174q-88 0 -155 -34.5t-108.5 -97t-62 -143.5t-20.5 -179q0 -270 250 -274q219 0 271 174l37 -18q-67 -192 -313 -192q-145 0 -216 80t-71 228z" />
    <glyph glyph-name="cdotaccent" unicode="&#x10b;" horiz-adv-x="562" 
d="M377 743l-8 -60h-60l8 60h60zM49 217q0 139 77.5 231t195.5 92q85 0 133 -33t57 -91l-41 -19q-10 108 -153 108q-94 0 -160.5 -79.5t-66.5 -204.5q0 -90 46 -143t122 -53q145 0 180 108l37 -18q-23 -58 -79.5 -91.5t-142.5 -33.5q-95 0 -150 61.5t-55 165.5z" />
    <glyph glyph-name="Ccaron" unicode="&#x10c;" horiz-adv-x="750" 
d="M71 298q0 140 40.5 248.5t129 176t215.5 67.5q244 0 266 -191l-41 -19q-11 174 -222 174q-88 0 -155 -34.5t-108.5 -97t-62 -143.5t-20.5 -179q0 -270 250 -274q219 0 271 174l37 -18q-67 -192 -313 -192q-145 0 -216 80t-71 228zM306 1030h36l115 -175l159 175h40
l-179 -208h-44z" />
    <glyph glyph-name="ccaron" unicode="&#x10d;" horiz-adv-x="562" 
d="M179 800h36l115 -175l159 175h40l-179 -208h-44zM49 217q0 139 77.5 231t195.5 92q85 0 133 -33t57 -91l-41 -19q-10 108 -153 108q-94 0 -160.5 -79.5t-66.5 -204.5q0 -90 46 -143t122 -53q145 0 180 108l37 -18q-23 -58 -79.5 -91.5t-142.5 -33.5q-95 0 -150 61.5
t-55 165.5z" />
    <glyph glyph-name="Dcaron" unicode="&#x10e;" horiz-adv-x="780" 
d="M273 1030h36l115 -175l159 175h40l-179 -208h-44zM724 495q0 -495 -407 -495h-257l95 780h257q158 0 235 -64t77 -221zM104 36h228q176 0 263.5 118t87.5 344q0 135 -62.5 190.5t-201.5 55.5h-228z" />
    <glyph glyph-name="dcaron" unicode="&#x10f;" horiz-adv-x="590" 
d="M648 592h-27l57 208h54zM485 430l46 370h38l-93 -800h-30l-1 100q-33 -51 -91 -80.5t-115 -29.5q-91 0 -140.5 59t-49.5 162q0 145 72.5 237t185.5 92q57 0 107.5 -29.5t70.5 -80.5zM452 158l26 214q-13 52 -54 92.5t-119 40.5q-93 0 -153.5 -80.5t-60.5 -210.5
q0 -88 40.5 -138.5t114.5 -50.5q78 0 128.5 40t77.5 93z" />
    <glyph glyph-name="Dcroat" unicode="&#x110;" horiz-adv-x="825" 
d="M769 495q0 -495 -407 -495h-257l46 383h-119l4 34h119l45 363h257q158 0 235 -64t77 -221zM149 36h228q176 0 263.5 118t87.5 344q0 135 -62.5 190.5t-201.5 55.5h-228l-41 -327h269l-4 -34h-269z" />
    <glyph glyph-name="dcroat" unicode="&#x111;" horiz-adv-x="590" 
d="M485 430l26 211h-153l4 34h153l16 125h38l-15 -125h124l-4 -34h-124l-74 -641h-30l-1 100q-33 -51 -91 -80.5t-115 -29.5q-91 0 -140.5 59t-49.5 162q0 145 72.5 237t185.5 92q57 0 107.5 -29.5t70.5 -80.5zM452 158l26 214q-13 52 -54 92.5t-119 40.5
q-93 0 -153.5 -80.5t-60.5 -210.5q0 -88 40.5 -138.5t114.5 -50.5q78 0 128.5 40t77.5 93z" />
    <glyph glyph-name="Emacron" unicode="&#x112;" horiz-adv-x="715" 
d="M155 780h520l-4 -36h-480l-40 -326h440l-5 -36h-440l-42 -346h500l-4 -36h-540zM307 927l4 32h272l-4 -32h-272z" />
    <glyph glyph-name="emacron" unicode="&#x113;" horiz-adv-x="579" 
d="M205 697l4 32h272l-4 -32h-272zM504 251h-413q-1 -10 -1 -30q0 -90 46 -143t123 -53q145 0 180 108l37 -18q-23 -58 -79.5 -91.5t-142.5 -33.5q-95 0 -150 61.5t-55 165.5q0 141 78.5 232t194.5 91q189 0 189 -203q0 -30 -7 -86zM318 505q-82 0 -143 -60t-80 -160h370
q4 40 4 57q0 79 -35.5 121t-115.5 42z" />
    <glyph glyph-name="Ebreve" unicode="&#x114;" horiz-adv-x="715" 
d="M155 780h520l-4 -36h-480l-40 -326h440l-5 -36h-440l-42 -346h500l-4 -36h-540zM603 1030h31q-13 -99 -60 -148.5t-143 -49.5t-131 49.5t-22 148.5h29q-11 -89 19 -128t108 -39t118 39t51 128z" />
    <glyph glyph-name="ebreve" unicode="&#x115;" horiz-adv-x="579" 
d="M504 251h-413q-1 -10 -1 -30q0 -90 46 -143t123 -53q145 0 180 108l37 -18q-23 -58 -79.5 -91.5t-142.5 -33.5q-95 0 -150 61.5t-55 165.5q0 141 78.5 232t194.5 91q189 0 189 -203q0 -30 -7 -86zM318 505q-82 0 -143 -60t-80 -160h370q4 40 4 57q0 79 -35.5 121
t-115.5 42zM501 800h31q-13 -99 -60 -148.5t-143 -49.5t-131 49.5t-22 148.5h29q-11 -89 19 -128t108 -39t118 39t51 128z" />
    <glyph glyph-name="Edotaccent" unicode="&#x116;" horiz-adv-x="715" 
d="M155 780h520l-4 -36h-480l-40 -326h440l-5 -36h-440l-42 -346h500l-4 -36h-540zM479 973l-7 -60h-60l7 60h60z" />
    <glyph glyph-name="edotaccent" unicode="&#x117;" horiz-adv-x="579" 
d="M377 743l-8 -60h-60l8 60h60zM504 251h-413q-1 -10 -1 -30q0 -90 46 -143t123 -53q145 0 180 108l37 -18q-23 -58 -79.5 -91.5t-142.5 -33.5q-95 0 -150 61.5t-55 165.5q0 141 78.5 232t194.5 91q189 0 189 -203q0 -30 -7 -86zM318 505q-82 0 -143 -60t-80 -160h370
q4 40 4 57q0 79 -35.5 121t-115.5 42z" />
    <glyph glyph-name="Eogonek" unicode="&#x118;" horiz-adv-x="715" 
d="M155 780h520l-4 -36h-480l-40 -326h440l-5 -36h-440l-42 -346h500l-4 -36q-63 -10 -116.5 -45t-53.5 -87q0 -48 64 -48q22 0 44 6t33.5 12t11.5 7l7 -26q-46 -29 -105 -29q-39 0 -65 18.5t-26 55.5q0 43 33.5 79.5t86.5 56.5h-454z" />
    <glyph glyph-name="eogonek" unicode="&#x119;" horiz-adv-x="579" 
d="M318 505q-82 0 -143 -60t-80 -160h370q4 40 4 57q0 79 -35.5 121t-115.5 42zM254 -10q-95 0 -150 61.5t-55 165.5q0 141 78.5 232t194.5 91q189 0 189 -203q0 -30 -7 -86h-413q-1 -10 -1 -30q0 -90 46 -143t123 -53q145 0 180 108l37 -18q-25 -62 -99 -101
q-125 -67 -125 -146q0 -48 64 -48q22 0 44 6t33.5 12t11.5 7l7 -26q-46 -29 -105 -29q-39 0 -65 18.5t-26 55.5q0 67 80 129q-20 -3 -42 -3z" />
    <glyph glyph-name="Ecaron" unicode="&#x11a;" horiz-adv-x="715" 
d="M155 780h520l-4 -36h-480l-40 -326h440l-5 -36h-440l-42 -346h500l-4 -36h-540zM281 1030h36l115 -175l159 175h40l-179 -208h-44z" />
    <glyph glyph-name="ecaron" unicode="&#x11b;" horiz-adv-x="579" 
d="M179 800h36l115 -175l159 175h40l-179 -208h-44zM504 251h-413q-1 -10 -1 -30q0 -90 46 -143t123 -53q145 0 180 108l37 -18q-23 -58 -79.5 -91.5t-142.5 -33.5q-95 0 -150 61.5t-55 165.5q0 141 78.5 232t194.5 91q189 0 189 -203q0 -30 -7 -86zM318 505q-82 0 -143 -60
t-80 -160h370q4 40 4 57q0 79 -35.5 121t-115.5 42z" />
    <glyph glyph-name="Gcircumflex" unicode="&#x11c;" horiz-adv-x="789" 
d="M363 26q169 0 262 70l32 258h-200l4 36h240l-38 -312q-126 -88 -298 -88q-294 0 -294 308q0 140 40.5 248.5t129 176t215.5 67.5q244 0 266 -191l-41 -19q-11 174 -222 174q-88 0 -155 -34.5t-108.5 -97t-62 -143.5t-20.5 -179q0 -270 250 -274zM640 822h-36l-115 175
l-159 -175h-40l179 208h44z" />
    <glyph glyph-name="gcircumflex" unicode="&#x11d;" horiz-adv-x="590" 
d="M490 592h-36l-115 175l-159 -175h-40l179 208h44zM522 422l-55 -452q-11 -87 -77.5 -133.5t-174.5 -46.5q-168 0 -187 126l39 18q10 -112 152 -112q86 0 143 35t66 108l19 150q-33 -51 -91 -78t-117 -27q-92 0 -142 56t-50 156q0 145 72 231.5t185 86.5q58 0 109.5 -29.5
t71.5 -80.5l26 100h30zM454 173l24 199q-13 51 -55.5 92t-120.5 41q-94 0 -153.5 -75t-59.5 -205q0 -86 41 -133t115 -47q79 0 131 38.5t78 89.5z" />
    <glyph glyph-name="Gbreve" unicode="&#x11e;" horiz-adv-x="789" 
d="M363 26q169 0 262 70l32 258h-200l4 36h240l-38 -312q-126 -88 -298 -88q-294 0 -294 308q0 140 40.5 248.5t129 176t215.5 67.5q244 0 266 -191l-41 -19q-11 174 -222 174q-88 0 -155 -34.5t-108.5 -97t-62 -143.5t-20.5 -179q0 -270 250 -274zM638 1030h31
q-13 -99 -60 -148.5t-143 -49.5t-131 49.5t-22 148.5h29q-11 -89 19 -128t108 -39t118 39t51 128z" />
    <glyph glyph-name="gbreve" unicode="&#x11f;" horiz-adv-x="590" 
d="M522 422l-55 -452q-11 -87 -77.5 -133.5t-174.5 -46.5q-168 0 -187 126l39 18q10 -112 152 -112q86 0 143 35t66 108l19 150q-33 -51 -91 -78t-117 -27q-92 0 -142 56t-50 156q0 145 72 231.5t185 86.5q58 0 109.5 -29.5t71.5 -80.5l26 100h30zM454 173l24 199
q-13 51 -55.5 92t-120.5 41q-94 0 -153.5 -75t-59.5 -205q0 -86 41 -133t115 -47q79 0 131 38.5t78 89.5zM488 800h31q-13 -99 -60 -148.5t-143 -49.5t-131 49.5t-22 148.5h29q-11 -89 19 -128t108 -39t118 39t51 128z" />
    <glyph glyph-name="Gdotaccent" unicode="&#x120;" horiz-adv-x="789" 
d="M514 973l-7 -60h-60l7 60h60zM363 26q169 0 262 70l32 258h-200l4 36h240l-38 -312q-126 -88 -298 -88q-294 0 -294 308q0 140 40.5 248.5t129 176t215.5 67.5q244 0 266 -191l-41 -19q-11 174 -222 174q-88 0 -155 -34.5t-108.5 -97t-62 -143.5t-20.5 -179
q0 -270 250 -274z" />
    <glyph glyph-name="gdotaccent" unicode="&#x121;" horiz-adv-x="590" 
d="M364 743l-8 -60h-60l8 60h60zM522 422l-55 -452q-11 -87 -77.5 -133.5t-174.5 -46.5q-168 0 -187 126l39 18q10 -112 152 -112q86 0 143 35t66 108l19 150q-33 -51 -91 -78t-117 -27q-92 0 -142 56t-50 156q0 145 72 231.5t185 86.5q58 0 109.5 -29.5t71.5 -80.5l26 100
h30zM454 173l24 199q-13 51 -55.5 92t-120.5 41q-94 0 -153.5 -75t-59.5 -205q0 -86 41 -133t115 -47q79 0 131 38.5t78 89.5z" />
    <glyph glyph-name="Gcommaaccent" unicode="&#x122;" horiz-adv-x="789" 
d="M327 -200h-27l38 138h44zM363 26q169 0 262 70l32 258h-200l4 36h240l-38 -312q-126 -88 -298 -88q-294 0 -294 308q0 140 40.5 248.5t129 176t215.5 67.5q244 0 266 -191l-41 -19q-11 174 -222 174q-88 0 -155 -34.5t-108.5 -97t-62 -143.5t-20.5 -179q0 -270 250 -274z
" />
    <glyph glyph-name="gcommaaccent" unicode="&#x123;" horiz-adv-x="590" 
d="M369 800h27l-57 -208h-54zM522 422l-55 -452q-11 -87 -77.5 -133.5t-174.5 -46.5q-168 0 -187 126l39 18q10 -112 152 -112q86 0 143 35t66 108l19 150q-33 -51 -91 -78t-117 -27q-92 0 -142 56t-50 156q0 145 72 231.5t185 86.5q58 0 109.5 -29.5t71.5 -80.5l26 100h30z
M454 173l24 199q-13 51 -55.5 92t-120.5 41q-94 0 -153.5 -75t-59.5 -205q0 -86 41 -133t115 -47q79 0 131 38.5t78 89.5z" />
    <glyph glyph-name="Hcircumflex" unicode="&#x124;" horiz-adv-x="750" 
d="M665 780h40l-95 -780h-40l46 382h-470l-46 -382h-40l95 780h40l-44 -362h470zM610 822h-36l-115 175l-159 -175h-40l179 208h44z" />
    <glyph glyph-name="hcircumflex" unicode="&#x125;" horiz-adv-x="566" 
d="M334 822h-36l-115 175l-159 -175h-40l179 208h44zM176 800l-46 -370q31 48 88.5 79t120.5 31q79 0 125.5 -42t37.5 -114l-47 -384h-38l45 369q8 65 -29.5 100.5t-107.5 35.5q-71 0 -123.5 -41t-78.5 -91l-45 -373h-38l98 800h38z" />
    <glyph glyph-name="Hbar" unicode="&#x126;" horiz-adv-x="750" 
d="M665 780h40l-95 -780h-40l46 382h-470l-46 -382h-40l95 780h40l-20 -167h470zM151 418h470l19 159h-470z" />
    <glyph glyph-name="hbar" unicode="&#x127;" horiz-adv-x="566" 
d="M176 800l-16 -125h153l-4 -34h-153l-26 -211q31 48 88.5 79t120.5 31q79 0 125.5 -42t37.5 -114l-47 -384h-38l45 369q8 65 -29.5 100.5t-107.5 35.5q-71 0 -123.5 -41t-78.5 -91l-45 -373h-38l78 641h-125l4 34h125l16 125h38z" />
    <glyph glyph-name="Itilde" unicode="&#x128;" horiz-adv-x="280" 
d="M215 780l-95 -780h-40l95 780h40zM373 970l28 -5q-10 -40 -41.5 -64.5t-71.5 -24.5q-34 0 -61 18t-51 36t-51 18q-62 0 -80 -63l-27 5q10 40 41.5 64.5t70.5 24.5q42 0 87 -36t77 -36q28 0 49.5 16t29.5 47z" />
    <glyph glyph-name="itilde" unicode="&#x129;" horiz-adv-x="236" 
d="M59 0l65 530h38l-65 -530h-38zM325 740l28 -5q-10 -40 -41.5 -64.5t-71.5 -24.5q-34 0 -61 18t-51 36t-51 18q-62 0 -80 -63l-27 5q10 40 41.5 64.5t70.5 24.5q42 0 87 -36t77 -36q28 0 49.5 16t29.5 47z" />
    <glyph glyph-name="Imacron" unicode="&#x12a;" horiz-adv-x="280" 
d="M215 780l-95 -780h-40l95 780h40zM77 927l4 32h272l-4 -32h-272z" />
    <glyph glyph-name="imacron" unicode="&#x12b;" horiz-adv-x="236" 
d="M59 0l65 530h38l-65 -530h-38zM27 697l4 32h272l-4 -32h-272z" />
    <glyph glyph-name="Ibreve" unicode="&#x12c;" horiz-adv-x="280" 
d="M215 780l-95 -780h-40l95 780h40zM373 1030h31q-13 -99 -60 -148.5t-143 -49.5t-131 49.5t-22 148.5h29q-11 -89 19 -128t108 -39t118 39t51 128z" />
    <glyph glyph-name="ibreve" unicode="&#x12d;" horiz-adv-x="236" 
d="M59 0l65 530h38l-65 -530h-38zM323 800h31q-13 -99 -60 -148.5t-143 -49.5t-131 49.5t-22 148.5h29q-11 -89 19 -128t108 -39t118 39t51 128z" />
    <glyph glyph-name="Iogonek" unicode="&#x12e;" horiz-adv-x="280" 
d="M215 780l-95 -780q-109 -57 -109 -132q0 -48 64 -48q22 0 44 6t33.5 12t11.5 7l7 -26q-46 -29 -105 -29q-39 0 -65 18.5t-26 55.5q0 78 105 143l95 773h40z" />
    <glyph glyph-name="iogonek" unicode="&#x12f;" horiz-adv-x="236" 
d="M162 530l-65 -530q-109 -57 -109 -132q0 -48 64 -48q22 0 44 6t33.5 12t11.5 7l7 -26q-46 -29 -105 -29q-39 0 -64.5 18.5t-25.5 55.5q0 79 106 144l65 522h38zM199 743l-8 -60h-60l8 60h60z" />
    <glyph glyph-name="Idotaccent" unicode="&#x130;" horiz-adv-x="280" 
d="M215 780l-95 -780h-40l95 780h40zM249 973l-7 -60h-60l7 60h60z" />
    <glyph glyph-name="dotlessi" unicode="&#x131;" horiz-adv-x="236" 
d="M59 0l65 530h38l-65 -530h-38z" />
    <glyph glyph-name="IJ" unicode="&#x132;" 
d="M215 780l-95 -780h-40l95 780h40zM304 28q66 0 99.5 29.5t44.5 115.5l74 607h40l-71 -582q-5 -39 -10.5 -64.5t-18.5 -55.5t-32 -47t-52.5 -29t-78.5 -12q-33 0 -55 10l10 38q23 -10 50 -10z" />
    <glyph glyph-name="ij" unicode="&#x133;" horiz-adv-x="452" 
d="M59 0l65 530h38l-65 -530h-38zM199 743l-8 -60h-60l8 60h60zM125 -174q66 0 100.5 29.5t45.5 115.5l69 559h38l-66 -532q-5 -40 -10 -64.5t-18 -55t-32 -47.5t-52 -29t-79 -12q-36 0 -56 9l12 36q21 -9 48 -9zM415 743l-8 -60h-60l8 60h60z" />
    <glyph glyph-name="Jcircumflex" unicode="&#x134;" horiz-adv-x="572" 
d="M701 822h-36l-115 175l-159 -175h-40l179 208h44zM501 780h41l-71 -580q-13 -102 -80 -156t-183 -54q-199 0 -201 152l40 19q-3 -63 35 -99.5t133 -35.5q194 3 215 173z" />
    <glyph glyph-name="jcircumflex" unicode="&#x135;" horiz-adv-x="236" 
d="M-90 -174q65 0 99.5 29.5t45.5 115.5l69 559h38l-66 -532q-5 -40 -10 -64.5t-18 -55t-32 -47.5t-52 -29t-78 -12q-36 0 -56 9l12 36q21 -9 48 -9zM325 592h-36l-115 175l-159 -175h-40l179 208h44z" />
    <glyph glyph-name="Kcommaaccent" unicode="&#x136;" horiz-adv-x="700" 
d="M273 -200h-27l38 138h44zM195 780l-58 -477l500 477h53l-371 -351l304 -429h-50l-283 401l-160 -151l-30 -250h-40l95 780h40z" />
    <glyph glyph-name="kcommaaccent" unicode="&#x137;" horiz-adv-x="531" 
d="M78 0h-38l98 800h38l-70 -566l139 125l195 171h55l-257 -224l230 -306h-51l-208 282l-109 -96zM186 -200h-27l38 138h44z" />
    <glyph glyph-name="kgreenlandic" unicode="&#x138;" horiz-adv-x="531" 
d="M78 0h-38l65 530h38l-37 -296l139 125l195 171h55l-257 -224l230 -306h-51l-208 282l-109 -96z" />
    <glyph glyph-name="Lacute" unicode="&#x139;" horiz-adv-x="605" 
d="M195 780l-91 -744h440l-4 -36h-480l95 780h40zM282 1030h47l-132 -208h-35z" />
    <glyph glyph-name="lacute" unicode="&#x13a;" horiz-adv-x="242" 
d="M62 0l98 800h38l-98 -800h-38zM283 1030h47l-132 -208h-35z" />
    <glyph glyph-name="Lcommaaccent" unicode="&#x13b;" horiz-adv-x="605" 
d="M195 780l-91 -744h440l-4 -36h-480l95 780h40zM265 -200h-27l38 138h44z" />
    <glyph glyph-name="lcommaaccent" unicode="&#x13c;" horiz-adv-x="242" 
d="M62 0l98 800h38l-98 -800h-38zM40 -200h-27l38 138h44z" />
    <glyph glyph-name="Lcaron" unicode="&#x13d;" horiz-adv-x="605" 
d="M195 780l-91 -744h440l-4 -36h-480l95 780h40zM425 592h-27l57 208h54z" />
    <glyph glyph-name="lcaron" unicode="&#x13e;" horiz-adv-x="242" 
d="M62 0l98 800h38l-98 -800h-38zM277 592h-27l57 208h54z" />
    <glyph glyph-name="Ldot" unicode="&#x13f;" horiz-adv-x="605" 
d="M195 780l-91 -744h440l-4 -36h-480l95 780h40zM509 430l-7 -60h-60l7 60h60z" />
    <glyph glyph-name="ldot" unicode="&#x140;" horiz-adv-x="340" 
d="M62 0l98 800h38l-98 -800h-38zM332 420l-7 -60h-60l7 60h60z" />
    <glyph glyph-name="Lslash" unicode="&#x141;" horiz-adv-x="611" 
d="M5 291l102 48l54 441h40l-51 -421l317 151l-4 -36l-318 -151l-35 -287h440l-4 -36h-480l37 303l-102 -48z" />
    <glyph glyph-name="lslash" unicode="&#x142;" horiz-adv-x="300" 
d="M38 352l103 60l48 388h38l-45 -364l125 74l-4 -36l-125 -74l-49 -400h-38l46 376l-104 -60z" />
    <glyph glyph-name="Nacute" unicode="&#x143;" horiz-adv-x="761" 
d="M542 1030h47l-132 -208h-35zM573 0l-290 544l-98 188l-30 -272l-56 -460h-39l95 780h48l289 -544l98 -188l31 272l56 460h39l-95 -780h-48z" />
    <glyph glyph-name="nacute" unicode="&#x144;" horiz-adv-x="565" 
d="M417 800h47l-132 -208h-35zM129 530v-100q31 48 88.5 79t120.5 31q79 0 125.5 -42t37.5 -114l-47 -384h-38l45 369q8 65 -29.5 100.5t-107.5 35.5q-71 0 -123.5 -41t-78.5 -91l-45 -373h-38l51 422l9 108h30z" />
    <glyph glyph-name="Ncommaaccent" unicode="&#x145;" horiz-adv-x="761" 
d="M294 -200h-27l38 138h44zM573 0l-290 544l-98 188l-30 -272l-56 -460h-39l95 780h48l289 -544l98 -188l31 272l56 460h39l-95 -780h-48z" />
    <glyph glyph-name="ncommaaccent" unicode="&#x146;" horiz-adv-x="565" 
d="M208 -200h-27l38 138h44zM129 530v-100q31 48 88.5 79t120.5 31q79 0 125.5 -42t37.5 -114l-47 -384h-38l45 369q8 65 -29.5 100.5t-107.5 35.5q-71 0 -123.5 -41t-78.5 -91l-45 -373h-38l51 422l9 108h30z" />
    <glyph glyph-name="Ncaron" unicode="&#x147;" horiz-adv-x="761" 
d="M291 1030h36l115 -175l159 175h40l-179 -208h-44zM573 0l-290 544l-98 188l-30 -272l-56 -460h-39l95 780h48l289 -544l98 -188l31 272l56 460h39l-95 -780h-48z" />
    <glyph glyph-name="ncaron" unicode="&#x148;" horiz-adv-x="565" 
d="M166 800h36l115 -175l159 175h40l-179 -208h-44zM129 530v-100q31 48 88.5 79t120.5 31q79 0 125.5 -42t37.5 -114l-47 -384h-38l45 369q8 65 -29.5 100.5t-107.5 35.5q-71 0 -123.5 -41t-78.5 -91l-45 -373h-38l51 422l9 108h30z" />
    <glyph glyph-name="Eng" unicode="&#x14a;" horiz-adv-x="761" 
d="M432 -174q66 0 100.5 29.5t45.5 115.5l2 14l-298 559l-97 188l-30 -272l-56 -460h-39l95 780h49l289 -544l97 -188l31 272l56 460h39l-96 -782q-5 -39 -10 -64.5t-18 -55.5t-32 -47t-52.5 -29t-78.5 -12q-37 0 -57 9l12 36q21 -9 48 -9z" />
    <glyph glyph-name="eng" unicode="&#x14b;" horiz-adv-x="565" 
d="M268 -174q65 0 99 29.5t45 115.5l49 398q8 65 -29.5 100.5t-107.5 35.5q-71 0 -123.5 -41t-78.5 -91l-45 -373h-38l51 422l9 108h30v-100q31 48 88.5 79t120.5 31q79 0 125.5 -42t37.5 -114l-47 -386q-5 -39 -10 -64.5t-17.5 -55.5t-31.5 -47t-52.5 -29t-78.5 -12
q-36 0 -56 9l12 36q21 -9 48 -9z" />
    <glyph glyph-name="Omacron" unicode="&#x14c;" horiz-adv-x="800" 
d="M337 927l4 32h272l-4 -32h-272zM358 -10q-148 0 -217.5 82t-69.5 227q0 100 22.5 186.5t67.5 155.5t121 109t174 40q148 0 217.5 -81t69.5 -226q0 -143 -40 -251.5t-128.5 -175t-216.5 -66.5zM452 754q-89 0 -156.5 -38t-106 -103t-57.5 -143t-19 -167q0 -277 250 -277
q87 0 154 36t106 99.5t58.5 143t19.5 173.5q0 276 -249 276z" />
    <glyph glyph-name="omacron" unicode="&#x14d;" horiz-adv-x="592" 
d="M205 697l4 32h272l-4 -32h-272zM318 505q-105 0 -166 -82.5t-61 -210.5q0 -90 43 -138.5t125 -48.5q105 0 166 83t61 211q0 90 -43 138t-125 48zM254 -10q-99 0 -152 57.5t-53 162.5q0 145 74 237.5t199 92.5q99 0 152.5 -57.5t53.5 -161.5q0 -145 -74.5 -238t-199.5 -93
z" />
    <glyph glyph-name="Obreve" unicode="&#x14e;" horiz-adv-x="800" 
d="M358 -10q-148 0 -217.5 82t-69.5 227q0 100 22.5 186.5t67.5 155.5t121 109t174 40q148 0 217.5 -81t69.5 -226q0 -143 -40 -251.5t-128.5 -175t-216.5 -66.5zM452 754q-89 0 -156.5 -38t-106 -103t-57.5 -143t-19 -167q0 -277 250 -277q87 0 154 36t106 99.5t58.5 143
t19.5 173.5q0 276 -249 276zM633 1030h31q-13 -99 -60 -148.5t-143 -49.5t-131 49.5t-22 148.5h29q-11 -89 19 -128t108 -39t118 39t51 128z" />
    <glyph glyph-name="obreve" unicode="&#x14f;" horiz-adv-x="592" 
d="M318 505q-105 0 -166 -82.5t-61 -210.5q0 -90 43 -138.5t125 -48.5q105 0 166 83t61 211q0 90 -43 138t-125 48zM254 -10q-99 0 -152 57.5t-53 162.5q0 145 74 237.5t199 92.5q99 0 152.5 -57.5t53.5 -161.5q0 -145 -74.5 -238t-199.5 -93zM501 800h31
q-13 -99 -60 -148.5t-143 -49.5t-131 49.5t-22 148.5h29q-11 -89 19 -128t108 -39t118 39t51 128z" />
    <glyph glyph-name="Ohungarumlaut" unicode="&#x150;" horiz-adv-x="800" 
d="M485 1030h47l-132 -208h-35zM625 1030h47l-132 -208h-35zM358 -10q-148 0 -217.5 82t-69.5 227q0 100 22.5 186.5t67.5 155.5t121 109t174 40q148 0 217.5 -81t69.5 -226q0 -143 -40 -251.5t-128.5 -175t-216.5 -66.5zM452 754q-89 0 -156.5 -38t-106 -103t-57.5 -143
t-19 -167q0 -277 250 -277q87 0 154 36t106 99.5t58.5 143t19.5 173.5q0 276 -249 276z" />
    <glyph glyph-name="ohungarumlaut" unicode="&#x151;" horiz-adv-x="592" 
d="M353 800h47l-132 -208h-35zM493 800h47l-132 -208h-35zM318 505q-105 0 -166 -82.5t-61 -210.5q0 -90 43 -138.5t125 -48.5q105 0 166 83t61 211q0 90 -43 138t-125 48zM254 -10q-99 0 -152 57.5t-53 162.5q0 145 74 237.5t199 92.5q99 0 152.5 -57.5t53.5 -161.5
q0 -145 -74.5 -238t-199.5 -93z" />
    <glyph glyph-name="OE" unicode="&#x152;" horiz-adv-x="1110" 
d="M601 744h-138q-176 0 -263.5 -118t-87.5 -344q0 -135 62.5 -190.5t201.5 -55.5h138zM71 285q0 495 407 495h587l-4 -36h-420l-40 -326h380l-5 -36h-380l-42 -346h440l-4 -36h-607q-158 0 -235 64t-77 221z" />
    <glyph glyph-name="oe" unicode="&#x153;" horiz-adv-x="1009" 
d="M749 505q-82 0 -143 -60t-80 -160h370q4 40 4 57q0 79 -35.5 121t-115.5 42zM318 505q-105 0 -166 -82.5t-61 -210.5q0 -90 43 -138.5t125 -48.5q105 0 166 83t61 211q0 90 -43 138t-125 48zM254 -10q-99 0 -152 57.5t-53 162.5q0 145 74 237.5t199 92.5
q80 0 130.5 -38.5t67.5 -109.5q36 69 97.5 108.5t135.5 39.5q189 0 189 -203q0 -30 -7 -86h-412q-2 -8 -2 -12v-18q0 -90 46 -143t123 -53q145 0 180 108l37 -18q-23 -58 -79.5 -91.5t-142.5 -33.5q-75 0 -126 39.5t-70 109.5q-35 -70 -95 -109.5t-140 -39.5z" />
    <glyph glyph-name="Racute" unicode="&#x154;" horiz-adv-x="710" 
d="M498 1030h47l-132 -208h-35zM577 0l-167 348h-268l-42 -348h-40l95 780h321q39 0 69 -6.5t58.5 -23t44 -51.5t15.5 -86q0 -122 -60.5 -193t-149.5 -71l170 -349h-46zM191 744l-44 -360h297q75 0 127 53.5t52 169.5q0 34 -8.5 59.5t-21 40t-31.5 23t-37 11.5t-40 3h-294z
" />
    <glyph glyph-name="racute" unicode="&#x155;" horiz-adv-x="375" 
d="M333 540q27 0 43 -4l-10 -40q-23 5 -38 5q-82 0 -141 -51.5t-69 -112.5l-41 -337h-38l51 422l9 108h30v-110q31 55 89 87.5t115 32.5zM344 800h47l-132 -208h-35z" />
    <glyph glyph-name="Rcommaaccent" unicode="&#x156;" horiz-adv-x="710" 
d="M577 0l-167 348h-268l-42 -348h-40l95 780h321q39 0 69 -6.5t58.5 -23t44 -51.5t15.5 -86q0 -122 -60.5 -193t-149.5 -71l170 -349h-46zM191 744l-44 -360h297q75 0 127 53.5t52 169.5q0 34 -8.5 59.5t-21 40t-31.5 23t-37 11.5t-40 3h-294zM279 -200h-27l38 138h44z" />
    <glyph glyph-name="rcommaaccent" unicode="&#x157;" horiz-adv-x="375" 
d="M333 540q27 0 43 -4l-10 -40q-23 5 -38 5q-82 0 -141 -51.5t-69 -112.5l-41 -337h-38l51 422l9 108h30v-110q31 55 89 87.5t115 32.5zM17 -200h-27l38 138h44z" />
    <glyph glyph-name="Rcaron" unicode="&#x158;" horiz-adv-x="710" 
d="M577 0l-167 348h-268l-42 -348h-40l95 780h321q39 0 69 -6.5t58.5 -23t44 -51.5t15.5 -86q0 -122 -60.5 -193t-149.5 -71l170 -349h-46zM191 744l-44 -360h297q75 0 127 53.5t52 169.5q0 34 -8.5 59.5t-21 40t-31.5 23t-37 11.5t-40 3h-294zM247 1030h36l115 -175
l159 175h40l-179 -208h-44z" />
    <glyph glyph-name="rcaron" unicode="&#x159;" horiz-adv-x="375" 
d="M333 540q27 0 43 -4l-10 -40q-23 5 -38 5q-82 0 -141 -51.5t-69 -112.5l-41 -337h-38l51 422l9 108h30v-110q31 55 89 87.5t115 32.5zM93 800h36l115 -175l159 175h40l-179 -208h-44z" />
    <glyph glyph-name="Sacute" unicode="&#x15a;" horiz-adv-x="710" 
d="M525 1030h47l-132 -208h-35zM311 -10q-95 0 -154 23t-82 59.5t-27 90.5l42 20q2 -81 50.5 -119t175.5 -38q39 0 75.5 6t72.5 22t62.5 40.5t43 64t16.5 90.5q0 67 -46.5 98.5t-169.5 44.5q-51 6 -84.5 12t-67 17.5t-52.5 27.5t-31 41.5t-12 60.5q0 63 24.5 110.5
t66.5 74.5t91.5 40.5t104.5 13.5q248 0 256 -167l-40 -19q-2 76 -53.5 113t-166.5 37q-28 0 -56 -4t-62.5 -16.5t-60.5 -33.5t-44 -58.5t-18 -87.5q0 -59 45.5 -85.5t166.5 -39.5q134 -14 192 -51t58 -125q0 -90 -45.5 -151t-114.5 -86.5t-156 -25.5z" />
    <glyph glyph-name="sacute" unicode="&#x15b;" horiz-adv-x="534" 
d="M401 800h47l-132 -208h-35zM286 505q-65 0 -118 -33.5t-53 -99.5q0 -42 32.5 -55.5t123.5 -23.5q35 -4 56 -7t50.5 -12t46 -21t28.5 -33t12 -50q0 -89 -69.5 -134.5t-175.5 -45.5q-85 0 -133.5 33t-57.5 90l42 20q10 -108 153 -108q87 0 143 34t56 106q0 22 -9.5 37.5
t-22.5 25t-39 16t-46.5 9t-57.5 6.5q-30 3 -49.5 6t-45 10.5t-40.5 18.5t-26 30t-11 45q0 83 63.5 127t152.5 44q85 0 133 -33t57 -91l-41 -19q-10 108 -154 108z" />
    <glyph glyph-name="Scircumflex" unicode="&#x15c;" horiz-adv-x="710" 
d="M311 -10q-95 0 -154 23t-82 59.5t-27 90.5l42 20q2 -81 50.5 -119t175.5 -38q39 0 75.5 6t72.5 22t62.5 40.5t43 64t16.5 90.5q0 67 -46.5 98.5t-169.5 44.5q-51 6 -84.5 12t-67 17.5t-52.5 27.5t-31 41.5t-12 60.5q0 63 24.5 110.5t66.5 74.5t91.5 40.5t104.5 13.5
q248 0 256 -167l-40 -19q-2 76 -53.5 113t-166.5 37q-28 0 -56 -4t-62.5 -16.5t-60.5 -33.5t-44 -58.5t-18 -87.5q0 -59 45.5 -85.5t166.5 -39.5q134 -14 192 -51t58 -125q0 -90 -45.5 -151t-114.5 -86.5t-156 -25.5zM598 822h-36l-115 175l-159 -175h-40l179 208h44z" />
    <glyph glyph-name="scircumflex" unicode="&#x15d;" horiz-adv-x="534" 
d="M474 592h-36l-115 175l-159 -175h-40l179 208h44zM286 505q-65 0 -118 -33.5t-53 -99.5q0 -42 32.5 -55.5t123.5 -23.5q35 -4 56 -7t50.5 -12t46 -21t28.5 -33t12 -50q0 -89 -69.5 -134.5t-175.5 -45.5q-85 0 -133.5 33t-57.5 90l42 20q10 -108 153 -108q87 0 143 34
t56 106q0 22 -9.5 37.5t-22.5 25t-39 16t-46.5 9t-57.5 6.5q-30 3 -49.5 6t-45 10.5t-40.5 18.5t-26 30t-11 45q0 83 63.5 127t152.5 44q85 0 133 -33t57 -91l-41 -19q-10 108 -154 108z" />
    <glyph glyph-name="Scedilla" unicode="&#x15e;" horiz-adv-x="710" 
d="M627 253q0 -67 -24.5 -118t-68 -81.5t-97 -46.5t-116.5 -17l-13 -32q99 -14 99 -76q0 -46 -34.5 -69t-85.5 -23q-49 0 -77 17l13 29q1 -1 9 -5t24 -7.5t32 -3.5q84 0 84 57q0 7 -2 13.5t-6.5 11l-8.5 8.5t-12.5 7t-13.5 4.5t-15.5 3.5t-15 3t-16 2.5t-14.5 1.5l27 58
q-130 3 -185.5 47.5t-61.5 125.5l42 20q2 -81 50.5 -119t175.5 -38q39 0 75.5 6t72.5 22t62.5 40.5t43 64t16.5 90.5q0 67 -46.5 98.5t-169.5 44.5q-51 6 -84.5 12t-67 17.5t-52.5 27.5t-31 41.5t-12 60.5q0 63 24.5 110.5t66.5 74.5t91.5 40.5t104.5 13.5q248 0 256 -167
l-40 -19q-2 76 -53.5 113t-166.5 37q-28 0 -56 -4t-62.5 -16.5t-60.5 -33.5t-44 -58.5t-18 -87.5q0 -59 45.5 -85.5t166.5 -39.5q134 -14 192 -51t58 -125z" />
    <glyph glyph-name="scedilla" unicode="&#x15f;" horiz-adv-x="534" 
d="M286 505q-65 0 -118 -33.5t-53 -99.5q0 -42 32.5 -55.5t123.5 -23.5q35 -4 56 -7t50.5 -12t46 -21t28.5 -33t12 -50q0 -87 -66 -132.5t-169 -47.5l-13 -32q99 -14 99 -76q0 -46 -34.5 -69t-85.5 -23q-49 0 -77 17l13 29q1 -1 9 -5t24 -7.5t32 -3.5q84 0 84 57
q0 7 -2 13.5t-6.5 11l-8.5 8.5t-12.5 7t-13.5 4.5t-15.5 3.5t-15 3t-16 2.5t-14.5 1.5l27 59q-78 3 -122.5 35t-52.5 87l42 20q10 -108 153 -108q87 0 143 34t56 106q0 22 -9.5 37.5t-22.5 25t-39 16t-46.5 9t-57.5 6.5q-30 3 -49.5 6t-45 10.5t-40.5 18.5t-26 30t-11 45
q0 83 63.5 127t152.5 44q85 0 133 -33t57 -91l-41 -19q-10 108 -154 108z" />
    <glyph glyph-name="Scaron" unicode="&#x160;" horiz-adv-x="710" 
d="M311 -10q-95 0 -154 23t-82 59.5t-27 90.5l42 20q2 -81 50.5 -119t175.5 -38q39 0 75.5 6t72.5 22t62.5 40.5t43 64t16.5 90.5q0 67 -46.5 98.5t-169.5 44.5q-51 6 -84.5 12t-67 17.5t-52.5 27.5t-31 41.5t-12 60.5q0 63 24.5 110.5t66.5 74.5t91.5 40.5t104.5 13.5
q248 0 256 -167l-40 -19q-2 76 -53.5 113t-166.5 37q-28 0 -56 -4t-62.5 -16.5t-60.5 -33.5t-44 -58.5t-18 -87.5q0 -59 45.5 -85.5t166.5 -39.5q134 -14 192 -51t58 -125q0 -90 -45.5 -151t-114.5 -86.5t-156 -25.5zM274 1030h36l115 -175l159 175h40l-179 -208h-44z" />
    <glyph glyph-name="scaron" unicode="&#x161;" horiz-adv-x="534" 
d="M286 505q-65 0 -118 -33.5t-53 -99.5q0 -42 32.5 -55.5t123.5 -23.5q35 -4 56 -7t50.5 -12t46 -21t28.5 -33t12 -50q0 -89 -69.5 -134.5t-175.5 -45.5q-85 0 -133.5 33t-57.5 90l42 20q10 -108 153 -108q87 0 143 34t56 106q0 22 -9.5 37.5t-22.5 25t-39 16t-46.5 9
t-57.5 6.5q-30 3 -49.5 6t-45 10.5t-40.5 18.5t-26 30t-11 45q0 83 63.5 127t152.5 44q85 0 133 -33t57 -91l-41 -19q-10 108 -154 108zM150 800h36l115 -175l159 175h40l-179 -208h-44z" />
    <glyph glyph-name="Tcedilla" unicode="&#x162;" horiz-adv-x="640" 
d="M391 744l-91 -744h-40l91 744h-265l4 36h570l-4 -36h-265zM233 -68l14 29q125 -10 125 -79q0 -45 -34 -68.5t-86 -23.5q-49 0 -77 17l13 29q1 -1 9 -5t24 -7.5t32 -3.5q84 0 84 57q0 7 -2 13.5t-6.5 11l-8.5 8.5t-12.5 7t-13.5 4.5t-15.5 3.5t-15 3t-16 2.5t-14.5 1.5z
" />
    <glyph glyph-name="tcedilla" unicode="&#x163;" horiz-adv-x="400" 
d="M267 26q26 0 50 9l3 -36q-22 -9 -58 -9q-56 0 -89.5 17t-44 45.5t-12.5 66.5t6 79l36 298h-106l5 34h106l17 140l39 13l-18 -153h173l-5 -34h-173l-40 -325q-10 -86 17.5 -115.5t93.5 -29.5zM133 -68l14 29q125 -10 125 -79q0 -45 -34 -68.5t-86 -23.5q-49 0 -77 17
l13 29q1 -1 9 -5t24 -7.5t32 -3.5q84 0 84 57q0 7 -2 13.5t-6.5 11l-8.5 8.5t-12.5 7t-13.5 4.5t-15.5 3.5t-15 3t-16 2.5t-14.5 1.5z" />
    <glyph glyph-name="Tcaron" unicode="&#x164;" horiz-adv-x="640" 
d="M391 744l-91 -744h-40l91 744h-265l4 36h570l-4 -36h-265zM231 1030h36l115 -175l159 175h40l-179 -208h-44z" />
    <glyph glyph-name="tcaron" unicode="&#x165;" horiz-adv-x="400" 
d="M310 592h-27l57 208h54zM267 26q26 0 50 9l3 -36q-22 -9 -58 -9q-56 0 -89.5 17t-44 45.5t-12.5 66.5t6 79l36 298h-106l5 34h106l17 140l39 13l-18 -153h173l-5 -34h-173l-40 -325q-10 -86 17.5 -115.5t93.5 -29.5z" />
    <glyph glyph-name="Tbar" unicode="&#x166;" horiz-adv-x="640" 
d="M480 382h-134l-46 -382h-40l46 382h-135l5 36h135l40 326h-265l4 36h570l-4 -36h-265l-40 -326h134z" />
    <glyph glyph-name="tbar" unicode="&#x167;" horiz-adv-x="400" 
d="M267 26q26 0 50 9l3 -36q-22 -9 -58 -9q-56 0 -89.5 17t-44 45.5t-12.5 66.5t6 79l14 115h-106l4 34h106l18 149h-106l5 34h106l17 140l39 13l-18 -153h173l-5 -34h-173l-19 -149h162l-4 -34h-162l-17 -142q-10 -86 17.5 -115.5t93.5 -29.5z" />
    <glyph glyph-name="Utilde" unicode="&#x168;" horiz-adv-x="784" 
d="M350 -10q-165 0 -227.5 69t-46.5 200l64 521h41l-65 -528q-13 -109 40 -167t199 -58t213 58t80 167l65 528h41l-64 -521q-16 -131 -95.5 -200t-244.5 -69zM627 970l28 -5q-10 -40 -41.5 -64.5t-71.5 -24.5q-34 0 -61 18t-51 36t-51 18q-62 0 -80 -63l-27 5
q10 40 41.5 64.5t70.5 24.5q42 0 87 -36t77 -36q28 0 49.5 16t29.5 47z" />
    <glyph glyph-name="utilde" unicode="&#x169;" horiz-adv-x="565" 
d="M421 0l-1 100q-31 -48 -88.5 -79t-120.5 -31q-79 0 -125.5 42t-37.5 114l48 384h38l-46 -369q-8 -65 30 -100.5t108 -35.5q71 0 123 41t78 91l46 373h38l-52 -422l-8 -108h-30zM484 740l28 -5q-10 -40 -41.5 -64.5t-71.5 -24.5q-34 0 -61 18t-51 36t-51 18q-62 0 -80 -63
l-27 5q10 40 41.5 64.5t70.5 24.5q42 0 87 -36t77 -36q28 0 49.5 16t29.5 47z" />
    <glyph glyph-name="Umacron" unicode="&#x16a;" horiz-adv-x="784" 
d="M329 927l4 32h272l-4 -32h-272zM350 -10q-165 0 -227.5 69t-46.5 200l64 521h41l-65 -528q-13 -109 40 -167t199 -58t213 58t80 167l65 528h41l-64 -521q-16 -131 -95.5 -200t-244.5 -69z" />
    <glyph glyph-name="umacron" unicode="&#x16b;" horiz-adv-x="565" 
d="M188 697l4 32h272l-4 -32h-272zM421 0l-1 100q-31 -48 -88.5 -79t-120.5 -31q-79 0 -125.5 42t-37.5 114l48 384h38l-46 -369q-8 -65 30 -100.5t108 -35.5q71 0 123 41t78 91l46 373h38l-52 -422l-8 -108h-30z" />
    <glyph glyph-name="Ubreve" unicode="&#x16c;" horiz-adv-x="784" 
d="M350 -10q-165 0 -227.5 69t-46.5 200l64 521h41l-65 -528q-13 -109 40 -167t199 -58t213 58t80 167l65 528h41l-64 -521q-16 -131 -95.5 -200t-244.5 -69zM625 1030h31q-13 -99 -60 -148.5t-143 -49.5t-131 49.5t-22 148.5h29q-11 -89 19 -128t108 -39t118 39t51 128z
" />
    <glyph glyph-name="ubreve" unicode="&#x16d;" horiz-adv-x="565" 
d="M421 0l-1 100q-31 -48 -88.5 -79t-120.5 -31q-79 0 -125.5 42t-37.5 114l48 384h38l-46 -369q-8 -65 30 -100.5t108 -35.5q71 0 123 41t78 91l46 373h38l-52 -422l-8 -108h-30zM484 800h31q-13 -99 -60 -148.5t-143 -49.5t-131 49.5t-22 148.5h29q-11 -89 19 -128
t108 -39t118 39t51 128z" />
    <glyph glyph-name="Uring" unicode="&#x16e;" horiz-adv-x="784" 
d="M350 -10q-165 0 -227.5 69t-46.5 200l64 521h41l-65 -528q-13 -109 40 -167t199 -58t213 58t80 167l65 528h41l-64 -521q-16 -131 -95.5 -200t-244.5 -69zM451 812q-48 0 -74.5 26t-26.5 70q0 57 35.5 94.5t93.5 37.5q48 0 74.5 -26t26.5 -70q0 -57 -35.5 -94.5
t-93.5 -37.5zM476 1012q-44 0 -69.5 -28t-25.5 -73q0 -71 73 -71q44 0 69.5 28t25.5 73q0 71 -73 71z" />
    <glyph glyph-name="uring" unicode="&#x16f;" horiz-adv-x="565" 
d="M421 0l-1 100q-31 -48 -88.5 -79t-120.5 -31q-79 0 -125.5 42t-37.5 114l48 384h38l-46 -369q-8 -65 30 -100.5t108 -35.5q71 0 123 41t78 91l46 373h38l-52 -422l-8 -108h-30zM310 582q-48 0 -74.5 26t-26.5 70q0 57 35.5 94.5t93.5 37.5q48 0 74.5 -26t26.5 -70
q0 -57 -35.5 -94.5t-93.5 -37.5zM335 782q-44 0 -69.5 -28t-25.5 -73q0 -71 73 -71q44 0 69.5 28t25.5 73q0 71 -73 71z" />
    <glyph glyph-name="Uhungarumlaut" unicode="&#x170;" horiz-adv-x="784" 
d="M617 1030h47l-132 -208h-35zM477 1030h47l-132 -208h-35zM350 -10q-165 0 -227.5 69t-46.5 200l64 521h41l-65 -528q-13 -109 40 -167t199 -58t213 58t80 167l65 528h41l-64 -521q-16 -131 -95.5 -200t-244.5 -69z" />
    <glyph glyph-name="uhungarumlaut" unicode="&#x171;" horiz-adv-x="565" 
d="M476 800h47l-132 -208h-35zM336 800h47l-132 -208h-35zM421 0l-1 100q-31 -48 -88.5 -79t-120.5 -31q-79 0 -125.5 42t-37.5 114l48 384h38l-46 -369q-8 -65 30 -100.5t108 -35.5q71 0 123 41t78 91l46 373h38l-52 -422l-8 -108h-30z" />
    <glyph glyph-name="Uogonek" unicode="&#x172;" horiz-adv-x="784" 
d="M373 -9q-7 -1 -23 -1q-165 0 -227.5 69t-46.5 200l64 521h41l-65 -528q-13 -109 40 -167t199 -58t213 58t80 167l65 528h41l-64 -521q-13 -102 -62.5 -166t-147.5 -89q-39 -10 -71.5 -25t-61 -44.5t-28.5 -66.5q0 -48 64 -48q22 0 44 6t33.5 12t11.5 7l7 -26
q-46 -29 -105 -29q-39 0 -65 18.5t-26 55.5q0 76 90 127z" />
    <glyph glyph-name="uogonek" unicode="&#x173;" horiz-adv-x="565" 
d="M459 108l-8 -108q-63 -10 -116.5 -45t-53.5 -87q0 -48 64 -48q22 0 44 6t33.5 12t11.5 7l7 -26q-46 -29 -105 -29q-39 0 -65 18.5t-26 55.5q0 55 49 95.5t127 59.5l-1 81q-31 -48 -88.5 -79t-120.5 -31q-79 0 -125.5 42t-37.5 114l48 384h38l-46 -369q-8 -65 30 -100.5
t108 -35.5q71 0 123 41t78 91l46 373h38z" />
    <glyph glyph-name="Wcircumflex" unicode="&#x174;" horiz-adv-x="960" 
d="M508 780h42l94 -508l35 -201l67 208l162 501h42l-260 -790h-35l-98 534l-34 195l-82 -195l-230 -534h-35l-66 790h41l40 -501l15 -208l84 201zM715 822h-36l-115 175l-159 -175h-40l179 208h44z" />
    <glyph glyph-name="wcircumflex" unicode="&#x175;" horiz-adv-x="776" 
d="M595 592h-36l-115 175l-159 -175h-40l179 208h44zM230 199l157 331h47l75 -331l34 -155l53 158l112 328h41l-189 -540h-43l-80 352l-31 145l-66 -145l-165 -352h-43l-55 540h40l30 -329v1l15 -157z" />
    <glyph glyph-name="Ycircumflex" unicode="&#x176;" horiz-adv-x="670" 
d="M75 780h47l132 -262l82 -164l122 164l196 262h51l-352 -463l-38 -317h-40l38 317zM570 822h-36l-115 175l-159 -175h-40l179 208h44z" />
    <glyph glyph-name="ycircumflex" unicode="&#x177;" horiz-adv-x="512" 
d="M463 592h-36l-115 175l-159 -175h-40l179 208h44zM509 530l-257 -483l-129 -247h-43l117 221l-144 509h43l78 -284l48 -183l93 183l149 284h45z" />
    <glyph glyph-name="Ydieresis" unicode="&#x178;" horiz-adv-x="670" 
d="M540 973l-7 -60h-60l7 60h60zM349 973l-7 -60h-60l7 60h60zM75 780h47l132 -262l82 -164l122 164l196 262h51l-352 -463l-38 -317h-40l38 317z" />
    <glyph glyph-name="Zacute" unicode="&#x179;" horiz-adv-x="710" 
d="M522 1030h47l-132 -208h-35zM710 752l-531 -597l-109 -121l199 1h345l-4 -35h-595l3 28l531 597l109 121l-199 -1h-325l4 35h575z" />
    <glyph glyph-name="zacute" unicode="&#x17a;" horiz-adv-x="532" 
d="M15 0l3 33l422 463h-346l5 34h391l-3 -33l-422 -463h375l-4 -34h-421zM390 800h47l-132 -208h-35z" />
    <glyph glyph-name="Zdotaccent" unicode="&#x17b;" horiz-adv-x="710" 
d="M469 973l-7 -60h-60l7 60h60zM710 752l-531 -597l-109 -121l199 1h345l-4 -35h-595l3 28l531 597l109 121l-199 -1h-325l4 35h575z" />
    <glyph glyph-name="zdotaccent" unicode="&#x17c;" horiz-adv-x="532" 
d="M15 0l3 33l422 463h-346l5 34h391l-3 -33l-422 -463h375l-4 -34h-421zM347 743l-8 -60h-60l8 60h60z" />
    <glyph glyph-name="Zcaron" unicode="&#x17d;" horiz-adv-x="710" 
d="M710 752l-531 -597l-109 -121l199 1h345l-4 -35h-595l3 28l531 597l109 121l-199 -1h-325l4 35h575zM271 1030h36l115 -175l159 175h40l-179 -208h-44z" />
    <glyph glyph-name="zcaron" unicode="&#x17e;" horiz-adv-x="532" 
d="M15 0l3 33l422 463h-346l5 34h391l-3 -33l-422 -463h375l-4 -34h-421zM149 800h36l115 -175l159 175h40l-179 -208h-44z" />
    <glyph glyph-name="florin" unicode="&#x192;" horiz-adv-x="400" 
d="M154 383h-124l4 34h124l18 149q5 39 10.5 64.5t18.5 55.5t32 47t52.5 29t78.5 12q35 0 55 -9l-12 -36q-21 9 -48 9q-66 0 -100.5 -29.5t-45.5 -115.5l-21 -176h163l-4 -34h-163l-48 -385q-5 -39 -10 -64.5t-18 -55.5t-32 -47t-52 -29t-78 -12q-36 0 -56 9l12 36
q21 -9 48 -9q65 0 99.5 29.5t45.5 115.5z" />
    <glyph glyph-name="Khook" unicode="&#x198;" horiz-adv-x="700" 
d="M100 0h-40l95 780h40l-54 -446q55 21 102 51t77 55.5t62.5 66t46.5 60.5t40 62q27 43 42.5 64.5t41.5 48t56 37.5t68 11q28 0 42 -4l-10 -37q-17 5 -36 5q-30 0 -53.5 -9.5t-46 -33.5t-35.5 -42.5t-39 -59.5q-3 -5 -17 -27t-20 -31.5t-21.5 -30.5t-29 -36t-34 -36
t-43.5 -40l289 -408h-50l-269 381q-70 -51 -169 -89z" />
    <glyph glyph-name="khook" unicode="&#x199;" horiz-adv-x="531" 
d="M40 0l73 602q5 39 10.5 64.5t18.5 55.5t32.5 47.5t52.5 29t78 11.5q34 0 56 -9l-13 -36q-18 9 -47 9q-66 0 -100.5 -29.5t-45.5 -115.5l-49 -395l139 125l195 171h55l-257 -224l230 -306h-51l-208 282l-109 -96l-22 -186h-38z" />
    <glyph glyph-name="Yogh" unicode="&#x1b7;" horiz-adv-x="710" 
d="M11 -19l39 19h1q2 -174 228 -174q145 2 231.5 81.5t86.5 236.5q0 110 -63.5 158t-188.5 48q-14 0 -29 -2.5t-24 -5.5l-8 -2l-14 21l355 384h-488l4 35h532l-5 -39l-331 -357q12 1 25 1q126 0 201.5 -56.5t75.5 -183.5q0 -169 -102.5 -262t-261.5 -93q-129 0 -193 51.5
t-71 139.5z" />
    <glyph glyph-name="doublebar" unicode="&#x1c1;" horiz-adv-x="330" 
d="M206 830l-117 -960h-40l117 960h40zM286 830l-117 -960h-40l117 960h40z" />
    <glyph glyph-name="Acaron" unicode="&#x1cd;" horiz-adv-x="720" 
d="M598 0l-67 265h-356l-131 -265h-45l396 790h42l204 -790h-43zM412 744l-114 -231l-106 -212h329l-53 212zM271 1030h36l115 -175l159 175h40l-179 -208h-44z" />
    <glyph glyph-name="acaron" unicode="&#x1ce;" horiz-adv-x="591" 
d="M166 800h36l115 -175l159 175h40l-179 -208h-44zM522 422l-38 -314l-8 -108h-30l-1 100q-33 -51 -91 -80.5t-115 -29.5q-91 0 -140.5 59t-49.5 162q0 145 72.5 237t185.5 92q57 0 107.5 -29.5t70.5 -80.5l26 100h30zM452 158l26 214q-13 52 -54 92.5t-119 40.5
q-93 0 -153.5 -80.5t-60.5 -210.5q0 -88 40.5 -138.5t114.5 -50.5q78 0 128.5 40t77.5 93z" />
    <glyph glyph-name="Icaron" unicode="&#x1cf;" horiz-adv-x="280" 
d="M215 780l-95 -780h-40l95 780h40zM51 1030h36l115 -175l159 175h40l-179 -208h-44z" />
    <glyph glyph-name="icaron" unicode="&#x1d0;" horiz-adv-x="236" 
d="M1 800h36l115 -175l159 175h40l-179 -208h-44zM59 0l65 530h38l-65 -530h-38z" />
    <glyph glyph-name="Ocaron" unicode="&#x1d1;" horiz-adv-x="800" 
d="M358 -10q-148 0 -217.5 82t-69.5 227q0 100 22.5 186.5t67.5 155.5t121 109t174 40q148 0 217.5 -81t69.5 -226q0 -143 -40 -251.5t-128.5 -175t-216.5 -66.5zM452 754q-89 0 -156.5 -38t-106 -103t-57.5 -143t-19 -167q0 -277 250 -277q87 0 154 36t106 99.5t58.5 143
t19.5 173.5q0 276 -249 276zM311 1030h36l115 -175l159 175h40l-179 -208h-44z" />
    <glyph glyph-name="ocaron" unicode="&#x1d2;" horiz-adv-x="592" 
d="M179 800h36l115 -175l159 175h40l-179 -208h-44zM318 505q-105 0 -166 -82.5t-61 -210.5q0 -90 43 -138.5t125 -48.5q105 0 166 83t61 211q0 90 -43 138t-125 48zM254 -10q-99 0 -152 57.5t-53 162.5q0 145 74 237.5t199 92.5q99 0 152.5 -57.5t53.5 -161.5
q0 -145 -74.5 -238t-199.5 -93z" />
    <glyph glyph-name="Ucaron" unicode="&#x1d3;" horiz-adv-x="784" 
d="M350 -10q-165 0 -227.5 69t-46.5 200l64 521h41l-65 -528q-13 -109 40 -167t199 -58t213 58t80 167l65 528h41l-64 -521q-16 -131 -95.5 -200t-244.5 -69zM303 1030h36l115 -175l159 175h40l-179 -208h-44z" />
    <glyph glyph-name="ucaron" unicode="&#x1d4;" horiz-adv-x="565" 
d="M421 0l-1 100q-31 -48 -88.5 -79t-120.5 -31q-79 0 -125.5 42t-37.5 114l48 384h38l-46 -369q-8 -65 30 -100.5t108 -35.5q71 0 123 41t78 91l46 373h38l-52 -422l-8 -108h-30zM162 800h36l115 -175l159 175h40l-179 -208h-44z" />
    <glyph glyph-name="AEmacron" unicode="&#x1e2;" horiz-adv-x="1075" 
d="M444 927l4 32h272l-4 -32h-272zM566 0l-28 382h-252l-247 -382h-47l510 780h533l-4 -36h-480l23 -326h377l-5 -36h-370l25 -346h363l-4 -36h-394zM514 734l-204 -316h226l-11 155z" />
    <glyph glyph-name="aemacron" unicode="&#x1e3;" horiz-adv-x="963" 
d="M377 697l4 32h272l-4 -32h-272zM888 251h-413q-10 -97 37 -161.5t131 -64.5q145 0 180 108l37 -18q-23 -58 -79.5 -91.5t-142.5 -33.5q-73 0 -122.5 35.5t-69.5 100.5q-97 -136 -255 -136q-76 0 -115 34.5t-39 92.5q0 83 56.5 125.5t152.5 42.5h192l11 85q7 73 -29.5 105
t-123.5 32q-124 0 -158 -101l-35 16q47 118 204 118q166 0 179 -126q34 59 92 92.5t128 33.5q189 0 189 -203q0 -30 -7 -86zM702 505q-83 0 -147 -61t-76 -159h370q4 40 4 57q0 79 -35.5 121t-115.5 42zM237 251q-159 0 -159 -132q0 -46 30.5 -70t87.5 -24q162 0 238 151
q-3 29 0 75h-197z" />
    <glyph glyph-name="Gstroke" unicode="&#x1e4;" horiz-adv-x="805" 
d="M363 26q169 0 262 70l12 102h-253l4 35h254l15 121h-200l4 36h240l-19 -157h106l-4 -35h-107l-14 -120q-126 -88 -298 -88q-294 0 -294 308q0 140 40.5 248.5t129 176t215.5 67.5q244 0 266 -191l-41 -19q-11 174 -222 174q-88 0 -155 -34.5t-108.5 -97t-62 -143.5
t-20.5 -179q0 -270 250 -274z" />
    <glyph glyph-name="gstroke" unicode="&#x1e5;" horiz-adv-x="590" 
d="M522 422l-56 -457h69l-4 -34h-73q-22 -68 -85 -104.5t-158 -36.5q-168 0 -187 126l39 18q10 -112 152 -112q163 0 201 109h-189l4 34h193l19 150q-33 -51 -91 -78t-117 -27q-92 0 -142 56t-50 156q0 145 72 231.5t185 86.5q58 0 109.5 -29.5t71.5 -80.5l26 100h30z
M454 173l24 199q-13 51 -55.5 92t-120.5 41q-94 0 -153.5 -75t-59.5 -205q0 -86 41 -133t115 -47q79 0 131 38.5t78 89.5z" />
    <glyph glyph-name="Gcaron" unicode="&#x1e6;" horiz-adv-x="789" 
d="M363 26q169 0 262 70l32 258h-200l4 36h240l-38 -312q-126 -88 -298 -88q-294 0 -294 308q0 140 40.5 248.5t129 176t215.5 67.5q244 0 266 -191l-41 -19q-11 174 -222 174q-88 0 -155 -34.5t-108.5 -97t-62 -143.5t-20.5 -179q0 -270 250 -274zM316 1030h36l115 -175
l159 175h40l-179 -208h-44z" />
    <glyph glyph-name="gcaron" unicode="&#x1e7;" horiz-adv-x="590" 
d="M166 800h36l115 -175l159 175h40l-179 -208h-44zM522 422l-55 -452q-11 -87 -77.5 -133.5t-174.5 -46.5q-168 0 -187 126l39 18q10 -112 152 -112q86 0 143 35t66 108l19 150q-33 -51 -91 -78t-117 -27q-92 0 -142 56t-50 156q0 145 72 231.5t185 86.5q58 0 109.5 -29.5
t71.5 -80.5l26 100h30zM454 173l24 199q-13 51 -55.5 92t-120.5 41q-94 0 -153.5 -75t-59.5 -205q0 -86 41 -133t115 -47q79 0 131 38.5t78 89.5z" />
    <glyph glyph-name="Kcaron" unicode="&#x1e8;" horiz-adv-x="700" 
d="M195 780l-58 -477l500 477h53l-371 -351l304 -429h-50l-283 401l-160 -151l-30 -250h-40l95 780h40zM251 1030h36l115 -175l159 175h40l-179 -208h-44z" />
    <glyph glyph-name="kcaron" unicode="&#x1e9;" horiz-adv-x="531" 
d="M78 0h-38l98 800h38l-70 -566l139 125l195 171h55l-257 -224l230 -306h-51l-208 282l-109 -96zM10 1030h36l115 -175l159 175h40l-179 -208h-44z" />
    <glyph glyph-name="Oogonek" unicode="&#x1ea;" horiz-adv-x="800" 
d="M743 483q0 -124 -30.5 -223t-100.5 -171t-173 -91q-56 -10 -103 -45.5t-47 -84.5q0 -48 64 -48q22 0 44 6t33.5 12t11.5 7l7 -26q-46 -29 -105 -29q-39 0 -65 18.5t-26 55.5q0 78 95 127q-143 2 -210 83.5t-67 223.5q0 100 22.5 186.5t67.5 156t120.5 109.5t174.5 40
q148 0 217.5 -81t69.5 -226zM452 754q-89 0 -156.5 -38t-106 -103t-57.5 -143t-19 -167q0 -277 250 -277q87 0 154 36t106 99.5t58.5 143t19.5 173.5q0 276 -249 276z" />
    <glyph glyph-name="oogonek" unicode="&#x1eb;" horiz-adv-x="592" 
d="M528 321q0 -114 -50.5 -201.5t-136.5 -115.5q-59 -19 -103 -54.5t-44 -81.5q0 -48 64 -48q22 0 44 6t33.5 12t11.5 7l7 -26q-46 -29 -105 -29q-39 0 -65 18.5t-26 55.5q0 73 87 126q-94 2 -145 60t-51 160q0 145 74 237.5t199 92.5q99 0 152.5 -57.5t53.5 -161.5z
M318 505q-105 0 -166 -82.5t-61 -210.5q0 -90 43 -138.5t125 -48.5q105 0 166 83t61 211q0 90 -43 138t-125 48z" />
    <glyph glyph-name="Oogonekmacron" unicode="&#x1ec;" horiz-adv-x="800" 
d="M743 483q0 -124 -30.5 -223t-100.5 -171t-173 -91q-56 -10 -103 -45.5t-47 -84.5q0 -48 64 -48q22 0 44 6t33.5 12t11.5 7l7 -26q-46 -29 -105 -29q-39 0 -65 18.5t-26 55.5q0 78 95 127q-143 2 -210 83.5t-67 223.5q0 100 22.5 186.5t67.5 156t120.5 109.5t174.5 40
q148 0 217.5 -81t69.5 -226zM452 754q-89 0 -156.5 -38t-106 -103t-57.5 -143t-19 -167q0 -277 250 -277q87 0 154 36t106 99.5t58.5 143t19.5 173.5q0 276 -249 276zM337 927l4 32h272l-4 -32h-272z" />
    <glyph glyph-name="oogonekmacron" unicode="&#x1ed;" horiz-adv-x="592" 
d="M205 697l4 32h272l-4 -32h-272zM528 321q0 -114 -50.5 -201.5t-136.5 -115.5q-59 -19 -103 -54.5t-44 -81.5q0 -48 64 -48q22 0 44 6t33.5 12t11.5 7l7 -26q-46 -29 -105 -29q-39 0 -65 18.5t-26 55.5q0 73 87 126q-94 2 -145 60t-51 160q0 145 74 237.5t199 92.5
q99 0 152.5 -57.5t53.5 -161.5zM318 505q-105 0 -166 -82.5t-61 -210.5q0 -90 43 -138.5t125 -48.5q105 0 166 83t61 211q0 90 -43 138t-125 48z" />
    <glyph glyph-name="jcaron" unicode="&#x1f0;" horiz-adv-x="236" 
d="M-90 -174q65 0 99.5 29.5t45.5 115.5l69 559h38l-66 -532q-5 -40 -10 -64.5t-18 -55t-32 -47.5t-52 -29t-78 -12q-36 0 -56 9l12 36q21 -9 48 -9zM1 800h36l115 -175l159 175h40l-179 -208h-44z" />
    <glyph glyph-name="Gacute" unicode="&#x1f4;" horiz-adv-x="789" 
d="M363 26q169 0 262 70l32 258h-200l4 36h240l-38 -312q-126 -88 -298 -88q-294 0 -294 308q0 140 40.5 248.5t129 176t215.5 67.5q244 0 266 -191l-41 -19q-11 174 -222 174q-88 0 -155 -34.5t-108.5 -97t-62 -143.5t-20.5 -179q0 -270 250 -274zM567 1030h47l-132 -208
h-35z" />
    <glyph glyph-name="gacute" unicode="&#x1f5;" horiz-adv-x="590" 
d="M414 800h47l-132 -208h-35zM522 422l-55 -452q-11 -87 -77.5 -133.5t-174.5 -46.5q-168 0 -187 126l39 18q10 -112 152 -112q86 0 143 35t66 108l19 150q-33 -51 -91 -78t-117 -27q-92 0 -142 56t-50 156q0 145 72 231.5t185 86.5q58 0 109.5 -29.5t71.5 -80.5l26 100h30
zM454 173l24 199q-13 51 -55.5 92t-120.5 41q-94 0 -153.5 -75t-59.5 -205q0 -86 41 -133t115 -47q79 0 131 38.5t78 89.5z" />
    <glyph glyph-name="Aringacute" unicode="&#x1fa;" horiz-adv-x="720" 
d="M598 0l-67 265h-356l-131 -265h-45l396 790h42l204 -790h-43zM412 744l-114 -231l-106 -212h329l-53 212zM343 990l98 144h42l-75 -99q20 5 39 5q48 0 74.5 -26t26.5 -70q0 -57 -35.5 -94.5t-93.5 -37.5q-48 0 -74.5 26t-26.5 70q0 45 25 82zM444 1012q-44 0 -69.5 -28
t-25.5 -73q0 -71 73 -71q44 0 69.5 28t25.5 73q0 71 -73 71z" />
    <glyph glyph-name="aringacute" unicode="&#x1fb;" horiz-adv-x="590" 
d="M236 760l98 144h42l-75 -99q20 5 39 5q48 0 74.5 -26t26.5 -70q0 -57 -35.5 -94.5t-93.5 -37.5q-48 0 -74.5 26t-26.5 70q0 45 25 82zM522 422l-38 -314l-8 -108h-30l-1 100q-33 -51 -91 -80.5t-115 -29.5q-91 0 -140.5 59t-49.5 162q0 145 72.5 237t185.5 92
q57 0 107.5 -29.5t70.5 -80.5l26 100h30zM452 158l26 214q-13 52 -54 92.5t-119 40.5q-93 0 -153.5 -80.5t-60.5 -210.5q0 -88 40.5 -138.5t114.5 -50.5q78 0 128.5 40t77.5 93zM337 782q-44 0 -69.5 -28t-25.5 -73q0 -71 73 -71q44 0 69.5 28t25.5 73q0 71 -73 71z" />
    <glyph glyph-name="AEacute" unicode="&#x1fc;" horiz-adv-x="1075" 
d="M669 1030h47l-132 -208h-35zM566 0l-28 382h-252l-247 -382h-47l510 780h533l-4 -36h-480l23 -326h377l-5 -36h-370l25 -346h363l-4 -36h-394zM514 734l-204 -316h226l-11 155z" />
    <glyph glyph-name="aeacute" unicode="&#x1fd;" horiz-adv-x="963" 
d="M606 800h47l-132 -208h-35zM888 251h-413q-10 -97 37 -161.5t131 -64.5q145 0 180 108l37 -18q-23 -58 -79.5 -91.5t-142.5 -33.5q-73 0 -122.5 35.5t-69.5 100.5q-97 -136 -255 -136q-76 0 -115 34.5t-39 92.5q0 83 56.5 125.5t152.5 42.5h192l11 85q7 73 -29.5 105
t-123.5 32q-124 0 -158 -101l-35 16q47 118 204 118q166 0 179 -126q34 59 92 92.5t128 33.5q189 0 189 -203q0 -30 -7 -86zM702 505q-83 0 -147 -61t-76 -159h370q4 40 4 57q0 79 -35.5 121t-115.5 42zM237 251q-159 0 -159 -132q0 -46 30.5 -70t87.5 -24q162 0 238 151
q-3 29 0 75h-197z" />
    <glyph glyph-name="Oslashacute" unicode="&#x1fe;" horiz-adv-x="800" 
d="M562 1030h47l-132 -208h-35zM743 482q0 -100 -22.5 -186.5t-67 -156t-120.5 -109.5t-175 -40q-122 0 -192 59l-38 -49h-45l56 73q-68 80 -68 226q0 100 22.5 186.5t67.5 155.5t121 109t174 40q123 0 193 -59l38 49h45l-57 -73q68 -80 68 -225zM363 26q89 0 156.5 38
t106 103t57.5 143t19 167q0 125 -54 195l-458 -591q61 -55 173 -55zM452 754q-72 0 -129.5 -25t-96 -67t-64.5 -100t-37.5 -122t-11.5 -134q0 -127 54 -198l457 591q-60 55 -172 55z" />
    <glyph glyph-name="oslashacute" unicode="&#x1ff;" horiz-adv-x="592" 
d="M430 800h47l-132 -208h-35zM528 321q0 -145 -74.5 -238t-199.5 -93q-80 0 -130 38l-22 -28h-41l39 50q-51 56 -51 159q0 145 74 238t199 93q80 0 130 -38l23 28h41l-40 -50q52 -57 52 -159zM259 25q104 0 165.5 82t61.5 210q0 80 -36 129l-302 -387q42 -34 111 -34z
M318 505q-105 0 -166 -82t-61 -210q0 -80 35 -129l302 387q-42 34 -110 34z" />
    <glyph glyph-name="Ainvertedbreve" unicode="&#x202;" horiz-adv-x="720" 
d="M598 0l-67 265h-356l-131 -265h-45l396 790h42l204 -790h-43zM412 744l-114 -231l-106 -212h329l-53 212zM273 822h-31q13 99 60 148.5t143 49.5t131 -49.5t22 -148.5h-29q11 89 -19 128t-108 39t-118 -39t-51 -128z" />
    <glyph glyph-name="ainvertedbreve" unicode="&#x203;" horiz-adv-x="591" 
d="M522 422l-38 -314l-8 -108h-30l-1 100q-33 -51 -91 -80.5t-115 -29.5q-91 0 -140.5 59t-49.5 162q0 145 72.5 237t185.5 92q57 0 107.5 -29.5t70.5 -80.5l26 100h30zM452 158l26 214q-13 52 -54 92.5t-119 40.5q-93 0 -153.5 -80.5t-60.5 -210.5q0 -88 40.5 -138.5
t114.5 -50.5q78 0 128.5 40t77.5 93zM168 592h-31q13 99 60 148.5t143 49.5t131 -49.5t22 -148.5h-29q11 89 -19 128t-108 39t-118 -39t-51 -128z" />
    <glyph glyph-name="Einvertedbreve" unicode="&#x206;" horiz-adv-x="715" 
d="M155 780h520l-4 -36h-480l-40 -326h440l-5 -36h-440l-42 -346h500l-4 -36h-540zM283 822h-31q13 99 60 148.5t143 49.5t131 -49.5t22 -148.5h-29q11 89 -19 128t-108 39t-118 -39t-51 -128z" />
    <glyph glyph-name="einvertedbreve" unicode="&#x207;" horiz-adv-x="579" 
d="M504 251h-413q-1 -10 -1 -30q0 -90 46 -143t123 -53q145 0 180 108l37 -18q-23 -58 -79.5 -91.5t-142.5 -33.5q-95 0 -150 61.5t-55 165.5q0 141 78.5 232t194.5 91q189 0 189 -203q0 -30 -7 -86zM318 505q-82 0 -143 -60t-80 -160h370q4 40 4 57q0 79 -35.5 121
t-115.5 42zM181 592h-31q13 99 60 148.5t143 49.5t131 -49.5t22 -148.5h-29q11 89 -19 128t-108 39t-118 -39t-51 -128z" />
    <glyph glyph-name="Iinvertedbreve" unicode="&#x20a;" horiz-adv-x="280" 
d="M215 780l-95 -780h-40l95 780h40zM53 822h-31q13 99 60 148.5t143 49.5t131 -49.5t22 -148.5h-29q11 89 -19 128t-108 39t-118 -39t-51 -128z" />
    <glyph glyph-name="iinvertedbreve" unicode="&#x20b;" horiz-adv-x="236" 
d="M59 0l65 530h38l-65 -530h-38zM3 592h-31q13 99 60 148.5t143 49.5t131 -49.5t22 -148.5h-29q11 89 -19 128t-108 39t-118 -39t-51 -128z" />
    <glyph glyph-name="Oinvertedbreve" unicode="&#x20e;" horiz-adv-x="800" 
d="M358 -10q-148 0 -217.5 82t-69.5 227q0 100 22.5 186.5t67.5 155.5t121 109t174 40q148 0 217.5 -81t69.5 -226q0 -143 -40 -251.5t-128.5 -175t-216.5 -66.5zM452 754q-89 0 -156.5 -38t-106 -103t-57.5 -143t-19 -167q0 -277 250 -277q87 0 154 36t106 99.5t58.5 143
t19.5 173.5q0 276 -249 276zM313 822h-31q13 99 60 148.5t143 49.5t131 -49.5t22 -148.5h-29q11 89 -19 128t-108 39t-118 -39t-51 -128z" />
    <glyph glyph-name="oinvertedbreve" unicode="&#x20f;" horiz-adv-x="592" 
d="M318 505q-105 0 -166 -82.5t-61 -210.5q0 -90 43 -138.5t125 -48.5q105 0 166 83t61 211q0 90 -43 138t-125 48zM254 -10q-99 0 -152 57.5t-53 162.5q0 145 74 237.5t199 92.5q99 0 152.5 -57.5t53.5 -161.5q0 -145 -74.5 -238t-199.5 -93zM181 592h-31q13 99 60 148.5
t143 49.5t131 -49.5t22 -148.5h-29q11 89 -19 128t-108 39t-118 -39t-51 -128z" />
    <glyph glyph-name="Rinvertedbreve" unicode="&#x212;" horiz-adv-x="710" 
d="M577 0l-167 348h-268l-42 -348h-40l95 780h321q39 0 69 -6.5t58.5 -23t44 -51.5t15.5 -86q0 -122 -60.5 -193t-149.5 -71l170 -349h-46zM191 744l-44 -360h297q75 0 127 53.5t52 169.5q0 34 -8.5 59.5t-21 40t-31.5 23t-37 11.5t-40 3h-294zM249 822h-31q13 99 60 148.5
t143 49.5t131 -49.5t22 -148.5h-29q11 89 -19 128t-108 39t-118 -39t-51 -128z" />
    <glyph glyph-name="rinvertedbreve" unicode="&#x213;" horiz-adv-x="375" 
d="M333 540q27 0 43 -4l-10 -40q-23 5 -38 5q-82 0 -141 -51.5t-69 -112.5l-41 -337h-38l51 422l9 108h30v-110q31 55 89 87.5t115 32.5zM95 592h-31q13 99 60 148.5t143 49.5t131 -49.5t22 -148.5h-29q11 89 -19 128t-108 39t-118 -39t-51 -128z" />
    <glyph glyph-name="Uinvertedbreve" unicode="&#x216;" horiz-adv-x="784" 
d="M350 -10q-165 0 -227.5 69t-46.5 200l64 521h41l-65 -528q-13 -109 40 -167t199 -58t213 58t80 167l65 528h41l-64 -521q-16 -131 -95.5 -200t-244.5 -69zM305 822h-31q13 99 60 148.5t143 49.5t131 -49.5t22 -148.5h-29q11 89 -19 128t-108 39t-118 -39t-51 -128z" />
    <glyph glyph-name="uinvertedbreve" unicode="&#x217;" horiz-adv-x="565" 
d="M421 0l-1 100q-31 -48 -88.5 -79t-120.5 -31q-79 0 -125.5 42t-37.5 114l48 384h38l-46 -369q-8 -65 30 -100.5t108 -35.5q71 0 123 41t78 91l46 373h38l-52 -422l-8 -108h-30zM164 592h-31q13 99 60 148.5t143 49.5t131 -49.5t22 -148.5h-29q11 89 -19 128t-108 39
t-118 -39t-51 -128z" />
    <glyph glyph-name="Scommaaccent" unicode="&#x218;" horiz-adv-x="710" 
d="M311 -10q-95 0 -154 23t-82 59.5t-27 90.5l42 20q2 -81 50.5 -119t175.5 -38q39 0 75.5 6t72.5 22t62.5 40.5t43 64t16.5 90.5q0 67 -46.5 98.5t-169.5 44.5q-51 6 -84.5 12t-67 17.5t-52.5 27.5t-31 41.5t-12 60.5q0 63 24.5 110.5t66.5 74.5t91.5 40.5t104.5 13.5
q248 0 256 -167l-40 -19q-2 76 -53.5 113t-166.5 37q-28 0 -56 -4t-62.5 -16.5t-60.5 -33.5t-44 -58.5t-18 -87.5q0 -59 45.5 -85.5t166.5 -39.5q134 -14 192 -51t58 -125q0 -90 -45.5 -151t-114.5 -86.5t-156 -25.5zM278 -200h-27l38 138h44z" />
    <glyph glyph-name="scommaaccent" unicode="&#x219;" horiz-adv-x="534" 
d="M186 -200h-27l38 138h44zM286 505q-65 0 -118 -33.5t-53 -99.5q0 -42 32.5 -55.5t123.5 -23.5q35 -4 56 -7t50.5 -12t46 -21t28.5 -33t12 -50q0 -89 -69.5 -134.5t-175.5 -45.5q-85 0 -133.5 33t-57.5 90l42 20q10 -108 153 -108q87 0 143 34t56 106q0 22 -9.5 37.5
t-22.5 25t-39 16t-46.5 9t-57.5 6.5q-30 3 -49.5 6t-45 10.5t-40.5 18.5t-26 30t-11 45q0 83 63.5 127t152.5 44q85 0 133 -33t57 -91l-41 -19q-10 108 -154 108z" />
    <glyph glyph-name="Tcommaaccent" unicode="&#x21a;" horiz-adv-x="640" 
d="M391 744l-91 -744h-40l91 744h-265l4 36h570l-4 -36h-265zM239 -200h-27l38 138h44z" />
    <glyph glyph-name="tcommaaccent" unicode="&#x21b;" horiz-adv-x="400" 
d="M157 -200h-27l38 138h44zM267 26q26 0 50 9l3 -36q-22 -9 -58 -9q-56 0 -89.5 17t-44 45.5t-12.5 66.5t6 79l36 298h-106l5 34h106l17 140l39 13l-18 -153h173l-5 -34h-173l-40 -325q-10 -86 17.5 -115.5t93.5 -29.5z" />
    <glyph glyph-name="yogh" unicode="&#x292;" horiz-adv-x="535" 
d="M196 -175q96 0 157 60.5t61 161.5q0 75 -43.5 115.5t-118.5 42.5q-76 0 -110 -21l-20 27l201 178l124 107h-349l5 34h391l-6 -39l-292 -256q23 6 61 6q85 0 141 -50.5t56 -141.5q0 -63 -23 -114t-61 -81.5t-84 -47t-94 -16.5q-91 0 -142 37t-55 100l42 6q5 -51 45 -79.5
t114 -28.5z" />
    <glyph glyph-name="bullseye" unicode="&#x298;" horiz-adv-x="960" 
d="M80 390q0 166 117 283t283 117t283 -117t117 -283t-117 -283t-283 -117t-283 117t-117 283zM330 390q0 62 44 106t106 44t106 -44t44 -106t-44 -106t-106 -44t-106 44t-44 106zM157 339q0 -113 79.5 -192.5t192.5 -79.5t193 79.5t80 192.5t-80 193t-193 80t-192.5 -80
t-79.5 -193z" />
    <glyph glyph-name="circumflex" unicode="&#x2c6;" 
d="M507 592h-36l-115 175l-159 -175h-40l179 208h44z" />
    <glyph glyph-name="caron" unicode="&#x2c7;" 
d="M183 800h36l115 -175l159 175h40l-179 -208h-44z" />
    <glyph glyph-name="breve" unicode="&#x2d8;" 
d="M505 800h31q-13 -99 -60 -148.5t-143 -49.5t-131 49.5t-22 148.5h29q-11 -89 19 -128t108 -39t118 39t51 128z" />
    <glyph glyph-name="dotaccent" unicode="&#x2d9;" 
d="M381 743l-8 -60h-60l8 60h60z" />
    <glyph glyph-name="ring" unicode="&#x2da;" 
d="M331 582q-48 0 -74.5 26t-26.5 70q0 57 35.5 94.5t93.5 37.5q48 0 74.5 -26t26.5 -70q0 -57 -35.5 -94.5t-93.5 -37.5zM356 782q-44 0 -69.5 -28t-25.5 -73q0 -71 73 -71q44 0 69.5 28t25.5 73q0 71 -73 71z" />
    <glyph glyph-name="ogonek" unicode="&#x2db;" 
d="M462 25l4 -25q-63 -10 -116.5 -45t-53.5 -87q0 -48 64 -48q22 0 44 6t33.5 12t11.5 7l7 -26q-46 -29 -105 -29q-39 0 -65 18.5t-26 55.5q0 59 57 101.5t145 59.5z" />
    <glyph glyph-name="tilde" unicode="&#x2dc;" 
d="M505 740l28 -5q-10 -40 -41.5 -64.5t-71.5 -24.5q-34 0 -61 18t-51 36t-51 18q-62 0 -80 -63l-27 5q10 40 41.5 64.5t70.5 24.5q42 0 87 -36t77 -36q28 0 49.5 16t29.5 47z" />
    <glyph glyph-name="hungarumlaut" unicode="&#x2dd;" 
d="M357 800h47l-132 -208h-35zM497 800h47l-132 -208h-35z" />
    <glyph glyph-name="invertedbreve" unicode="&#x306;" 
d="M185 592h-31q13 99 60 148.5t143 49.5t131 -49.5t22 -148.5h-29q11 89 -19 128t-108 39t-118 -39t-51 -128z" />
    <glyph glyph-name="doublegrave" unicode="&#x30f;" 
d="M312 800h47l68 -208h-35zM172 800h47l68 -208h-35z" />
    <glyph glyph-name="commaabovecmb" unicode="&#x313;" 
d="M386 800h27l-57 -208h-54z" />
    <glyph glyph-name="uni0323" unicode="&#x323;" 
d="M272 -140l-7 -60h-60l7 60h60z" />
    <glyph glyph-name="uni0329" unicode="&#x329;" 
d="M252 -200h-34l20 160h34z" />
    <glyph glyph-name="uni03A9" unicode="&#x3a9;" horiz-adv-x="700" 
d="M405 774q134 0 208 -71t74 -198q0 -129 -73.5 -256t-180.5 -216l210 1l-4 -34h-262l3 27q103 75 185 205.5t82 267.5q0 113 -65.5 175.5t-181.5 62.5q-140 0 -228.5 -91.5t-88.5 -249.5q0 -111 48.5 -210.5t114.5 -159.5l-3 -27h-262l4 34l210 -1q-67 69 -109 164.5
t-42 198.5q0 172 100 275t261 103z" />
    <glyph glyph-name="pi" unicode="&#x3c0;" horiz-adv-x="725" 
d="M579 26q19 0 39 4l1 -36q-19 -4 -45 -4q-56 0 -89.5 17t-44 45.5t-12.5 66.5t6 79l36 298h-255l-51 -403l-23 -93h-30l18 108l47 388h-130l5 34h612l-5 -34h-150l-40 -325q-10 -86 17.5 -115.5t93.5 -29.5z" />
    <glyph glyph-name="Ddotbelow" unicode="&#x1e0c;" horiz-adv-x="780" 
d="M724 495q0 -495 -407 -495h-257l95 780h257q158 0 235 -64t77 -221zM104 36h228q176 0 263.5 118t87.5 344q0 135 -62.5 190.5t-201.5 55.5h-228zM333 -140l-7 -60h-60l7 60h60z" />
    <glyph glyph-name="ddotbelow" unicode="&#x1e0d;" horiz-adv-x="590" 
d="M255 -140l-7 -60h-60l7 60h60zM485 430l46 370h38l-93 -800h-30l-1 100q-33 -51 -91 -80.5t-115 -29.5q-91 0 -140.5 59t-49.5 162q0 145 72.5 237t185.5 92q57 0 107.5 -29.5t70.5 -80.5zM452 158l26 214q-13 52 -54 92.5t-119 40.5q-93 0 -153.5 -80.5t-60.5 -210.5
q0 -88 40.5 -138.5t114.5 -50.5q78 0 128.5 40t77.5 93z" />
    <glyph glyph-name="Hdotbelow" unicode="&#x1e24;" horiz-adv-x="750" 
d="M665 780h40l-95 -780h-40l46 382h-470l-46 -382h-40l95 780h40l-44 -362h470zM347 -140l-7 -60h-60l7 60h60z" />
    <glyph glyph-name="hdotbelow" unicode="&#x1e25;" horiz-adv-x="566" 
d="M266 -140l-7 -60h-60l7 60h60zM176 800l-46 -370q31 48 88.5 79t120.5 31q79 0 125.5 -42t37.5 -114l-47 -384h-38l45 369q8 65 -29.5 100.5t-107.5 35.5q-71 0 -123.5 -41t-78.5 -91l-45 -373h-38l98 800h38z" />
    <glyph glyph-name="Ldotbelow" unicode="&#x1e36;" horiz-adv-x="605" 
d="M195 780l-91 -744h440l-4 -36h-480l95 780h40zM303 -140l-7 -60h-60l7 60h60z" />
    <glyph glyph-name="ldotbelow" unicode="&#x1e37;" horiz-adv-x="242" 
d="M62 0l98 800h38l-98 -800h-38zM93 -140l-7 -60h-60l7 60h60z" />
    <glyph glyph-name="Ldotbelowmacron" unicode="&#x1e38;" horiz-adv-x="605" 
d="M195 780l-91 -744h440l-4 -36h-480l95 780h40zM57 927l4 32h272l-4 -32h-272zM303 -140l-7 -60h-60l7 60h60z" />
    <glyph glyph-name="ldotbelowmacron" unicode="&#x1e39;" horiz-adv-x="242" 
d="M62 0l98 800h38l-98 -800h-38zM58 927l4 32h272l-4 -32h-272zM93 -140l-7 -60h-60l7 60h60z" />
    <glyph glyph-name="Mdotbelow" unicode="&#x1e42;" horiz-adv-x="902" 
d="M423 -140l-7 -60h-60l7 60h60zM389 0l-158 543l-48 168l-28 -251l-56 -460h-39l95 780h47l162 -557l51 -181l95 181l298 557h49l-95 -780h-39l56 460l34 251l-90 -168l-290 -543h-44z" />
    <glyph glyph-name="mdotbelow" unicode="&#x1e43;" horiz-adv-x="874" 
d="M413 -140l-7 -60h-60l7 60h60zM129 530v-100q31 48 85 79t110 31q62 0 100 -30.5t43 -84.5q38 56 91.5 85.5t108.5 29.5q71 0 111.5 -42t31.5 -114l-47 -384h-38l45 369q8 65 -23.5 100.5t-93.5 35.5q-64 0 -113 -41t-75 -91l-45 -373h-38l45 369q8 66 -22 101t-95 35
q-64 0 -113 -41t-75 -91l-45 -373h-38l51 422l9 108h30z" />
    <glyph glyph-name="Ndotaccent" unicode="&#x1e44;" horiz-adv-x="761" 
d="M489 973l-7 -60h-60l7 60h60zM573 0l-290 544l-98 188l-30 -272l-56 -460h-39l95 780h48l289 -544l98 -188l31 272l56 460h39l-95 -780h-48z" />
    <glyph glyph-name="ndotaccent" unicode="&#x1e45;" horiz-adv-x="565" 
d="M374 743l-8 -60h-60l8 60h60zM129 530v-100q31 48 88.5 79t120.5 31q79 0 125.5 -42t37.5 -114l-47 -384h-38l45 369q8 65 -29.5 100.5t-107.5 35.5q-71 0 -123.5 -41t-78.5 -91l-45 -373h-38l51 422l9 108h30z" />
    <glyph glyph-name="Ndotbelow" unicode="&#x1e46;" horiz-adv-x="761" 
d="M352 -140l-7 -60h-60l7 60h60zM573 0l-290 544l-98 188l-30 -272l-56 -460h-39l95 780h48l289 -544l98 -188l31 272l56 460h39l-95 -780h-48z" />
    <glyph glyph-name="ndotbelow" unicode="&#x1e47;" horiz-adv-x="565" 
d="M265 -140l-7 -60h-60l7 60h60zM129 530v-100q31 48 88.5 79t120.5 31q79 0 125.5 -42t37.5 -114l-47 -384h-38l45 369q8 65 -29.5 100.5t-107.5 35.5q-71 0 -123.5 -41t-78.5 -91l-45 -373h-38l51 422l9 108h30z" />
    <glyph glyph-name="Rdotbelow" unicode="&#x1e5a;" horiz-adv-x="710" 
d="M577 0l-167 348h-268l-42 -348h-40l95 780h321q39 0 69 -6.5t58.5 -23t44 -51.5t15.5 -86q0 -122 -60.5 -193t-149.5 -71l170 -349h-46zM191 744l-44 -360h297q75 0 127 53.5t52 169.5q0 34 -8.5 59.5t-21 40t-31.5 23t-37 11.5t-40 3h-294zM332 -140l-7 -60h-60l7 60h60
z" />
    <glyph glyph-name="rdotbelow" unicode="&#x1e5b;" horiz-adv-x="375" 
d="M333 540q27 0 43 -4l-10 -40q-23 5 -38 5q-82 0 -141 -51.5t-69 -112.5l-41 -337h-38l51 422l9 108h30v-110q31 55 89 87.5t115 32.5zM70 -140l-7 -60h-60l7 60h60z" />
    <glyph glyph-name="Rdotbelowmacron" unicode="&#x1e5c;" horiz-adv-x="710" 
d="M577 0l-167 348h-268l-42 -348h-40l95 780h321q39 0 69 -6.5t58.5 -23t44 -51.5t15.5 -86q0 -122 -60.5 -193t-149.5 -71l170 -349h-46zM191 744l-44 -360h297q75 0 127 53.5t52 169.5q0 34 -8.5 59.5t-21 40t-31.5 23t-37 11.5t-40 3h-294zM332 -140l-7 -60h-60l7 60h60
zM273 927l4 32h272l-4 -32h-272z" />
    <glyph glyph-name="rdotbelowmacron" unicode="&#x1e5d;" horiz-adv-x="375" 
d="M333 540q27 0 43 -4l-10 -40q-23 5 -38 5q-82 0 -141 -51.5t-69 -112.5l-41 -337h-38l51 422l9 108h30v-110q31 55 89 87.5t115 32.5zM119 697l4 32h272l-4 -32h-272zM70 -140l-7 -60h-60l7 60h60z" />
    <glyph glyph-name="Sdotbelow" unicode="&#x1e62;" horiz-adv-x="710" 
d="M311 -10q-95 0 -154 23t-82 59.5t-27 90.5l42 20q2 -81 50.5 -119t175.5 -38q39 0 75.5 6t72.5 22t62.5 40.5t43 64t16.5 90.5q0 67 -46.5 98.5t-169.5 44.5q-51 6 -84.5 12t-67 17.5t-52.5 27.5t-31 41.5t-12 60.5q0 63 24.5 110.5t66.5 74.5t91.5 40.5t104.5 13.5
q248 0 256 -167l-40 -19q-2 76 -53.5 113t-166.5 37q-28 0 -56 -4t-62.5 -16.5t-60.5 -33.5t-44 -58.5t-18 -87.5q0 -59 45.5 -85.5t166.5 -39.5q134 -14 192 -51t58 -125q0 -90 -45.5 -151t-114.5 -86.5t-156 -25.5zM331 -140l-7 -60h-60l7 60h60z" />
    <glyph glyph-name="sdotbelow" unicode="&#x1e63;" horiz-adv-x="534" 
d="M239 -140l-7 -60h-60l7 60h60zM286 505q-65 0 -118 -33.5t-53 -99.5q0 -42 32.5 -55.5t123.5 -23.5q35 -4 56 -7t50.5 -12t46 -21t28.5 -33t12 -50q0 -89 -69.5 -134.5t-175.5 -45.5q-85 0 -133.5 33t-57.5 90l42 20q10 -108 153 -108q87 0 143 34t56 106q0 22 -9.5 37.5
t-22.5 25t-39 16t-46.5 9t-57.5 6.5q-30 3 -49.5 6t-45 10.5t-40.5 18.5t-26 30t-11 45q0 83 63.5 127t152.5 44q85 0 133 -33t57 -91l-41 -19q-10 108 -154 108z" />
    <glyph glyph-name="Tdotbelow" unicode="&#x1e6c;" horiz-adv-x="640" 
d="M391 744l-91 -744h-40l91 744h-265l4 36h570l-4 -36h-265zM292 -140l-7 -60h-60l7 60h60z" />
    <glyph glyph-name="tdotbelow" unicode="&#x1e6d;" horiz-adv-x="400" 
d="M193 -140l-7 -60h-60l7 60h60zM267 26q26 0 50 9l3 -36q-22 -9 -58 -9q-56 0 -89.5 17t-44 45.5t-12.5 66.5t6 79l36 298h-106l5 34h106l17 140l39 13l-18 -153h173l-5 -34h-173l-40 -325q-10 -86 17.5 -115.5t93.5 -29.5z" />
    <glyph glyph-name="Wgrave" unicode="&#x1e80;" horiz-adv-x="950" 
d="M438 1030h47l68 -208h-35zM508 780h42l94 -508l35 -201l67 208l162 501h42l-260 -790h-35l-98 534l-34 195l-82 -195l-230 -534h-35l-66 790h41l40 -501l15 -208l84 201z" />
    <glyph glyph-name="wgrave" unicode="&#x1e81;" horiz-adv-x="776" 
d="M323 800h47l68 -208h-35zM230 199l157 331h47l75 -331l34 -155l53 158l112 328h41l-189 -540h-43l-80 352l-31 145l-66 -145l-165 -352h-43l-55 540h40l30 -329v1l15 -157z" />
    <glyph glyph-name="Wacute" unicode="&#x1e82;" horiz-adv-x="950" 
d="M637 1030h47l-132 -208h-35zM508 780h42l94 -508l35 -201l67 208l162 501h42l-260 -790h-35l-98 534l-34 195l-82 -195l-230 -534h-35l-66 790h41l40 -501l15 -208l84 201z" />
    <glyph glyph-name="wacute" unicode="&#x1e83;" horiz-adv-x="776" 
d="M522 800h47l-132 -208h-35zM230 199l157 331h47l75 -331l34 -155l53 158l112 328h41l-189 -540h-43l-80 352l-31 145l-66 -145l-165 -352h-43l-55 540h40l30 -329v1l15 -157z" />
    <glyph glyph-name="Wdieresis" unicode="&#x1e84;" horiz-adv-x="950" 
d="M680 973l-7 -60h-60l7 60h60zM489 973l-7 -60h-60l7 60h60zM508 780h42l94 -508l35 -201l67 208l162 501h42l-260 -790h-35l-98 534l-34 195l-82 -195l-230 -534h-35l-66 790h41l40 -501l15 -208l84 201z" />
    <glyph glyph-name="wdieresis" unicode="&#x1e85;" horiz-adv-x="776" 
d="M565 743l-8 -60h-60l8 60h60zM374 743l-8 -60h-60l8 60h60zM230 199l157 331h47l75 -331l34 -155l53 158l112 328h41l-189 -540h-43l-80 352l-31 145l-66 -145l-165 -352h-43l-55 540h40l30 -329v1l15 -157z" />
    <glyph glyph-name="Ygrave" unicode="&#x1ef2;" horiz-adv-x="670" 
d="M298 1030h47l68 -208h-35zM75 780h47l132 -262l82 -164l122 164l196 262h51l-352 -463l-38 -317h-40l38 317z" />
    <glyph glyph-name="ygrave" unicode="&#x1ef3;" horiz-adv-x="512" 
d="M191 800h47l68 -208h-35zM509 530l-257 -483l-129 -247h-43l117 221l-144 509h43l78 -284l48 -183l93 183l149 284h45z" />
    <glyph glyph-name="enspace" unicode="&#x2002;" horiz-adv-x="500" 
 />
    <glyph glyph-name="emspace" unicode="&#x2003;" horiz-adv-x="1000" 
 />
    <glyph glyph-name="threeperemspace" unicode="&#x2004;" horiz-adv-x="333" 
 />
    <glyph glyph-name="fourperemspace" unicode="&#x2005;" horiz-adv-x="250" 
 />
    <glyph glyph-name="sixperemspace" unicode="&#x2006;" horiz-adv-x="167" 
 />
    <glyph glyph-name="figurespace" unicode="&#x2007;" horiz-adv-x="700" 
 />
    <glyph glyph-name="punctuationspace" unicode="&#x2008;" horiz-adv-x="280" 
 />
    <glyph glyph-name="thinspace" unicode="&#x2009;" horiz-adv-x="200" 
 />
    <glyph glyph-name="hairspace" unicode="&#x200a;" horiz-adv-x="100" 
 />
    <glyph glyph-name="zerowidthspace" unicode="&#x200b;" horiz-adv-x="0" 
 />
    <glyph glyph-name="figuredash" unicode="&#x2012;" horiz-adv-x="700" 
d="M649 318h-600l4 34h600z" />
    <glyph glyph-name="endash" unicode="&#x2013;" horiz-adv-x="500" 
d="M449 318h-400l4 34h400z" />
    <glyph glyph-name="emdash" unicode="&#x2014;" horiz-adv-x="1000" 
d="M953 352l-4 -34h-900l4 34h900z" />
    <glyph glyph-name="quoteleft" unicode="&#x2018;" horiz-adv-x="125" 
d="M76 530h-54l100 250h21z" />
    <glyph glyph-name="quoteright" unicode="&#x2019;" horiz-adv-x="125" 
d="M129 780h54l-100 -250h-21z" />
    <glyph glyph-name="quotesinglbase" unicode="&#x201a;" horiz-adv-x="135" 
d="M24 86h54l-101 -250h-20z" />
    <glyph glyph-name="quotedblleft" unicode="&#x201c;" horiz-adv-x="265" 
d="M76 530h-54l100 250h21zM216 530h-54l100 250h21z" />
    <glyph glyph-name="quotedblright" unicode="&#x201d;" horiz-adv-x="265" 
d="M129 780h54l-100 -250h-21zM269 780h54l-100 -250h-21z" />
    <glyph glyph-name="quotedblbase" unicode="&#x201e;" horiz-adv-x="275" 
d="M24 86h54l-101 -250h-20zM164 86h54l-101 -250h-21z" />
    <glyph glyph-name="dagger" unicode="&#x2020;" horiz-adv-x="300" 
d="M337 650l-4 -36l-140 10l-11 -234h-50l46 234l-141 -10l4 36l139 -11l7 141h36l-28 -141z" />
    <glyph glyph-name="daggerdbl" unicode="&#x2021;" horiz-adv-x="300" 
d="M318 489l-5 -36l-140 10l-10 -234h-50l45 234l-141 -10l5 36l138 -11l4 73l14 73l-141 -10l4 36l139 -11l7 141h36l-28 -141l142 11l-4 -36l-140 10l-3 -73l-15 -73z" />
    <glyph glyph-name="bullet" unicode="&#x2022;" horiz-adv-x="370" 
d="M330 464l-31 -258h-258l31 258h258z" />
    <glyph glyph-name="ellipsis" unicode="&#x2026;" horiz-adv-x="1020" 
d="M177 60l-7 -60h-60l7 60h60zM507 60l-7 -60h-60l7 60h60zM837 60l-7 -60h-60l7 60h60z" />
    <glyph glyph-name="perthousand" unicode="&#x2030;" horiz-adv-x="1508" 
d="M257 393q72 0 122 51t50 160q0 71 -35.5 104t-94.5 33q-70 0 -120.5 -51.5t-50.5 -160.5q0 -71 35.5 -103.5t93.5 -32.5zM304 774q77 0 119 -41.5t42 -122.5q0 -122 -58.5 -186t-153.5 -64q-77 0 -119.5 41.5t-42.5 122.5q0 121 59.5 185.5t153.5 64.5zM855 764
l-599 -764h-42l599 764h42zM769 23q72 0 122 51t50 160q0 71 -35.5 104t-94.5 33q-70 0 -120.5 -51.5t-50.5 -160.5q0 -71 35.5 -103.5t93.5 -32.5zM816 404q77 0 119 -41.5t42 -122.5q0 -122 -58.5 -186t-153.5 -64q-77 0 -119.5 41.5t-42.5 122.5q0 121 59.5 185.5
t153.5 64.5zM1221 23q72 0 122 51t50 160q0 71 -35.5 104t-94.5 33q-70 0 -120.5 -51.5t-50.5 -160.5q0 -71 35.5 -103.5t93.5 -32.5zM1268 404q77 0 119 -41.5t42 -122.5q0 -122 -58.5 -186t-153.5 -64q-77 0 -119.5 41.5t-42.5 122.5q0 121 59.5 185.5t153.5 64.5z" />
    <glyph glyph-name="guilsinglleft" unicode="&#x2039;" horiz-adv-x="300" 
d="M264 440l-6 -46l-183 -132l151 -132l-5 -40l-190 151l6 48z" />
    <glyph glyph-name="guilsinglright" unicode="&#x203a;" horiz-adv-x="300" 
d="M20 90l6 46l183 132l-151 132l5 40l190 -151l-6 -48z" />
    <glyph glyph-name="interrobang" unicode="&#x203d;" 
d="M352 389q-35 -16 -47 -22l-27 -177h-20l49 563q-157 -15 -193 -163l-35 16q52 184 271 184q98 0 156 -45.5t58 -128.5q0 -28 -6.5 -52.5t-15.5 -42.5t-26 -35t-30 -27.5t-35.5 -23t-34 -18t-35 -15.5t-29.5 -13zM521 613q0 65 -42.5 100.5t-112.5 40.5l-55 -350
q4 1 11 4.5t10 5.5q4 2 25.5 11t27.5 12t25 12t25.5 14t22 16t22 19.5t16.5 22t14 26.5t7.5 30t3.5 36zM277 52l-6 -52h-52l6 52h52z" />
    <glyph glyph-name="fraction" unicode="&#x2044;" horiz-adv-x="180" 
d="M417 764l-599 -764h-42l599 764h42z" />
    <glyph glyph-name="uni2070" unicode="&#x2070;" horiz-adv-x="498" 
d="M257 393q72 0 122 51t50 160q0 71 -35.5 104t-94.5 33q-70 0 -120.5 -51.5t-50.5 -160.5q0 -71 35.5 -103.5t93.5 -32.5zM304 774q77 0 119 -41.5t42 -122.5q0 -122 -58.5 -186t-153.5 -64q-77 0 -119.5 41.5t-42.5 122.5q0 121 59.5 185.5t153.5 64.5z" />
    <glyph glyph-name="uni2074" unicode="&#x2074;" horiz-adv-x="392" 
d="M363 462h-78l-11 -92h-35l11 92h-189l4 29l224 283h35l-35 -278h78zM254 496l21 165l8 60l-43 -58l-91 -113l-44 -54h149z" />
    <glyph glyph-name="uni2075" unicode="&#x2075;" horiz-adv-x="411" 
d="M140 564l-29 13l43 187h227l-4 -35h-198l-30 -124q40 29 101 29q60 0 91.5 -29t31.5 -84q0 -74 -47.5 -117.5t-117.5 -43.5q-120 0 -130 91l35 17q3 -39 23.5 -57.5t68.5 -18.5q55 0 93.5 29.5t38.5 97.5q0 82 -91 82q-69 0 -106 -37z" />
    <glyph glyph-name="uni2076" unicode="&#x2076;" horiz-adv-x="407" 
d="M276 741q-64 3 -105.5 -41.5t-48.5 -139.5q20 34 55.5 52t76.5 18q56 0 87.5 -30.5t31.5 -84.5q0 -71 -44.5 -113t-112.5 -42q-130 0 -130 149q0 131 52 198t143 67q50 0 77.5 -21t33.5 -53l-37 -17q-2 29 -20.5 43t-58.5 15zM249 594q-54 0 -90 -30t-37 -89
q11 -83 95 -83q51 0 85 30t34 92q0 78 -87 80z" />
    <glyph glyph-name="uni2077" unicode="&#x2077;" horiz-adv-x="352" 
d="M149 370h-38l178 306l33 54l-105 -1h-128l4 35h272l-3 -27z" />
    <glyph glyph-name="uni2078" unicode="&#x2078;" horiz-adv-x="407" 
d="M235 588q111 0 111 91q0 62 -93 62q-110 0 -110 -88q0 -38 25 -51.5t67 -13.5zM211 392q122 0 122 91q0 72 -102 72q-31 0 -56 -6.5t-46.5 -29.5t-21.5 -62q0 -65 104 -65zM207 360q-67 0 -101.5 24.5t-34.5 68.5q0 55 30 84t68 35q-28 4 -45 24.5t-17 54.5q0 63 43.5 93
t107.5 30q55 0 90 -22t35 -69q0 -46 -26.5 -76.5t-60.5 -34.5q31 -4 52.5 -25t21.5 -60q0 -60 -41.5 -93.5t-121.5 -33.5z" />
    <glyph glyph-name="uni2079" unicode="&#x2079;" horiz-adv-x="407" 
d="M189 393q64 -3 105.5 41.5t48.5 139.5q-20 -34 -55.5 -52t-76.5 -18q-56 0 -87.5 30.5t-31.5 84.5q0 71 44.5 113t112.5 42q130 0 130 -149q0 -131 -52 -198t-143 -67q-50 0 -77.5 21t-33.5 53l37 17q2 -29 20.5 -43t58.5 -15zM216 540q54 0 90 30t37 89q-11 83 -95 83
q-51 0 -85 -30t-34 -92q0 -78 87 -80z" />
    <glyph glyph-name="uni207A" unicode="&#x207a;" horiz-adv-x="380" 
d="M185 430l17 133h-133l4 34h133l16 133h34l-16 -133h133l-4 -34h-133l-17 -133h-34z" />
    <glyph glyph-name="uni207B" unicode="&#x207b;" horiz-adv-x="380" 
d="M369 563h-300l4 34h300z" />
    <glyph glyph-name="uni207C" unicode="&#x207c;" horiz-adv-x="380" 
d="M361 503h-300l4 34h300zM376 623h-300l4 34h300z" />
    <glyph glyph-name="uni207D" unicode="&#x207d;" horiz-adv-x="210" 
d="M220 820q-38 -67 -63.5 -155t-25.5 -165q0 -102 27 -186h-38q-31 89 -31 179q0 173 93 327h38z" />
    <glyph glyph-name="uni207E" unicode="&#x207e;" horiz-adv-x="210" 
d="M48 314q38 67 63.5 155t25.5 165q0 102 -27 186h38q31 -89 31 -179q0 -173 -93 -327h-38z" />
    <glyph glyph-name="uni2080" unicode="&#x2080;" horiz-adv-x="498" 
d="M212 23q72 0 122 51t50 160q0 71 -35.5 104t-94.5 33q-70 0 -120.5 -51.5t-50.5 -160.5q0 -71 35.5 -103.5t93.5 -32.5zM259 404q77 0 119 -41.5t42 -122.5q0 -122 -58.5 -186t-153.5 -64q-77 0 -119.5 41.5t-42.5 122.5q0 121 59.5 185.5t153.5 64.5z" />
    <glyph glyph-name="uni2081" unicode="&#x2081;" horiz-adv-x="280" 
d="M130 0h-36l43 348q-31 -30 -101 -55l4 37q36 13 59 28.5t50 45.5h31z" />
    <glyph glyph-name="uni2082" unicode="&#x2082;" horiz-adv-x="424" 
d="M324 0h-303q5 43 18.5 74t39.5 52.5t48.5 33.5t65.5 30q8 4 25.5 11t23.5 9.5t19 8.5t17 9.5t12.5 9.5t11 11.5t6.5 13.5t5 17t1 20q0 39 -29.5 54.5t-64.5 15.5q-53 0 -81.5 -17t-41.5 -56l-32 15q35 92 160 92q55 0 89.5 -25.5t34.5 -73.5q0 -20 -3.5 -36t-14 -29
t-17 -21t-26 -18.5t-25.5 -13.5t-31.5 -13.5t-29.5 -12.5q-69 -29 -100 -56t-39 -72l265 1z" />
    <glyph glyph-name="uni2083" unicode="&#x2083;" horiz-adv-x="421" 
d="M335 120q0 -58 -45.5 -94t-128.5 -36q-119 0 -134 90l37 17q3 -75 101 -75q134 0 134 97q0 23 -9 37.5t-27 20.5t-33.5 7.5t-39.5 1.5h-54l4 34h54q25 0 42 2.5t35 11t27.5 27.5t9.5 48q0 62 -93 62q-54 0 -82 -17.5t-39 -56.5l-32 15q33 92 153 92q58 0 93.5 -22.5
t35.5 -68.5q0 -49 -25 -76.5t-59 -31.5q30 -3 52.5 -24.5t22.5 -60.5z" />
    <glyph glyph-name="uni2084" unicode="&#x2084;" horiz-adv-x="392" 
d="M318 92h-78l-11 -92h-35l11 92h-189l4 29l224 283h35l-35 -278h78zM209 126l21 165l8 60l-43 -58l-91 -113l-44 -54h149z" />
    <glyph glyph-name="uni2085" unicode="&#x2085;" horiz-adv-x="411" 
d="M95 194l-29 13l43 187h227l-4 -35h-198l-30 -124q40 29 101 29q60 0 91.5 -29t31.5 -84q0 -74 -47.5 -117.5t-117.5 -43.5q-120 0 -130 91l35 17q3 -39 23.5 -57.5t68.5 -18.5q55 0 93.5 29.5t38.5 97.5q0 82 -91 82q-69 0 -106 -37z" />
    <glyph glyph-name="uni2086" unicode="&#x2086;" horiz-adv-x="407" 
d="M231 371q-64 3 -105.5 -41.5t-48.5 -139.5q20 34 55.5 52t76.5 18q56 0 87.5 -30.5t31.5 -84.5q0 -71 -44.5 -113t-112.5 -42q-130 0 -130 149q0 131 52 198t143 67q50 0 77.5 -21t33.5 -53l-37 -17q-2 29 -20.5 43t-58.5 15zM204 224q-54 0 -90 -30t-37 -89
q11 -83 95 -83q51 0 85 30t34 92q0 78 -87 80z" />
    <glyph glyph-name="uni2087" unicode="&#x2087;" horiz-adv-x="352" 
d="M104 0h-38l178 306l33 54l-105 -1h-128l4 35h272l-3 -27z" />
    <glyph glyph-name="uni2088" unicode="&#x2088;" horiz-adv-x="407" 
d="M190 218q111 0 111 91q0 62 -93 62q-110 0 -110 -88q0 -38 25 -51.5t67 -13.5zM166 22q122 0 122 91q0 72 -102 72q-31 0 -56 -6.5t-46.5 -29.5t-21.5 -62q0 -65 104 -65zM162 -10q-67 0 -101.5 24.5t-34.5 68.5q0 55 30 84t68 35q-28 4 -45 24.5t-17 54.5q0 63 43.5 93
t107.5 30q55 0 90 -22t35 -69q0 -46 -26.5 -76.5t-60.5 -34.5q31 -4 52.5 -25t21.5 -60q0 -60 -41.5 -93.5t-121.5 -33.5z" />
    <glyph glyph-name="uni2089" unicode="&#x2089;" horiz-adv-x="407" 
d="M144 23q64 -3 105.5 41.5t48.5 139.5q-20 -34 -55.5 -52t-76.5 -18q-56 0 -87.5 30.5t-31.5 84.5q0 71 44.5 113t112.5 42q130 0 130 -149q0 -131 -52 -198t-143 -67q-50 0 -77.5 21t-33.5 53l37 17q2 -29 20.5 -43t58.5 -15zM171 170q54 0 90 30t37 89q-11 83 -95 83
q-51 0 -85 -30t-34 -92q0 -78 87 -80z" />
    <glyph glyph-name="uni208A" unicode="&#x208a;" horiz-adv-x="380" 
d="M140 60l17 133h-133l4 34h133l16 133h34l-16 -133h133l-4 -34h-133l-17 -133h-34z" />
    <glyph glyph-name="uni208B" unicode="&#x208b;" horiz-adv-x="380" 
d="M324 193h-300l4 34h300z" />
    <glyph glyph-name="uni208C" unicode="&#x208c;" horiz-adv-x="380" 
d="M316 133h-300l4 34h300zM331 253h-300l4 34h300z" />
    <glyph glyph-name="uni208D" unicode="&#x208d;" horiz-adv-x="210" 
d="M175 450q-38 -67 -63.5 -155t-25.5 -165q0 -102 27 -186h-38q-31 89 -31 179q0 173 93 327h38z" />
    <glyph glyph-name="uni208E" unicode="&#x208e;" horiz-adv-x="210" 
d="M3 -56q38 67 63.5 155t25.5 165q0 102 -27 186h38q31 -89 31 -179q0 -173 -93 -327h-38z" />
    <glyph glyph-name="uni20A1" unicode="&#x20a1;" horiz-adv-x="700" 
d="M212 12l-30 -58h-40l39 75q-20 14 -29 22l-50 -97h-40l65 127q-52 71 -52 204q0 142 40 251t121.5 173.5t193.5 64.5q20 0 54 -4l21 40h40l-24 -46q17 -4 34 -12l30 58h40l-39 -75q67 -47 79 -152l-41 -19q-6 92 -58 133l-335 -648q45 -21 107 -21q100 0 157.5 43.5
t83.5 128.5l37 -17q-32 -92 -98 -142.5t-185 -50.5q-68 0 -121 22zM425 736q-143 0 -226.5 -122.5t-83.5 -323.5q0 -102 35 -166l316 610q-26 2 -41 2zM502 727l-329 -636q20 -20 27 -25l336 650q-10 5 -34 11z" />
    <glyph glyph-name="uni20A2" unicode="&#x20a2;" horiz-adv-x="700" 
d="M591 470q27 0 44 -4l-10 -40q-25 5 -39 5q-82 0 -141 -51.5t-69 -112.5l-29 -239q95 1 150.5 44.5t81.5 127.5l37 -17q-32 -92 -98 -142.5t-185 -50.5q-258 0 -258 296q0 216 94 352t261 136q118 0 172 -50t63 -141l-41 -19q-5 86 -52 129t-147 43q-143 0 -226.5 -122.5
t-83.5 -323.5q0 -245 194 -261l40 323l8 108h30v-110q32 55 89.5 87.5t114.5 32.5z" />
    <glyph glyph-name="uni20A3" unicode="&#x20a3;" horiz-adv-x="620" 
d="M171 466l36 298h426l-4 -35h-387l-32 -263h256l-5 -35h-256l-10 -86h256l-4 -35h-256l-38 -310h-39l38 310h-100l4 35h100l10 86h-100l5 35h100z" />
    <glyph glyph-name="uni20A4" unicode="&#x20a4;" horiz-adv-x="680" 
d="M178 442l15 122q12 102 79.5 156t183.5 54q199 0 201 -153l-39 -18q3 63 -35.5 100t-133.5 36q-196 -3 -217 -174l-15 -123h256l-5 -35h-256l-10 -86h256l-4 -35h-256l-31 -251h417l-4 -35h-556l4 35h100l31 251h-100l4 35h100l10 86h-100l5 35h100z" />
    <glyph glyph-name="uni20A6" unicode="&#x20a6;" horiz-adv-x="730" 
d="M531 0l-144 304h-241l-37 -304h-39l37 304h-74l4 35h74l11 86h-74l4 35h74l37 304h49l144 -304h241l37 304h39l-37 -304h74l-4 -35h-74l-11 -86h74l-4 -35h-74l-37 -304h-49zM549 48l29 256h-148l32 -68zM193 716l-28 -256h147l-32 68zM161 425l-11 -86h220l-41 86h-168z
M373 425l40 -86h169l11 86h-220z" />
    <glyph glyph-name="uni20A7" unicode="&#x20a7;" horiz-adv-x="1422" 
d="M1174 505q-60 0 -111 -28.5t-59 -88.5q-6 -53 25.5 -68.5t129.5 -26.5q37 -4 59 -7.5t53 -13.5t47 -24t26.5 -39t6.5 -59q-10 -81 -77 -120.5t-167 -39.5q-95 0 -144 40q-61 -40 -154 -40q-56 0 -89.5 17t-44 45.5t-12.5 66.5t6 79l36 298h-121q-23 -99 -85 -137.5
t-154 -38.5h-206l-39 -320h-40l93 764h246q102 0 155.5 -48.5t38.5 -173.5l-1 -12h118l17 140l39 13l-18 -153h173l-5 -34h-173l-40 -325q-10 -86 17.5 -115.5t93.5 -29.5q77 0 124 32q-17 23 -22 56l42 19q10 -108 153 -108q82 0 136 30t62 94q3 26 -5 45t-20 29.5t-40 18
t-48 10.5t-61 7q-33 3 -52.5 6.5t-47 12t-42 21t-24 35t-5.5 53.5q9 76 70 114.5t145 38.5q85 0 133 -33t57 -91l-41 -19q-10 108 -154 108zM143 356h222q165 0 188 186t-142 186h-222z" />
    <glyph glyph-name="uni20A8" unicode="&#x20a8;" horiz-adv-x="1117" 
d="M869 505q-60 0 -111 -28.5t-59 -88.5q-6 -53 25.5 -68.5t129.5 -26.5q37 -4 59 -7.5t53 -13.5t47 -24t26.5 -39t6.5 -59q-10 -81 -77 -120.5t-167 -39.5q-40 0 -70 3t-72 13.5t-78 33.5t-75.5 59.5t-77 95.5t-71.5 137h-218l-40 -332h-40l93 764h271q43 0 75.5 -8
t62.5 -29.5t42 -66.5t4 -112q-8 -60 -27.5 -103t-49 -66t-60 -33.5t-68.5 -12.5q43 -96 91.5 -159.5t101 -94.5t100.5 -42.5t110 -11.5q82 0 136 30t62 94q3 26 -5 45t-20 29.5t-40 18t-48 10.5t-61 7q-33 3 -52.5 6.5t-47 12t-42 21t-24 35t-5.5 53.5q9 76 70 114.5
t145 38.5q85 0 133 -33t57 -91l-41 -19q-10 108 -154 108zM189 728l-44 -360h244q32 0 57 6.5t52 24t45 55.5t25 94t-2 94t-31.5 55.5t-46 24t-55.5 6.5h-244z" />
    <glyph glyph-name="uni20A9" unicode="&#x20a9;" horiz-adv-x="846" 
d="M563 -10l-41 314h-204l-119 -314h-50l-23 314h-88l4 35h81l-6 86h-64l4 35h57l-23 304h41l22 -304h183l114 304h50l39 -304h184l96 304h41l-97 -304h57l-4 -35h-64l-28 -86h81l-4 -35h-88l-101 -314h-50zM470 714l-58 -161l-35 -93h124l-13 93zM593 39l59 194l23 71h-114
l13 -100zM181 39l61 165l37 100h-114l5 -71zM364 425l-33 -86h186l-11 86h-142zM545 425l11 -86h130l27 86h-168zM157 425l5 -86h130l32 86h-167z" />
    <glyph glyph-name="uni20AA" unicode="&#x20aa;" horiz-adv-x="665" 
d="M137 764h191q154 0 136 -144l-61 -490h-38l60 485q7 62 -16.5 88.5t-84.5 26.5h-153l-89 -730h-38zM388 0h-191l77 634h38l-73 -600h153q61 0 91.5 26.5t37.5 88.5l75 615h38l-76 -620q-18 -144 -170 -144z" />
    <glyph glyph-name="Euro" unicode="&#x20ac;" horiz-adv-x="775" 
d="M35 286l4 36h112q0 8 5 60q8 50 10 60h-112l4 36h115q73 296 332 296q118 0 172 -50t63 -141l-41 -19q-5 86 -52 129t-147 43q-220 0 -285 -258h348l-15 -36h-340q-2 -9 -10 -60q-5 -53 -5 -60h302l-15 -36h-288q0 -258 221 -258q100 0 157.5 43.5t83.5 128.5l37 -18
q-32 -92 -98 -142t-185 -50q-260 0 -258 296h-115z" />
    <glyph glyph-name="uni20AE" unicode="&#x20ae;" horiz-adv-x="520" 
d="M409 353l-134 -64l-35 -289h-40l33 269l-122 -57l5 42l122 57l10 80l-122 -57l5 42l122 57l36 295h-205l4 36h450l-4 -36h-205l-34 -275l134 64l-5 -42l-134 -64l-10 -80l134 64z" />
    <glyph glyph-name="uni20B1" unicode="&#x20b1;" horiz-adv-x="660" 
d="M139 320l-39 -320h-40l56 464h-70l5 35h70l10 86h-70l5 35h70l17 144h246q181 0 196 -144h65l-5 -35h-59q1 -30 -10 -86h59l-5 -35h-65q-50 -144 -230 -144h-206zM143 356h222q126 0 168 108h-377zM189 728l-13 -108h377q-17 108 -142 108h-222zM545 499q13 52 10 86
h-384l-10 -86h384z" />
    <glyph glyph-name="afii61289" unicode="&#x2113;" horiz-adv-x="350" 
d="M87 283v285q0 206 114 206q45 0 71.5 -34t26.5 -98q0 -103 -54.5 -209.5t-121.5 -167.5v-147q0 -52 17.5 -72t65.5 -20q29 0 53 8l7 -35q-27 -9 -60 -9q-119 0 -119 112v139q-25 -19 -57 -42v43q41 28 57 41zM123 563v-252q59 63 99.5 155.5t40.5 179.5q0 43 -15.5 68.5
t-46.5 25.5q-78 0 -78 -177z" />
    <glyph glyph-name="numero" unicode="&#x2116;" horiz-adv-x="1320" 
d="M1011 224q-99 0 -152 57.5t-53 162.5q0 152 75 241t198 89q99 0 152.5 -57.5t53.5 -161.5q0 -152 -75.5 -241.5t-198.5 -89.5zM1074 739q-103 0 -164.5 -78.5t-61.5 -215.5q0 -89 43 -137.5t124 -48.5q103 0 165 78t62 214q0 91 -43 139.5t-125 48.5zM562 0l-282 528
l-97 188l-30 -272l-54 -444h-39l93 764h49l281 -528l97 -188l31 272l54 444h39l-93 -764h-49zM1021 60l-7 -60h-60l7 60h60z" />
    <glyph glyph-name="servicemark" unicode="&#x2120;" horiz-adv-x="550" 
d="M418 510h-26l-49 156l-11 43l-24 -199h-29l33 270h26l54 -175l17 -61l129 236h26l-33 -270h-29l18 148l8 51zM130 506q-85 0 -93 65l29 14q2 -27 16.5 -39.5t50.5 -12.5q34 0 57.5 16.5t23.5 45.5q0 22 -24 32t-52.5 12t-52.5 16t-24 43q0 41 30.5 63.5t71.5 22.5
q83 0 91 -64l-29 -13q-2 26 -15 38.5t-50 12.5q-27 0 -48.5 -13.5t-21.5 -42.5q0 -17 13.5 -25t46.5 -12q49 -6 70 -18.5t21 -45.5q0 -46 -32.5 -70.5t-78.5 -24.5z" />
    <glyph glyph-name="trademark" unicode="&#x2122;" horiz-adv-x="540" 
d="M408 510h-26l-49 156l-11 43l-6 -51l-18 -148h-29l33 270h26l54 -175l17 -61l33 61l96 175h26l-33 -270h-29l18 148l8 51l-23 -43zM168 751l-30 -241h-31l30 241h-85l3 29h201l-3 -29h-85z" />
    <glyph glyph-name="ohm" unicode="&#x2126;" horiz-adv-x="700" 
d="M405 774q134 0 208 -71t74 -198q0 -129 -73.5 -256t-180.5 -216l210 1l-4 -34h-262l3 27q103 75 185 205.5t82 267.5q0 113 -65.5 175.5t-181.5 62.5q-140 0 -228.5 -91.5t-88.5 -249.5q0 -111 48.5 -210.5t114.5 -159.5l-3 -27h-262l4 34l210 -1q-67 69 -109 164.5
t-42 198.5q0 172 100 275t261 103z" />
    <glyph glyph-name="estimated" unicode="&#x212e;" horiz-adv-x="810" 
d="M795 373h-676q2 -68 19.5 -128t51 -110t89.5 -79.5t129 -30.5q142 -2 229.5 61t96.5 179h46q-20 -139 -118 -207t-257 -68q-174 0 -282 109t-108 291t108 291t282 109t282 -109t108 -291v-17zM405 756q-58 0 -106 -19.5t-80 -53t-54.5 -78.5t-33 -94.5t-12.5 -103.5h572
q-2 68 -19.5 128.5t-50.5 111t-88.5 80t-127.5 29.5z" />
    <glyph glyph-name="arrowleft" unicode="&#x2190;" horiz-adv-x="860" 
d="M30 382v16l400 268v-44l-195 -127l-139 -89l144 1h580v-34h-580l-144 1l139 -89l195 -127v-44z" />
    <glyph glyph-name="arrowup" unicode="&#x2191;" horiz-adv-x="860" 
d="M422 790h16l268 -400h-44l-127 195l-89 139l1 -144v-580h-34v580l1 144l-89 -139l-127 -195h-44z" />
    <glyph glyph-name="arrowright" unicode="&#x2192;" horiz-adv-x="860" 
d="M830 398v-16l-400 -268v44l195 127l139 89l-144 -1h-580v34h580l144 -1l-139 89l-195 127v44z" />
    <glyph glyph-name="arrowdown" unicode="&#x2193;" horiz-adv-x="860" 
d="M438 -10h-16l-268 400h44l127 -195l89 -139l-1 144v580h34v-580l-1 -144l89 139l127 195h44z" />
    <glyph glyph-name="uni2196" unicode="&#x2196;" horiz-adv-x="860" 
d="M25 779l11 11l473 -93l-31 -31l-228 48l-161 35l102 -101l410 -410l-24 -24l-410 410l-101 102l35 -161l48 -228l-31 -31z" />
    <glyph glyph-name="uni2197" unicode="&#x2197;" horiz-adv-x="860" 
d="M824 790l11 -11l-93 -473l-31 31l48 228l35 161l-101 -102l-410 -410l-24 24l410 410l102 101l-161 -35l-228 -48l-31 31z" />
    <glyph glyph-name="uni2198" unicode="&#x2198;" horiz-adv-x="860" 
d="M36 -10l-11 11l93 473l31 -31l-48 -228l-35 -161l101 102l410 410l24 -24l-410 -410l-102 -101l161 35l228 48l31 -31z" />
    <glyph glyph-name="uni2199" unicode="&#x2199;" horiz-adv-x="860" 
d="M835 1l-11 -11l-473 93l31 31l228 -48l161 -35l-102 101l-410 410l24 24l410 -410l101 -102l-35 161l-48 228l31 31z" />
    <glyph glyph-name="partialdiff" unicode="&#x2202;" horiz-adv-x="690" 
d="M154 692l-12 30q101 52 212 52q129 0 198.5 -77.5t69.5 -223.5q0 -43 -6 -91q-24 -198 -103.5 -295t-224.5 -97q-106 0 -171.5 55.5t-65.5 153.5q0 133 79 206.5t198 73.5q53 0 100 -14t87.5 -52.5t50.5 -98.5q16 112 16 154q0 137 -62 204.5t-170 67.5q-97 0 -196 -48z
M324 442q-97 -1 -165 -60t-68 -179q0 -88 58.5 -133t143.5 -45q176 0 242 172q7 35 7 60q0 87 -63 136t-155 49z" />
    <glyph glyph-name="increment" unicode="&#x2206;" horiz-adv-x="860" 
d="M16 0l3 26l450 748h32l266 -748l-3 -26h-748zM593 34l134 -1l-203 569l-43 132l-77 -132l-342 -570l135 2h396z" />
    <glyph glyph-name="product" unicode="&#x220f;" horiz-adv-x="750" 
d="M638 730l-89 -730h-38l89 730h-352l-89 -730h-38l89 730h-136l4 34h700l-4 -34h-136z" />
    <glyph glyph-name="summation" unicode="&#x2211;" horiz-adv-x="690" 
d="M171 764h486l-4 -34h-258l-190 1l311 -330l-3 -21l-420 -347l191 1h310l-4 -34h-544l4 39l429 353l-313 332z" />
    <glyph glyph-name="minus" unicode="&#x2212;" horiz-adv-x="490" 
d="M445 373h-390l4 34h390z" />
    <glyph glyph-name="radical" unicode="&#x221a;" horiz-adv-x="750" 
d="M58 478l4 33l128 29l39 -335l17 -170l103 151l403 578h42l-541 -774h-35l-57 511z" />
    <glyph glyph-name="infinity" unicode="&#x221e;" horiz-adv-x="800" 
d="M737 390q0 -67 -41.5 -102.5t-110.5 -35.5q-98 0 -185 109q-89 -109 -185 -109q-69 0 -110.5 35.5t-41.5 102.5t41.5 102.5t110.5 35.5q94 0 185 -109q89 109 185 109q69 0 110.5 -35.5t41.5 -102.5zM216 494q-51 2 -84.5 -22.5t-33.5 -81.5t33.5 -81.5t84.5 -22.5
q94 4 162 104q-68 100 -162 104zM702 390q0 57 -33.5 81.5t-83.5 22.5q-95 -4 -163 -104q68 -100 163 -104q50 -2 83.5 22.5t33.5 81.5z" />
    <glyph glyph-name="integral" unicode="&#x222b;" horiz-adv-x="236" 
d="M315 738q-66 0 -100.5 -29.5t-45.5 -115.5l-73 -595q-5 -39 -10 -64.5t-18 -55.5t-32 -47t-52 -29t-78 -12q-36 0 -56 9l12 36q21 -9 48 -9q65 0 99.5 29.5t45.5 115.5l73 595q5 39 10.5 64.5t18.5 55.5t32 47t52.5 29t78.5 12q35 0 55 -9l-12 -36q-21 9 -48 9z" />
    <glyph glyph-name="approxequal" unicode="&#x2248;" horiz-adv-x="490" 
d="M434 318l-25 -26q-22 34 -69 34q-36 0 -95.5 -33.5t-103.5 -33.5q-63 0 -89 45l24 26q23 -34 70 -34q36 0 95 33.5t103 33.5q58 0 90 -45zM453 476l-24 -26q-23 34 -70 34q-36 0 -95 -33.5t-103 -33.5q-64 0 -90 45l24 26q23 -34 70 -34q36 0 95 33.5t103 33.5
q64 0 90 -45z" />
    <glyph glyph-name="notequal" unicode="&#x2260;" horiz-adv-x="490" 
d="M455 453h-132l-99 -126h216l-5 -34h-239l-86 -110h-42l86 110h-109l5 34h132l99 126h-216l4 34h238l88 110h42l-88 -110h110z" />
    <glyph glyph-name="lessequal" unicode="&#x2264;" horiz-adv-x="490" 
d="M96 457l160 -70l181 -81l-4 -37l-369 171l4 38l411 171l-5 -41l-201 -81zM416 131l-369 171l4 35l369 -171z" />
    <glyph glyph-name="greaterequal" unicode="&#x2265;" horiz-adv-x="490" 
d="M437 302l-411 -171l4 35l411 171zM426 461l-160 70l-181 81l4 37l369 -171l-4 -38l-411 -171l5 41l201 81z" />
    <glyph glyph-name="filledbox" unicode="&#x25a0;" horiz-adv-x="980" 
d="M519 390l261 -261l-29 -29l-261 261l-261 -261l-29 29l261 261l-261 261l29 29l261 -261l261 261l29 -29zM100 0v780h780v-780h-780zM840 744h-700v-708h700v708z" />
    <glyph glyph-name="whitesquare" unicode="&#x25a1;" horiz-adv-x="980" 
d="M100 0v780h780v-780h-780zM840 744h-700v-708h700v708z" />
    <glyph glyph-name="blacksmallsquare" unicode="&#x25aa;" horiz-adv-x="730" 
d="M630 530v-530h-530v530h530z" />
    <glyph glyph-name="whitesmallsquare" unicode="&#x25ab;" horiz-adv-x="730" 
d="M100 0v530h530v-530h-530zM590 494h-450v-458h450v458z" />
    <glyph glyph-name="uni25B2" unicode="&#x25b2;" horiz-adv-x="800" 
d="M790 0h-780l390 676z" />
    <glyph glyph-name="uni25B6" unicode="&#x25b6;" horiz-adv-x="800" 
d="M34 0v780l676 -390z" />
    <glyph glyph-name="uni25BC" unicode="&#x25bc;" horiz-adv-x="800" 
d="M10 780h780l-390 -676z" />
    <glyph glyph-name="uni25C0" unicode="&#x25c0;" horiz-adv-x="800" 
d="M710 780v-780l-676 390z" />
    <glyph glyph-name="lozenge" unicode="&#x25ca;" horiz-adv-x="900" 
d="M413 44l360 348l-271 344l-361 -348zM408 -10l-319 400l417 400l319 -400z" />
    <glyph glyph-name="circle" unicode="&#x25cb;" horiz-adv-x="730" 
d="M90 265q0 114 80.5 194.5t194.5 80.5t194.5 -80.5t80.5 -194.5t-80.5 -194.5t-194.5 -80.5t-194.5 80.5t-80.5 194.5z" />
    <glyph glyph-name="blackcircle" unicode="&#x25cf;" horiz-adv-x="980" 
d="M90 390q0 166 117 283t283 117t283 -117t117 -283t-117 -283t-283 -117t-283 117t-117 283z" />
    <glyph glyph-name="uni25E2" unicode="&#x25e2;" horiz-adv-x="800" 
d="M26 202l552 552l202 -754z" />
    <glyph glyph-name="uni25E3" unicode="&#x25e3;" horiz-adv-x="800" 
d="M222 754l552 -552l-754 -202z" />
    <glyph glyph-name="uni25E4" unicode="&#x25e4;" horiz-adv-x="800" 
d="M774 578l-552 -552l-202 754z" />
    <glyph glyph-name="uni25E5" unicode="&#x25e5;" horiz-adv-x="800" 
d="M578 26l-552 552l754 202z" />
    <glyph glyph-name="whitecircle" unicode="&#x25ef;" horiz-adv-x="980" 
d="M90 390q0 166 117 283t283 117t283 -117t117 -283t-117 -283t-283 -117t-283 117t-117 283zM846 390q0 150 -103.5 256t-252.5 106t-252.5 -106t-103.5 -256t103.5 -256t252.5 -106t252.5 106t103.5 256z" />
    <glyph glyph-name="blacksquare" unicode="&#x25fc;" horiz-adv-x="980" 
d="M880 780v-780h-780v780h780z" />
    <glyph glyph-name="uni2600" unicode="&#x2600;" horiz-adv-x="985" 
d="M493 565q112 0 191 -79t79 -191t-79 -190.5t-191 -78.5t-190.5 78.5t-78.5 190.5t78.5 191t190.5 79zM493 89q86 0 146.5 60.5t60.5 145.5t-61 146t-146 61t-145.5 -60.5t-60.5 -146.5q0 -85 60.5 -145.5t145.5 -60.5zM27 345l11 63l160 -29l-11 -62zM960 345l-160 -28
l-11 62l160 29zM883 33l-141 82l32 54l141 -81zM104 33l-32 55l141 81l32 -54zM915 502l-141 -81l-32 54l141 82zM72 502l32 55l141 -82l-32 -54zM217 -84l-49 40l105 125l48 -41zM819 634l-105 -125l-48 41l104 124zM770 -84l-104 124l48 41l105 -125zM168 634l49 40
l104 -124l-48 -41zM462 -174v163h63v-163h-63zM525 764v-163h-63v163h63zM38 183l-11 62l160 28l11 -62zM949 183l-160 28l11 62l160 -28zM624 -156l-56 153l59 21l56 -153zM363 -156l-59 21l56 153l59 -21zM304 725l59 21l56 -152l-59 -22zM683 725l-56 -153l-59 22l56 152
z" />
    <glyph glyph-name="uni2601" unicode="&#x2601;" horiz-adv-x="1350" 
d="M257 637q54 90 146.5 143.5t200.5 53.5q133 0 238.5 -77.5t145.5 -200.5q1 1 3 1q34 8 65 8q112 0 190.5 -79t78.5 -191t-78.5 -190.5t-190.5 -78.5h-721q-129 0 -219.5 91t-90.5 219q0 107 65.5 190.5t166.5 110.5zM917 295q28 65 28 136q0 141 -100 240.5t-241 99.5
q-78 0 -147 -33.5t-116 -91.5q127 -2 215.5 -92.5t88.5 -217.5q0 -15 -2 -41h-64q3 20 3 41q0 103 -72.5 175t-174.5 72q-103 0 -175 -72t-72 -175t72 -175t175 -72h721q86 0 146 60.5t60 145.5q0 86 -60 146.5t-146 60.5q-26 0 -50 -6h-1q-1 -1 -2 -1q5 -35 5 -64
q0 -70 -23 -136h-68z" />
    <glyph glyph-name="uni2602" unicode="&#x2602;" horiz-adv-x="1350" 
d="M257 637q54 90 146.5 143.5t200.5 53.5q133 0 238.5 -77.5t145.5 -200.5q1 1 3 1q34 8 65 8q112 0 190.5 -79t78.5 -191t-78.5 -190.5t-190.5 -78.5h-721q-129 0 -219.5 91t-90.5 219q0 107 65.5 190.5t166.5 110.5zM985 295h-68q28 65 28 136q0 141 -100 240.5
t-241 99.5q-78 0 -147 -33.5t-116 -91.5q127 -2 215.5 -92.5t88.5 -217.5q0 -15 -2 -41h-64q3 20 3 41q0 103 -72.5 175t-174.5 72q-103 0 -175 -72t-72 -175t72 -175t175 -72h721q86 0 146 60.5t60 145.5q0 86 -60 146.5t-146 60.5q-26 0 -50 -6h-1q-1 -1 -2 -1
q5 -35 5 -64q0 -70 -23 -136zM583 -10l-59 -163h-67l59 163h67zM1019 -10l-59 -163h-67l59 163h67zM801 -10l-59 -163h-67l59 163h67zM365 -10l-59 -163h-67l59 163h67z" />
    <glyph glyph-name="uni2603" unicode="&#x2603;" horiz-adv-x="894" 
d="M681 196l138 80l31 -54l-106 -62l125 -72l-32 -54l-122 70v-117h-63v153l-174 101v-198l138 -79l-31 -55l-107 62v-145h-63v142l-101 -59l-31 55l132 76v201l-170 -99v-160h-63v124l-125 -72l-32 54l122 71l-101 58l32 55l132 -77l174 100l-171 99l-138 -80l-32 55
l107 61l-125 72l32 55l122 -71v117h63v-153l173 -100v197l-138 79l32 55l106 -61v144h63v-141l101 58l32 -54l-133 -77v-200l171 98v160h63v-123l125 72l32 -55l-123 -70l101 -59l-31 -54l-133 76l-173 -100z" />
    <glyph glyph-name="uni2605" unicode="&#x2605;" horiz-adv-x="880" 
d="M440 180l-260 -190l99 307l-260 189h322l99 306l99 -306h322l-260 -189l99 -307z" />
    <glyph glyph-name="uni2607" unicode="&#x2607;" horiz-adv-x="1351" 
d="M917 296q28 64 28 135q0 141 -99.5 240.5t-240.5 99.5q-78 0 -147 -33t-117 -91q127 -3 216 -93.5t89 -217.5q0 -22 -3 -40h-63q3 18 3 40q0 103 -72.5 175.5t-175.5 72.5q-102 0 -174.5 -72.5t-72.5 -175.5q0 -102 72.5 -174.5t174.5 -72.5l72 -63h-72q-128 0 -219 91
t-91 219q0 108 65.5 191t167.5 110q53 90 145.5 143.5t201.5 53.5q133 0 238.5 -77.5t144.5 -199.5h4q27 8 64 8q112 0 191 -78.5t79 -190.5t-79 -191t-191 -79l-69 63h69q86 0 146.5 60.5t60.5 146.5q0 85 -60.5 145.5t-146.5 60.5q-25 0 -49 -6h-4q5 -35 5 -65
q0 -71 -23 -135h-68zM670 262h177l-113 -168l75 -68l-225 -225h-6l96 207l-91 81zM870 262h177l-113 -168l75 -68l-225 -225h-6l96 207l-91 81zM647 262l-113 -168l75 -68l-225 -225h-6l96 207l-91 81l87 173h177z" />
    <glyph glyph-name="filledsmallbox" unicode="&#x2612;" horiz-adv-x="730" 
d="M394 265l136 -136l-29 -29l-136 136l-136 -136l-29 29l136 136l-136 136l29 29l136 -136l136 136l29 -29zM100 0v530h530v-530h-530zM590 494h-450v-458h450v458z" />
    <glyph glyph-name="uni2614" unicode="&#x2614;" horiz-adv-x="1350" 
d="M917 295q28 65 28 136q0 140 -100 240t-241 100q-78 0 -147 -33.5t-116 -91.5q127 -2 215.5 -92.5t88.5 -217.5q0 -15 -2 -41h-64q3 20 3 41q0 102 -72.5 174.5t-174.5 72.5q-103 0 -175 -72.5t-72 -174.5q0 -92 59 -161.5t148 -83.5l-22 -60q-107 22 -177.5 107.5
t-70.5 197.5q0 107 65.5 190.5t166.5 109.5q54 91 146 144.5t201 53.5q133 0 238.5 -77.5t145.5 -200.5h1q1 1 2 1q34 8 65 8q112 0 190.5 -79t78.5 -191q0 -106 -72.5 -183.5t-177.5 -85.5l25 67q70 15 116 71.5t46 130.5q0 86 -60.5 146.5t-145.5 60.5q-26 0 -50 -6
q-1 -1 -3 -1q5 -35 5 -64q0 -70 -23 -136h-68zM1056 89l-96 -263h-67l96 263h67zM947 89l-96 -263h-67l96 263h67zM838 89l-96 -263h-67l96 263h67zM729 89l-96 -263h-67l96 263h67zM511 89l-96 -263h-67l96 263h67zM620 89l-96 -263h-67l96 263h67zM402 89l-96 -263h-67
l96 263h67z" />
    <glyph glyph-name="uni263C" unicode="&#x263c;" horiz-adv-x="960" 
d="M880 390l-169 -30l155 -73l-171 15l132 -112l-162 59l98 -141l-141 98l58 -162l-111 130l15 -170l-74 155l-30 -169l-30 169l-74 -155l15 170l-111 -130l58 162l-141 -98l98 141l-162 -59l132 112l-171 -15l155 73l-169 30l169 30l-155 73l171 -15l-132 112l162 -59
l-98 141l141 -98l-58 162l111 -130l-15 170l74 -155l30 169l30 -169l74 155l-15 -170l111 130l-58 -162l141 98l-98 -141l162 59l-132 -112l171 15l-155 -73z" />
    <glyph glyph-name="uni263E" unicode="&#x263e;" horiz-adv-x="960" 
d="M624 728q-134 0 -229 -99t-95 -239t95 -239t229 -99q50 0 96 15q-107 -77 -240 -77q-166 0 -283 117t-117 283t117 283t283 117q131 0 240 -77q-52 15 -96 15z" />
    <glyph glyph-name="uni2660" unicode="&#x2660;" horiz-adv-x="900" 
d="M451 790q32 -48 97 -116t136 -114q78 -51 121 -103t43 -123q0 -73 -51 -123.5t-125 -50.5q-69 0 -120.5 46t-79.5 115l-3 -1q8 -102 26.5 -174t55.5 -146h-202q37 74 55.5 146t26.5 174l-3 1q-28 -69 -79.5 -115t-120.5 -46q-74 0 -125 50.5t-51 123.5q0 71 43 123
t121 103q71 46 136 114t97 116h2z" />
    <glyph glyph-name="uni2663" unicode="&#x2663;" horiz-adv-x="900" 
d="M349 0q37 74 55.5 146t26.5 174l-3 1q-28 -69 -79.5 -115t-120.5 -46q-74 0 -125 50.5t-51 123.5q0 79 48.5 129.5t125.5 50.5q40 0 84 -23l2 2q-38 57 -38 117q0 75 50.5 127.5t125.5 52.5t125.5 -52.5t50.5 -127.5q0 -60 -38 -117l2 -2q44 23 84 23q77 0 125.5 -50.5
t48.5 -129.5q0 -73 -51 -123.5t-125 -50.5q-69 0 -120.5 46t-79.5 115l-3 -1q8 -102 26.5 -174t55.5 -146h-202z" />
    <glyph glyph-name="uni2665" unicode="&#x2665;" horiz-adv-x="900" 
d="M451 -10h-2q-28 43 -94 126.5t-139 166.5q-164 185 -164 301q0 90 52 148t139 58q85 0 132.5 -42.5t72.5 -114.5h4q25 72 72.5 114.5t132.5 42.5q87 0 139 -58t52 -148q0 -116 -164 -301q-73 -83 -139 -166.5t-94 -126.5z" />
    <glyph glyph-name="uni2666" unicode="&#x2666;" horiz-adv-x="900" 
d="M817 390q-106 -83 -202.5 -188.5t-163.5 -211.5h-2q-67 106 -163.5 211.5t-202.5 188.5q106 83 202.5 188.5t163.5 211.5h2q67 -106 163.5 -211.5t202.5 -188.5z" />
    <glyph glyph-name="musicflatsign" unicode="&#x266d;" horiz-adv-x="475" 
d="M73 -33v853h38v-381q20 43 67 73.5t94 30.5q81 0 123 -46.5t42 -132.5q0 -74 -30.5 -141t-82 -116.5t-116 -85.5t-135.5 -54zM111 346v-328q34 12 68.5 28.5t74 46t69.5 64.5t50 86t20 109q0 148 -126 148q-62 0 -108 -50t-48 -104z" />
    <glyph glyph-name="musicnaturalsign" unicode="&#x266e;" horiz-adv-x="378" 
d="M305 657v-707h-36v330l-196 -157v707h36v-330zM109 441v-230l160 128v230z" />
    <glyph glyph-name="musicsharpsign" unicode="&#x266f;" horiz-adv-x="466" 
d="M313 0v280l-160 -128v-252h-36v223l-97 -78v59l97 78v230l-97 -78v59l97 78v309h36v-280l160 128v252h36v-223l97 78v-59l-97 -78v-230l97 78v-59l-97 -78v-309h-36zM153 441v-230l160 128v230z" />
    <glyph glyph-name="uni267B" unicode="&#x267b;" horiz-adv-x="960" 
d="M863 266l1 -2l-96 -167q-15 -22 -21.5 -30t-24 -17t-42.5 -9h-57v-49l-113 136l113 135v-49h145q26 0 50 13t34 26zM186 122h-2l-96 168q-11 21 -15 32t-3 30.5t14 40.5l28 49l-42 24l174 31l59 -166l-41 24q-70 -120 -72 -125q-13 -23 -14 -50t4 -42zM404 779v1h193
q24 -1 36 -2.5t28 -12.5t28 -32l28 -49l43 24l-61 -166l-173 31l41 24l-72 125q-13 23 -36 37.5t-39 16.5zM200 598l67 119q10 17 34 31q46 24 97 10t68 -45l-116 -201zM446 41h-135q-22 0 -44 13q-43 25 -57.5 79.5t4.5 80.5h232v-173zM806 527l69 -117q10 -18 10 -44
q1 -48 -38 -87t-74 -39l-116 201z" />
    <glyph glyph-name="uni267C" unicode="&#x267c;" horiz-adv-x="960" 
d="M880 389q0 -166 -116.5 -282.5t-282.5 -116.5q-167 0 -284 116.5t-117 282.5q0 167 117 284t284 117q166 0 282.5 -117t116.5 -284zM313 645l-52 -92l116 -67l90 156q-13 24 -52.5 34.5t-75.5 -7.5q-18 -11 -26 -24zM415 694v-1q48 -5 71 -44l56 -97l-32 -19l134 -24
l47 129l-33 -19l-22 38q-14 24 -29.5 30.5t-41.5 6.5h-150zM343 121h105v134h-180q-15 -20 -3.5 -62.5t44.5 -61.5q17 -10 34 -10zM249 184h1q-20 44 3 84l56 97l32 -19l-46 129l-135 -24l33 -19l-22 -38q-10 -16 -11 -31.5t2 -23.5t12 -25zM784 407l-53 91l-116 -67
l90 -156q27 0 57.5 30t29.5 68q0 20 -8 34zM776 294l-1 1q-3 -4 -9 -11t-25.5 -18t-39.5 -11h-112v38l-88 -105l88 -105v38h44q28 0 41.5 10.5t26.5 32.5z" />
    <glyph glyph-name="uni267D" unicode="&#x267d;" horiz-adv-x="960" 
d="M880 389q0 -166 -116.5 -282.5t-282.5 -116.5q-167 0 -284 116.5t-117 282.5q0 167 117 284t284 117q166 0 282.5 -117t116.5 -284zM860 389q0 158 -111 269.5t-268 111.5q-158 0 -269.5 -111.5t-111.5 -269.5q0 -157 111.5 -268t269.5 -111q157 0 268 111t111 268z
M261 553l52 92q8 13 26 24q36 18 75.5 7.5t52.5 -34.5l-90 -156zM415 693v1h150q26 0 41.5 -6.5t29.5 -30.5l22 -38l33 19l-47 -129l-134 24l32 19l-56 97q-10 17 -28 28t-30 13zM448 121h-105q-17 0 -34 10q-33 19 -44.5 61.5t3.5 62.5h180v-134zM250 184h-1l-75 130
q-9 17 -12 25t-2 23.5t11 31.5l22 38l-33 19l135 24l46 -129l-32 19l-56 -97q-10 -18 -11 -39t4 -33zM731 498l53 -91q8 -14 8 -34q1 -38 -29.5 -68t-57.5 -30l-90 156zM775 295l1 -1l-75 -130q-9 -15 -15 -22.5t-20 -14t-33 -6.5h-44v-38l-88 105l88 105v-38h112
q20 0 38.5 10t26.5 20z" />
    <glyph glyph-name="anglebracketleft" unicode="&#x3008;" horiz-adv-x="240" 
d="M80 348l58 -478h-35l-61 480l178 480h37z" />
    <glyph glyph-name="anglebracketright" unicode="&#x3009;" horiz-adv-x="240" 
d="M164 352l-58 478h35l61 -480l-178 -480h-37z" />
    <glyph glyph-name="Adoublegrave" unicode="&#xf000;" horiz-adv-x="720" 
d="M598 0l-67 265h-356l-131 -265h-45l396 790h42l204 -790h-43zM412 744l-114 -231l-106 -212h329l-53 212zM400 1030h47l68 -208h-35zM260 1030h47l68 -208h-35z" />
    <glyph glyph-name="Anocross" unicode="&#xf001;" horiz-adv-x="720" 
d="M298 513l-254 -513h-45l396 790h42l204 -790h-43l-130 513l-56 231z" />
    <glyph glyph-name="Edoublegrave" unicode="&#xf002;" horiz-adv-x="715" 
d="M155 780h520l-4 -36h-480l-40 -326h440l-5 -36h-440l-42 -346h500l-4 -36h-540zM410 1030h47l68 -208h-35zM270 1030h47l68 -208h-35z" />
    <glyph glyph-name="Gtilde" unicode="&#xf003;" horiz-adv-x="789" 
d="M363 26q169 0 262 70l32 258h-200l4 36h240l-38 -312q-126 -88 -298 -88q-294 0 -294 308q0 140 40.5 248.5t129 176t215.5 67.5q244 0 266 -191l-41 -19q-11 174 -222 174q-88 0 -155 -34.5t-108.5 -97t-62 -143.5t-20.5 -179q0 -270 250 -274zM638 970l28 -5
q-10 -40 -41.5 -64.5t-71.5 -24.5q-34 0 -61 18t-51 36t-51 18q-62 0 -80 -63l-27 5q10 40 41.5 64.5t70.5 24.5q42 0 87 -36t77 -36q28 0 49.5 16t29.5 47z" />
    <glyph glyph-name="Hcaron" unicode="&#xf004;" horiz-adv-x="750" 
d="M665 780h40l-95 -780h-40l46 382h-470l-46 -382h-40l95 780h40l-44 -362h470zM286 1030h36l115 -175l159 175h40l-179 -208h-44z" />
    <glyph glyph-name="Idoublegrave" unicode="&#xf005;" horiz-adv-x="280" 
d="M215 780l-95 -780h-40l95 780h40zM180 1030h47l68 -208h-35zM40 1030h47l68 -208h-35z" />
    <glyph glyph-name="Kcedilla" unicode="&#xf006;" horiz-adv-x="700" 
d="M195 780l-58 -477l500 477h53l-371 -351l304 -429h-50l-283 401l-160 -151l-30 -250h-40l95 780h40zM251 -68l14 29q125 -10 125 -79q0 -45 -34 -68.5t-86 -23.5q-49 0 -77 17l13 29q1 -1 9 -5t24 -7.5t32 -3.5q84 0 84 57q0 7 -2 13.5t-6.5 11l-8.5 8.5t-12.5 7
t-13.5 4.5t-15.5 3.5t-15 3t-16 2.5t-14.5 1.5z" />
    <glyph glyph-name="Lcedilla" unicode="&#xf007;" horiz-adv-x="605" 
d="M195 780l-91 -744h440l-4 -36h-480l95 780h40zM255 -68l14 29q125 -10 125 -79q0 -45 -34 -68.5t-86 -23.5q-49 0 -77 17l13 29q0 -1 8.5 -4.5t24.5 -7.5t32 -4q84 0 84 57q0 7 -2 13.5t-6.5 11l-8.5 8.5t-12.5 7t-13.5 4.5t-15.5 3.5t-15 3t-16 2.5t-14.5 1.5z" />
    <glyph glyph-name="Ngrave" unicode="&#xf008;" horiz-adv-x="761" 
d="M343 1030h47l68 -208h-35zM573 0l-290 544l-98 188l-30 -272l-56 -460h-39l95 780h48l289 -544l98 -188l31 272l56 460h39l-95 -780h-48z" />
    <glyph glyph-name="Ncedilla" unicode="&#xf009;" horiz-adv-x="761" 
d="M573 0l-290 544l-98 188l-30 -272l-56 -460h-39l95 780h48l289 -544l98 -188l31 272l56 460h39l-95 -780h-48zM285 -68l14 29q125 -10 125 -79q0 -45 -34 -68.5t-86 -23.5q-49 0 -77 17l13 29q1 -1 9 -5t24 -7.5t32 -3.5q84 0 84 57q0 7 -2 13.5t-6.5 11l-8.5 8.5
t-12.5 7t-13.5 4.5t-15.5 3.5t-15 3t-16 2.5t-14.5 1.5z" />
    <glyph glyph-name="Odoublegrave" unicode="&#xf010;" horiz-adv-x="800" 
d="M358 -10q-148 0 -217.5 82t-69.5 227q0 100 22.5 186.5t67.5 155.5t121 109t174 40q148 0 217.5 -81t69.5 -226q0 -143 -40 -251.5t-128.5 -175t-216.5 -66.5zM452 754q-89 0 -156.5 -38t-106 -103t-57.5 -143t-19 -167q0 -277 250 -277q87 0 154 36t106 99.5t58.5 143
t19.5 173.5q0 276 -249 276zM440 1030h47l68 -208h-35zM300 1030h47l68 -208h-35z" />
    <glyph glyph-name="Ounderlineaccent" unicode="&#xf011;" horiz-adv-x="800" 
d="M358 -10q-148 0 -217.5 82t-69.5 227q0 100 22.5 186.5t67.5 155.5t121 109t174 40q148 0 217.5 -81t69.5 -226q0 -143 -40 -251.5t-128.5 -175t-216.5 -66.5zM452 754q-89 0 -156.5 -38t-106 -103t-57.5 -143t-19 -167q0 -277 250 -277q87 0 154 36t106 99.5t58.5 143
t19.5 173.5q0 276 -249 276zM352 -200h-34l20 160h34z" />
    <glyph glyph-name="Rdoublegrave" unicode="&#xf012;" horiz-adv-x="710" 
d="M577 0l-167 348h-268l-42 -348h-40l95 780h321q39 0 69 -6.5t58.5 -23t44 -51.5t15.5 -86q0 -122 -60.5 -193t-149.5 -71l170 -349h-46zM191 744l-44 -360h297q75 0 127 53.5t52 169.5q0 34 -8.5 59.5t-21 40t-31.5 23t-37 11.5t-40 3h-294zM376 1030h47l68 -208h-35z
M236 1030h47l68 -208h-35z" />
    <glyph glyph-name="Rcedilla" unicode="&#xf013;" horiz-adv-x="710" 
d="M577 0l-167 348h-268l-42 -348h-40l95 780h321q39 0 69 -6.5t58.5 -23t44 -51.5t15.5 -86q0 -122 -60.5 -193t-149.5 -71l170 -349h-46zM191 744l-44 -360h297q75 0 127 53.5t52 169.5q0 34 -8.5 59.5t-21 40t-31.5 23t-37 11.5t-40 3h-294zM265 -68l14 29
q125 -10 125 -79q0 -45 -34 -68.5t-86 -23.5q-49 0 -77 17l13 29q0 -1 8.5 -4.5t24.5 -7.5t32 -4q84 0 84 57q0 7 -2 13.5t-6.5 11l-8.5 8.5t-12.5 7t-13.5 4.5t-15.5 3.5t-15 3t-16 2.5t-14.5 1.5z" />
    <glyph glyph-name="Udoublegrave" unicode="&#xf014;" horiz-adv-x="784" 
d="M350 -10q-165 0 -227.5 69t-46.5 200l64 521h41l-65 -528q-13 -109 40 -167t199 -58t213 58t80 167l65 528h41l-64 -521q-16 -131 -95.5 -200t-244.5 -69zM432 1030h47l68 -208h-35zM292 1030h47l68 -208h-35z" />
    <glyph glyph-name="UE" unicode="&#xf015;" horiz-adv-x="1233" 
d="M673 780h520l-4 -36h-480l-40 -326h440l-5 -36h-440l-42 -346h500l-4 -36h-766q-166 0 -228.5 69.5t-45.5 199.5l62 511h41l-63 -518q-14 -109 39 -167.5t199 -58.5h226z" />
    <glyph glyph-name="Ymacron" unicode="&#xf016;" horiz-adv-x="670" 
d="M75 780h47l132 -262l82 -164l122 164l196 262h51l-352 -463l-38 -317h-40l38 317zM273 927l4 32h272l-4 -32h-272z" />
    <glyph glyph-name="Yoghcaron" unicode="&#xf017;" horiz-adv-x="710" 
d="M11 -19l39 19h1q2 -174 228 -174q145 2 231.5 81.5t86.5 236.5q0 110 -63.5 158t-188.5 48q-14 0 -29 -2.5t-24 -5.5l-8 -2l-14 21l355 384h-488l4 35h532l-5 -39l-331 -357q12 1 25 1q126 0 201.5 -56.5t75.5 -183.5q0 -169 -102.5 -262t-261.5 -93q-129 0 -193 51.5
t-71 139.5zM253 1030h36l115 -175l159 175h40l-179 -208h-44z" />
    <glyph glyph-name="adoublegrave" unicode="&#xf018;" horiz-adv-x="591" 
d="M295 800h47l68 -208h-35zM155 800h47l68 -208h-35zM522 422l-38 -314l-8 -108h-30l-1 100q-33 -51 -91 -80.5t-115 -29.5q-91 0 -140.5 59t-49.5 162q0 145 72.5 237t185.5 92q57 0 107.5 -29.5t70.5 -80.5l26 100h30zM452 158l26 214q-13 52 -54 92.5t-119 40.5
q-93 0 -153.5 -80.5t-60.5 -210.5q0 -88 40.5 -138.5t114.5 -50.5q78 0 128.5 40t77.5 93z" />
    <glyph glyph-name="a.hist" unicode="&#xf019;" horiz-adv-x="590" 
d="M522 422l-38 -314l-8 -108h-30l-1 100q-33 -51 -91 -80.5t-115 -29.5q-91 0 -140.5 59t-49.5 162q0 145 72.5 237t185.5 92q57 0 107.5 -29.5t70.5 -80.5l26 100h30zM452 158l26 214q-13 52 -54 92.5t-119 40.5q-93 0 -153.5 -80.5t-60.5 -210.5q0 -88 40.5 -138.5
t114.5 -50.5q78 0 128.5 40t77.5 93z" />
    <glyph glyph-name="aacute.hist" unicode="&#xf020;" horiz-adv-x="590" 
d="M415 800h47l-132 -208h-35zM522 422l-38 -314l-8 -108h-30l-1 100q-33 -51 -91 -80.5t-115 -29.5q-91 0 -140.5 59t-49.5 162q0 145 72.5 237t185.5 92q57 0 107.5 -29.5t70.5 -80.5l26 100h30zM452 158l26 214q-13 52 -54 92.5t-119 40.5q-93 0 -153.5 -80.5
t-60.5 -210.5q0 -88 40.5 -138.5t114.5 -50.5q78 0 128.5 40t77.5 93z" />
    <glyph glyph-name="agrave.hist" unicode="&#xf021;" horiz-adv-x="590" 
d="M216 800h47l68 -208h-35zM522 422l-38 -314l-8 -108h-30l-1 100q-33 -51 -91 -80.5t-115 -29.5q-91 0 -140.5 59t-49.5 162q0 145 72.5 237t185.5 92q57 0 107.5 -29.5t70.5 -80.5l26 100h30zM452 158l26 214q-13 52 -54 92.5t-119 40.5q-93 0 -153.5 -80.5t-60.5 -210.5
q0 -88 40.5 -138.5t114.5 -50.5q78 0 128.5 40t77.5 93z" />
    <glyph glyph-name="acircumflex.hist" unicode="&#xf022;" horiz-adv-x="590" 
d="M522 422l-38 -314l-8 -108h-30l-1 100q-33 -51 -91 -80.5t-115 -29.5q-91 0 -140.5 59t-49.5 162q0 145 72.5 237t185.5 92q57 0 107.5 -29.5t70.5 -80.5l26 100h30zM452 158l26 214q-13 52 -54 92.5t-119 40.5q-93 0 -153.5 -80.5t-60.5 -210.5q0 -88 40.5 -138.5
t114.5 -50.5q78 0 128.5 40t77.5 93zM488 592h-36l-115 175l-159 -175h-40l179 208h44z" />
    <glyph glyph-name="adieresis.hist" unicode="&#xf023;" horiz-adv-x="590" 
d="M267 743l-8 -60h-60l8 60h60zM458 743l-8 -60h-60l8 60h60zM522 422l-38 -314l-8 -108h-30l-1 100q-33 -51 -91 -80.5t-115 -29.5q-91 0 -140.5 59t-49.5 162q0 145 72.5 237t185.5 92q57 0 107.5 -29.5t70.5 -80.5l26 100h30zM452 158l26 214q-13 52 -54 92.5t-119 40.5
q-93 0 -153.5 -80.5t-60.5 -210.5q0 -88 40.5 -138.5t114.5 -50.5q78 0 128.5 40t77.5 93z" />
    <glyph glyph-name="atilde.hist" unicode="&#xf024;" horiz-adv-x="590" 
d="M522 422l-38 -314l-8 -108h-30l-1 100q-33 -51 -91 -80.5t-115 -29.5q-91 0 -140.5 59t-49.5 162q0 145 72.5 237t185.5 92q57 0 107.5 -29.5t70.5 -80.5l26 100h30zM452 158l26 214q-13 52 -54 92.5t-119 40.5q-93 0 -153.5 -80.5t-60.5 -210.5q0 -88 40.5 -138.5
t114.5 -50.5q78 0 128.5 40t77.5 93zM497 740l28 -5q-10 -40 -41.5 -64.5t-71.5 -24.5q-34 0 -61 18t-51 36t-51 18q-62 0 -80 -63l-27 5q10 40 41.5 64.5t70.5 24.5q42 0 87 -36t77 -36q28 0 49.5 16t29.5 47z" />
    <glyph glyph-name="aring.hist" unicode="&#xf025;" horiz-adv-x="590" 
d="M312 582q-48 0 -74.5 26t-26.5 70q0 57 35.5 94.5t93.5 37.5q48 0 74.5 -26t26.5 -70q0 -57 -35.5 -94.5t-93.5 -37.5zM337 782q-44 0 -69.5 -28t-25.5 -73q0 -71 73 -71q44 0 69.5 28t25.5 73q0 71 -73 71zM522 422l-38 -314l-8 -108h-30l-1 100q-33 -51 -91 -80.5
t-115 -29.5q-91 0 -140.5 59t-49.5 162q0 145 72.5 237t185.5 92q57 0 107.5 -29.5t70.5 -80.5l26 100h30zM452 158l26 214q-13 52 -54 92.5t-119 40.5q-93 0 -153.5 -80.5t-60.5 -210.5q0 -88 40.5 -138.5t114.5 -50.5q78 0 128.5 40t77.5 93z" />
    <glyph glyph-name="acaron.hist" unicode="&#xf026;" horiz-adv-x="591" 
d="M166 800h36l115 -175l159 175h40l-179 -208h-44zM522 422l-38 -314l-8 -108h-30l-1 100q-33 -51 -91 -80.5t-115 -29.5q-91 0 -140.5 59t-49.5 162q0 145 72.5 237t185.5 92q57 0 107.5 -29.5t70.5 -80.5l26 100h30zM452 158l26 214q-13 52 -54 92.5t-119 40.5
q-93 0 -153.5 -80.5t-60.5 -210.5q0 -88 40.5 -138.5t114.5 -50.5q78 0 128.5 40t77.5 93z" />
    <glyph glyph-name="amacron.hist" unicode="&#xf027;" horiz-adv-x="590" 
d="M190 697l4 32h272l-4 -32h-272zM522 422l-38 -314l-8 -108h-30l-1 100q-33 -51 -91 -80.5t-115 -29.5q-91 0 -140.5 59t-49.5 162q0 145 72.5 237t185.5 92q57 0 107.5 -29.5t70.5 -80.5l26 100h30zM452 158l26 214q-13 52 -54 92.5t-119 40.5q-93 0 -153.5 -80.5
t-60.5 -210.5q0 -88 40.5 -138.5t114.5 -50.5q78 0 128.5 40t77.5 93z" />
    <glyph glyph-name="abreve.hist" unicode="&#xf028;" horiz-adv-x="590" 
d="M522 422l-38 -314l-8 -108h-30l-1 100q-33 -51 -91 -80.5t-115 -29.5q-91 0 -140.5 59t-49.5 162q0 145 72.5 237t185.5 92q57 0 107.5 -29.5t70.5 -80.5l26 100h30zM452 158l26 214q-13 52 -54 92.5t-119 40.5q-93 0 -153.5 -80.5t-60.5 -210.5q0 -88 40.5 -138.5
t114.5 -50.5q78 0 128.5 40t77.5 93zM486 800h31q-13 -99 -60 -148.5t-143 -49.5t-131 49.5t-22 148.5h29q-11 -89 19 -128t108 -39t118 39t51 128z" />
    <glyph glyph-name="ainvertedbreve.hist" unicode="&#xf029;" horiz-adv-x="591" 
d="M522 422l-38 -314l-8 -108h-30l-1 100q-33 -51 -91 -80.5t-115 -29.5q-91 0 -140.5 59t-49.5 162q0 145 72.5 237t185.5 92q57 0 107.5 -29.5t70.5 -80.5l26 100h30zM452 158l26 214q-13 52 -54 92.5t-119 40.5q-93 0 -153.5 -80.5t-60.5 -210.5q0 -88 40.5 -138.5
t114.5 -50.5q78 0 128.5 40t77.5 93zM168 592h-31q13 99 60 148.5t143 49.5t131 -49.5t22 -148.5h-29q11 89 -19 128t-108 39t-118 -39t-51 -128z" />
    <glyph glyph-name="adoublegrave.hist" unicode="&#xf030;" horiz-adv-x="591" 
d="M295 800h47l68 -208h-35zM155 800h47l68 -208h-35zM522 422l-38 -314l-8 -108h-30l-1 100q-33 -51 -91 -80.5t-115 -29.5q-91 0 -140.5 59t-49.5 162q0 145 72.5 237t185.5 92q57 0 107.5 -29.5t70.5 -80.5l26 100h30zM452 158l26 214q-13 52 -54 92.5t-119 40.5
q-93 0 -153.5 -80.5t-60.5 -210.5q0 -88 40.5 -138.5t114.5 -50.5q78 0 128.5 40t77.5 93z" />
    <glyph glyph-name="aringacute.hist" unicode="&#xf031;" horiz-adv-x="590" 
d="M236 760l98 144h42l-75 -99q20 5 39 5q48 0 74.5 -26t26.5 -70q0 -57 -35.5 -94.5t-93.5 -37.5q-48 0 -74.5 26t-26.5 70q0 45 25 82zM522 422l-38 -314l-8 -108h-30l-1 100q-33 -51 -91 -80.5t-115 -29.5q-91 0 -140.5 59t-49.5 162q0 145 72.5 237t185.5 92
q57 0 107.5 -29.5t70.5 -80.5l26 100h30zM452 158l26 214q-13 52 -54 92.5t-119 40.5q-93 0 -153.5 -80.5t-60.5 -210.5q0 -88 40.5 -138.5t114.5 -50.5q78 0 128.5 40t77.5 93zM337 782q-44 0 -69.5 -28t-25.5 -73q0 -71 73 -71q44 0 69.5 28t25.5 73q0 71 -73 71z" />
    <glyph glyph-name="aogonek.hist" unicode="&#xf032;" horiz-adv-x="590" 
d="M522 422l-38 -314l-8 -108q-63 -10 -116.5 -45t-53.5 -87q0 -48 64 -48q22 0 44 6t33.5 12t11.5 7l7 -26q-46 -29 -105 -29q-39 0 -65 18.5t-26 55.5q0 55 49 95.5t127 59.5l-1 81q-33 -51 -91 -80.5t-115 -29.5q-91 0 -140.5 59t-49.5 162q0 145 72.5 237t185.5 92
q57 0 107.5 -29.5t70.5 -80.5l26 100h30zM452 158l26 214q-13 52 -54 92.5t-119 40.5q-93 0 -153.5 -80.5t-60.5 -210.5q0 -88 40.5 -138.5t114.5 -50.5q78 0 128.5 40t77.5 93z" />
    <glyph glyph-name="edoublegrave" unicode="&#xf033;" horiz-adv-x="579" 
d="M308 800h47l68 -208h-35zM168 800h47l68 -208h-35zM504 251h-413q-1 -10 -1 -30q0 -90 46 -143t123 -53q145 0 180 108l37 -18q-23 -58 -79.5 -91.5t-142.5 -33.5q-95 0 -150 61.5t-55 165.5q0 141 78.5 232t194.5 91q189 0 189 -203q0 -30 -7 -86zM318 505
q-82 0 -143 -60t-80 -160h370q4 40 4 57q0 79 -35.5 121t-115.5 42z" />
    <glyph glyph-name="gtilde" unicode="&#xf034;" horiz-adv-x="590" 
d="M522 422l-55 -452q-11 -87 -77.5 -133.5t-174.5 -46.5q-168 0 -187 126l39 18q10 -112 152 -112q86 0 143 35t66 108l19 150q-33 -51 -91 -78t-117 -27q-92 0 -142 56t-50 156q0 145 72 231.5t185 86.5q58 0 109.5 -29.5t71.5 -80.5l26 100h30zM454 173l24 199
q-13 51 -55.5 92t-120.5 41q-94 0 -153.5 -75t-59.5 -205q0 -86 41 -133t115 -47q79 0 131 38.5t78 89.5zM497 740l28 -5q-10 -40 -41.5 -64.5t-71.5 -24.5q-34 0 -61 18t-51 36t-51 18q-62 0 -80 -63l-27 5q10 40 41.5 64.5t70.5 24.5q42 0 87 -36t77 -36q28 0 49.5 16
t29.5 47z" />
    <glyph glyph-name="hcaron" unicode="&#xf035;" horiz-adv-x="566" 
d="M10 1030h36l115 -175l159 175h40l-179 -208h-44zM176 800l-46 -370q31 48 88.5 79t120.5 31q79 0 125.5 -42t37.5 -114l-47 -384h-38l45 369q8 65 -29.5 100.5t-107.5 35.5q-71 0 -123.5 -41t-78.5 -91l-45 -373h-38l98 800h38z" />
    <glyph glyph-name="idoublegrave" unicode="&#xf036;" horiz-adv-x="236" 
d="M59 0l65 530h38l-65 -530h-38zM130 800h47l68 -208h-35zM-10 800h47l68 -208h-35z" />
    <glyph glyph-name="idotaccent" unicode="&#xf037;" horiz-adv-x="236" 
d="M59 0l65 530h38l-65 -530h-38zM199 743l-8 -60h-60l8 60h60z" />
    <glyph glyph-name="kcedilla" unicode="&#xf038;" horiz-adv-x="531" 
d="M78 0h-38l98 800h38l-70 -566l139 125l195 171h55l-257 -224l230 -306h-51l-208 282l-109 -96zM173 -68l14 29q125 -10 125 -79q0 -45 -34 -68.5t-86 -23.5q-49 0 -77 17l13 29q1 -1 9 -5t24 -7.5t32 -3.5q84 0 84 57q0 7 -2 13.5t-6.5 11l-8.5 8.5t-12.5 7t-13.5 4.5
t-15.5 3.5t-15 3t-16 2.5t-14.5 1.5z" />
    <glyph glyph-name="lcedilla" unicode="&#xf039;" horiz-adv-x="242" 
d="M62 0l98 800h38l-98 -800h-38zM31 -68l14 29q125 -10 125 -79q0 -45 -34 -68.5t-86 -23.5q-49 0 -77 17l13 29q0 -1 8.5 -4.5t24.5 -7.5t32 -4q84 0 84 57q0 7 -2 13.5t-6.5 11l-8.5 8.5t-12.5 7t-13.5 4.5t-15.5 3.5t-15 3t-16 2.5t-14.5 1.5z" />
    <glyph glyph-name="ngrave" unicode="&#xf040;" horiz-adv-x="565" 
d="M228 800h47l68 -208h-35zM129 530v-100q31 48 88.5 79t120.5 31q79 0 125.5 -42t37.5 -114l-47 -384h-38l45 369q8 65 -29.5 100.5t-107.5 35.5q-71 0 -123.5 -41t-78.5 -91l-45 -373h-38l51 422l9 108h30z" />
    <glyph glyph-name="ncedilla" unicode="&#xf041;" horiz-adv-x="565" 
d="M129 530v-100q31 48 88.5 79t120.5 31q79 0 125.5 -42t37.5 -114l-47 -384h-38l45 369q8 65 -29.5 100.5t-107.5 35.5q-71 0 -123.5 -41t-78.5 -91l-45 -373h-38l51 422l9 108h30zM198 -68l14 29q125 -10 125 -79q0 -45 -34 -68.5t-86 -23.5q-49 0 -77 17l13 29
q1 -1 9 -5t24 -7.5t32 -3.5q84 0 84 57q0 7 -2 13.5t-6.5 11l-8.5 8.5t-12.5 7t-13.5 4.5t-15.5 3.5t-15 3t-16 2.5t-14.5 1.5z" />
    <glyph glyph-name="odoublegrave" unicode="&#xf042;" horiz-adv-x="592" 
d="M308 800h47l68 -208h-35zM168 800h47l68 -208h-35zM318 505q-105 0 -166 -82.5t-61 -210.5q0 -90 43 -138.5t125 -48.5q105 0 166 83t61 211q0 90 -43 138t-125 48zM254 -10q-99 0 -152 57.5t-53 162.5q0 145 74 237.5t199 92.5q99 0 152.5 -57.5t53.5 -161.5
q0 -145 -74.5 -238t-199.5 -93z" />
    <glyph glyph-name="ounderlineaccent" unicode="&#xf043;" horiz-adv-x="592" 
d="M248 -200h-34l20 160h34zM318 505q-105 0 -166 -82.5t-61 -210.5q0 -90 43 -138.5t125 -48.5q105 0 166 83t61 211q0 90 -43 138t-125 48zM254 -10q-99 0 -152 57.5t-53 162.5q0 145 74 237.5t199 92.5q99 0 152.5 -57.5t53.5 -161.5q0 -145 -74.5 -238t-199.5 -93z" />
    <glyph glyph-name="rdoublegrave" unicode="&#xf044;" horiz-adv-x="375" 
d="M333 540q27 0 43 -4l-10 -40q-23 5 -38 5q-82 0 -141 -51.5t-69 -112.5l-41 -337h-38l51 422l9 108h30v-110q31 55 89 87.5t115 32.5zM222 800h47l68 -208h-35zM82 800h47l68 -208h-35z" />
    <glyph glyph-name="rcedilla" unicode="&#xf045;" horiz-adv-x="375" 
d="M333 540q27 0 43 -4l-10 -40q-23 5 -38 5q-82 0 -141 -51.5t-69 -112.5l-41 -337h-38l51 422l9 108h30v-110q31 55 89 87.5t115 32.5zM8 -68l14 29q125 -10 125 -79q0 -45 -34 -68.5t-86 -23.5q-49 0 -77 17l13 29q2 -2 10 -5.5t23.5 -7t31.5 -3.5q84 0 84 57
q0 7 -2 13.5t-6.5 11l-8.5 8.5t-12.5 7t-13.5 4.5t-15.5 3.5t-15 3t-16 2.5t-14.5 1.5z" />
    <glyph glyph-name="udoublegrave" unicode="&#xf046;" horiz-adv-x="565" 
d="M291 800h47l68 -208h-35zM151 800h47l68 -208h-35zM421 0l-1 100q-31 -48 -88.5 -79t-120.5 -31q-79 0 -125.5 42t-37.5 114l48 384h38l-46 -369q-8 -65 30 -100.5t108 -35.5q71 0 123 41t78 91l46 373h38l-52 -422l-8 -108h-30z" />
    <glyph glyph-name="ue" unicode="&#xf047;" horiz-adv-x="963" 
d="M638 -10q-72 0 -121.5 35.5t-70.5 100.5q-44 -70 -108 -103t-131 -33q-79 0 -125.5 42t-37.5 114l48 384h38l-46 -369q-8 -65 30 -100.5t108 -35.5q72 0 127.5 43t85.5 107q-2 12 -2 38q0 143 78 235t195 92q189 0 189 -203q0 -30 -7 -86h-413q-1 -10 -1 -30
q0 -90 46 -143t123 -53q145 0 180 108l37 -18q-23 -58 -79.5 -91.5t-142.5 -33.5zM702 505q-82 0 -143 -60t-80 -160h370q4 40 4 57q0 79 -35.5 121t-115.5 42z" />
    <glyph glyph-name="ymacron" unicode="&#xf048;" horiz-adv-x="512" 
d="M165 697l4 32h272l-4 -32h-272zM509 530l-257 -483l-129 -247h-43l117 221l-144 509h43l78 -284l48 -183l93 183l149 284h45z" />
    <glyph glyph-name="yoghcaron" unicode="&#xf049;" horiz-adv-x="535" 
d="M196 -175q96 0 157 60.5t61 161.5q0 75 -43.5 115.5t-118.5 42.5q-76 0 -110 -21l-20 27l201 178l124 107h-349l5 34h391l-5 -35l-293 -260q23 6 61 6q85 0 141 -50.5t56 -141.5q0 -63 -23 -114t-61 -81.5t-84 -47t-94 -16.5q-91 0 -142 37t-55 100l42 6q5 -51 45 -79.5
t114 -28.5zM147 800h36l115 -175l159 175h40l-179 -208h-44z" />
    <glyph glyph-name="cordinal" unicode="&#xf050;" horiz-adv-x="460" 
d="M293 756q-76 0 -120 -56.5t-44 -150.5q0 -65 30.5 -100t88.5 -35q105 0 135 92l35 -17q-43 -109 -173 -109q-74 0 -114.5 42.5t-40.5 121.5q0 114 57 180t148 66q131 0 146 -108l-39 -18q-8 92 -109 92z" />
    <glyph glyph-name="a.superior" unicode="&#xf051;" horiz-adv-x="431" 
d="M369 461l-5 -73h-29v60q-20 -30 -54.5 -48t-70.5 -18q-60 0 -92 36.5t-32 101.5q0 94 46.5 151.5t120.5 57.5q36 0 65.5 -18t42.5 -49l15 60h29l-13 -73zM250 698q-58 0 -93.5 -50t-35.5 -124q0 -53 24.5 -82t69.5 -29q49 0 82 27.5t44 61.5l13 106q-2 34 -28.5 62
t-75.5 28z" />
    <glyph glyph-name="b.superior" unicode="&#xf052;" horiz-adv-x="431" 
d="M179 893l-28 -231q21 31 55 49t70 18q60 0 92.5 -37t32.5 -103q0 -93 -47 -150t-121 -57q-36 0 -65 18t-43 48l-16 -60h-28l12 73l53 432h33zM236 413q58 0 93.5 49.5t35.5 123.5q0 53 -24.5 82.5t-69.5 29.5q-49 0 -82.5 -28t-44.5 -62l-13 -106q2 -34 29 -61.5
t76 -27.5z" />
    <glyph glyph-name="c.superior" unicode="&#xf053;" horiz-adv-x="400" 
d="M258 698q-61 0 -99 -48.5t-38 -123.5q0 -53 26 -83.5t72 -30.5q84 0 106 66l31 -16q-33 -80 -141 -80q-61 0 -95 37t-34 103q0 93 48.5 150t123.5 57q106 0 121 -81l-35 -16q-6 66 -86 66z" />
    <glyph glyph-name="d.superior" unicode="&#xf054;" horiz-adv-x="431" 
d="M361 662l28 231h33l-53 -432l-5 -73h-29v60q-20 -30 -54.5 -48t-70.5 -18q-60 0 -92 36.5t-32 101.5q0 94 46.5 151.5t120.5 57.5q36 0 65.5 -18t42.5 -49zM250 698q-58 0 -93.5 -50t-35.5 -124q0 -53 24.5 -82t69.5 -29q49 0 82 27.5t44 61.5l13 106q-2 34 -28.5 62
t-75.5 28z" />
    <glyph glyph-name="e.superior" unicode="&#xf055;" horiz-adv-x="415" 
d="M259 729q122 0 122 -131q0 -20 -5 -55h-255q0 -3 -0.5 -9t-0.5 -9q0 -54 27 -83.5t74 -29.5q85 0 107 66l31 -16q-35 -80 -143 -80q-61 0 -95.5 36.5t-34.5 102.5q0 97 48.5 152.5t124.5 55.5zM255 698q-49 0 -84.5 -32.5t-45.5 -93.5h218q2 20 2 29q0 97 -90 97z" />
    <glyph glyph-name="f.superior" unicode="&#xf056;" horiz-adv-x="260" 
d="M81 692l4 30h67l6 46q4 30 10 50t18.5 40.5t37 30.5t60.5 10q23 0 35 -5l-9 -32q-12 6 -30 6q-41 0 -61 -18.5t-27 -73.5l-7 -54h97l-4 -30h-97l-52 -430h-33l52 430h-67z" />
    <glyph glyph-name="g.superior" unicode="&#xf057;" horiz-adv-x="430" 
d="M197 284q116 2 127 86l11 89q-20 -30 -54.5 -47.5t-70.5 -17.5q-60 0 -93 34t-33 98q0 95 46 149t121 54q36 0 66 -18.5t43 -48.5l15 60h29l-13 -73l-34 -276q-7 -56 -50 -87t-113 -31q-113 0 -124 82l35 16q2 -34 23 -51.5t69 -17.5zM248 698q-59 0 -93.5 -46.5
t-34.5 -119.5q0 -52 25 -79.5t70 -27.5q49 0 82.5 27.5t44.5 61.5l11 94q-2 33 -29 61.5t-76 28.5z" />
    <glyph glyph-name="h.superior" unicode="&#xf058;" horiz-adv-x="422" 
d="M87 388l62 505h33l-28 -231q21 30 54.5 48.5t72.5 18.5q52 0 82 -27.5t24 -75.5l-29 -238h-33l28 228q5 39 -18 60.5t-65 21.5q-44 0 -78 -28.5t-45 -61.5l-27 -220h-33z" />
    <glyph glyph-name="i.superior" unicode="&#xf059;" horiz-adv-x="222" 
d="M199 856l-6 -46h-46l6 46h46zM101 388l41 334h33l-41 -334h-33z" />
    <glyph glyph-name="j.superior" unicode="&#xf060;" horiz-adv-x="222" 
d="M13 287q41 0 61 18.5t26 73.5l42 343h33l-41 -335q-8 -64 -33 -98t-92 -34q-25 0 -35 6l8 32q15 -6 31 -6zM199 856l-6 -46h-46l6 46h46z" />
    <glyph glyph-name="k.superior" unicode="&#xf061;" horiz-adv-x="384" 
d="M120 388h-33l62 505h33l-43 -349l80 72l119 106h48l-162 -142l144 -192h-45l-125 171l-64 -56z" />
    <glyph glyph-name="l.superior" unicode="&#xf062;" horiz-adv-x="222" 
d="M102 388l62 505h33l-62 -505h-33z" />
    <glyph glyph-name="m.superior" unicode="&#xf063;" horiz-adv-x="607" 
d="M150 722l1 -59q44 66 115 66q39 0 64 -18.5t29 -52.5q47 71 120 71q48 0 73.5 -27t19.5 -76l-29 -238h-33l28 228q5 40 -13 61t-56 21q-39 0 -70.5 -28.5t-41.5 -61.5l-27 -220h-33l28 228q11 82 -70 82q-39 0 -70 -28.5t-41 -61.5l-27 -220h-33l32 261l6 73h28z" />
    <glyph glyph-name="n.superior" unicode="&#xf064;" horiz-adv-x="419" 
d="M150 722l1 -60q21 30 54.5 48.5t72.5 18.5q52 0 82 -27.5t24 -75.5l-29 -238h-33l28 228q5 39 -18 60.5t-65 21.5q-44 0 -78.5 -28.5t-44.5 -61.5l-27 -220h-33l32 261l6 73h28z" />
    <glyph glyph-name="o.superior" unicode="&#xf065;" horiz-adv-x="419" 
d="M215 382q-63 0 -97 35.5t-34 102.5q0 93 47.5 151t126.5 58q63 0 97 -35.5t34 -102.5q0 -93 -47.5 -151t-126.5 -58zM254 698q-62 0 -98.5 -48t-36.5 -126q0 -111 100 -111q62 0 98.5 48t36.5 126q0 111 -100 111z" />
    <glyph glyph-name="p.superior" unicode="&#xf066;" horiz-adv-x="432" 
d="M126 448l-23 -186h-33l47 387l6 73h28l1 -60q21 31 55 49t70 18q60 0 92.5 -37t32.5 -103q0 -89 -46.5 -148t-121.5 -59q-36 0 -65 18t-43 48zM237 413q58 0 93.5 49.5t35.5 123.5q0 53 -24.5 82.5t-69.5 29.5q-49 0 -82.5 -28t-44.5 -62l-13 -106q2 -34 29 -61.5
t76 -27.5z" />
    <glyph glyph-name="q.superior" unicode="&#xf067;" horiz-adv-x="432" 
d="M312 262l23 186q-20 -30 -54.5 -48t-70.5 -18q-60 0 -92 36.5t-32 101.5q0 90 45.5 149.5t121.5 59.5q36 0 65.5 -18t42.5 -49l15 60h29l-13 -73l-47 -387h-33zM250 698q-58 0 -93.5 -50t-35.5 -124q0 -53 24.5 -82t69.5 -29q49 0 82 27.5t44 61.5l13 106q-2 34 -28.5 62
t-75.5 28z" />
    <glyph glyph-name="r.superior" unicode="&#xf068;" horiz-adv-x="282" 
d="M275 729q16 0 32 -4l-9 -34q-24 4 -27 4q-50 0 -86 -31t-42 -68l-26 -208h-33l32 261l6 73h28v-64q20 32 54.5 51.5t70.5 19.5z" />
    <glyph glyph-name="s.superior" unicode="&#xf069;" horiz-adv-x="380" 
d="M197 412q49 0 83 19.5t34 60.5q0 13 -5.5 22t-12 14t-23.5 9t-26.5 5.5t-34.5 4.5q-21 3 -30.5 4.5t-28.5 6.5t-28.5 12t-17.5 20t-8 30q0 54 41.5 81.5t95.5 27.5q107 0 122 -81l-35 -16q-5 66 -91 66q-38 0 -68 -17.5t-30 -56.5q0 -24 19 -32t72 -15q72 -11 94 -23
q31 -18 31 -56q0 -58 -46 -87t-111 -29q-110 0 -122 80l35 16q5 -66 91 -66z" />
    <glyph glyph-name="t.superior" unicode="&#xf070;" horiz-adv-x="281" 
d="M76 692l4 30h64l11 87l34 11l-12 -98h106l-4 -30h-106l-22 -187q-7 -55 8.5 -73.5t56.5 -18.5q17 0 32 6l1 -32q-13 -5 -37 -5q-47 0 -70.5 18.5t-25 47.5t1.5 65l22 179h-64z" />
    <glyph glyph-name="u.superior" unicode="&#xf071;" horiz-adv-x="419" 
d="M323 388l1 60q-21 -30 -55.5 -48t-72.5 -18q-52 0 -82 27.5t-24 75.5l29 237h32l-28 -228q-4 -38 18.5 -59.5t64.5 -21.5q45 0 79.5 28t44.5 61l27 220h32l-32 -261l-5 -73h-29z" />
    <glyph glyph-name="v.superior" unicode="&#xf072;" horiz-adv-x="364" 
d="M380 722l-172 -340h-39l-89 340h38l48 -196l26 -113l55 113l97 196h36z" />
    <glyph glyph-name="w.superior" unicode="&#xf073;" horiz-adv-x="545" 
d="M205 519l96 203h38l46 -203l20 -97l31 98l69 202h36l-121 -340h-37l-48 214l-19 91l-41 -91l-102 -214h-38l-35 340h35l19 -201l6 -99z" />
    <glyph glyph-name="x.superior" unicode="&#xf074;" horiz-adv-x="361" 
d="M205 536l-54 -65l-70 -83h-41l116 136l33 38l-24 37l-76 123h41l43 -72l38 -66l55 66l61 72h40l-137 -160l105 -174h-41z" />
    <glyph glyph-name="y.superior" unicode="&#xf075;" horiz-adv-x="358" 
d="M378 722l-166 -308l-79 -152h-38l75 139l-94 321h39l50 -181l27 -106l54 106l95 181h37z" />
    <glyph glyph-name="z.superior" unicode="&#xf076;" horiz-adv-x="385" 
d="M62 388l3 27l195 209l67 68h-216l4 30h255l-3 -26l-196 -210l-65 -68h234l-4 -30h-274z" />
    <glyph glyph-name="caronSlovak" unicode="&#xf078;" 
d="M344 592h-27l57 208h54z" />
    <glyph glyph-name="altcedilla" unicode="&#xf079;" 
d="M205 -68l14 29q125 -10 125 -79q0 -45 -34 -68.5t-86 -23.5q-49 0 -77 17l13 29q1 -1 9 -5t24 -7.5t32 -3.5q84 0 84 57q0 7 -2 13.5t-6.5 11l-8.5 8.5t-12.5 7t-13.5 4.5t-15.5 3.5t-15 3t-16 2.5t-14.5 1.5z" />
    <glyph glyph-name="acute.cap" unicode="&#xf080;" 
d="M462 1030h47l-132 -208h-35z" />
    <glyph glyph-name="grave.cap" unicode="&#xf081;" 
d="M263 1030h47l68 -208h-35z" />
    <glyph glyph-name="circumflex.cap" unicode="&#xf082;" 
d="M535 822h-36l-115 175l-159 -175h-40l179 208h44z" />
    <glyph glyph-name="dieresis.cap" unicode="&#xf083;" 
d="M314 973l-7 -60h-60l7 60h60zM505 973l-7 -60h-60l7 60h60z" />
    <glyph glyph-name="tilde.cap" unicode="&#xf084;" 
d="M533 970l28 -5q-10 -40 -41.5 -64.5t-71.5 -24.5q-34 0 -61 18t-51 36t-51 18q-62 0 -80 -63l-27 5q10 40 41.5 64.5t70.5 24.5q42 0 87 -36t77 -36q28 0 49.5 16t29.5 47z" />
    <glyph glyph-name="ring.cap" unicode="&#xf085;" 
d="M359 812q-48 0 -74.5 26t-26.5 70q0 57 35.5 94.5t93.5 37.5q48 0 74.5 -26t26.5 -70q0 -57 -35.5 -94.5t-93.5 -37.5zM384 1012q-44 0 -69.5 -28t-25.5 -73q0 -71 73 -71q44 0 69.5 28t25.5 73q0 71 -73 71z" />
    <glyph glyph-name="caron.cap" unicode="&#xf086;" 
d="M211 1030h36l115 -175l159 175h40l-179 -208h-44z" />
    <glyph glyph-name="macron.cap" unicode="&#xf087;" 
d="M237 927l4 32h272l-4 -32h-272z" />
    <glyph glyph-name="breve.cap" unicode="&#xf088;" 
d="M533 1030h31q-13 -99 -60 -148.5t-143 -49.5t-131 49.5t-22 148.5h29q-11 -89 19 -128t108 -39t118 39t51 128z" />
    <glyph glyph-name="invertedbreve.cap" unicode="&#xf089;" 
d="M213 822h-31q13 99 60 148.5t143 49.5t131 -49.5t22 -148.5h-29q11 89 -19 128t-108 39t-118 -39t-51 -128z" />
    <glyph glyph-name="hungarumlaut.cap" unicode="&#xf090;" 
d="M385 1030h47l-132 -208h-35zM525 1030h47l-132 -208h-35z" />
    <glyph glyph-name="doublegrave.cap" unicode="&#xf091;" 
d="M340 1030h47l68 -208h-35zM200 1030h47l68 -208h-35z" />
    <glyph glyph-name="dotaccent.cap" unicode="&#xf092;" 
d="M409 973l-7 -60h-60l7 60h60z" />
    <glyph glyph-name="exclamdown.cap" unicode="&#xf093;" horiz-adv-x="200" 
d="M90 0h-60l92 590h20zM181 780l-6 -52h-52l6 52h52z" />
    <glyph glyph-name="questiondown.cap" unicode="&#xf094;" 
d="M354 590h26q11 -45 11 -83q0 -34 -8.5 -58t-28 -40.5t-32 -23.5t-40.5 -19q-5 -2 -28 -12t-30 -13.5l-27 -13.5t-28 -17t-23.5 -19t-22 -23.5t-15 -27t-11.5 -33t-3 -38.5q0 -71 48 -107.5t127 -36.5q191 0 232 165l34 -16q-53 -184 -271 -184q-98 0 -155.5 45.5
t-57.5 128.5q0 28 6.5 52.5t15.5 42.5t26.5 35.5t30 28t35.5 23t34 18t34.5 15t29.5 12.5q31 14 44 21.5t28 21.5t20 33t5 48q0 30 -6 75zM353 728l6 52h52l-6 -52h-52z" />
    <glyph glyph-name="interrobangdown" unicode="&#xf095;" horiz-adv-x="540" 
d="M192 157q51 20 70 39l23 144h20l-46 -512q146 16 182 160l35 -16q-53 -182 -266 -182q-206 0 -206 150q0 41 12.5 75t28 54t43 38t45 26t46.5 19q9 3 13 5zM44 -55q0 -64 42 -91t119 -29l51 328q-27 -15 -49 -23q-81 -31 -108 -54q-55 -44 -55 -131zM286 478l7 52h52
l-7 -52h-52z" />
    <glyph glyph-name="interrobangdown.cap" unicode="&#xf096;" 
d="M263 391q35 16 47 22l27 177h20l-49 -563q157 15 193 163l35 -16q-52 -184 -271 -184q-98 0 -156 45.5t-58 128.5q0 28 6.5 52.5t15.5 42.5t26 35t30 27.5t35.5 23t34 18t35 15.5t29.5 13zM94 167q0 -65 42.5 -100.5t112.5 -40.5l55 350q-4 -1 -10.5 -4.5t-10.5 -5.5
t-25.5 -11t-27.5 -12t-25 -12t-25.5 -14t-22 -16t-22 -19.5t-16.5 -22t-14 -26.5t-7.5 -30t-3.5 -36zM338 728l6 52h52l-6 -52h-52z" />
    <glyph glyph-name="reversequoteleft" unicode="&#xf097;" horiz-adv-x="125" 
d="M52 780h54l7 -250h-21z" />
    <glyph glyph-name="reversequotedblleft" unicode="&#xf098;" horiz-adv-x="265" 
d="M192 780h54l7 -250h-21zM52 780h54l7 -250h-21z" />
    <glyph glyph-name="guilsinglleft.cap" unicode="&#xf099;" horiz-adv-x="300" 
d="M279 565l-6 -46l-183 -132l151 -132l-5 -40l-190 151l6 48z" />
    <glyph glyph-name="guilsinglright.cap" unicode="&#xf100;" horiz-adv-x="300" 
d="M35 215l6 46l183 132l-151 132l5 40l190 -151l-6 -48z" />
    <glyph glyph-name="guillemotleft.cap" unicode="&#xf101;" horiz-adv-x="508" 
d="M279 565l-6 -46l-183 -132l151 -132l-5 -40l-190 151l6 48zM487 565l-6 -46l-183 -132l151 -132l-5 -40l-190 151l6 48z" />
    <glyph glyph-name="guillemotright.cap" unicode="&#xf102;" horiz-adv-x="508" 
d="M244 215l6 46l183 132l-151 132l5 40l190 -151l-6 -48zM36 215l6 46l183 132l-151 132l5 40l190 -151l-6 -48z" />
    <glyph glyph-name="onethirdemdash" unicode="&#xf104;" horiz-adv-x="333" 
d="M282 318h-233l4 34h233z" />
    <glyph glyph-name="threequarteremdash" unicode="&#xf105;" horiz-adv-x="750" 
d="M699 318h-650l4 34h650z" />
    <glyph glyph-name="periodcentered.cap" unicode="&#xf106;" horiz-adv-x="200" 
d="M141 420l-7 -60h-60l7 60h60z" />
    <glyph glyph-name="hyphen.cap" unicode="&#xf107;" horiz-adv-x="360" 
d="M315 373h-260l4 34h260z" />
    <glyph glyph-name="onethirdemdash.cap" unicode="&#xf108;" horiz-adv-x="333" 
d="M288 373h-233l4 34h233z" />
    <glyph glyph-name="endash.cap" unicode="&#xf109;" horiz-adv-x="500" 
d="M455 373h-400l4 34h400z" />
    <glyph glyph-name="threequarteremdash.cap" unicode="&#xf110;" horiz-adv-x="750" 
d="M705 373h-650l4 34h650z" />
    <glyph glyph-name="emdash.cap" unicode="&#xf111;" horiz-adv-x="1000" 
d="M959 407l-4 -34h-900l4 34h900z" />
    <glyph glyph-name="figuredash.cap" unicode="&#xf112;" horiz-adv-x="700" 
d="M655 373h-600l4 34h600z" />
    <glyph glyph-name="parenleft.cap" unicode="&#xf113;" horiz-adv-x="240" 
d="M261 870q-84 -134 -130 -297t-46 -335q0 -153 59 -328h-35q-61 130 -61 337q-4 154 51 341.5t127 281.5h35z" />
    <glyph glyph-name="parenright.cap" unicode="&#xf114;" horiz-adv-x="240" 
d="M-6 -90q84 134 130 297t46 335q0 153 -59 328h35q61 -130 61 -337q4 -154 -51 -341.5t-127 -281.5h-35z" />
    <glyph glyph-name="bracketleft.cap" unicode="&#xf115;" horiz-adv-x="240" 
d="M202 834l-109 -888h90l-4 -36h-130l117 960h130l-4 -36h-90z" />
    <glyph glyph-name="bracketright.cap" unicode="&#xf116;" horiz-adv-x="240" 
d="M53 -54l109 888h-90l4 36h130l-117 -960h-129l4 36h89z" />
    <glyph glyph-name="braceleft.cap" unicode="&#xf117;" horiz-adv-x="280" 
d="M97 390q26 -12 34 -45.5t3 -71.5l-28 -227q-7 -57 15 -78.5t65 -21.5h37l-4 -36h-27q-45 0 -74 12.5t-39 32.5t-14 45.5t2 51.5l27 222q7 59 -7.5 78.5t-54.5 19.5h-19l5 36h19q40 0 59.5 19.5t26.5 78.5l27 222q8 65 41 103.5t118 38.5h27l-4 -36h-37q-92 0 -104 -100
l-28 -227q-13 -94 -66 -117z" />
    <glyph glyph-name="braceright.cap" unicode="&#xf118;" horiz-adv-x="280" 
d="M197 390q-25 12 -33 45.5t-3 71.5l28 227q7 57 -15 78.5t-65 21.5h-37l4 36h27q45 0 74 -12.5t39 -32.5t14 -45.5t-2 -51.5l-27 -222q-7 -59 7.5 -78.5t54.5 -19.5h19l-5 -36h-19q-40 0 -59.5 -19.5t-26.5 -78.5l-27 -222q-8 -65 -41 -103.5t-118 -38.5h-26l4 36h36
q92 0 104 100l28 227q13 94 65 117z" />
    <glyph glyph-name="anglebracketleft.cap" unicode="&#xf119;" horiz-adv-x="240" 
d="M85 388l58 -478h-35l-61 480l178 480h37z" />
    <glyph glyph-name="anglebracketright.cap" unicode="&#xf120;" horiz-adv-x="240" 
d="M169 392l-58 478h35l61 -480l-178 -480h-37z" />
    <glyph glyph-name="lowline" unicode="&#xf121;" horiz-adv-x="300" 
d="M240 0h-260l4 34h260z" />
    <glyph glyph-name="tripleprime" unicode="&#xf122;" horiz-adv-x="480" 
d="M127 780h56l-49 -250h-18zM267 780h56l-49 -250h-18zM407 780h56l-49 -250h-18z" />
    <glyph glyph-name="at.cap" unicode="&#xf123;" horiz-adv-x="1030" 
d="M700 266l-6 -74h9q136 0 200 96t64 253q0 142 -94.5 229.5t-290.5 87.5q-224 0 -358 -155t-134 -402q0 -178 99.5 -281.5t286.5 -103.5q144 0 238.5 43.5t121.5 99.5l34 -16q-36 -63 -140 -112t-258 -49q-197 0 -308.5 107.5t-111.5 304.5q0 266 149 432t385 166
q207 0 311.5 -93t104.5 -252q0 -180 -79 -284.5t-233 -104.5h-28l-1 93q-29 -42 -84.5 -72.5t-121.5 -30.5q-81 0 -134 53t-53 148q0 131 74.5 207t172.5 76q66 0 114 -30.5t66 -72.5l24 93h30l-19 -108zM688 476q-50 121 -172 121q-86 0 -146 -67t-60 -178q0 -79 42 -124
t113 -45q121 0 202 121z" />
    <glyph glyph-name="registered.superior" unicode="&#xf124;" horiz-adv-x="330" 
d="M52 622q0 67 51.5 117.5t117.5 50.5q57 0 95 -38t38 -94q0 -67 -51 -117.5t-118 -50.5q-57 0 -95 38.5t-38 93.5zM219 771q-58 0 -102.5 -44t-44.5 -103q0 -48 33 -81t82 -33q59 0 103.5 43.5t44.5 103.5q0 49 -32.5 81.5t-83.5 32.5zM159 622l-9 -70h-22l22 177h72
q53 0 53 -43q0 -51 -46 -62l35 -72h-28l-31 70h-46zM161 643h54q37 0 37 40q0 24 -29 24h-54z" />
    <glyph glyph-name="published" unicode="&#xf125;" horiz-adv-x="880" 
d="M54 341q0 118 63 222t167.5 165.5t221.5 61.5q152 0 253 -100.5t101 -248.5q0 -119 -63 -223.5t-167.5 -166t-221.5 -61.5q-152 0 -253 101t-101 250zM502 754q-79 0 -154.5 -33t-131.5 -88t-90.5 -130.5t-34.5 -155.5q0 -136 92 -228.5t230 -92.5q106 0 201 56
t152.5 150.5t57.5 202.5q0 135 -92 227t-230 92zM487 335h-150l-22 -180h-37l57 470h187q138 0 138 -117q0 -49 -15 -84.5t-41 -54t-55 -26.5t-62 -8zM368 589l-27 -218h165q17 0 34 5t37 18t32 41t12 68q0 49 -27 67.5t-61 18.5h-165z" />
    <glyph glyph-name="zero.slash" unicode="&#xf126;" horiz-adv-x="700" 
d="M308 -10q-231 0 -231 272q0 107 18.5 197t56.5 162t102.5 112.5t150.5 40.5q231 0 231 -272q0 -107 -18.5 -197t-56.5 -162t-102.5 -112.5t-150.5 -40.5zM313 26q136 0 209.5 130.5t73.5 334.5q0 106 -35 167l-386 -582q47 -50 138 -50zM400 738q-136 0 -209.5 -130.5
t-73.5 -334.5q0 -106 35 -167l386 582q-47 50 -138 50z" />
    <glyph glyph-name="zero.LP" unicode="&#xf127;" horiz-adv-x="700" 
d="M400 738q-92 0 -157.5 -64t-95.5 -167.5t-30 -236.5q0 -125 48.5 -184.5t147.5 -59.5q92 0 157.5 64t95.5 167.5t30 236.5q0 125 -48.5 184.5t-147.5 59.5zM308 -10q-120 0 -175.5 67.5t-55.5 204.5q0 107 18.5 197t56.5 162t102.5 112.5t150.5 40.5q120 0 175.5 -67.5
t55.5 -204.5q0 -107 -18.5 -197t-56.5 -162t-102.5 -112.5t-150.5 -40.5z" />
    <glyph glyph-name="one.LP" unicode="&#xf128;" horiz-adv-x="410" 
d="M210 0h-39l87 712q-74 -73 -189 -112l5 36q64 25 105 54.5t92 83.5h34z" />
    <glyph glyph-name="two.LP" unicode="&#xf129;" horiz-adv-x="696" 
d="M586 0h-556q10 78 37.5 137t73 101t95.5 70t120 54q57 21 85.5 33t64.5 32.5t52.5 41t28 52.5t11.5 73q0 74 -54 109t-140 35q-108 0 -168 -37.5t-86 -112.5l-36 17q63 169 295 169q108 0 167.5 -45.5t59.5 -133.5q0 -48 -16.5 -87.5t-39.5 -64.5t-61.5 -47.5t-68 -34.5
t-73.5 -28l-9 -3q-129 -48 -202 -118t-88 -175l512 1z" />
    <glyph glyph-name="three.LP" unicode="&#xf130;" horiz-adv-x="677" 
d="M598 236q0 -115 -80 -180.5t-235 -65.5q-123 0 -181.5 45.5t-60.5 123.5l39 19q0 -152 208 -152q127 0 198.5 50t71.5 156q0 142 -191 142h-134l5 36h134q41 0 76 8t67.5 27.5t51 58t18.5 93.5q0 71 -54.5 106t-142.5 35q-111 0 -168 -35.5t-82 -115.5l-36 17
q59 170 283 170q104 0 171 -42t67 -130t-48 -146t-111 -65v-1q57 -5 95.5 -41.5t38.5 -112.5z" />
    <glyph glyph-name="four.LP" unicode="&#xf131;" horiz-adv-x="665" 
d="M592 186h-148l-22 -186h-36l22 186h-371l4 29l438 559h38l-68 -553h148zM413 221l41 334l20 156l-117 -149l-169 -215l-100 -127l122 1h203z" />
    <glyph glyph-name="five.LP" unicode="&#xf132;" horiz-adv-x="677" 
d="M159 384l-39 18l80 362h414l-4 -36h-383l-66 -300q34 30 90.5 49t123.5 19q109 0 167 -54.5t58 -152.5q0 -143 -87 -221t-219 -78q-125 0 -182 45t-61 130l40 19q1 -78 44.5 -118t155.5 -40q123 0 196 65.5t73 195.5q0 83 -47.5 128t-141.5 45q-71 0 -128 -20.5
t-84 -55.5z" />
    <glyph glyph-name="six.LP" unicode="&#xf133;" horiz-adv-x="690" 
d="M440 739q-124 0 -207.5 -88t-106.5 -269q-5 -41 -7 -74q38 91 115.5 131t163.5 40q100 0 156.5 -51t56.5 -148q0 -135 -83 -212.5t-210 -77.5q-123 0 -181 69.5t-58 210.5q0 240 99 372t268 132q186 0 206 -141l-39 -18q-8 64 -47 93.5t-126 30.5zM394 442
q-107 0 -189 -66t-82 -179q25 -172 194 -172q48 0 91.5 14t80.5 42.5t59 79t22 116.5q0 84 -47.5 124t-128.5 41z" />
    <glyph glyph-name="seven.LP" unicode="&#xf134;" horiz-adv-x="617" 
d="M168 0h-43l359 601l79 129l-162 -1h-292l4 35h497l-3 -31z" />
    <glyph glyph-name="eight.LP" unicode="&#xf135;" horiz-adv-x="686" 
d="M306 26q117 0 186 47t69 151q0 150 -213 150q-36 0 -68 -4.5t-67.5 -18t-61 -35.5t-42.5 -60t-17 -88q0 -142 214 -142zM353 410q34 0 64 4t62.5 16.5t55.5 32.5t38 54.5t15 79.5q0 72 -52.5 106.5t-142.5 34.5q-105 0 -170 -47.5t-65 -144.5q0 -136 195 -136zM301 -10
q-121 0 -185.5 45t-64.5 127q0 102 59 163t128 67q-51 13 -85 49.5t-34 100.5q0 117 78 174.5t201 57.5q227 0 227 -171q0 -91 -47 -143t-114 -68q138 -28 138 -163q0 -113 -78 -176t-223 -63z" />
    <glyph glyph-name="nine.LP" unicode="&#xf136;" horiz-adv-x="690" 
d="M263 25q123 0 207 88t107 269q5 41 7 74q-38 -91 -115.5 -131t-163.5 -40q-100 0 -156.5 51t-56.5 148q0 135 83 212.5t210 77.5q123 0 181 -69.5t58 -210.5q0 -240 -99 -372t-268 -132q-186 0 -206 141l39 18q8 -64 47 -93.5t126 -30.5zM309 322q107 0 189 66t82 179
q-25 172 -194 172q-48 0 -91.5 -14t-80.5 -42.5t-59 -79t-22 -116.5q0 -84 47.5 -124t128.5 -41z" />
    <glyph glyph-name="Eurooldstyle" unicode="&#xf137;" horiz-adv-x="613" 
d="M12 184l5 36h82q0 35 11 90h-82l4 36h88q31 90 98 142t154 52q85 0 133 -33t57 -91l-41 -19q-10 108 -153 108q-68 0 -122.5 -42.5t-82.5 -116.5h292l-15 -36h-287q-12 -48 -11 -90h260l-16 -36h-243q7 -75 52 -117t114 -42q145 0 180 108l37 -18q-50 -125 -222 -125
q-87 0 -141.5 52t-62.5 142h-88z" />
    <glyph glyph-name="sterlingoldstyle" unicode="&#xf138;" horiz-adv-x="631" 
d="M208 370l-11 -87h206l-4 -35h-206l-26 -213h363l-4 -35h-502l4 35h100l26 213h-100l4 35h100l11 83q11 87 68.5 130.5t154.5 43.5q155 0 174 -116l-39 -18q-8 104 -139 101q-82 -2 -126.5 -32.5t-53.5 -104.5z" />
    <glyph glyph-name="florinoldstyle" unicode="&#xf139;" horiz-adv-x="395" 
d="M137 248h-124l4 34h124l6 50q5 39 10.5 64.5t18.5 55.5t32 47t52.5 29t78.5 12q34 0 56 -9l-13 -36q-18 9 -48 9q-66 0 -100 -29.5t-45 -115.5l-10 -77h163l-4 -34h-163l-31 -250q-5 -39 -10 -64.5t-18 -55.5t-32 -47t-52 -29t-78 -12q-36 0 -56 9l12 36q21 -9 48 -9
q65 0 99.5 29.5t45.5 115.5z" />
    <glyph glyph-name="yenoldstyle" unicode="&#xf140;" horiz-adv-x="520" 
d="M418 102h-166l-12 -102h-40l12 102h-166l4 34h166l7 59h-166l5 34h148l-161 301h47l67 -127l86 -163l126 163l99 127h47l-235 -301h148l-5 -34h-166l-7 -59h166z" />
    <glyph glyph-name="uni20A1oldstyle" unicode="&#xf141;" horiz-adv-x="562" 
d="M520 607l-55 -107q39 -33 47 -84l-41 -19q-5 41 -26 65l-224 -433q16 -4 38 -4q145 0 180 108l37 -17q-22 -59 -79 -92.5t-143 -33.5q-23 0 -51 5l-37 -72h-40l42 83q-17 6 -31 17l-51 -100h-40l63 123q-60 62 -60 170q0 142 78.5 233t194.5 91q22 0 42 -3l36 70h40
l-39 -77q24 -7 33 -11l46 88h40zM318 505q-96 0 -161.5 -82.5t-65.5 -201.5q0 -82 39 -135l216 418q-8 1 -28 1zM156 59q12 -11 30 -19l231 444q-14 8 -33 13z" />
    <glyph glyph-name="uni20A2oldstyle" unicode="&#xf142;" horiz-adv-x="562" 
d="M474 315q27 0 44 -4l-10 -40q-25 5 -39 5q-82 0 -141 -51.5t-69 -112.5l-10 -87h10q145 0 180 108l37 -17q-22 -59 -79 -92.5t-143 -33.5q-95 0 -150 61.5t-55 165.5q0 141 78.5 232t194.5 91q85 0 133 -33t57 -91l-41 -19q-10 108 -153 108q-94 0 -160.5 -79.5
t-66.5 -204.5q0 -75 32 -125t88 -65l21 166l8 108h30v-110q32 55 89.5 87.5t114.5 32.5z" />
    <glyph glyph-name="uni20A3oldstyle" unicode="&#xf143;" horiz-adv-x="560" 
d="M153 0h-39l23 188h-100l4 35h100l9 73h-100l4 35h100l25 199h366l-5 -35h-327l-20 -164h256l-4 -35h-256l-9 -73h256l-4 -35h-256z" />
    <glyph glyph-name="uni20A4oldstyle" unicode="&#xf144;" horiz-adv-x="631" 
d="M208 370l-6 -51h206l-5 -35h-206l-9 -73h206l-4 -35h-206l-17 -141h363l-4 -35h-502l4 35h100l17 141h-100l4 35h100l9 73h-100l5 35h100l6 47q11 87 68.5 130.5t154.5 43.5q155 0 174 -116l-39 -18q-8 104 -139 101q-82 -2 -126.5 -32.5t-53.5 -104.5z" />
    <glyph glyph-name="uni20A6oldstyle" unicode="&#xf145;" horiz-adv-x="648" 
d="M440 0l-105 187h-196l-22 -187h-39l22 187h-70l5 35h70l10 86h-70l5 35h70l23 187h50l104 -187h196l23 187h39l-23 -187h70l-5 -35h-70l-10 -86h70l-5 -35h-70l-22 -187h-50zM154 308l-10 -86h172l-48 86h-114zM315 308l49 -86h114l10 86h-173zM458 48l15 139h-91z
M174 482l-15 -139h90z" />
    <glyph glyph-name="uni20A7oldstyle" unicode="&#xf146;" horiz-adv-x="1433" 
d="M545 26q87 0 136 41q-12 40 -1 131l36 298h-126l5 34h126l17 140l39 13l-18 -153h173l-5 -34h-173l-40 -325q-10 -86 17.5 -115.5t93.5 -29.5q77 0 124 32q-17 23 -22 56l42 19q10 -108 153 -108q82 0 136 30t62 94q3 26 -5 45t-20 29.5t-40 18t-48 10.5t-61 7
q-33 3 -52.5 6.5t-47 12t-42 21t-24 35t-5.5 53.5q9 76 70 114.5t145 38.5q85 0 133 -33t57 -91l-41 -19q-10 108 -154 108q-60 0 -111 -28.5t-59 -88.5q-6 -53 25.5 -68.5t129.5 -26.5q37 -4 59 -7.5t53 -13.5t47 -24t26.5 -39t6.5 -59q-10 -81 -77 -120.5t-167 -39.5
q-95 0 -144 40q-61 -40 -154 -40q-89 0 -122 43q-62 -43 -158 -43q-95 0 -127 51q-63 -51 -146 -51q-57 0 -107.5 29.5t-70.5 80.5l-37 -300h-38l76 622l9 108h30v-100q33 51 91 80.5t115 29.5q91 0 141 -59t50 -161q0 -155 -84 -251q22 -43 103 -43zM122 372l-26 -214
q13 -52 54.5 -92.5t119.5 -40.5q93 0 153 81t60 211q0 88 -40 138t-114 50q-78 0 -129 -40.5t-78 -92.5z" />
    <glyph glyph-name="uni20A8oldstyle" unicode="&#xf147;" horiz-adv-x="1019" 
d="M704 -10q-53 0 -93.5 6.5t-94 27.5t-104.5 71t-96 127h-189l-27 -222h-40l65 530h230q31 0 54 -4.5t45.5 -16.5t35 -37.5t12.5 -62.5q0 -92 -40 -134.5t-100 -50.5q73 -117 155 -158t191 -41q86 0 142.5 34t56.5 106q0 22 -9.5 37.5t-22.5 25t-39 16t-46.5 9t-57.5 6.5
q-30 3 -49.5 6t-45 10.5t-40.5 18.5t-26 30t-11 45q0 57 32.5 97t80 57t103.5 17q85 0 133 -33t57 -91l-41 -19q-10 108 -154 108q-64 0 -117.5 -33t-53.5 -100q0 -42 32.5 -55.5t123.5 -23.5q35 -4 56 -7t50.5 -12t46 -21t28.5 -33t12 -50q0 -90 -70 -135t-175 -45z
M160 494l-29 -236h199q133 0 133 143q0 55 -29 74t-75 19h-199z" />
    <glyph glyph-name="uni20A9oldstyle" unicode="&#xf148;" horiz-adv-x="734" 
d="M367 530h50l24 -187h131l60 187h40l-60 -187h80l-5 -35h-87l-27 -86h104l-5 -35h-111l-63 -197h-50l-27 197h-144l-75 -197h-50l-15 197h-111l5 35h104l-7 86h-87l5 35h80l-14 187h40l13 -187h132zM323 308l-32 -86h126l-12 86h-82zM456 222h78l3 11l23 75h-115zM167 308
l6 -75l1 -11h77l32 86h-116zM175 187l9 -148l54 148h-63zM460 187l18 -148l44 148h-62zM385 480l-49 -137h65z" />
    <glyph glyph-name="uni20AAoldstyle" unicode="&#xf149;" horiz-adv-x="665" 
d="M109 530h191q153 0 135 -144l-32 -256h-38l31 251q7 62 -16.5 88.5t-84.5 26.5h-153l-60 -496h-38zM388 0h-191l49 400h38l-45 -366h153q61 0 91.5 26.5t37.5 88.5l47 381h38l-48 -386q-18 -144 -170 -144z" />
    <glyph glyph-name="uni20AEoldstyle" unicode="&#xf150;" horiz-adv-x="480" 
d="M374 236l-133 -64l-21 -172h-40l18 152l-122 -57l5 42l122 57l10 80l-122 -57l5 42l122 57l22 178h-185l5 36h410l-5 -36h-185l-19 -158l134 64l-6 -42l-133 -64l-10 -80l134 64z" />
    <glyph glyph-name="uni20B1oldstyle" unicode="&#xf151;" horiz-adv-x="609" 
d="M325 192h-187l-23 -192h-40l35 293h-70l5 35h70l8 66h-70l4 35h70l13 101h227q133 0 148 -101h66l-4 -35h-60q0 -26 -8 -66h60l-5 -35h-66q-39 -101 -173 -101zM470 328q8 38 8 66h-315l-8 -66h315zM373 494h-198l-8 -65h306q-17 65 -100 65zM142 228h198q84 0 116 65
h-306z" />
    <glyph glyph-name="numbersignoldstyle" unicode="&#xf152;" horiz-adv-x="680" 
d="M104 -77h-37l66 176h-121l4 34h130l98 264h-126l4 34h135l66 176h37l-66 -176h200l66 176h37l-66 -176h121l-4 -34h-130l-98 -264h126l-4 -34h-135l-66 -176h-37l66 176h-200zM281 397l-98 -264h200l98 264h-200z" />
    <glyph glyph-name="zero.OT" unicode="&#xf200;" horiz-adv-x="700" 
d="M308 -10q-110 0 -179 58.5t-69 178.5q0 91 27 160t73.5 108.5t101.5 59t118 19.5q110 0 179 -58.5t69 -178.5q0 -91 -27 -160t-73.5 -108.5t-101.5 -59t-118 -19.5zM313 26q51 0 97 15.5t87 49.5t65.5 96t24.5 146q0 108 -59.5 156.5t-151.5 48.5q-51 0 -97 -15.5
t-87.5 -49.5t-66 -96t-24.5 -146q0 -108 59.5 -156.5t152.5 -48.5z" />
    <glyph glyph-name="one.OT" unicode="&#xf201;" horiz-adv-x="700" 
d="M579 37l-4 -37h-490l4 37h221l58 472q-87 -104 -254 -149l4 35q85 23 141 59.5t122 119.5h34l-66 -537h230z" />
    <glyph glyph-name="two.OT" unicode="&#xf202;" horiz-adv-x="700" 
d="M607 425q0 -34 -7.5 -60.5t-24 -44.5t-32.5 -30t-44 -20.5t-46 -12.5t-51 -10t-48 -9q-131 -28 -183 -73t-68 -128l464 1l-4 -38h-506q16 122 81.5 182t208.5 88q16 3 44.5 8t42.5 7.5t36.5 8.5t34 12t26 16.5t21.5 23t12 31t5 41.5q0 64 -44.5 92t-139.5 28
q-115 0 -169.5 -38.5t-73.5 -113.5l-36 16q22 80 88.5 126t183.5 46q122 0 175.5 -38t53.5 -111z" />
    <glyph glyph-name="three.OT" unicode="&#xf203;" horiz-adv-x="700" 
d="M584 36q0 -115 -80 -180.5t-235 -65.5q-123 0 -181.5 45.5t-60.5 123.5l39 19q0 -152 208 -152q127 0 198.5 50t71.5 156q0 142 -191 142h-134l5 36h134q41 0 76 8t67.5 27.5t51 58t18.5 93.5q0 71 -54.5 106t-142.5 35q-111 0 -168 -35.5t-82 -115.5l-36 17
q59 170 283 170q104 0 171 -42t67 -130t-48 -146t-111 -65v-1q57 -5 95.5 -41.5t38.5 -112.5z" />
    <glyph glyph-name="four.OT" unicode="&#xf204;" horiz-adv-x="700" 
d="M595 0h-148l-25 -200h-36l25 200h-386l3 29l451 545h38l-66 -539h148zM415 35l39 320l22 167l-129 -160l-179 -216l-96 -112l125 1h218z" />
    <glyph glyph-name="five.OT" unicode="&#xf205;" horiz-adv-x="700" 
d="M147 184l-39 18l81 362h414l-5 -36h-383l-66 -300q34 30 91 49t124 19q109 0 166.5 -54.5t57.5 -152.5q0 -143 -86.5 -221t-218.5 -78q-125 0 -182 45t-61 130l40 19q1 -79 44 -118.5t155 -39.5q123 0 196 66t73 196q0 82 -47.5 127t-141.5 45q-70 0 -127 -20.5
t-85 -55.5z" />
    <glyph glyph-name="six.OT" unicode="&#xf206;" horiz-adv-x="700" 
d="M440 739q-124 0 -207.5 -88t-106.5 -269q-5 -41 -7 -74q38 91 115.5 131t163.5 40q100 0 156.5 -51t56.5 -148q0 -135 -83 -212.5t-210 -77.5q-123 0 -181 69.5t-58 210.5q0 240 99 372t268 132q186 0 206 -141l-39 -18q-8 64 -47 93.5t-126 30.5zM394 442
q-107 0 -189 -66t-82 -179q25 -172 194 -172q48 0 91.5 14t80.5 42.5t59 79t22 116.5q0 84 -47.5 124t-128.5 41z" />
    <glyph glyph-name="seven.OT" unicode="&#xf207;" horiz-adv-x="700" 
d="M188 -200h-43l376 600l84 129h-501l5 35h542l-4 -31z" />
    </font>
</defs>
</svg>
